<?xml version="1.0" encoding="utf-8"?>
<!-- Generator: Adobe Illustrator 27.3.1, SVG Export Plug-In . SVG Version: 6.00 Build 0)  -->
<svg version="1.1" id="Layer_1" xmlns="http://www.w3.org/2000/svg" xmlns:xlink="http://www.w3.org/1999/xlink" x="0px" y="0px"
	 viewBox="0 0 500 500" style="enable-background:new 0 0 500 500;" xml:space="preserve">
<style type="text/css">
	.st0{fill:#E6E6E6;}
	.st1{fill:#F5F5F5;}
	.st2{fill:#E0E0E0;}
	.st3{fill:#C7D3C5;}
	.st4{opacity:0.1;}
	.st5{fill:#FFFFFF;}
	.st6{fill:#FFA8A7;}
	.st7{fill:#37474F;}
	.st8{fill:#F0F0F0;}
	.st9{opacity:0.5;enable-background:new    ;}
	.st10{fill:#F28F8F;}
	.st11{fill:#263238;}
	.st12{opacity:0.1;enable-background:new    ;}
	.st13{opacity:0.2;enable-background:new    ;}
	.st14{clip-path:url(#SVGID_00000173162930199007871560000001494153330957462460_);}
	.st15{clip-path:url(#SVGID_00000114765337573039008290000007903334352297669770_);}
	.st16{opacity:0.3;fill:#FFFFFF;enable-background:new    ;}
	.st17{clip-path:url(#SVGID_00000134250900279732246000000003516295090901248394_);}
	.st18{fill:#455A64;}
	.st19{fill:#A0B19F;}
	.st20{opacity:0.3;enable-background:new    ;}
	.st21{opacity:0.5;fill:#FFFFFF;enable-background:new    ;}
	.st22{opacity:5.000000e-02;enable-background:new    ;}
	.st23{fill:#FAFAFA;}
	.st24{opacity:0.2;fill:#FFFFFF;enable-background:new    ;}
	.st25{opacity:0.25;fill:#FFFFFF;enable-background:new    ;}
	.st26{fill:#263238;stroke:#263238;stroke-linecap:round;stroke-linejoin:round;}
	.st27{opacity:0.7;fill:#FFFFFF;enable-background:new    ;}
</style>
<g id="freepik--City--inject-19">
	<polygon id="freepik--city--inject-19" class="st0" points="456.7,351.8 456.7,133.6 447.7,128.4 429.7,138.8 429.7,177 
		417.7,170.1 417.7,156.2 408.6,151 408.6,130.2 390.7,119.8 375.6,128.5 375.6,177 363.6,170.1 363.6,142.3 354.6,137.1 
		354.6,109.3 333.6,97.3 315.6,107.7 315.6,163.2 300.6,171.8 300.6,137.1 285.5,128.5 273.5,135.4 273.5,152.7 261.5,159.7 
		261.5,118 249.5,111.1 237.5,118 237.5,104.2 225.5,97.3 198.7,112.7 198.7,172.7 189.6,178 189.6,133.6 180.6,128.4 162.5,138.8 
		162.5,177 150.5,170.1 150.5,156.2 141.5,151 141.5,130.2 123.5,119.8 108.6,128.5 108.6,177 96.5,170.1 96.5,159.6 87.5,154.4 
		87.5,126.6 66.5,114.5 49.1,124.5 49.1,351.8 	"/>
</g>
<g id="freepik--Floor--inject-5">
	<ellipse id="freepik--floor--inject-5" class="st1" cx="252.9" cy="334.6" rx="223.7" ry="121.6"/>
</g>
<g id="freepik--Shadows--inject-5">
	<ellipse id="freepik--Shadow--inject-5" class="st2" cx="366" cy="293.1" rx="46.6" ry="26.9"/>
	<ellipse id="freepik--shadow--inject-5" class="st2" cx="113.8" cy="361.4" rx="46.6" ry="26.9"/>
</g>
<g id="freepik--Plants--inject-5">
	<g id="freepik--plants--inject-5">
		<path class="st3" d="M436.1,283.7l-6.7-3.9c0,0-3.2-17.8-0.8-33.1c3.4-21.5,18-28.9,23.4-26.8s6.6,8.5-3,21
			C443.2,248.2,436,263.7,436.1,283.7z"/>
		<g class="st4">
			<path d="M436.1,283.7l-6.7-3.9c0,0-3.2-17.8-0.8-33.1c3.4-21.5,18-28.9,23.4-26.8s6.6,8.5-3,21
				C443.2,248.2,436,263.7,436.1,283.7z"/>
		</g>
		<path class="st5" d="M432.9,274.9L432.9,274.9c0.3,0,0.5-0.3,0.5-0.5c0,0,0,0,0,0c-2.2-20.2,6.5-42,15.9-50.7
			c0.2-0.2,0.2-0.5,0-0.7c-0.2-0.2-0.5-0.2-0.7,0c-9.5,8.8-18.4,31-16.2,51.5C432.5,274.7,432.7,274.9,432.9,274.9z"/>
		<path class="st3" d="M454.8,294.4c1.1,0.6,3.2-0.7,4.1-1.3c1.4-1,2.6-2.3,3.4-3.9c0.9-1.8,1.2-3.8,0.9-5.7c-0.2-1-0.4-2-0.7-3
			c-0.3-1-0.6-2-0.9-3c-0.3-1-0.5-2-0.4-3c0.2-2,2-3.4,3.7-4.6c1.8-1.4,3.7-3.1,3.7-5.6c-0.1-1.9-0.9-3.7-2.1-5.1
			c-1.2-1.5-2.5-2.8-3.6-4.3c-0.8-1.1-1.3-2.4-1.2-3.8c0.1-0.8,0.4-1.6,0.8-2.4c1-1.5,1.8-3.1,2.6-4.7c0.6-1.7,0.5-3.8-0.8-5
			c-1.2-0.9-2.7-1.2-4.2-1c-1.4,0.2-2.7,0.6-3.9,1.4c-3.9,2.1-6.1,6.7-10.1,8.4c-1.6,0.5-3.2,0.9-4.9,1.1c-1.7,0.3-3.2,1.3-4.1,2.8
			c-1.5,3,1.3,6.7,0.2,9.9c-0.9,2.8-3.7,3.9-5.2,6.4c-0.6,1.1-0.9,2.4-0.7,3.7c0.1,2.2,0.7,4.3,1.5,6.2c1,2,2.1,3.8,3.4,5.6
			C436.2,283.7,454.7,294.4,454.8,294.4z"/>
		<path class="st5" d="M443.9,288.6L443.9,288.6c0.3,0,0.5-0.2,0.5-0.5c0,0,0,0,0,0c-0.8-19.1,8.2-40.1,14.7-46.2
			c0.2-0.2,0.2-0.5,0-0.7c-0.2-0.2-0.5-0.2-0.7,0c-6.7,6.2-15.8,27.6-15,47C443.5,288.4,443.6,288.6,443.9,288.6z"/>
		<path class="st5" d="M446.8,266.1h0.1c4.5-1.2,9.2-2,13.8-2.2c0.3,0,0.5-0.2,0.5-0.5c0-0.3-0.2-0.5-0.5-0.5c0,0,0,0,0,0
			c-4.8,0.2-9.5,1-14.1,2.3c-0.3,0.1-0.4,0.3-0.3,0.6c0,0,0,0,0,0C446.4,266,446.5,266.1,446.8,266.1z"/>
	</g>
	<g id="freepik--plants--inject-5_00000075848000361314172170000017567039216518705846_">
		<path class="st3" d="M48.4,305.3l6.7-3.9c0,0,3.2-17.8,0.8-33.1c-3.4-21.5-18-28.9-23.4-26.8s-6.6,8.5,3,21
			C41.3,269.8,48.6,285.3,48.4,305.3z"/>
		<g class="st4">
			<path d="M48.4,305.3l6.7-3.9c0,0,3.2-17.8,0.8-33.1c-3.4-21.5-18-28.9-23.4-26.8s-6.6,8.5,3,21C41.3,269.8,48.6,285.3,48.4,305.3
				z"/>
		</g>
		<path class="st5" d="M52,304.3L52,304.3c-0.3,0-0.5-0.2-0.5-0.5c1.6-30-2.6-47.1-14.1-57.2c-0.2-0.2-0.2-0.5,0-0.7
			c0.2-0.2,0.5-0.2,0.7,0c11.7,10.4,16.1,27.7,14.5,58C52.5,304.1,52.3,304.3,52,304.3C52,304.3,52,304.3,52,304.3z"/>
		<path class="st3" d="M50.5,304.1c0.1-6.4-3.6-27.8-16.2-35.5s-18.8,1.9-13.6,7.8c3.8,4.3,10.7,7.4,17.3,16.3
			c4.5,6.1,7.1,14.7,7.1,14.7L50.5,304.1z"/>
		<path class="st5" d="M48.2,306.6c-0.3,0-0.5-0.2-0.5-0.5c-1.2-16.3-10.4-30.9-22.5-35.5c-0.3-0.1-0.4-0.4-0.3-0.6
			c0.1-0.3,0.4-0.4,0.7-0.3c12.4,4.8,21.8,19.7,23.1,36.3C48.7,306.4,48.5,306.6,48.2,306.6C48.2,306.6,48.2,306.6,48.2,306.6
			L48.2,306.6z"/>
	</g>
</g>
<g id="freepik--Characters--inject-5">
	<g id="freepik--character-2--inject-5">
		<g id="freepik--character-boy--inject-5_00000114067049376105857000000016250996835071675545_">
			<path class="st6" d="M302.5,114.5c1.5,1.2,3.3,1.9,5.3,3.8c1.3,1.4,2.9,2.5,4.6,3.2c2.3,0.9,4.5,0.7,10.9-0.4
				c7.8-1.2,11.2-2.6,14.6-5.4c4-3.4,12.8-13.5,17.1-17.5c4.5-4.2,10.7-2.6,10.7-2.6c-1.9,6.3-4.8,12.2-8.5,17.6
				c-3.4,4.9-9.8,9.5-12.7,11.9c-4.6,3.8-7.1,5.4-17.2,6.1c-7.7,0.6-8.7,0.8-15,0.6c-2.3-0.1-3.7-0.1-7.4-0.4
				c-1.6-0.1-3.2-0.4-4.8-0.8c-1.8-0.4-3.4-1.1-5-2c-2-1.3-3.7-3.2-4.7-5.3c-0.6-1.2-0.9-2.5-0.9-3.8c0-1.3,0.5-2.6,1.4-3.6
				c0.2-0.2,0.4-0.4,0.6-0.5c0.5-0.1,1,0,1.4,0.3c2.4,1.2,4.8,2.9,7.3,3.9c2.1,0.8,3.7,1.1,3.6,0.7s-1.4-0.8-2.8-2.3
				s-1.6-3.6-0.8-4.2S301,113.2,302.5,114.5z"/>
			<path class="st2" d="M367.5,95.5c-2.4-1.2-5.2-1.5-7.8-0.8c-4,1.1-7.1,3.7-10.9,7.8s-10.1,10.6-10.1,10.6s3.1,7.9,10.2,10.8
				l14.8-13.7L367.5,95.5z"/>
			<g id="freepik--character-boy--inject-5">
				<rect x="380.2" y="276.7" class="st6" width="9" height="15.3"/>
				<polygon class="st6" points="364.4,280.6 355.5,280.9 355,264.7 364.4,264.4 				"/>
				<path class="st7" d="M393,162.4c0,8.5-1.5,58.2-1.5,58.2c0.2,2.5,2.6,6.8,2.8,15.7c0.3,12.8-4.7,48.1-4.7,48.1
					c-3.1,1.6-6.8,1.6-10,0.2c0,0-4.1-47.8-5.7-60.5c-1.4-11.1-3.8-41.2-3.8-41.2l-4.2,36.2c1,4.7,1.4,9.5,1.1,14.2
					c-0.4,5.9-2.1,42.3-2.1,42.3c-3.2,1.8-6.9,2.1-10.3,0.8c0,0-6.3-51.9-6.4-57.3c-0.1-6.1,2.3-68.9,2.3-68.9L393,162.4z"/>
				<path class="st8" d="M387.1,99.5c2,0.9,3.5,2.5,4.3,4.5c0.9,2.5,1.4,5.1,1.3,7.7v17.5l0.3,33.1c-12.9,6.8-29.2,7.2-42.9-2.8
					c0,0,0.8-42.6,0.8-49.6c0-0.3,0-0.6,0-1c0.5-10,10.3-16.8,20-14.3l8.1,2.1L387.1,99.5L387.1,99.5z"/>
				
					<ellipse transform="matrix(0.9733 -0.2297 0.2297 0.9733 -5.6359 85.4295)" class="st3" cx="364.1" cy="66.9" rx="12.3" ry="12.3"/>
				
					<ellipse transform="matrix(0.9733 -0.2297 0.2297 0.9733 -5.6359 85.4295)" class="st9" cx="364.1" cy="66.9" rx="12.3" ry="12.3"/>
				<path class="st3" d="M385.4,75.6c0,0-2,9.4-2.8,10.9c-0.5,1-1.4,1.7-2.5,2l0.1-6.6L385.4,75.6z"/>
				<path class="st9" d="M385.4,75.6c0,0-2,9.4-2.8,10.9c-0.5,1-1.4,1.7-2.5,2l0.1-6.6L385.4,75.6z"/>
				<path class="st3" d="M382.9,62.2c1.4-0.2,2.8,0.3,3.8,1.3c1.6,1.7,0.7,6.9-1.3,12.1l-3.8,0.4L382.9,62.2z"/>
				<path class="st9" d="M382.9,62.2c1.4-0.2,2.8,0.3,3.8,1.3c1.6,1.7,0.7,6.9-1.3,12.1l-3.8,0.4L382.9,62.2z"/>
				<path class="st6" d="M380.5,76.1c0.8,0.4,1.8-1,2.8-2s4-2.3,5.5,0.9s-1.3,7.5-3.7,8.3c-4.1,1.3-4.7-1.3-4.7-1.3L380,97.2l0,0
					c-5.1,6.6-19.3,6-13.4-0.8v-4.5c-1.8,0.3-3.7,0.4-5.5,0.3c-3-0.5-4.9-2.8-5.9-6.1c-1.5-5.3-2-9.5-0.8-19.8
					c1.4-11.3,14.5-11.5,21.7-7S380.5,76.1,380.5,76.1z"/>
				<path class="st3" d="M380.5,77.3c0.4,0,1.8-2.4,2.8-3.2c1.3-1.2-0.4-11.9-0.4-11.9c0.7-1.9,0.2-4-1.2-5.4c-1.8-2-4.8-2.2-9.8-3
					c-2.7-0.4-6.7-1.2-9.4-1.7c-3.2-0.6-5.8-1.2-8,0.7c-1.8,1.6-2.4,4.1-1.6,6.3c0.6,1.3,1.7,2.4,3.1,3c0,0,1.4,1.2,6.2,1.8
					c4.4,0.3,8.9,0.2,13.3-0.3c1.4-0.2,1.7,1.2,2.5,4.9C378.7,71.8,379.2,77.3,380.5,77.3z"/>
				<path class="st9" d="M380.5,77.3c0.4,0,1.8-2.4,2.8-3.2c1.3-1.2-0.4-11.9-0.4-11.9c0.7-1.9,0.2-4-1.2-5.4c-1.8-2-4.8-2.2-9.8-3
					c-2.7-0.4-6.7-1.2-9.4-1.7c-3.2-0.6-5.8-1.2-8,0.7c-1.8,1.6-2.4,4.1-1.6,6.3c0.6,1.3,1.7,2.4,3.1,3c0,0,1.4,1.2,6.2,1.8
					c4.4,0.3,8.9,0.2,13.3-0.3c1.4-0.2,1.7,1.2,2.5,4.9C378.7,71.8,379.2,77.3,380.5,77.3z"/>
				<path class="st3" d="M382.9,63.1l4.5-2.4c-0.6-1.2-2.1-1.8-3.4-1.2c0,0,0,0-0.1,0C382.7,60.2,382.2,61.8,382.9,63.1z"/>
				<path class="st9" d="M382.9,63.1l4.5-2.4c-0.6-1.2-2.1-1.8-3.4-1.2c0,0,0,0-0.1,0C382.7,60.2,382.2,61.8,382.9,63.1z"/>
				<path class="st10" d="M366.6,91.9c0,0,6.8-1.4,9.1-2.6c1.4-0.7,2.6-1.8,3.3-3.2c-0.4,1.4-1,2.7-1.9,3.8
					c-1.7,2.2-10.5,3.8-10.5,3.8L366.6,91.9z"/>
				<path class="st11" d="M366.9,74.4c0,0.7,0.6,1.3,1.4,1.3c0.7,0,1.3-0.6,1.3-1.4c0-0.7-0.6-1.3-1.3-1.3
					C367.5,73,366.9,73.6,366.9,74.4z"/>
				<path class="st11" d="M368.4,69.3l2.9,1.6c0.4-0.8,0.1-1.8-0.7-2.3C369.8,68.2,368.8,68.4,368.4,69.3
					C368.4,69.2,368.4,69.3,368.4,69.3z"/>
				<path class="st10" d="M367.2,83.7l-3.1,1.2c0.3,0.8,1.2,1.3,2.1,1c0,0,0,0,0,0C367.1,85.6,367.5,84.6,367.2,83.7z"/>
				<path class="st11" d="M355.2,70.4l2.6-2c-0.5-0.7-1.5-1-2.2-0.5c0,0-0.1,0-0.1,0.1C354.8,68.6,354.7,69.6,355.2,70.4z"/>
				<path class="st11" d="M356.1,74c0,0.8,0.7,1.3,1.4,1.3c0.8,0,1.3-0.7,1.3-1.4c0-0.7-0.6-1.3-1.4-1.3
					C356.7,72.6,356,73.2,356.1,74C356.1,74,356.1,74,356.1,74z"/>
				<polygon class="st10" points="363,72.7 362.5,80.9 358.3,79.4 				"/>
				<path class="st11" d="M380.2,287.6v-1.3c-0.9,0.4-2.9,8-6.4,11.2c-2.8,2.6-6.7,5.5-7.6,8.4s5.4,4.6,8,4.2
					c3.1-0.5,8.4-2.7,9.7-4.7s2-5,3-6.4s3.6-3.1,4.2-4.8c0.3-0.9-0.1-3-0.5-4.7s-0.9-3.3-1.4-3.2c0,0.2,0,1,0,1
					c-1.3,1-2.9,1.5-4.5,1.5C383.4,288.9,380.2,288.6,380.2,287.6z"/>
				<path class="st11" d="M355.4,278.2c-0.5,0-0.9,0.7-1.9,1.8c-1.5,1.5-3.3,2.8-5.3,3.8c-3.4,1.7-9.9,4.2-12.8,5.6
					c-1.8,0.8-1.8,3.1,0.1,4.3s6.5,2.2,12,1c3-0.7,6.9-3.5,9.4-3.3s7.1,0.1,8.9-1.1s1.1-4,0.6-6.3c-0.6-2.5-1.3-6.5-2.1-6.3v0.9
					c-1.1,1.6-6.6,2.3-9,1.1L355.4,278.2z"/>
				<path class="st11" d="M370.1,182.9c-4.6-1.4-8.9-3.9-12.5-7.1c0,0,2.4,4.5,9.5,8.7l-1,31.6L370.1,182.9z"/>
			</g>
		</g>
	</g>
	<g id="freepik--character-1--inject-5">
		<path class="st11" d="M104.7,125.3h3.2c9.9,0,17.9,8,17.9,17.9v38l0,0h-39l0,0v-38C86.8,133.4,94.8,125.3,104.7,125.3L104.7,125.3
			L104.7,125.3z"/>
		<path class="st6" d="M103.4,368.1l-2.5-2.2c-2.4-2.2-4.3-6-5.3-8.5c-0.6-1.5-0.9-3-0.9-4.6v-5h-8.8v8.1l0,0v0.2l0,0
			c0.4,1.8,4.4,6.7,6.7,9.8c1.5,2.1,4.4,4.8,7.9,5.3C103.9,371.6,105.6,370.6,103.4,368.1z"/>
		<path class="st6" d="M128.8,354.7c0.2-0.1,0.5-0.3,0.6-0.6c0.7-0.9,0.1-1.5-0.4-2.2c-0.6-1-1.1-2.1-1.5-3.3
			c-0.4-1-0.9-2.8-0.9-2.8s0-1.3,0-1.8v-5h-8.8v8.4l0,0c0.4,2,2.2,3.8,3.4,5.4c0.9,1.2,3.2,1.8,4.6,2.1c0.6,0.2,1.3,0.2,1.9,0.1
			C128.1,355,128.5,354.9,128.8,354.7z"/>
		<path class="st7" d="M87.7,219.9c-6.8,14.9,0.2,67.2,0.2,67.2c-0.2,2.4-3,7.1-4,17.8c-1.2,12.5,1.9,44,1.9,44
			c2.7,1.6,6,1.7,8.9,0.4c0,0,8.3-47.4,9.9-59.8c1.4-10.9,4-34.8,4-34.8l5.2,34.8c-1.1,3.5-1.9,7.1-2.4,10.7
			c-0.7,7.3,6.4,41.4,6.4,41.4s3,1.1,8.8,0.3c0,0,2.5-45.3,3.2-54.1c1.1-14.8-0.6-61.1-3.3-69.9L87.7,219.9z"/>
		<path class="st11" d="M108.6,254.5l2.2-13.8c0,0,9.3-1.9,13.6-5.9c0,0-4.4,5.5-11,7.3l-2.5,10.6l2.2,31.5L108.6,254.5z"/>
		<path class="st11" d="M94.7,354.5v-1.3c0.8,0.4,2.8,7.8,6.3,11c2.8,2.5,6.6,5.5,7.5,8.3s-5.3,4.5-7.9,4.1c-3-0.5-8.2-2.7-9.5-4.6
			s-1.9-4.9-3-6.3s-3.5-3-4.1-4.7c-0.3-0.9,0.1-2.9,0.5-4.6s0.8-3.3,1.4-3.1v1c1.3,1,2.8,1.5,4.4,1.5
			C91.6,355.7,94.7,355.5,94.7,354.5z"/>
		<path class="st11" d="M126.6,345.9c0.4,0,1,0.7,2,1.8c1.5,1.5,3.3,2.8,5.2,3.7c3.3,1.6,9.7,4.2,12.6,5.5c1.8,0.8,1.7,3-0.1,4.2
			s-6.4,2.1-11.8,0.9c-3-0.7-6.8-3.4-9.2-3.2s-7,0.1-8.8-1.1s-1.1-3.9-0.6-6.1c0.6-2.5,1.2-6.4,2.1-6.2v0.9c1.1,1.6,6.5,2.2,8.8,1.1
			L126.6,345.9z"/>
		<path class="st6" d="M114.2,167.9c4.3-0.4,8.6,1.5,11.2,5c3.5,4.6,12.8,23.3,12.8,23.3s20.3-1.4,21.3-2.5s0.4-3.6,0.2-4.9
			s-0.7-4.2-1-5c-0.5-1.4,1.6-1,2.8,0.3s1.8,3.9,2.4,4.4s5.3-5,7.6-7.6s3.4-4.4,4.9-3.4c1.1,0.8,0.4,2.3-1.2,4.6c-0.8,1-1.5,2-2.1,3
			c-0.2,0.4,0.4,0.7,0.6,0.9c0.4,0.4,1.2,1.1,1.3,1.7c0,0.3,0,0.7,0.1,1c0.2,0.8,1.1,1.1,1.4,1.8c0.2,0.5,0,1.1,0.1,1.7
			c0.1,0.4,0.3,0.7,0.3,1c0,0.7-0.2,1.4-0.7,1.9c-1.6,1.9-3.8,2.6-5.9,3.8c-1.8,1-3.6,1.4-5.6,2.3s-26.7,7.3-30.4,5.2
			s-17.8-24.3-17.8-24.3C110.7,173.1,114.2,167.9,114.2,167.9z"/>
		<path class="st3" d="M99.6,168.3L99.6,168.3c-8.7,0.6-9.3,4.8-11.5,9.4c-1.7,3.5-1.1,7.7,0.2,11.4l5.5,17.4c0,0-2.8,6.9-6.2,13.4
			c15.2,8.5,34.3,4,38.8-2.2c0.2-1.3-1-11.6-1.7-18.3c2.7-6.7,3.4-11,2.3-15.4c-2.1-8.3-10.3-16.3-13.9-16L99.6,168.3z"/>
		<path class="st11" d="M85.9,133.4l2.6,4.2c-1.1,0.8-2.6,0.5-3.4-0.6c0,0,0-0.1-0.1-0.1C84.4,135.7,84.7,134.2,85.9,133.4z"/>
		<path class="st6" d="M119.4,133.2c2.1,1.2,4.6,6.4,4.3,17.3c-0.2,9.2-3.2,11.5-4.7,12.1s-4.4,0.3-7.2-0.2v5.5c0,0,3.9,4.5,3.6,7
			s-5.6,3.1-9.2,0.7c-2.4-1.7-4.4-3.8-6-6.2V156c0,0-1.9,2.5-5,0.5s-3.2-7.2-1.4-9s5.7-1.2,6.4,1.3c0,0,4.5,0.2,10.4-3.1
			C115.4,143.1,118.7,138.5,119.4,133.2z"/>
		<path class="st11" d="M112.5,148.2c0,0.6-0.5,1.2-1.1,1.2c-0.6,0-1.2-0.5-1.2-1.1c0-0.6,0.5-1.1,1.1-1.2
			C111.9,147,112.4,147.5,112.5,148.2C112.5,148.2,112.5,148.2,112.5,148.2z"/>
		<path class="st10" d="M113.8,156l2.7,0.9c-0.2,0.7-0.9,1.2-1.7,1c0,0,0,0-0.1,0C114,157.6,113.6,156.8,113.8,156z"/>
		<path class="st11" d="M122,144.6l-2.4-1.6c0.4-0.6,1.2-0.8,1.9-0.4c0,0,0,0,0.1,0C122.2,143,122.4,143.9,122,144.6z"/>
		<path class="st11" d="M121.4,147.3c0.1,0.6-0.4,1.2-1.1,1.2c0,0,0,0,0,0c-0.7,0.1-1.2-0.4-1.3-1.1s0.4-1.2,1.1-1.3
			S121.4,146.6,121.4,147.3C121.4,147.3,121.4,147.3,121.4,147.3z"/>
		<polygon class="st10" points="115.8,146.7 115.9,153.6 119.6,152.5 		"/>
		<path class="st10" d="M111.9,162.4c-3-0.4-9-2.1-10-4.6c0.4,1.2,1.1,2.3,2.1,3.1c1.8,1.6,7.9,3.3,7.9,3.3V162.4z"/>
		<path class="st12" d="M103.5,221.5c-4.2-1-8.4-5.5-6.5-9.9c0.5-1.2,1.5-2.3,2.7-2.9c0.9-0.5,2-0.4,2.8,0.3c-2-1.3-5.4-7.7-5.9-10
			l-2.3-7.8c-0.2-1.8-0.1-3.6,0.5-5.3l-6.1-7.1l-1.1,0.8c-1,3.1-0.2,6.5,0.8,9.6l5.5,17.4c0,0-2.8,6.9-6.2,13.4
			c10,5.4,21.9,6.2,32.6,2.1C114.7,222.9,109,222.7,103.5,221.5z"/>
	</g>
	<path class="st3" d="M175.5,395.5l-19.8-11.4c-2.1-1.2-3.2-4.3-3.2-8.2l-0.1-86.9l20,11.5l-0.1,87.2
		C172.3,391.5,173.5,394.2,175.5,395.5z"/>
	<path class="st13" d="M175.5,395.5l-19.8-11.4c-2.1-1.2-3.2-4.3-3.2-8.2l-0.1-86.9l20,11.5l-0.1,87.2
		C172.3,391.5,173.5,394.2,175.5,395.5z"/>
	<path class="st3" d="M175.7,395.6l-0.1-0.1c-2-1.3-3.2-4-3.2-7.9l0.1-87.2l-20-11.5l17.3-10.1l0.2-0.1l0,0l0,0l2.4-1.4l0,0l2.8-1.9
		l0.1-0.1l0.1-0.1c0.1-0.1,0.3-0.2,0.4-0.3l0.2-0.1l0.5-0.4l0.5-0.4c0.1-0.1,0.3-0.2,0.4-0.3l0.1-0.1l0.1-0.1
		c0.3-0.2,0.5-0.4,0.8-0.6l0.4-0.4l0.1-0.1c0.5-0.4,0.9-0.9,1.4-1.4l0.2-0.1c0.2-0.2,0.4-0.4,0.5-0.6c0.1-0.1,0.2-0.2,0.2-0.3
		c0.1-0.1,0.2-0.2,0.2-0.2v-0.1l0.1-0.1l0.1-0.1l0.5-0.7c0.1-0.2,0.3-0.4,0.4-0.6l0.1-0.1V268c0.2-0.3,0.4-0.5,0.5-0.8
		s0.3-0.5,0.4-0.7l0.1-0.1c0.1-0.2,0.2-0.4,0.3-0.6l0.2-0.3c0.1-0.3,0.3-0.5,0.4-0.8l0,0l0.2-0.5c0.1-0.2,0.2-0.3,0.2-0.5
		c0.1-0.1,0.1-0.3,0.2-0.4c0.1-0.1,0.1-0.3,0.2-0.4c0.1-0.4,0.2-0.7,0.4-1.1l0,0c0.1-0.3,0.2-0.6,0.3-0.9c0,0,0-0.1,0-0.1
		c0.1-0.3,0.2-0.7,0.2-1v-0.1c0-0.3,0.1-0.5,0.2-0.8l0,0c0.1-0.4,0.1-0.8,0.2-1.2v-0.2c0-0.1,0-0.2,0-0.3c0,0,0-0.1,0-0.1
		c0-0.1,0-0.2,0-0.3c0.1-0.5,0.1-1,0.1-1.4v-0.2v-0.6l0,0c0-0.7,0-1.5,0.1-2.2V252c0-0.2,0-0.4,0-0.6v-0.5c0-0.2,0-0.5,0-0.7
		c0-0.1,0-0.1,0-0.2c0-0.1,0-0.1,0-0.2v-0.3c0-0.4-0.1-0.7-0.1-1.1l0,0v-0.1c0-0.3-0.1-0.6-0.1-0.9c-0.2-1.4-0.5-2.7-0.8-4
		c-0.2-0.8-0.5-1.5-0.7-2.2c-0.6-1.6-1-3.2-1.2-4.9c0-0.3-0.1-0.7-0.1-1s0-0.8-0.1-1.2V234c0-0.1,0-0.2,0-0.3c0-0.2,0-0.4,0-0.6
		c0-4.6,2.8-10,6.3-12c0.3-0.2,0.7-0.4,1.1-0.5c0.2-0.1,0.5-0.1,0.8-0.1c0.2,0,0.5,0,0.7,0c0.1,0,0.2,0,0.4,0.1
		c0.3,0.1,0.7,0.2,1,0.4l20.4,11.6l0,0c0.1,0.1,0.2,0.1,0.3,0.2c1.2,0.9,1.8,2.6,1.8,4.8c0,0.3,0,0.6-0.1,1.1v0.1
		c-0.1,2.9-0.6,5.7-1.4,8.5c-0.2,0.7-0.3,1.4-0.5,2.2c-0.1,0.2-0.1,0.5-0.2,0.8c-0.2,0.8-0.3,1.6-0.5,2.4c-0.1,0.3-0.1,0.6-0.1,0.8
		l14-7.9l20,11.5v22.9c0,6.4-0.5,10.7-1.5,13.1c-0.7,1.7-1.8,2.7-4.2,4.1c-1.9,1.2-4.2,1.9-6.4,1.9c-0.7,0-1.4,0.1-2.1,0.2l-0.8,0.1
		c-0.3,0-0.5,0.1-0.8,0.2c-0.5,0.1-1,0.3-1.5,0.4l-0.4,0.1c-0.8,0.3-1.5,0.6-2.2,1c-0.1,0-0.2,0.1-0.3,0.1h-0.1l-0.1,0.1
		c-0.3,0.1-0.6,0.3-0.9,0.5c-3,1.8-5.5,4.3-7.4,7.3c-1,1.5-1.9,3.1-2.6,4.7c-0.7,1.5-1.3,3.1-1.8,4.8l1.1-1.2c1-1.2,2.1-2.3,3.3-3.3
		c1-0.8,2-1.6,3.1-2.2c1.6-0.9,2.9-1.7,3.8-1.1l0,0l19.8,11.8l0,0l0.2,0.2c0.1,0.1,0.1,0.1,0.1,0.2c0,0,0.1,0.1,0.1,0.1
		c0.1,0.1,0.1,0.1,0.1,0.2c0,0,0,0,0,0c0.1,0.1,0.1,0.2,0.2,0.3c0.5,1.1,0.9,3,1,6.2c0,0.4,0,0.7,0,1.1c0,1,0,2.1,0,3.4v22.9
		L182,395.1c-1.1,0.7-2.3,1-3.5,1.2c-0.4,0-0.8,0-1.2,0c-0.1,0-0.3,0-0.4-0.1C176.5,396,176.1,395.8,175.7,395.6z"/>
	<path class="st12" d="M225.8,310.9L225.8,310.9l19.8,11.8l0,0c-0.9-0.6-2.2,0.2-3.8,1.1c-1.1,0.6-2.2,1.4-3.1,2.2
		c-1.2,1-2.3,2.1-3.3,3.3c-2.3,2.7-4.9,5-7.8,6.9c-0.4,0.3-0.9,0.6-1.3,0.8c-7.2,4.2-13.1-0.3-13.1-9.9c0-2.9,0.5-5.7,1.4-8.5
		c0.4-0.4,0.7-0.8,1.1-1.1c1-1.2,2.1-2.3,3.3-3.3c1-0.8,2-1.6,3.1-2.2C223.5,311.1,224.8,310.3,225.8,310.9z"/>
	<path class="st12" d="M213.4,253.6l14.1-7.9l20,11.5l0,0l-17.2,9.9l0,0l0,0l-5.2,2.7h-0.1H225l-0.4,0.2l-0.2,0.1l-0.9,0.4l-0.5,0.2
		l-0.1,0c-0.3,0.1-0.6,0.2-0.8,0.3l-0.6,0.1c-0.3,0.1-0.6,0.1-0.8,0.2h-0.1l-0.4,0.1c-0.3,0-0.7,0.1-1,0.1H219c-0.4,0-0.8,0-1.2-0.1
		l-0.2,0c-0.3-0.1-0.6-0.2-0.9-0.3c-0.1,0-0.2-0.1-0.2-0.1l0,0c-0.3-0.1-0.5-0.3-0.7-0.5h-0.1l-0.2-0.1c-0.3-0.2-0.5-0.5-0.7-0.8
		l-0.1-0.1c-0.5-0.8-0.9-1.7-1.2-2.7l-0.1-0.2c-0.1-0.5-0.2-1-0.3-1.5v-0.3c-0.1-0.6-0.2-1.2-0.2-1.9c-0.1-0.9-0.1-1.6-0.1-2.4
		C213,258,213.1,255.8,213.4,253.6z"/>
	<path class="st12" d="M172.4,300.4l-20-11.5l17.3-10.1l0.1-0.1h0.1l0,0l2.4-1.4l0,0l2.8-1.9l0.1-0.1l0.1-0.1
		c0.1-0.1,0.3-0.2,0.4-0.3l0.1-0.1l0.5-0.4l0.5-0.4c0.1-0.1,0.3-0.2,0.4-0.3l0.1-0.1l0.1-0.1c0.3-0.2,0.5-0.4,0.8-0.6l0.4-0.4
		l0.1-0.1c0.5-0.4,0.9-0.9,1.4-1.4l0.2-0.1c0.2-0.2,0.3-0.4,0.5-0.6c0.1-0.1,0.2-0.2,0.2-0.3c0.1-0.1,0.1-0.2,0.2-0.2l0.1-0.1
		l0.1-0.1l0.1-0.1c0.2-0.2,0.4-0.4,0.5-0.7l0.4-0.6l0.1-0.1V268c0.2-0.3,0.4-0.5,0.5-0.8s0.3-0.5,0.4-0.7v-0.1
		c0.1-0.2,0.2-0.4,0.4-0.6c0.1-0.1,0.1-0.2,0.2-0.3c0.1-0.3,0.3-0.5,0.4-0.8l0,0l0.2-0.5c0.1-0.2,0.1-0.3,0.2-0.5s0.1-0.3,0.2-0.5
		s0.1-0.3,0.2-0.4c0.1-0.4,0.2-0.7,0.4-1.1l0,0c0.1-0.3,0.2-0.6,0.3-0.9c0,0,0-0.1,0-0.1c0.1-0.3,0.2-0.7,0.2-1v-0.1
		c0.1-0.3,0.1-0.5,0.2-0.8l0,0c0.1-0.4,0.1-0.8,0.2-1.2v-0.2c0-0.1,0-0.2,0-0.3c0,0,0-0.1,0-0.1c0-0.1,0-0.2,0-0.3
		c0.1-0.5,0.1-1,0.1-1.4v-0.2c0-0.2,0-0.4,0-0.6l0,0c0-0.7,0-1.4,0.1-2.2V252c0-0.2,0-0.4,0-0.6v-0.5c0-0.2,0-0.5,0-0.7v-0.2
		c0-0.1,0-0.1,0-0.2v-0.3c0-0.4-0.1-0.7-0.1-1.1v-0.1l0,0l-0.1-0.9c-0.2-1.4-0.5-2.7-0.8-4c-0.2-0.8-0.5-1.5-0.7-2.2
		c-0.6-1.6-1-3.2-1.2-4.9c0-0.3-0.1-0.7-0.1-1s0-0.8-0.1-1.2V234c0-0.1,0-0.2,0-0.3c0-0.2,0-0.4,0-0.6c0-4.6,2.8-10,6.3-12
		c0.3-0.2,0.7-0.4,1.1-0.5c0.2-0.1,0.5-0.1,0.8-0.1c0.2,0,0.5,0,0.7,0c0.1,0,0.2,0,0.4,0.1c0.3,0.1,0.7,0.2,1,0.4l20.3,11.6
		c-0.4-0.2-0.9-0.4-1.4-0.4c-0.4,0-0.7,0-1.1,0.1c-0.6,0.1-1.1,0.4-1.6,0.7c-0.6,0.4-1.2,0.8-1.7,1.3c-1.4,1.4-2.5,3-3.3,4.8
		c-0.2,0.4-0.3,0.8-0.5,1.2c-0.2,0.6-0.3,1.2-0.5,1.8c-0.2,1-0.3,1.9-0.3,2.9c0,0.3,0,0.6,0,0.9v0.1c0,1.6,0.3,3.2,0.7,4.8
		c0.1,0.3,0.1,0.5,0.2,0.8c0.2,0.5,0.3,1,0.5,1.5c0.2,0.7,0.5,1.4,0.7,2.2c0.1,0.3,0.1,0.6,0.2,0.8c0.1,0.3,0.1,0.6,0.2,0.9
		c0.2,1,0.4,2.1,0.5,3.2v0l0,0c0,0.2,0,0.4,0,0.5v0.5v0.1v0.1c0,0.1,0,0.2,0,0.4c0,0.1,0,0.2,0,0.4c0,0.1,0,0.2,0,0.4v0.5
		c0,0.2,0,0.4,0,0.6v0.1c0,0.4,0,0.7,0,1.1s0,0.7-0.1,1.1c0,0.2,0,0.4,0,0.5v0.2c0,0.5-0.1,1-0.1,1.4c0,0.2-0.1,0.5-0.1,0.7v0.2l0,0
		l-0.2,1.2l-0.2,0.8v0.1c0,0.2-0.1,0.4-0.1,0.6s-0.1,0.4-0.1,0.5s0,0.2-0.1,0.2s-0.1,0.5-0.2,0.7l0,0c-0.1,0.4-0.2,0.7-0.4,1.1
		s-0.2,0.6-0.3,0.9s-0.3,0.7-0.4,1l-0.4,0.8l0,0c-0.1,0.1-0.2,0.3-0.2,0.5l-0.2,0.5l-0.1,0.1c-0.1,0.1-0.1,0.2-0.2,0.4l-0.1,0.1
		c0,0.1-0.1,0.2-0.1,0.2c-0.2,0.3-0.3,0.5-0.5,0.8v0.1l-0.1,0.1c-0.1,0.1-0.1,0.2-0.2,0.3c-0.1,0.1-0.1,0.2-0.2,0.3l-0.2,0.2
		c-0.1,0.1-0.2,0.3-0.3,0.4l-0.1,0.1l-0.1,0.1l-0.2,0.3l-0.1,0.1c0,0.1-0.1,0.1-0.2,0.2l-0.3,0.3c-0.1,0.1-0.2,0.2-0.2,0.3l-0.1,0.1
		c-0.4,0.5-0.9,0.9-1.4,1.4l-0.1,0.1l-0.4,0.4c-0.2,0.2-0.5,0.4-0.7,0.6l-0.1,0.1l-0.1,0.1l-0.1,0.1l-0.4,0.3l-1,0.7l-0.1,0.1
		l-0.4,0.3l-0.2,0.1l-2.8,1.9l-2.4,1.4l-0.1,0.1l-0.2,0.1L172.4,300.4z"/>
	<g>
		<defs>
			<path id="SVGID_1_" d="M226.2,327.9c0.2-0.1,0.4-0.3,0.7-0.5l0,0l0,0c2.2-1.5,4.2-3.2,5.9-5.2c0.9-1,1.7-1.8,2.6-2.7l0.1-0.1
				l0.3-0.2l0.1-0.1c0.4-0.4,0.9-0.8,1.3-1.2l8.3,5l0,0c0.2,0.1,0.3,0.2,0.4,0.4l0,0c0.1,0.1,0.1,0.2,0.2,0.3v0.1
				c0.1,0.1,0.1,0.2,0.1,0.3v0.1l0.1,0.3c0,0,0,0.1,0,0.1c0,0.1,0.1,0.2,0.1,0.3c0,0,0,0.1,0,0.1s0.1,0.3,0.1,0.4v0.1
				c0,0.2,0.1,0.4,0.1,0.6l0,0c0,0.2,0.1,0.5,0.1,0.7v0.1l0.1,0.7c0,0.1,0,0.2,0,0.2l0.1,0.6c0,0.1,0,0.2,0,0.3s0,0.4,0.1,0.6
				s0,0.2,0,0.4v0.6c0,0.1,0,0.3,0,0.4s0,0.5,0,0.7s0,0.3,0,0.4s0,0.6,0,0.9v0.4c0,0.4,0,0.9,0,1.4v22.9l82-47.4v-12.9
				c0-0.1,0-0.2,0-0.2v-96.3l0,0l-17.2,9.9l-0.3,0.2l-0.2,0.1l0,0l0,0l-3.4,2.1l0,0l0,0c-1.4,0.9-2.7,1.9-3.9,2.9l-0.1,0.1l-0.2,0.2
				c-0.3,0.3-0.6,0.5-0.9,0.8l-0.1,0.1l-0.4,0.4c-0.3,0.3-0.5,0.5-0.8,0.8l-0.5,0.5c-0.2,0.3-0.5,0.5-0.7,0.8s-0.3,0.4-0.5,0.6
				s-0.5,0.6-0.7,0.9l-0.4,0.5l-0.1,0.1l-0.1,0.1c-0.2,0.3-0.3,0.5-0.5,0.8s-0.2,0.4-0.3,0.6l-0.1,0.1c-0.3,0.6-0.6,1.1-0.9,1.8
				l-0.1,0.1c-0.1,0.2-0.2,0.5-0.3,0.8s-0.2,0.5-0.3,0.8l-0.1,0.2c-0.1,0.3-0.2,0.6-0.3,0.9s-0.2,0.6-0.3,1s-0.2,0.7-0.2,1
				s-0.1,0.7-0.2,1s-0.1,0.7-0.2,1.1v0.1c0,0.3-0.1,0.6-0.1,0.9s-0.1,0.8-0.1,1.2v0.2c0,0.2,0,0.5,0,0.7c0,0.5,0,1,0,1.7v0.1
				c0,0.1,0,0.2,0,0.4c-0.1,3.7,0.5,7.4,1.8,10.8c0.8,2.2,1.3,4.6,1.4,7v0.1c0,0.3,0,0.6,0,0.9c0,2.4-0.7,4.8-1.8,7
				c-1,2-2.5,3.8-4.4,5l0,0c-0.3,0.2-0.6,0.3-0.9,0.4l-0.2,0.1c-0.3,0.1-0.6,0.2-0.9,0.2h-0.2c-0.3,0-0.6,0-0.9,0h-0.1
				c-0.3,0-0.6-0.1-0.8-0.3l0,0l0,0l0,0l-0.1,0l0,0l-8.7-5.1c0-0.3,0-0.5,0.1-0.8s0.1-0.6,0.1-0.9c0.1-0.6,0.2-1.2,0.3-1.8
				s0.2-1.1,0.3-1.6c0.1-0.3,0.1-0.5,0.2-0.8c0.2-1.1,0.5-2.2,0.8-3.4c0.9-3.1,1.3-6.2,1.4-9.4c0-3-0.3-4.4-1.1-4.8l-9.9-5.7
				l-16.7,9.6l-6.9-4v8l-6,3.5l0,0l-1.9,1.1l8,4.6l0,0v11.9l0,0v11.1c0,6.4-0.5,10.7-1.5,13.1c-0.7,1.6-1.8,2.7-4.2,4.1
				c-1.9,1.2-4.2,1.9-6.4,1.9c-0.7,0-1.4,0.1-2.1,0.2l-0.8,0.1c-0.2,0-0.5,0.1-0.8,0.2c-0.5,0.1-1,0.3-1.5,0.4h-0.1l-0.3,0.1
				c-0.8,0.3-1.5,0.6-2.2,1l-0.3,0.1h-0.1h-0.1c-0.3,0.1-0.6,0.3-0.9,0.5c-3,1.8-5.5,4.3-7.4,7.3c-0.5,0.7-0.9,1.4-1.4,2.2l-0.2,0.3
				c-0.4,0.7-0.7,1.3-1,2l-0.1,0.2c-0.7,1.5-1.3,3.1-1.8,4.8l0,0c-0.4,1.5-0.8,3-1,4.5l8.8,5.1C223.5,328.8,225,328.7,226.2,327.9z"
				/>
		</defs>
		<clipPath id="SVGID_00000101792822279306364290000008472387993318364836_">
			<use xlink:href="#SVGID_1_"  style="overflow:visible;"/>
		</clipPath>
		<g style="clip-path:url(#SVGID_00000101792822279306364290000008472387993318364836_);">
			<path class="st3" d="M248.7,300.5l-21.3-12.3l0.5-0.6l0.1-0.1l0.2-0.3c0.3-0.5,0.7-1,1-1.5l0.1-0.2c0.3-0.5,0.6-1.1,0.9-1.8
				c0.1-0.1,0.1-0.3,0.2-0.5v-0.1c0.1-0.4,0.3-0.8,0.5-1.3c0.1-0.2,0.1-0.4,0.2-0.6v-0.1c0.1-0.4,0.2-0.7,0.3-1.1s0.2-0.6,0.2-0.9
				s0.2-0.7,0.2-1s0.1-0.7,0.2-1s0.1-0.6,0.2-0.9V276c0.1-0.3,0.1-0.6,0.2-0.9s0.1-0.4,0.1-0.5v-0.2c0.2-1.6,0.4-3.3,0.5-5.1V269
				l0.1-4.9v-23.4l21.2,12.4l0,0v23.4l-0.1,4.9v0.2c-0.1,1.8-0.2,3.5-0.4,5.1v0.2c0,0.2-0.1,0.4-0.1,0.6s-0.1,0.6-0.1,0.9v0.1
				c-0.1,0.3-0.1,0.6-0.2,1s-0.1,0.6-0.2,1s-0.1,0.7-0.2,1s-0.2,0.6-0.2,0.9s-0.2,0.7-0.4,1.1v0.1c-0.1,0.2-0.1,0.4-0.2,0.6
				c-0.2,0.5-0.4,0.9-0.5,1.3l-0.1,0.1l-0.2,0.5c-0.3,0.6-0.6,1.2-0.9,1.8l-0.1,0.2c-0.3,0.5-0.6,1-0.9,1.5
				c-0.1,0.1-0.2,0.2-0.2,0.3v0.1L248.7,300.5z"/>
			<path class="st3" d="M233.1,341.1l0.1-19.3l-0.3,0.3c0.9-1,1.7-1.8,2.6-2.7l0.1-0.1l0.3-0.2l0.2-0.1c1.7-1.6,3.5-3,5.6-4.2l0,0
				l0.2-0.1h0.1l0.1-0.1l0,0c0.5-0.3,1-0.5,1.4-0.7c0.1-0.1,0.3-0.1,0.4-0.2l0.1-0.1c0.3-0.1,0.7-0.3,1-0.4c0.2-0.1,0.4-0.1,0.5-0.2
				h0.1c0.3-0.1,0.6-0.1,0.8-0.2s0.4-0.1,0.6-0.1c0.2,0,0.5,0,0.7,0c0.2,0,0.4,0,0.6,0c0.2,0,0.4,0.1,0.6,0.1h0.1l0.4,0.1
				c0.2,0.1,0.4,0.2,0.6,0.3c0.2,0.1,0.4,0.2,0.6,0.4c0.2,0.2,0.4,0.3,0.6,0.5c0.1,0.1,0.2,0.2,0.3,0.4l0.1,0.1l0.1,0.1
				c0.1,0.1,0.2,0.3,0.3,0.4c0.1,0.2,0.2,0.4,0.3,0.6c0.1,0.2,0.2,0.4,0.3,0.5s0.2,0.5,0.3,0.7s0.1,0.4,0.2,0.6s0.2,0.6,0.2,0.9
				l0.1,0.5v0.1c0.1,0.3,0.1,0.7,0.2,1c0,0.1,0,0.2,0,0.3v0.1c0.2,1.4,0.4,3,0.5,4.9v0.1l0.1,4.5v23.7L233.1,341.1z"/>
			<path class="st3" d="M221.8,328.1L200.9,316c-1.4-0.7-2.2-2.7-2.2-5.2c0.1-3,1-6,2.8-8.5l0.4-0.6c-0.1,0.2-0.2,0.3-0.3,0.5
				l21.3,12.3c-0.1,0.1-0.1,0.1-0.1,0.2c-1.7,2.5-2.7,5.5-2.8,8.5C219.9,325.6,220.6,327.3,221.8,328.1z"/>
			<path class="st11" d="M248.7,300.5l-21.3-12.3l0.5-0.6l0.1-0.1l0.2-0.3c0.3-0.5,0.7-1,1-1.5l0.1-0.2c0.3-0.5,0.6-1.1,0.9-1.8
				c0.1-0.1,0.1-0.3,0.2-0.5v-0.1c0.1-0.4,0.3-0.8,0.5-1.3c0.1-0.2,0.1-0.4,0.2-0.6v-0.1c0.1-0.4,0.2-0.7,0.3-1.1s0.2-0.6,0.2-0.9
				s0.2-0.7,0.2-1s0.1-0.7,0.2-1s0.1-0.6,0.2-0.9V276c0.1-0.3,0.1-0.6,0.2-0.9s0.1-0.4,0.1-0.5v-0.2c0.2-1.6,0.4-3.3,0.5-5.1V269
				l0.1-4.9v-23.4l21.2,12.4l0,0v23.4l-0.1,4.9v0.2c-0.1,1.8-0.2,3.5-0.4,5.1v0.2c0,0.2-0.1,0.4-0.1,0.6s-0.1,0.6-0.1,0.9v0.1
				c-0.1,0.3-0.1,0.6-0.2,1s-0.1,0.6-0.2,1s-0.1,0.7-0.2,1s-0.2,0.6-0.2,0.9s-0.2,0.7-0.4,1.1v0.1c-0.1,0.2-0.1,0.4-0.2,0.6
				c-0.2,0.5-0.4,0.9-0.5,1.3l-0.1,0.1l-0.2,0.5c-0.3,0.6-0.6,1.2-0.9,1.8l-0.1,0.2c-0.3,0.5-0.6,1-0.9,1.5
				c-0.1,0.1-0.2,0.2-0.2,0.3v0.1L248.7,300.5z"/>
			<path class="st11" d="M233.1,341.1l0.1-19.3l-0.3,0.3c0.9-1,1.7-1.8,2.6-2.7l0.1-0.1l0.3-0.2l0.2-0.1c1.7-1.6,3.5-3,5.6-4.2l0,0
				l0.2-0.1h0.1l0.1-0.1l0,0c0.5-0.3,1-0.5,1.4-0.7c0.1-0.1,0.3-0.1,0.4-0.2l0.1-0.1c0.3-0.1,0.7-0.3,1-0.4c0.2-0.1,0.4-0.1,0.5-0.2
				h0.1c0.3-0.1,0.6-0.1,0.8-0.2s0.4-0.1,0.6-0.1c0.2,0,0.5,0,0.7,0c0.2,0,0.4,0,0.6,0c0.2,0,0.4,0.1,0.6,0.1h0.1l0.4,0.1
				c0.2,0.1,0.4,0.2,0.6,0.3c0.2,0.1,0.4,0.2,0.6,0.4c0.2,0.2,0.4,0.3,0.6,0.5c0.1,0.1,0.2,0.2,0.3,0.4l0.1,0.1l0.1,0.1
				c0.1,0.1,0.2,0.3,0.3,0.4c0.1,0.2,0.2,0.4,0.3,0.6c0.1,0.2,0.2,0.4,0.3,0.5s0.2,0.5,0.3,0.7s0.1,0.4,0.2,0.6s0.2,0.6,0.2,0.9
				l0.1,0.5v0.1c0.1,0.3,0.1,0.7,0.2,1c0,0.1,0,0.2,0,0.3v0.1c0.2,1.4,0.4,3,0.5,4.9v0.1l0.1,4.5v23.7L233.1,341.1z"/>
			<path class="st11" d="M221.8,328.1L200.9,316c-1.4-0.7-2.2-2.7-2.2-5.2c0.1-3,1-6,2.8-8.5l0.4-0.6c-0.1,0.2-0.2,0.3-0.3,0.5
				l21.3,12.3c-0.1,0.1-0.1,0.1-0.1,0.2c-1.7,2.5-2.7,5.5-2.8,8.5C219.9,325.6,220.6,327.3,221.8,328.1z"/>
			<path class="st7" d="M222,328.2L222,328.2l-0.1-0.1c-1.2-0.8-1.9-2.5-1.9-4.9c0.1-3,1-6,2.8-8.5c0-0.1,0.1-0.2,0.1-0.2
				l-21.3-12.3c0.1-0.1,0.2-0.3,0.3-0.5c0.3-0.4,0.6-0.7,0.8-1c0.1-0.2,0.3-0.3,0.4-0.5c0.1-0.2,0.3-0.3,0.5-0.5
				c0.4-0.4,0.9-0.7,1.4-1l0,0c0.2-0.1,0.4-0.2,0.6-0.3l0.2-0.1l0,0h0.1c0.9-0.5,1.8-0.8,2.8-1.1l0.3-0.1c0.9-0.2,1.8-0.3,2.7-0.4
				c3.1-0.1,6.2-1,8.9-2.7l0.7-0.4c0.2-0.1,0.4-0.2,0.6-0.4s0.3-0.2,0.5-0.3l0,0h0.1l0.7-0.5l0.7-0.5l0.1-0.1l0.1-0.1l0.1-0.1
				l0.3-0.3c0.1-0.1,0.2-0.2,0.3-0.2s0.4-0.3,0.5-0.5l0.2-0.2l0.1-0.1l0.4-0.5c0.2-0.2,0.4-0.4,0.5-0.6l0.1-0.1l0.3-0.3
				c0.1-0.2,0.3-0.4,0.4-0.5l21.3,12.3l0.4-0.5V300c0.1-0.1,0.2-0.2,0.2-0.3c0.3-0.5,0.7-1,0.9-1.5l0.1-0.2c0.3-0.6,0.6-1.2,0.9-1.8
				l0.2-0.5l0.1-0.1c0.1-0.4,0.3-0.8,0.5-1.3c0.1-0.2,0.2-0.4,0.2-0.6v-0.1c0.1-0.4,0.2-0.7,0.4-1.1s0.2-0.6,0.2-0.9s0.2-0.7,0.2-1
				s0.1-0.6,0.2-1s0.1-0.6,0.2-1v-0.1c0.1-0.3,0.1-0.6,0.1-0.9s0.1-0.4,0.1-0.6v-0.2c0.2-1.6,0.4-3.3,0.4-5.1v-0.2l0.1-4.9v-23.4
				l0,0l-21.2-12.4l8.7-5l4.5-2.6l4-2.3l1.6-0.9c0.4-0.2,0.8-0.4,1.2-0.6c1.3-0.7,2.7-1.3,4.2-1.7l0.4-0.1c0.5-0.1,0.9-0.1,1.4-0.1
				c0.3,0,0.4,0.2,0.6,0.4l21.5,12.2c0.4,0.3,0.7,0.7,0.8,1.2c0,0.2,0.1,0.4,0.1,0.6s0.1,0.4,0.1,0.7v0.4c0,0.3,0,0.6,0,0.9
				s0,0.7,0,1.1c0,0.9,0,1.8-0.1,2.6c0,0.2,0,0.4,0,0.6s0,0.4-0.1,0.6s0,0.4-0.1,0.6s0,0.4-0.1,0.6c-0.1,0.4-0.1,0.7-0.2,1.1
				s-0.2,0.7-0.2,1.1c0,0,0,0.1,0,0.1c1.7-3.8,2.6-8,2.7-12.2c0-0.6,0-1.2-0.1-1.7c-0.1-3.2-0.7-6.4-1.8-9.4
				c-0.9-2.5-1.4-5.1-1.4-7.8c0-4.9,0-7.7,10.5-13.7l17.1-9.8l21.3,12.3v87.1c0,7.2-4.4,15.7-9.9,18.8l-65.3,37.7v-23.7l-0.1-4.5
				v-0.1c-0.1-1.9-0.3-3.5-0.5-4.9v-0.1c0-0.1,0-0.2,0-0.3c-0.1-0.4-0.1-0.7-0.2-1v-0.1l-0.1-0.5c-0.1-0.3-0.1-0.6-0.2-0.9
				s-0.1-0.4-0.2-0.6s-0.2-0.5-0.3-0.7s-0.2-0.4-0.3-0.5c-0.1-0.2-0.2-0.4-0.3-0.6c-0.1-0.1-0.2-0.3-0.3-0.4l-0.1-0.1l-0.1-0.1
				c-0.1-0.1-0.2-0.3-0.3-0.4c-0.2-0.2-0.4-0.4-0.6-0.5c-0.2-0.1-0.4-0.3-0.6-0.4c-0.2-0.1-0.4-0.2-0.6-0.3l-0.4-0.1H249
				c-0.2-0.1-0.4-0.1-0.6-0.1c-0.2,0-0.4,0-0.6,0c-0.2,0-0.5,0-0.7,0c-0.2,0-0.4,0.1-0.6,0.1s-0.5,0.1-0.8,0.2h-0.1
				c-0.2,0.1-0.3,0.1-0.5,0.2c-0.3,0.1-0.7,0.3-1,0.4l-0.1,0.1c-0.1,0.1-0.3,0.1-0.4,0.2c-0.5,0.2-0.9,0.5-1.4,0.7l0,0l-0.1,0.1
				h-0.1l-0.2,0.1l0,0c-2,1.2-3.9,2.7-5.6,4.3l-0.1,0.1l-0.3,0.2l-0.1,0.1c-0.9,0.9-1.7,1.7-2.6,2.7c-1.7,2-3.7,3.8-5.9,5.2l0,0l0,0
				c-0.3,0.2-0.5,0.4-0.7,0.5c-0.6,0.4-1.2,0.6-1.9,0.7c-0.4,0.1-0.9,0.1-1.3,0C222.7,328.5,222.3,328.4,222,328.2z"/>
			<path d="M254.4,253.2l-21.2-12.4l8.7-5l4.5-2.6l4-2.3l1.6-0.9c0.4-0.2,0.8-0.4,1.2-0.6c1.3-0.7,2.7-1.3,4.2-1.7l0.4-0.1
				c0.5-0.1,0.9-0.1,1.4-0.1c0.3,0,0.4,0.2,0.6,0.4l21.2,12.2c-0.1,0-0.2-0.1-0.2-0.1c-0.1-0.1-0.2-0.1-0.3-0.1l0,0
				c-0.3,0-0.7,0-1,0c-0.3,0-0.6,0.1-0.8,0.2c-2.4,0.8-4.7,1.9-6.9,3.2l-4,2.3l-4.5,2.6L254.4,253.2z"/>
			<path d="M281.8,276.9c-2-2-3-5.4-3-9.4c0-0.6,0-1.2,0.1-1.8c0,0,0,0,0-0.1c0-1,0.1-1.9,0.2-3c0-0.3,0.1-0.6,0.1-0.9
				c0.1-0.6,0.2-1.2,0.3-1.8s0.2-1.1,0.3-1.6c0.1-0.3,0.1-0.5,0.2-0.8c0.2-1.1,0.5-2.2,0.8-3.4c0.2-0.8,0.4-1.5,0.5-2.2l0,0
				c1.7-3.8,2.6-8,2.7-12.1c0-0.6,0-1.2-0.1-1.7c-0.1-3.2-0.7-6.4-1.8-9.4c-0.9-2.5-1.4-5.1-1.4-7.8c0-4.9,0-7.6,10.5-13.7l17.1-9.8
				l21.3,12.3l-17.2,9.9c-10.5,6-10.5,8.8-10.5,13.7c-0.1,2.7,0.4,5.3,1.4,7.8c1.1,3,1.7,6.2,1.8,9.4c0,0.5,0.1,1.1,0.1,1.7
				c0,9.7-5.9,21-13.2,25.1C288,279.7,284.3,279.5,281.8,276.9z"/>
			<path d="M222.8,314.5l-21.3-12.3c0.1-0.1,0.2-0.3,0.3-0.5c0.3-0.4,0.6-0.7,0.8-1c0.1-0.2,0.3-0.3,0.4-0.5
				c0.1-0.2,0.3-0.3,0.5-0.5c0.4-0.4,0.9-0.7,1.4-1l0,0c0.2-0.1,0.4-0.2,0.6-0.3l0.2-0.1l0,0h0.1c0.9-0.5,1.8-0.8,2.8-1.1l0.3-0.1
				c0.9-0.2,1.8-0.3,2.7-0.4c3.1-0.1,6.2-1,8.9-2.7l0.7-0.4c0.2-0.1,0.4-0.2,0.6-0.4c0.2-0.1,0.3-0.2,0.4-0.3l0,0h0.1l0.7-0.5
				l0.7-0.5l0.1-0.1l0.1-0.1l0.1-0.1l0.3-0.3c0.1-0.1,0.2-0.2,0.3-0.2s0.4-0.3,0.5-0.5l0.2-0.2c0,0,0.1-0.1,0.1-0.1l0.4-0.5
				c0.2-0.2,0.4-0.4,0.5-0.6l0.1-0.1l0.3-0.3c0.1-0.2,0.3-0.4,0.4-0.5l21.3,12.3l-0.1,0.1c-0.1,0.2-0.3,0.4-0.4,0.6
				s-0.2,0.2-0.3,0.3l-0.1,0.1c-0.3,0.4-0.6,0.7-1,1l-0.2,0.2c-0.1,0.1-0.1,0.1-0.1,0.2l-0.6,0.5l-0.6,0.5l-0.1,0.1l-0.2,0.2
				c-0.5,0.4-0.9,0.8-1.4,1.1c0,0-0.1,0-0.1,0.1c-0.6,0.4-1.1,0.8-1.7,1.1L241,307l-0.7,0.4c-1.6,0.8-3.4,1.4-5.2,1.7l-0.9,0.1h-0.5
				l-0.9,0.1l0,0c-1.3,0-2.5,0.3-3.7,0.6c-0.4,0.1-0.8,0.3-1.2,0.5l0,0c-0.3,0.1-0.6,0.3-0.9,0.4l0,0l0,0l-0.2,0.1
				c-0.2,0.1-0.4,0.2-0.6,0.3c-0.5,0.3-1,0.6-1.4,1c-0.2,0.1-0.3,0.3-0.4,0.4c-0.1,0.1-0.3,0.3-0.4,0.5c-0.2,0.2-0.4,0.4-0.5,0.6
				c-0.1,0.1-0.2,0.3-0.3,0.4C223,314.2,222.9,314.3,222.8,314.5z"/>
		</g>
	</g>
	<g>
		<defs>
			<path id="SVGID_00000013182140023312536050000012179406964828751268_" d="M247.5,248v-23l0.2-7v-0.1c0-0.2,0-0.3,0-0.5v-0.2
				c0-0.4,0.1-0.9,0.1-1.3c0-0.2,0-0.4,0.1-0.6V215c0-0.4,0.1-0.8,0.1-1.2s0.1-0.5,0.1-0.8c0.1-0.4,0.1-0.9,0.2-1.3v-0.1
				c0-0.2,0.1-0.4,0.1-0.5c0.1-0.6,0.3-1.1,0.4-1.7c0,0,0-0.1,0.1-0.2c0.2-0.6,0.4-1.3,0.6-1.9l0.1-0.3c0.2-0.5,0.4-1.1,0.6-1.6
				c0-0.1,0.1-0.2,0.2-0.3V205c0.2-0.5,0.5-1,0.7-1.4l0.2-0.3c0.3-0.5,0.6-1.1,1-1.6l0,0c0.8-1.1,1.7-2.2,2.6-3.2l0,0l0.1-0.1
				c0.4-0.4,0.9-0.8,1.4-1.2l0.1-0.1c1.1-0.9,2.2-1.6,3.4-2.3c1.3-0.8,2.6-1.4,4-1.9c0.7-0.2,1.4-0.4,2.1-0.6
				c0.9-0.2,1.8-0.3,2.7-0.3c2-0.1,4-0.6,5.8-1.5h0l0,0c0.3-0.1,0.5-0.2,0.8-0.4c1.9-1.2,3.4-3,4.4-5c0.3-0.6,0.6-1.1,0.8-1.7
				c0.7-1.7,1-3.4,1-5.2c0-0.3,0-0.6,0-0.9c0-0.1,0-0.2,0-0.2c0-0.2,0-0.4-0.1-0.6c0-0.1,0-0.1,0-0.2s-0.1-0.4-0.1-0.5
				s0-0.1-0.1-0.2s-0.1-0.3-0.2-0.5l-0.1-0.1c-0.1-0.2-0.1-0.3-0.2-0.5c0,0,0-0.1-0.1-0.1c-0.1-0.1-0.2-0.3-0.3-0.4s0,0,0-0.1
				l-0.4-0.4l0,0c-0.1-0.1-0.3-0.2-0.5-0.3l0,0l-9.1-5.2c-1.4,1.3-2.8,2.7-4.1,4.1c-1.8,2.2-4,4.1-6.5,5.6c-1.6,0.9-2.9,1.6-3.8,1.1
				l-8.8-5.1c-0.1-2-0.1-4.2,0-6.5v-19.4l-21.3-12.3L302,91.7l27.6,15.9l0,102.2l-17.2,9.9c-10.5,6-10.5,8.8-10.5,13.7
				c0,2.7,0.4,5.3,1.4,7.8c1.1,3,1.7,6.2,1.8,9.4c0,0.5,0.1,1.1,0.1,1.7c-0.1,5.5-1.7,10.9-4.5,15.7l-17.4,10.1
				c-0.5-0.3-1-0.7-1.5-1.2c-1.9-2-3-5.4-3-9.4c0-0.5,0-1.1,0.1-1.8c0,0,0,0,0-0.1c0-1,0.1-1.9,0.2-3c0-0.3,0.1-0.6,0.1-0.9
				c0.1-0.6,0.2-1.2,0.3-1.8s0.2-1.1,0.3-1.6c0.1-0.3,0.1-0.5,0.2-0.8c0.2-1.1,0.5-2.2,0.8-3.4c0.9-3.1,1.3-6.2,1.4-9.4
				c0-3-0.3-4.4-1.1-4.8l-9.9-5.7l-16.8,9.7L247.5,248z"/>
		</defs>
		<clipPath id="SVGID_00000035519208586912876670000005722537039246527910_">
			<use xlink:href="#SVGID_00000013182140023312536050000012179406964828751268_"  style="overflow:visible;"/>
		</clipPath>
		<g style="clip-path:url(#SVGID_00000035519208586912876670000005722537039246527910_);">
			<path class="st3" d="M287.8,268.6l-21.3-12.3c-0.1-0.1-0.2-0.1-0.3-0.2c-1.2-0.9-1.7-2.8-1.7-5c0-0.4,0-0.7,0-1.1v-0.1
				c0.2-2.9,0.6-5.7,1.4-8.5c0.3-1.4,0.7-3,1-4.6l4.6-2.7l0.2-0.1l0.1-0.1l0,0l3.6-1.9l0,0l0,0l0.1-0.1c1.1-0.6,2.3-1.1,3.5-1.5h0.1
				l0.5-0.1c0.2-0.1,0.4-0.1,0.6-0.1h0.1c0.2-0.1,0.5-0.1,0.7-0.2l0.6-0.1c0.2,0,0.5,0,0.7,0s0.4,0,0.5,0c0.2,0,0.5,0,0.7,0.1h0.1
				l0.3,0.1c0.3,0.1,0.5,0.2,0.8,0.3l0.2,0.1c0.7,0.4,1.3,0.9,1.8,1.6c0,0.1,0.1,0.1,0.1,0.2c0.2,0.3,0.4,0.6,0.6,1
				c0,0.1,0.1,0.1,0.1,0.2v0.1c0.1,0.4,0.3,0.8,0.4,1.2l0.1,0.3c0.1,0.5,0.2,1,0.3,1.5l0,0.2c0.2,1.4,0.3,2.9,0.3,4.3
				c0,4.4-0.6,8.7-1.8,12.9c-0.8,2.8-1.2,5.7-1.4,8.5v0.1c0,0.5,0,0.8,0,1.1c0,2.2,0.6,3.9,1.8,4.8L287.8,268.6z"/>
			<path class="st3" d="M254.4,244l-21.2-12.4v-22.9c-0.1-3.4,0.1-6.7,0.6-10.1c0.7-4.1,1.9-5.3,5.1-7.2c1.9-1.2,4.2-1.9,6.5-1.9
				c0.8-0.1,1.5-0.1,2.2-0.2l0.6-0.1l1-0.2c0.4-0.1,0.9-0.2,1.3-0.4c0.2-0.1,0.4-0.1,0.6-0.2c0.7-0.3,1.4-0.6,2.1-0.9l0.1-0.1
				c0.4-0.2,0.8-0.4,1.2-0.6c3.9-2.3,7.6-6.7,10.1-12.2c0.2-0.4,0.3-0.7,0.5-1.1l-0.5,0.5c0.7-0.7,1.3-1.4,2-2.1
				c2.3-2.6,4.9-5,7.8-6.9c0.4-0.3,0.8-0.6,1.3-0.8c7.2-4.2,13.2,0.3,13.2,9.9c-0.1,4.5-1.1,8.9-3,12.9c-2.5,5.5-6.2,10-10.1,12.2
				c-0.4,0.2-0.8,0.4-1.2,0.6c0,0-0.1,0-0.1,0c-0.7,0.4-1.4,0.7-2.1,1l-0.6,0.2c-0.4,0.1-0.9,0.3-1.3,0.4c-0.4,0.1-0.7,0.2-1,0.2
				l-0.6,0.1c-0.7,0.1-1.4,0.2-2.2,0.2c-2.3,0-4.5,0.7-6.5,1.9c-3.2,1.9-4.4,3.1-5.1,7.2c-0.5,3.3-0.7,6.7-0.7,10.1v15.1l0,0
				L254.4,244z"/>
			<path class="st3" d="M256.3,178.5L235,166.2c-1.2-0.8-1.8-3.9-1.8-11.9l-0.1-22.8l21.3,12.3v22.9
				C254.4,174.7,255,177.8,256.3,178.5L256.3,178.5z"/>
			<path class="st13" d="M287.8,268.6l-21.3-12.3c-0.1-0.1-0.2-0.1-0.3-0.2c-1.2-0.9-1.7-2.8-1.7-5c0-0.4,0-0.7,0-1.1v-0.1
				c0.2-2.9,0.6-5.7,1.4-8.5c0.3-1.4,0.7-3,1-4.6l4.6-2.7l0.2-0.1l0.1-0.1l0,0l3.6-1.9l0,0l0,0l0.1-0.1c1.1-0.6,2.3-1.1,3.5-1.5h0.1
				l0.5-0.1c0.2-0.1,0.4-0.1,0.6-0.1h0.1c0.2-0.1,0.5-0.1,0.7-0.2l0.6-0.1c0.2,0,0.5,0,0.7,0s0.4,0,0.5,0c0.2,0,0.5,0,0.7,0.1h0.1
				l0.3,0.1c0.3,0.1,0.5,0.2,0.8,0.3l0.2,0.1c0.7,0.4,1.3,0.9,1.8,1.6c0,0.1,0.1,0.1,0.1,0.2c0.2,0.3,0.4,0.6,0.6,1
				c0,0.1,0.1,0.1,0.1,0.2v0.1c0.1,0.4,0.3,0.8,0.4,1.2l0.1,0.3c0.1,0.5,0.2,1,0.3,1.5l0,0.2c0.2,1.4,0.3,2.9,0.3,4.3
				c0,4.4-0.6,8.7-1.8,12.9c-0.8,2.8-1.2,5.7-1.4,8.5v0.1c0,0.5,0,0.8,0,1.1c0,2.2,0.6,3.9,1.8,4.8L287.8,268.6z"/>
			<path class="st13" d="M254.4,244l-21.2-12.4v-22.9c-0.1-3.4,0.1-6.7,0.6-10.1c0.7-4.1,1.9-5.3,5.1-7.2c1.9-1.2,4.2-1.9,6.5-1.9
				c0.8-0.1,1.5-0.1,2.2-0.2l0.6-0.1l1-0.2c0.4-0.1,0.9-0.2,1.3-0.4c0.2-0.1,0.4-0.1,0.6-0.2c0.7-0.3,1.4-0.6,2.1-0.9l0.1-0.1
				c0.4-0.2,0.8-0.4,1.2-0.6c3.9-2.3,7.6-6.7,10.1-12.2c0.2-0.4,0.3-0.7,0.5-1.1l-0.5,0.5c0.7-0.7,1.3-1.4,2-2.1
				c2.3-2.6,4.9-5,7.8-6.9c0.4-0.3,0.8-0.6,1.3-0.8c7.2-4.2,13.2,0.3,13.2,9.9c-0.1,4.5-1.1,8.9-3,12.9c-2.5,5.5-6.2,10-10.1,12.2
				c-0.4,0.2-0.8,0.4-1.2,0.6c0,0-0.1,0-0.1,0c-0.7,0.4-1.4,0.7-2.1,1l-0.6,0.2c-0.4,0.1-0.9,0.3-1.3,0.4c-0.4,0.1-0.7,0.2-1,0.2
				l-0.6,0.1c-0.7,0.1-1.4,0.2-2.2,0.2c-2.3,0-4.5,0.7-6.5,1.9c-3.2,1.9-4.4,3.1-5.1,7.2c-0.5,3.3-0.7,6.7-0.7,10.1v15.1l0,0
				L254.4,244z"/>
			<path class="st13" d="M256.3,178.5L235,166.2c-1.2-0.8-1.8-3.9-1.8-11.9l-0.1-22.8l21.3,12.3v22.9
				C254.4,174.7,255,177.8,256.3,178.5L256.3,178.5z"/>
			<path class="st3" d="M288,268.7l-0.2-0.1l0,0l-0.3-0.2c-1.2-0.9-1.8-2.6-1.8-4.8c0-0.3,0-0.6,0-1.1v-0.1c0.2-2.9,0.6-5.8,1.4-8.5
				c1.2-4.2,1.8-8.5,1.8-12.9c0-1.4-0.1-2.9-0.3-4.3l0-0.2c-0.1-0.5-0.2-1-0.3-1.5l-0.1-0.3c-0.1-0.4-0.3-0.8-0.4-1.2v-0.1
				c0-0.1-0.1-0.1-0.1-0.2c-0.2-0.4-0.3-0.7-0.6-1c0-0.1-0.1-0.1-0.1-0.2c-0.5-0.7-1.1-1.2-1.8-1.6l-0.2-0.1
				c-0.3-0.1-0.5-0.2-0.8-0.3l-0.3-0.1h-0.1c-0.2,0-0.5-0.1-0.7-0.1c-0.2,0-0.4,0-0.5,0s-0.5,0-0.7,0l-0.6,0.1
				c-0.2,0-0.5,0.1-0.7,0.2h-0.1c-0.2,0-0.4,0.1-0.6,0.1l-0.5,0.1h-0.1c-1.2,0.4-2.4,0.9-3.5,1.5l-0.1,0.1l0,0l0,0l-3.6,1.9l0,0
				l-0.1,0.1l-0.2,0.1l-4.6,2.7l-12.7,7.4v-7.8l0,0v-15.1c-0.1-3.4,0.1-6.7,0.6-10.1c0.7-4.1,1.9-5.3,5.1-7.2
				c1.9-1.2,4.2-1.9,6.5-1.9c0.8,0,1.5-0.1,2.2-0.2l0.6-0.1c0.3-0.1,0.6-0.1,1-0.2c0.4-0.1,0.9-0.2,1.3-0.4l0.6-0.2
				c0.7-0.3,1.4-0.6,2.1-1c0,0,0.1,0,0.1,0c0.4-0.2,0.8-0.4,1.2-0.6c3.9-2.3,7.6-6.7,10.1-12.2c1.9-4,2.9-8.4,3-12.9
				c0-9.7-5.9-14.1-13.2-9.9c-0.4,0.2-0.9,0.5-1.3,0.8c-2.9,2-5.5,4.3-7.8,6.9c-0.7,0.7-1.4,1.5-2,2.1c-1.1,1.1-2.2,2-3.5,2.8
				l-0.5,0.3l-0.5,0.3c-0.6,0.3-1.1,0.7-1.6,0.9l-0.5,0.2c-0.1,0.1-0.3,0.1-0.5,0.1c-0.1,0-0.3,0.1-0.4,0.1c-0.3,0-0.5-0.1-0.8-0.2
				c-1.3-0.7-1.9-3.7-1.9-11.8v-22.9l-21.3-12.3l65.4-37.8c0.2-0.1,0.5-0.3,0.7-0.4c0.2-0.1,0.4-0.2,0.7-0.3l0,0l0.7-0.2
				c0.2-0.1,0.4-0.1,0.6-0.2c0.3,0,0.5-0.1,0.8-0.1c1.1,0,2.2,0.2,3.1,0.8l21,12.1l0,0c0.6,0.4,1.2,0.8,1.7,1.4
				c0.2,0.2,0.3,0.4,0.4,0.6c0.1,0.1,0.2,0.3,0.3,0.4c0.2,0.3,0.3,0.7,0.5,1c0,0.2,0.1,0.4,0.2,0.6c0.4,1.3,0.6,2.6,0.5,4v87.1
				l-17.2,9.9l-0.3,0.2l-0.2,0.1h0l-3.4,2.1l0,0l0,0c-1.4,0.9-2.7,1.9-3.9,2.9l-0.1,0.1l-0.2,0.2l-0.9,0.8l-0.1,0.1
				c-0.1,0.1-0.3,0.2-0.4,0.4s-0.5,0.5-0.8,0.8s-0.3,0.4-0.5,0.5s-0.5,0.5-0.7,0.8l-0.5,0.6l-0.7,0.9l-0.4,0.5l-0.1,0.1l-0.1,0.1
				c-0.2,0.2-0.4,0.5-0.5,0.8s-0.2,0.4-0.3,0.6l-0.1,0.2c-0.3,0.6-0.6,1.1-0.9,1.8l-0.1,0.1c-0.1,0.2-0.2,0.5-0.3,0.8l0,0
				c-0.1,0.3-0.2,0.5-0.3,0.8l-0.1,0.2l-0.3,0.9c-0.1,0.3-0.2,0.7-0.3,1s-0.2,0.7-0.2,1s-0.1,0.7-0.2,1s-0.1,0.7-0.2,1.1v0.1
				c0,0.3-0.1,0.6-0.1,0.9s-0.1,0.8-0.1,1.2v0.2c0,0.2,0,0.5,0,0.7c0,0.5,0,1,0,1.7v0.1c0,0.1,0,0.2,0,0.4
				c-0.1,3.7,0.5,7.3,1.8,10.8c0.8,2.2,1.3,4.6,1.4,7v0.1c0,0.3,0,0.6,0.1,0.9c0,4.6-2.8,10-6.3,12c-0.6,0.4-1.3,0.6-2.1,0.7
				c-0.1,0-0.3,0-0.5,0h-0.1c-0.1,0-0.2,0-0.3,0c-0.1,0-0.2,0-0.2,0l-0.2,0l-0.2-0.1c-0.1,0-0.1,0-0.2-0.1
				C288.2,268.8,288.1,268.7,288,268.7z"/>
			<path class="st16" d="M254.4,143.8l-21.3-12.3l65.4-37.8c0.2-0.1,0.5-0.3,0.7-0.4c0.2-0.1,0.4-0.2,0.7-0.3l0,0l0.7-0.2
				c0.2-0.1,0.4-0.1,0.6-0.2c0.3,0,0.5-0.1,0.8-0.1c1.1,0,2.2,0.2,3.1,0.8l20.8,12c-0.2-0.1-0.4-0.2-0.6-0.2c0,0-0.1,0-0.1-0.1
				c-0.2-0.1-0.4-0.1-0.6-0.1h-0.2c-0.1,0-0.2,0-0.4,0l0,0h-0.4c0,0-0.1,0-0.1,0c-0.2,0-0.3,0-0.5,0l-0.4,0.1
				c-0.3,0-0.5,0.1-0.8,0.2l-0.4,0.1l-0.8,0.3c-0.3,0.1-0.6,0.3-0.9,0.5L254.4,143.8z"/>
		</g>
	</g>
	<g>
		<defs>
			<path id="SVGID_00000147203577728487918250000016377654796801159302_" d="M172.3,291.4L151,279.1l0.1-87.2
				c0.1-3.5,0.9-6.9,2.4-10l0,0c1.8-3.8,4.5-7.1,7.4-8.8l65.2-37.6l21.3,12.3v19.2v6.5l8.8,5.1c1,0.6,2.2-0.2,3.8-1.1
				c2.4-1.5,4.6-3.4,6.5-5.6c1.3-1.4,2.7-2.8,4.1-4.1l9.1,5.2l0,0c0.1,0,0.1,0.1,0.2,0.1c0,0,0,0,0.1,0c0.1,0,0.2,0.1,0.2,0.2
				c0.3,0.3,0.6,0.6,0.8,1c0.1,0.1,0.1,0.2,0.2,0.3c0,0.1,0.1,0.2,0.1,0.3c0.2,0.4,0.3,0.8,0.4,1.2c0,0.1,0,0.1,0,0.2
				c0,0.2,0.1,0.5,0.1,0.8s0,0.6,0,0.9c0,0.3,0,0.6,0,0.8c0,0.3,0,0.6-0.1,0.9s-0.1,0.6-0.1,0.9s-0.1,0.4-0.1,0.7
				c0,0.2-0.1,0.3-0.1,0.5c-0.3,1.1-0.7,2.2-1.3,3.2c-1,2-2.5,3.8-4.4,5c-0.3,0.1-0.5,0.3-0.8,0.4l0,0h0c-1.8,0.9-3.8,1.5-5.8,1.5
				c-0.6,0-1.3,0.1-2,0.2l-0.7,0.1c-1.7,0.3-3.4,1-5,1.8c-0.2,0.1-0.4,0.2-0.5,0.3l-0.6,0.3c-1.2,0.7-2.3,1.5-3.4,2.3l-0.1,0.1
				c-0.5,0.4-1,0.8-1.4,1.2l-0.1,0.1l0,0c-1,1-1.9,2-2.6,3.2l0,0c-0.4,0.5-0.7,1-1,1.6l-0.2,0.3c-0.3,0.5-0.5,1-0.7,1.4v0.1
				c-0.1,0.1-0.1,0.2-0.2,0.3c-0.2,0.5-0.4,1.1-0.6,1.6l-0.1,0.3c-0.2,0.6-0.4,1.3-0.6,1.9c0,0.1-0.1,0.2-0.1,0.2
				c-0.1,0.6-0.3,1.1-0.4,1.7c0,0.2-0.1,0.4-0.1,0.5v0.1c-0.1,0.4-0.1,0.9-0.2,1.3c0,0.2-0.1,0.5-0.1,0.8s-0.1,0.8-0.1,1.2v0.2
				c0,0.2-0.1,0.4-0.1,0.6c0,0.4-0.1,0.9-0.1,1.3v0.2c0,0.1,0,0.3,0,0.5v0.1l-0.2,7v23l-6,3.5l-1.9,1.1l-3.8,2.1l-5.5,3.2
				c-3.8,2.2-6.5,3.3-8.1,3.5c-0.3,0-0.5,0-0.8,0c-0.2,0-0.3-0.1-0.5-0.2l0,0l0,0l-7.8-4.6l0,0c0,0,0-0.1,0-0.1c0.1-1,0.2-2,0.4-2.9
				c0.1-0.6,0.2-1.1,0.3-1.7c0.3-1.6,0.7-3.1,1-4.5c0.8-2.8,1.2-5.6,1.4-8.5v-0.1v-0.1c0-0.5,0-0.8,0.1-1.1c0-2.2-0.7-3.9-1.8-4.8
				c-0.1,0-0.1-0.1-0.2-0.1l-0.2-0.1l0,0l-8.8-5.1c-2.4,2.7-4.4,5.8-5.8,9.1c-0.2,0.5-0.4,0.9-0.6,1.4s-0.4,0.9-0.5,1.4l-0.1,0.2
				c-0.2,0.5-0.3,0.9-0.4,1.4s-0.3,0.9-0.4,1.4s-0.1,0.6-0.2,1s-0.1,0.6-0.2,1c-0.1,0.7-0.2,1.3-0.3,2c-0.1,0.4-0.1,0.7-0.1,1.1
				s-0.1,0.9-0.1,1.4s0,0.6,0,0.9s0,0.6,0.1,0.8c0,0.4,0,0.8,0.1,1.2c0.1,0.9,0.2,1.8,0.3,2.7c0,0.4,0.1,0.7,0.2,1
				c0.3,1.5,0.7,3,1.2,4.4c0.6,1.6,1,3.3,1.2,5v0.2v0.1v0.2c0.1,0.7,0.1,1.5,0.1,2.2c0,4.9,0,7.6-10.5,13.7L172.3,291.4z"/>
		</defs>
		<clipPath id="SVGID_00000165212818057505804260000017192251919227966105_">
			<use xlink:href="#SVGID_00000147203577728487918250000016377654796801159302_"  style="overflow:visible;"/>
		</clipPath>
		<g style="clip-path:url(#SVGID_00000165212818057505804260000017192251919227966105_);">
			<path class="st3" d="M220.9,261.2l-21.2-12.4l0,0c-0.8-0.5-1.1-1.9-1.1-4.8c0-2.4,0.3-4.9,0.9-7.2c-0.6,1.5-1.2,3-1.6,4.5
				c2-7.4,6.7-14.3,12-17.4c3.5-2,6.8-2.1,9.3-0.2s3.9,5.5,3.9,10.2c0,0.4,0,0.9-0.1,1.3v0.2c0,0.1,0,0.2,0,0.3c0,1-0.1,2-0.2,3.1
				c0,0.2,0,0.3-0.1,0.5v0.1c-0.1,0.7-0.2,1.4-0.3,2.1c-0.1,0.4-0.2,0.8-0.2,1.2s-0.2,0.8-0.2,1.2c-0.2,1-0.5,2.1-0.7,3.2
				c-0.9,3.1-1.3,6.2-1.4,9.4C219.8,259.3,220,260.7,220.9,261.2z"/>
			<path class="st3" d="M172.3,291.4L151,279.1l0.1-87.2c0.1-3.5,0.9-6.9,2.4-10l21.3,12.3c-1.6,3.2-2.4,6.6-2.5,10.1L172.3,291.4z"
				/>
			<path class="st11" d="M220.9,261.2l-21.2-12.4l0,0c-0.8-0.5-1.1-1.9-1.1-4.8c0-2.4,0.3-4.9,0.9-7.2l0,0
				c2.4-5.6,6.2-10.5,10.4-12.9c3.5-2,6.8-2.1,9.3-0.2s3.8,5.5,3.8,10.2c0,0.4,0,0.9-0.1,1.3v0.2c0,0.1,0,0.2,0,0.3
				c0,1-0.1,2-0.2,3.1c0,0.2,0,0.3-0.1,0.5v0.1c-0.1,0.7-0.2,1.4-0.3,2.1c-0.1,0.4-0.2,0.8-0.2,1.2s-0.2,0.8-0.2,1.2
				c-0.2,1-0.5,2.1-0.7,3.2c-0.9,3.1-1.3,6.2-1.4,9.4C219.8,259.3,220,260.7,220.9,261.2z"/>
			<path class="st11" d="M172.3,291.4L151,279.1l0.1-87.2c0.1-3.5,0.9-6.9,2.4-10l21.3,12.3c-1.6,3.2-2.4,6.6-2.5,10.1L172.3,291.4z
				"/>
			<path class="st7" d="M172.3,291.4v-87.1c0.1-3.5,0.9-7,2.5-10.1l-21.3-12.3c0.1-0.1,0.1-0.2,0.2-0.4c0.1-0.2,0.2-0.4,0.3-0.6
				c0.1-0.3,0.3-0.5,0.4-0.8s0.4-0.6,0.6-0.9l0.1-0.2c0,0,0.1-0.1,0.1-0.1c0.2-0.3,0.4-0.6,0.6-0.9l0,0l0.2-0.2
				c0.1-0.2,0.2-0.3,0.3-0.4c0.1-0.2,0.2-0.3,0.4-0.4l0.1-0.1c0.2-0.2,0.4-0.5,0.6-0.7l0.2-0.2c0.1-0.1,0.1-0.1,0.2-0.2l0.1-0.1
				l0.2-0.2l0,0l0.4-0.4c0,0,0.1-0.1,0.1-0.1c0.1-0.1,0.2-0.2,0.3-0.3l0.1-0.1h0.1l0.3-0.2c0.1-0.1,0.2-0.2,0.3-0.2s0.2-0.2,0.3-0.2
				c0.1-0.1,0.2-0.2,0.4-0.2c0.2-0.2,0.4-0.3,0.7-0.4l65.2-37.6l21.3,12.3V167l0.3-0.3c1.7-2,3.7-3.8,5.9-5.2l0,0l0,0h0.1
				c0.2-0.2,0.4-0.3,0.6-0.4c1.2-0.8,2.8-0.9,4.1-0.1l21.2,12.2c0.1,0.1,0.2,0.1,0.3,0.2l0.2,0.1c0.7,0.7,1.2,1.6,1.4,2.6
				c0.1,0.2,0.1,0.5,0.1,0.8c0.1,0.4,0.1,0.9,0.1,1.3c-0.1,2.4-0.7,4.8-1.8,6.9c-1,2-2.5,3.8-4.4,5c-0.3,0.1-0.5,0.3-0.8,0.4h0l0,0
				c-1.8,0.9-3.8,1.5-5.8,1.5c-3.2,0.1-6.2,1.1-8.9,2.7c-1.2,0.7-2.3,1.4-3.4,2.3l-0.1,0.1c-0.5,0.4-1,0.8-1.4,1.2l-0.1,0.1l0,0
				c-1,1-1.9,2-2.6,3.2l0,0c-0.3,0.5-0.6,1-1,1.6l-0.1,0.3v0.1c-0.3,0.5-0.5,1-0.7,1.4v0.1c-0.1,0.1-0.1,0.2-0.1,0.3
				c-0.2,0.5-0.4,1-0.6,1.6l-0.1,0.3c-0.2,0.6-0.4,1.3-0.6,1.9l-0.1,0.2c-0.1,0.6-0.3,1.1-0.4,1.7c0,0.2-0.1,0.3-0.1,0.5v0.1
				c-0.1,0.4-0.1,0.9-0.2,1.3c0,0.2-0.1,0.5-0.1,0.8s-0.1,0.8-0.2,1.2v0.2c0,0.2-0.1,0.4-0.1,0.6c0,0.4-0.1,0.9-0.1,1.3v0.2
				c0,0.2,0,0.3-0.1,0.5v0.1l-0.2,7v23l-6,3.5l-5.7,3.3l-5.5,3.2c-3.8,2.2-6.5,3.3-8.1,3.5c-0.1,0-0.3,0-0.4,0
				c-0.3,0-0.6-0.1-0.9-0.2l0,0l0,0c-0.9-0.5-1.1-1.9-1.1-4.8c0-3.2,0.5-6.3,1.4-9.4c0.3-1.1,0.5-2.1,0.7-3.2
				c0.1-0.4,0.2-0.8,0.2-1.2s0.1-0.8,0.2-1.2c0.1-0.7,0.2-1.4,0.3-2.1v-0.1c0-0.2,0-0.3,0.1-0.5c0.1-1.1,0.2-2,0.2-3.1
				c0-0.1,0-0.2,0-0.3V235c0-0.4,0.1-0.8,0.1-1.3c0-4.7-1.4-8.3-3.9-10.2s-5.8-1.8-9.3,0.2c-4.2,2.4-8,7.3-10.4,12.9
				c-0.5,1.1-0.9,2.2-1.3,3.4c-0.1,0.4-0.2,0.8-0.3,1.1s-0.2,0.9-0.4,1.4c0,0.1-0.1,0.2-0.1,0.2c-0.1,0.4-0.2,0.9-0.3,1.3
				c-0.2,0.9-0.3,1.9-0.4,2.9c0,0.3,0,0.6,0,0.9c0,0.3,0,0.7,0,1c0,0.6,0,1.2,0.1,1.7c0.1,3.2,0.7,6.4,1.8,9.4c0.6,1.6,1,3.3,1.2,5
				v0.2v0.1v0.1c0,0.1,0,0.1,0,0.2c0.1,0.7,0.1,1.5,0.1,2.2c0,4.9,0,7.6-10.5,13.7L172.3,291.4z"/>
			<path d="M258.5,160.7l21.2,12.2c-1.3-0.7-2.9-0.5-4.1,0.3c-0.2,0.1-0.4,0.3-0.6,0.4l-0.1,0.1h0l0,0c-2.2,1.5-4.2,3.2-5.9,5.2
				c-2.5,3-5.5,5.5-8.9,7.5l-0.4,0.2l-0.2,0.1l-0.1,0.1c-0.3,0.2-0.6,0.4-0.9,0.5l-0.6,0.2l-0.2,0.1l-0.1,0.1l-0.7,0.3
				c-0.2,0.1-0.4,0.1-0.6,0.2h-0.1l-0.7,0.2c-0.2,0.1-0.5,0.1-0.7,0.1h-0.7c-0.2,0-0.4,0-0.6,0s-0.4-0.1-0.6-0.1
				c-0.2,0-0.4-0.1-0.6-0.2c-0.2-0.1-0.3-0.1-0.5-0.2h-0.1c-0.1-0.1-0.3-0.2-0.4-0.2c-0.1-0.1-0.3-0.2-0.4-0.3l-0.1-0.1l-0.1-0.1
				c-0.1-0.1-0.2-0.2-0.3-0.3c-0.1-0.2-0.2-0.3-0.4-0.5l-0.1-0.1c-0.2-0.3-0.4-0.7-0.6-1l-0.1-0.1c-0.1-0.2-0.2-0.3-0.2-0.5
				c-0.1-0.2-0.1-0.4-0.2-0.6v-0.1V184c-0.1-0.2-0.1-0.3-0.2-0.5s-0.1-0.5-0.2-0.8s-0.1-0.5-0.2-0.7s-0.1-0.6-0.2-0.9
				s-0.1-0.5-0.1-0.8s-0.1-0.7-0.1-1s-0.1-0.6-0.1-0.8s-0.1-0.7-0.1-1.1c0-0.2,0-0.4,0-0.7v-0.3c0-0.4,0-0.7-0.1-1.1V175l-0.1-4
				v-4.1c0.1-0.1,0.2-0.2,0.3-0.3c1.7-2,3.7-3.8,5.9-5.2l0,0h0.1l0.1-0.1c0.2-0.2,0.4-0.3,0.6-0.4
				C255.8,160.1,257.3,160,258.5,160.7z"/>
			<path class="st18" d="M174.8,194.2l-21.3-12.3c0.1-0.1,0.1-0.2,0.2-0.4c0.1-0.2,0.2-0.4,0.3-0.6c0.1-0.3,0.3-0.5,0.4-0.8
				s0.4-0.6,0.6-0.9c0.1-0.1,0.1-0.2,0.2-0.3c0.2-0.3,0.4-0.6,0.6-0.9l0,0l0.2-0.2c0.1-0.2,0.2-0.3,0.3-0.4c0.1-0.2,0.3-0.4,0.4-0.6
				c0.2-0.2,0.4-0.5,0.6-0.7l0.2-0.2c0.1-0.1,0.1-0.1,0.2-0.2l0.3-0.3l0,0l0.4-0.4c0,0,0.1-0.1,0.1-0.1c0.1-0.1,0.3-0.3,0.4-0.4h0.1
				l0.3-0.2c0.2-0.2,0.4-0.3,0.6-0.5c0.1-0.1,0.2-0.2,0.4-0.2c0.2-0.2,0.4-0.3,0.7-0.4l65.2-37.6l21.3,12.3l-28.7,16.6l-36.6,21.2
				c-0.3,0.2-0.6,0.3-0.8,0.5s-0.5,0.4-0.7,0.6c-0.1,0.1-0.3,0.2-0.4,0.3c-0.2,0.2-0.5,0.4-0.7,0.6s-0.6,0.6-0.8,0.8
				c-0.6,0.7-1.2,1.4-1.7,2.1c-0.2,0.3-0.4,0.6-0.6,0.9C175.8,192.3,175.3,193.2,174.8,194.2z"/>
		</g>
	</g>
	<path class="st6" d="M143.4,215.7c1,0.1,2.1-0.3,2.9-0.9c2.2-1.7,3.9-1.6,6.2-2.6c1.9-0.8,2.6-1.8,3-1.5c0.8,0.9,0.8,2.3-0.1,3.1
		c-0.7,0.8-1.5,1.6-2.5,2.2c2.2-0.1,4.4-0.6,6.4-1.3c5-1.7,7.4-1,5.1,5.4c-1.4,4-5,6.2-14.8,6c-3.6-0.2-7.2-0.7-10.8-1.5
		c-9.7-1.9-29.3-4.8-32.7-9.4c-9.7-13-18.5-23.7-19.7-33.4c-1-8.1,4-12.7,8.6-12.7c2.6,2.8,4.2,6.1,6.7,13.8
		c0,0,12.6,22.5,13.8,24.1C118.9,208.8,141.4,215.4,143.4,215.7z"/>
	<path class="st6" d="M324.8,132.4c1.7,1,3.5,1.4,5.8,3.1c1.5,1.2,3.2,2.1,5.1,2.6c2.4,0.6,21.4-5.8,24.9-8.5
		c7.1-5.5,13.3-15.9,16.8-19.8c2.8-3.2,6-8.1,9.5-8.1c5.8,1.7,4.5,10.3-0.4,18c-4,6.4-11.6,14.5-20.2,20.1
		c-4.2,2.7-23.3,7.7-29.7,8.1c-1.9,0.1-3.4,0.6-7,1.1c-1.5,0.3-3.1,0.4-4.6,0.2c-1.9-0.3-3.7-0.9-5.5-1.7c-2.2-1-4.1-2.6-5.4-4.6
		c-0.7-1.1-1.2-2.4-1.4-3.7c-0.2-1.3,0.1-2.7,0.9-3.8c0.1-0.2,0.3-0.4,0.6-0.6c0.5-0.2,1-0.1,1.4,0.1c2.6,0.9,5.2,2.2,7.8,2.8
		c2.2,0.5,3.9,0.6,3.6,0.2s-1.5-0.6-3-1.9s-2.1-3.3-1.4-4.1S323.1,131.4,324.8,132.4z"/>
	<path class="st2" d="M387.2,99.5c4.3,2.1,6,5.3,4.1,12.3c-1.7,6.4-8.2,17.2-13.4,22.5c0,0-8.8-4.2-13.5-9.6
		c4.6-7.1,6.9-11.2,11.2-17.2S384.6,98.8,387.2,99.5z"/>
</g>
<g>
	<path id="freepik--Shadow--inject-19" class="st2" d="M384.8,389.1l35.5-20.5c1.3-0.7,1.3-2,0-2.7l-57.4-33.1
		c-1.5-0.7-3.2-0.7-4.7,0l-35.5,20.5c-1.3,0.7-1.3,2,0,2.7l57.4,33.1C381.6,389.8,383.3,389.8,384.8,389.1z"/>
	<g id="freepik--tool-box--inject-19_00000005949320848336054670000007352258730815632276_">
		<g id="freepik--tool-box--inject-19_00000153697406098189057170000005747215390869587881_">
			<g id="freepik--tool-box--inject-19">
				<polygon class="st11" points="381.6,385.7 381.6,356.9 417.2,336.4 413.6,367.2 				"/>
				<polygon class="st7" points="381.6,385.7 328.2,354.8 324.6,324 381.6,356.9 				"/>
				<path class="st19" d="M419.4,330.2c-0.1-0.6-0.4-1.1-0.9-1.3l-56-32.3c-1.4-0.7-3.1-0.7-4.5,0l-34.6,20c-0.5,0.2-0.9,0.7-1,1.3
					c0,0.5,0,7.8,0,8.2c0.1,0.6,0.4,1.1,1,1.3l56,32.3c1.4,0.7,3.1,0.7,4.5,0l34.6-20c0.5-0.2,0.9-0.7,0.9-1.3V330.2z"/>
				<path class="st13" d="M418.5,328.9l-36.9-21.3v52.7c0.8,0,1.6-0.2,2.3-0.5l34.6-20c0.5-0.2,0.9-0.7,0.9-1.3v-8.2
					C419.4,329.6,419,329.1,418.5,328.9z"/>
				<path class="st12" d="M381.6,307.6l-19.1-11c-1.4-0.7-3.1-0.7-4.5,0l-34.6,20c-0.5,0.2-0.9,0.7-1,1.3c0,0.5,0,7.8,0,8.2
					c0.1,0.6,0.4,1.1,1,1.3l56,32.3c0.7,0.4,1.5,0.6,2.3,0.5L381.6,307.6z"/>
				<path class="st19" d="M383.9,351.5l34.6-20c0.7-0.2,1.1-1,0.9-1.8c-0.1-0.4-0.5-0.7-0.9-0.9l-56-32.2c-1.4-0.7-3.1-0.7-4.5,0
					l-34.6,20c-1.3,0.7-1.3,1.9,0,2.6l56,32.3C380.8,352.2,382.5,352.2,383.9,351.5z"/>
				<path class="st13" d="M333.5,318.9c-1,0.6-0.9,1.5,0.1,2.1l38.9,22.5c1.1,0.6,2.5,0.6,3.7,0.1c1-0.6,0.9-1.5-0.1-2.1L337.2,319
					C336.1,318.3,334.7,318.3,333.5,318.9z"/>
				<path class="st13" d="M372.6,343.5c1.1,0.6,2.5,0.6,3.7,0.1c0.1,0,0.1-0.1,0.2-0.1c-0.1-0.1-0.2-0.2-0.3-0.2l-38.9-22.5
					c-1.1-0.6-2.5-0.6-3.7-0.1l-0.2,0.1c0.1,0.1,0.2,0.2,0.3,0.2L372.6,343.5z"/>
				<path class="st13" d="M362,302.4c-1,0.6-0.9,1.5,0.1,2.1L401,327c1.1,0.6,2.5,0.6,3.7,0.1c1-0.6,0.9-1.5-0.1-2.1l-38.9-22.5
					C364.5,301.9,363.2,301.9,362,302.4z"/>
				<path class="st13" d="M401,327c1.1,0.6,2.5,0.6,3.7,0.1l0.2-0.1c-0.1-0.1-0.2-0.2-0.3-0.2l-38.9-22.5c-1.1-0.6-2.5-0.6-3.7-0.1
					l-0.2,0.1l0.3,0.2L401,327z"/>
				<path class="st13" d="M397.6,329.2c1,0.6,0.9,1.5-0.1,2.1l-14,8.1c-1.1,0.6-2.5,0.6-3.7,0.1c-1-0.6-0.9-1.5,0.1-2.1l14-8.1
					C395.1,328.6,396.4,328.6,397.6,329.2z"/>
				<path class="st13" d="M383.5,339.4c-1.1,0.6-2.5,0.6-3.7,0.1c-0.1,0-0.1-0.1-0.2-0.1c0.1-0.1,0.2-0.1,0.3-0.2l14-8.1
					c1.1-0.6,2.5-0.6,3.7-0.1l0.2,0.1c-0.1,0.1-0.2,0.2-0.3,0.2L383.5,339.4z"/>
				<path class="st13" d="M404.7,333.3c1,0.6,0.9,1.5-0.1,2.1l-14,8.1c-1.1,0.6-2.5,0.6-3.7,0.1c-1-0.6-0.9-1.5,0.1-2.1l14-8.1
					C402.2,332.7,403.6,332.7,404.7,333.3z"/>
				<path class="st13" d="M390.6,343.5c-1.1,0.6-2.5,0.6-3.7,0.1c-0.1,0-0.1-0.1-0.2-0.1c0.1-0.1,0.2-0.2,0.3-0.2l14-8.1
					c1.1-0.6,2.5-0.6,3.7-0.1l0.2,0.1c-0.1,0.1-0.2,0.1-0.3,0.2L390.6,343.5z"/>
				<path class="st13" d="M354.9,304.5c1,0.6,0.9,1.5-0.1,2.1l-14,8.1c-1.1,0.6-2.5,0.6-3.7,0.1c-1-0.6-0.9-1.5,0.1-2.1l14-8.1
					C352.4,304,353.7,303.9,354.9,304.5z"/>
				<path class="st13" d="M340.8,314.7c-1.1,0.6-2.5,0.6-3.7,0.1l-0.2-0.1c0.1-0.1,0.2-0.2,0.3-0.2l14-8.1c1.1-0.6,2.5-0.6,3.7-0.1
					l0.2,0.1l-0.3,0.2L340.8,314.7z"/>
				<path class="st13" d="M362,308.6c1,0.6,0.9,1.5-0.1,2.1l-14,8.1c-1.1,0.6-2.5,0.6-3.7,0.1c-1-0.6-0.9-1.5,0.1-2.1l14-8.1
					C359.5,308.1,360.8,308,362,308.6z"/>
				<path class="st13" d="M347.9,318.8c-1.1,0.6-2.5,0.6-3.7,0.1l-0.2-0.1c0.1-0.1,0.2-0.2,0.3-0.2l14-8.1c1.1-0.6,2.5-0.6,3.7-0.1
					c0.1,0,0.1,0.1,0.2,0.1c-0.1,0.1-0.2,0.2-0.3,0.2L347.9,318.8z"/>
				<path class="st18" d="M381.4,315.7l-13.8-8c-0.8-0.6-1.8-0.7-2.7-0.3l-3.4,2c0,0-0.1,0-0.1,0.1c-0.1,0-0.2,0.1-0.2,0.2l0,0
					c-0.1,0.1-0.2,0.1-0.2,0.2c-0.1,0.1-0.1,0.2-0.2,0.2c-0.1,0.1-0.1,0.2-0.2,0.3l-0.1,0.3c0,0.1-0.1,0.3-0.1,0.4s-0.1,0.2-0.1,0.4
					c0,0.1,0,0.3,0,0.5v8l3.6,2.1v-6c0-1.2,0.9-1.7,1.9-1.1l1.7,1l8.8,5.1c1.1,0.7,1.8,2,1.9,3.3v6l3.5,2.1l3.6-2.1v-8
					C385.1,319.6,383.7,317.1,381.4,315.7z"/>
				<path class="st11" d="M367.4,315.8L367.4,315.8v4.1l-3.5,2.1v-6c0-1.2,0.9-1.7,1.9-1.1L367.4,315.8z"/>
				<path class="st7" d="M381.6,324.3v8l-3.5-2.1v-6c-0.1-1.3-0.8-2.6-1.9-3.3l-8.7-5.1l0,0l-1.7-1c-1-0.6-1.9-0.1-1.9,1.1v6l-3.6-2
					v-8c0-0.2,0-0.3,0-0.5c0-0.1,0-0.2,0.1-0.4c0-0.1,0.1-0.3,0.1-0.4l0.1-0.3c0.1-0.1,0.1-0.2,0.2-0.3s0.1-0.2,0.2-0.2
					c0.1-0.1,0.1-0.1,0.2-0.2l0,0c0.1-0.1,0.2-0.1,0.2-0.2c0,0,0.1,0,0.1-0.1c0.8-0.3,1.8-0.2,2.5,0.3l13.8,8
					C380,319.1,381.4,321.6,381.6,324.3z"/>
				<polygon class="st18" points="363.8,359 365.1,358.2 368.7,360.3 367.4,361 				"/>
				<polygon class="st11" points="367.4,361 368.7,378.2 368.7,360.3 				"/>
				<polygon class="st7" points="363.8,359 365.1,376.2 364.7,376 				"/>
				<polygon class="st18" points="393.6,362.3 392.3,361.5 388.7,363.6 390,364.4 				"/>
				<polygon points="393.6,362.3 392.3,379.5 392.7,379.3 				"/>
				<polygon class="st18" points="407.8,354.1 406.5,353.3 402.9,355.4 404.3,356.1 				"/>
				<polygon class="st7" points="388.7,381.6 390,364.4 388.7,363.6 				"/>
				<polygon class="st7" points="402.9,355.4 402.9,373.3 404.3,356.1 				"/>
				<polygon points="407.8,354.1 406.5,371.3 406.9,371.1 				"/>
				<polygon class="st18" points="338.9,344.6 340.2,343.8 343.8,345.9 342.4,346.6 				"/>
				<polygon class="st11" points="342.4,346.6 343.8,363.8 343.8,345.9 				"/>
				<polygon class="st7" points="338.9,344.6 340.2,361.8 339.8,361.6 				"/>
				<polygon class="st7" points="370.6,356 370.6,351.9 363.4,347.8 362.3,348.5 362.3,352.6 369.4,356.7 				"/>
				<polygon class="st18" points="362.3,348.5 362.3,352.6 369.4,356.7 369.4,352.6 				"/>
				<polygon class="st11" points="369.4,352.6 370.6,351.9 370.6,356 369.4,356.7 				"/>
				<polygon class="st7" points="345.5,341.6 345.5,337.4 338.3,333.3 337.2,334 337.2,338.1 344.3,342.2 				"/>
				<polygon class="st18" points="337.2,334 337.2,338.1 344.3,342.2 344.3,338.1 				"/>
				<polygon class="st11" points="344.3,338.1 345.5,337.4 345.5,341.6 344.3,342.2 				"/>
			</g>
		</g>
	</g>
</g>
<g>
	<path id="freepik--shadow--inject-19_00000074436737042416820910000011695854791552544908_" class="st2" d="M250,441.7l-44.4-25.6
		c-1.6-1-1.6-2.5,0-3.4l44.3-25.6c1.9-1,4.1-1,6,0l44.3,25.6c1.6,1,1.6,2.5,0,3.4l-44.3,25.6C254.1,442.7,251.9,442.7,250,441.7z"/>
	<g id="freepik--Cone--inject-19">
		<g id="freepik--cone--inject-19">
			<path class="st19" d="M294.7,408.6l-39.4-22.7c-1.7-0.8-3.6-0.8-5.3,0l-39.3,22.7c-0.6,0.3-1,0.9-1.1,1.5v2.9
				c0.1,0.7,0.5,1.2,1.1,1.5l39.3,22.7c1.7,0.8,3.6,0.8,5.3,0l39.4-22.7c0.6-0.3,1-0.9,1.1-1.5v-2.9
				C295.8,409.4,295.4,408.8,294.7,408.6z"/>
			<path class="st12" d="M295.8,410.1v2.9c-0.1,0.7-0.5,1.2-1.1,1.5l-39.4,22.7c-0.8,0.4-1.7,0.6-2.6,0.6v-52.6
				c0.9,0,1.8,0.2,2.6,0.6l39.4,22.7C295.4,408.8,295.8,409.4,295.8,410.1z"/>
			<path class="st20" d="M252.7,385.2v52.6c-0.9,0-1.8-0.2-2.6-0.6l-39.3-22.7c-0.6-0.3-1-0.9-1.1-1.5v-2.9c0.1-0.7,0.5-1.3,1.1-1.5
				l39.3-22.7C250.9,385.4,251.8,385.2,252.7,385.2z"/>
			<path class="st19" d="M250.1,434.4l-39.4-22.7c-1.5-0.9-1.5-2.2,0-3.1l39.4-22.8c1.7-0.8,3.6-0.8,5.3,0l39.4,22.7
				c1.5,0.9,1.5,2.2,0,3.1l-39.4,22.8C253.7,435.2,251.8,435.2,250.1,434.4z"/>
			<path class="st21" d="M250.1,434.4l-39.4-22.7c-1.5-0.9-1.5-2.2,0-3.1l39.4-22.8c1.7-0.8,3.6-0.8,5.3,0l39.4,22.7
				c1.5,0.9,1.5,2.2,0,3.1l-39.4,22.8C253.7,435.2,251.8,435.2,250.1,434.4z"/>
			<path class="st22" d="M252.7,385.2c-0.9,0-1.8,0.2-2.6,0.6l-39.4,22.7c-1.5,0.9-1.5,2.2,0,3.1l39.4,22.8c0.8,0.4,1.7,0.6,2.6,0.6
				V385.2z"/>
			<path class="st19" d="M277.1,407.2L277.1,407.2l-17.4-52.3l0,0v-0.1l0,0c-0.4-0.9-1-1.6-1.9-2c-3.1-1.6-6.8-1.6-9.9,0
				c-0.8,0.4-1.5,1.1-1.9,2l0,0v0.1l0,0l-17.4,52.3l0,0c-1.6,4.5,0.6,9.5,6.8,13c9.7,5.6,25.4,5.6,35.1,0
				C276.4,416.7,278.7,411.8,277.1,407.2z"/>
			<path class="st23" d="M264.6,369.9L264.6,369.9l-2.5-7.5c0.4,1.4,0,2.8-1.1,3.8c-0.5,0.5-1,0.9-1.6,1.2c-4.3,2.1-9.3,2.1-13.5,0
				c-0.6-0.3-1.1-0.7-1.6-1.2c-1.1-0.9-1.5-2.4-1.1-3.8l-2.5,7.5l0,0c-0.4,1.3-0.2,2.6,0.6,3.7c0.7,1,1.7,1.9,2.8,2.5
				c0.9,0.5,2,0.9,3,1.2c3.6,1,7.5,1,11.1,0c1-0.3,2.1-0.7,3-1.2c1.1-0.6,2.1-1.5,2.8-2.5C264.8,372.5,265,371.2,264.6,369.9z"/>
			<path class="st23" d="M274.6,399.9L274.6,399.9l-2.5-7.5c0.4,1.2,0.4,2.5,0.1,3.7c-0.4,1.4-1.1,2.7-2.1,3.8c-1,1.1-2.2,2-3.5,2.7
				c-7.7,4.5-20.2,4.5-27.9,0c-1.3-0.7-2.5-1.6-3.5-2.7s-1.7-2.3-2.1-3.8c-0.3-1.2-0.3-2.5,0.1-3.7l-2.5,7.4v0.1
				c-0.4,1.2-0.5,2.5-0.3,3.7c0.5,2.8,2.6,5.6,6.4,7.8c8.7,5,22.8,5,31.5,0c3.8-2.2,5.9-4.9,6.4-7.8
				C275.1,402.4,275,401.1,274.6,399.9z"/>
			<path class="st23" d="M269.6,384.9L269.6,384.9l-2.5-7.5c0.4,1.2,0.3,2.6-0.2,3.7c-0.8,1.6-2.1,2.9-3.7,3.8l-0.1,0.1
				c-5.7,3.3-15,3.3-20.7,0l-0.1-0.1c-1.6-0.8-2.9-2.2-3.7-3.8c-0.6-1.2-0.6-2.5-0.2-3.7l-2.5,7.4l0,0c-0.4,1.2-0.4,2.5,0,3.8
				c0.5,1.5,1.5,2.8,2.7,3.7c0.6,0.5,1.3,1,2,1.4c2.1,1.1,4.3,1.9,6.6,2.4c3.7,0.7,7.4,0.7,11.1,0c2.3-0.4,4.5-1.2,6.6-2.4
				c0.7-0.4,1.4-0.9,2-1.4c1.2-1,2.2-2.3,2.7-3.7C270,387.4,270.1,386.1,269.6,384.9z"/>
			<path class="st12" d="M252.7,351.6c-1.7,0-3.5,0.4-5,1.2c-0.8,0.4-1.5,1.1-1.9,2l0,0v0.1l0,0l-17.4,52.3l0,0
				c-1.6,4.5,0.6,9.5,6.8,13c4.9,2.8,11.2,4.2,17.5,4.2h-0.1c-7.9-1.4-13.2-8.7-12.1-16.6l7.2-52.1L252.7,351.6z"/>
			<path class="st19" d="M247.8,358.6c-2.7-1.6-2.7-4.1,0-5.7c3.1-1.6,6.8-1.6,9.9,0c2.7,1.6,2.7,4.1,0,5.7
				C254.6,360.1,250.9,360.1,247.8,358.6z"/>
			<path class="st21" d="M247.8,358.6c-2.7-1.6-2.7-4.1,0-5.7c3.1-1.6,6.8-1.6,9.9,0c2.7,1.6,2.7,4.1,0,5.7
				C254.6,360.1,250.9,360.1,247.8,358.6z"/>
		</g>
	</g>
</g>
<g>
	<polygon id="freepik--shadow--inject-19_00000126302331061470535780000009912637183139070394_" class="st2" points="360.6,414.8 
		406.4,441.3 464.8,407.5 419,381.1 	"/>
	<g id="freepik--bricks--inject-19_00000072959373718171344660000015598758672546838690_">
		<polygon class="st19" points="433.6,412.2 396.7,390.8 396.7,387.8 417.8,375.7 454.8,397 454.8,400 		"/>
		<polygon class="st12" points="433.6,412.2 396.7,390.8 396.7,387.8 417.8,375.7 454.8,397 454.8,400 		"/>
		<polygon class="st19" points="417.8,375.7 454.8,397 433.6,409.2 396.7,387.8 		"/>
		<polygon class="st24" points="417.8,375.7 454.8,397 433.6,409.2 396.7,387.8 		"/>
		<polygon class="st12" points="433.6,412.2 433.6,409.2 454.8,397 454.8,400 		"/>
		<polygon class="st19" points="433.6,409.2 454.8,397 454.7,409.2 433.6,421.4 		"/>
		<polygon class="st13" points="433.6,409.2 454.8,397 454.7,409.2 433.6,421.4 		"/>
		<polygon class="st19" points="431,419.9 431.1,407.7 433.6,409.2 433.6,421.4 		"/>
		<polygon class="st12" points="431,419.9 431.1,407.7 433.6,409.2 433.6,421.4 		"/>
		<polygon class="st19" points="396.6,400 396.7,387.8 433.6,409.2 433.6,421.4 		"/>
		<polygon class="st19" points="406,427.7 369.1,406.4 369.1,403.4 390.2,391.2 427.2,412.6 427.2,415.5 		"/>
		<polygon class="st12" points="406,427.7 369.1,406.4 369.1,403.4 390.2,391.2 427.2,412.6 427.2,415.5 		"/>
		<polygon class="st19" points="390.2,391.2 427.2,412.6 406,424.8 369.1,403.4 		"/>
		<polygon class="st24" points="390.2,391.2 427.2,412.6 406,424.8 369.1,403.4 		"/>
		<polygon class="st12" points="406,427.7 406,424.8 427.2,412.6 427.2,415.5 		"/>
		<polygon class="st19" points="406,424.8 427.2,412.6 427.1,424.7 406,436.9 		"/>
		<polygon class="st13" points="406,424.8 427.2,412.6 427.1,424.7 406,436.9 		"/>
		<polygon class="st19" points="403.4,435.5 403.5,423.3 406,424.8 406,436.9 		"/>
		<polygon class="st12" points="403.4,435.5 403.5,423.3 406,424.8 406,436.9 		"/>
		<polygon class="st19" points="369,415.6 369.1,403.4 406,424.8 406,436.9 		"/>
		<polygon class="st19" points="415.2,406.1 378.2,384.7 378.2,381.8 399.4,369.6 436.3,390.9 436.3,393.9 		"/>
		<polygon class="st12" points="415.2,406.1 378.2,384.7 378.2,381.8 399.4,369.6 436.3,390.9 436.3,393.9 		"/>
		<polygon class="st19" points="399.4,369.6 436.3,390.9 415.2,403.1 378.2,381.8 		"/>
		<polygon class="st25" points="399.4,369.6 436.3,390.9 415.2,403.1 378.2,381.8 		"/>
		<polygon class="st12" points="415.2,406.1 415.2,403.1 436.3,390.9 436.3,393.9 		"/>
		<polygon class="st19" points="415.2,403.1 436.3,390.9 436.3,403.1 415.2,415.3 		"/>
		<polygon class="st13" points="415.2,403.1 436.3,390.9 436.3,403.1 415.2,415.3 		"/>
		<polygon class="st19" points="412.6,413.8 412.6,401.6 415.2,403.1 415.2,415.3 		"/>
		<polygon class="st12" points="412.6,413.8 412.6,401.6 415.2,403.1 415.2,415.3 		"/>
		<polygon class="st19" points="378.2,393.9 378.2,381.8 415.2,403.1 415.2,415.3 		"/>
	</g>
</g>
<g>
	<polygon id="freepik--shadow--inject-19_00000134247433801940881530000004630184985146548118_" class="st2" points="158.4,437.7 
		112.6,464.2 54.2,430.4 100,404 	"/>
	<g id="freepik--bricks--inject-19">
		<polygon class="st19" points="84.6,433.7 121.5,412.3 121.5,409.3 100.4,397.2 63.4,418.5 63.4,421.5 		"/>
		<polygon class="st12" points="84.6,433.7 121.5,412.3 121.5,409.3 100.4,397.2 63.4,418.5 63.4,421.5 		"/>
		<polygon class="st19" points="100.4,397.2 63.4,418.5 84.6,430.7 121.5,409.3 		"/>
		<polygon class="st24" points="100.4,397.2 63.4,418.5 84.6,430.7 121.5,409.3 		"/>
		<polygon class="st12" points="84.6,433.7 84.6,430.7 63.4,418.5 63.4,421.5 		"/>
		<polygon class="st19" points="84.6,430.7 63.4,418.5 63.5,430.7 84.6,442.9 		"/>
		<polygon class="st13" points="84.6,430.7 63.4,418.5 63.5,430.7 84.6,442.9 		"/>
		<polygon class="st19" points="87.2,441.4 87.1,429.2 84.6,430.7 84.6,442.9 		"/>
		<polygon class="st12" points="87.2,441.4 87.1,429.2 84.6,430.7 84.6,442.9 		"/>
		<polygon class="st19" points="121.6,421.5 121.5,409.3 84.6,430.7 84.6,442.9 		"/>
		<polygon class="st19" points="112.1,449.2 149.1,427.9 149.1,424.9 128,412.7 91,434.1 91,437 		"/>
		<polygon class="st12" points="112.1,449.2 149.1,427.9 149.1,424.9 128,412.7 91,434.1 91,437 		"/>
		<polygon class="st19" points="128,412.7 91,434.1 112.1,446.3 149.1,424.9 		"/>
		<polygon class="st24" points="128,412.7 91,434.1 112.1,446.3 149.1,424.9 		"/>
		<polygon class="st12" points="112.1,449.2 112.1,446.3 91,434.1 91,437 		"/>
		<polygon class="st19" points="112.2,446.3 91,434.1 91.1,446.2 112.2,458.4 		"/>
		<polygon class="st13" points="112.2,446.3 91,434.1 91.1,446.2 112.2,458.4 		"/>
		<polygon class="st19" points="114.8,457 114.7,444.8 112.1,446.3 112.2,458.4 		"/>
		<polygon class="st12" points="114.8,457 114.7,444.8 112.1,446.3 112.2,458.4 		"/>
		<polygon class="st19" points="149.2,437.1 149.1,424.9 112.1,446.3 112.2,458.4 		"/>
		<polygon class="st19" points="103,427.6 140,406.2 140,403.3 118.8,391.1 81.8,412.4 81.9,415.4 		"/>
		<polygon class="st12" points="103,427.6 140,406.2 140,403.3 118.8,391.1 81.8,412.4 81.9,415.4 		"/>
		<polygon class="st19" points="118.8,391.1 81.8,412.4 103,424.6 140,403.3 		"/>
		<polygon class="st25" points="118.8,391.1 81.8,412.4 103,424.6 140,403.3 		"/>
		<polygon class="st12" points="103,427.6 103,424.6 81.8,412.4 81.9,415.4 		"/>
		<polygon class="st19" points="103,424.6 81.8,412.4 81.9,424.6 103,436.8 		"/>
		<polygon class="st13" points="103,424.6 81.8,412.4 81.9,424.6 103,436.8 		"/>
		<polygon class="st19" points="105.6,435.3 105.6,423.1 103,424.6 103,436.8 		"/>
		<polygon class="st12" points="105.6,435.3 105.6,423.1 103,424.6 103,436.8 		"/>
		<polygon class="st19" points="140,415.4 140,403.3 103,424.6 103,436.8 		"/>
	</g>
</g>
<g id="freepik--speech-bubble-2--inject-2_00000000191389964478637410000007338002390401332628_">
	<g id="freepik--speech-bubble--inject-2_00000063609942992523115040000006425691712319974021_">
		<g id="freepik--speech-bubble--inject-2_00000071556763061607899020000001145422792447490966_">
			<path class="st5" d="M35.7,111.2c-4.4-6.3-6.3-14-5.1-21.4c2.3-16.3,17.5-27.7,33.8-25.4l3.3,0.7c14.2,3.7,23.8,17.2,22.4,31.7
				c-1.6,16.5-16.1,28.6-32.6,27l-3.5-0.5C46.9,121.7,40.1,117.3,35.7,111.2L35.7,111.2z"/>
			<path class="st26" d="M31.1,107.9c7.7,16.3,27.3,23.1,43.3,15.4l8.4,5.6c0.5,0.2,0.9,0.5,1.4,0.2c0.9-0.2,1.6-1.2,1.4-2.3
				l-2.3-9.8c11.4-11.2,12.8-28.9,3.7-41.9c-10.3-14.7-30.8-18.2-45.5-7.9C28.7,76.5,24.1,93.5,31.1,107.9z M35.7,111.2
				c-4.4-6.3-6.3-14-5.1-21.4c2.3-16.3,17.5-27.7,33.8-25.4l3.3,0.7c14.2,3.7,23.8,17.2,22.4,31.7c-1.6,16.5-16.1,28.6-32.6,27
				l-3.5-0.5C46.9,121.7,40.1,117.3,35.7,111.2L35.7,111.2z"/>
			<path class="st27" d="M35.7,111.2c-4.4-6.3-6.3-14-5.1-21.4c2.3-16.3,17.5-27.7,33.8-25.4l3.3,0.7c14.2,3.7,23.8,17.2,22.4,31.7
				c-1.6,16.5-16.1,28.6-32.6,27l-3.5-0.5C46.9,121.7,40.1,117.3,35.7,111.2L35.7,111.2z"/>
		</g>
		<path class="st26" d="M48.3,77c0.7-0.7,1.6-1.2,2.3-1.9c0.9-0.5,1.9-1.2,2.8-1.4c0.9-0.5,2.1-0.7,3.3-0.9c1.2-0.2,2.6-0.5,3.7-0.5
			c1.6,0,3.3,0.2,4.9,0.7c1.4,0.5,2.8,1.2,4,2.1c1.2,0.9,1.9,2.1,2.6,3.3c0.7,1.4,0.9,2.8,0.9,4.4c0,1.4-0.2,2.8-0.7,4.2
			c-0.5,1.2-0.9,2.1-1.6,3s-1.4,1.6-2.3,2.3l-2.3,1.9c-0.7,0.5-1.4,0.9-1.9,1.6c-0.5,0.5-0.9,1.2-0.9,1.9l-0.7,4.7H57l-0.5-5.1
			c-0.2-0.9,0-1.9,0.5-2.6s0.9-1.4,1.6-2.1c0.7-0.7,1.4-1.2,2.3-1.9c0.9-0.5,1.6-1.2,2.3-1.9c0.7-0.7,1.4-1.4,1.9-2.3s0.9-1.9,0.7-3
			c0-0.7-0.2-1.4-0.5-2.1c-0.2-0.7-0.7-1.2-1.2-1.6c-0.5-0.5-1.2-0.7-1.9-0.9c-0.7-0.2-1.4-0.2-2.3-0.2s-2.1,0-3,0.5
			c-0.7,0.2-1.4,0.5-2.1,0.9c-0.5,0.2-1.2,0.7-1.4,0.9c-0.2,0.2-0.7,0.5-1.2,0.5c-0.7,0-1.4-0.2-1.6-0.9L48.3,77z M54.1,110.5
			c0-0.7,0.2-1.2,0.5-1.9c0.2-0.5,0.5-1.2,0.9-1.4c0.9-0.9,2.1-1.4,3.5-1.4c0.7,0,1.2,0.2,1.9,0.5c0.5,0.2,1.2,0.5,1.4,0.9
			c0.5,0.5,0.7,0.9,0.9,1.4c0.5,1.2,0.5,2.6,0,3.7c-0.2,0.5-0.7,1.2-0.9,1.4c-0.5,0.5-0.9,0.7-1.4,0.9c-0.7,0.2-1.2,0.5-1.9,0.5
			s-1.4,0-1.9-0.5c-0.5-0.2-1.2-0.5-1.4-0.9c-0.5-0.5-0.7-0.9-0.9-1.4C54.4,111.9,54.1,111.2,54.1,110.5L54.1,110.5z"/>
	</g>
</g>
<g id="freepik--speech-bubble-2--inject-2_00000109028181826604901500000011967625244551689352_">
	<g id="freepik--speech-bubble--inject-2_00000095318772634225927320000006108422982326577330_">
		<g id="freepik--speech-bubble--inject-2_00000119085823450132502770000005541283484642365079_">
			<path class="st5" d="M446.6,57.5c-4.4,6.3-10.9,10.5-18.4,12.1l-3.5,0.5c-16.5,1.6-31-10.7-32.6-27c-1.4-14.7,8.2-28.2,22.4-31.7
				l3.3-0.7c16.3-2.3,31.4,9.1,33.8,25.4C453.1,43.5,451.3,51.2,446.6,57.5L446.6,57.5z"/>
			<path class="st26" d="M441,13.5c-14.7-10.2-34.9-6.8-45.4,7.9c-9.1,13-7.7,30.7,3.7,41.9l-2.3,9.8c-0.2,0.9,0.5,2.1,1.4,2.3
				c0.5,0.2,0.9,0,1.4-0.2l8.4-5.6c16.3,7.7,35.6,0.9,43.3-15.4C458.5,39.8,453.8,22.5,441,13.5z M446.6,57.5
				c-4.4,6.3-10.9,10.5-18.4,12.1l-3.5,0.5c-16.5,1.6-31-10.7-32.6-27c-1.4-14.7,8.2-28.2,22.4-31.7l3.3-0.7
				c16.3-2.3,31.4,9.1,33.8,25.4C453.1,43.5,451.3,51.2,446.6,57.5L446.6,57.5z"/>
			<path class="st27" d="M446.6,57.5c-4.4,6.3-10.9,10.5-18.4,12.1l-3.5,0.5c-16.5,1.6-31-10.7-32.6-27
				c-1.4-14.7,8.2-28.2,22.4-31.7l3.3-0.7c16.3-2.3,31.4,9.1,33.8,25.4C453.1,43.5,451.3,51.2,446.6,57.5L446.6,57.5z"/>
		</g>
		<path class="st26" d="M410,23.2c0.7-0.7,1.6-1.2,2.3-1.9c0.9-0.5,1.9-1.2,2.8-1.4c0.9-0.5,2.1-0.7,3.3-0.9
			c1.2-0.2,2.6-0.5,3.7-0.5c1.6,0,3.3,0.2,4.9,0.7c1.4,0.5,2.8,1.2,4,2.1s1.9,2.1,2.6,3.3c0.7,1.4,0.9,2.8,0.9,4.4
			c0,1.4-0.2,2.8-0.7,4.2c-0.5,1.2-0.9,2.1-1.6,3s-1.4,1.6-2.3,2.3l-2.3,1.9c-0.7,0.5-1.4,0.9-1.9,1.6c-0.5,0.5-0.9,1.2-0.9,1.9
			l-0.7,4.7h-5.4l-0.5-5.1c-0.2-0.9,0-1.9,0.5-2.6s0.9-1.4,1.6-2.1c0.7-0.7,1.4-1.2,2.3-1.9c0.9-0.5,1.6-1.2,2.3-1.9
			c0.7-0.7,1.4-1.4,1.9-2.3c0.5-0.9,0.9-1.9,0.7-3c0-0.7-0.2-1.4-0.5-2.1c-0.2-0.7-0.7-1.2-1.2-1.6c-0.5-0.5-1.2-0.7-1.9-0.9
			c-0.7-0.2-1.4-0.2-2.3-0.2s-2.1,0-3,0.5c-0.7,0.2-1.4,0.5-2.1,0.9c-0.5,0.2-1.2,0.7-1.4,0.9c-0.2,0.2-0.7,0.5-1.2,0.5
			c-0.7,0-1.4-0.2-1.6-0.9L410,23.2z M416.1,56.8c0-0.7,0.2-1.2,0.5-1.9c0.2-0.5,0.5-1.2,0.9-1.4c0.9-0.9,2.1-1.4,3.5-1.4
			c0.7,0,1.2,0.2,1.9,0.5c0.5,0.2,1.2,0.5,1.4,0.9c0.5,0.5,0.7,0.9,0.9,1.4c0.5,1.2,0.5,2.6,0,3.7c-0.2,0.5-0.7,1.2-0.9,1.4
			c-0.5,0.5-0.9,0.7-1.4,0.9c-0.7,0.2-1.2,0.5-1.9,0.5c-0.7,0-1.4,0-1.9-0.5c-0.5-0.2-1.2-0.5-1.4-0.9c-0.5-0.5-0.7-0.9-0.9-1.4
			C416.1,58.2,416.1,57.5,416.1,56.8L416.1,56.8z"/>
	</g>
</g>
</svg>
