<?xml version="1.0" encoding="utf-8"?>
<!-- Generator: Adobe Illustrator 27.3.1, SVG Export Plug-In . SVG Version: 6.00 Build 0)  -->
<svg version="1.1" id="Layer_1" xmlns="http://www.w3.org/2000/svg" xmlns:xlink="http://www.w3.org/1999/xlink" x="0px" y="0px"
	 viewBox="0 0 500 500" style="enable-background:new 0 0 500 500;" xml:space="preserve">
<style type="text/css">
	.st0{fill:#CFDECE;}
	.st1{opacity:0.7;fill:#FFFFFF;enable-background:new    ;}
	.st2{fill:#FAFAFA;}
	.st3{fill:#FFBDA7;}
	.st4{fill:#EBEBEB;}
	.st5{fill:#F5F5F5;}
	.st6{opacity:0.4;fill:#CFDECE;enable-background:new    ;}
	.st7{fill:#263238;}
	.st8{opacity:0.35;enable-background:new    ;}
	.st9{opacity:0.1;enable-background:new    ;}
	.st10{opacity:0.3;enable-background:new    ;}
	.st11{opacity:0.2;}
	.st12{fill:#455A64;}
	.st13{opacity:0.45;enable-background:new    ;}
	.st14{fill:#E0E0E0;}
	.st15{fill:#37474F;}
	.st16{opacity:0.8;fill:#FFFFFF;enable-background:new    ;}
	.st17{opacity:0.3;fill:#CFDECE;enable-background:new    ;}
	.st18{fill:#F0F0F0;}
	.st19{opacity:0.5;fill:#FFFFFF;enable-background:new    ;}
	.st20{opacity:0.35;fill:#FFFFFF;enable-background:new    ;}
	.st21{opacity:0.25;fill:#FFFFFF;enable-background:new    ;}
	.st22{opacity:0.8;}
	.st23{opacity:0.6;fill:#CFDECE;enable-background:new    ;}
	.st24{opacity:0.4;fill:#E0E0E0;enable-background:new    ;}
	.st25{fill:#9FAB9E;}
	.st26{opacity:0.4;fill:#FFFFFF;enable-background:new    ;}
	.st27{opacity:0.15;enable-background:new    ;}
	.st28{fill:#B16668;}
	.st29{opacity:0.7;enable-background:new    ;}
	.st30{fill:#303430;}
	.st31{fill:#9A4A4D;}
	.st32{fill:#CBD7CA;}
	.st33{opacity:0.2;enable-background:new    ;}
	.st34{opacity:0.4;enable-background:new    ;}
	.st35{fill:#FFFFFF;}
	.st36{clip-path:url(#SVGID_00000144304685055597679610000004700405596401963909_);}
</style>
<g>
	<path class="st0" d="M422.4,223.8c-95.1-54.9-249.4-54.9-344.6,0s-95.2,144,0,198.9s249.4,54.9,344.6,0S517.5,278.7,422.4,223.8z"
		/>
	<g>
		<path class="st1" d="M335.7,363.5l102.2,49.4c79.3-55.3,74.2-137.3-15.5-189.1c-95.1-54.9-249.4-54.9-344.6,0s-95.1,144,0,198.9
			c80,46.2,201.9,53.5,295.2,22l-85.3-51.1L335.7,363.5z"/>
		<path class="st2" d="M437.9,412.9l-102.2-49.4l-48,30.1l85.3,51.1c17.6-6,34.2-13.3,49.3-22C427.9,419.6,433,416.3,437.9,412.9z"
			/>
	</g>
	<g id="freepik--Sun--inject-2">
		<circle id="freepik--sun--inject-2" class="st3" cx="129.6" cy="66.6" r="20.3"/>
	</g>
	<g id="freepik--Clouds--inject-2">
		<path id="freepik--Cloud--inject-2" class="st4" d="M415.1,48.4c0-4.3-4.8-7.4-10.2-7.9c-6.4-0.6-10.9,2.2-11,7.2
			c-4.2-1.7-8.6-0.6-8.2,4c-1.1-1.2-5.1-1.2-6.6-0.9c-1.6,0.4-2.9,1.6-3.7,3.1c-0.3,0.7-0.5,1.5-0.4,2.3c-2.4-0.8-8-1.3-9.3,1
			c-2.5,4,7.4,4.1,9.3,2.9c0.4,3.1,11,3.6,13.5,0.7c2,2,4.9,2.5,8,2.6c5.2,0.3,8.4-1.5,12.5-3.5c4.4,3.8,12.1,3.8,16.1-0.5
			c1,1,3.8,1.3,6.1,0.7c1.5-0.3,1.8-1,1.8-1c0.9,0.4,1.8,0.6,2.7,0.8c2.9,0.6,8.3,0,6-2.6c-0.8-0.9-3.6-1.5-4.8-1.2
			c-1.3-2.5-6.3-4.8-9.2-2.7c-0.1-3-2.9-5.4-6.7-6C419.7,47.4,416.6,47.2,415.1,48.4z"/>
		<path id="freepik--cloud--inject-2" class="st5" d="M86.2,119.5c0-5-5.4-8.4-11.6-9c-7.3-0.7-12.4,2.6-12.6,8.3
			c-4.8-1.9-9.8-0.7-9.4,4.5c-1.2-1.4-5.9-1.4-7.5-1c-1.8,0.5-3.3,1.8-4.1,3.5c-0.4,0.8-0.5,1.8-0.4,2.7c-2.8-0.9-9.1-1.5-10.6,1.1
			c-2.8,4.5,8.4,4.7,10.7,3.3c0.5,3.5,12.5,4.1,15.4,0.9c2.3,2.3,5.5,2.8,9.1,3c6,0.4,9.6-1.7,14.3-4c5,4.3,13.8,4.4,18.3-0.5
			c1.2,1.1,4.4,1.4,6.9,0.8c1.7-0.4,2.1-1.1,2.1-1.1c1,0.4,2,0.7,3.1,0.9c3.3,0.7,9.4,0,6.9-3c-0.9-1-4.1-1.7-5.4-1.4
			c-1.4-2.8-7.2-5.5-10.6-3.1c-0.1-3.4-3.3-6.1-7.7-6.8C91.5,118.3,87.9,118.1,86.2,119.5z"/>
		<path id="freepik--cloud--inject-2_00000183230588141849891010000006179777644608906911_" class="st5" d="M317.3,72.9
			c0-5.1-5.6-8.6-11.9-9.2c-7.4-0.7-12.7,2.6-12.9,8.5c-4.9-2-10-0.7-9.6,4.6c-1.3-1.5-6-1.4-7.7-1c-1.9,0.5-3.4,1.8-4.3,3.6
			c-0.4,0.8-0.6,1.8-0.4,2.7c-2.8-0.9-9.3-1.5-10.9,1.1c-2.9,4.6,8.6,4.8,10.9,3.4c0.5,3.6,12.8,4.2,15.8,0.9
			c2.3,2.3,5.7,2.9,9.3,3.1c6.1,0.4,9.8-1.7,14.6-4.1c5.2,4.4,14.1,4.5,18.8-0.6c1.2,1.1,4.5,1.5,7.1,0.8c1.7-0.4,2.1-1.2,2.1-1.2
			c1,0.5,2.1,0.8,3.2,1c3.4,0.7,9.7,0,7-3.1c-0.9-1-4.2-1.7-5.6-1.4c-1.5-2.9-7.4-5.6-10.8-3.2c-0.1-3.5-3.3-6.3-7.9-7
			C322.7,71.7,319,71.5,317.3,72.9z"/>
	</g>
	<g>
		<path id="freepik--shadow--inject-2_00000165932280131361077340000002802182997818753443_" class="st6" d="M442.8,267.3
			c9.4,5.4,9.4,14.2,0,19.6c-9.4,5.4-24.6,5.4-33.9,0c-9.4-5.4-9.4-14.2,0-19.6C418.2,261.9,433.4,261.9,442.8,267.3z"/>
		<g id="freepik--Tree--inject-2">
			
				<rect x="419.6" y="221.1" transform="matrix(0.8918 -0.4524 0.4524 0.8918 -59.7536 215.4638)" class="st7" width="1.9" height="23.1"/>
			
				<rect x="421.7" y="228.1" transform="matrix(0.5264 -0.8503 0.8503 0.5264 9.5704 475.2116)" class="st7" width="19.3" height="1.9"/>
			<path class="st7" d="M424.2,218.2v61.2c0,0.3,0.2,0.5,0.5,0.6c0.7,0.4,1.5,0.4,2.2,0c0.3-0.1,0.4-0.4,0.5-0.6v-61.2H424.2z"/>
			<path class="st0" d="M386.8,202.9c0,12.7,10.3,23,23,23c12.7,0,23-10.3,23-23c0-12.7-10.3-23-23-23c0,0,0,0,0,0
				C397.1,179.8,386.8,190.1,386.8,202.9C386.8,202.9,386.8,202.9,386.8,202.9z"/>
			<path class="st8" d="M386.8,202.9c0,12.7,10.3,23,23,23c12.7,0,23-10.3,23-23c0-12.7-10.3-23-23-23c0,0,0,0,0,0
				C397.1,179.8,386.8,190.1,386.8,202.9C386.8,202.9,386.8,202.9,386.8,202.9z"/>
			<path class="st9" d="M402.6,197c-3-9.4-6.1-13-4.1-14.2c11.1-6.3,25.1-2.4,31.4,8.7c6.3,11.1,2.4,25.1-8.7,31.4
				c-9.7,5.5-22,3.2-29.1-5.4C398.8,219.5,406.4,209.1,402.6,197z"/>
			<path class="st0" d="M429.9,209.4c0,8.9,7.2,16.2,16.2,16.2c8.9,0,16.2-7.2,16.2-16.2c0-8.9-7.2-16.2-16.2-16.2c0,0,0,0,0,0
				C437.1,193.2,429.9,200.4,429.9,209.4C429.9,209.4,429.9,209.4,429.9,209.4z"/>
			<path class="st10" d="M429.9,209.4c0,8.9,7.2,16.2,16.2,16.2c8.9,0,16.2-7.2,16.2-16.2c0-8.9-7.2-16.2-16.2-16.2c0,0,0,0,0,0
				C437.1,193.2,429.9,200.4,429.9,209.4C429.9,209.4,429.9,209.4,429.9,209.4z"/>
			<path class="st9" d="M446,193.2c3.4,0,6.7,1.1,9.5,3.1c0.4,9.9-8,19.5-5.6,22.8s8.1,1.3,10.1-1.5c-4.5,7.7-14.4,10.3-22.1,5.8
				c-7.7-4.5-10.3-14.4-5.8-22.1C435,196.3,440.3,193.2,446,193.2L446,193.2z"/>
			<path class="st0" d="M396.1,191.9c0,16.4,13.3,29.7,29.7,29.7c16.4,0,29.7-13.3,29.7-29.7s-13.3-29.7-29.7-29.7c0,0,0,0,0,0
				C409.4,162.3,396.1,175.5,396.1,191.9z"/>
			<g class="st11">
				<path d="M396.1,191.9c0,16.4,13.3,29.7,29.7,29.7c16.4,0,29.7-13.3,29.7-29.7s-13.3-29.7-29.7-29.7c0,0,0,0,0,0
					C409.4,162.3,396.1,175.5,396.1,191.9z"/>
			</g>
			<path class="st9" d="M396.9,198.7c3.7,16,19.7,25.9,35.7,22.1c16-3.7,25.9-19.7,22.1-35.7c-1.2-5-3.7-9.7-7.2-13.4
				c-2.1-2.2-2.2-2.3-0.2-0.2c3.7,16-6.2,31.9-22.1,35.7C415,209.6,404.2,206.4,396.9,198.7L396.9,198.7z"/>
		</g>
	</g>
	<g>
		
			<ellipse id="freepik--shadow--inject-2_00000129888251161786590040000008526445413556627844_" class="st6" cx="50" cy="347.6" rx="22.5" ry="13"/>
		<g id="freepik--tree--inject-2">
			
				<rect x="43.7" y="300.9" transform="matrix(0.4524 -0.8918 0.8918 0.4524 -238.9234 214.6525)" class="st7" width="23.2" height="1.9"/>
			
				<rect x="43.6" y="288.5" transform="matrix(0.8503 -0.5264 0.5264 0.8503 -150.3021 68.1186)" class="st7" width="1.9" height="19.5"/>
			<path class="st7" d="M51.7,287.5v61.6c0,0.3-0.2,0.5-0.5,0.6c-0.7,0.4-1.5,0.4-2.3,0c-0.3-0.1-0.4-0.4-0.5-0.6v-61.6H51.7z"/>
			<path class="st0" d="M89.4,272c0,12.8-10.4,23.2-23.2,23.2C53.4,295.2,43,284.8,43,272c0-12.8,10.4-23.2,23.2-23.2c0,0,0,0,0,0
				C79,248.8,89.4,259.2,89.4,272z"/>
			<path class="st8" d="M89.4,272c0,12.8-10.4,23.2-23.2,23.2C53.4,295.2,43,284.8,43,272c0-12.8,10.4-23.2,23.2-23.2c0,0,0,0,0,0
				C79,248.8,89.4,259.2,89.4,272z"/>
			<path class="st9" d="M73.5,266c3-9.4,6.2-13.1,4.2-14.2c-11.1-6.3-25.3-2.4-31.6,8.7c-6.3,11.1-2.4,25.3,8.7,31.6
				c9.8,5.6,22.2,3.3,29.3-5.4C77.2,288.7,69.6,278.2,73.5,266z"/>
			<path class="st0" d="M46,278.5c0,9-7.3,16.3-16.3,16.3s-16.3-7.3-16.3-16.3c0-9,7.3-16.3,16.3-16.3S46,269.5,46,278.5L46,278.5z"
				/>
			<path class="st10" d="M46,278.5c0,9-7.3,16.3-16.3,16.3s-16.3-7.3-16.3-16.3c0-9,7.3-16.3,16.3-16.3S46,269.5,46,278.5L46,278.5z
				"/>
			<path class="st9" d="M29.7,262.2c-3.4,0-6.8,1.1-9.5,3.1c-0.5,9.9,8,19.7,5.6,22.9c-2.4,3.3-8.2,1.3-10.2-1.5
				c4.5,7.8,14.5,10.4,22.3,5.9c7.8-4.5,10.4-14.5,5.9-22.3C40.9,265.3,35.5,262.2,29.7,262.2z"/>
			
				<ellipse transform="matrix(0.3827 -0.9239 0.9239 0.3827 -210.1843 207.3606)" class="st0" cx="50.1" cy="261" rx="29.9" ry="29.9"/>
			<g class="st11">
				<ellipse transform="matrix(0.3827 -0.9239 0.9239 0.3827 -210.1843 207.3606)" cx="50.1" cy="261" rx="29.9" ry="29.9"/>
			</g>
			<path class="st9" d="M79.2,267.8c-3.7,16.1-19.8,26.1-35.9,22.3c-16.1-3.7-26.1-19.8-22.3-35.9c1.2-5.1,3.7-9.8,7.3-13.6
				c2.1-2.2,2.2-2.3,0.2-0.2c-3.8,16.1,6.2,32.1,22.2,35.9C61,278.8,71.9,275.6,79.2,267.8L79.2,267.8z"/>
		</g>
	</g>
	<g id="freepik--Windmill--inject-2">
		<g id="freepik--windmill--inject-2">
			<path class="st12" d="M338.8,296.9c-0.5,0-0.8-0.4-0.9-0.8L320.6,76.6h-13.5l-17.3,219.5c0,0.5-0.4,0.8-0.9,0.8c0,0,0,0,0,0
				c-0.5,0-0.8-0.5-0.8-0.9l17.4-220.3c0-0.5,0.4-0.8,0.9-0.8h15.1c0.5,0,0.8,0.3,0.9,0.8L339.7,296
				C339.7,296.4,339.3,296.9,338.8,296.9C338.9,296.9,338.9,296.9,338.8,296.9L338.8,296.9z"/>
			<path class="st12" d="M326.5,142h-25.3c-0.5,0-0.9-0.4-0.9-0.9c0-0.2,0-0.3,0.1-0.5l12.4-19.5l-9.6-15.1c-0.2-0.3-0.2-0.6,0-0.9
				l9.6-16.5l-7.3-12.5c-0.3-0.4-0.2-0.9,0.2-1.2c0.4-0.3,0.9-0.2,1.2,0.2c0,0,0.1,0.1,0.1,0.2l6.8,11.6l6.8-11.6
				c0.2-0.4,0.8-0.6,1.2-0.3c0.4,0.2,0.6,0.8,0.3,1.2l0,0l-7.3,12.5l9.6,16.5c0.2,0.3,0.2,0.6,0,0.9l-9.6,15.1l12.4,19.5
				c0.2,0.3,0.2,0.6,0,0.9C327.2,141.8,326.9,142,326.5,142z M302.7,140.2H325l-11.1-17.5L302.7,140.2z M305,105.5l8.9,14l8.9-14
				l-8.9-15.2L305,105.5z"/>
			<path class="st12" d="M297.3,190.1c-0.2,0-0.3,0-0.5-0.1c-0.4-0.3-0.5-0.8-0.3-1.2l29.2-48.1c0.3-0.4,0.8-0.5,1.2-0.3
				c0.4,0.2,0.5,0.8,0.3,1.2l-29.2,48.1C297.9,189.9,297.6,190.1,297.3,190.1z"/>
			<path class="st12" d="M334.8,246.8h-42c-0.3,0-0.6-0.2-0.8-0.5c-0.2-0.3-0.2-0.6,0-0.9l20.7-31.3l-16.2-24.5
				c-0.2-0.3-0.2-0.6,0-0.9c0.2-0.3,0.4-0.5,0.8-0.5h31.5l-28.4-46.8c-0.3-0.4-0.2-0.9,0.2-1.2c0.4-0.3,0.9-0.2,1.2,0.2
				c0,0,0,0.1,0,0.1l29.2,48.1c0,0.1,0.1,0.1,0.1,0.2l0,0c0,0.1,0,0.1,0,0.2l0,0c0,0.2,0,0.4-0.1,0.6l-16.2,24.5l20.7,31.3
				c0.2,0.3,0.2,0.6,0,0.9C335.4,246.6,335.1,246.8,334.8,246.8z M294.5,245.1h38.7l-19.4-29.4L294.5,245.1z M299,190.1l14.9,22.5
				l14.9-22.5H299z"/>
			<path class="st12" d="M338.3,291.1c-0.2,0-0.4-0.1-0.6-0.2l-45.5-44.3c-0.3-0.4-0.3-0.9,0.1-1.2c0.3-0.3,0.8-0.3,1.2,0l45.5,44.3
				c0.3,0.3,0.3,0.9,0,1.2C338.8,291,338.6,291.1,338.3,291.1z"/>
			<path class="st12" d="M289.4,291.1c-0.2,0-0.5-0.1-0.6-0.3c-0.3-0.3-0.3-0.9,0-1.2l45.5-44.3c0.3-0.3,0.9-0.3,1.2,0
				c0.3,0.3,0.3,0.9,0,1.2L290,290.8C289.8,291,289.6,291.1,289.4,291.1z"/>
			<path class="st12" d="M298.1,103.1h31.4c1,0,1.8,0.8,1.8,1.8v0.3c0,1-0.8,1.8-1.8,1.8h-31.4c-1,0-1.8-0.8-1.8-1.8v-0.3
				C296.4,103.9,297.2,103.1,298.1,103.1z"/>
			<path class="st12" d="M313.8,296.9c-0.5,0-0.9-0.4-0.9-0.8c0,0,0,0,0,0V75.7c0-0.5,0.4-0.9,0.9-0.9c0.5,0,0.9,0.4,0.9,0.9l0,0
				V296C314.7,296.4,314.4,296.9,313.8,296.9C313.9,296.9,313.9,296.9,313.8,296.9z"/>
			<path class="st12" d="M310.5,42.1c0-1.8,1.5-3.3,3.3-3.3c1.8,0,3.3,1.5,3.3,3.3c0,1.8-1.5,3.3-3.3,3.3c0,0,0,0,0,0
				C312,45.4,310.5,43.9,310.5,42.1C310.5,42.1,310.5,42.1,310.5,42.1z"/>
			<path class="st12" d="M313.8,33.9c0,0-5.4-10.3-3.3-15.2s5.9-8.6,6.6-6S313.8,33.9,313.8,33.9z"/>
			<path class="st12" d="M309,35.4c0,0-10.4-5.2-11.6-10.4c-1.2-5.2-0.2-10.4,1.8-8.8C301.3,17.9,309,35.4,309,35.4z"/>
			<path class="st12" d="M306.1,39.6c0,0-11.5,1.9-15.5-1.5c-4-3.5-6.3-8.3-3.7-8.2C289.5,30,306.1,39.6,306.1,39.6z"/>
			<path class="st12" d="M306.1,44.6c0,0-8.2,8.3-13.5,7.9s-10-3-7.8-4.4C287,46.7,306.1,44.6,306.1,44.6z"/>
			<path class="st12" d="M309,48.7c0,0-1.7,11.5-6.3,14.3c-4.5,2.7-9.9,3.5-8.9,1C294.8,61.5,309,48.7,309,48.7z"/>
			<path class="st12" d="M313.8,50.3c0,0,5.4,10.4,3.3,15.2c-2.1,4.9-5.9,8.6-6.6,6.1S313.8,50.3,313.8,50.3z"/>
			<path class="st12" d="M318.7,48.7c0,0,10.4,5.2,11.6,10.4c1.2,5.2,0.2,10.4-1.8,8.8S318.7,48.7,318.7,48.7z"/>
			<path class="st12" d="M321.6,44.6c0,0,11.5-1.9,15.5,1.5s6.3,8.3,3.7,8.2C338.2,54.2,321.6,44.6,321.6,44.6z"/>
			<path class="st12" d="M321.6,39.6c0,0,8.2-8.3,13.4-7.9c5.3,0.4,10,3,7.8,4.5S321.6,39.6,321.6,39.6z"/>
			<path class="st12" d="M318.7,35.4c0,0,1.7-11.5,6.3-14.3c4.5-2.7,9.9-3.5,8.9-1S318.7,35.4,318.7,35.4z"/>
		</g>
	</g>
	<g>
		<g>
			<path id="freepik--shadow--inject-2" class="st6" d="M385.6,337.2l-166-95.8l-156,90l166,95.8l58.1-33.6l17.3,10l48.2-27.8
				l-17.3-9.9L385.6,337.2z"/>
			<polygon id="freepik--shadow--inject-2_00000159454500427001684100000011037928907105224890_" class="st6" points="88.3,373.5 
				184.7,429.1 189.4,426.4 93,370.7 			"/>
		</g>
		<g id="freepik--House--inject-2">
			<g id="freepik--house--inject-2">
				<g id="freepik--Side--inject-2">
					<polygon class="st0" points="105.6,328.4 105.6,340.6 235.6,415.7 235.6,403.5 					"/>
					<polygon class="st13" points="105.6,328.4 105.6,340.6 235.6,415.7 235.6,403.5 					"/>
					<polygon class="st14" points="205.7,253.5 145,166.4 105.6,187.5 105.6,332.5 205.7,390.2 					"/>
				</g>
				<g id="freepik--bathroom-window--inject-2">
					<polygon class="st7" points="133.3,238.4 142.9,243.9 142.9,224.7 133.3,219.2 					"/>
					<polygon class="st15" points="134.1,237.9 142.1,242.5 142.1,225.1 134.1,220.5 					"/>
					<polygon class="st7" points="133.3,232.9 142.9,238.4 142.9,239.3 133.3,233.8 					"/>
				</g>
				<g id="freepik--1rst-floor--inject-2">
					<polygon class="st2" points="205.7,386.2 205.7,304.8 346.6,223.4 346.6,304.8 					"/>
					<g id="freepik--Windows--inject-2">
						<g id="freepik--Window--inject-2">
							<polygon class="st15" points="218,316 249.7,297.7 249.7,342.4 218,360.7 							"/>
							<polygon class="st0" points="219,316.6 248.7,299.4 248.7,341.9 219,359 							"/>
							<polygon class="st1" points="219,316.6 248.7,299.4 248.7,341.9 219,359 							"/>
							<polygon class="st15" points="234.4,306.5 233.4,307.1 233.4,351.9 234.4,351.3 							"/>
							<polygon class="st15" points="218.7,337.4 218.7,338.5 249,321.1 249,319.9 							"/>
						</g>
						<polygon class="st12" points="218,360.7 221.5,362.8 253.2,344.5 249.7,342.4 						"/>
						<polygon class="st7" points="218,360.7 221.5,362.8 221.5,364 218,362 						"/>
						<polygon class="st15" points="221.5,362.8 253.2,344.5 253.2,345.7 221.5,364 						"/>
						<g id="freepik--window--inject-2">
							<polygon class="st15" points="302.6,267.2 334.3,248.9 334.3,293.6 302.6,311.9 							"/>
							<polygon class="st0" points="303.6,267.7 333.3,250.6 333.3,293 303.6,310.2 							"/>
							<polygon class="st1" points="303.6,267.7 333.3,250.6 333.3,293 303.6,310.2 							"/>
							<polygon class="st15" points="318.9,257.7 317.9,258.3 317.9,303.1 318.9,302.5 							"/>
							<polygon class="st15" points="303.3,288.5 303.3,289.7 333.5,272.2 333.5,271.1 							"/>
						</g>
						<polygon class="st12" points="302.6,311.9 306.1,314 337.8,295.6 334.3,293.6 						"/>
						<polygon class="st7" points="302.6,311.9 306.1,314 306.1,315.2 302.6,313.2 						"/>
						<polygon class="st15" points="306.1,314 337.8,295.6 337.8,296.9 306.1,315.2 						"/>
					</g>
					<polygon class="st14" points="288.5,274.8 288.5,338.3 263.8,352.5 263.8,289 					"/>
					<polygon class="st12" points="263.8,289 263.8,349.3 285.8,336.6 285.8,276.3 					"/>
					<path class="st7" d="M267.9,344.8C267.9,344.8,267.9,344.8,267.9,344.8c-0.1,0-0.2-0.1-0.2-0.1c0-0.3-0.1-0.6-0.3-0.8
						c-0.2-0.1-0.4-0.1-0.6,0.1c-0.1,0-0.1,0-0.2,0c-0.1,0-0.1-0.1-0.1-0.2v-20.9c0-0.1,0-0.1,0.1-0.1c0.6-0.5,1-1.2,1.1-2.1
						c0-0.1,0-0.1,0.1-0.1l13.7-7.9c0.1,0,0.1,0,0.2,0c0.1,0,0.1,0.1,0.1,0.1c0,0.3,0.1,0.6,0.3,0.8c0.2,0.1,0.4,0.1,0.6,0
						c0.1,0,0.1,0,0.2,0c0.1,0,0.1,0.1,0.1,0.2v20.8c0,0.1,0,0.1-0.1,0.1c-0.7,0.5-1.1,1.2-1.1,2.1c0,0.1,0,0.1-0.1,0.1L267.9,344.8
						C268,344.8,268,344.8,267.9,344.8z M267.2,343.4c0.1,0,0.3,0,0.4,0.1c0.3,0.2,0.4,0.5,0.5,0.8l13.3-7.7c0-0.9,0.5-1.7,1.2-2.2
						v-20.5c-0.2,0.1-0.4,0.1-0.7,0c-0.3-0.2-0.4-0.5-0.5-0.8l-13.3,7.7c0,0.9-0.5,1.7-1.2,2.2v20.4
						C267.1,343.4,267.2,343.4,267.2,343.4L267.2,343.4z"/>
					<polygon class="st7" points="285.8,336.6 288.5,338.3 263.8,352.5 263.8,349.1 					"/>
					<polygon class="st0" points="281.7,282 267,290.5 267,318 281.7,309.5 					"/>
					<polygon class="st16" points="281.7,282 267,290.5 267,318 281.7,309.5 					"/>
					<polygon class="st15" points="273.5,314.3 274.4,314.8 267,319.1 267,318 					"/>
					<polygon class="st7" points="281.7,309.5 281.7,282 282.6,281.5 282.6,310 					"/>
					<polygon class="st15" points="281.7,309.5 282.6,310 275.3,314.3 275.3,313.2 					"/>
					<polygon class="st12" points="274.4,314.8 275.3,314.3 275.3,285.7 274.4,286.2 					"/>
					<polygon class="st7" points="274.4,314.8 273.5,314.3 273.5,286.8 274.4,286.2 					"/>
					<polygon class="st12" points="274.4,300.2 273.5,299.7 267,303.4 267,304.5 					"/>
					<polygon class="st7" points="274.4,300.2 274.4,301.2 267,305.5 267,304.5 					"/>
					<polygon class="st12" points="282.6,295.4 281.7,294.9 275.3,298.6 275.3,299.7 					"/>
					<polygon class="st7" points="282.6,295.4 282.6,296.5 275.3,300.7 275.3,299.7 					"/>
				</g>
				<g id="freepik--2nd-floor--inject-2">
					<polygon class="st12" points="144.7,168.2 204.5,254.2 350.3,170 290.7,83.9 					"/>
					<polygon class="st12" points="144.7,163.3 204.5,249.3 350.3,165.1 290.7,79 					"/>
					<polygon class="st7" points="144.7,163.3 144.7,168.2 204.5,254.2 204.5,249.3 					"/>
					<polygon class="st15" points="204.5,249.3 350.3,165.1 350.3,170 204.5,254.2 					"/>
					<polygon class="st7" points="102.1,190.8 144.7,168.2 144.7,163.3 102.1,185.9 					"/>
					<polygon class="st7" points="240.9,228.2 219.5,142.1 276.4,174.9 					"/>
					<polygon class="st15" points="276.4,179.8 276.4,174.9 240.9,228.2 240.9,233.2 					"/>
					<polygon class="st7" points="311.9,192.2 311.9,187.2 276.4,174.9 276.4,179.8 					"/>
					<polygon class="st15" points="311.9,187.2 219.5,142.1 276.4,174.9 					"/>
					<polygon class="st15" points="248,101.7 102.1,185.9 144.7,163.3 290.7,79 					"/>
					<polygon class="st2" points="346.6,172.1 311.9,192.2 276.4,179.8 240.9,233.2 205.7,253.5 205.7,304.8 346.6,223.4 					"/>
					<polygon class="st7" points="257.6,218.9 299.1,194.9 299.1,239 257.6,263 					"/>
					<polygon class="st0" points="296.6,237.5 296.6,196.4 257.6,218.9 257.6,260.1 					"/>
					<polygon class="st16" points="296.6,237.5 296.6,196.4 257.6,218.9 257.6,260.1 					"/>
					<polygon class="st17" points="296.6,196.4 296.6,200.6 257.6,223.1 257.6,218.9 					"/>
					<polygon class="st15" points="299.1,239 296.6,237.5 257.6,260.1 257.6,263 					"/>
					<polygon class="st15" points="299.1,217 296.6,215.5 257.6,238 257.6,240.9 					"/>
					<polygon class="st15" points="279.2,250.5 276.7,252 276.7,207.9 279.2,206.4 					"/>
					<polygon class="st12" points="216.1,257.8 233.5,247.8 233.5,273.4 216.1,283.4 					"/>
					<polygon class="st0" points="232,272.6 232,248.7 216.1,257.8 216.1,281.7 					"/>
					<polygon class="st16" points="232,272.6 232,248.7 216.1,257.8 216.1,281.7 					"/>
					<polygon class="st15" points="233.5,273.4 232,272.6 216.1,281.7 216.1,283.4 					"/>
					<polygon class="st12" points="216.1,270.6 233.5,260.6 233.5,258.9 216.1,268.9 					"/>
					<polygon class="st12" points="318.8,198.5 336.2,188.5 336.2,214.1 318.8,224 					"/>
					<polygon class="st0" points="334.7,213.2 334.7,189.3 318.8,198.5 318.8,222.3 					"/>
					<polygon class="st16" points="334.7,213.2 334.7,189.3 318.8,198.5 318.8,222.3 					"/>
					<polygon class="st15" points="336.2,214.1 334.7,213.2 318.8,222.3 318.8,224 					"/>
					<polygon class="st12" points="318.8,211.2 336.2,201.3 336.2,199.6 318.8,209.5 					"/>
				</g>
				<g id="freepik--Porch--inject-2">
					<polygon class="st0" points="284.9,387.2 235.6,415.7 235.6,403.5 284.9,375 					"/>
					<polygon class="st10" points="284.9,387.2 235.6,415.7 235.6,403.5 284.9,375 					"/>
					<polygon class="st0" points="327.2,362.8 373,336.3 373,324.1 327.2,350.6 					"/>
					<polygon class="st10" points="327.2,362.8 373,336.3 373,324.1 327.2,350.6 					"/>
					<g id="freepik--floor--inject-2_00000001658165651320779650000010766035024688827308_">
						<polygon class="st14" points="376.5,322.1 327.2,350.6 327.2,354.6 376.5,326.2 						"/>
						<polygon class="st18" points="205.7,386.2 235.6,403.5 376.5,322.1 346.6,304.8 						"/>
						<polygon class="st14" points="284.9,375 235.6,403.5 235.6,407.5 284.9,379 						"/>
						<polygon class="st14" points="205.7,386.2 235.6,403.5 235.6,407.5 205.7,390.2 						"/>
						<polygon class="st9" points="205.7,386.2 235.6,403.5 235.6,407.5 205.7,390.2 						"/>
					</g>
					<g id="freepik--Stairs--inject-2">
						<polygon class="st18" points="284.9,375 292,379 334.3,354.6 327.2,350.6 						"/>
						<polygon class="st14" points="334.3,354.6 334.3,358.7 292,383.1 292,379 						"/>
						<polygon class="st14" points="341.3,362.8 341.3,366.8 299,391.3 299,387.2 						"/>
						<polygon class="st18" points="292,383.1 299,387.2 341.3,362.8 334.3,358.7 						"/>
						<polygon class="st14" points="348.4,370.9 348.4,375 306.1,399.4 306.1,395.3 						"/>
						<polygon class="st18" points="299,391.3 306.1,395.3 348.4,370.9 341.3,366.8 						"/>
						<polygon class="st14" points="284.9,375 284.9,387.2 306.1,399.4 306.1,395.3 299,391.3 299,387.2 292,383.1 292,379 						
							"/>
						<polygon class="st9" points="284.9,375 284.9,387.2 306.1,399.4 306.1,395.3 299,391.3 299,387.2 292,383.1 292,379 						"/>
					</g>
					<g id="freepik--Poles--inject-2">
						<polygon class="st15" points="369.5,320.8 363.6,317.3 357.7,320.7 357.7,322.1 363.6,325.5 369.5,322.1 						"/>
						<polygon class="st12" points="363.6,324.1 357.7,320.7 363.6,317.3 369.5,320.8 						"/>
						<polygon class="st7" points="363.6,325.5 363.6,324.1 357.7,320.7 357.7,322.1 						"/>
						<polygon class="st15" points="337.8,307 339.3,306.1 363.9,320.4 363.9,321.2 362.5,322.1 337.8,307.8 						"/>
						<polygon class="st12" points="337.8,307 362.5,321.2 363.9,320.4 339.3,306.1 						"/>
						<path class="st7" d="M340.5,290c0.2-0.1,0.4-0.1,0.5,0c0.1,0,0.1,0.1,0.1,0.1V308c0,0.1-0.1,0.1-0.1,0.2
							c-0.2,0.1-0.4,0.1-0.5,0c-0.1,0-0.1-0.1-0.1-0.2v-17.8C340.4,290.1,340.5,290,340.5,290z"/>
						<path class="st12" d="M341.1,290.3c0.2-0.1,0.2-0.2,0-0.3c-0.2-0.1-0.4-0.1-0.5,0c-0.1,0-0.1,0.1-0.1,0.2
							c0,0.1,0.1,0.1,0.1,0.1C340.7,290.4,340.9,290.4,341.1,290.3z"/>
						<path class="st7" d="M344.1,292c0.2-0.1,0.4-0.1,0.6,0c0.1,0,0.1,0.1,0.1,0.2V310c0,0.1,0,0.1-0.1,0.1c-0.2,0.1-0.4,0.1-0.6,0
							c-0.1,0-0.1-0.1-0.1-0.1v-17.8C343.9,292.1,344,292,344.1,292z"/>
						<ellipse class="st12" cx="344.3" cy="292.2" rx="0.4" ry="0.2"/>
						<path class="st7" d="M347.6,294.1c0.2-0.1,0.4-0.1,0.5,0c0.1,0,0.1,0.1,0.1,0.1V312c0,0.1,0,0.1-0.1,0.2
							c-0.2,0.1-0.4,0.1-0.5,0c-0.1,0-0.1-0.1-0.1-0.2v-17.8C347.5,294.2,347.5,294.1,347.6,294.1z"/>
						<path class="st12" d="M348.1,294.4c0.1,0,0.1-0.1,0.1-0.2c0-0.1-0.1-0.1-0.1-0.1c-0.2-0.1-0.4-0.1-0.5,0
							c-0.2,0.1-0.2,0.2,0,0.3C347.8,294.5,348,294.5,348.1,294.4z"/>
						<path class="st7" d="M351.1,296.1c0.2-0.1,0.4-0.1,0.5,0c0.1,0,0.1,0.1,0.1,0.2v17.8c0,0.1-0.1,0.1-0.1,0.2
							c-0.2,0.1-0.4,0.1-0.5,0c-0.1,0-0.1-0.1-0.1-0.2v-17.8C351,296.2,351,296.1,351.1,296.1z"/>
						<ellipse class="st12" cx="351.4" cy="296.2" rx="0.4" ry="0.2"/>
						<path class="st7" d="M354.6,298.1c0.2-0.1,0.4-0.1,0.6,0c0.1,0,0.1,0.1,0.1,0.1v17.9c0,0.1,0,0.1-0.1,0.2
							c-0.2,0.1-0.4,0.1-0.6,0c-0.1,0-0.1-0.1-0.1-0.2v-17.9C354.5,298.2,354.6,298.2,354.6,298.1z"/>
						<path class="st12" d="M355.2,298.4c0.1,0,0.1-0.1,0.1-0.2c0-0.1-0.1-0.1-0.1-0.1c-0.2-0.1-0.4-0.1-0.6,0
							c-0.1,0-0.1,0.1-0.1,0.2c0,0.1,0.1,0.1,0.1,0.1C354.8,298.5,355,298.5,355.2,298.4z"/>
						<path class="st7" d="M358.2,300.2c0.2-0.1,0.4-0.1,0.5,0c0.1,0,0.1,0.1,0.1,0.2v17.8c0,0.1-0.1,0.1-0.1,0.2
							c-0.2,0.1-0.4,0.1-0.5,0c-0.1,0-0.1-0.1-0.1-0.2v-17.8C358.1,300.2,358.1,300.2,358.2,300.2z"/>
						<path class="st12" d="M358.7,300.5c0.1-0.1,0.1-0.2,0-0.3c-0.2-0.1-0.4-0.1-0.5,0c-0.2,0.1-0.2,0.2,0,0.3
							C358.4,300.6,358.6,300.6,358.7,300.5z"/>
						<polygon class="st15" points="337.8,289.1 339.3,288.3 363.9,302.5 363.9,303.3 362.5,304.2 337.8,290 						"/>
						<polygon class="st12" points="337.8,289.1 362.5,303.3 363.9,302.5 339.3,288.3 						"/>
						<polygon class="st15" points="241.5,394.7 235.6,391.3 229.7,394.6 229.7,396 235.6,399.4 241.5,396 						"/>
						<polygon class="st12" points="235.6,398.1 229.7,394.6 235.6,391.3 241.5,394.7 						"/>
						<polygon class="st7" points="235.6,399.4 235.6,398.1 229.7,394.6 229.7,396 						"/>
						<polygon class="st15" points="281.4,371.6 275.5,368.2 269.6,371.6 269.6,372.9 275.5,376.3 281.4,372.9 						"/>
						<polygon class="st12" points="275.5,375 269.6,371.6 275.5,368.2 281.4,371.6 						"/>
						<polygon class="st7" points="275.5,376.3 275.5,375 269.6,371.6 269.6,372.9 						"/>
						<path class="st15" d="M277.4,294.8c-1.2-0.6-2.5-0.6-3.7,0c-0.4,0.2-0.7,0.6-0.8,1.1v75.8c0,0.5,0.3,0.9,0.8,1.1
							c1.2,0.6,2.5,0.6,3.7,0c0.4-0.2,0.7-0.6,0.8-1.1v-75.8C278.1,295.4,277.8,295,277.4,294.8z"/>
						<path class="st12" d="M273.7,296.9c-0.6-0.2-0.9-0.8-0.7-1.4c0.1-0.3,0.4-0.6,0.7-0.7c1.2-0.6,2.5-0.6,3.7,0
							c0.6,0.2,0.9,0.9,0.7,1.5c-0.1,0.3-0.4,0.6-0.7,0.7C276.2,297.5,274.8,297.5,273.7,296.9z"/>
						<path class="st15" d="M365.5,243.9c-1.2-0.6-2.5-0.6-3.7,0c-0.4,0.2-0.7,0.6-0.8,1.1v75.8c0,0.5,0.3,0.9,0.8,1.1
							c1.2,0.6,2.5,0.6,3.7,0c0.4-0.2,0.7-0.6,0.8-1.1V245C366.2,244.5,365.9,244.1,365.5,243.9z"/>
						<path class="st12" d="M361.8,246c-0.6-0.2-0.9-0.8-0.7-1.4c0.1-0.3,0.4-0.6,0.7-0.7c1.2-0.6,2.5-0.6,3.7,0
							c0.6,0.2,0.9,0.9,0.7,1.5c-0.1,0.3-0.4,0.6-0.7,0.7C364.3,246.6,362.9,246.6,361.8,246z"/>
						<polygon class="st15" points="274.4,372.1 272.9,371.2 234.2,393.6 234.2,394.5 235.6,395.3 274.4,372.9 						"/>
						<polygon class="st12" points="274.4,372.1 235.6,394.5 234.2,393.6 272.9,371.2 						"/>
						<path class="st7" d="M271.6,355.1c-0.2-0.1-0.4-0.1-0.5,0c-0.1,0-0.1,0.1-0.1,0.2v17.8c0,0,0,0.1,0.1,0.1
							c0.2,0.1,0.4,0.1,0.5,0c0.1,0,0.1-0.1,0.1-0.1v-17.8C271.7,355.2,271.7,355.1,271.6,355.1z"/>
						<path class="st12" d="M271.1,355.4c-0.1,0-0.1-0.1-0.1-0.2c0,0,0.1-0.1,0.1-0.1c0.2-0.1,0.4-0.1,0.5,0c0.1,0,0.1,0.1,0.1,0.2
							c0,0-0.1,0.1-0.1,0.1C271.5,355.5,271.3,355.5,271.1,355.4z"/>
						<path class="st7" d="M268.1,357.1c-0.2-0.1-0.4-0.1-0.6,0c-0.1,0-0.1,0.1-0.1,0.1v17.8c0,0.1,0,0.1,0.1,0.2
							c0.2,0.1,0.4,0.1,0.6,0c0.1,0,0.1-0.1,0.1-0.2v-17.8C268.2,357.2,268.2,357.1,268.1,357.1z"/>
						<path class="st12" d="M267.6,357.4c-0.1,0-0.1-0.1-0.1-0.2c0-0.1,0.1-0.1,0.1-0.1c0.2-0.1,0.4-0.1,0.6,0
							c0.1,0,0.1,0.1,0.1,0.2c0,0.1-0.1,0.1-0.1,0.1C267.9,357.5,267.7,357.5,267.6,357.4z"/>
						<path class="st7" d="M264.6,359.1c-0.2-0.1-0.4-0.1-0.6,0c-0.1,0-0.1,0.1-0.1,0.2v17.8c0,0.1,0,0.1,0.1,0.2
							c0.2,0.1,0.4,0.1,0.6,0c0.1,0,0.1-0.1,0.1-0.2v-17.8C264.7,359.2,264.7,359.2,264.6,359.1z"/>
						<path class="st12" d="M264,359.5c-0.1,0-0.1-0.1-0.1-0.2c0,0,0.1-0.1,0.1-0.1c0.2-0.1,0.4-0.1,0.6,0c0.1,0,0.1,0.1,0.1,0.2
							c0,0-0.1,0.1-0.1,0.1C264.4,359.6,264.2,359.6,264,359.5z"/>
						<path class="st7" d="M261.1,361.2c-0.2-0.1-0.4-0.1-0.5,0c-0.1,0-0.1,0.1-0.1,0.1v17.8c0,0,0,0.1,0.1,0.2
							c0.2,0.1,0.4,0.1,0.5,0c0.1-0.1,0.1-0.1,0.1-0.2v-17.8C261.2,361.3,261.1,361.2,261.1,361.2z"/>
						<ellipse class="st12" cx="260.8" cy="361.3" rx="0.4" ry="0.2"/>
						<path class="st7" d="M257.5,363.2c-0.2-0.1-0.4-0.1-0.6,0c-0.1,0-0.1,0.1-0.1,0.2v17.8c0,0.1,0,0.1,0.1,0.2
							c0.2,0.1,0.4,0.1,0.6,0c0.1,0,0.1-0.1,0.1-0.2v-17.8C257.6,363.3,257.6,363.2,257.5,363.2z"/>
						<ellipse class="st12" cx="257.3" cy="363.4" rx="0.4" ry="0.2"/>
						<path class="st7" d="M254,365.3c-0.2-0.1-0.4-0.1-0.5,0c-0.1,0-0.1,0.1-0.1,0.1v17.9c0,0.1,0,0.1,0.1,0.2
							c0.2,0.1,0.4,0.1,0.5,0c0.1-0.1,0.1-0.1,0.1-0.2v-17.9C254.1,365.4,254.1,365.3,254,365.3z"/>
						<ellipse class="st12" cx="253.7" cy="365.4" rx="0.4" ry="0.2"/>
						<path class="st7" d="M250.5,367.3c-0.2-0.1-0.4-0.1-0.5,0c-0.1,0-0.1,0.1-0.1,0.2v17.8c0,0.1,0.1,0.1,0.1,0.2
							c0.2,0.1,0.4,0.1,0.5,0c0.1,0,0.1-0.1,0.1-0.2v-17.8C250.6,367.4,250.6,367.3,250.5,367.3z"/>
						<path class="st12" d="M250,367.6c-0.2-0.1-0.2-0.2,0-0.3c0.2-0.1,0.4-0.1,0.5,0c0.1,0,0.1,0.1,0.1,0.2c0,0.1-0.1,0.1-0.1,0.1
							C250.3,367.7,250.1,367.7,250,367.6z"/>
						<path class="st7" d="M247,369.3c-0.2-0.1-0.4-0.1-0.6,0c-0.1,0-0.1,0.1-0.1,0.2v17.8c0,0.1,0,0.1,0.1,0.2
							c0.2,0.1,0.4,0.1,0.6,0c0.1,0,0.1-0.1,0.1-0.2v-17.8C247.1,369.4,247,369.3,247,369.3z"/>
						<path class="st12" d="M246.4,369.6c-0.1,0-0.1-0.1-0.1-0.2c0,0,0.1-0.1,0.1-0.1c0.2-0.1,0.4-0.1,0.6,0c0.1,0,0.1,0.1,0.1,0.2
							c0,0-0.1,0.1-0.1,0.1C246.8,369.7,246.6,369.7,246.4,369.6z"/>
						<path class="st7" d="M243.4,371.4c-0.2-0.1-0.4-0.1-0.5,0c-0.1,0-0.1,0.1-0.1,0.2v17.8c0,0.1,0.1,0.1,0.1,0.2
							c0.2,0.1,0.4,0.1,0.5,0c0.1,0,0.1-0.1,0.1-0.2v-17.8C243.6,371.4,243.5,371.4,243.4,371.4z"/>
						<path class="st12" d="M242.9,371.7c-0.1,0-0.1-0.1-0.1-0.2c0-0.1,0.1-0.1,0.1-0.1c0.2-0.1,0.4-0.1,0.5,0
							c0.2,0.1,0.2,0.2,0,0.3C243.3,371.8,243.1,371.8,242.9,371.7z"/>
						<path class="st7" d="M239.9,373.4c-0.2-0.1-0.4-0.1-0.6,0c-0.1,0-0.1,0.1-0.1,0.2v17.8c0,0.1,0,0.1,0.1,0.2
							c0.2,0.1,0.4,0.1,0.6,0c0.1,0,0.1-0.1,0.1-0.2v-17.8C240,373.5,240,373.4,239.9,373.4z"/>
						<path class="st12" d="M239.4,373.7c-0.1,0-0.1-0.1-0.1-0.2c0,0,0.1-0.1,0.1-0.1c0.2-0.1,0.4-0.1,0.6,0c0.1,0,0.1,0.1,0.1,0.2
							c0,0-0.1,0.1-0.1,0.1C239.7,373.8,239.5,373.8,239.4,373.7z"/>
						<polygon class="st15" points="274.4,354.2 272.9,353.3 234.2,375.7 234.2,376.6 235.6,377.4 274.4,355.1 						"/>
						<polygon class="st12" points="274.4,354.2 235.6,376.6 234.2,375.7 272.9,353.3 						"/>
						<polygon class="st15" points="211,380.2 212.4,379.4 237.1,393.6 237.1,394.5 235.6,395.3 211,381.1 						"/>
						<polygon class="st12" points="211,380.2 235.6,394.5 237.1,393.6 212.4,379.4 						"/>
						<path class="st7" d="M213.7,363.2c0.2-0.1,0.4-0.1,0.5,0c0.1,0,0.1,0.1,0.1,0.2v17.8c0,0.1-0.1,0.1-0.1,0.2
							c-0.2,0.1-0.4,0.1-0.5,0c-0.1,0-0.1-0.1-0.1-0.2v-17.8C213.6,363.3,213.6,363.2,213.7,363.2z"/>
						<path class="st12" d="M214.2,363.5c0.2-0.1,0.2-0.2,0-0.3c-0.2-0.1-0.4-0.1-0.5,0c-0.1,0.1-0.1,0.2,0,0.3
							C213.9,363.6,214.1,363.6,214.2,363.5z"/>
						<path class="st7" d="M217.2,365.3c0.2-0.1,0.4-0.1,0.6,0c0.1,0,0.1,0.1,0.1,0.1v17.9c0,0.1,0,0.1-0.1,0.2
							c-0.2,0.1-0.4,0.1-0.6,0c-0.1,0-0.1-0.1-0.1-0.2v-17.9C217.1,365.3,217.2,365.3,217.2,365.3z"/>
						<ellipse class="st12" cx="217.5" cy="365.4" rx="0.4" ry="0.2"/>
						<path class="st7" d="M220.8,367.3c0.2-0.1,0.4-0.1,0.5,0c0.1,0,0.1,0.1,0.1,0.2v17.8c0,0.1,0,0.1-0.1,0.2
							c-0.2,0.1-0.4,0.1-0.5,0c-0.1,0-0.1-0.1-0.1-0.2v-17.8C220.6,367.4,220.7,367.3,220.8,367.3z"/>
						<path class="st12" d="M221.3,367.6c0.1,0,0.1-0.1,0.1-0.2c0-0.1-0.1-0.1-0.1-0.1c-0.2-0.1-0.4-0.1-0.5,0
							c-0.2,0.1-0.2,0.2,0,0.3C220.9,367.7,221.1,367.7,221.3,367.6z"/>
						<path class="st7" d="M224.3,369.3c0.2-0.1,0.4-0.1,0.5,0c0.1,0.1,0.1,0.1,0.1,0.2v17.8c0,0,0,0.1-0.1,0.2
							c-0.2,0.1-0.4,0.1-0.5,0c-0.1,0-0.1-0.1-0.1-0.2v-17.8C224.2,369.4,224.2,369.3,224.3,369.3z"/>
						<path class="st12" d="M224.8,369.6c0.2-0.1,0.2-0.2,0-0.3c-0.2-0.1-0.4-0.1-0.5,0c-0.1,0-0.1,0.1-0.1,0.2c0,0,0.1,0.1,0.1,0.1
							C224.4,369.7,224.6,369.7,224.8,369.6z"/>
						<path class="st7" d="M227.8,371.4c0.2-0.1,0.4-0.1,0.6,0c0.1,0,0.1,0.1,0.1,0.2v17.8c0,0.1,0,0.1-0.1,0.2
							c-0.2,0.1-0.4,0.1-0.6,0c-0.1,0-0.1-0.1-0.1-0.2v-17.8C227.7,371.4,227.7,371.4,227.8,371.4z"/>
						<path class="st12" d="M228.3,371.7c0.1,0,0.1-0.1,0.1-0.2c0-0.1-0.1-0.1-0.1-0.1c-0.2-0.1-0.4-0.1-0.6,0
							c-0.1,0-0.1,0.1-0.1,0.2c0,0.1,0.1,0.1,0.1,0.1C228,371.8,228.2,371.8,228.3,371.7z"/>
						<path class="st7" d="M231.3,373.4c0.2-0.1,0.4-0.1,0.5,0c0.1,0.1,0.1,0.1,0.1,0.2v17.8c0,0,0,0.1-0.1,0.2
							c-0.2,0.1-0.4,0.1-0.5,0c-0.1-0.1-0.1-0.1-0.1-0.2v-17.8C231.2,373.5,231.2,373.4,231.3,373.4z"/>
						<ellipse class="st12" cx="231.6" cy="373.5" rx="0.4" ry="0.2"/>
						<polygon class="st15" points="211,362.3 212.4,361.5 237.1,375.7 237.1,376.6 235.6,377.4 211,363.2 						"/>
						<polygon class="st12" points="211,362.3 235.6,376.6 237.1,375.7 212.4,361.5 						"/>
						<polygon class="st15" points="362.5,321.2 361,320.4 322.2,342.8 322.2,343.6 323.7,344.5 362.5,322.1 						"/>
						<polygon class="st12" points="362.5,321.2 323.7,343.6 322.2,342.8 361,320.4 						"/>
						<path class="st7" d="M359.7,304.2c-0.2-0.1-0.4-0.1-0.5,0c-0.1,0.1-0.1,0.1-0.1,0.2v17.8c0,0,0,0.1,0.1,0.1
							c0.2,0.1,0.4,0.1,0.5,0c0.1,0,0.1-0.1,0.1-0.1v-17.8C359.8,304.4,359.8,304.3,359.7,304.2z"/>
						<path class="st12" d="M359.2,304.5c-0.1,0-0.1-0.1-0.1-0.2c0,0,0.1-0.1,0.1-0.1c0.2-0.1,0.4-0.1,0.5,0c0.2,0.1,0.2,0.2,0,0.3
							C359.5,304.6,359.3,304.6,359.2,304.5z"/>
						<path class="st7" d="M356.2,306.3c-0.2-0.1-0.4-0.1-0.6,0c-0.1,0-0.1,0.1-0.1,0.1v17.8c0,0.1,0,0.1,0.1,0.2
							c0.2,0.1,0.4,0.1,0.6,0c0.1,0,0.1-0.1,0.1-0.2v-17.8C356.3,306.3,356.3,306.3,356.2,306.3z"/>
						<path class="st12" d="M355.6,306.6c-0.1,0-0.1-0.1-0.1-0.2c0-0.1,0.1-0.1,0.1-0.1c0.2-0.1,0.4-0.1,0.6,0
							c0.1,0,0.1,0.1,0.1,0.2c0,0.1-0.1,0.1-0.1,0.1C356,306.7,355.8,306.7,355.6,306.6z"/>
						<path class="st7" d="M352.7,308.3c-0.2-0.1-0.4-0.1-0.6,0c-0.1,0-0.1,0.1-0.1,0.2v17.8c0,0.1,0,0.1,0.1,0.1
							c0.2,0.1,0.4,0.1,0.6,0c0.1,0,0.1-0.1,0.1-0.1v-17.8C352.8,308.4,352.7,308.3,352.7,308.3z"/>
						<path class="st12" d="M352.1,308.6c-0.1,0-0.1-0.1-0.1-0.2c0,0,0.1-0.1,0.1-0.1c0.2-0.1,0.4-0.1,0.6,0c0.1,0,0.1,0.1,0.1,0.2
							c0,0-0.1,0.1-0.1,0.1C352.5,308.7,352.3,308.7,352.1,308.6z"/>
						<path class="st7" d="M349.1,310.3c-0.2-0.1-0.4-0.1-0.5,0c-0.1,0-0.1,0.1-0.1,0.1v17.8c0,0.1,0.1,0.1,0.1,0.2
							c0.2,0.1,0.4,0.1,0.5,0c0.1,0,0.1-0.1,0.1-0.2v-17.8C349.3,310.5,349.2,310.4,349.1,310.3z"/>
						<path class="st12" d="M348.6,310.6c-0.1,0-0.1-0.1-0.1-0.2c0-0.1,0.1-0.1,0.1-0.1c0.2-0.1,0.4-0.1,0.5,0
							c0.1,0,0.1,0.1,0.1,0.2c0,0.1-0.1,0.1-0.1,0.1C349,310.7,348.8,310.7,348.6,310.6z"/>
						<path class="st7" d="M345.6,312.4c-0.2-0.1-0.4-0.1-0.6,0c-0.1,0-0.1,0.1-0.1,0.2v17.8c0,0.1,0,0.1,0.1,0.1
							c0.2,0.1,0.4,0.1,0.6,0c0.1,0,0.1-0.1,0.1-0.1v-17.8C345.7,312.5,345.7,312.4,345.6,312.4z"/>
						<path class="st12" d="M345.1,312.7c-0.1,0-0.1-0.1-0.1-0.2c0,0,0.1-0.1,0.1-0.1c0.2-0.1,0.4-0.1,0.6,0c0.1,0,0.1,0.1,0.1,0.2
							c0,0-0.1,0.1-0.1,0.1C345.4,312.8,345.2,312.8,345.1,312.7z"/>
						<path class="st7" d="M342.1,314.4c-0.2-0.1-0.4-0.1-0.6,0c-0.1,0-0.1,0.1-0.1,0.1v17.8c0,0.1,0,0.1,0.1,0.2
							c0.2,0.1,0.4,0.1,0.6,0c0.1,0,0.1-0.1,0.1-0.2v-17.8C342.2,314.5,342.2,314.4,342.1,314.4z"/>
						<path class="st12" d="M341.6,314.7c-0.1,0-0.1-0.1-0.1-0.2c0-0.1,0.1-0.1,0.1-0.1c0.2-0.1,0.4-0.1,0.6,0
							c0.1,0,0.1,0.1,0.1,0.2c0,0.1-0.1,0.1-0.1,0.1C341.9,314.8,341.7,314.8,341.6,314.7z"/>
						<path class="st7" d="M338.6,316.4c-0.2-0.1-0.4-0.1-0.5,0c-0.1,0-0.1,0.1-0.1,0.2v17.8c0,0,0,0.1,0.1,0.1
							c0.2,0.1,0.4,0.1,0.5,0c0.1,0,0.1-0.1,0.1-0.1v-17.8C338.7,316.5,338.7,316.5,338.6,316.4z"/>
						<path class="st12" d="M338,316.8c-0.2-0.1-0.2-0.2,0-0.3c0.2-0.1,0.4-0.1,0.5,0c0.1,0,0.1,0.1,0.1,0.2c0,0-0.1,0.1-0.1,0.1
							C338.4,316.8,338.2,316.8,338,316.8z"/>
						<path class="st7" d="M335.1,318.5c-0.2-0.1-0.4-0.1-0.6,0c-0.1,0-0.1,0.1-0.1,0.1v17.8c0,0.1,0,0.1,0.1,0.2
							c0.2,0.1,0.4,0.1,0.6,0c0.1,0,0.1-0.1,0.1-0.2v-17.8C335.2,318.6,335.1,318.5,335.1,318.5z"/>
						<path class="st12" d="M334.6,318.8c-0.1,0-0.1-0.1-0.1-0.2c0-0.1,0.1-0.1,0.1-0.1c0.2-0.1,0.4-0.1,0.6,0
							c0.1,0,0.1,0.1,0.1,0.2c0,0.1-0.1,0.1-0.1,0.1C334.9,318.9,334.7,318.9,334.6,318.8z"/>
						<path class="st7" d="M331.5,320.5c-0.2-0.1-0.4-0.1-0.5,0c-0.1,0-0.1,0.1-0.1,0.2v17.8c0,0.1,0,0.1,0.1,0.2
							c0.2,0.1,0.4,0.1,0.5,0c0.1,0,0.1-0.1,0.1-0.2v-17.8C331.6,320.6,331.6,320.5,331.5,320.5z"/>
						<path class="st12" d="M331,320.8c-0.1,0-0.1-0.1-0.1-0.2c0,0,0.1-0.1,0.1-0.1c0.2-0.1,0.4-0.1,0.5,0c0.2,0.1,0.2,0.2,0,0.3
							C331.4,320.9,331.2,320.9,331,320.8z"/>
						<path class="st7" d="M328,322.5c-0.2-0.1-0.4-0.1-0.5,0c-0.1,0-0.1,0.1-0.1,0.1v17.8c0,0,0,0.1,0.1,0.2c0.2,0.1,0.4,0.1,0.5,0
							c0.1,0,0.1-0.1,0.1-0.2v-17.8C328.1,322.6,328.1,322.6,328,322.5z"/>
						<path class="st12" d="M327.5,322.9c-0.2-0.1-0.2-0.2,0-0.3c0.2-0.1,0.4-0.1,0.5,0c0.1,0,0.1,0.1,0.1,0.2
							c0,0.1-0.1,0.1-0.1,0.1C327.8,322.9,327.6,322.9,327.5,322.9z"/>
						<polygon class="st15" points="362.5,303.3 361,302.5 322.2,324.9 322.2,325.7 323.7,326.6 362.5,304.2 						"/>
						<polygon class="st12" points="362.5,303.3 323.7,325.7 322.2,324.9 361,302.5 						"/>
						<path class="st15" d="M237.5,317.8c-1.2-0.6-2.5-0.6-3.7,0c-0.4,0.2-0.7,0.6-0.8,1.1v75.8c0,0.5,0.3,0.9,0.8,1.1
							c1.2,0.6,2.5,0.6,3.7,0c0.4-0.2,0.7-0.6,0.8-1.1v-75.8C238.2,318.4,237.9,318,237.5,317.8z"/>
						<path class="st12" d="M233.8,320c-0.6-0.2-0.9-0.8-0.7-1.4c0.1-0.3,0.4-0.6,0.7-0.7c1.2-0.6,2.5-0.6,3.7,0
							c0.6,0.2,0.9,0.9,0.7,1.5c-0.1,0.3-0.4,0.6-0.7,0.7C236.3,320.6,234.9,320.6,233.8,320z"/>
						<polygon class="st15" points="329.6,343.8 323.7,340.4 317.8,343.8 317.8,345.1 323.7,348.5 329.6,345.2 						"/>
						<polygon class="st12" points="323.7,347.2 317.8,343.8 323.7,340.4 329.6,343.8 						"/>
						<polygon class="st7" points="323.7,348.5 323.7,347.2 317.8,343.8 317.8,345.1 						"/>
						<path class="st15" d="M325.6,267c-1.2-0.6-2.5-0.6-3.7,0c-0.4,0.2-0.7,0.6-0.8,1.1v75.8c0.1,0.5,0.3,0.9,0.8,1.1
							c1.2,0.6,2.5,0.6,3.7,0c0.4-0.2,0.7-0.6,0.8-1.1V268C326.3,267.6,326,267.2,325.6,267z"/>
						<path class="st12" d="M321.9,269.1c-0.6-0.2-0.9-0.8-0.7-1.4c0.1-0.3,0.4-0.6,0.7-0.7c1.2-0.6,2.5-0.6,3.7,0
							c0.6,0.2,0.9,0.8,0.7,1.4c-0.1,0.3-0.4,0.6-0.7,0.7C324.4,269.7,323,269.7,321.9,269.1z"/>
					</g>
					<g id="freepik--Snow--inject-2">
						<polygon class="st12" points="205.7,298.3 235.6,323.6 376.5,242.3 346.6,216.9 						"/>
						<polygon class="st15" points="376.5,242.3 235.6,323.6 235.6,327.7 376.5,246.3 						"/>
						<polygon class="st7" points="205.7,298.3 235.6,323.6 235.6,327.7 205.7,302.4 						"/>
					</g>
				</g>
				<g id="freepik--window--inject-2_00000173862679460343955320000016841480759477840805_">
					<polygon class="st15" points="144.7,289.9 113,271.6 113,316.4 144.7,334.7 					"/>
					<polygon class="st0" points="143.7,290.5 114,273.3 114,315.8 143.7,332.9 					"/>
					<polygon class="st19" points="143.7,290.5 114,273.3 114,315.8 143.7,332.9 					"/>
					<polygon class="st15" points="128.4,280.5 129.4,281.1 129.4,325.8 128.4,325.2 					"/>
					<polygon class="st15" points="144,311.3 144,312.5 113.8,295 113.7,293.8 					"/>
				</g>
				<polygon class="st12" points="144.7,334.7 141.2,336.7 109.5,318.4 113,316.4 				"/>
				<polygon class="st7" points="144.7,334.7 141.2,336.7 141.2,338 144.7,335.9 				"/>
				<polygon class="st15" points="141.2,336.7 109.5,318.4 109.5,319.7 141.2,338 				"/>
				<g id="freepik--Flue--inject-2">
					<g id="freepik--flue--inject-2">
						<polygon class="st0" points="180.4,348.2 180.4,392 187.5,387.9 187.5,344.1 						"/>
						<polygon class="st20" points="180.4,348.2 180.4,392 187.5,387.9 187.5,344.1 						"/>
						<polygon class="st0" points="174.4,325.6 167.2,329.7 180.4,348.2 187.5,344.1 						"/>
						<polygon class="st9" points="174.4,325.6 167.2,329.7 180.4,348.2 187.5,344.1 						"/>
						<polygon class="st1" points="174.4,325.6 167.2,329.7 180.4,348.2 187.5,344.1 						"/>
						<polygon class="st0" points="180.4,348.2 167.2,329.7 167.2,179.7 150.6,170.1 150.6,320.2 138.1,323.8 138.1,367.6 
							180.4,392 						"/>
						<polygon class="st21" points="180.4,348.2 167.2,329.7 167.2,179.7 150.6,170.1 150.6,320.2 138.1,323.8 138.1,367.6 
							180.4,392 						"/>
						<g class="st22">
							<path class="st23" d="M164.6,228.9v0.8c0,0.3,0.1,0.5,0.4,0.6l2.2,1.3V230l-2.2-1.3C164.8,228.5,164.6,228.6,164.6,228.9z"/>
							<path class="st23" d="M165.5,199.3v0.8c0,0.3,0.2,0.5,0.4,0.6l1.3,0.8v-1.6l-1.3-0.8C165.7,198.9,165.5,199,165.5,199.3z"/>
							<path class="st23" d="M156.7,248.1v0.8c0,0.3,0.2,0.5,0.4,0.6l3.5,2c0.2,0.1,0.4,0,0.4-0.2v-0.8c0-0.3-0.1-0.5-0.4-0.6
								l-3.5-2C156.9,247.8,156.7,247.8,156.7,248.1z"/>
							<path class="st23" d="M153.3,199.8v0.8c0,0.3,0.2,0.5,0.4,0.6l3.5,2c0.2,0.1,0.4,0,0.4-0.2v-0.8c0-0.3-0.1-0.5-0.4-0.6
								l-3.5-2C153.5,199.5,153.3,199.6,153.3,199.8z"/>
							<path class="st23" d="M166.9,267.8v0.8c0,0.2,0.1,0.4,0.3,0.5v-1.5C167,267.6,166.9,267.7,166.9,267.8z"/>
							<path class="st23" d="M159,235.6v0.8c0,0.3,0.1,0.5,0.4,0.6l3.4,2c0.2,0.1,0.4,0,0.4-0.2V238c0-0.3-0.1-0.5-0.4-0.6l-3.4-2
								C159.2,235.2,159,235.3,159,235.6z"/>
							<path class="st23" d="M164.6,244.7v0.8c0,0.3,0.1,0.5,0.4,0.6l2.2,1.3v-1.6l-2.2-1.3C164.8,244.4,164.6,244.5,164.6,244.7z"
								/>
							<path class="st23" d="M166,300v0.8c0,0.3,0.2,0.5,0.4,0.6l0.8,0.5v-1.6l-0.8-0.5c-0.1-0.1-0.2-0.1-0.3,0
								C166,299.9,166,299.9,166,300z"/>
							<path class="st23" d="M166.9,228.2v0.8c0,0.2,0.1,0.4,0.3,0.5V228C167,227.9,166.9,228,166.9,228.2z"/>
							<path class="st23" d="M167.2,286.1v-1.6l-0.8-0.4c-0.2-0.1-0.4,0-0.4,0.2v0.8c0,0.3,0.2,0.5,0.4,0.6L167.2,286.1z"/>
							<path class="st23" d="M164.6,261.3c0,0.3,0.1,0.5,0.4,0.7l2.2,1.3v-1.6l-2.2-1.3c-0.2-0.1-0.4,0-0.4,0.2V261.3z"/>
							<path class="st23" d="M162.3,306.6v-0.8c0-0.3-0.2-0.5-0.4-0.6l-3.5-2c-0.1-0.1-0.2-0.1-0.3,0c0,0.1-0.1,0.1-0.1,0.2v0.8
								c0,0.3,0.2,0.5,0.4,0.6l3.5,2c0.1,0.1,0.2,0.1,0.3,0C162.3,306.7,162.4,306.7,162.3,306.6z"/>
							<path class="st23" d="M160.2,323.2v-0.8c0-0.3-0.2-0.5-0.4-0.6l-3.5-2c-0.2-0.1-0.4,0-0.4,0.2v0.8c0,0.3,0.2,0.5,0.4,0.6
								l3.5,2C160,323.5,160.2,323.4,160.2,323.2z"/>
							<path class="st23" d="M159.3,327.6v-0.7c0-0.3-0.2-0.5-0.4-0.6l-3.4-2c-0.2-0.1-0.4,0-0.4,0.2v0.8c0,0.3,0.2,0.5,0.4,0.6
								l3.4,2C159.1,328,159.3,327.9,159.3,327.6z"/>
							<path class="st23" d="M167.2,294.4l-3-1.7c-0.2-0.1-0.4,0-0.4,0.2v0.8c0,0.3,0.2,0.5,0.4,0.6l3,1.7V294.4z"/>
							<path class="st23" d="M167.2,317.8v-1.6l-0.8-0.5c-0.2-0.1-0.4,0-0.4,0.2v0.8c0,0.3,0.2,0.5,0.4,0.6L167.2,317.8z"/>
							<path class="st23" d="M152.2,333.9c0.2,0.1,0.4,0,0.4-0.2V333c0-0.3-0.2-0.5-0.4-0.6l-3.5-2c-0.2-0.1-0.4,0-0.4,0.2v0.8
								c0,0.3,0.1,0.5,0.4,0.6L152.2,333.9z"/>
							<path class="st23" d="M150.6,212.4v1.7l1.8,1c0.2,0.1,0.4,0,0.4-0.2v-0.8c0-0.3-0.1-0.5-0.4-0.6L150.6,212.4z"/>
							<path class="st23" d="M139.1,327.8v-0.8c0-0.3-0.1-0.5-0.4-0.6l-0.6-0.3v1.6l0.6,0.3C138.9,328.1,139.1,328,139.1,327.8z"/>
							<path class="st23" d="M156.7,336.5c0.2,0.1,0.4,0,0.4-0.2v-0.8c0-0.3-0.2-0.5-0.4-0.6l-3.4-2c-0.2-0.1-0.4,0-0.4,0.2v0.8
								c0,0.3,0.1,0.5,0.4,0.6L156.7,336.5z"/>
							<path class="st23" d="M154.8,333v-0.7c0-0.3-0.2-0.5-0.4-0.6l-3.5-2c-0.2-0.1-0.4,0-0.4,0.2v0.8c0,0.3,0.1,0.5,0.4,0.6l3.5,2
								C154.6,333.3,154.8,333.2,154.8,333z"/>
							<path class="st23" d="M154.2,297.2c0-0.3-0.2-0.5-0.4-0.6l-3.2-1.9v1.6l3.2,1.8c0.2,0.1,0.4,0,0.4-0.2L154.2,297.2z"/>
							<path class="st23" d="M154.6,233.7c0,0.3,0.2,0.5,0.4,0.6l3.4,2c0.2,0.1,0.4,0,0.4-0.2v-0.8c0-0.3-0.2-0.5-0.4-0.6l-3.4-2
								c-0.2-0.1-0.4,0-0.4,0.2V233.7z"/>
							<path class="st23" d="M160.5,207.4v0.8c0,0.3,0.1,0.5,0.4,0.6l3.4,2c0.2,0.1,0.4,0,0.4-0.2v-0.8c0-0.3-0.2-0.5-0.4-0.7
								l-3.4-2C160.6,207,160.5,207.1,160.5,207.4z"/>
							<path class="st23" d="M156,205.5c0,0.3,0.2,0.5,0.4,0.6l3.4,2c0.2,0.1,0.4,0,0.4-0.2v-0.8c0-0.3-0.2-0.5-0.4-0.6l-3.4-2
								c-0.2-0.1-0.4,0-0.4,0.2V205.5z"/>
							<path class="st23" d="M150.6,241.8l1.8,1c0.2,0.1,0.4,0,0.4-0.2v-0.8c0-0.3-0.1-0.5-0.4-0.6l-1.8-1V241.8z"/>
							<path class="st23" d="M154.7,230.3c0.2,0.1,0.4,0,0.4-0.2v-0.8c0-0.3-0.1-0.5-0.4-0.6l-3.5-2c-0.2-0.1-0.4,0-0.4,0.2v0.8
								c0,0.3,0.2,0.5,0.4,0.6L154.7,230.3z"/>
							<path class="st23" d="M152,298.7v-0.8c0-0.3-0.2-0.5-0.4-0.6l-1-0.6v1.6l1,0.6C151.8,299,152,298.9,152,298.7z"/>
							<path class="st23" d="M152,278.8v-0.8c0-0.3-0.2-0.5-0.4-0.6l-1-0.6v1.7l1,0.6C151.8,279.2,152,279.1,152,278.8z"/>
							<path class="st23" d="M152.8,258.4v-0.8c0-0.3-0.1-0.5-0.4-0.6l-1.8-1v1.6l1.8,1C152.6,258.8,152.8,258.7,152.8,258.4z"/>
							<path class="st23" d="M177.9,347.5v0.8c0,0.3,0.2,0.5,0.4,0.6l2.1,1.2v-1.6l-2.1-1.2C178.1,347.2,177.9,347.3,177.9,347.5z"
								/>
							<path class="st23" d="M177.9,367.3v0.8c0,0.3,0.2,0.5,0.4,0.6l2.1,1.2v-1.6l-2.1-1.2c-0.1-0.1-0.2-0.1-0.3,0
								C178,367.2,177.9,367.2,177.9,367.3z"/>
							<path class="st23" d="M168.9,355.8c-0.2-0.1-0.4,0-0.4,0.2v0.8c0,0.3,0.2,0.5,0.4,0.6l3.5,2c0.2,0.1,0.4,0,0.4-0.2v-0.8
								c0-0.3-0.1-0.5-0.4-0.6L168.9,355.8z"/>
							<path class="st23" d="M179.8,354.5c0-0.3-0.2-0.5-0.4-0.6l-3.5-2c-0.2-0.1-0.4,0-0.4,0.2v0.8c0,0.3,0.1,0.5,0.4,0.6l3.5,2
								c0.2,0.1,0.4,0,0.4-0.2V354.5z"/>
							<path class="st23" d="M166.9,248v0.8c0,0.2,0.1,0.4,0.3,0.5v-1.5C167,247.8,166.9,247.8,166.9,248z"/>
							<path class="st23" d="M160.2,291.5v-0.8c0-0.3-0.2-0.5-0.4-0.6l-3.5-2c-0.1-0.1-0.2-0.1-0.3,0c0,0.1-0.1,0.1-0.1,0.2v0.8
								c0,0.3,0.2,0.5,0.4,0.6l3.5,2c0.1,0.1,0.2,0.1,0.3,0C160.2,291.6,160.2,291.5,160.2,291.5z"/>
							<path class="st23" d="M160.2,286.8c0-0.3-0.2-0.5-0.4-0.6l-3.5-2c-0.2-0.1-0.4,0-0.4,0.2v0.8c0,0.3,0.2,0.5,0.4,0.6l3.5,2
								c0.2,0.1,0.4,0,0.4-0.2V286.8z"/>
							<path class="st23" d="M156.5,272.7c0-0.3-0.2-0.5-0.4-0.6l-3.5-2c-0.2-0.1-0.4,0-0.4,0.2v0.8c0,0.3,0.2,0.5,0.4,0.6l3.5,2
								c0.2,0.1,0.4,0,0.4-0.2V272.7z"/>
							<path class="st23" d="M158.6,272.8V272c0-0.3-0.2-0.5-0.4-0.7l-3.5-2c-0.2-0.1-0.4,0-0.4,0.2v0.8c0,0.3,0.1,0.5,0.4,0.6
								l3.5,2c0.1,0.1,0.2,0.1,0.3,0C158.6,272.9,158.7,272.8,158.6,272.8z"/>
							<path class="st23" d="M157,188.6c0-0.3-0.2-0.5-0.4-0.6l-3.5-2c-0.2-0.1-0.4,0-0.4,0.2v0.8c0,0.3,0.1,0.5,0.4,0.6l3.5,2
								c0.2,0.1,0.4,0,0.4-0.2V188.6z"/>
							<path class="st23" d="M159.2,188.7v-0.8c0-0.3-0.2-0.5-0.4-0.6l-3.4-2c-0.2-0.1-0.4,0-0.4,0.2v0.8c0,0.3,0.2,0.5,0.4,0.6
								l3.4,2C159,189,159.2,188.9,159.2,188.7z"/>
							<path class="st23" d="M167.2,265.6l-2.2-1.3c-0.2-0.1-0.4,0-0.4,0.2v0.8c0,0.3,0.1,0.5,0.4,0.6l2.2,1.3V265.6z"/>
							<path class="st23" d="M154.2,270.2v-0.8c0-0.3-0.2-0.5-0.4-0.6l-3.2-1.8v1.6l3.2,1.8C154,270.5,154.2,270.5,154.2,270.2z"/>
							<path class="st23" d="M158.7,267.8V267c0-0.3-0.2-0.5-0.4-0.6l-3.4-2c-0.2-0.1-0.4,0-0.4,0.2v0.8c0,0.3,0.2,0.5,0.4,0.6
								l3.4,2C158.6,268.2,158.7,268.1,158.7,267.8z"/>
							<path class="st23" d="M152,310.6v-0.8c0-0.3-0.2-0.5-0.4-0.6l-1-0.6v1.6l1,0.6C151.8,310.9,152,310.8,152,310.6z"/>
							<path class="st23" d="M154.2,313.8V313c0-0.3-0.2-0.5-0.4-0.6l-3.2-1.8v1.6l3.2,1.8C154,314.1,154.2,314,154.2,313.8z"/>
							<path class="st23" d="M163.5,191.8c-0.2-0.1-0.4,0-0.4,0.2v0.8c0,0.3,0.2,0.5,0.4,0.6l3.5,2c0.1,0,0.1,0,0.2,0v-1.4
								c0-0.1-0.1-0.1-0.2-0.2L163.5,191.8z"/>
							<path class="st23" d="M151.3,214.8c-0.2-0.1-0.4,0-0.4,0.2v0.8c0,0.3,0.2,0.5,0.4,0.7l3.5,2c0.2,0.1,0.4,0,0.4-0.2v-0.8
								c0-0.3-0.1-0.5-0.4-0.6L151.3,214.8z"/>
							<path class="st23" d="M143.2,366.1c0.2,0.1,0.4,0,0.4-0.2v-0.8c0-0.3-0.1-0.5-0.4-0.6l-3.5-2c-0.1-0.1-0.3,0-0.3,0.1
								c0,0,0,0.1,0,0.2v0.8c0,0.3,0.2,0.5,0.4,0.6L143.2,366.1z"/>
							<path class="st23" d="M145.5,369.4c0.2,0.1,0.4,0,0.4-0.2v-0.8c0-0.3-0.1-0.5-0.4-0.6l-3.5-1.9c-0.2-0.1-0.4,0-0.4,0.2v0.8
								c0,0.3,0.2,0.5,0.4,0.6L145.5,369.4z"/>
							<path class="st23" d="M154.8,368.7v-0.8c0-0.3-0.1-0.5-0.4-0.6l-3.5-2c-0.2-0.1-0.4,0-0.4,0.2v0.8c0,0.3,0.1,0.5,0.4,0.6
								l3.5,2C154.6,369,154.8,368.9,154.8,368.7z"/>
							<path class="st23" d="M170.5,359.9v-0.8c0-0.3-0.1-0.5-0.4-0.6l-3.5-2c-0.2-0.1-0.4,0-0.4,0.2v0.8c0,0.3,0.2,0.5,0.4,0.6
								l3.4,2C170.4,360.2,170.5,360.1,170.5,359.9z"/>
							<path class="st23" d="M141.4,347v-0.8c0-0.3-0.2-0.5-0.4-0.6l-2.9-1.7v1.6l2.9,1.7C141.2,347.3,141.4,347.2,141.4,347z"/>
							<path class="st23" d="M180.1,358.7v0.8c0,0.2,0.1,0.4,0.2,0.5v-1.5C180.2,358.4,180.1,358.5,180.1,358.7z"/>
							<path class="st23" d="M151,174.2c0.2,0.1,0.4,0,0.4-0.2v-0.8c0-0.3-0.2-0.5-0.4-0.6l-0.4-0.1v1.6L151,174.2z"/>
							<path class="st23" d="M179.5,371.4c0.2,0.1,0.4,0,0.4-0.2v-0.8c0-0.3-0.2-0.5-0.4-0.6l-3.5-2c-0.2-0.1-0.4,0-0.4,0.2v0.8
								c0,0.3,0.1,0.5,0.4,0.6L179.5,371.4z"/>
							<path class="st23" d="M158.9,371.4c0.2,0.1,0.4,0,0.4-0.2v-0.8c0-0.3-0.2-0.5-0.4-0.6l-3.4-2c-0.2-0.1-0.4,0-0.4,0.2v0.8
								c0,0.3,0.2,0.5,0.4,0.6L158.9,371.4z"/>
							<path class="st23" d="M165.5,179.5v0.8c0,0.3,0.2,0.5,0.4,0.6l1.3,0.8V180l-1.3-0.8C165.7,179.2,165.5,179.2,165.5,179.5z"/>
							<path class="st23" d="M157.1,368v-0.8c0-0.3-0.2-0.5-0.4-0.6l-3.4-2c-0.2-0.1-0.4,0-0.4,0.2v0.8c0,0.3,0.1,0.5,0.4,0.6l3.5,2
								c0.1,0.1,0.2,0.1,0.3,0C157.1,368.1,157.1,368.1,157.1,368z"/>
							<path class="st23" d="M180.4,376.2l-2.1-1.2c-0.2-0.1-0.4,0-0.4,0.2v0.8c0,0.3,0.2,0.5,0.4,0.6l2.1,1.2V376.2z"/>
							<path class="st23" d="M172.7,379v-0.8c0-0.3-0.1-0.5-0.4-0.6l-3.5-2c-0.2-0.1-0.4,0-0.4,0.2v0.8c0,0.3,0.2,0.5,0.4,0.6l3.5,2
								C172.6,379.3,172.7,379.3,172.7,379z"/>
							<path class="st23" d="M139.1,347.6v-0.8c0-0.3-0.1-0.5-0.4-0.6l-0.6-0.3v1.6l0.6,0.3C138.9,348,139.1,347.9,139.1,347.6z"/>
							<path class="st23" d="M161.2,378.7c0.2,0.1,0.4,0,0.4-0.2v-0.8c0-0.3-0.1-0.5-0.4-0.6l-3.5-2c-0.2-0.1-0.4,0-0.4,0.2v0.8
								c0,0.3,0.1,0.5,0.4,0.6L161.2,378.7z"/>
							<path class="st23" d="M141.4,366.6v-0.8c0-0.3-0.2-0.5-0.4-0.6l-2.9-1.7v1.6l2.9,1.7C141.2,366.9,141.4,366.8,141.4,366.6z"
								/>
							<path class="st23" d="M180.4,386.1c-0.1,0-0.2,0.1-0.2,0.3v0.8c0,0.2,0.1,0.4,0.2,0.5V386.1z"/>
							<path class="st23" d="M163.2,196.7c0,0.3,0.2,0.5,0.4,0.6l3.5,2h0.2V198c0-0.1-0.1-0.1-0.2-0.2l-3.5-2
								c-0.1-0.1-0.2-0.1-0.3,0c0,0.1-0.1,0.1-0.1,0.2V196.7z"/>
							<path class="st23" d="M163.8,361.9v-0.8c0-0.3-0.2-0.5-0.4-0.6l-3.4-2c-0.2-0.1-0.4,0-0.4,0.2v0.8c0,0.3,0.2,0.5,0.4,0.6
								l3.4,2C163.6,362.3,163.8,362.2,163.8,361.9z"/>
							<path class="st23" d="M170.2,379.9c0.2,0.1,0.4,0,0.4-0.2V379c0-0.3-0.2-0.5-0.4-0.7l-3.5-2c-0.2-0.1-0.4,0-0.4,0.2v0.8
								c0,0.3,0.1,0.5,0.4,0.6L170.2,379.9z"/>
							<path class="st23" d="M167.9,376.6c0.2,0.1,0.4,0,0.4-0.2v-0.8c0-0.3-0.2-0.5-0.4-0.6l-3.4-2c-0.2-0.1-0.4,0-0.4,0.2v0.8
								c0,0.3,0.2,0.5,0.4,0.6L167.9,376.6z"/>
							<path class="st23" d="M166.1,349.4v-0.8c0-0.3-0.2-0.5-0.4-0.6l-3.4-2c-0.2-0.1-0.4,0-0.4,0.2v0.8c0,0.3,0.2,0.5,0.4,0.6
								l3.4,2C165.9,349.7,166.1,349.6,166.1,349.4z"/>
							<path class="st23" d="M143.6,334.4v-0.8c0-0.3-0.1-0.5-0.4-0.6l-3.5-2c-0.2-0.1-0.4,0-0.4,0.2v0.8c0,0.3,0.2,0.5,0.4,0.6
								l3.5,2C143.4,334.7,143.6,334.6,143.6,334.4z"/>
							<path class="st23" d="M139.1,339.7V339c0-0.3-0.1-0.5-0.4-0.7l-0.6-0.3v1.6l0.6,0.3C138.9,340,139.1,339.9,139.1,339.7z"/>
							<path class="st23" d="M141.4,335.1v-0.8c0-0.3-0.2-0.5-0.4-0.6l-2.9-1.7v1.6l2.9,1.7C141.2,335.4,141.4,335.3,141.4,335.1z"
								/>
							<path class="st23" d="M156.7,356.3c0.2,0.1,0.4,0,0.4-0.2v-0.8c0-0.3-0.2-0.5-0.4-0.6l-3.4-2c-0.2-0.1-0.4,0-0.4,0.2v0.8
								c0,0.3,0.1,0.5,0.4,0.6L156.7,356.3z"/>
							<path class="st23" d="M154.8,348.8v-0.8c0-0.3-0.2-0.5-0.4-0.6l-3.5-2c-0.2-0.1-0.4,0-0.4,0.2v0.8c0,0.3,0.1,0.5,0.4,0.6
								l3.5,2C154.6,349.2,154.8,349.1,154.8,348.8z"/>
							<path class="st23" d="M164,370c0,0.3,0.2,0.5,0.4,0.6l3.4,2c0.2,0.1,0.4,0,0.4-0.2v-0.8c0-0.3-0.2-0.5-0.4-0.6l-3.4-2
								c-0.2-0.1-0.4,0-0.4,0.2V370z"/>
							<path class="st23" d="M155.7,179.3c-0.2-0.1-0.4,0-0.4,0.2v0.8c0,0.3,0.1,0.5,0.4,0.6l3.5,2c0.2,0.1,0.4,0,0.4-0.2v-0.8
								c0-0.3-0.2-0.5-0.4-0.6L155.7,179.3z"/>
							<path class="st23" d="M153.1,214.3v0.8c0,0.3,0.2,0.5,0.4,0.6l3.5,2c0.2,0.1,0.4,0,0.4-0.2v-0.8c0-0.3-0.1-0.5-0.4-0.6
								l-3.5-1.9C153.3,213.9,153.1,214.1,153.1,214.3z"/>
							<path class="st23" d="M150.6,209.1l2.7,1.5c0.2,0.1,0.4,0,0.4-0.2v-0.8c0-0.3-0.2-0.5-0.4-0.6l-2.7-1.5V209.1z"/>
							<path class="st23" d="M150.6,201.5v1.6l0.3,0.2c0.2,0.1,0.4,0,0.4-0.2v-0.8c0-0.3-0.2-0.5-0.4-0.6L150.6,201.5z"/>
							<path class="st23" d="M146.1,358.2c0.2,0.1,0.4,0,0.4-0.2v-0.8c0-0.3-0.2-0.5-0.4-0.6l-3.5-2c-0.2-0.1-0.4,0-0.4,0.2v0.8
								c0,0.3,0.2,0.5,0.4,0.6L146.1,358.2z"/>
							<path class="st23" d="M159.3,355.4v-0.8c0-0.3-0.2-0.5-0.4-0.6l-3.4-2c-0.2-0.1-0.4,0-0.4,0.2v0.8c0,0.3,0.1,0.5,0.4,0.6
								l3.4,2C159.1,355.7,159.3,355.6,159.3,355.4z"/>
							<path class="st23" d="M167.9,341c0.2,0.1,0.4,0,0.4-0.2V340c0-0.3-0.1-0.5-0.4-0.6l-3.4-2c-0.2-0.1-0.4,0-0.4,0.2v0.8
								c0,0.3,0.2,0.5,0.4,0.6L167.9,341z"/>
							<path class="st23" d="M167.2,320.2l-0.8-0.5c-0.2-0.1-0.4,0-0.4,0.2v0.8c0,0.3,0.2,0.5,0.4,0.6l0.8,0.5V320.2z"/>
							<path class="st23" d="M164,353.4v0.8c0,0.3,0.2,0.5,0.4,0.6l3.4,2c0.2,0.1,0.4,0,0.4-0.2v-0.8c0-0.3-0.2-0.5-0.4-0.6l-3.4-2
								C164.2,353.1,164,353.2,164,353.4z"/>
							<path class="st23" d="M166.4,336.9v0.7c0,0.3,0.2,0.5,0.4,0.6l3.4,2c0.2,0.1,0.4,0,0.4-0.2v-0.6l-0.5-0.8l-3.4-1.9
								C166.5,336.6,166.4,336.7,166.4,336.9z"/>
							<path class="st23" d="M161.6,346.8v-0.8c0-0.3-0.2-0.5-0.4-0.6l-3.5-2c-0.2-0.1-0.4,0-0.4,0.2v0.7c0,0.3,0.1,0.5,0.4,0.6
								l3.5,2C161.4,347.1,161.6,347,161.6,346.8z"/>
							<path class="st23" d="M161.6,342.1c0-0.3-0.2-0.5-0.4-0.6l-3.5-2c-0.2-0.1-0.4,0-0.4,0.2v0.8c0,0.3,0.1,0.5,0.4,0.6l3.5,1.9
								c0.2,0.1,0.4,0,0.4-0.2V342.1z"/>
							<path class="st23" d="M161.6,330.2c0-0.3-0.2-0.5-0.4-0.6l-3.5-2c-0.2-0.1-0.4,0-0.4,0.2v0.8c0,0.3,0.1,0.5,0.4,0.6l3.5,2
								c0.2,0.1,0.4,0,0.4-0.2V330.2z"/>
							<path class="st23" d="M163.8,330.2v-0.8c0-0.3-0.2-0.5-0.4-0.6l-3.4-1.9c-0.2-0.1-0.4,0-0.4,0.2v0.8c0,0.3,0.2,0.5,0.4,0.6
								l3.4,2C163.6,330.6,163.8,330.5,163.8,330.2z"/>
						</g>
						<polygon class="st0" points="167.2,329.7 174.4,325.6 174.4,175.5 167.2,179.7 						"/>
						<polygon class="st19" points="167.2,329.7 174.4,325.6 174.4,175.5 167.2,179.7 						"/>
						<polygon class="st15" points="176.7,175.5 157.9,164.6 148.3,170.1 148.3,173.1 167.2,184 176.7,178.5 						"/>
						<polygon class="st7" points="148.3,170.1 167.2,181 167.2,184 148.3,173.1 						"/>
						<polygon class="st12" points="153,170.1 157.9,167.3 172,175.5 167.2,178.3 						"/>
						<polygon class="st7" points="157.9,167.3 157.9,172.9 153,170.1 						"/>
						<polygon class="st12" points="167.2,181 176.7,175.5 176.6,178.4 167.2,184 						"/>
					</g>
				</g>
				<polygon class="st24" points="348.4,375 306.1,399.4 309.2,401.2 351.5,376.8 				"/>
			</g>
			<g id="freepik--Fence--inject-2">
				<g id="freepik--fence--inject-2">
					<polygon class="st15" points="182,424.2 182,388.9 179.4,383.5 176.7,385.8 176.7,421.2 					"/>
					<polygon class="st7" points="182,388.9 183.4,388.1 183.4,423.5 182,424.2 					"/>
					<polygon class="st12" points="179.4,383.5 180.7,382.7 183.4,388.1 182,388.9 					"/>
					<polygon class="st15" points="162.4,413 162.4,377.6 159.8,372.2 157.1,374.6 157.1,409.9 					"/>
					<polygon class="st7" points="162.4,377.6 163.8,376.8 163.8,412.2 162.4,413 					"/>
					<polygon class="st12" points="159.8,372.2 161.1,371.4 163.8,376.8 162.4,377.6 					"/>
					<polygon class="st15" points="142.9,401.7 142.9,366.3 140.2,360.9 137.6,363.3 137.6,398.7 					"/>
					<polygon class="st7" points="142.9,366.3 144.2,365.6 144.2,401 142.9,401.7 					"/>
					<polygon class="st12" points="140.2,360.9 141.6,360.1 144.2,365.6 142.9,366.3 					"/>
					<polygon class="st15" points="123.3,390.5 123.3,355.1 120.6,349.7 118,352 118,387.4 					"/>
					<polygon class="st7" points="123.3,355.1 124.6,354.3 124.6,389.7 123.3,390.5 					"/>
					<polygon class="st12" points="120.6,349.7 122,348.9 124.6,354.3 123.3,355.1 					"/>
					<polygon class="st15" points="103.7,379.2 103.7,343.8 101.1,338.4 98.4,340.8 98.4,376.2 					"/>
					<polygon class="st7" points="103.7,343.8 105,343.1 105,378.4 103.7,379.2 					"/>
					<polygon class="st12" points="101.1,338.4 102.4,337.6 105,343.1 103.7,343.8 					"/>
					<polygon class="st7" points="98.4,355 103.7,358 103.7,356 98.4,352.9 					"/>
					<polygon class="st7" points="123.3,367.2 118,364.2 118,366.2 123.3,369.3 					"/>
					<polygon class="st7" points="162.4,389.7 157.1,386.7 157.1,388.7 162.4,391.8 					"/>
					<polygon class="st7" points="142.9,378.5 137.6,375.4 137.6,377.5 142.9,380.5 					"/>
					<polygon class="st7" points="182,401 176.7,397.9 176.7,400 182,403 					"/>
					<polygon class="st7" points="98.4,368.4 103.7,371.5 103.7,369.4 98.4,366.3 					"/>
					<polygon class="st7" points="123.3,380.6 118,377.6 118,379.7 123.3,382.7 					"/>
					<polygon class="st7" points="162.4,403.1 157.1,400.1 157.1,402.2 162.4,405.2 					"/>
					<polygon class="st7" points="142.9,391.9 137.6,388.9 137.6,390.9 142.9,394 					"/>
					<polygon class="st7" points="182,414.4 176.7,411.3 176.7,413.4 182,416.5 					"/>
					<polygon class="st15" points="188,416.4 92.8,361.7 92.8,363.7 188,418.5 					"/>
					<polygon class="st7" points="188,416.4 189.4,415.6 189.4,417.7 188,418.5 					"/>
					<polygon class="st12" points="92.8,361.7 188,416.4 189.4,415.6 94.1,360.9 					"/>
					<polygon class="st15" points="188,403 92.8,348.3 92.8,350.4 188,405.1 					"/>
					<polygon class="st7" points="188,403 189.4,402.3 189.4,404.3 188,405.1 					"/>
					<polygon class="st12" points="92.8,348.3 188,403 189.4,402.3 94.1,347.5 					"/>
				</g>
			</g>
		</g>
	</g>
	<path class="st6" d="M336.5,418.3l47.6-27.5c1.6-0.8,3.6-0.8,5.2,0l27.3,15.8c1.4,0.8,1.4,2.2,0,3L369,437c-1.6,0.8-3.6,0.8-5.2,0
		l-27.3-15.8C335.1,420.4,335.1,419.1,336.5,418.3z"/>
	<g id="freepik--Shield--inject-10">
		<g id="freepik--shield--inject-10">
			<path class="st25" d="M424.1,259.9L424.1,259.9L424.1,259.9l-9.5-5.4c-0.5-0.2-1.3,0-2.3,0.7c-8.8,6.7-20.6,8.8-30.2,5.7
				c-0.6-0.6-1.2-1.2-1.8-1.8l-0.2-0.2l0,0c-0.3-0.3-0.6-0.6-1-0.8L379,258l-9.5-5.4c-1.1-0.5-2.1,0-2.7,1.6
				c-9.1,22.7-28.6,45.7-41.6,51.4c-1,0.4-1.9,1.1-2.6,1.9c-0.9,1-1.4,2.3-1.4,3.7l1.9,51c0,14.7,6.2,30.3,18.9,37.8l9.8,5.6
				l0.2,0.1c5.3,3,11.3,4.5,17.3,4.4c1.4,0,2.7-0.1,4.2-0.2c2.8-0.5,5.4-1.7,7.4-3.7c28.4-29.3,42.2-68.9,42.2-90.9l1.8-53.4
				C424.9,260.9,424.6,260.1,424.1,259.9z"/>
			<path class="st25" d="M424.8,262l-1.9,53.3c0,21.9-13.8,61.6-42.2,90.9c-2,2-4.6,3.2-7.4,3.7c-1.4,0.1-2.8,0.2-4.2,0.2
				c-6.1,0.1-12-1.4-17.3-4.4l-0.2-0.1l-0.3-0.2c-12.7-7.6-18.9-23.1-18.9-37.8l-1.8-51c0-1.4,0.5-2.7,1.4-3.7
				c0.7-0.8,1.6-1.5,2.6-1.9c13-5.8,32.4-28.8,41.6-51.4c0.7-1.6,1.6-2.1,2.7-1.6l0,0l0.2,0.1c0.4,0.2,0.7,0.5,1,0.8l0,0l0.2,0.2
				c9.7,11.3,28.8,11.3,41.5,1.5c1-0.7,1.8-1,2.3-0.7h0.1l0,0C424.6,260.1,424.9,260.9,424.8,262z"/>
			<path class="st26" d="M424.1,259.8c-0.5-0.2-1.3,0-2.3,0.7c-12,9.2-29.6,9.7-39.7,0.3c9.7,3.1,21.5,1,30.2-5.7
				c1-0.7,1.8-1,2.3-0.7L424.1,259.8z"/>
			<path class="st26" d="M379,257.9c-1.1-0.5-2.1,0-2.7,1.6c-9.1,22.7-28.6,45.7-41.6,51.4c-1,0.4-1.9,1.1-2.6,1.9
				c-0.2,0.3-0.5,0.6-0.7,0.9l-9.4-5.5c0.2-0.3,0.4-0.6,0.6-0.9c0.1-0.2,0.3-0.3,0.4-0.4l0,0l0.2-0.2l0.2-0.2
				c0.5-0.5,1.1-0.9,1.8-1.2c13-5.8,32.4-28.8,41.6-51.4c0.7-1.6,1.6-2.1,2.7-1.6L379,257.9z"/>
			<path class="st25" d="M323.1,307c0-0.1,0.1-0.1,0.2-0.2L323.1,307C323.1,307,323.1,307,323.1,307z"/>
			<path class="st27" d="M323.2,306.8l-0.2,0.2l0,0C323.1,306.9,323.2,306.8,323.2,306.8z"/>
			<path class="st27" d="M351.9,405.7l-0.2-0.1l-9.8-5.7c-12.7-7.6-18.9-23.1-18.9-37.8l-1.9-51c0-1,0.3-2,0.8-2.8l9.4,5.5
				c-0.5,0.8-0.8,1.8-0.8,2.8l1.9,51c0,14.7,6.2,30.2,18.9,37.8l0.3,0.2L351.9,405.7z"/>
			<path class="st12" d="M385.3,358.8l-15.1,8.7l2.3-27.3c-1.8-1-3-3.3-3-6.7c0-6,3.7-13,8.1-15.6c4.5-2.6,8.1,0.2,8.1,6.2
				c-0.1,3.6-1.1,7-3,10.1L385.3,358.8z"/>
			<polygon class="st15" points="385.3,358.8 371.6,350.9 370.2,367.5 			"/>
			<path class="st15" d="M377.8,317.9c-3,1.7-5.5,5.3-7,9.2l12.2,7l0,0c1.8-3.1,2.9-6.5,3-10.1C385.9,318.1,382.3,315.3,377.8,317.9
				z"/>
		</g>
	</g>
	<g id="freepik--Key--inject-10">
		<g id="freepik--key--inject-10">
			<path class="st25" d="M293,424.5v1.3c0,1.5,1,3.1,3,4.3c3.1,1.8,7.6,2.2,11.3,1.3l3.5,2l2.7-0.6l1.8,1.1l0.1,2.2l1,0.6l2.5,0.2
				l1.8,1v1.3l2.2,1.3h5.7l2-1.2v-1.3l-18.2-9.2c0.8-0.8,1.2-1.8,1.3-2.9v-1.3c-0.3-1.3-1.3-1.9-3-2.9c-4.1-2.3-10.6-2.3-14.7,0
				C294.2,422.6,293.2,423.1,293,424.5z M298.6,423c1.3-0.7,2.9-0.7,4.2,0c1.2,0.7,1.2,1.7,0,2.4c-1.3,0.7-2.9,0.7-4.2,0
				C297.5,424.7,297.5,423.6,298.6,423z"/>
			<path class="st9" d="M293,424.5v1.3c0,1.5,1,3.1,3,4.3c3.1,1.8,7.6,2.2,11.3,1.3l3.5,2l2.7-0.6l1.8,1.1l0.1,2.2l1,0.6l2.5,0.2
				l1.8,1v1.3l2.2,1.3h5.7l2-1.2v-1.3l-18.2-9.2c0.8-0.8,1.2-1.8,1.3-2.9v-1.3c-0.3-1.3-1.3-1.9-3-2.9c-4.1-2.3-10.6-2.3-14.7,0
				C294.2,422.6,293.2,423.1,293,424.5z M298.6,423c1.3-0.7,2.9-0.7,4.2,0c1.2,0.7,1.2,1.7,0,2.4c-1.3,0.7-2.9,0.7-4.2,0
				C297.5,424.7,297.5,423.6,298.6,423z"/>
			<path class="st25" d="M296.1,428.7c3.1,1.8,7.6,2.2,11.3,1.3l3.5,2l2.7-0.6l1.8,1.1l0.1,2.2l1,0.6l2.5,0.2l1.9,1.1l-0.2,1.2
				l2.2,1.3h5.7l2-1.2l-18.2-10.5c2.1-2.3,1.6-5.2-1.8-7.1c-4.1-2.3-10.6-2.3-14.7,0S292,426.4,296.1,428.7z M298.6,421.6
				c1.3-0.7,2.9-0.7,4.2,0c1.2,0.7,1.2,1.7,0,2.4c-1.3,0.7-2.9,0.7-4.2,0C297.5,423.4,297.5,422.3,298.6,421.6L298.6,421.6z"/>
			<path class="st10" d="M303.4,429.3c-2.6,0-5-0.6-6.8-1.6c-1.6-0.9-2.5-2.1-2.5-3.2s0.9-2.3,2.5-3.3c1.8-1,4.2-1.6,6.8-1.6
				c2.6,0,5,0.6,6.8,1.6c1.6,0.9,2.5,2.1,2.5,3.3c0,1.2-0.9,2.3-2.5,3.2C308.4,428.8,306,429.3,303.4,429.3z M303.4,420.1
				c-2.5,0-4.8,0.5-6.6,1.5c-1.4,0.8-2.2,1.9-2.2,2.9s0.8,2,2.2,2.8c1.7,1,4.1,1.5,6.6,1.5s4.8-0.6,6.6-1.5c1.4-0.8,2.2-1.9,2.2-2.8
				s-0.8-2-2.2-2.9C308.2,420.6,305.9,420.1,303.4,420.1z"/>
			<path class="st9" d="M299.7,430.1v1.3c2.6,0.6,5.2,0.5,7.7-0.1v-1.3C304.9,430.6,302.2,430.6,299.7,430.1z"/>
			<polygon class="st9" points="310.9,432.1 310.9,433.4 313.6,432.8 313.6,431.5 			"/>
			<polygon class="st9" points="315.4,432.5 315.4,433.8 315.5,436.1 315.5,434.7 			"/>
			<polygon class="st9" points="316.5,435.3 316.5,436.6 319,436.9 319,435.5 			"/>
			<rect x="323.1" y="439.1" class="st9" width="5.7" height="1.3"/>
			<polygon class="st27" points="330.8,437.9 330.8,439.2 328.8,440.4 328.8,439.1 329.6,438.6 329.6,439.1 330.1,438.8 
				330.1,438.3 			"/>
			<polygon class="st25" points="330.1,438.3 329.6,438.6 329.6,439.1 330.1,438.8 			"/>
			<polygon class="st27" points="330.1,438.3 330.1,438.8 311.4,428 311.9,427.7 			"/>
			<polygon class="st27" points="311.9,427.7 311.9,428.3 311.4,428 			"/>
		</g>
	</g>
	<g>
		<path class="st28" d="M412.6,384.2c0.3-9.4-0.5-11.7-3-13.4l-1,5.5c0,0,1.1,6.4,1,8.6c-0.1,1.9-0.3,4.2-0.7,5.8
			c-0.1,0.3-0.3,0.5-0.5,0.6c-0.5,0.4-1,0.8-1.4,1.3c-0.4,0.4-0.7,0.5-0.6,0.6c0.2,0.3,0.5,0.4,0.8,0.3c0.3-0.1,0.6-0.3,0.9-0.5
			c-0.2,0.6-0.5,1.1-0.9,1.6c-0.9,1.1-0.9,1.8,0.9,1.8c1.1,0,2-0.7,2.9-3.2c0.3-0.9,0.6-1.9,0.8-2.8
			C412.1,387.9,412.5,385.7,412.6,384.2z"/>
		<path class="st25" d="M407.4,370.1c1.6-0.3,3.2,0.5,3.9,2c1.1,1.9,1.3,5.1,1.4,8.3c0,0-2.1,1.7-4.6,0.9L407.4,370.1z"/>
		<path class="st29" d="M407.4,370.1c1.6-0.3,3.2,0.5,3.9,2c1.1,1.9,1.3,5.1,1.4,8.3c0,0-2.1,1.7-4.6,0.9L407.4,370.1z"/>
		<path class="st7" d="M411,421.9c0.2,0.1,0.2,0.4,0.3,1.2c0,0.5,0.1,1.5-0.5,1.7c-0.6,0.2-1.6,0.1-2-0.4c-0.5-0.7-1-1.4-1.6-2
			c-0.6-0.7-1.3-1.3-1.6-2.3c-0.2-0.9,0-1.2,0.5-1.5c0.8-0.4,2.1,0.8,2.7,1C409.4,419.7,410.8,421.8,411,421.9z"/>
		<path class="st28" d="M411,421.2v0.9c-0.7,0.4-1.5,0.5-2.2,0.1c0-0.1-0.2-1.3-0.2-1.3L411,421.2z"/>
		<path class="st7" d="M403.8,427c0.2,0.5,0.3,1,0.4,1.4c0.1,0.5,0.3,1.4,0.1,1.8s-0.9,0.7-2.1,0.7c-0.7,0-1.9,0.5-2.7,0.9
			c-0.8,0.4-2.5,0.6-3.3,0.5c-1-0.1-2-0.7-2.2-1.1c-0.2-0.4,0.1-0.9,2.4-1.9c0,0,3.3-1.1,4.4-2.3L403.8,427z"/>
		<path class="st28" d="M403.8,426v1c0,0.4-0.4,0.9-1.6,0.9c-0.8,0-1.4-0.2-1.3-0.9v-1L403.8,426z"/>
		<path class="st15" d="M411.5,409.5c-0.2-1.6-0.5-3.1-1-4.6c0,0,0.3-4,0.5-7.7c0.2-4.1,0-9.2,0.1-10.2c0,0-13.1-2.7-13.4,2
			c-0.2,4.7,0.5,16.7,0.7,18.7c0.2,2.1,0.5,3.9,0.9,7.2c0.4,3.3,1.6,11.1,1.6,11.1c0.9,0.5,2,0.4,2.9-0.1c0,0,0.9-9.4,0.8-11.8
			c-0.1-1.8-0.4-3.5-0.9-5.2c0,0,0.2-3.9,0.5-7.2c0.2-3.4,0.5-5,0.5-6.5l0.3-0.1c0,0,0.3,5.8,0.4,7.9c0.2,2.1,0.5,4,1.1,7.9
			c0.5,3.3,2.1,10.4,2.1,10.4c1.5,0.8,2.4-0.1,2.4-0.1S411.9,412.4,411.5,409.5z"/>
		<path class="st7" d="M404.7,395.3c0,0,3.2-1.6,4.8-3c0,0-1.5,2.1-3.4,3c0,0-0.7,7.2-0.7,7.1l-0.4-7.1L404.7,395.3z"/>
		<polygon class="st28" points="401.9,368.6 402.6,372.9 406.5,372.6 405.7,367.7 		"/>
		<path class="st25" d="M410.6,372.3c-0.4-1.2-1.9-2.4-3.3-2.2c-2.2,0.4-4.3,0.9-6.5,1.6c-1.3,0.5-2.6,1.6-2.7,6.1
			c0,0-0.5,10.4-0.5,12.4c2.8,1.1,5.9,1.4,8.9,0.9c4.1-0.9,4.6-2.6,4.6-2.6s0.1-7.5-0.1-10.7C410.9,375.1,410.9,373.1,410.6,372.3z"
			/>
		<g>
			<path class="st30" d="M410.6,372.3c-0.4-1.2-1.9-2.4-3.3-2.2c-2.2,0.4-4.3,0.9-6.5,1.6c-1.3,0.5-2.6,1.6-2.7,6.1
				c0,0-0.5,10.4-0.5,12.4c2.8,1.1,5.9,1.4,8.9,0.9c4.1-0.9,4.6-2.6,4.6-2.6s0.1-7.5-0.1-10.7C410.9,375.1,410.9,373.1,410.6,372.3z
				"/>
		</g>
		<path class="st31" d="M398.9,363.4c0,0-1,1.6-0.9,1.7c0.1,0.1,0.9,0.3,0.9,0.3L398.9,363.4z"/>
		<path class="st28" d="M401.6,359.1c-2,0.5-2.6,1.4-2.7,4.7c-0.1,3.4,0.2,4.5,0.7,4.9c0.3,0.3,2,0.3,2.8,0.1c1.1-0.3,3.4-1.2,4.5-3
			c1.3-2,1.6-4.8,0.1-5.9C405,358.3,402.4,358.9,401.6,359.1z"/>
		<path class="st7" d="M398.9,359.9c0.5,0.7,1.1,1.2,1.9,1.5c0.4,0.4,0.2,2.2,0.9,2.5c0,0,0.3-1.3,1.4-1.1c1.1,0.1,1.2,1.5,0.6,2.3
			c-0.7,0.8-1.3,0.5-1.3,0.5s0.1,1.8,0.9,2.8c0,0,0.9,0.3,2.6-0.1c1-0.2,2.4-1.6,3-2.9c1.2-2.9,1.3-5.5-0.6-6.2
			c-0.2-1.3-1.3-1.9-2.5-2.1c-2.6-0.5-4.2,1.1-6.2,0.9C398.4,357.9,398.2,358.7,398.9,359.9z"/>
		<path class="st7" d="M408.3,359.6l1.2-0.7c-0.1-0.4-0.6-0.6-0.9-0.4c-0.4,0.1-0.6,0.6-0.4,0.9
			C408.2,359.5,408.2,359.5,408.3,359.6z"/>
		<path class="st28" d="M397.5,391.8c0.2,1,0.5,1.9,0.8,2.8c0.9,2.5,1.8,3.2,2.9,3.2c1.8,0,1.8-0.7,0.9-1.8c-0.4-0.5-0.7-1-0.9-1.6
			c0.3,0.2,0.6,0.4,0.9,0.5c0.3,0.1,0.6,0,0.8-0.3c0-0.1-0.3-0.2-0.6-0.6c-0.4-0.5-0.9-0.9-1.4-1.3c-0.2-0.1-0.4-0.4-0.5-0.6
			c-0.4-1.5-0.6-3.9-0.7-5.8c-0.1-2.1,1-8.6,1-8.6l-1-5.5c-2.5,1.7-3.3,4-3,13.4C396.7,387.2,397.1,389.4,397.5,391.8z"/>
		<path class="st30" d="M400.6,383c-2.5,0.9-4.6-0.9-4.6-0.9c0.1-3.2,0.4-6.4,1.4-8.3c0.7-1.4,2.3-2.2,3.9-2L400.6,383z"/>
	</g>
</g>
<g id="freepik--speech-bubble--inject-4_00000024695565744927840500000002032140824951800724_">
	<g id="freepik--speech-bubble--inject-4_00000183209222195565085640000015251585387888411807_">
		<g id="freepik--speech-bubble--inject-4_00000063592503745320234990000000009295436173771412_">
			<path class="st7" d="M407.2,353.5l1.3-2.5l-1.1-3.1V346l3.3,1.9v1.9l-1.4,2.5c0,0.1-0.1,0.1-0.1,0.1l0,0L407.2,353.5z"/>
			<path class="st15" d="M398.2,330.2c0.1-0.7,0.4-1.3,1-1.7l0.8-0.5c0.6-0.3,1.3-0.3,2,0l15.6,9c0.6,0.4,1,1,1,1.7v13.6
				c-0.1,0.7-0.4,1.3-1,1.7l-0.8,0.5c-0.6,0.3-1.3,0.3-2,0l-6.1-3.5l-1.4,2.5c-0.1,0.1-0.2,0.1-0.3,0.1c-0.1,0-0.1-0.1-0.1-0.1
				l-1.5-4.3l-6.2-3.6c-0.6-0.4-1-1-1-1.7V330.2L398.2,330.2z"/>
			<path class="st7" d="M418.6,352.3c-0.1,0.7-0.4,1.3-1,1.7l-0.8,0.5c-0.5,0.3-1.2,0.3-1.8,0.1c0.5,0.2,0.8-0.1,0.8-0.7v-13.6
				c0-0.4-0.1-0.7-0.3-1l2.8-1.6c0.2,0.3,0.3,0.6,0.3,1V352.3L418.6,352.3z"/>
			<path class="st12" d="M398.2,329.9c0.1-0.4,0.5-0.5,1-0.3l15.6,9c0.3,0.2,0.5,0.4,0.7,0.7l2.8-1.6c-0.2-0.3-0.4-0.5-0.7-0.7
				l-15.6-9c-0.6-0.3-1.4-0.3-2,0l-0.8,0.5C398.7,328.8,398.3,329.3,398.2,329.9z"/>
		</g>
		<path class="st32" d="M413.1,340.9l-11.4-6.6c-0.2-0.1-0.4,0-0.4,0.2v7.9c0,0.3,0.2,0.5,0.4,0.7l11.4,6.6c0.2,0.1,0.4,0,0.4-0.2
			v-7.9C413.4,341.3,413.3,341.1,413.1,340.9z"/>
		<path class="st12" d="M411.9,348.4c-0.1,0-0.1,0-0.1,0l-9.3-5.4c-0.1-0.1-0.1-0.1-0.1-0.2c0-0.4-0.2-0.7-0.5-0.8
			c-0.1-0.1-0.1-0.1-0.1-0.2v-5.4c0-0.1,0.1-0.1,0.1-0.2c0.1-0.1,0.1-0.1,0.2,0c0.2,0.1,0.4,0.1,0.5-0.1c0.1-0.1,0.1-0.1,0.1-0.2
			s0.1-0.1,0.1-0.2c0.1-0.1,0.1-0.1,0.2,0l9.3,5.4c0.1,0.1,0.1,0.1,0.1,0.2c0,0.4,0.2,0.7,0.5,0.8c0.1,0.1,0.1,0.1,0.1,0.2v5.4
			c0,0.1-0.1,0.2-0.2,0.2s-0.1,0-0.1,0c-0.2-0.1-0.4-0.1-0.5,0.1c-0.1,0.1-0.1,0.1-0.1,0.2s-0.1,0.1-0.1,0.2
			C411.9,348.3,411.9,348.4,411.9,348.4z M402.8,342.6l9,5.2c0.1-0.2,0.2-0.3,0.3-0.4c0.1-0.1,0.3-0.1,0.5-0.1v-5.1
			c-0.3-0.2-0.5-0.6-0.5-1l-9-5.2c-0.1,0.3-0.5,0.5-0.8,0.5v5.1C402.5,341.9,402.7,342.3,402.8,342.6z"/>
		<path class="st12" d="M408.1,344.4c-0.3,0-0.6-0.1-0.8-0.2c-1-0.7-1.7-1.8-1.8-3.1c0-0.6,0.2-1,0.6-1.3c0.4-0.2,0.8-0.2,1.4,0.1
			c1,0.7,1.7,1.8,1.8,3.1c0,0.6-0.2,1-0.6,1.3C408.5,344.3,408.3,344.4,408.1,344.4z M406.6,340c-0.1,0-0.2,0-0.4,0.1
			c-0.2,0.1-0.4,0.5-0.4,0.9c0.1,1.1,0.7,2.1,1.6,2.8c0.4,0.2,0.7,0.2,1,0.1c0.2-0.1,0.4-0.5,0.4-0.9c-0.1-1.1-0.7-2.2-1.6-2.8
			C407,340.1,406.9,340,406.6,340L406.6,340z"/>
	</g>
</g>
<g>
	<g id="freepik--Shadows--inject-4_00000145740171278712773220000016870836402916190877_">
		<path id="freepik--shadow--inject-4_00000109005807237075719090000005015460545947252903_" class="st14" d="M396.7,467.4
			c-0.7,0-1.3-0.2-1.8-0.7l-25.7-26.9c-1.1-1.1-1.7-2.6-1.7-4.2c0-0.3,0-0.5,0.1-0.8c0.3-1.8,1.4-3.4,3-4.3l0.8-0.4
			c2.6-1.4,5.7-1.4,8.4,0l36,20.8l1.9,1.1c0.7,0.3,1,1.1,0.7,1.9c-0.1,0.3-0.4,0.6-0.7,0.7l-2.3,1.3c-0.5,0.3-1.1,0.4-1.8,0.4l0,0
			c-0.4,0-0.8-0.1-1.2-0.2L381.6,444l18.5,19.4c0.7,0.7,0.7,1.8,0.1,2.4c-0.1,0.1-0.3,0.2-0.4,0.4l-1.8,1
			C397.5,467.2,397,467.4,396.7,467.4z"/>
	</g>
	<g id="freepik--Wallet--inject-4_00000112611478038978314780000001620697411876399497_">
		<g id="freepik--wallet--inject-4_00000158731370460318269820000000673724709182973842_">
			<path class="st7" d="M413.5,453.7c0.2-0.2,0.4-0.4,0.3-0.7v-31c0-0.4-0.1-0.8-0.3-1.1l1.9-1.1c0.2,0.3,0.3,0.7,0.3,1.1v31
				c0.1,0.3-0.1,0.5-0.3,0.7L413.5,453.7z"/>
			<path class="st15" d="M413.5,420.9c-0.2-0.4-0.5-0.6-0.8-0.8l-35.1-20.2c-1.2-0.7-3.2-0.7-4.4,0l-0.8,0.4c-0.7,0.3-1,1-1.1,1.7
				v33.6c0-0.7,0.4-1.4,1.1-1.7l0.8-0.4c1.2-0.7,3.2-0.7,4.4,0l35.1,20.2c0.3,0.2,0.7,0.2,1-0.1c0.1-0.2,0.2-0.4,0.2-0.6v-31
				C413.8,421.6,413.7,421.3,413.5,420.9z"/>
			<path class="st12" d="M371.5,402.5c-0.3-0.8,0.1-1.8,1-2.3l0.8-0.4c1.2-0.7,3.2-0.7,4.4,0l35.1,20.2c0.3,0.2,0.6,0.5,0.8,0.8
				l1.9-1.1c-0.2-0.4-0.5-0.6-0.8-0.8l-36-20.8c-1.8-1-4.5-1-6.3,0l-0.8,0.4c-1.1,0.6-1.8,1.6-2,2.8c0,0.2-0.1,0.4-0.1,0.5
				c0,1,0.4,2,1.1,2.8l1.4-1.3C371.8,403.2,371.6,402.9,371.5,402.5"/>
			<path class="st32" d="M411.3,426v-4.2l-35.2-20.3c-0.7-0.4-1.5-0.4-2.2,0l-0.4,0.2c-0.3,0.2-0.5,0.5-0.5,0.8v7.4L411.3,426z"/>
			<path class="st33" d="M411.3,426v-4.2l-35.2-20.3c-0.7-0.4-1.5-0.4-2.2,0l-0.4,0.2c-0.3,0.2-0.5,0.5-0.5,0.8v7.4L411.3,426z"/>
			<path class="st32" d="M376.5,400.6c-1-0.5-2.2-0.5-3.1,0l-0.4,0.2c-0.5,0.3-0.9,0.8-1,1.4c0,0.1,0,0.2,0,0.2v1.1l1,1v-2.1
				c0-0.4,0.2-0.7,0.5-0.8l0.4-0.2c0.7-0.4,1.5-0.4,2.2,0l35.2,20.3l1-0.5L376.5,400.6z"/>
			<path class="st10" d="M376.5,400.6c-1-0.5-2.2-0.5-3.1,0l-0.4,0.2c-0.5,0.3-0.9,0.8-1,1.4c0,0.1,0,0.2,0,0.2v1.1l1,1v-2.1
				c0-0.4,0.2-0.7,0.5-0.8l0.4-0.2c0.7-0.4,1.5-0.4,2.2,0l35.2,20.3l1-0.5L376.5,400.6z"/>
			<polygon class="st32" points="411.3,421.7 412.2,421.2 412.2,426.5 411.3,425.9 			"/>
			<polygon class="st34" points="411.3,421.7 412.2,421.2 412.2,426.5 411.3,425.9 			"/>
			<path class="st7" d="M412.5,449.8V426l-35.1-20.3c-0.7-0.4-1.6-0.4-2.4,0l-0.9,0.5V429l37.3,21.5c0.4,0.2,0.8,0.1,1-0.3
				C412.5,450.1,412.5,450,412.5,449.8z"/>
			<g id="freepik--Card--inject-4_00000083795829903619794060000008637623121493474945_">
				<g id="freepik--card--inject-4_00000088133335510932666230000017641989163202092179_">
					<path class="st32" d="M409.1,449l0.6-0.4c0.2-0.1,0.3-0.4,0.4-0.6v-24.5c0-0.2-0.1-0.5-0.4-0.6l-31.8-18.3
						c-0.2-0.1-0.5-0.1-0.7,0l-0.6,0.4c-0.2,0.1-0.3,0.4-0.4,0.6v24.5c0,0.2,0.1,0.5,0.4,0.6l31.8,18.3
						C408.6,449,408.9,449,409.1,449z"/>
					<path class="st1" d="M409.1,449l0.6-0.4c0.2-0.1,0.3-0.4,0.4-0.6v-24.5c0-0.2-0.1-0.5-0.4-0.6l-31.8-18.3
						c-0.2-0.1-0.5-0.1-0.7,0l-0.6,0.4c-0.2,0.1-0.3,0.4-0.4,0.6v24.5c0,0.2,0.1,0.5,0.4,0.6l31.8,18.3
						C408.6,449,408.9,449,409.1,449z"/>
					<path class="st32" d="M408.4,423.6l-31.8-18.3c-0.2-0.1-0.4,0-0.4,0.2V430c0,0.2,0.1,0.5,0.4,0.6l31.8,18.3
						c0.2,0.1,0.4,0,0.4-0.2v-24.5C408.7,424,408.6,423.8,408.4,423.6z"/>
					<path class="st32" d="M408.4,423.6l-31.8-18.3c-0.2-0.1-0.4,0-0.4,0.2V430c0,0.2,0.1,0.5,0.4,0.6l31.8,18.3
						c0.2,0.1,0.4,0,0.4-0.2v-24.5C408.7,424,408.6,423.8,408.4,423.6z"/>
					<path class="st19" d="M408.4,423.6l-31.8-18.3c-0.2-0.1-0.4,0-0.4,0.2V430c0,0.2,0.1,0.5,0.4,0.6l31.8,18.3
						c0.2,0.1,0.4,0,0.4-0.2v-24.5C408.7,424,408.6,423.8,408.4,423.6z"/>
					<path class="st35" d="M376.6,405.3c2.6,1.6,5.3,3.1,7.8,4.7l7.9,4.6l8,4.5l4,2.2l4,2.2l-3.9-2.4l-3.9-2.4l-7.9-4.6l-8-4.5
						C382,408.2,379.3,406.7,376.6,405.3z"/>
					<path class="st32" d="M408.6,423.9l1.3-0.7c0.1,0.1,0.1,0.2,0.1,0.4v24.5c0,0.2-0.1,0.5-0.4,0.6l-0.6,0.4
						c-0.2,0.1-0.4,0.1-0.6,0.1c0.2,0.1,0.3-0.1,0.3-0.2v-24.5C408.7,424.1,408.7,424,408.6,423.9z"/>
					<polygon class="st32" points="408.7,427 410,426.3 410,432.7 408.7,433.4 					"/>
					<polygon class="st33" points="408.7,427 410,426.3 410,432.7 408.7,433.4 					"/>
				</g>
				<polygon class="st33" points="376.3,408.3 408.7,427 408.7,433.4 376.3,414.7 				"/>
				<g id="freepik--Cards--inject-4_00000172422626683525891490000014103660437543442859_">
					<path class="st12" d="M406.8,441v4.2c0,0.3-0.2,0.4-0.5,0.3l-4.4-2.5c-0.3-0.2-0.5-0.5-0.5-0.8V438c0-0.3,0.2-0.4,0.5-0.3
						c1.2,0.7,3.2,1.8,4.4,2.5C406.5,440.4,406.7,440.7,406.8,441z"/>
					<g>
						<g>
							<g>
								<defs>
									<path id="SVGID_1_" d="M406.8,441v4.2c0,0.3-0.2,0.4-0.5,0.3l-4.4-2.5c-0.3-0.2-0.5-0.5-0.5-0.8V438c0-0.3,0.2-0.4,0.5-0.3
										c1.2,0.7,3.2,1.8,4.4,2.5C406.5,440.4,406.7,440.7,406.8,441z"/>
								</defs>
								<clipPath id="SVGID_00000164485200857797613080000013534082381285659028_">
									<use xlink:href="#SVGID_1_"  style="overflow:visible;"/>
								</clipPath>
								<g style="clip-path:url(#SVGID_00000164485200857797613080000013534082381285659028_);">
									<polygon class="st35" points="407.6,442.7 407.7,442.5 400.5,438.3 400.4,438.6 									"/>
									<rect x="404.8" y="441" class="st35" width="0.2" height="2.1"/>
									<rect x="403.1" y="440.1" class="st35" width="0.2" height="2.1"/>
									<polygon class="st35" points="407.6,444.8 407.7,444.6 400.5,440.5 400.4,440.7 									"/>
								</g>
							</g>
						</g>
					</g>
					<path class="st32" d="M381,425l1.3,0.7c0.2,0.1,0.3,0.3,0.3,0.5v0.4c0,0.2-0.1,0.2-0.3,0.2l-1.3-0.7c-0.2-0.1-0.3-0.3-0.3-0.5
						v-0.4C380.7,425,380.9,424.9,381,425z"/>
					<path class="st32" d="M378.2,423.4l1.3,0.7c0.2,0.1,0.3,0.3,0.3,0.5v0.4c0,0.2-0.1,0.2-0.3,0.2l-1.3-0.7
						c-0.2-0.1-0.3-0.3-0.3-0.5v-0.4C377.9,423.4,378.1,423.3,378.2,423.4z"/>
					<path class="st32" d="M394.1,435.3l-15.6-9c-0.2-0.2-0.5-0.1-0.5,0.3v0.5c0,0.4,0.2,0.7,0.5,0.8l15.6,9
						c0.3,0.2,0.5,0.1,0.5-0.3v-0.5C394.6,435.7,394.4,435.4,394.1,435.3z"/>
					<path class="st12" d="M381,425l1.3,0.7c0.2,0.1,0.3,0.3,0.3,0.5v0.4c0,0.2-0.1,0.2-0.3,0.2l-1.3-0.7c-0.2-0.1-0.3-0.3-0.3-0.5
						v-0.4C380.7,425,380.9,424.9,381,425z"/>
					<path class="st12" d="M378.2,423.4l1.3,0.7c0.2,0.1,0.3,0.3,0.3,0.5v0.4c0,0.2-0.1,0.2-0.3,0.2l-1.3-0.7
						c-0.2-0.1-0.3-0.3-0.3-0.5v-0.4C377.9,423.4,378.1,423.3,378.2,423.4z"/>
					<path class="st12" d="M394.1,435.3l-15.6-9c-0.2-0.2-0.5-0.1-0.5,0.3v0.5c0,0.4,0.2,0.7,0.5,0.8l15.6,9
						c0.3,0.2,0.5,0.1,0.5-0.3v-0.5C394.6,435.7,394.4,435.4,394.1,435.3z"/>
					<path class="st2" d="M378.3,419.1L378.3,419.1c0.2,0.2,0.4,0.4,0.4,0.7v1.2c0,0.2-0.1,0.4-0.3,0.2h-0.1
						c-0.2-0.1-0.3-0.4-0.3-0.6v-1.3C377.9,419.1,378.1,419,378.3,419.1z"/>
					<path class="st2" d="M379.9,420L379.9,420c0.2,0.2,0.4,0.4,0.4,0.7v1.2c0,0.2-0.1,0.4-0.3,0.2h-0.1c-0.2-0.1-0.3-0.4-0.3-0.6
						v-1.3C379.6,420,379.7,419.9,379.9,420z"/>
					<path class="st2" d="M381.6,421L381.6,421c0.2,0.2,0.4,0.4,0.4,0.7v1.2c0,0.2-0.1,0.4-0.3,0.2h-0.1c-0.2-0.1-0.3-0.4-0.3-0.6
						v-1.3C381.2,421,381.4,420.9,381.6,421z"/>
					<path class="st2" d="M383.2,422L383.2,422c0.2,0.2,0.4,0.4,0.4,0.7v1.2c0,0.2-0.1,0.4-0.3,0.2h-0.1c-0.2-0.1-0.3-0.4-0.3-0.6
						v-1.3C382.9,422,383,421.9,383.2,422z"/>
					<path class="st2" d="M386,423.5L386,423.5c0.2,0.2,0.4,0.4,0.4,0.7v1.2c0,0.2-0.1,0.4-0.3,0.2H386c-0.2-0.1-0.3-0.4-0.3-0.6
						v-1.3C385.6,423.5,385.8,423.4,386,423.5z"/>
					<path class="st2" d="M387.6,424.5L387.6,424.5c0.2,0.2,0.4,0.4,0.4,0.7v1.2c0,0.2-0.1,0.4-0.3,0.2h-0.1
						c-0.2-0.1-0.3-0.4-0.3-0.6v-1.3C387.3,424.5,387.4,424.4,387.6,424.5z"/>
					<path class="st2" d="M389.3,425.5L389.3,425.5c0.2,0.2,0.4,0.4,0.4,0.7v1.2c0,0.2-0.1,0.4-0.3,0.2h-0.1
						c-0.2-0.1-0.3-0.4-0.3-0.6v-1.3C389,425.5,389.1,425.4,389.3,425.5z"/>
					<path class="st2" d="M390.9,426.4L390.9,426.4c0.2,0.2,0.4,0.4,0.4,0.7v1.3c0,0.2-0.1,0.4-0.3,0.2h-0.1
						c-0.2-0.1-0.3-0.4-0.3-0.6v-1.3C390.6,426.4,390.8,426.3,390.9,426.4z"/>
					<path class="st2" d="M393.7,428L393.7,428c0.2,0.2,0.4,0.4,0.4,0.7v1.2c0,0.2-0.1,0.4-0.3,0.2h-0.1c-0.2-0.1-0.3-0.4-0.3-0.6
						v-1.3C393.4,428,393.5,427.9,393.7,428z"/>
					<path class="st2" d="M395.4,428.9L395.4,428.9c0.2,0.2,0.4,0.4,0.4,0.7v1.2c0,0.2-0.1,0.4-0.3,0.2h-0.1
						c-0.2-0.1-0.3-0.4-0.3-0.6v-1.3C395,429,395.2,428.9,395.4,428.9z"/>
					<path class="st2" d="M397,429.9L397,429.9c0.2,0.2,0.4,0.4,0.4,0.7v1.2c0,0.2-0.1,0.4-0.3,0.2H397c-0.2-0.1-0.3-0.4-0.3-0.6
						v-1.3C396.7,429.9,396.8,429.8,397,429.9z"/>
					<path class="st2" d="M398.7,430.8L398.7,430.8c0.2,0.2,0.4,0.4,0.4,0.7v1.2c0,0.2-0.1,0.4-0.3,0.2h-0.1
						c-0.2-0.1-0.3-0.4-0.3-0.6V431C398.3,430.8,398.5,430.7,398.7,430.8z"/>
					<path class="st2" d="M401.4,432.4L401.4,432.4c0.2,0.2,0.4,0.4,0.4,0.7v1.2c0,0.2-0.1,0.4-0.3,0.2h-0.1
						c-0.2-0.1-0.3-0.4-0.3-0.6v-1.3C401.1,432.4,401.2,432.4,401.4,432.4z"/>
					<path class="st2" d="M403.1,433.4L403.1,433.4c0.2,0.2,0.4,0.4,0.4,0.7v1.2c0,0.2-0.1,0.4-0.3,0.2h-0.1
						c-0.2-0.1-0.3-0.4-0.3-0.6v-1.3C402.7,433.4,402.9,433.3,403.1,433.4z"/>
					<path class="st2" d="M404.7,434.3L404.7,434.3c0.2,0.2,0.4,0.4,0.4,0.7v1.2c0,0.2-0.1,0.4-0.3,0.2h-0.1
						c-0.2-0.1-0.3-0.4-0.3-0.6v-1.2C404.4,434.3,404.5,434.2,404.7,434.3z"/>
					<path class="st2" d="M406.3,435.3L406.3,435.3c0.2,0.2,0.4,0.4,0.4,0.7v1.2c0,0.2-0.1,0.4-0.3,0.2h-0.1
						c-0.2-0.1-0.3-0.4-0.3-0.6v-1.2C406,435.3,406.2,435.2,406.3,435.3z"/>
				</g>
			</g>
			<path class="st20" d="M410.8,450c0,0.7-0.5,1-1.1,0.7l-30-17.3c-0.7-0.4-1.1-1.1-1.1-1.9v-16.7l32.2,18.6V450z"/>
			<path class="st15" d="M370.7,438.3l25,26.2c0.2,0.3,0.5,0.4,0.7,0.2c0.1-0.1,0.2-0.3,0.2-0.6v-31c0-0.4-0.1-0.8-0.2-1.1
				c-0.1-0.4-0.4-0.7-0.7-1.1l-25-26.1c-0.7-0.7-1.1-1.7-1.1-2.8v33.6C369.5,436.6,369.9,437.5,370.7,438.3z"/>
			<path class="st12" d="M371.3,408.5c-0.1,0-0.1-0.1-0.1-0.1V408c0-0.1,0.1-0.1,0.1-0.1c0.1,0,0.1,0,0.1,0l0.2,0.3
				c0.1,0.1,0.1,0.1,0,0.2l0,0c-0.1,0.1-0.1,0.1-0.2,0l0,0l-0.1-0.1v0.1C371.4,408.5,371.4,408.5,371.3,408.5L371.3,408.5z"/>
			<path class="st12" d="M394.7,459.5c-0.1,0-0.1-0.1-0.1-0.1v-0.8c0-0.1,0.1-0.1,0.1-0.1c0.1,0,0.1,0.1,0.1,0.1v0.7
				C394.9,459.4,394.9,459.5,394.7,459.5z M394.7,457.4c-0.1,0-0.1-0.1-0.1-0.1v-0.7c0-0.1,0.1-0.1,0.1-0.1c0.1,0,0.1,0.1,0.1,0.1
				v0.7C394.9,457.4,394.9,457.5,394.7,457.4L394.7,457.4z M394.7,455.4c-0.1,0-0.1-0.1-0.1-0.1v-0.7c0-0.1,0.1-0.1,0.1-0.1
				c0.1,0,0.1,0.1,0.1,0.1v0.7C394.9,455.3,394.9,455.4,394.7,455.4C394.8,455.4,394.8,455.4,394.7,455.4L394.7,455.4z M394.7,453.4
				c-0.1,0-0.1-0.1-0.1-0.1v-0.8c0-0.1,0.1-0.1,0.1-0.1c0.1,0,0.1,0.1,0.1,0.1v0.8C394.9,453.4,394.9,453.4,394.7,453.4
				C394.8,453.4,394.8,453.4,394.7,453.4L394.7,453.4z M394.7,451.4c-0.1,0-0.1-0.1-0.1-0.1v-0.8c0-0.1,0.1-0.1,0.1-0.1
				c0.1,0,0.1,0.1,0.1,0.1v0.8C394.9,451.4,394.9,451.4,394.7,451.4C394.8,451.4,394.8,451.4,394.7,451.4L394.7,451.4z M394.7,449.4
				c-0.1,0-0.1-0.1-0.1-0.1v-0.7c0-0.1,0.1-0.1,0.1-0.1c0.1,0,0.1,0.1,0.1,0.1v0.7C394.9,449.3,394.9,449.4,394.7,449.4
				C394.8,449.4,394.8,449.4,394.7,449.4L394.7,449.4z M394.7,447.4c-0.1,0-0.1-0.1-0.1-0.1v-0.7c0-0.1,0.1-0.1,0.1-0.1
				c0.1,0,0.1,0.1,0.1,0.1v0.7C394.9,447.3,394.9,447.4,394.7,447.4C394.8,447.4,394.8,447.4,394.7,447.4L394.7,447.4z M394.7,445.4
				c-0.1,0-0.1-0.1-0.1-0.1v-0.8c0-0.1,0.1-0.1,0.1-0.1c0.1,0,0.1,0.1,0.1,0.1v0.8C394.9,445.3,394.9,445.4,394.7,445.4
				C394.8,445.4,394.8,445.4,394.7,445.4L394.7,445.4z M394.7,443.3c-0.1,0-0.1-0.1-0.1-0.1v-0.7c0-0.1,0.1-0.1,0.1-0.1
				c0.1,0,0.1,0.1,0.1,0.1v0.7C394.9,443.3,394.9,443.4,394.7,443.3C394.8,443.4,394.8,443.4,394.7,443.3L394.7,443.3z M394.7,441.3
				c-0.1,0-0.1-0.1-0.1-0.1v-0.7c0-0.1,0.1-0.1,0.1-0.1c0.1,0,0.1,0.1,0.1,0.1v0.7C394.9,441.3,394.9,441.3,394.7,441.3
				C394.8,441.3,394.8,441.3,394.7,441.3L394.7,441.3z M394.7,439.4c-0.1,0-0.1-0.1-0.1-0.1v-0.7c0-0.1,0.1-0.1,0.1-0.1
				c0.1,0,0.1,0.1,0.1,0.1v0.7C394.9,439.3,394.9,439.4,394.7,439.4C394.8,439.4,394.8,439.4,394.7,439.4L394.7,439.4z M394.7,437.4
				c-0.1,0-0.1-0.1-0.1-0.1v-0.7c0-0.1,0.1-0.1,0.1-0.1c0.1,0,0.1,0.1,0.1,0.1v0.8C394.9,437.3,394.9,437.4,394.7,437.4L394.7,437.4
				z M394.7,435.3c-0.1,0-0.1-0.1-0.1-0.1v-0.7c0-0.1,0.1-0.1,0.1-0.1c0.1,0,0.1,0.1,0.1,0.1v0.7
				C394.9,435.3,394.9,435.3,394.7,435.3C394.8,435.3,394.8,435.3,394.7,435.3L394.7,435.3z M394.7,433.3c-0.1,0-0.1-0.1-0.1-0.1
				l0,0c0-0.2-0.1-0.3-0.1-0.5c-0.1-0.1-0.1-0.1-0.1-0.2c-0.1-0.1,0-0.1,0.1-0.2l0,0c0.1-0.1,0.1,0,0.2,0.1l0,0
				c0.1,0.1,0.1,0.1,0.1,0.2c0.1,0.2,0.1,0.4,0.1,0.5C394.9,433.3,394.9,433.3,394.7,433.3L394.7,433.3z M393.8,431.6
				c-0.1,0-0.1,0-0.1-0.1l-0.5-0.5c-0.1-0.1-0.1-0.1,0-0.2s0.1-0.1,0.2,0l0.5,0.5C393.9,431.5,393.9,431.5,393.8,431.6L393.8,431.6
				C393.8,431.6,393.8,431.7,393.8,431.6L393.8,431.6z M392.4,430.2c-0.1,0-0.1,0-0.1-0.1l-0.5-0.5c-0.1-0.1-0.1-0.1,0-0.2
				s0.1-0.1,0.2,0l0.5,0.5C392.5,430,392.5,430.1,392.4,430.2C392.5,430.2,392.4,430.2,392.4,430.2L392.4,430.2z M391,428.7
				c-0.1,0-0.1,0-0.1-0.1l-0.5-0.5c-0.1-0.1-0.1-0.1,0-0.2l0,0c0.1-0.1,0.1-0.1,0.2,0l0,0l0.5,0.5
				C391.1,428.6,391.1,428.6,391,428.7C391.1,428.7,391,428.7,391,428.7L391,428.7z M389.6,427.3c-0.1,0-0.1,0-0.1,0l-0.5-0.5
				c-0.1-0.1-0.1-0.1,0-0.2l0,0c0.1-0.1,0.1-0.1,0.2,0l0,0l0.5,0.5C389.7,427.2,389.7,427.2,389.6,427.3L389.6,427.3L389.6,427.3
				L389.6,427.3z M388.2,425.8c-0.1,0-0.1,0-0.1-0.1l-0.5-0.5c-0.1-0.1-0.1-0.1,0-0.2s0.1-0.1,0.2,0l0.5,0.5
				C388.3,425.7,388.3,425.7,388.2,425.8L388.2,425.8C388.3,425.8,388.2,425.8,388.2,425.8z M386.8,424.4c-0.1,0-0.1,0-0.1-0.1
				l-0.5-0.5c-0.1-0.1-0.1-0.1,0-0.2s0.1-0.1,0.2,0l0.5,0.5C387,424.2,387,424.3,386.8,424.4L386.8,424.4
				C386.9,424.4,386.8,424.4,386.8,424.4L386.8,424.4z M385.5,422.9c-0.1,0-0.1,0-0.1-0.1l-0.5-0.5c-0.1-0.1-0.1-0.1,0-0.2
				s0.1-0.1,0.2,0l0,0l0.5,0.5C385.6,422.8,385.6,422.8,385.5,422.9L385.5,422.9L385.5,422.9L385.5,422.9z M384.1,421.5
				c-0.1,0-0.1,0-0.1-0.1l-0.5-0.5c-0.1-0.1-0.1-0.1,0-0.2s0.1-0.1,0.2,0l0.5,0.5C384.2,421.3,384.2,421.4,384.1,421.5L384.1,421.5
				L384.1,421.5L384.1,421.5z M382.7,420c-0.1,0-0.1,0-0.1-0.1l-0.5-0.5c-0.1-0.1-0.1-0.1,0-0.2l0,0c0.1-0.1,0.1-0.1,0.2,0l0,0
				l0.5,0.5C382.8,419.9,382.8,419.9,382.7,420L382.7,420L382.7,420L382.7,420z M381.3,418.6c-0.1,0-0.1,0-0.1-0.1l-0.5-0.5
				c-0.1-0.1-0.1-0.1,0-0.2l0,0c0.1-0.1,0.1-0.1,0.2,0l0,0l0.5,0.5C381.4,418.4,381.4,418.5,381.3,418.6L381.3,418.6L381.3,418.6z
				 M379.9,417.1c-0.1,0-0.1,0-0.1-0.1l-0.5-0.5c-0.1-0.1-0.1-0.1,0-0.2l0,0c0.1-0.1,0.1-0.1,0.2,0l0,0l0.5,0.5
				C380,417,380,417,379.9,417.1L379.9,417.1C380,417.1,379.9,417.1,379.9,417.1L379.9,417.1z M378.5,415.7c-0.1,0-0.1,0-0.1-0.1
				l-0.5-0.5c-0.1-0.1-0.1-0.1,0-0.2s0.1-0.1,0.2,0l0,0l0.5,0.5C378.6,415.5,378.6,415.6,378.5,415.7L378.5,415.7
				C378.6,415.7,378.5,415.7,378.5,415.7L378.5,415.7z M377.1,414.3c-0.1,0-0.1,0-0.1-0.1l-0.5-0.5c-0.1-0.1-0.1-0.1,0-0.2
				s0.1-0.1,0.2,0l0,0l0.5,0.5C377.2,414.1,377.2,414.1,377.1,414.3L377.1,414.3L377.1,414.3L377.1,414.3z M375.7,412.8
				c-0.1,0-0.1,0-0.1-0.1l-0.5-0.5c-0.1-0.1-0.1-0.1,0-0.2l0,0c0.1-0.1,0.1-0.1,0.2,0l0,0l0.5,0.5
				C375.9,412.6,375.9,412.7,375.7,412.8L375.7,412.8C375.8,412.7,375.7,412.8,375.7,412.8L375.7,412.8z M374.3,411.4
				c-0.1,0-0.1,0-0.1-0.1l-0.5-0.5c-0.1-0.1-0.1-0.1,0-0.2s0.1-0.1,0.2,0l0,0l0.5,0.5C374.5,411.2,374.5,411.2,374.3,411.4
				L374.3,411.4C374.4,411.3,374.3,411.3,374.3,411.4L374.3,411.4z M373,409.8c-0.1,0-0.1,0-0.1-0.1l-0.5-0.5
				c-0.1-0.1-0.1-0.1,0-0.2l0,0c0.1-0.1,0.1-0.1,0.2,0l0,0l0.5,0.5C373.1,409.7,373.1,409.7,373,409.8L373,409.8L373,409.8
				L373,409.8z"/>
			<path class="st12" d="M394.7,461.1c-0.1,0-0.1,0-0.1-0.1l-0.2-0.3c-0.1-0.1-0.1-0.1,0-0.2s0.1-0.1,0.2,0l0.1,0.1v-0.1
				c0-0.1,0.1-0.1,0.1-0.1c0.1,0,0.1,0.1,0.1,0.1v0.4C394.9,461,394.9,461.1,394.7,461.1C394.8,461.1,394.8,461.1,394.7,461.1z"/>
			<path class="st12" d="M393.6,459.9c-0.1,0-0.1,0-0.1-0.1l-0.5-0.5c-0.1-0.1-0.1-0.1,0-0.2s0.1-0.1,0.2,0l0,0l0.5,0.5
				C393.7,459.7,393.7,459.8,393.6,459.9L393.6,459.9C393.7,459.9,393.7,459.9,393.6,459.9z M392.2,458.4c-0.1,0-0.1,0-0.1-0.1
				l-0.5-0.5c-0.1-0.1-0.1-0.1,0-0.2s0.1-0.1,0.2,0l0,0l0.5,0.5C392.3,458.2,392.3,458.2,392.2,458.4L392.2,458.4
				C392.3,458.4,392.2,458.4,392.2,458.4z M390.8,456.9c-0.1,0-0.1,0-0.1-0.1l-0.5-0.5c-0.1-0.1-0.1-0.1,0-0.2l0,0
				c0.1-0.1,0.1-0.1,0.2,0l0,0l0.5,0.5C390.9,456.7,390.9,456.7,390.8,456.9L390.8,456.9L390.8,456.9z M389.3,455.3
				c-0.1,0-0.1,0-0.1-0.1l-0.5-0.5c-0.1-0.1-0.1-0.1,0-0.2s0.1-0.1,0.2,0l0.5,0.5C389.4,455.2,389.4,455.2,389.3,455.3L389.3,455.3
				C389.4,455.3,389.4,455.3,389.3,455.3z M387.9,453.8c-0.1,0-0.1,0-0.1-0.1l-0.5-0.5c-0.1-0.1-0.1-0.1,0-0.2l0,0
				c0.1-0.1,0.1-0.1,0.2,0l0,0l0.5,0.5C388,453.7,388,453.7,387.9,453.8L387.9,453.8L387.9,453.8L387.9,453.8z M386.4,452.3
				c-0.1,0-0.1,0-0.1-0.1l-0.5-0.5c-0.1-0.1-0.1-0.1,0-0.2s0.1-0.1,0.2,0l0,0l0.5,0.5C386.5,452.2,386.5,452.2,386.4,452.3
				L386.4,452.3C386.5,452.3,386.5,452.3,386.4,452.3L386.4,452.3z M385,450.8c-0.1,0-0.1,0-0.1-0.1l-0.5-0.5
				c-0.1-0.1-0.1-0.1,0-0.2l0,0c0.1-0.1,0.1-0.1,0.2,0l0,0l0.5,0.5C385.2,450.6,385.2,450.7,385,450.8L385,450.8
				C385.1,450.8,385,450.9,385,450.8L385,450.8z M383.6,449.4c-0.1,0-0.1,0-0.1-0.1l-0.5-0.5c-0.1-0.1-0.1-0.1,0-0.2s0.1-0.1,0.2,0
				l0.5,0.5C383.7,449.2,383.7,449.3,383.6,449.4L383.6,449.4C383.6,449.3,383.6,449.4,383.6,449.4L383.6,449.4z M382.1,447.9
				c-0.1,0-0.1,0-0.1-0.1l-0.5-0.5c-0.1-0.1-0.1-0.1,0-0.2s0.1-0.1,0.2,0l0,0l0.5,0.5C382.3,447.7,382.3,447.7,382.1,447.9
				L382.1,447.9C382.2,447.9,382.2,447.9,382.1,447.9L382.1,447.9z M380.7,446.4c-0.1,0-0.1,0-0.1-0.1l-0.5-0.5
				c-0.1-0.1-0.1-0.1,0-0.2s0.1-0.1,0.2,0l0.5,0.6C380.8,446.2,380.8,446.3,380.7,446.4L380.7,446.4
				C380.8,446.4,380.7,446.4,380.7,446.4L380.7,446.4z M379.3,444.8c-0.1,0-0.1,0-0.1-0.1l-0.5-0.5c-0.1-0.1-0.1-0.1,0-0.2l0,0
				c0.1-0.1,0.1-0.1,0.2,0l0,0l0.5,0.5C379.4,444.7,379.4,444.7,379.3,444.8C379.4,444.8,379.3,444.8,379.3,444.8L379.3,444.8z
				 M377.8,443.3c-0.1,0-0.1,0-0.1-0.1l-0.5-0.5c-0.1-0.1-0.1-0.1,0-0.2s0.1-0.1,0.2,0l0,0l0.5,0.5C378,443.2,378,443.2,377.8,443.3
				L377.8,443.3C377.9,443.3,377.8,443.3,377.8,443.3z M376.4,441.8c-0.1,0-0.1,0-0.1-0.1l-0.5-0.5c-0.1-0.1-0.1-0.1,0-0.2l0,0
				c0.1-0.1,0.1-0.1,0.2,0l0,0l0.5,0.5C376.5,441.6,376.5,441.7,376.4,441.8L376.4,441.8C376.5,441.8,376.5,441.8,376.4,441.8
				L376.4,441.8z M375,440.4c-0.1,0-0.1,0-0.1-0.1l-0.5-0.5c-0.1-0.1-0.1-0.1,0-0.2s0.1-0.1,0.2,0l0.5,0.5
				C375.1,440.2,375.1,440.3,375,440.4L375,440.4C375,440.3,375,440.3,375,440.4L375,440.4z M373.6,438.9c-0.1,0-0.1,0-0.1-0.1
				l-0.5-0.5c-0.1-0.1-0.1-0.1,0-0.2s0.1-0.1,0.2,0l0,0l0.5,0.5C373.7,438.7,373.7,438.8,373.6,438.9L373.6,438.9
				C373.6,438.8,373.6,438.9,373.6,438.9L373.6,438.9z M372.1,437.4c-0.1,0-0.1,0-0.1-0.1l-0.2-0.2c-0.1-0.1-0.2-0.3-0.4-0.4
				c-0.1-0.1,0-0.1,0.1-0.2l0,0c0.1-0.1,0.1,0,0.2,0.1l0,0c0.1,0.1,0.2,0.3,0.3,0.4l0.2,0.2C372.2,437.2,372.2,437.3,372.1,437.4
				L372.1,437.4C372.2,437.4,372.1,437.4,372.1,437.4L372.1,437.4z M371.3,435.5c-0.1,0-0.1-0.1-0.1-0.1v-0.8c0-0.1,0.1-0.1,0.1-0.1
				l0.1,0.1v0.8L371.3,435.5L371.3,435.5z M371.3,433.4c-0.1,0-0.1-0.1-0.1-0.1v-0.8c0-0.1,0.1-0.1,0.1-0.1l0.1,0.1v0.8
				C371.4,433.4,371.3,433.4,371.3,433.4L371.3,433.4z M371.3,431.4c-0.1,0-0.1-0.1-0.1-0.1v-0.8c0-0.1,0.1-0.1,0.1-0.1l0.1,0.1v0.8
				C371.4,431.3,371.3,431.3,371.3,431.4L371.3,431.4z M371.3,429.3c-0.1,0-0.1-0.1-0.1-0.1v-0.8c0-0.1,0.1-0.1,0.1-0.1l0.1,0.1v0.8
				L371.3,429.3L371.3,429.3z M371.3,427.2c-0.1,0-0.1-0.1-0.1-0.1v-0.8c0-0.1,0.1-0.1,0.1-0.1l0.1,0.1v0.8
				C371.4,427.2,371.3,427.2,371.3,427.2L371.3,427.2z M371.3,425.1c-0.1,0-0.1-0.1-0.1-0.1v-0.8c0-0.1,0.1-0.1,0.1-0.1l0.1,0.1v0.8
				C371.4,425.1,371.3,425.1,371.3,425.1L371.3,425.1z M371.3,423.1c-0.1,0-0.1-0.1-0.1-0.1v-0.8c0-0.1,0.1-0.1,0.1-0.1l0.1,0.1v0.8
				L371.3,423.1L371.3,423.1z M371.3,421c-0.1,0-0.1-0.1-0.1-0.1v-0.8c0-0.1,0.1-0.1,0.1-0.1l0.1,0.1v0.8
				C371.4,420.9,371.3,420.9,371.3,421L371.3,421z M371.3,418.9c-0.1,0-0.1-0.1-0.1-0.1V418c0-0.1,0.1-0.1,0.1-0.1l0.1,0.1v0.8
				C371.4,418.8,371.3,418.9,371.3,418.9L371.3,418.9z M371.3,416.8c-0.1,0-0.1-0.1-0.1-0.1v-0.8c0-0.1,0.1-0.1,0.1-0.1l0.1,0.1v0.8
				C371.4,416.8,371.3,416.8,371.3,416.8L371.3,416.8z M371.3,414.7c-0.1,0-0.1-0.1-0.1-0.1v-0.8c0-0.1,0.1-0.1,0.1-0.1l0.1,0.1v0.8
				C371.4,414.7,371.3,414.7,371.3,414.7L371.3,414.7z M371.3,412.7c-0.1,0-0.1-0.1-0.1-0.1v-0.8c0-0.1,0.1-0.1,0.1-0.1l0.1,0.1v0.8
				L371.3,412.7L371.3,412.7z M371.3,410.6c-0.1,0-0.1-0.1-0.1-0.1v-0.8c0-0.1,0.1-0.1,0.1-0.1l0.1,0.1v0.8
				C371.4,410.6,371.3,410.6,371.3,410.6L371.3,410.6z"/>
			<path class="st7" d="M398.1,431l-1.8,1c0.2,0.4,0.2,0.7,0.2,1.1v31c0,0.3-0.1,0.5-0.2,0.6l1.7-1c0.1-0.1,0.2-0.3,0.2-0.6v-31
				C398.3,431.8,398.2,431.4,398.1,431z"/>
			<path class="st2" d="M392,443.9c0-0.9-0.4-1.8-0.9-2.5c-0.5-0.5-0.9-0.3-0.9,0.5c0,0.9,0.4,1.8,0.9,2.5
				C391.5,445,392,444.7,392,443.9z"/>
			<polygon class="st15" points="415.7,432.6 420,435.1 415.7,437.6 			"/>
			<path class="st12" d="M419,435.7l1-0.5c0.4-0.1,0.5-0.5,0.4-0.8c-0.1-0.2-0.2-0.4-0.4-0.4l-4.2-2.5v1.2l3,1.7
				c0.1,0.1,0.1,0.2,0.1,0.3l-0.1,0.1l-0.7,0.4L419,435.7z"/>
			<path class="st12" d="M412.9,438c-1.2,0.7-2.2,2.4-2.2,3.7c0,0.7,0.2,1.1,0.6,1.3c0.4,0.2,1,0.6,1,0.6l6.6-4.3
				c0.2-0.1,0.4-0.4,0.5-0.7v-4.8c0,0.3-0.2,0.5-0.5,0.7L412.9,438z"/>
			<path class="st15" d="M413.9,438.6c-1.2,0.7-2.2,2.4-2.2,3.7c0,1.3,1,1.8,2.2,1.1l6-3.5c0.2-0.1,0.4-0.4,0.5-0.7v-4.8
				c0,0.3-0.2,0.5-0.5,0.7L413.9,438.6z"/>
			<path class="st2" d="M414.4,439.4c0.7-0.4,1.3-0.1,1.3,0.7c-0.1,0.9-0.5,1.7-1.3,2.2c-0.7,0.4-1.3,0.1-1.3-0.7
				C413.1,440.6,413.6,439.8,414.4,439.4z"/>
			<path class="st12" d="M397.4,430l-25.3-26.6c-0.2-0.2-0.4-0.5-0.5-0.8l-0.8,2.2l25,26.3c0.3,0.3,0.5,0.7,0.7,1.1l1.8-1
				C397.9,430.7,397.7,430.3,397.4,430z"/>
		</g>
	</g>
</g>
</svg>
