<?xml version="1.0" encoding="utf-8"?>
<!-- Generator: Adobe Illustrator 27.3.1, SVG Export Plug-In . SVG Version: 6.00 Build 0)  -->
<svg version="1.1" id="Layer_1" xmlns="http://www.w3.org/2000/svg" xmlns:xlink="http://www.w3.org/1999/xlink" x="0px" y="0px"
	 viewBox="0 0 500 500" style="enable-background:new 0 0 500 500;" xml:space="preserve">
<style type="text/css">
	.st0{fill:#E6E6E6;}
	.st1{fill:#F5F5F5;}
	.st2{fill:#E0E0E0;}
	.st3{fill:#263238;}
	.st4{fill:#37474F;}
	.st5{fill:#A0B19F;}
	.st6{opacity:0.2;enable-background:new    ;}
	.st7{opacity:0.1;enable-background:new    ;}
	.st8{fill:#455A64;}
	.st9{opacity:0.3;enable-background:new    ;}
	.st10{opacity:0.5;fill:#FFFFFF;enable-background:new    ;}
	.st11{opacity:5.000000e-02;enable-background:new    ;}
	.st12{fill:#FAFAFA;}
	.st13{opacity:0.2;fill:#FFFFFF;enable-background:new    ;}
	.st14{opacity:0.25;fill:#FFFFFF;enable-background:new    ;}
	.st15{fill:#FFBDA7;}
	.st16{fill:#F0997A;}
	.st17{opacity:0.2;}
	.st18{fill:#B16668;}
	.st19{fill:#F28F8F;}
	.st20{opacity:0.45;fill:#FFFFFF;enable-background:new    ;}
	.st21{opacity:0.15;enable-background:new    ;}
	.st22{fill:#FFFFFF;}
	.st23{opacity:0.35;enable-background:new    ;}
	.st24{opacity:0.25;enable-background:new    ;}
	.st25{opacity:0.1;}
	.st26{fill:#FFA8A7;}
	.st27{fill:#F0F0F0;}
	.st28{fill:#C8856A;}
	.st29{fill:#AF6152;}
	.st30{opacity:0.4;fill:#FFFFFF;enable-background:new    ;}
	.st31{opacity:0.6;fill:#FFFFFF;enable-background:new    ;}
	.st32{opacity:0.5;fill:#A0B19F;enable-background:new    ;}
	.st33{fill:#263238;stroke:#263238;stroke-linecap:round;stroke-linejoin:round;}
	.st34{opacity:0.7;fill:#FFFFFF;enable-background:new    ;}
</style>
<g id="freepik--City--inject-19">
	<polygon id="freepik--city--inject-19" class="st0" points="482.5,316.5 482.5,67.5 472.3,61.5 451.7,73.4 451.7,117 438,109.1 
		438,93.3 427.7,87.3 427.7,63.6 407.2,51.7 390,61.6 390,117 376.3,109.1 376.3,77.4 366,71.5 366,39.8 342.1,26 321.5,37.9 
		321.5,101.2 304.4,111.1 304.4,71.5 287.2,61.6 273.5,69.5 273.5,89.3 259.8,97.2 259.8,49.7 246.1,41.8 232.4,49.7 232.4,33.9 
		218.7,26 188.2,43.6 188.2,112.1 177.8,118.1 177.8,67.5 167.5,61.5 146.9,73.4 146.9,117 133.2,109.1 133.2,93.3 122.9,87.3 
		122.9,63.6 102.4,51.7 85.3,61.6 85.3,117 71.6,109.1 71.6,97.1 61.3,91.2 61.3,59.5 37.3,45.7 17.5,57.1 17.5,316.5 	"/>
</g>
<g id="freepik--Floor--inject-19">
	<path id="freepik--floor--inject-19" class="st1" d="M78.5,247.3c-94.7,54.7-94.7,143.3,0,198s248.3,54.7,343,0s94.7-143.3,0-198
		S173.2,192.6,78.5,247.3z"/>
</g>
<g id="freepik--Shadows--inject-19">
	<path id="freepik--Shadow--inject-19" class="st2" d="M351.8,330.4l35.5-20.5c1.3-0.7,1.3-2,0-2.7l-57.4-33.1
		c-1.5-0.7-3.2-0.7-4.7,0l-35.5,20.5c-1.3,0.7-1.3,2,0,2.7l57.4,33.1C348.6,331.1,350.3,331.1,351.8,330.4z"/>
	<ellipse id="freepik--shadow--inject-19" class="st2" cx="409.5" cy="359.5" rx="70.5" ry="40.7"/>
	
		<ellipse id="freepik--shadow--inject-19_00000139273610188023542380000018405818686728426420_" class="st2" cx="250" cy="400.2" rx="70.5" ry="40.7"/>
	
		<ellipse id="freepik--shadow--inject-19_00000062876828645606124600000014434949779712263856_" class="st2" cx="91.2" cy="359.5" rx="70.5" ry="40.7"/>
	<path id="freepik--shadow--inject-19_00000074436737042416820910000011695854791552544908_" class="st2" d="M159.7,333.6L115.3,308
		c-1.6-1-1.6-2.5,0-3.4l44.3-25.6c1.9-1,4.1-1,6,0l44.3,25.6c1.6,1,1.6,2.5,0,3.4l-44.3,25.6C163.8,334.6,161.6,334.6,159.7,333.6z"
		/>
	<polygon id="freepik--shadow--inject-19_00000134247433801940881530000004630184985146548118_" class="st2" points="174.3,431.2 
		128.5,457.7 70.1,423.9 115.9,397.5 	"/>
	<polygon id="freepik--shadow--inject-19_00000126302331061470535780000009912637183139070394_" class="st2" points="325.8,431.2 
		371.6,457.7 430,423.9 384.2,397.5 	"/>
</g>
<g id="freepik--tool-box--inject-19_00000005949320848336054670000007352258730815632276_">
	<g id="freepik--tool-box--inject-19_00000153697406098189057170000005747215390869587881_">
		<g id="freepik--tool-box--inject-19">
			<polygon class="st3" points="349.2,326.1 349.2,297.3 384.8,276.8 381.2,307.6 			"/>
			<polygon class="st4" points="349.2,326.1 295.8,295.2 292.2,264.4 349.2,297.3 			"/>
			<path class="st5" d="M387,270.6c-0.1-0.6-0.4-1.1-0.9-1.3l-56-32.3c-1.4-0.7-3.1-0.7-4.5,0L291,257c-0.5,0.2-0.9,0.7-1,1.3
				c0,0.5,0,7.8,0,8.2c0.1,0.6,0.4,1.1,1,1.3l56,32.3c1.4,0.7,3.1,0.7,4.5,0l34.6-20c0.5-0.2,0.9-0.7,0.9-1.3L387,270.6z"/>
			<path class="st6" d="M386.1,269.3L349.2,248v52.7c0.8,0,1.6-0.2,2.3-0.5l34.6-20c0.5-0.2,0.9-0.7,0.9-1.3v-8.2
				C387,270,386.6,269.5,386.1,269.3z"/>
			<path class="st7" d="M349.2,248l-19.1-11c-1.4-0.7-3.1-0.7-4.5,0L291,257c-0.5,0.2-0.9,0.7-1,1.3c0,0.5,0,7.8,0,8.2
				c0.1,0.6,0.4,1.1,1,1.3l56,32.3c0.7,0.4,1.5,0.6,2.3,0.5L349.2,248z"/>
			<path class="st5" d="M351.5,291.9l34.6-20c0.7-0.2,1.1-1,0.9-1.8c-0.1-0.4-0.5-0.7-0.9-0.9l-56-32.2c-1.4-0.7-3.1-0.7-4.5,0
				L291,257c-1.3,0.7-1.3,1.9,0,2.6l56,32.3C348.4,292.6,350.1,292.6,351.5,291.9z"/>
			<path class="st6" d="M301.1,259.3c-1,0.6-0.9,1.5,0.1,2.1l38.9,22.5c1.1,0.6,2.5,0.6,3.7,0.1c1-0.6,0.9-1.5-0.1-2.1l-38.9-22.5
				C303.7,258.7,302.3,258.7,301.1,259.3z"/>
			<path class="st6" d="M340.2,283.9c1.1,0.6,2.5,0.6,3.7,0.1c0.1,0,0.1-0.1,0.2-0.1c-0.1-0.1-0.2-0.2-0.3-0.2l-38.9-22.5
				c-1.1-0.6-2.5-0.6-3.7-0.1l-0.2,0.1c0.1,0.1,0.2,0.2,0.3,0.2L340.2,283.9z"/>
			<path class="st6" d="M329.6,242.8c-1,0.6-0.9,1.5,0.1,2.1l38.9,22.5c1.1,0.6,2.5,0.6,3.7,0.1c1-0.6,0.9-1.5-0.1-2.1l-38.9-22.5
				C332.1,242.3,330.8,242.3,329.6,242.8z"/>
			<path class="st6" d="M368.6,267.4c1.1,0.6,2.5,0.6,3.7,0.1l0.2-0.1c-0.1-0.1-0.2-0.2-0.3-0.2l-38.9-22.5
				c-1.1-0.6-2.5-0.6-3.7-0.1l-0.2,0.1l0.3,0.2L368.6,267.4z"/>
			<path class="st6" d="M365.2,269.6c1,0.6,0.9,1.5-0.1,2.1l-14,8.1c-1.1,0.6-2.5,0.6-3.7,0.1c-1-0.6-0.9-1.5,0.1-2.1l14-8.1
				C362.7,269,364,269,365.2,269.6z"/>
			<path class="st6" d="M351.1,279.8c-1.1,0.6-2.5,0.6-3.7,0.1c-0.1,0-0.1-0.1-0.2-0.1c0.1-0.1,0.2-0.1,0.3-0.2l14-8.1
				c1.1-0.6,2.5-0.6,3.7-0.1l0.2,0.1c-0.1,0.1-0.2,0.2-0.3,0.2L351.1,279.8z"/>
			<path class="st6" d="M372.3,273.7c1,0.6,0.9,1.5-0.1,2.1l-14,8.1c-1.1,0.6-2.5,0.6-3.7,0.1c-1-0.6-0.9-1.5,0.1-2.1l14-8.1
				C369.8,273.1,371.2,273.1,372.3,273.7z"/>
			<path class="st6" d="M358.2,283.9c-1.1,0.6-2.5,0.6-3.7,0.1c-0.1,0-0.1-0.1-0.2-0.1c0.1-0.1,0.2-0.2,0.3-0.2l14-8.1
				c1.1-0.6,2.5-0.6,3.7-0.1l0.2,0.1c-0.1,0.1-0.2,0.1-0.3,0.2L358.2,283.9z"/>
			<path class="st6" d="M322.5,244.9c1,0.6,0.9,1.5-0.1,2.1l-14,8.1c-1.1,0.6-2.5,0.6-3.7,0.1c-1-0.6-0.9-1.5,0.1-2.1l14-8.1
				C320,244.4,321.3,244.3,322.5,244.9z"/>
			<path class="st6" d="M308.4,255.1c-1.1,0.6-2.5,0.6-3.7,0.1l-0.2-0.1c0.1-0.1,0.2-0.2,0.3-0.2l14-8.1c1.1-0.6,2.5-0.6,3.7-0.1
				l0.2,0.1l-0.3,0.2L308.4,255.1z"/>
			<path class="st6" d="M329.6,249c1,0.6,0.9,1.5-0.1,2.1l-14,8.1c-1.1,0.6-2.5,0.6-3.7,0.1c-1-0.6-0.9-1.5,0.1-2.1l14-8.1
				C327.1,248.5,328.4,248.4,329.6,249z"/>
			<path class="st6" d="M315.5,259.2c-1.1,0.6-2.5,0.6-3.7,0.1l-0.2-0.1c0.1-0.1,0.2-0.2,0.3-0.2l14-8.1c1.1-0.6,2.5-0.6,3.7-0.1
				c0.1,0,0.1,0.1,0.2,0.1c-0.1,0.1-0.2,0.2-0.3,0.2L315.5,259.2z"/>
			<path class="st8" d="M349,256.1l-13.8-8c-0.8-0.6-1.8-0.7-2.7-0.3l-3.4,2c0,0-0.1,0-0.1,0.1c-0.1,0-0.2,0.1-0.2,0.2l0,0
				c-0.1,0.1-0.2,0.1-0.2,0.2c-0.1,0.1-0.1,0.2-0.2,0.2c-0.1,0.1-0.1,0.2-0.2,0.3l-0.1,0.3c0,0.1-0.1,0.3-0.1,0.4
				c0,0.1-0.1,0.2-0.1,0.4c0,0.1,0,0.3,0,0.5v8l3.6,2.1v-6c0-1.2,0.9-1.7,1.9-1.1l1.7,1l8.8,5.1c1.1,0.7,1.8,2,1.9,3.3v6l3.5,2.1
				l3.6-2.1v-8C352.7,260,351.3,257.5,349,256.1z"/>
			<path class="st3" d="M335,256.2L335,256.2v4.1l-3.5,2.1v-6c0-1.2,0.9-1.7,1.9-1.1L335,256.2z"/>
			<path class="st4" d="M349.2,264.7v8l-3.5-2.1v-6c-0.1-1.3-0.8-2.6-1.9-3.3l-8.7-5.1l0,0l-1.7-1c-1-0.6-1.9-0.1-1.9,1.1v6l-3.6-2
				v-8c0-0.2,0-0.3,0-0.5c0-0.1,0-0.2,0.1-0.4c0-0.1,0.1-0.3,0.1-0.4l0.1-0.3c0.1-0.1,0.1-0.2,0.2-0.3c0.1-0.1,0.1-0.2,0.2-0.2
				c0.1-0.1,0.1-0.1,0.2-0.2l0,0c0.1-0.1,0.2-0.1,0.2-0.2c0,0,0.1,0,0.1-0.1c0.8-0.3,1.8-0.2,2.5,0.3l13.8,8
				C347.6,259.5,349,262,349.2,264.7z"/>
			<polygon class="st8" points="331.4,299.4 332.7,298.6 336.3,300.7 335,301.4 			"/>
			<polygon class="st3" points="335,301.4 336.3,318.6 336.3,300.7 			"/>
			<polygon class="st4" points="331.4,299.4 332.7,316.6 332.3,316.4 			"/>
			<polygon class="st8" points="361.2,302.7 359.9,301.9 356.3,304 357.6,304.8 			"/>
			<polygon points="361.2,302.7 359.9,319.9 360.3,319.7 			"/>
			<polygon class="st8" points="375.4,294.5 374.1,293.7 370.5,295.8 371.9,296.5 			"/>
			<polygon class="st4" points="356.3,322 357.6,304.8 356.3,304 			"/>
			<polygon class="st4" points="370.5,295.8 370.5,313.7 371.9,296.5 			"/>
			<polygon points="375.4,294.5 374.1,311.7 374.5,311.5 			"/>
			<polygon class="st8" points="306.5,285 307.8,284.2 311.4,286.3 310,287 			"/>
			<polygon class="st3" points="310,287 311.4,304.2 311.4,286.3 			"/>
			<polygon class="st4" points="306.5,285 307.8,302.2 307.4,302 			"/>
			<polygon class="st4" points="338.2,296.4 338.2,292.3 331,288.2 329.9,288.9 329.9,293 337,297.1 			"/>
			<polygon class="st8" points="329.9,288.9 329.9,293 337,297.1 337,293 			"/>
			<polygon class="st3" points="337,293 338.2,292.3 338.2,296.4 337,297.1 			"/>
			<polygon class="st4" points="313.1,282 313.1,277.8 305.9,273.7 304.8,274.4 304.8,278.5 311.9,282.6 			"/>
			<polygon class="st8" points="304.8,274.4 304.8,278.5 311.9,282.6 311.9,278.5 			"/>
			<polygon class="st3" points="311.9,278.5 313.1,277.8 313.1,282 311.9,282.6 			"/>
		</g>
	</g>
</g>
<g id="freepik--Cone--inject-19">
	<g id="freepik--cone--inject-19">
		<path class="st5" d="M204.6,300.2l-39.4-22.7c-1.7-0.8-3.6-0.8-5.3,0l-39.3,22.7c-0.6,0.3-1,0.9-1.1,1.5v2.9
			c0.1,0.7,0.5,1.2,1.1,1.5l39.3,22.7c1.7,0.8,3.6,0.8,5.3,0l39.4-22.7c0.6-0.3,1-0.9,1.1-1.5v-2.9
			C205.7,301,205.3,300.4,204.6,300.2z"/>
		<path class="st7" d="M205.7,301.7v2.9c-0.1,0.7-0.5,1.2-1.1,1.5l-39.4,22.7c-0.8,0.4-1.7,0.6-2.6,0.6v-52.6c0.9,0,1.8,0.2,2.6,0.6
			l39.4,22.7C205.3,300.4,205.7,301,205.7,301.7z"/>
		<path class="st9" d="M162.6,276.8v52.6c-0.9,0-1.8-0.2-2.6-0.6l-39.3-22.7c-0.6-0.3-1-0.9-1.1-1.5v-2.9c0.1-0.7,0.5-1.3,1.1-1.5
			l39.3-22.7C160.8,277,161.7,276.8,162.6,276.8z"/>
		<path class="st5" d="M160,326l-39.4-22.7c-1.5-0.9-1.5-2.2,0-3.1l39.4-22.8c1.7-0.8,3.6-0.8,5.3,0l39.4,22.7
			c1.5,0.9,1.5,2.2,0,3.1L165.3,326C163.6,326.8,161.7,326.8,160,326z"/>
		<path class="st10" d="M160,326l-39.4-22.7c-1.5-0.9-1.5-2.2,0-3.1l39.4-22.8c1.7-0.8,3.6-0.8,5.3,0l39.4,22.7
			c1.5,0.9,1.5,2.2,0,3.1L165.3,326C163.6,326.8,161.7,326.8,160,326z"/>
		<path class="st11" d="M162.6,276.8c-0.9,0-1.8,0.2-2.6,0.6l-39.4,22.7c-1.5,0.9-1.5,2.2,0,3.1L160,326c0.8,0.4,1.7,0.6,2.6,0.6
			L162.6,276.8z"/>
		<path class="st5" d="M187,298.8L187,298.8l-17.4-52.3l0,0v-0.1l0,0c-0.4-0.9-1-1.6-1.9-2c-3.1-1.6-6.8-1.6-9.9,0
			c-0.8,0.4-1.5,1.1-1.9,2l0,0v0.1l0,0l-17.4,52.3l0,0c-1.6,4.5,0.6,9.5,6.8,13c9.7,5.6,25.4,5.6,35.1,0
			C186.3,308.3,188.6,303.4,187,298.8z"/>
		<path class="st12" d="M174.5,261.5L174.5,261.5L172,254c0.4,1.4,0,2.8-1.1,3.8c-0.5,0.5-1,0.9-1.6,1.2c-4.3,2.1-9.3,2.1-13.5,0
			c-0.6-0.3-1.1-0.7-1.6-1.2c-1.1-0.9-1.5-2.4-1.1-3.8l-2.5,7.5l0,0c-0.4,1.3-0.2,2.6,0.6,3.7c0.7,1,1.7,1.9,2.8,2.5
			c0.9,0.5,2,0.9,3,1.2c3.6,1,7.5,1,11.1,0c1-0.3,2.1-0.7,3-1.2c1.1-0.6,2.1-1.5,2.8-2.5C174.7,264.1,174.9,262.8,174.5,261.5z"/>
		<path class="st12" d="M184.5,291.5L184.5,291.5L182,284c0.4,1.2,0.4,2.5,0.1,3.7c-0.4,1.4-1.1,2.7-2.1,3.8c-1,1.1-2.2,2-3.5,2.7
			c-7.7,4.5-20.2,4.5-27.9,0c-1.3-0.7-2.5-1.6-3.5-2.7c-1-1.1-1.7-2.3-2.1-3.8c-0.3-1.2-0.3-2.5,0.1-3.7l-2.5,7.4v0.1
			c-0.4,1.2-0.5,2.5-0.3,3.7c0.5,2.8,2.6,5.6,6.4,7.8c8.7,5,22.8,5,31.5,0c3.8-2.2,5.9-4.9,6.4-7.8C185,294,184.9,292.7,184.5,291.5
			z"/>
		<path class="st12" d="M179.5,276.5L179.5,276.5L177,269c0.4,1.2,0.3,2.6-0.2,3.7c-0.8,1.6-2.1,2.9-3.7,3.8l-0.1,0.1
			c-5.7,3.3-15,3.3-20.7,0l-0.1-0.1c-1.6-0.8-2.9-2.2-3.7-3.8c-0.6-1.2-0.6-2.5-0.2-3.7l-2.5,7.4v0c-0.4,1.2-0.4,2.5,0,3.8
			c0.5,1.5,1.5,2.8,2.7,3.7c0.6,0.5,1.3,1,2,1.4c2.1,1.1,4.3,1.9,6.6,2.4c3.7,0.7,7.4,0.7,11.1,0c2.3-0.4,4.5-1.2,6.6-2.4
			c0.7-0.4,1.4-0.9,2-1.4c1.2-1,2.2-2.3,2.7-3.7C179.9,279,180,277.7,179.5,276.5z"/>
		<path class="st7" d="M162.6,243.2c-1.7,0-3.5,0.4-5,1.2c-0.8,0.4-1.5,1.1-1.9,2l0,0v0.1l0,0l-17.4,52.3l0,0
			c-1.6,4.5,0.6,9.5,6.8,13c4.9,2.8,11.2,4.2,17.5,4.2h-0.1c-7.9-1.4-13.2-8.7-12.1-16.6l7.2-52.1L162.6,243.2z"/>
		<path class="st5" d="M157.7,250.2c-2.7-1.6-2.7-4.1,0-5.7c3.1-1.6,6.8-1.6,9.9,0c2.7,1.6,2.7,4.1,0,5.7
			C164.5,251.7,160.8,251.7,157.7,250.2z"/>
		<path class="st10" d="M157.7,250.2c-2.7-1.6-2.7-4.1,0-5.7c3.1-1.6,6.8-1.6,9.9,0c2.7,1.6,2.7,4.1,0,5.7
			C164.5,251.7,160.8,251.7,157.7,250.2z"/>
	</g>
</g>
<g id="freepik--Bricks--inject-19">
	<g id="freepik--bricks--inject-19">
		<polygon class="st5" points="100.6,427.2 137.5,405.8 137.5,402.8 116.4,390.7 79.4,412 79.4,415 		"/>
		<polygon class="st7" points="100.6,427.2 137.5,405.8 137.5,402.8 116.4,390.7 79.4,412 79.4,415 		"/>
		<polygon class="st5" points="116.4,390.7 79.4,412 100.6,424.2 137.5,402.8 		"/>
		<polygon class="st13" points="116.4,390.7 79.4,412 100.6,424.2 137.5,402.8 		"/>
		<polygon class="st7" points="100.6,427.2 100.6,424.2 79.4,412 79.4,415 		"/>
		<polygon class="st5" points="100.6,424.2 79.4,412 79.5,424.2 100.6,436.4 		"/>
		<polygon class="st6" points="100.6,424.2 79.4,412 79.5,424.2 100.6,436.4 		"/>
		<polygon class="st5" points="103.2,434.9 103.1,422.7 100.6,424.2 100.6,436.4 		"/>
		<polygon class="st7" points="103.2,434.9 103.1,422.7 100.6,424.2 100.6,436.4 		"/>
		<polygon class="st5" points="137.6,415 137.5,402.8 100.6,424.2 100.6,436.4 		"/>
		<polygon class="st5" points="128.1,442.7 165.1,421.4 165.1,418.4 144,406.2 107,427.6 107,430.5 		"/>
		<polygon class="st7" points="128.1,442.7 165.1,421.4 165.1,418.4 144,406.2 107,427.6 107,430.5 		"/>
		<polygon class="st5" points="144,406.2 107,427.6 128.1,439.8 165.1,418.4 		"/>
		<polygon class="st13" points="144,406.2 107,427.6 128.1,439.8 165.1,418.4 		"/>
		<polygon class="st7" points="128.1,442.7 128.1,439.8 107,427.6 107,430.5 		"/>
		<polygon class="st5" points="128.2,439.8 107,427.6 107.1,439.7 128.2,451.9 		"/>
		<polygon class="st6" points="128.2,439.8 107,427.6 107.1,439.7 128.2,451.9 		"/>
		<polygon class="st5" points="130.8,450.5 130.7,438.3 128.1,439.8 128.2,451.9 		"/>
		<polygon class="st7" points="130.8,450.5 130.7,438.3 128.1,439.8 128.2,451.9 		"/>
		<polygon class="st5" points="165.2,430.6 165.1,418.4 128.1,439.8 128.2,451.9 		"/>
		<polygon class="st5" points="119,421.1 156,399.7 156,396.8 134.8,384.6 97.8,405.9 97.9,408.9 		"/>
		<polygon class="st7" points="119,421.1 156,399.7 156,396.8 134.8,384.6 97.8,405.9 97.9,408.9 		"/>
		<polygon class="st5" points="134.8,384.6 97.8,405.9 119,418.1 156,396.8 		"/>
		<polygon class="st14" points="134.8,384.6 97.8,405.9 119,418.1 156,396.8 		"/>
		<polygon class="st7" points="119,421.1 119,418.1 97.8,405.9 97.9,408.9 		"/>
		<polygon class="st5" points="119,418.1 97.8,405.9 97.9,418.1 119,430.3 		"/>
		<polygon class="st6" points="119,418.1 97.8,405.9 97.9,418.1 119,430.3 		"/>
		<polygon class="st5" points="121.6,428.8 121.6,416.6 119,418.1 119,430.3 		"/>
		<polygon class="st7" points="121.6,428.8 121.6,416.6 119,418.1 119,430.3 		"/>
		<polygon class="st5" points="156,408.9 156,396.8 119,418.1 119,430.3 		"/>
	</g>
	<g id="freepik--bricks--inject-19_00000072959373718171344660000015598758672546838690_">
		<polygon class="st5" points="399.5,427.2 362.6,405.8 362.6,402.8 383.7,390.7 420.7,412 420.7,415 		"/>
		<polygon class="st7" points="399.5,427.2 362.6,405.8 362.6,402.8 383.7,390.7 420.7,412 420.7,415 		"/>
		<polygon class="st5" points="383.7,390.7 420.7,412 399.5,424.2 362.6,402.8 		"/>
		<polygon class="st13" points="383.7,390.7 420.7,412 399.5,424.2 362.6,402.8 		"/>
		<polygon class="st7" points="399.5,427.2 399.5,424.2 420.7,412 420.7,415 		"/>
		<polygon class="st5" points="399.5,424.2 420.7,412 420.6,424.2 399.5,436.4 		"/>
		<polygon class="st6" points="399.5,424.2 420.7,412 420.6,424.2 399.5,436.4 		"/>
		<polygon class="st5" points="396.9,434.9 397,422.7 399.5,424.2 399.5,436.4 		"/>
		<polygon class="st7" points="396.9,434.9 397,422.7 399.5,424.2 399.5,436.4 		"/>
		<polygon class="st5" points="362.5,415 362.6,402.8 399.5,424.2 399.5,436.4 		"/>
		<polygon class="st5" points="371.9,442.7 335,421.4 335,418.4 356.1,406.2 393.1,427.6 393.1,430.5 		"/>
		<polygon class="st7" points="371.9,442.7 335,421.4 335,418.4 356.1,406.2 393.1,427.6 393.1,430.5 		"/>
		<polygon class="st5" points="356.1,406.2 393.1,427.6 371.9,439.8 335,418.4 		"/>
		<polygon class="st13" points="356.1,406.2 393.1,427.6 371.9,439.8 335,418.4 		"/>
		<polygon class="st7" points="371.9,442.7 371.9,439.8 393.1,427.6 393.1,430.5 		"/>
		<polygon class="st5" points="371.9,439.8 393.1,427.6 393,439.7 371.9,451.9 		"/>
		<polygon class="st6" points="371.9,439.8 393.1,427.6 393,439.7 371.9,451.9 		"/>
		<polygon class="st5" points="369.3,450.5 369.4,438.3 371.9,439.8 371.9,451.9 		"/>
		<polygon class="st7" points="369.3,450.5 369.4,438.3 371.9,439.8 371.9,451.9 		"/>
		<polygon class="st5" points="334.9,430.6 335,418.4 371.9,439.8 371.9,451.9 		"/>
		<polygon class="st5" points="381.1,421.1 344.1,399.7 344.1,396.8 365.3,384.6 402.2,405.9 402.2,408.9 		"/>
		<polygon class="st7" points="381.1,421.1 344.1,399.7 344.1,396.8 365.3,384.6 402.2,405.9 402.2,408.9 		"/>
		<polygon class="st5" points="365.3,384.6 402.2,405.9 381.1,418.1 344.1,396.8 		"/>
		<polygon class="st14" points="365.3,384.6 402.2,405.9 381.1,418.1 344.1,396.8 		"/>
		<polygon class="st7" points="381.1,421.1 381.1,418.1 402.2,405.9 402.2,408.9 		"/>
		<polygon class="st5" points="381.1,418.1 402.2,405.9 402.2,418.1 381.1,430.3 		"/>
		<polygon class="st6" points="381.1,418.1 402.2,405.9 402.2,418.1 381.1,430.3 		"/>
		<polygon class="st5" points="378.5,428.8 378.5,416.6 381.1,418.1 381.1,430.3 		"/>
		<polygon class="st7" points="378.5,428.8 378.5,416.6 381.1,418.1 381.1,430.3 		"/>
		<polygon class="st5" points="344.1,408.9 344.1,396.8 381.1,418.1 381.1,430.3 		"/>
	</g>
</g>
<g id="freepik--character-3--inject-19">
	<g id="freepik--Chartacter--inject-19">
		<g id="freepik--Bottom--inject-19">
			<path class="st15" d="M399,332.2l1.6-15.1l-17.4,1.1c0,0,0.3,8.2,0.5,12.8c0.1,2.7-3.6,7.8-3.6,7.8s8.2,4.3,12.6,2.8
				s6.7-6.9,6.6-8.1S399,332.2,399,332.2z"/>
			<path class="st3" d="M357,355.7c-0.3,0-0.7,2.8,0.7,4c1.7,1.4,6.7,3.8,13.4,3.1s10.4-2.5,13.1-4.6s6.5-4.9,9.5-5.5
				c2.8-0.5,5.9-1.6,6.8-2.4s0.9-4.4,0.9-4.4L357,355.7z"/>
			<path class="st8" d="M399,332.2c0.5,0,0.9,0.4,1,0.9c0.2,1,0.4,3.9,0.8,5.5c0.6,2.8,0.8,5.8,0.5,8.7c-0.4,1.8-5,3-8,4
				c-3.4,1.3-6.7,3.1-9.6,5.4c-3.2,2.3-9.8,4.7-14.2,4.6c-5.2-0.1-10.9-1.8-12.2-4c-1.6-2.8-2.8-6,5-9.1c1.5-0.6,6.6-3.3,8.3-4.3
				c4.7-2.6,8.1-5.1,10.3-9.9c0.2-0.6,0.6-1.1,1.1-1.5c0.5-0.2,1-0.2,1.5-0.1c1.3,0.2,6.4,0.9,7.5,1.5s2.5,1,2.4,2.2
				c0,0.4-0.1,0.8-0.3,1.2c-0.1,0.2-0.2,0.6,0.1,0.7s0.5,0,0.7-0.2c0.8-0.7,1.5-1.5,2.1-2.3c0.4-0.4,0.8-0.8,1.2-1.1
				c0.5-0.2,0.9-0.5,1.3-0.8C399.1,333.3,399,332.7,399,332.2z"/>
			<path class="st4" d="M383.8,356.6c1.4-1,2.8-1.9,4.2-2.8l0,0c0,0-9.1,4.9-12.7,2.5c-2.3-1.5-1.2-3.3-1.1-3.9s-8.1-4.8-10.4-5.1
				l0,0c-0.6,0.3-1.2,0.6-1.5,0.7c-7.7,3.1-6.6,6.4-5,9.1c1.3,2.2,5.5,4,12.1,4.1C373.9,361.4,380.6,358.9,383.8,356.6z"/>
			<path class="st4" d="M374.9,350.8c-4.8,1.7-2.8,2.5-1.4,2.7s9.4-4,14.4-7.5c5.1-3.6,8.4-7.7,10.4-9c0.7-0.5,1.5-1.1,2.2-1.7
				c-0.1-1-0.2-1.9-0.3-2.3c-0.1-0.5-0.5-0.8-1-0.9c0,0.6,0.1,1.1-0.4,1.5c-0.4,0.3-0.9,0.5-1.3,0.8c-0.5,0.3-0.9,0.7-1.2,1.1
				c-0.6,0.8-1.3,1.6-2.1,2.3C389.7,342.6,379.7,349.1,374.9,350.8z"/>
			<path class="st3" d="M373.8,352.9c0.1,0,0.2,0,0.3-0.1c0.2-0.1,0.2-0.4,0.1-0.6c0,0,0,0,0,0c-1.3-1.5-7.6-5.3-11.1-5
				c-0.2,0-0.4,0.2-0.4,0.4c0,0,0,0,0,0c0,0.3,0.3,0.4,0.5,0.4c3.3-0.3,9.3,3.4,10.3,4.6C373.5,352.8,373.6,352.9,373.8,352.9z"/>
			<path class="st3" d="M378,350.6c0.1,0,0.2,0,0.3-0.1c0.2-0.1,0.2-0.4,0.1-0.6c0,0,0,0,0,0c-1.3-1.5-7.6-5.3-11.1-5
				c-0.2,0-0.4,0.2-0.4,0.4c0,0,0,0,0,0c0,0.3,0.3,0.4,0.5,0.4c3.3-0.3,9.3,3.4,10.3,4.6C377.7,350.5,377.9,350.6,378,350.6z"/>
			<path class="st3" d="M382.2,348.4c0.1,0,0.2,0,0.3-0.1c0.2-0.1,0.2-0.4,0.1-0.6c0,0,0,0,0,0c-1.3-1.5-7.6-5.3-11.1-5
				c-0.2,0-0.4,0.2-0.4,0.4c0,0,0,0,0,0c0,0.3,0.3,0.4,0.5,0.4c3.3-0.3,9.3,3.4,10.3,4.6C381.9,348.3,382,348.4,382.2,348.4z"/>
			<path class="st3" d="M386,345.9c0.1,0,0.2,0,0.3-0.1c0.2-0.1,0.2-0.4,0.1-0.6c0,0,0,0,0,0c-1.3-1.5-7.6-5.3-11.1-5
				c-0.2,0-0.4,0.2-0.4,0.5c0,0,0,0,0,0c0,0.2,0.3,0.4,0.5,0.4c3.3-0.3,9.3,3.4,10.3,4.6C385.8,345.8,385.9,345.9,386,345.9z"/>
			<path class="st3" d="M389.9,343.4c0.1,0,0.2,0,0.3-0.1c0.2-0.1,0.2-0.4,0.1-0.6c0,0,0,0,0,0c-1.8-2.2-8.4-5.3-11.9-5
				c-0.2,0-0.4,0.2-0.4,0.4c0,0,0,0,0,0c0,0.2,0.3,0.4,0.5,0.4c0,0,0,0,0,0c3.1-0.3,9.5,2.8,11.1,4.7
				C389.6,343.4,389.7,343.4,389.9,343.4z"/>
			<path class="st15" d="M433.5,340.4l-4-14.3l17.8-2.7l0.8,13.8c0,0,1.9,4.9,0.8,6.8s-12.9,3.9-14,2.7S433.5,340.4,433.5,340.4z"/>
			<path class="st3" d="M435.3,371.5c0.6,4.4,1.6,7.3,3.5,9.6s5.4,2.7,8.8,1.5s7.7-3.9,8.4-7.9s0.4-6.6-0.7-10.6L435.3,371.5z"/>
			<path class="st8" d="M448.1,337.2c1.4-0.1,1.1,6,2.4,11.9c1.3,6.3,3.6,8.7,4.8,13.8c1.3,5.9,1.1,8.6-1.1,12.6s-10.5,8.7-15,4
				c-3.7-3.8-4.1-8.5-4.2-14.5c0.1-5.1-0.1-10.3-0.7-15.4c-0.6-4.5-1.9-8.4-0.7-9.1c0.1,0.6,0.3,1.5,0.4,2.1s0.4,2.9,1.2,2.8
				c0-0.6,0-1.1-0.1-1.7c-0.1-0.5,0-1.1,0.3-1.5c0.7-0.5,1.4-0.9,2.3-1.2c1.4-0.4,3.9-1,5.3-1.3c0.7-0.1,1.4-0.3,2.1-0.4
				c0.6-0.1,1.2-0.1,1.8,0c0.3,0,0.6,0.2,0.8,0.5c0.1,0.2,0.1,0.4,0.1,0.7c0,0.4,0.1,0.8,0.2,1.2c0.1,0.2,0.2,0.4,0.4,0.3
				c0.1-0.1,0.2-0.2,0.2-0.4c0-0.7-0.2-1.2-0.3-2.1c0-0.4-0.1-0.9-0.2-1.3S448.1,337.6,448.1,337.2z"/>
			<path class="st4" d="M454.7,361.3c0.2,0.9,1.4,6.5-0.3,7.8s-3.2-3-3.2-3s-4.6-0.6-11,2.8c0.4,0.9-0.4,4.1-2.3,3.7s-3-6.9-3-7
				c0.1,5.8,0.6,10.3,4.2,14c4.5,4.6,12.8-0.1,15-4s2.4-6.7,1.1-12.6C455,362.4,454.9,361.8,454.7,361.3z"/>
			<path class="st4" d="M450.7,366.5c0.2,2.2,2.6,1.1,2.5-2s-2.5-10.1-2.8-15.4c-0.5-7.3-0.9-12-2.4-11.9c0,0.1,0,0.1,0,0.2l0.4,3
				c0.1,0.4,0.1,0.8,0.2,1.3c0.3,4.4,0.5,13.1,1.2,17.1C450.3,361.3,450.6,363.9,450.7,366.5z"/>
			<path class="st4" d="M440.9,368.7c-0.8-2.4-1.4-4.9-1.8-7.5c-0.8-4-3.3-11.9-4.5-16.1c-0.3-0.8-0.5-1.6-0.6-2.4
				c-0.1-0.6-0.3-1.4-0.4-2v-0.1c-0.9,0.5-0.5,3.9,0,5.7s1.1,3.7,1.7,6.2c1.5,5,1.8,12.6,2.8,15.5S441.5,370.8,440.9,368.7z"/>
			<path class="st3" d="M440,369.1c0.1,0,0.1,0,0.2-0.1c3.3-1.9,7.1-2.7,10.9-2.5c0.3,0,0.5-0.1,0.6-0.4c0-0.2-0.1-0.5-0.3-0.5
				c0,0-0.1,0-0.1,0c-4.1-0.3-8.1,0.6-11.6,2.6c-0.2,0.1-0.3,0.4-0.2,0.6c0,0,0,0,0,0C439.6,369,439.8,369.1,440,369.1z"/>
			<path class="st3" d="M438.5,364.5c0.1,0,0.1,0,0.2-0.1c3.7-2,7.9-2.9,12.2-2.8c0.3,0,0.5-0.2,0.6-0.4c0-0.2-0.1-0.5-0.4-0.5
				c0,0-0.1,0-0.1,0c-4.5-0.2-8.9,0.8-12.9,2.9c-0.2,0.1-0.3,0.4-0.2,0.6c0,0,0,0,0,0C438.1,364.5,438.3,364.5,438.5,364.5z"/>
			<path class="st3" d="M450.3,357.2c0.2,0,0.4-0.2,0.4-0.4c0.1-0.2-0.1-0.5-0.3-0.5c0,0,0,0-0.1,0c-6.5-1-12.6,2.6-12.9,2.8
				c-0.2,0.1-0.3,0.4-0.2,0.6c0,0,0,0,0,0c0.2,0.2,0.5,0.2,0.7,0.1c0,0,6-3.6,12-2.6C450.1,357.2,450.2,357.2,450.3,357.2z"/>
			<path class="st3" d="M449.6,353c0.2,0,0.3-0.2,0.4-0.4c0.1-0.2,0-0.5-0.3-0.5c0,0-0.1,0-0.1,0c-4.6-0.7-9.2,0.3-13.1,2.8
				c-0.2,0.1-0.3,0.4-0.2,0.6c0,0,0,0,0,0c0.2,0.2,0.5,0.2,0.7,0.1c3.6-2.3,8-3.2,12.2-2.6C449.5,353,449.6,353,449.6,353z"/>
			<path class="st3" d="M448.9,348.3c0.2,0,0.3-0.2,0.4-0.4c0.1-0.2,0-0.5-0.3-0.5c0,0-0.1,0-0.1,0c-6.7-1.3-12.9,2.8-13.2,3
				c-0.2,0.1-0.3,0.4-0.2,0.6c0,0,0,0,0,0.1c0.2,0.2,0.5,0.2,0.7,0.1c0.1,0,6.1-4,12.3-2.8C448.7,348.4,448.8,348.4,448.9,348.3z"/>
			<path class="st4" d="M437.2,189.7c4,33.8,7.4,82.3,7.4,82.3c0.3,2.7,2.2,7.2,3.7,20.3c1.6,13.8,2.3,49.9,2.3,49.9
				c-1.6,5.3-14.6,7.9-18.6,2.8c0,0-11.9-43.2-15.6-59.6c-3.8-16.8-7.8-41.8-7.8-41.8l-2.2,25c0,0,0.8,8.6,0.6,15.6
				c-0.2,8.1-6.3,54.4-6.3,54.4s-12.5,3.1-20.7-3c0,0-2.3-55.8-2.7-65.5c-0.8-19.2,2-58.6,2.2-83.4L437.2,189.7z"/>
			<path class="st6" d="M408.6,243.5l-4.4-24.9c0,0-9.4-1.2-14.3-5.5c0,0,3.2,5.7,12.1,7.8l4.4,22.6l0.1,24.9L408.6,243.5z"/>
		</g>
		<g id="freepik--Top--inject-19">
			<path class="st4" d="M392.3,119.5c-7.9,0.4-11.8,3-22.7,10.2c-9.5,6.2-27.9,17.6-27.9,17.6S339.6,163,349,163
				c3.7,0,8.9-0.9,15.1-4.1c8.7-4.5,16.7-9,16.7-9L392.3,119.5z"/>
			<path class="st16" d="M354.1,113c-0.9-2-1.5-3.6-2.2-5.2c-0.4-1.3-0.6-2.6-0.5-3.9c0-1.6-0.3-3.7,0.5-4s2.2,0.3,3,2
				s0.5,3.3,1.4,4.6s1.3,1.8,1.3,1.8L354.1,113z"/>
			<path class="st5" d="M350.2,97.7c-0.2-0.4-0.1-0.9,0.1-1.3c0.1-0.2,0.7-1.2,0.8-1.5c0.5-0.9,2-1.8,4.6-1.8
				c3.9-0.1,7.4,1.8,8.4,2.9s4.6,7.3,5.1,8.5c1.4,2.8,2.5,5.3,4,8.5c1.5,3,2.1,5,1.8,5.5l-0.8,1.5l-0.1,0.1
				c-1.1,0.5-2.3,0.7-3.5,0.7c-1.4,0.1-2.8-0.1-4.1-0.5c-0.9-0.3-2.7-2.3-5-5.6s-4.2-5.7-6.2-8.5C354.4,105,350.7,98.9,350.2,97.7z"
				/>
			<path class="st9" d="M374.2,120c0.1-0.3,0.8-1.4,0.8-1.4c0.3-0.5-0.3-2.5-1.8-5.5c-1.6-3.2-2.7-5.7-4-8.5
				c-0.6-1.2-4.2-7.3-5.1-8.5l-0.8,1.5c0.9,1.2,4.6,7.3,5.1,8.5c1.4,2.8,2.5,5.3,4,8.5C373.9,117.4,374.5,119.4,374.2,120z"/>
			<path class="st5" d="M354.9,94.5c-3.9,0.1-5.2,2-4.7,3.2s4.3,7.3,5.1,8.5c2,2.8,3.9,5.3,6.2,8.5s4.1,5.2,5,5.6
				c1.3,0.4,2.7,0.6,4.1,0.5c1.2,0.1,2.4-0.2,3.5-0.7c0.4-0.4-0.1-2.4-1.7-5.6s-2.7-5.7-4-8.5c-0.6-1.2-4.2-7.3-5.1-8.5
				S358.7,94.4,354.9,94.5z"/>
			<path class="st13" d="M354.9,94.5c-3.9,0.1-5.2,2-4.7,3.2s4.3,7.3,5.1,8.5c2,2.8,3.9,5.3,6.2,8.5s4.1,5.2,5,5.6
				c1.3,0.4,2.7,0.6,4.1,0.5c1.2,0.1,2.4-0.2,3.5-0.7c0.4-0.4-0.1-2.4-1.7-5.6s-2.7-5.7-4-8.5c-0.6-1.2-4.2-7.3-5.1-8.5
				S358.7,94.4,354.9,94.5z"/>
			<path class="st4" d="M348,100c-0.2-0.6-0.2-1.2,0.1-1.8c0.2-0.4,1.1-2,1.4-2.4c0.6-1.1,2.1-2,4.9-2c4.3-0.1,8.2,2,9.4,3.5
				c1,1.2,4.7,7.5,5.3,8.7c0.5,1.1,1,2.1,1.5,3.2c0.8,1.7,1.6,3.4,2.6,5.4c1.1,2.3,2.3,5.1,1.8,6c0,0.1-1.2,2.1-1.4,2.5
				c0,0.1-0.1,0.1-0.1,0.2c-0.5,0.5-2.3,0.7-3.7,0.8c-1.5,0.1-3.1-0.1-4.5-0.6c-1.6-0.6-4-3.7-5.7-6.1c-1.4-2-2.7-3.7-3.9-5.3
				c-0.8-1-1.5-2.1-2.3-3.2C352.4,107.5,348.6,101.2,348,100z"/>
			<path class="st3" d="M373.6,123l1.4-2.5c0.5-0.9-0.7-3.7-1.8-6c-1-2-1.8-3.7-2.6-5.4c-0.5-1-1-2.1-1.5-3.2
				c-0.6-1.3-4.3-7.5-5.3-8.7l-1.4,2.4c1,1.2,4.7,7.5,5.3,8.7c0.5,1.1,1,2.1,1.5,3.2c0.8,1.7,1.6,3.4,2.5,5.4
				C372.9,119.3,374.1,122.1,373.6,123z"/>
			<path class="st8" d="M369.7,123.9c1.4,0,3.2-0.3,3.7-0.8c0.8-0.7-0.5-3.7-1.7-6.2c-1-2-1.8-3.7-2.5-5.4c-0.5-1-1-2.1-1.5-3.2
				c-0.6-1.3-4.3-7.5-5.3-8.7c-1.2-1.5-5.1-3.6-9.4-3.5s-5.7,2.2-5,3.8c0.5,1.2,4.4,7.5,5.3,8.7c0.8,1.1,1.6,2.1,2.3,3.2
				c1.2,1.7,2.5,3.4,3.9,5.3c1.7,2.4,4.1,5.4,5.7,6.1C366.7,123.7,368.2,123.9,369.7,123.9z"/>
			<path class="st5" d="M348,101.6c-0.2-0.4-0.1-0.9,0.1-1.3c0.1-0.2,0.7-1.2,0.8-1.5c0.5-0.9,2-1.8,4.6-1.9c3.9-0.1,7.4,1.8,8.4,3
				s4.6,7.3,5.1,8.5c1.3,2.8,2.5,5.3,4,8.5c1.5,3,2.1,5,1.8,5.5c0,0-0.7,1.3-0.8,1.5l0,0c-1.1,0.5-2.3,0.7-3.5,0.7
				c-1.4,0.1-2.8-0.1-4.1-0.5c-0.9-0.3-2.7-2.3-5-5.5s-4.2-5.7-6.2-8.5C352.3,108.9,348.5,102.8,348,101.6z"/>
			<path class="st6" d="M372,123.9l0.8-1.4c0.3-0.5-0.3-2.5-1.8-5.5c-1.6-3.2-2.7-5.7-4-8.5c-0.6-1.2-4.2-7.3-5.1-8.5l-0.8,1.5
				c0.9,1.2,4.6,7.3,5.1,8.5c1.4,2.8,2.5,5.3,4,8.5C371.7,121.4,372.3,123.3,372,123.9z"/>
			<path class="st5" d="M352.7,98.4c-3.9,0.1-5.2,2-4.7,3.2s4.3,7.3,5.1,8.5c2,2.8,3.9,5.3,6.2,8.5s4.1,5.2,5,5.5
				c1.3,0.4,2.7,0.6,4.1,0.5c1.2,0.1,2.4-0.2,3.5-0.7c0.4-0.4-0.1-2.4-1.7-5.6s-2.7-5.7-4-8.5c-0.6-1.2-4.2-7.3-5.1-8.5
				S356.6,98.3,352.7,98.4z"/>
			<path class="st13" d="M352.7,98.4c-3.9,0.1-5.2,2-4.7,3.2s4.3,7.3,5.1,8.5c2,2.8,3.9,5.3,6.2,8.5s4.1,5.2,5,5.5
				c1.3,0.4,2.7,0.6,4.1,0.5c1.2,0.1,2.4-0.2,3.5-0.7c0.4-0.4-0.1-2.4-1.7-5.6s-2.7-5.7-4-8.5c-0.6-1.2-4.2-7.3-5.1-8.5
				S356.6,98.3,352.7,98.4z"/>
			<path class="st5" d="M363.1,99.6l0.8-1.5c0-0.1,0.1-0.1,0.1-0.1h0.6c0,0,0.1,0,0.1,0.1l1.5,2.4c0.1,0.1,0.1,0.3,0,0.4l-0.8,1.5
				c0,0-0.1,0.1-0.1,0.1h-0.6c-0.1,0-0.1,0-0.1-0.1l-1.5-2.4C363.1,99.9,363,99.8,363.1,99.6z"/>
			<path class="st6" d="M364.7,98.1l1.5,2.4c0.1,0.1,0.1,0.3,0,0.4l-0.8,1.5c-0.1,0.1-0.2,0.1-0.2,0l-1.5-2.4
				c-0.1-0.1-0.1-0.3,0-0.4l0.8-1.5C364.5,98,364.6,98,364.7,98.1z"/>
			<path class="st13" d="M363.1,100l1.5,2.4c0,0,0.1,0.1,0.1,0.1h0.5c0,0-0.1,0-0.1-0.1l-1.5-2.4c0-0.1-0.1-0.1-0.1-0.2h-0.6
				C363,99.9,363.1,99.9,363.1,100z"/>
			<path class="st5" d="M365.5,103.3l0.8-1.5c0-0.1,0.1-0.1,0.1-0.1h0.6c0.1,0,0.1,0,0.1,0.1l1.3,2.2c0.1,0.1,0.1,0.3,0,0.4
				l-0.8,1.5c0,0-0.1,0.1-0.1,0.1H367c0,0-0.1,0-0.1-0.1l-1.3-2.2C365.5,103.6,365.5,103.4,365.5,103.3z"/>
			<path class="st6" d="M367.1,101.8l1.3,2.2c0.1,0.1,0.1,0.3,0,0.4l-0.8,1.5c-0.1,0.1-0.2,0.1-0.2,0l-1.3-2.2
				c-0.1-0.1-0.1-0.3,0-0.4l0.8-1.5C366.9,101.8,367,101.7,367.1,101.8C367.1,101.8,367.1,101.8,367.1,101.8z"/>
			<path class="st13" d="M365.5,103.7l1.3,2.2c0,0.1,0.1,0.1,0.1,0.1h0.5c0,0-0.1,0-0.1-0.1l-1.3-2.2c0-0.1-0.1-0.1,0-0.2h-0.5
				C365.5,103.6,365.5,103.6,365.5,103.7z"/>
			<path class="st3" d="M348.2,96c-0.1-0.3-0.1-0.6,0.1-0.8c0.4-0.7,1.2-1.2,2-1.2c0.3,0,0.6,0.1,0.8,0.3l0.3,0.5
				c0.1,0.3,0.1,0.6-0.1,0.8c-0.2,0.4-0.5,0.6-0.9,0.8c-0.5,0.2-1,0.5-1.5,0.8C348.8,97,348.3,96.2,348.2,96z"/>
			<path class="st8" d="M351,95.1c-0.4,0.7-1.2,1.1-2,1.2c-0.3,0-0.6-0.1-0.8-0.3c-0.1-0.3-0.1-0.6,0.1-0.8c0.4-0.7,1.2-1.2,2-1.2
				c0.3,0,0.6,0.1,0.8,0.3C351.2,94.5,351.2,94.9,351,95.1z"/>
			<path class="st4" d="M347.6,94.6c-0.1-0.2-0.1-0.5,0.1-0.7c0.4-0.6,1-1,1.8-1.1c0.3,0,0.5,0.1,0.7,0.3l0.7,1.2
				c0.1,0.2,0.1,0.5-0.1,0.7c-0.4,0.6-1,1-1.8,1.1c-0.3,0-0.5-0.1-0.7-0.3L347.6,94.6z"/>
			<path class="st8" d="M350,93.9c-0.4,0.6-1,1-1.8,1.1c-0.3,0-0.5-0.1-0.7-0.3c-0.1-0.2-0.1-0.5,0.1-0.7c0.4-0.6,1-1,1.8-1.1
				c0.3-0.1,0.7,0.2,0.7,0.5C350.2,93.5,350.2,93.7,350,93.9L350,93.9z"/>
			<path class="st3" d="M360.6,94.4c-0.2-0.2-0.5-0.4-0.8-0.3c-0.8,0.1-1.6,0.5-2,1.2c-0.2,0.2-0.2,0.6-0.1,0.8l0.3,0.5
				c0.1,0.2,0.3,0.3,0.8,0.5c0.7,0.3,1.4,0.6,2,1c1,0.6,2,0.1,1.1-1.4C361.9,96.5,360.8,94.6,360.6,94.4z"/>
			<path class="st8" d="M358.6,96.5c0.8-0.1,1.6-0.5,2-1.2c0.2-0.2,0.2-0.6,0.1-0.8c-0.2-0.2-0.5-0.4-0.8-0.3
				c-0.8,0.1-1.6,0.5-2,1.2c-0.3,0.3-0.2,0.7,0.1,1C358.1,96.4,358.4,96.5,358.6,96.5L358.6,96.5z"/>
			<path class="st4" d="M349.1,80.2L349.1,80.2c-0.1-0.1-0.1-0.3,0-0.4c0.2-0.4,0.6-0.6,1.1-0.7c0.2,0,0.3,0,0.4,0.2l0,0
				c0.8,1.2,8.6,13.1,9.8,15.1l0,0c0.1,0.2,0.1,0.5-0.1,0.7c-0.4,0.6-1,1-1.8,1.1c-0.3,0-0.5-0.1-0.7-0.3l0,0
				C356.8,94,349.8,81.4,349.1,80.2z"/>
			<path class="st5" d="M348.8,79.7c-0.2-0.4-0.1-1,0.3-1.2c0.4-0.3,1-0.1,1.2,0.3c0,0,0,0,0,0l0,0l0.4,0.6c0.1,0.1,0.1,0.3,0,0.4
				c-0.2,0.4-0.6,0.6-1.1,0.7c-0.2,0-0.3,0-0.4-0.2L348.8,79.7z"/>
			<path class="st15" d="M353.2,123c0.6-1.6,0.7-3,0.6-7.2s-0.9-6.9-0.3-8.1s2.8-4.7,3.6-5.9c0.9-0.9,1.9-1.7,3-2.3
				c0.9-0.7,1.9-1.2,3-1.6c1.3-0.1,2.6,0,3.9,0.2c1.1,0.1,1,1.9-0.5,2.6s-2.5,0.8-3.6,1.8c-1.3,1.4-2.4,2.9-3.4,4.4
				c0,0,3.3-2.7,4.5-3.4c1.2-0.6,2.5-1.1,3.9-1.3c0.8-0.3,1.7-0.2,2.4,0.3c0.9,0.5,1.6,1.4,1.2,2.2c-0.3,0.5-0.7,0.9-1.1,1.2
				c0.5-0.1,1-0.2,1.5-0.1c0.7,0.4,1.2,1,1.2,1.8c0.1,0.8,0,1.1-0.3,1.3c0.5,0.1,0.9,0.3,1.3,0.6c0.7,0.6,0.9,1.6,0.4,2.4
				c-0.7,1-2.4,1.8-3.8,2.8c-0.4,0.2-0.7,0.5-1,0.8c-0.3,0.3-0.6,0.6-0.8,0.9c-0.2,0.4-0.3,0.8-0.3,1.2c0,0.6-0.1,1.2-0.1,1.7
				c0,0.5,0,0.9-0.1,1.4c-0.4,1.4-1.3,2.7-2.4,3.7c-1.3,1.3-1.8,2.9-2.5,6.5c-0.7,3.4-2.4,13.4-3,17.5s-1.2,8.1-6.1,10.7
				s-10.3,4-11.8-2.1s-1.2-13.5,0.3-16.5s4.5-7.3,6.4-10.4C351,128,352.2,125.6,353.2,123z"/>
			<path class="st16" d="M359.5,107c-0.8,0.8-1.9,1.2-3.1,1.3c1.5-0.5,2.9-1.4,4-2.7L359.5,107z"/>
			<path class="st16" d="M360.4,110.9c0.9-0.2,1.8-0.5,2.5-1.1c0.7-0.6,1.5-1.2,2.2-1.7c0.8-0.6,1.6-1,2.5-1.3
				c0.9-0.3,1.8-0.7,2.7-0.9c-0.9,0.4-1.7,0.8-2.6,1.2c-0.9,0.3-1.7,0.8-2.4,1.3c-0.8,0.5-1.5,1.1-2.3,1.7
				C362.3,110.6,361.4,110.9,360.4,110.9z"/>
			<path class="st16" d="M372.8,108.9c-1.5,1-3,1.8-4.5,2.7c-0.7,0.5-1.5,0.9-2.3,1.3c-0.8,0.4-1.7,0.6-2.5,0.7
				c0.8-0.2,1.7-0.6,2.4-1c0.8-0.4,1.5-0.9,2.2-1.4C369.7,110.5,371.2,109.7,372.8,108.9z"/>
			<path id="freepik--Chest--inject-19" class="st8" d="M420.3,118c3.5,0.7,7.9,1.6,12.4,2.8s7.4,2,11.4,4.3c0,0-0.1,17-3.4,32.3
				c-0.8,3.5-3.3,13.3-3.8,20.8c-0.6,7.8-0.3,15.6,0.6,23.4c0,0-11.5,8.6-36.2,6.7c-19.4-1.5-21.9-8.6-21.9-8.6s0.4-32.3,0.9-46.6
				c0.7-18.8,6.3-29.6,10.5-32.9l12.7-2.1L420.3,118z"/>
			<path class="st3" d="M437.6,197.3c-7.1,4.4-18.8,7.1-28.7,7.5s-19-1.3-23.3-3.7c-2.3-1.1-4.4-2.7-6.1-4.7l-0.3,8.2
				c0,0,7.1,6.7,26.2,7.3c17.9,0.6,32.9-7.4,32.9-7.4L437.6,197.3z"/>
			<path class="st8" d="M434.2,203.3c3.1,1.5,5.9,3.4,6.5,5.3c0.9,2.7,2.5,16.2,1,18.5s-13.6,8.6-16.7,8.9s-7.3-3.4-8.1-4.6
				s-1.9-18.3-1.8-19.6S434.2,203.3,434.2,203.3z"/>
			<g class="st17">
				<path d="M441.2,210.6c0.2,1.7,0.2,3.3-0.1,5c-0.3,1.6-1.1,3.1-2.4,4.1c-1.3,1-2.7,1.9-4.2,2.5c-1.5,0.7-3.1,1.2-4.7,1.4
					c-1.5,0.3-3.1,0.1-4.5-0.8c-1.3-1-2.2-2.3-2.6-3.9c-0.2-0.8-0.4-1.6-0.6-2.4c-0.3-0.9-0.7-1.6-1.4-2.2c-1.3-1.1-2.9-1.9-4.6-2.2
					c1.6,0.5,3,1.4,4.2,2.6c0.6,0.5,0.9,1.2,1.1,2c0.1,0.8,0.3,1.7,0.5,2.5c0.4,1.8,1.4,3.4,2.8,4.5c1.6,1,3.4,1.3,5.2,1
					c1.7-0.3,3.4-0.8,4.9-1.6c1.6-0.7,3.1-1.6,4.4-2.8c1.3-1.2,2.1-2.8,2.4-4.6C441.8,214,441.6,212.3,441.2,210.6z"/>
			</g>
			<path class="st5" d="M431,93c0,0.7-2.5,1.8-2.5,1.8l1.1-3.9L431,93z"/>
			<path class="st9" d="M431,93c0,0.7-2.5,1.8-2.5,1.8l1.1-3.9L431,93z"/>
			<g id="freepik--Head--inject-19">
				<path class="st4" d="M425.4,77.9c0,0,3,0.2,5,4c1,1.9,1.7,5.3-1,15.2c-1,3.8-2.6,7.5-4.8,10.9c-0.6,1.1-1.6,1.9-2.8,2.3l0.2-7.6
					l0.3-5.3c0,0-4.3-3.9-4.6-7.7c-0.4-2.6,0.1-5.3,1.4-7.7L425.4,77.9z"/>
				<path class="st4" d="M426.4,78.2c-0.7-4.3-6.1-9.3-16.6-9.9c-8.5-0.5-13.4,4-16.4,9c-1.8,2.9-1.9,6.4-0.5,9.5l26.2-1.3
					L426.4,78.2z"/>
				<path class="st15" d="M428.9,104.9c-3.9,1.9-5.7-1.2-5.7-1.2v16c-7.5,10.1-28.3,6.1-20-1.5v-3.6c-1.1,0-2.3-0.1-3.4-0.3
					c-3.5-0.6-5.6-2.2-6.7-6c-0.6-2.6-1-5.2-1.2-7.9c-0.2-4-0.3-7.6,0.7-10.3c0.7-1.9-0.1-4.5,0.4-6.9c0.4-1.8,1.2-3.8,2.9-4.7
					c4.2-2.1,8,0.9,13.9,3.2c2.4,0.9,8.3,1.4,9.8,0.6c-2,2.2-2,9.3,1,12.2c0.4,0.8,0.9,1.4,1.5,2c1.3,1.1,2.3-1.8,3.4-2.9
					c1.9-1.6,4.6-1.3,6.2,0.5c0.3,0.3,0.5,0.7,0.6,1c1.8,3.5,0.4,7.8-3.2,9.6C429,104.9,428.9,104.9,428.9,104.9z"/>
				<path class="st16" d="M403.2,114.7c4.6,0,8.6-0.6,11.3-1.7s5.1-4.8,5.9-8.4c0,2.9-1.3,8.1-5.4,10.2s-8.9,2.3-11.8,2.3
					L403.2,114.7z"/>
				<path class="st4" d="M418.8,91.7c1.1,2.1-0.1,8.8-2.2,9.7s-4.3-0.5-8.6-1.8c-3-1.1-6.3-1.2-9.4-0.4c-2,0.6-6,2.4-6.7,1.3
					c0.3,5,0.2,12.1,5.8,13.9c3.9,1.3,12.3,1.5,17.2-1.1s5.8-5.5,6.7-9.5c0.7-2.8,1.5-5.6,2.5-8.3L418.8,91.7z"/>
				<path class="st15" d="M398.9,103.9c0.2-0.8,0.7-1.6,1.3-2.2c2.1-1.8,5.2-1.8,7.3,0c0.8,0.8,1.4,1.9,1.5,3.1
					c0.2,2.2-2.8,3.1-4.2,1.7c-0.5-0.4-1.2-0.6-1.9-0.3c-0.2,0.1-0.4,0.2-0.6,0.4c-0.9,0.6-2,0.5-2.8-0.2
					C398.9,105.7,398.7,104.8,398.9,103.9z"/>
				<path class="st4" d="M409.5,86.3l3.9,1.6c0.4-1.1-0.1-2.3-1.1-2.8c-1-0.4-2.2,0-2.6,1C409.5,86.2,409.5,86.3,409.5,86.3z"/>
				<path class="st4" d="M394.9,87.7l3.9-1.6c-0.3-1.1-1.5-1.6-2.5-1.3c-0.1,0-0.1,0-0.2,0.1C395,85.3,394.5,86.6,394.9,87.7z"/>
				<path class="st3" d="M411.9,90.9c0,0.9-0.8,1.7-1.8,1.6c-0.9,0-1.7-0.8-1.6-1.8c0-0.9,0.8-1.7,1.8-1.6c0,0,0,0,0,0
					C411.2,89.1,411.9,89.9,411.9,90.9z"/>
				<path class="st3" d="M398.8,90.5c0,0.9-0.8,1.7-1.8,1.7c-0.9,0-1.7-0.8-1.7-1.8s0.8-1.7,1.8-1.7c0,0,0,0,0,0
					C398.1,88.8,398.8,89.6,398.8,90.5C398.8,90.5,398.8,90.5,398.8,90.5z"/>
				<path class="st16" d="M405.5,86.8l-1.4,10.9l-5.7-2.1C400.1,92.1,402.5,89.1,405.5,86.8z"/>
				<path class="st18" d="M406.1,101.8l-4.4,1.5c0.3,1.2,1.6,1.9,2.8,1.6c0,0,0.1,0,0.1,0C405.9,104.4,406.5,103.1,406.1,101.8z"/>
				<path class="st19" d="M405.7,102.6c0.2,0,0.4-0.1,0.6-0.1c0,1-0.6,1.9-1.6,2.3c-0.2,0.1-0.5,0.1-0.7,0.1
					C403.8,103.8,404.6,102.8,405.7,102.6z"/>
			</g>
			<path class="st5" d="M432.5,87.4c-0.2,1.9-0.7,3.8-1.5,5.6c-0.4-0.6-0.9-1.1-1.4-1.6c-2.9-2.9-6.2-5.3-9.9-7l0,0
				c-8.5-4.2-19.1-5.7-27.6-3.6c0.3-1.7,0.9-3.3,1.6-4.8c5.2-10.1,17.6-14.1,27.7-8.9C428.9,71,433.3,79,432.5,87.4L432.5,87.4z"/>
			<path class="st5" d="M424.1,67.2c-1-0.5-6.1-2.2-6.6-2.3c-2.7-0.9-7-0.9-11.4,2.5c-3.5,2.7-6,6.5-7.1,10.8l5.5,1.8l1.8,0.2
				c0.7-3.9,6.2-12.3,13.7-12.5c0.3,0,0.7,0,1,0c1,0.1,2,0.3,2.9,0.6c1,0.7,2,1.5,2.9,2.3C426.4,69.2,425.5,67.9,424.1,67.2z"/>
			<path class="st20" d="M424.1,67.2c-1-0.5-6.1-2.2-6.6-2.3c-2.7-0.9-7-0.9-11.4,2.5c-3.5,2.7-6,6.5-7.1,10.8l5.5,1.8l1.8,0.2
				c0.7-3.9,6.2-12.3,13.7-12.5c0.3,0,0.7,0,1,0c1,0.1,2,0.3,2.9,0.6c1,0.7,2,1.5,2.9,2.3C426.4,69.2,425.5,67.9,424.1,67.2z"/>
			<path class="st5" d="M406.1,80.3c0.9-4.6,8.2-15.3,17.6-11.8c1,0.7,2,1.5,2.9,2.3c-0.2-1.6-1.1-2.9-2.5-3.6
				c-2.4-1.2-7.4-1.9-12.6,2.1c-3.5,2.7-6,6.5-7.1,10.8L406.1,80.3z"/>
			<path class="st9" d="M406.1,80.3c0.9-4.6,8.2-15.3,17.6-11.8c1,0.7,2,1.5,2.9,2.3c-0.2-1.6-1.1-2.9-2.5-3.6
				c-2.4-1.2-7.4-1.9-12.6,2.1c-3.5,2.7-6,6.5-7.1,10.8L406.1,80.3z"/>
			<path class="st5" d="M419.9,82.8c-2.2-3.5-5.3-6.3-9-8.2c-4.2-2.3-12.8-2.6-16.6-2.7c-6.8,0-8.4,1.3-8.5,2.3
				c0,0.2-0.1,1.3-0.2,1.5c0,0.2,0,0.4,0.1,0.6c1,1.5,6.4,4.3,6.4,4.3c8.5-2.1,19-0.5,27.6,3.6L419.9,82.8z"/>
			<path class="st21" d="M419.9,82.8c-2.2-3.5-5.3-6.3-9-8.2c-4.2-2.3-12.8-2.6-16.6-2.7c-6.8,0-8.4,1.3-8.5,2.3
				c0,0.2-0.1,1.3-0.2,1.5c0,0.2,0,0.4,0.1,0.6c1,1.5,6.4,4.3,6.4,4.3c8.5-2.1,19-0.5,27.6,3.6L419.9,82.8z"/>
			<path class="st5" d="M419.7,84.4c-8.5-4.2-19.1-5.7-27.6-3.6c0,0-5.4-2.7-6.4-4.3c-0.5-0.8,0-3,8.4-2.9c3.9,0,12.5,0.3,16.6,2.7
				C414.4,78.1,417.5,80.9,419.7,84.4z"/>
			<path class="st9" d="M419.7,84.4c-8.5-4.2-19.1-5.7-27.6-3.6c0,0-5.4-2.7-6.4-4.3c-0.5-0.8,0-3,8.4-2.9c3.9,0,12.5,0.3,16.6,2.7
				C414.4,78.1,417.5,80.9,419.7,84.4z"/>
			<path class="st5" d="M423.2,118.6L423.2,118.6L423.2,118.6z M414.6,172.6c0,14.3,1.1,40.4,1.1,40.4s8.4,1.3,15.9-1.6
				s8.4-6.5,8.4-6.5s-1.5-13.8-1.5-21.7c0.1-9.1,1.2-18.2,3.3-27.1c2.3-9.8,2.7-31,2.7-31c-2.7-1.5-5.6-2.7-8.5-3.6
				c-4.4-1.3-12.2-2.8-12.8-2.9c0.1,0.2-0.1,1.8-3.4,12C415.7,143.7,414.6,158.3,414.6,172.6L414.6,172.6z"/>
			<path class="st22" d="M438.7,180.1c-0.1,1.1-0.1,2.1-0.1,3.2v0.5c-7,3.3-16,4.5-23.7,4.4c0-1.1-0.1-2.1-0.1-3.2
				C422.7,185.1,431.8,183.8,438.7,180.1z"/>
			<path class="st22" d="M415.1,196c7.8,0.1,16.9-1.2,23.8-4.9c0.1,1.2,0.2,2.4,0.2,3.5c-7,3.5-16.1,4.7-23.9,4.6
				C415.2,198.1,415.2,197.1,415.1,196z"/>
			<path class="st5" d="M403.1,118.2c0,0-8.4,6.7-11.8,20.9c-2.7,11.3-2.8,25.4-3.4,42.6s-0.1,27.3-0.1,27.3s-7.2-1.2-9.4-4.8
				c0.7-21.2,1.1-41.8,1.1-49.7c0.2-8.3,1.6-16.6,4.1-24.5c1.3-4,3.7-7.6,6.8-10.4L403.1,118.2z"/>
			<path class="st22" d="M387.9,183.7c0,1.1-0.1,2.2-0.1,3.2c-1.7-0.3-3.4-0.7-5.1-1.2c-1.2-0.4-2.5-0.9-3.6-1.5
				c0-1.2,0-2.4,0.1-3.6c0.8,0.5,1.6,0.9,2.4,1.3C383.6,182.7,385.7,183.3,387.9,183.7z"/>
			<path class="st22" d="M382.7,196.4c-1.3-0.4-2.7-1-3.9-1.6c0-1.2,0.1-2.4,0.1-3.7c0.9,0.5,1.7,1,2.7,1.4c2,0.8,4.1,1.5,6.2,1.8
				c0,1.1,0,2.2,0,3.2C386,197.4,384.3,196.9,382.7,196.4z"/>
			<polygon class="st5" points="357,160.7 396,170.7 410.4,214.8 409.6,215.8 372.5,205.5 356.2,161.7 			"/>
			<polygon class="st23" points="395.2,171.7 409.6,215.8 410.4,214.8 396,170.7 			"/>
			<polygon class="st24" points="356.2,161.7 395.2,171.7 409.6,215.8 372.5,205.5 			"/>
			<g class="st25">
				<path d="M368.4,169.9l-0.5-1.5c-0.2-0.8,2-0.6,5,0.5l7,1.5c3,1.1,5.9,1.9,6.1,2.7l0.4,1.5L368.4,169.9z"/>
			</g>
			<path class="st4" d="M365.5,163.3c-0.1-0.5,0.7-0.5,2-0.3l2.2,0.6c0,0-1.1-2.1,4.2-1.2c5.8,1,6.2,3.9,6.2,3.9
				c0.9,0.3,1.9,0.6,2.8,0.8c1.9,0.4,2.2,0.8,2.4,1.3l0.4,0.9l-19.9-5.1C365.8,164.2,365.7,163.8,365.5,163.3z"/>
			<path class="st4" d="M367.8,166c1.9,0.6,2.6,1,3,2.2c0.4,1.4,0.6,2.1,0.6,2.1l10.4,3.1c0,0-0.7-2.1-0.9-2.8s1.1-0.8,2.9-0.2
				l-0.6-1.8l-16.1-4.4L367.8,166z"/>
			<path class="st4" d="M367.9,170c0,0-0.2-0.7-0.4-1.5s2-0.6,5,0.5l7,1.5c3,1.1,5.9,1.9,6.1,2.7l0.4,1.5L367.9,170z"/>
			<path class="st15" d="M455,142.9c-3.5-14.2-7.5-17.5-15.6-19c-7.2,11.5-3.1,29.4-3.1,29.4l4.9,21.8c-1.3,1.2-21.3,14-24.8,15.2
				c-1.3,0.4-3.7,0-5-0.4c-3.5-1.1-5.9-0.7-9.2-0.5l1.5,4.7c-1.4,0.5-2.8,0.9-4.3,1.1c-2.3,0.3-4.7,0.4-7,0.1
				c-2.1-0.2-4.4-0.6-6.2,0.6c-0.4,0.3-0.8,0.8-0.7,1.2s0.5,0.5,0.7,0.7c0.7,0.5,1.3,1.2,1.6,2c0.5,1.6,1.5,2.9,2.8,3.8
				c3,2.5,6.7,4.1,10.7,4.4c0.9,0.2,1.8,0.3,2.6,0.3c3.5-0.1,6.7-1.2,10-2.2c4-1.2,6.3-2.3,9.6-3.4c2.2-0.7,6.4-2.3,8.5-3.1
				c12.5-4.7,29.5-10.8,30.4-16.8S458.7,157.6,455,142.9z"/>
			<path class="st4" d="M439.5,122.9c9.2,2.8,11,4.1,13.7,11.4c2.6,7.1,7.8,29.2,8.5,34.5c-4.2,4.2-17.1,6.8-21.7,3.8l-4.3-18.9
				C434.1,147.4,431.2,133,439.5,122.9z"/>
		</g>
	</g>
</g>
<g id="freepik--character-2--inject-19">
	<g id="freepik--chartacter--inject-19">
		<g id="freepik--bottom--inject-19">
			<path class="st26" d="M260.1,369.7l-1.6-15l17.1,1.1c0,0-0.3,8.1-0.5,12.7c-0.1,2.7,3.5,7.8,3.5,7.8s-8,4.3-12.4,2.8
				s-6.6-6.9-6.5-8S260.1,369.7,260.1,369.7z"/>
			<path class="st3" d="M301.4,393.1c0.3,0,0.7,2.8-0.7,4c-1.7,1.4-6.6,3.7-13.2,3s-10.2-2.5-12.8-4.5s-6.4-4.9-9.4-5.4
				c-2.8-0.5-5.8-1.6-6.7-2.4s-0.8-4.3-0.8-4.3L301.4,393.1z"/>
			<path class="st8" d="M260.1,369.6c-0.5,0-0.9,0.4-1,0.9c-0.2,1-0.4,3.8-0.8,5.4c-0.6,2.8-0.8,5.8-0.5,8.6c0.4,1.8,4.9,3,7.8,4
				c3.4,1.3,6.6,3.1,9.4,5.4c3.1,2.3,9.7,4.7,14,4.6c5.1-0.1,10.8-1.8,12-4c1.6-2.7,2.7-5.9-4.9-9.1c-1.4-0.6-6.5-3.3-8.2-4.2
				c-4.7-2.6-7.9-5.1-10.1-9.8c-0.2-0.6-0.6-1.1-1.1-1.5c-0.5-0.2-1-0.2-1.5-0.1c-1.2,0.2-6.2,0.9-7.4,1.5s-2.4,1-2.4,2.2
				c0,0.4,0.1,0.8,0.3,1.2c0.1,0.2,0.2,0.6-0.1,0.7s-0.5,0-0.7-0.2c-0.7-0.7-1.4-1.5-2-2.3c-0.4-0.4-0.8-0.8-1.2-1.1
				c-0.4-0.2-0.9-0.5-1.3-0.8C260,370.7,260.1,370.2,260.1,369.6z"/>
			<path class="st4" d="M275.1,393.9c-1.3-1-2.7-1.9-4.1-2.8l0,0c0,0,8.9,4.9,12.5,2.5c2.3-1.5,1.2-3.3,1.1-3.9s8-4.7,10.2-5l0,0
				c0.6,0.3,1.1,0.6,1.5,0.7c7.6,3.1,6.4,6.3,4.9,9.1c-1.3,2.2-5.4,4-11.9,4.1C284.8,398.7,278.2,396.2,275.1,393.9z"/>
			<path class="st4" d="M283.8,388.1c4.7,1.7,2.7,2.5,1.4,2.7s-9.2-4-14.1-7.4c-5.1-3.6-8.3-7.6-10.2-9c-0.7-0.5-1.5-1.1-2.1-1.7
				c0.1-1,0.2-1.8,0.3-2.3c0.1-0.5,0.5-0.9,1-0.9c0,0.6-0.1,1.1,0.4,1.5c0.4,0.3,0.9,0.5,1.3,0.8c0.4,0.3,0.8,0.7,1.2,1.1
				c0.6,0.8,1.3,1.5,2.1,2.2C269.2,380,279.1,386.5,283.8,388.1z"/>
			<path class="st3" d="M284.9,390.2c-0.1,0-0.2,0-0.3-0.1c-0.2-0.1-0.2-0.4-0.1-0.6c0,0,0,0,0,0c1.3-1.5,7.5-5.2,10.9-4.9
				c0.2,0,0.4,0.2,0.4,0.5c0,0.2-0.2,0.4-0.5,0.4c-3.2-0.3-9.1,3.4-10.1,4.6C285.2,390.2,285,390.2,284.9,390.2z"/>
			<path class="st3" d="M280.8,387.9c-0.1,0-0.2,0-0.3-0.1c-0.2-0.1-0.2-0.4-0.1-0.6c0,0,0,0,0,0c1.3-1.5,7.5-5.2,10.9-4.9
				c0.2,0,0.4,0.2,0.4,0.5c0,0.3-0.3,0.4-0.5,0.4c-3.2-0.3-9.1,3.4-10.1,4.6C281,387.9,280.9,387.9,280.8,387.9z"/>
			<path class="st3" d="M276.7,385.8c-0.1,0-0.2,0-0.3-0.1c-0.2-0.1-0.2-0.4-0.1-0.6c0,0,0,0,0,0c1.3-1.5,7.5-5.2,10.9-4.9
				c0.2,0,0.4,0.2,0.4,0.4c0,0,0,0,0,0c0,0.2-0.3,0.4-0.5,0.4c-3.2-0.3-9.1,3.4-10.1,4.6C276.9,385.7,276.8,385.8,276.7,385.8z"/>
			<path class="st3" d="M272.8,383.3c-0.1,0-0.2,0-0.3-0.1c-0.2-0.1-0.2-0.4-0.1-0.6c0,0,0,0,0,0c1.3-1.5,7.5-5.2,10.9-4.9
				c0.2,0,0.4,0.2,0.4,0.4c0,0,0,0,0,0c0,0.2-0.2,0.4-0.5,0.4c0,0,0,0,0,0c-3.2-0.3-9.1,3.4-10.1,4.6
				C273.1,383.2,273,383.3,272.8,383.3z"/>
			<path class="st3" d="M269.1,380.8c-0.1,0-0.2,0-0.3-0.1c-0.2-0.1-0.2-0.4-0.1-0.6c0,0,0,0,0,0c1.8-2.2,8.3-5.3,11.7-5
				c0.2,0,0.4,0.2,0.4,0.4c0,0,0,0,0,0c0,0.2-0.3,0.4-0.5,0.4c-3.1-0.3-9.3,2.7-10.9,4.6C269.4,380.8,269.2,380.8,269.1,380.8z"/>
			<path class="st26" d="M226.2,377.8l3.9-14.2l-17.5-2.6l-0.8,13.7c0,0-1.9,4.9-0.8,6.7s12.7,3.9,13.7,2.7S226.2,377.8,226.2,377.8
				z"/>
			<path class="st3" d="M224.4,408.8c-0.6,4.4-1.5,7.2-3.5,9.6s-5.3,2.7-8.7,1.5s-7.6-3.8-8.3-7.8s-0.4-6.5,0.7-10.6L224.4,408.8z"
				/>
			<path class="st8" d="M211.9,374.7c-1.4-0.1-1.1,6-2.3,11.8c-1.3,6.3-3.6,8.6-4.7,13.8c-1.3,5.9-1.1,8.6,1.1,12.5s10.3,8.6,14.7,4
				c3.6-3.8,4.1-8.4,4.1-14.5c-0.1-5.1,0.1-10.2,0.6-15.2c0.6-4.5,1.9-8.4,0.7-9c-0.1,0.6-0.3,1.5-0.4,2.1c-0.1,0.5-0.4,2.9-1.2,2.8
				c0-0.6,0-1.1,0.1-1.7c0.1-0.5,0-1.1-0.3-1.5c-0.7-0.5-1.4-0.9-2.2-1.2c-1.4-0.4-3.8-1-5.2-1.3c-0.7-0.1-1.4-0.3-2.1-0.4
				c-0.6-0.1-1.2-0.1-1.8,0c-0.3,0-0.6,0.2-0.8,0.5c-0.1,0.2-0.1,0.4-0.1,0.7c0,0.4-0.1,0.8-0.2,1.2c-0.1,0.2-0.2,0.4-0.4,0.3
				s-0.2-0.2-0.2-0.4c0-0.7,0.2-1.2,0.3-2.1c0-0.4,0.1-0.9,0.2-1.3S211.9,375.1,211.9,374.7z"/>
			<path class="st4" d="M205.3,398.6c-0.2,0.9-1.4,6.5,0.3,7.7s3.1-3,3.1-3s4.5-0.6,10.9,2.8c-0.4,0.9,0.4,4.1,2.2,3.7
				s2.9-6.9,2.9-7c-0.1,5.8-0.6,10.3-4.1,13.9c-4.4,4.6-12.6-0.1-14.7-4s-2.3-6.7-1.1-12.5C205,399.6,205.2,399.1,205.3,398.6z"/>
			<path class="st4" d="M209.3,403.8c-0.2,2.1-2.5,1.1-2.4-2s2.4-10.1,2.7-15.3c0.5-7.2,0.9-11.9,2.3-11.8c0,0.1,0,0.1,0,0.2l-0.4,3
				c-0.1,0.4-0.1,0.8-0.2,1.3c-0.3,4.4-0.5,13-1.2,17C209.7,398.7,209.4,401.2,209.3,403.8z"/>
			<path class="st4" d="M218.9,405.9c0.8-2.4,1.4-4.9,1.8-7.4c0.7-3.9,3.2-11.8,4.4-16c0.3-0.8,0.5-1.6,0.6-2.4
				c0.1-0.6,0.3-1.3,0.4-2V378c0.9,0.5,0.5,3.9,0,5.7s-1.1,3.7-1.7,6.2c-1.5,5-1.8,12.5-2.7,15.4S218.3,408,218.9,405.9z"/>
			<path class="st3" d="M219.8,406.3c-0.1,0-0.1,0-0.2-0.1c-3.2-1.8-7-2.7-10.7-2.5c-0.3,0-0.5-0.1-0.6-0.4c0-0.2,0.1-0.5,0.3-0.5
				c0,0,0.1,0,0.1,0c4-0.3,8,0.6,11.4,2.6c0.2,0.1,0.3,0.4,0.2,0.6c0,0,0,0,0,0C220.2,406.3,220,406.3,219.8,406.3z"/>
			<path class="st3" d="M221.2,401.8c-0.1,0-0.1,0-0.2-0.1c-3.7-2-7.8-2.9-12-2.7c-0.3,0-0.5-0.2-0.6-0.4c0-0.2,0.1-0.5,0.4-0.5
				c0,0,0,0,0.1,0c4.4-0.2,8.8,0.8,12.6,2.9c0.2,0.1,0.3,0.4,0.2,0.6c0,0,0,0,0,0C221.6,401.7,221.4,401.8,221.2,401.8z"/>
			<path class="st3" d="M209.7,394.5c-0.2,0-0.4-0.2-0.4-0.4c-0.1-0.2,0.1-0.5,0.3-0.5c0,0,0.1,0,0.1,0c6.4-1,12.4,2.6,12.6,2.8
				c0.2,0.1,0.3,0.4,0.2,0.6c0,0,0,0,0,0c-0.2,0.2-0.5,0.3-0.7,0.1c-0.1,0-5.9-3.6-11.8-2.6C209.9,394.6,209.8,394.5,209.7,394.5z"
				/>
			<path class="st3" d="M210.4,390.4c-0.2,0-0.3-0.2-0.4-0.4c-0.1-0.2,0-0.4,0.2-0.5c0,0,0.1,0,0.1,0c4.5-0.7,9.1,0.3,12.9,2.8
				c0.2,0.1,0.3,0.4,0.2,0.6c0,0,0,0,0,0c-0.2,0.2-0.5,0.2-0.7,0.1c-3.6-2.3-7.8-3.2-12-2.6C210.5,390.4,210.4,390.4,210.4,390.4z"
				/>
			<path class="st3" d="M211.1,385.7c-0.2,0-0.3-0.2-0.4-0.4c-0.1-0.2,0-0.5,0.3-0.5c0,0,0.1,0,0.1,0c6.6-1.3,12.7,2.8,13,2.9
				c0.2,0.1,0.3,0.4,0.2,0.6c0,0,0,0,0,0c-0.2,0.2-0.5,0.2-0.7,0.1c-0.1,0-6-3.9-12.1-2.8C211.3,385.7,211.2,385.7,211.1,385.7z"/>
			<path class="st8" d="M220.6,228.3c-3.3,34.8-4.6,81.2-4.6,81.2c-0.3,2.6-2.3,10.5-4,23.5c-1.5,11.6,0,35.6,0,37.1
				c0,0,8.2,5.8,15.9,3.3c0,0,9.5-35.8,13.6-51.9c4-15.3,9.2-39.9,9.2-39.9l3,25c0,0-0.7,10.1-0.6,17c0.2,8.1,5.9,40.2,5.9,40.2
				s9.2,5.2,17.2-0.9c0,0,3.4-46.9,3.8-56.6c0.8-19.1,0-56.7-0.3-81.4L220.6,228.3z"/>
			<path class="st3" d="M250.6,281.5l4.4-24.7c0,0,9.2-1.2,14-5.5c0,0-3.1,5.7-11.9,7.8l-4.3,22.5l0.8,24.9L250.6,281.5z"/>
			<path class="st5" d="M211.4,370.3c1.9,2.6,9.8,5,16.6,2.8l1.6-5.7c-5.2,1.6-14,0.5-18.1-3L211.4,370.3z"/>
			<path class="st5" d="M258.8,364.1c2.3,2.2,11,3.5,17.4,0.1l0.4-5.5c-4.8,2.5-14,2.7-18.7,0L258.8,364.1z"/>
		</g>
		<g id="freepik--top--inject-19">
			<path class="st27" d="M268,158.4c8.7,2,10.2,3.6,13.1,8.6s10.1,20.5,10.1,20.5s0.9-0.6,3,4.4s1.5,5.7,1.5,5.7
				c-3-0.2-6,0.9-8.2,2.9c-3.8,3.4-7.2,10.1-7.2,10.1s-0.9-0.5-3.1-3.7s-16.8-26.4-16.8-26.4L268,158.4z"/>
			<path class="st7" d="M281.4,192.4c1.2-0.9,2.6-1.7,4-2.4c0.7-0.3,1.4-0.6,2.1-0.9c0.8-0.2,1.6-0.5,2.4-0.8c0.2-0.1,0-0.5-0.2-0.5
				c-0.9,0.1-1.7,0.3-2.5,0.6c-0.8,0.3-1.6,0.6-2.4,1c-1.6,0.7-3,1.7-4.3,2.8c-2.4,2-4.6,5-4.3,8.3c0,0.1,0.2,0.3,0.2,0.1
				c0.4-1.7,1-3.3,1.9-4.7C279.1,194.5,280.2,193.3,281.4,192.4z M290.9,192.2c-0.8,0-1.5,0.1-2.2,0.4c-0.7,0.2-1.4,0.4-2.1,0.7
				c-1.4,0.5-2.8,1.3-4,2.1c-1.2,0.8-2.2,1.8-3.1,3c-0.5,0.6-0.8,1.3-1,2.1c-0.3,0.8-0.5,1.5-0.6,2.4c0,0.1,0.1,0.2,0.1,0.1
				c0.3-0.7,0.6-1.4,0.9-2.1c0.3-0.7,0.7-1.4,1.2-2c0.9-1.1,2-2.1,3.2-2.9c1.2-0.8,2.4-1.4,3.7-1.9c0.7-0.3,1.3-0.5,2-0.7
				c0.7-0.1,1.4-0.4,2-0.6C291,192.4,291,192.2,290.9,192.2L290.9,192.2z"/>
			<path class="st26" d="M306,164.2c-0.1,4.8-1.5,6.4-4.5,10.1l14.6,3.3c4.6-4.9,6.3-9.7,2.6-16.2l-7.7-9.4
				C311,151.9,306,161.2,306,164.2z"/>
			<g id="freepik--Hammer--inject-19">
				<path class="st5" d="M322.9,171.8c2-0.5,3.6-1.8,4.4-3.7c0.3-0.7,0.3-1.5-0.2-2.1l-14.3-17.1l-6.3,5.3l14.3,17.1
					C321.4,171.8,322.2,172,322.9,171.8z"/>
				<path class="st5" d="M309.1,156.1c2.3-0.5,4.2-2.1,5.1-4.3c0.4-0.8,0.3-1.7-0.2-2.4l-0.9-1.1l-7.2,6.1l0.9,1.1
					C307.4,156.1,308.3,156.3,309.1,156.1z"/>
				<path class="st13" d="M309.1,156.1c2.3-0.5,4.2-2.1,5.1-4.3c0.4-0.8,0.3-1.7-0.2-2.4l-0.9-1.1l-7.2,6.1l0.9,1.1
					C307.4,156.1,308.3,156.3,309.1,156.1z"/>
				<path class="st5" d="M313.3,150.7c0.7-2-0.4-3.3-2.5-2.9c-2.3,0.5-4.2,2.1-5.1,4.3c-0.7,2,0.4,3.3,2.5,2.9
					C310.5,154.4,312.4,152.8,313.3,150.7z"/>
				<path class="st8" d="M308.9,152.9c1-0.2,1.8-0.9,2.2-1.9c0.2-0.3,0.1-0.7-0.1-1l-19.3-23l-3.1,2.6l19.3,23
					C308.2,152.9,308.6,153,308.9,152.9z"/>
				<path class="st4" d="M290.8,127.9l1-0.9l19.3,23c0.2,0.3,0.2,0.7,0.1,1c-0.1,0.2-0.2,0.5-0.4,0.7L290.8,127.9z"/>
				<path class="st8" d="M278.1,123.5c0.2-0.7,0.7-1.4,1.2-1.9c1.3-1.3,2.9-2.1,4.7-2.4c0.3-0.1,0.8-0.2,1.1-0.2l4.2-0.7
					c0.4,0,0.7,0,1.1,0.1l0.7,0.2c0.4,0.1,0.7,0.2,1.1,0.1l2.2-0.2c0.3,0,0.7,0.1,0.8,0.4l1.1,2.3c0,0.1,0,0.2,0,0.3
					c0,0.1-1.8,4.9-1.8,5c0,0.2-0.2,0.3-0.4,0.3l-1,0.2c-0.3,0.1-0.6,0.3-0.8,0.6l-0.3,0.9c-0.1,0.3-0.4,0.6-0.8,0.6l-5.2,0.9
					c-0.4,0-0.7-0.1-1-0.3c-0.9-1-2-1.7-3.3-2.1c-2.4-0.3-4.6,1-5.5,3.2c-0.3-0.8-0.3-1.7,0-2.6
					C276.5,127.9,277.6,124.9,278.1,123.5z"/>
				<path class="st4" d="M294.1,127l-1,0.2c-0.3,0.1-0.6,0.3-0.8,0.6l-0.3,0.9c-0.1,0.3-0.4,0.6-0.8,0.6l-5.2,0.9
					c-0.4,0-0.7-0.1-1-0.3c-0.9-1-2-1.7-3.3-2.1c-2.4-0.3-4.6,1-5.5,3.2c-0.5-1.6,0-3.3,1.2-4.3c1.3-1.3,2.9-2.1,4.7-2.4l1.1-0.2
					l4.2-0.7c0.4-0.1,0.8,0,1.1,0.1l0.7,0.2c0.4,0.1,0.7,0.1,1.1,0.1l2.2-0.2c0.3,0,0.7,0.1,0.8,0.4l1.1,2.3
					c0.1,0.2,0.1,0.4-0.1,0.6C294.2,127,294.1,127,294.1,127z"/>
				<path class="st3" d="M293.1,126.4c-1.5-2-2-4.6-1.2-7c0.2-0.9,0.9-1.6,1.8-1.8l4-0.7l1.7,9.8l-4,0.7
					C294.5,127.5,293.6,127.2,293.1,126.4z"/>
				<path class="st8" d="M295.9,118.8c0.8-2.1,2.6-2.4,4-0.7c1.5,2,2,4.6,1.2,7c-0.8,2.1-2.6,2.4-4,0.7
					C295.6,123.8,295.1,121.2,295.9,118.8z"/>
				<path class="st3" d="M284.3,122.4c0.6-0.1,1.2-0.6,1.4-1.2c0.1-0.2,0.1-0.5-0.1-0.7l-0.7-0.8l-2,1.7l0.7,0.8
					C283.9,122.4,284.1,122.5,284.3,122.4z"/>
				<path class="st4" d="M285.1,120.4c0.2-0.6-0.1-0.9-0.7-0.8c-0.6,0.1-1.2,0.6-1.4,1.2c-0.2,0.6,0.1,0.9,0.7,0.8
					C284.3,121.4,284.8,121,285.1,120.4z"/>
				<path class="st4" d="M277.1,126.2c0.8-1.2,2-2.3,3.3-3c-1.1,0.2-2,0.8-2.8,1.6L277.1,126.2z"/>
				<path class="st6" d="M324.5,169.2L324.5,169.2c0.3-0.3,0.4-0.7,0.1-1.1c0,0,0,0,0,0l-10.8-12.9c-0.3-0.3-0.8-0.4-1.1-0.1l0,0
					c-0.3,0.3-0.4,0.8-0.1,1.1l10.8,12.9C323.7,169.5,324.2,169.5,324.5,169.2z"/>
				<path class="st6" d="M322.2,170.6L322.2,170.6c0.2,0,0.4-0.3,0.3-0.5c0-0.1-0.1-0.2-0.1-0.2l-11-13.1c-0.3-0.3-0.7-0.4-1.1-0.3
					l0,0c-0.2,0-0.4,0.3-0.3,0.5c0,0.1,0.1,0.2,0.1,0.2l11,13C321.4,170.6,321.9,170.7,322.2,170.6z"/>
				<path class="st6" d="M326.2,167.2L326.2,167.2c-0.1,0.2-0.3,0.3-0.6,0.3c-0.1,0-0.2-0.1-0.2-0.2l-11-13
					c-0.3-0.3-0.3-0.8-0.1-1.1l0,0c0.1-0.2,0.3-0.3,0.6-0.3c0.1,0,0.2,0.1,0.2,0.2l11,13C326.4,166.4,326.4,166.8,326.2,167.2z"/>
			</g>
			<path class="st26" d="M306,164.2c0-1.2,0.1-2.3,0.2-3.5c0.2-1.3,0.5-2.7,0.9-4c0.1-0.5,0.3-1,0.6-1.4c0.2-0.3,0.5-0.5,0.8-0.7
				c2.2-1.5,4.3-3,6.5-4.5c0.4-0.4,0.9-0.5,1.5-0.5c0.7,0.2,1,1,0.9,1.7c-0.1,2.5-2.6,4.2-3.1,6.7c-0.1,1.1-0.2,2.2-0.1,3.2
				c0.1,1.1-0.4,2.2-1.2,2.9c-0.6,0.4-1.3,0.6-2,0.6c-1,0.1-2,0-3-0.2C307.3,164.3,306.7,164.2,306,164.2z"/>
			<path class="st26" d="M314.5,150.9c1.9-0.5,5.8-1.1,6.7,1.2v0.1c0.1,0.4,0.3,0.8,0.5,1.1c0.4,0.5,1,0.9,1.4,1.4
				c0.4,0.7,0.7,1.4,0.9,2.2c0.4,0.9,1,1.6,1.5,2.5c0.4,0.7,0.6,1.6,0.6,2.4c-0.1,1.2-0.3,2.3-0.7,3.4c-0.3,0.8-1.1,1.3-1.9,1.2
				c-0.4-0.1-0.8-0.3-1.1-0.6c-0.2-0.3-0.4-0.6-0.6-0.9c-0.4,0.1-0.9,0-1.3-0.1c-0.5-0.2-0.8-0.5-1-1c-0.2-0.5-0.3-0.9-0.2-1.4
				c-1.3,0.1-1.8-1.2-1.7-2.2c0.1-1.7,1.2-4.2,0-5.7C317.4,154.4,314.5,150.9,314.5,150.9z"/>
			<path class="st26" d="M301.5,174.3c-9.8,11.1-14.7,15.5-19.1,22.7c-3.9,6.3-2.9,13.6-0.9,15c2.9,2.1,11,1.2,17.6-4.3
				c6.1-5.2,9.1-17.1,17.1-30.1L301.5,174.3z"/>
			<path id="freepik--chest--inject-19" class="st27" d="M238.4,156.1c-3.5,0.7-14.1,5-18.2,7.2c0,0-4.7,9.8-2.3,32.4
				c0.4,3.6,1.3,13.4,1.8,20.9c0.4,6.1,0.4,12.3-0.1,18.4c0,0,9.5,8.3,34.3,6.4c19.5-1.5,25.3-9.5,25.3-9.5s-0.1-26.2-0.6-40.6
				c-0.7-18.8-6.4-29.7-10.6-33l-12.8-2.1L238.4,156.1z"/>
			<path class="st8" d="M232.5,158l-5.9,2.3c4.2,3.8,8.6,16.9,9.9,25.3l6-2C241.3,175.1,236.8,161.8,232.5,158z"/>
			<path class="st8" d="M266,158.1l-6.8-1.1c4.2,3.7,8.6,16.9,10,25.3l6.2,0.3C274,174.1,270.2,161.8,266,158.1z"/>
			<path class="st8" d="M229.9,239.4c2.6,0.6,7.1-1.3,6.6-14.5s-3.1-38.4-3.1-38.4s13-4.9,25.7-6s18.5,0.2,18.5,0.2
				c1.8,8.9,1.9,40.1,1.6,55.9C262.3,247,235.3,243.4,229.9,239.4z"/>
			<path class="st3" d="M245.9,191.2c1.9-0.7,3.9-1.3,5.9-1.8c2-0.5,4.1-0.8,6.1-1c2.1-0.2,4.1-0.3,6.2-0.3c2.1,0,4.1,0.2,6.2,0.6
				c-1,0-2.1-0.1-3.1,0h-1.5l-1.5,0.1c-2,0.1-4.1,0.2-6.1,0.5s-4.1,0.5-6.1,0.8c-1,0.2-2,0.4-3,0.6S246.9,191,245.9,191.2z"/>
			<path class="st3" d="M270.3,188.7c0.2,1.6,0.3,3.3,0.1,4.9c-0.2,1.7-0.8,3.3-1.8,4.6c-1.1,1.3-2.5,2.3-4.1,2.8
				c-1.6,0.5-3.2,0.8-4.9,0.9c-1.7,0.1-3.4,0-5-0.3c-1.7-0.3-3.2-0.9-4.6-1.9c-1.4-1-2.5-2.3-3.2-3.8c-0.7-1.5-1-3.1-1-4.8
				c0.2,1.6,0.6,3.2,1.4,4.6c0.7,1.4,1.8,2.6,3.2,3.5c2.8,1.6,6,2.3,9.2,1.9c1.6-0.1,3.2-0.4,4.7-0.8c1.5-0.4,2.9-1.3,3.9-2.5
				c1-1.3,1.6-2.7,1.8-4.3C270.3,191.9,270.4,190.3,270.3,188.7z"/>
			<path class="st3" d="M242.1,188.6c0,1-0.8,1.8-1.8,1.8c-1,0-1.8-0.8-1.8-1.8s0.8-1.8,1.8-1.8c0,0,0,0,0,0
				C241.3,186.9,242.1,187.7,242.1,188.6C242.1,188.6,242.1,188.6,242.1,188.6z"/>
			<path class="st3" d="M274.6,184.3c0,1-0.8,1.8-1.8,1.8c-1,0-1.8-0.8-1.8-1.8c0-1,0.8-1.8,1.8-1.8S274.6,183.3,274.6,184.3
				L274.6,184.3z"/>
			<path class="st5" d="M236.1,156.2v1.2c0,0,4.7,11.2,5.1,33.3s0,67.2,0,67.2s-10.6,2-23.6-3.6c0,0,1.8-21.6,1.5-30.4
				s-2-24.3-2.8-37.1c-0.4-8.1,0.8-16.2,3.4-23.9L236.1,156.2z"/>
			<path class="st22" d="M229,243c4.1,0.6,8.2,0.9,12.4,0.7c0-1,0-1.9,0-3c-4.1,0.1-8.3-0.1-12.4-0.7c-3.5-0.5-6.9-1.3-10.3-2.3
				c-0.1,1-0.1,2.1-0.2,3.1C222,241.8,225.5,242.5,229,243z"/>
			<path class="st22" d="M241.3,252.1c0-0.9,0-1.9,0-3c-4.2,0.1-8.3-0.1-12.4-0.8c-3.6-0.5-7.2-1.3-10.6-2.4
				c-0.1,1.1-0.1,2.1-0.2,3.1c3.5,1,7.2,1.8,10.8,2.3C232.9,252,237.1,252.3,241.3,252.1z"/>
			<path class="st5" d="M255.5,155.5l12.5,2.9c0,0,7.5,4.7,10.1,22s2.5,70.9,2.5,70.9c-1.8,1-3.8,1.7-5.8,1.9c0,0-0.2-31.1-1.3-50.2
				c-1.3-23-4.5-37.3-17.8-46.7L255.5,155.5z"/>
			<path class="st22" d="M280.6,246.8c0-0.9,0-1.9,0-3.1c-1.9,0.6-3.9,1.1-5.9,1.5c0,1.1,0,2.1,0,3
				C276.7,247.8,278.6,247.4,280.6,246.8z"/>
			<path class="st22" d="M274.5,236.7c0,1,0,2,0,3c2-0.5,4-1,5.9-1.6c0-1,0-2,0-3.1C278.5,235.6,276.6,236.2,274.5,236.7z"/>
			<path class="st19" d="M252.5,199.1c3.8-2.3,5.7-3.2,7.4-3.5s7.7-2.2,10-2.6c1.4-0.2,1.8,2.1-0.1,3.5c-1.5,1.1-5.2,2.3-6.9,3
				s-5.1,4.2-5.1,4.2L252.5,199.1z"/>
			<path class="st26" d="M210.7,170.1c3.2-3.8,4.8-4.5,8.9-5.9c11.8,6.2,4.3,29.2,4.3,29.2l-6.5,19c0,0,17.5-0.5,20-1.8
				s9.6-7.7,12-9.6c3.2-2.6,4.6-2.1,6.1-1.7c4.8,1.2,5.9,1.7,6.9,2.4c0.6,0.5,0.9,1.2,0.8,2c1.3,0.3,3.2,0.4,3.3,2.6
				c0.1,0.6,0,1.2-0.1,1.7c0.3,0.1,0.6,0.3,0.8,0.6c1,1.4-1.3,5.5-2.5,6.5c-0.9,0.7-2.1,0.7-3.6,0.3c-1.3-0.3-0.6-1.6-0.6-1.6
				l-1.9-0.1c-4.2,2.5-4.9,8.1-10.3,8.9c-2.2,0-4.4,0.3-6.6,0.7c-11.7,2.8-30,9.4-40.2,9.3c-10,0-7.4-11.3-6.1-18.5
				C196.3,208.8,205.2,176.4,210.7,170.1z"/>
			<path class="st19" d="M263.1,203.7l-5.7-1.7l5.7,0.9C263.1,203.1,263.1,203.4,263.1,203.7z"/>
			<path class="st19" d="M266.3,208l-6.6-1.5l6.7,0.7C266.4,207.5,266.3,207.7,266.3,208z"/>
			<path class="st19" d="M264.1,211.4c-0.3,0.1-0.6,0.1-0.9,0.2c-0.8,0-1.6,0-2.4-0.1c-0.2,0.5-0.6,0.9-1,1.2
				c-0.4,0.4-0.9,0.7-1.4,1l1.9,0.1c0.5-0.6,1.2-0.9,2-0.9c0.3,0,0.6,0.1,0.9,0.2c0.3,0.2,0.5,0.5,0.6,0.8c-0.1-0.3-0.2-0.7-0.5-0.9
				c-0.2-0.2-0.4-0.3-0.7-0.3l0.5-0.8c0.3-0.1,0.7-0.1,1-0.3c0.4-0.1,0.7-0.4,1-0.7C264.8,211.1,264.5,211.3,264.1,211.4z"/>
			<path class="st27" d="M219.8,163.1c-7.6,2.6-10.3,4.8-13,11.4c-3.4,8.2-8.1,26.2-9.2,29.6c-2.9,4.1-2.2,10.1-2.2,10.1
				s11.3-7.8,22-1.7c0,0,5.8-15.2,7.1-18.1S231.2,169.4,219.8,163.1z"/>
			<path class="st7" d="M217,207.1c-2.1-2.1-4.9-3.4-7.8-3.9c-3.2-0.5-6.5-0.2-9.6,0.9c0,0,0,0.1,0,0.1c1.6-0.4,3.2-0.6,4.9-0.8
				c1.7-0.1,3.4,0,5,0.3c1.4,0.3,2.7,0.7,4,1.3c1.2,0.6,2.4,1.3,3.4,2.2C217,207.4,217,207.2,217,207.1z M210.6,206.8
				c-2.1-0.6-4.2-0.6-6.3-0.1v0.1c2.1-0.2,4.3,0,6.4,0.6c1,0.3,2,0.7,3,1.2c0.9,0.5,1.7,1.1,2.6,1.6c0.1,0,0.1-0.1,0.1-0.2
				C214.8,208.3,212.8,207.2,210.6,206.8L210.6,206.8z"/>
			<g id="freepik--head--inject-19">
				<path class="st4" d="M233.4,116.2c0,0-3.6,0-5.4,2.7s-3,7.6-1.1,13.2c2.1,6.2,6.4,12.3,7.3,14.1c0.6,1.1,1.6,1.9,2.8,2.3
					l-0.2-7.6l-0.3-5.3c0,0,4.2-3.9,4.6-7.6c0.4-2.6-0.1-5.3-1.4-7.6L233.4,116.2z"/>
				<path class="st4" d="M266.5,117c-3.4-10.6-9.1-10.9-17.6-10.4c-10.4,0.6-15.8,5.6-16.5,9.9l7.2,7.2l26.8,1.8
					C267.1,122.7,267.1,119.8,266.5,117z"/>
				<path class="st26" d="M229.9,143.1c3.9,1.9,5.7-1.2,5.7-1.2l0.6,15.6c7.5,10.1,27.6,6.4,19.4-1.1v-3.6c1.1,0,2.3-0.1,3.4-0.3
					c3.5-0.6,5.6-3.3,6.7-7.1c1.5-5.6,2.1-14.5,0-23.9c-0.4-1.8-1.2-3.8-2.9-4.7c-4.2-2.1-8,0.9-13.8,3.2c-2.4,0.9-8.2,1.3-9.8,0.6
					c2,2.2,2,9.3-1,12.2c-0.4,0.7-0.9,1.4-1.5,1.9c-1.3,1.1-2.3-1.8-3.4-2.9c-1.8-1.6-4.6-1.3-6.2,0.5c-0.3,0.3-0.5,0.7-0.6,1
					c-1.7,3.5-0.3,7.8,3.2,9.5C229.8,143,229.9,143.1,229.9,143.1z"/>
				<path class="st19" d="M255.6,152.8c-4.6,0-8.6-0.6-11.3-1.7s-5.1-4.8-5.9-8.4c0,2.9,1.3,8,5.4,10.2s8.8,2.2,11.8,2.3
					L255.6,152.8z"/>
				<path class="st4" d="M249,125.8l-3.9,1.6c-0.4-1.1,0.1-2.3,1.2-2.8c1-0.4,2.2,0,2.6,1C249,125.7,249,125.8,249,125.8z"/>
				<path class="st4" d="M263.4,125.7l-3.9-1.6c0.3-1,1.5-1.6,2.5-1.3c0,0,0.1,0,0.1,0.1C263.3,123.4,263.8,124.6,263.4,125.7z"/>
				<path class="st3" d="M246.7,130.7c0,0.9,0.8,1.7,1.8,1.7c0.9,0,1.7-0.8,1.7-1.8c0-0.9-0.8-1.7-1.8-1.7c0,0,0,0,0,0
					C247.4,128.9,246.6,129.7,246.7,130.7z"/>
				<path class="st3" d="M260.1,130c0,0.9,0.8,1.7,1.8,1.6c0.9,0,1.7-0.8,1.6-1.8l0,0c0-0.9-0.8-1.7-1.8-1.6
					c-0.9-0.1-1.6,0.6-1.7,1.4C260.1,129.8,260.1,129.9,260.1,130z"/>
				<path class="st19" d="M253.8,126.9l1.4,10.8l5.7-2.1C259.2,132.2,256.7,129.2,253.8,126.9z"/>
				<path class="st18" d="M250.2,139.6l6.9,2.3c-0.5,1.9-2.5,3-4.4,2.5c0,0-0.1,0-0.1,0C250.6,143.6,249.6,141.5,250.2,139.6z"/>
				<path class="st19" d="M250.9,140.8c-0.3-0.1-0.6-0.1-0.9-0.1c0,1.6,1,3,2.5,3.5c0.4,0.1,0.8,0.2,1.1,0.2
					C253.9,142.7,252.7,141.1,250.9,140.8z"/>
			</g>
			<path class="st4" d="M247.8,117.3c3.9-1.3,10.5-1.6,14-1.1c-0.7-2.5-0.9-5.7-7.2-5.3S247.2,114.2,247.8,117.3z"/>
			<path class="st5" d="M224.9,126.2c0.4,2,1,4,1.9,5.9c0.4-0.6,0.9-1.2,1.4-1.8c2.8-3.2,6.1-5.9,9.9-8l0,0
				c8.6-4.9,19.5-7.2,28.5-5.5c-0.5-1.7-1.1-3.4-2-4.9c-5.8-10.3-18.9-13.9-29.2-8C227.6,108.4,223.4,117.3,224.9,126.2L224.9,126.2
				z"/>
			<path class="st5" d="M232.4,104.3c1-0.6,6.3-2.6,6.7-2.8c2.7-1.1,7.2-1.4,12.1,2c3.8,2.7,6.7,6.6,8.1,11l-5.6,2.2l-1.8,0.3
				c-1-4.1-7.3-12.7-15.1-12.4c-0.4,0-0.7,0-1.1,0.1c-1,0.1-2.1,0.4-3,0.9c-1,0.8-1.9,1.7-2.8,2.7
				C230.1,106.6,231,105.1,232.4,104.3z"/>
			<path class="st20" d="M232.4,104.3c1-0.6,6.3-2.6,6.7-2.8c2.7-1.1,7.2-1.4,12.1,2c3.8,2.7,6.7,6.6,8.1,11l-5.6,2.2l-1.8,0.3
				c-1-4.1-7.3-12.7-15.1-12.4c-0.4,0-0.7,0-1.1,0.1c-1,0.1-2.1,0.4-3,0.9c-1,0.8-1.9,1.7-2.8,2.7
				C230.1,106.6,231,105.1,232.4,104.3z"/>
			<path class="st5" d="M252,117.1c-1.2-4.8-9.6-15.8-19.1-11.5c-1,0.8-1.9,1.7-2.8,2.7c0.1-1.7,1-3.2,2.4-4
				c2.5-1.4,7.6-2.4,13.2,1.5c3.8,2.7,6.7,6.6,8.1,11L252,117.1z"/>
			<path class="st9" d="M252,117.1c-1.2-4.8-9.6-15.8-19.1-11.5c-1,0.8-1.9,1.7-2.8,2.7c0.1-1.7,1-3.2,2.4-4
				c2.5-1.4,7.6-2.4,13.2,1.5c3.8,2.7,6.7,6.6,8.1,11L252,117.1z"/>
			<path class="st5" d="M237.8,120.6c2.1-3.8,5.1-7,8.8-9.2c4.2-2.7,13.1-3.5,17.2-3.8c7-0.4,8.9,0.9,9,1.9c0,0.2,0.2,1.4,0.3,1.6
				c0.1,0.2,0,0.5-0.1,0.7c-0.9,1.7-6.4,4.9-6.4,4.9c-9-1.7-19.9,0.6-28.5,5.5L237.8,120.6z"/>
			<path class="st21" d="M237.8,120.6c2.1-3.8,5.1-7,8.8-9.2c4.2-2.7,13.1-3.5,17.2-3.8c7-0.4,8.9,0.9,9,1.9c0,0.2,0.2,1.4,0.3,1.6
				c0.1,0.2,0,0.5-0.1,0.7c-0.9,1.7-6.4,4.9-6.4,4.9c-9-1.7-19.9,0.6-28.5,5.5L237.8,120.6z"/>
			<path class="st5" d="M238.1,122.3c8.6-4.9,19.5-7.2,28.5-5.5c0,0,5.5-3.2,6.4-4.9c0.5-0.9-0.2-3.2-8.9-2.6
				c-4,0.3-13,1.1-17.2,3.8C243.2,115.3,240.2,118.5,238.1,122.3z"/>
			<path class="st9" d="M238.1,122.3c8.6-4.9,19.5-7.2,28.5-5.5c0,0,5.5-3.2,6.4-4.9c0.5-0.9-0.2-3.2-8.9-2.6
				c-4,0.3-13,1.1-17.2,3.8C243.2,115.3,240.2,118.5,238.1,122.3z"/>
		</g>
	</g>
</g>
<g id="freepik--character-1--inject-19">
	<g id="freepik--Character--inject-19">
		<g id="freepik--bottom--inject-19_00000177469159806431208960000003411873979863024569_">
			<path class="st28" d="M102.6,330.5l-1.9-16.7l19-1.7c0,0-0.8,12.9-0.7,18.8c0,2.8,2,8,2,8s-8,4.1-12.1,2.5s-6.9-8.2-6.8-9.4
				S102.6,330.5,102.6,330.5z"/>
			<path class="st3" d="M143.2,356.8c0.3,0,0.5,2.4-1,3.6c-3.9,2.7-8.7,3.8-13.4,3.1c-6.4-0.9-9.8-2.9-12.3-5.1s-6.1-5.2-8.9-5.9
				c-2.6-0.8-5-2-7.1-3.7c-0.8-0.8-0.7-4.5-0.7-4.5L143.2,356.8z"/>
			<path class="st8" d="M102.6,330.5c-0.5,0-0.9,0.4-1,0.8c-0.2,1-0.5,3.9-0.9,5.5c-0.7,2.9-1,5.9-0.8,8.8c0.3,1.9,5.4,4.2,8.2,5.3
				c3.3,1.5,6.3,3.4,9,5.8c3,2.5,9.2,5.1,13.4,5.2c4.9,0,10.5-1.4,11.8-3.6c1.6-2.8,2.8-6-4.4-9.4c-1.4-0.7-6.2-3.6-7.8-4.6
				c-4.4-2.9-7.5-5.5-9.5-10.4c-0.1-0.6-0.5-1.1-1-1.5c-0.4-0.2-0.9-0.2-1.4-0.1c-1.2,0.1-6.1,0.7-7.2,1.2s-2.4,1-2.4,2.2
				c0,0.4,0.1,0.9,0.2,1.3c0.1,0.2,0.1,0.6-0.1,0.7s-0.5,0-0.7-0.2c-0.7-0.7-1.4-1.5-1.9-2.4c-0.6-0.8-1.2-1.5-1.8-2.1
				c-0.4-0.3-0.8-0.5-1.2-0.8C102.5,331.6,102.7,331,102.6,330.5z"/>
			<path class="st4" d="M117.1,356.7c-1.3-1.1-2.6-2.1-3.9-3l0,0c0,0,8.5,5.3,12,3c2.3-1.5,1.2-3.3,1.2-3.9s7.9-4.6,10.1-4.8l0,0
				c0.6,0.3,1.1,0.6,1.4,0.8c5.7,2.3,6.4,5.2,5.4,8.9c-1.3,2.2-6.3,4.5-12.7,4.4C126.4,362,120,359.2,117.1,356.7z"/>
			<path class="st4" d="M125.8,351.1c4.5,1.9,2.6,2.7,1.3,2.8s-8.8-4.4-13.4-8.1c-4.8-3.9-8.5-9-10.3-10.5c-0.7-0.5-1.4-1.2-2-1.8
				c0.1-1,0.2-1.9,0.3-2.3c0.1-0.5,0.5-0.8,1-0.8c0,0.6-0.1,1.1,0.3,1.6c0.4,0.3,0.8,0.6,1.2,0.8c0.7,0.7,1.3,1.4,1.8,2.1
				c0.6,0.8,1.2,1.6,1.9,2.4C111.8,342.4,121.2,349.3,125.8,351.1z"/>
			<path class="st3" d="M126.7,353.3c-0.2,0-0.4-0.2-0.4-0.5c0-0.1,0-0.2,0.1-0.3c1.3-1.5,7.5-5.1,10.8-4.7c0.2,0,0.4,0.3,0.4,0.5
				c0,0.2-0.3,0.4-0.5,0.4l0,0c-3.1-0.4-9,3.2-10,4.4C127,353.2,126.9,353.3,126.7,353.3z"/>
			<path class="st3" d="M122.8,350.8c-0.2,0-0.4-0.2-0.4-0.5c0-0.1,0-0.2,0.1-0.3c1.3-1.5,7.4-5.1,10.8-4.7c0.2,0,0.4,0.3,0.4,0.5
				c0,0.2-0.3,0.4-0.5,0.4c-3.1-0.4-9,3.1-10,4.4C123.1,350.8,122.9,350.8,122.8,350.8z"/>
			<path class="st3" d="M118.9,348.5c-0.1,0-0.2,0-0.3-0.1c-0.2-0.2-0.2-0.4,0-0.6c0,0,0,0,0,0c1.3-1.5,7.4-5.1,10.8-4.7
				c0.2,0,0.4,0.2,0.4,0.5c0,0,0,0,0,0c0,0.2-0.3,0.4-0.5,0.4c-3.1-0.4-9,3.1-10,4.4C119.2,348.4,119,348.5,118.9,348.5z"/>
			<path class="st3" d="M115.2,345.8c-0.1,0-0.2,0-0.3-0.1c-0.2-0.2-0.2-0.4,0-0.6c0,0,0,0,0,0c1.3-1.5,7.5-5.1,10.8-4.7
				c0.2,0,0.4,0.2,0.4,0.5c0,0,0,0,0,0c0,0.2-0.3,0.4-0.5,0.4c0,0,0,0,0,0c-3.1-0.4-8.9,3.2-10,4.4
				C115.6,345.8,115.4,345.8,115.2,345.8z"/>
			<path class="st3" d="M111.7,343.2c-0.1,0-0.2,0-0.3-0.1c-0.2-0.1-0.2-0.4-0.1-0.6c0,0,0,0,0,0c1.8-2.2,8.2-5.1,11.6-4.7
				c0.2,0,0.4,0.2,0.4,0.5c0,0.2-0.3,0.4-0.5,0.4c0,0,0,0,0,0c-3-0.4-9.2,2.5-10.8,4.4C112,343.1,111.8,343.2,111.7,343.2z"/>
			<path class="st28" d="M71.1,338.3l4.5-20.1l-19.8-3.1L55.5,335c0,0-1.5,5.3-0.4,7.2s13,3.8,14.1,2.5S71.1,338.3,71.1,338.3z"/>
			<path class="st3" d="M69.1,370c-0.5,4.5-1.5,7.4-3.4,9.9s-5.4,2.9-8.9,1.6s-7.8-3.8-8.6-7.9s-0.5-6.7,0.5-10.8L69.1,370z"/>
			<path class="st8" d="M55.5,335c-1.4-0.1-1,3.5-1.7,9.5c-0.7,6.6-3.7,11.7-4.8,17c-1.2,6-1,8.8,1.3,12.8s10.6,8.7,15.1,3.9
				c3.7-3.9,4-8.7,4-14.8c-0.2-5.2,0-10.4,0.4-15.6c0.5-4.6,2.4-8.8,1.2-9.4c-0.1,0.7-1.3,5.3-2.2,5.2c0-0.6,0-1.2,0.1-1.8
				c0.1-0.5,0-1.1-0.3-1.5c-0.7-0.5-1.5-0.9-2.3-1.2c-1.4-0.4-3.9-0.9-5.3-1.2c-0.7-0.1-1.4-0.3-2.1-0.3c-0.6-0.1-1.2-0.1-1.8,0
				c-0.3,0-0.6,0.2-0.8,0.5c-0.1,0.2-0.1,0.5-0.1,0.7c0,0.4-0.1,0.8-0.2,1.2c-0.1,0.2-0.2,0.4-0.4,0.3c-0.1-0.1-0.2-0.2-0.2-0.4
				C55.3,339.2,55.4,335.4,55.5,335z"/>
			<path class="st4" d="M49.4,359.8c-0.2,0.9-1.3,6.6,0.4,7.9c1.9,1.4,3.2-3.1,3.2-3.1s4.6-0.7,11.1,2.7c-0.4,0.9,0.5,4.2,2.3,3.7
				s2.9-7.1,2.9-7.1c0,5.9-0.5,10.5-4,14.3c-4.5,4.8-12.9,0.1-15.1-3.9s-2.5-6.8-1.3-12.8C49.1,360.9,49.3,360.4,49.4,359.8z"/>
			<path class="st4" d="M53.5,365.1c-0.1,2.2-2.6,1.2-2.5-2s1.7-10.8,2.3-15.9c0.4-7.4,0.7-12.3,2.1-12.2c0,0.1,0,0.1,0,0.2
				s-0.1,4.2-0.2,4.7c-0.3,4.5-0.3,13.3-1,17.4C53.9,359.8,53.7,362.4,53.5,365.1z"/>
			<path class="st4" d="M63.4,367.2c0.7-2.5,1.3-5,1.8-7.6c0.7-4,3.1-12.1,4.3-16.5c0.4-0.7,1.6-4.8,1.6-4.8c1,0.3,0,4.1-0.5,6
				s-1,3.8-1.6,6.4c-1.5,5.1-1.6,12.8-2.6,15.8S62.9,369.3,63.4,367.2z"/>
			<path class="st3" d="M64.3,367.5c-0.1,0-0.1,0-0.2-0.1c-3.4-1.8-7.2-2.7-11-2.4c-0.3,0-0.5-0.1-0.6-0.4c0-0.2,0.1-0.5,0.3-0.5
				c0,0,0,0,0.1,0c4.1-0.3,8.2,0.5,11.7,2.5c0.2,0.1,0.3,0.4,0.2,0.6c0,0,0,0,0,0C64.7,367.5,64.5,367.6,64.3,367.5z"/>
			<path class="st3" d="M65.8,362.9l-0.2-0.1c-3.8-1.9-8-2.8-12.3-2.6c-0.3,0-0.5-0.2-0.6-0.4c0-0.2,0.1-0.5,0.4-0.5c0,0,0,0,0,0
				c4.5-0.3,9,0.7,13,2.8c0.2,0.1,0.3,0.4,0.2,0.6c0,0,0,0,0,0C66.2,362.8,66,362.9,65.8,362.9z"/>
			<path class="st3" d="M53.9,355.6c-0.2,0-0.4-0.2-0.4-0.4c-0.1-0.2,0.1-0.5,0.3-0.5c0,0,0.1,0,0.1,0c6.5-1.1,12.7,2.5,13,2.7
				c0.2,0.1,0.3,0.4,0.2,0.6c-0.2,0.2-0.5,0.3-0.7,0.1c-0.1,0-6.1-3.6-12.1-2.5L53.9,355.6z"/>
			<path class="st3" d="M54.5,351.4c-0.2,0-0.4-0.2-0.5-0.4c-0.1-0.2,0-0.5,0.3-0.5c0,0,0.1,0,0.1,0c4.6-0.8,9.3,0.2,13.2,2.7
				c0.2,0.1,0.3,0.4,0.2,0.6c0,0,0,0,0,0c-0.2,0.2-0.5,0.2-0.7,0.1c-3.7-2.3-8.1-3.1-12.3-2.5C54.6,351.4,54.5,351.4,54.5,351.4z"/>
			<path class="st3" d="M55.1,346.6c-0.2,0-0.4-0.2-0.4-0.4c-0.1-0.2,0-0.5,0.3-0.5c0,0,0.1,0,0.1,0c6.7-1.4,13.1,2.6,13.3,2.8
				c0.2,0.1,0.3,0.4,0.2,0.6c0,0,0,0,0,0.1c-0.2,0.2-0.5,0.3-0.7,0.1c-0.1,0-6.2-3.9-12.4-2.6C55.3,346.6,55.2,346.6,55.1,346.6z"/>
			<path class="st4" d="M63.1,183.5c-2.7,35.6-3.9,88.8-3.9,88.8c-0.2,2.7-1.8,6.5-3,19.8c-1.3,14.1-1.3,34.2-1.3,34.2
				s11.9,5.1,19.3,2.5c0,0,8-30.1,11.8-46.7c3.6-15.7,6.3-40.2,6.3-40.2l4.3,23.6c0,0-0.6,10.2-0.3,17.3c0.3,8.3,4.8,39.9,4.8,39.9
				s11.1,6.6,18.8,0.3c0,0,3.7-46.5,4-56.4c0.5-19.5,1-57.9-1.2-83L63.1,183.5z"/>
			<path class="st3" d="M92.3,241.8l3.9-25.4c0,0,9-1.4,13.6-5.8c0,0-3,5.9-11.4,8.1l-3.9,23.1l2.2,23.6L92.3,241.8z"/>
			<path class="st8" d="M54.7,327c3.3,2.6,13,4.8,19.6,2.4l1.3-5.6c-5,1.7-15.3,0.6-20.8-2.8L54.7,327z"/>
			<path class="st8" d="M101.1,323.3c2.2,2.3,12.6,4.1,18.8,0.6l0.5-5.6c-4.7,2.6-15.3,2.1-19.9-0.5L101.1,323.3z"/>
			<path class="st8" d="M60,239.2c0,0-1,25.1-1,26.9s13.7,5.4,14.1,4.3c0.6-1.9,0.4-6.2,1.6-27C63.4,241.9,60,239.2,60,239.2z"/>
			<path class="st4" d="M72.5,250.5c-0.4-0.1-0.9-0.1-1.3-0.1c-0.5,0-1,0-1.5-0.1c-1.1-0.1-2.1-0.2-3.1-0.5c-1.2-0.3-2.3-0.6-3.4-1
				c-0.9-0.4-1.8-0.8-2.7-1.2c-0.1,0-0.1,0.1,0,0.2c0.9,0.6,1.9,1.1,2.9,1.5c1.9,0.8,3.9,1.3,6,1.5c0.5,0.1,1,0.1,1.6,0.1
				c0.6,0.1,1.1,0.1,1.7-0.1C72.6,250.7,72.6,250.5,72.5,250.5z"/>
			<path class="st4" d="M66.6,247c-0.1-0.3-0.2-0.4-0.5-0.5c-0.2,0-0.5,0-0.7,0.2c-0.2,0.1-0.3,0.3-0.3,0.6c0,0.4,0.2,0.7,0.5,0.9
				c0.3,0.2,0.7,0.2,1,0c0.2-0.1,0.3-0.4,0.2-0.6C66.8,247.4,66.7,247.2,66.6,247z M66.3,247.8c-0.2,0.2-0.5,0.3-0.7,0.1
				c-0.3-0.2-0.3-0.9,0.2-0.9c0.1,0,0.3,0,0.4,0.1C66.4,247.2,66.5,247.5,66.3,247.8L66.3,247.8z"/>
		</g>
		<g id="freepik--top--inject-19_00000115516320366909062230000014705390022120525246_">
			<path class="st3" d="M83.7,125V92.8c-1.7-1.8-6.8-1.5-9.1-1.2c-3.9,0.6-6,4.3-7.3,7.7c-1,3.2-1.6,6.6-1.6,10l-1,15.5L83.7,125z"
				/>
			<path class="st28" d="M128,134.5c3.8,4.9,11.6,16.6,11.6,16.6s17.4-12.1,19.1-14.4c3.3-4.7,4.2-8.5,8.5-9.6
				c4.4-1.1,9.9-2.4,9.9-2.4L173,145c-1.9,2.1-4.2,1.2-8.9,5.8c-6.2,5.8-12.6,11.2-19.3,16.3c-6.2,4.7-10.6,2.1-13.4-1.4
				c-7-8.6-13-15.4-13-15.4L108,118.4C114.2,120,118.9,122.9,128,134.5z"/>
			<path class="st29" d="M172.2,133.2c0.5,1.8,1.4,3.7,0.5,5.4c-0.2-1.4-0.6-2.7-1.2-4l-6.6,5.9L172.2,133.2z"/>
			<path class="st3" d="M105.9,117.6c9-0.2,14.7,4.1,20.3,12.6c3.4,5.1,13.5,20.1,13.5,20.1l12.4-8.6c0,0,1.7,5.7,5.5,8.5
				c3.3,2.5,6.1,1.1,6.1,1.1c-4.1,4.5-8.6,8.7-13.4,12.6c-9.4,7.6-12.6,8.2-16.7,5.1c-2.1-1.6-3.4-3.3-7.4-7.8
				c-4.7-5.4-8.1-10.1-8.1-10.1L105.9,117.6z"/>
			<g id="freepik--chest--inject-19_00000029763249544838995880000005210496115417572792_">
				<path class="st8" d="M96.6,117.4c0,0-20.6,1.1-25.8,3.5c-2.3,1.1-7.5,7.2-6.4,21.9c0.4,5.9,2.8,18,2.9,22.4
					c0.1,6.3-5.5,26.7-5.5,26.7c19.4,11.9,53.6,8.2,60.5,1.9c0,0-2.4-26.3-3.1-39.9c0,0,3.7-6.2,3.4-10.5c-0.4-6.2-1.7-8.4-7.4-15.3
					c-3-3.7-6.2-7.2-9.7-10.5L96.6,117.4z"/>
			</g>
			<path class="st3" d="M78.1,74.9c-6.7,0.7-8.3,11.6-6.7,17.8c3,11.8,11,13.2,11.3,18.3l12-7l9.3-5.5c0.9-0.5,1.7-1,2.6-1.6
				s1.4-1.2,2.2-1.6c0.6-0.4,1.2-0.2,1.9-0.3c0.7-0.3,1.2-0.8,1.6-1.4c1.5-1.9,2-4.4,1.5-6.8c0.6,0.7,1,1.4,1.4,2.2
				c0.3,0.8,0.4,1.7,0.1,2.6c2.8-1.8,3-8.9-2.3-11.5c-0.9-0.4-1.5-2-1.9-2.9c-0.3-0.8-0.6-1.6-1.1-2.3c-0.5-0.7-1-1.3-1.6-1.9
				c-1.1-1.2-2.3-2.3-3.6-3.3c-3.8-2.9-9.5-5.6-14.4-4.5C85.1,66.4,79.6,69.4,78.1,74.9z"/>
			<path class="st28" d="M83,115.6l-0.7-11c-2,1-4.4,0.5-5.9-1.2c-3.3-3.4-3.6-7.1-1.8-9.5c2-2.6,6.3-1.6,8.2,1.6
				c2.9,0.7,4-3.4,1.8-7.6c0,0,13.8,0.9,20.2-9.6c1.3-1.4,3.5-1.4,4.9,0c0.3,0.3,0.5,0.6,0.7,0.9c0.7,1.6,1.6,4.2,0.9,9.4
				c-0.2,2,0.7,4.3,0.6,6.9c-0.3,10.4-2.7,13.8-5.5,15.6c-2.4,1.3-5.1,1.9-7.8,1.8l0.2,2.8l0,0c0.1,1.5,0.4,1.6,1.8,1.7l2,0.1
				c0,0,8,10.1-2,11.5c-11,1.5-22-6.1-24.3-9.6c0,0,0.9-0.2,3.3-0.5S82.8,117.7,83,115.6z"/>
			<path class="st29" d="M95.6,100.8l5.7,1.8c-0.4,1.6-2.1,2.5-3.6,2c0,0-0.1,0-0.1,0C96,104.1,95.1,102.4,95.6,100.8z"/>
			<path class="st26" d="M95.9,102.2c1.6,0,2.9,1,3.3,2.6c-0.5,0.2-1.1,0.2-1.7,0c-1.1-0.4-1.9-1.4-2-2.5
				C95.7,102.2,95.8,102.2,95.9,102.2z"/>
			<path class="st3" d="M109.5,86.6l-3.8-1.6c0.4-1,1.6-1.5,2.6-1.1c0,0,0,0,0,0C109.5,84.4,109.9,85.6,109.5,86.6z"/>
			<path class="st3" d="M105.4,89.8c-0.1,1,0.6,1.8,1.6,1.9c0.9,0.1,1.7-0.5,1.8-1.4c0,0,0,0,0-0.1c0.1-0.9-0.6-1.8-1.6-1.9
				c-0.9-0.1-1.7,0.5-1.9,1.4C105.4,89.7,105.4,89.8,105.4,89.8z"/>
			<path class="st3" d="M91.6,88.1l3.7-2c-0.5-1-1.7-1.4-2.7-0.9c0,0-0.1,0-0.1,0C91.4,85.8,91,87.1,91.6,88.1z"/>
			<path class="st3" d="M92.4,90.2c-0.1,1,0.6,1.8,1.6,1.9c0.9,0.1,1.7-0.5,1.8-1.4c0,0,0,0,0-0.1c0.1-0.9-0.6-1.8-1.6-1.9
				C93.4,88.6,92.5,89.2,92.4,90.2C92.4,90.1,92.4,90.2,92.4,90.2z"/>
			<polygon class="st29" points="98.9,86.7 100.2,98.5 105.9,95.4 			"/>
			<path class="st29" d="M98.8,113c-7.6,0.1-12.3-2.6-14.4-7.2c0,0,0.6,4.3,3.7,6.6c3.4,2.6,10.9,2.7,10.9,2.7L98.8,113z"/>
			<path class="st5" d="M100.7,117.4c9.2,9.3,15.1,21.4,16.5,34.5c1.1,11.4,1.4,58.3,1.4,58.3s6.6,0,9.6-2.2
				c-1.8-26-3.6-51.5-4.9-64.6c-0.5-4.2-2.1-8.3-4.5-11.8c-3.5-5.4-7.9-10.2-13-14.1L100.7,117.4z"/>
			<path class="st12" d="M126.2,178.8c-2.6,0.7-5.3,1.3-7.9,1.7c0-1.4,0-2.7-0.1-4c2.6-0.4,5.2-1,7.7-1.7
				C126,176.1,126.1,177.5,126.2,178.8z"/>
			<path class="st12" d="M118.4,190.6c2.9-0.5,5.7-1.2,8.5-2c0.1,1.3,0.2,2.7,0.3,4.1c-2.9,0.8-5.8,1.5-8.7,1.9
				C118.5,193.3,118.4,191.9,118.4,190.6z"/>
			<path class="st5" d="M82.6,117.3c0.6,9.8,3.5,22.2,3.7,32.7c0.2,19.1-5.7,61.6-5.7,61.6s-13.8-0.2-22.4-6.3
				c0-4.6,3.8-20.8,5.8-27.5s2.7-15.2,0.2-25.9s-0.7-23.9,4.2-31.3L82.6,117.3z"/>
			<path class="st12" d="M82.4,197.2c-11.3-0.9-18.4-3.8-21.9-5.7c0.3-1.2,0.5-2.4,0.9-3.7c4.5,2.3,13.9,4.9,21.5,5.5
				C82.7,194.7,82.5,196,82.4,197.2z"/>
			<path class="st12" d="M63.9,177.9c0.3-1,0.5-2,0.8-3.1c6.4,2.1,13.1,3.3,19.8,3.5c-0.1,1.3-0.3,2.7-0.4,4
				c-6.9-0.3-13.8-1.5-20.4-3.6C63.8,178.4,63.8,178.2,63.9,177.9z"/>
			<path class="st5" d="M70.3,89.7c0.4,2.1,1,4.1,2,6c0.4-0.6,0.9-1.2,1.4-1.8c2.8-3.3,6.3-6.1,10.1-8.2l0,0c8.8-5,20-7.4,29.2-5.6
				c-0.5-1.8-1.2-3.4-2.1-5c-5.9-10.5-19.3-14.2-29.8-8.3C72.9,71.4,68.6,80.6,70.3,89.7z"/>
			<path class="st5" d="M77.9,67.3c1-0.6,6.4-2.7,6.8-2.9c2.8-1.1,7.4-1.4,12.4,2.1c3.9,2.8,6.8,6.7,8.3,11.3l-5.7,2.3l-1.8,0.3
				c-1-4.2-7.4-13-15.4-12.7c-0.4,0-0.8,0-1.1,0.1c-1,0.1-2,0.4-3,0.9c-1,0.8-2,1.8-2.9,2.7C75.5,69.7,76.5,68.1,77.9,67.3z"/>
			<path class="st20" d="M77.9,67.3c1-0.6,6.4-2.7,6.8-2.9c2.8-1.1,7.4-1.4,12.4,2.1c3.9,2.8,6.8,6.7,8.3,11.3l-5.7,2.3l-1.8,0.3
				c-1-4.2-7.4-13-15.4-12.7c-0.4,0-0.8,0-1.1,0.1c-1,0.1-2,0.4-3,0.9c-1,0.8-2,1.8-2.9,2.7C75.5,69.7,76.5,68.1,77.9,67.3z"/>
			<path class="st5" d="M97.9,80.4c-1.2-4.9-9.8-16.1-19.5-11.8c-1,0.8-2,1.8-2.9,2.7c0.1-1.7,1-3.2,2.5-4.1
				c2.5-1.5,7.7-2.5,13.5,1.5c3.9,2.8,6.8,6.7,8.3,11.3L97.9,80.4z"/>
			<path class="st9" d="M97.9,80.4c-1.2-4.9-9.8-16.1-19.5-11.8c-1,0.8-2,1.8-2.9,2.7c0.1-1.7,1-3.2,2.5-4.1
				c2.5-1.5,7.7-2.5,13.5,1.5c3.9,2.8,6.8,6.7,8.3,11.3L97.9,80.4z"/>
			<path class="st5" d="M83.4,84c2.1-3.9,5.2-7.1,9-9.4c4.3-2.8,13.4-3.6,17.6-3.9c7.2-0.5,9,0.9,9.2,2c0,0.2,0.2,1.4,0.3,1.7
				c0.1,0.2,0,0.5-0.1,0.7c-1,1.7-6.5,5-6.5,5c-9.2-1.8-20.3,0.6-29.2,5.6L83.4,84z"/>
			<path class="st21" d="M83.4,84c2.1-3.9,5.2-7.1,9-9.4c4.3-2.8,13.4-3.6,17.6-3.9c7.2-0.5,9,0.9,9.2,2c0,0.2,0.2,1.4,0.3,1.7
				c0.1,0.2,0,0.5-0.1,0.7c-1,1.7-6.5,5-6.5,5c-9.2-1.8-20.3,0.6-29.2,5.6L83.4,84z"/>
			<path class="st5" d="M83.7,85.7c8.8-5,20-7.4,29.2-5.6c0,0,5.6-3.3,6.5-5c0.5-1-0.2-3.2-9.1-2.7c-4.1,0.3-13.3,1.1-17.6,3.9
				C88.9,78.6,85.8,81.8,83.7,85.7z"/>
			<path class="st9" d="M83.7,85.7c8.8-5,20-7.4,29.2-5.6c0,0,5.6-3.3,6.5-5c0.5-1-0.2-3.2-9.1-2.7c-4.1,0.3-13.3,1.1-17.6,3.9
				C88.9,78.6,85.8,81.8,83.7,85.7z"/>
			<path class="st5" d="M69.5,204c-1.2,1.1-1.6,3.1-0.9,5.4c1.7,5.2,5.8,9.3,10.9,11c2.4,0.6,4.3,0.3,5.4-0.9l102.1-101.2
				c1.1-1.1,1.6-3,0.9-5.4c-1.7-5.2-5.8-9.3-10.9-11c-2.4-0.7-4.3-0.3-5.4,0.9L69.5,204z"/>
			<path class="st30" d="M69.5,204c-1.2,1.1-1.6,3.1-0.9,5.4c1.7,5.2,5.8,9.3,10.9,11c2.4,0.6,4.3,0.3,5.4-0.9l102.1-101.2
				c1.1-1.1,1.6-3,0.9-5.4c-1.7-5.2-5.8-9.3-10.9-11c-2.4-0.7-4.3-0.3-5.4,0.9L69.5,204z"/>
			<path class="st5" d="M79.6,220.5c2.4,0.6,4.3,0.3,5.4-0.9s1.6-3,0.9-5.4c-1.7-5.2-5.7-9.3-10.9-11c-2.4-0.7-4.3-0.3-5.4,0.9
				s-1.6,3.1-0.9,5.4C70.3,214.7,74.4,218.8,79.6,220.5z"/>
			<path class="st5" d="M85,219.6L187.5,118c5.5-5.4-0.9-14.6-0.9-14.6L84.1,205C84.1,205,90.5,214.2,85,219.6z"/>
			<path class="st31" d="M85,219.6L187.5,118c5.5-5.4-0.9-14.6-0.9-14.6L84.1,205C84.1,205,90.5,214.2,85,219.6z"/>
			<path class="st13" d="M79.6,220.5c2.4,0.6,4.3,0.3,5.4-0.9s1.6-3,0.9-5.4c-1.7-5.2-5.7-9.3-10.9-11c-2.4-0.7-4.3-0.3-5.4,0.9
				s-1.6,3.1-0.9,5.4C70.3,214.7,74.4,218.8,79.6,220.5z"/>
			<path class="st32" d="M75.5,209.8c-5.2-1.1-3.8,5.4,1.3,9.6l0,0c0.9,0.5,1.8,0.8,2.7,1.1c2.4,0.6,4.3,0.3,5.4-0.9s1.6-3,0.9-5.4
				c-1.1-3.5-3.3-6.5-6.2-8.6L75.5,209.8z"/>
			<path class="st5" d="M72.8,210.2l5.6-5.5c0.5,0.3,0.9,0.6,1.3,0.9l-4.2,4.2C74.6,209.5,73.6,209.7,72.8,210.2z"/>
			<path class="st7" d="M72.8,210.2l5.6-5.5c0.5,0.3,0.9,0.6,1.3,0.9l-4.2,4.2C74.6,209.5,73.6,209.7,72.8,210.2z"/>
			<path class="st29" d="M93.6,175.9c2.7-2.3,3.4-2.5,6.2-2.6s4.1-0.2,5.2-0.1c1.9,0.2,3.8,0.7,5.6,1.4c1.3,0.8-0.7,2.8-2.8,2.7
				s-4.9-0.4-4.9-0.4L93.6,175.9z"/>
			<path class="st28" d="M68,121.2c-8.6,2.3-13.6,5.3-15.4,9.8c-3.2,7.9-10.2,32.4-11.3,38.9s-0.5,8.1,4.7,11
				c4.4,2.4,22.6,7.9,31,10.2c2.3,0.6,4.7,0.1,6.6-1.4l7.7-6.1l-31.9-15.1l7.2-21.6C66.8,146.9,73.7,131.4,68,121.2z"/>
			<path class="st3" d="M68.3,120.8c-5.6,1.6-10.3,3.3-13,6.1c-3.8,3.9-3.3,3.8-8.3,19.8s-6.5,23.9-6.9,27s0.1,4.6,5,7.3
				s18.8,6.3,18.8,6.3c0.2-3.2,0.9-6.3,2-9.3c1.8-4.2,4.2-4.4,4.2-4.4l-9.7-5.4c0,0,6-16.9,8.1-22.4S73.4,130.4,68.3,120.8z"/>
			<path class="st28" d="M81.4,186.1c0.9-0.2,1.3-4.1,2.8-4.6s1.8-0.3,2.6-1.9c0.5-1.2,1.6-2,2.9-2c1,0.1,0.6-1.7,2.4-2.2
				c2.3-0.3,4.7-0.3,7-0.1c1.6,0.2,5.3,2.5,6.9,3.7s0.5,2.2-0.5,2.7c-1,0.3-2,0.3-3,0.1c0,0,1.6,1.4,1.2,2.1
				c-0.5,0.9-2.2,1.6-4.5,0.6c1.5,1.1,1.3,2.1,0.1,2.6c-1.3,0.3-2.8,0.2-4-0.4c-2.1-0.8-4.8-1.7-6.5-1l-1.7,1.3L81.4,186.1z"/>
			<path class="st29" d="M81.4,186.1c0.4,0,0.6-0.5,0.9-0.8s0.4-0.7,0.5-1c0.3-0.7,0.6-1.3,1-1.9c0.1-0.3,0.4-0.5,0.6-0.6l1-0.4
				c0.4-0.1,0.8-0.4,1-0.7c0.2-0.3,0.3-0.7,0.4-1.1c-0.2,0.3-0.5,0.6-0.7,0.8c-0.3,0.2-0.6,0.3-0.9,0.4c-0.3,0.1-0.7,0.2-1.1,0.3
				c-0.4,0.2-0.8,0.5-1,0.9c-0.4,0.7-0.7,1.4-0.9,2.1l-0.3,1.1C81.9,185.5,81.7,185.9,81.4,186.1z"/>
			<path class="st29" d="M102.5,181.8c-0.8-0.7-1.7-1.3-2.5-1.9c-0.9-0.6-1.8-1.2-2.8-1.7c-1.1-0.3-2.2-0.4-3.2-0.4
				c-1.1-0.1-2.1-0.1-3.2,0c1,0.2,2.1,0.4,3.1,0.6l1.6,0.3c0.5,0.1,1,0.2,1.5,0.3c0.9,0.4,1.8,1,2.7,1.5
				C100.5,180.9,101.5,181.3,102.5,181.8z"/>
			<path class="st29" d="M88,181.2c1,0.1,2,0.2,3,0.2c0.9,0.1,1.9,0.4,2.7,0.8c1.8,0.8,3.6,1.6,5.5,2.3c-1.6-1.2-3.4-2.2-5.2-3
				c-0.9-0.5-2-0.7-3-0.7C90,180.9,89,181,88,181.2z"/>
			<path class="st29" d="M182,133c2-2.6,2.2-3.3,2.2-6c0-2.7,0-3.9-0.1-4.9c-0.3-1.8-0.8-3.6-1.6-5.2c-0.8-1.2-2.6,0.8-2.4,2.8
				s0.6,4.6,0.6,4.6L182,133z"/>
			<path class="st28" d="M173,145c1.6-1.7,3.8-1.4,4.2-2.9s0.2-1.7,1.6-2.5c1.1-0.5,1.8-1.6,1.8-2.8c-0.1-0.9,1.6-0.6,1.9-2.4
				c0.2-2.2,0.1-4.4-0.2-6.6c-0.2-1.5-2.6-4.9-3.8-6.3s-2.1-0.3-2.6,0.6c-0.2,0.9-0.2,1.9,0.1,2.8c0,0-1.4-1.5-2.1-1.1
				c-0.8,0.5-1.5,2.1-0.4,4.3c-1.1-1.4-2-1.2-2.4,0c-0.3,1.3-0.1,2.6,0.6,3.8c0.8,1.9,1.7,4.7,1.1,6.3l-1.6,2.3L173,145z"/>
			<path class="st29" d="M176.1,125c0.7,0.8,1.3,1.5,1.9,2.3c0.6,0.8,1.2,1.6,1.7,2.5c0.3,1,0.5,2,0.6,3c0.1,1,0.1,2,0.1,3
				c-0.3-1-0.5-1.9-0.7-2.9l-0.3-1.4c-0.1-0.5-0.2-0.9-0.4-1.4c-0.4-0.8-1-1.6-1.5-2.5C177,126.8,176.5,125.9,176.1,125z"/>
			<path class="st29" d="M177.3,138.6c-0.2-0.9-0.2-1.9-0.4-2.8c-0.1-0.9-0.4-1.7-0.9-2.5c-0.8-1.7-1.7-3.3-2.4-5.1
				c1.2,1.5,2.2,3.1,3.1,4.8c0.5,0.9,0.7,1.8,0.8,2.8C177.5,136.7,177.4,137.7,177.3,138.6z"/>
		</g>
	</g>
</g>
<g id="freepik--speech-bubble-2--inject-2_00000000191389964478637410000007338002390401332628_">
	<g id="freepik--speech-bubble--inject-2_00000063609942992523115040000006425691712319974021_">
		<g id="freepik--speech-bubble--inject-2_00000071556763061607899020000001145422792447490966_">
			<path class="st22" d="M324.2,57.8c-4.4-6.3-6.3-14-5.1-21.4c2.3-16.3,17.5-27.7,33.8-25.4l3.3,0.7c14.2,3.7,23.8,17.2,22.4,31.7
				c-1.6,16.5-16.1,28.6-32.6,27l-3.5-0.5C335.4,68.3,328.6,63.9,324.2,57.8L324.2,57.8z"/>
			<path class="st33" d="M319.6,54.5c7.7,16.3,27.3,23.1,43.3,15.4l8.4,5.6c0.5,0.2,0.9,0.5,1.4,0.2c0.9-0.2,1.6-1.2,1.4-2.3
				l-2.3-9.8c11.4-11.2,12.8-28.9,3.7-41.9C365.2,7,344.7,3.5,330,13.8C317.2,23.1,312.6,40.1,319.6,54.5z M324.2,57.8
				c-4.4-6.3-6.3-14-5.1-21.4c2.3-16.3,17.5-27.7,33.8-25.4l3.3,0.7c14.2,3.7,23.8,17.2,22.4,31.7c-1.6,16.5-16.1,28.6-32.6,27
				l-3.5-0.5C335.4,68.3,328.6,63.9,324.2,57.8L324.2,57.8z"/>
			<path class="st34" d="M324.2,57.8c-4.4-6.3-6.3-14-5.1-21.4c2.3-16.3,17.5-27.7,33.8-25.4l3.3,0.7c14.2,3.7,23.8,17.2,22.4,31.7
				c-1.6,16.5-16.1,28.6-32.6,27l-3.5-0.5C335.4,68.3,328.6,63.9,324.2,57.8L324.2,57.8z"/>
		</g>
		<path class="st33" d="M336.8,23.6c0.7-0.7,1.6-1.2,2.3-1.9c0.9-0.5,1.9-1.2,2.8-1.4c0.9-0.5,2.1-0.7,3.3-0.9
			c1.2-0.2,2.6-0.5,3.7-0.5c1.6,0,3.3,0.2,4.9,0.7c1.4,0.5,2.8,1.2,4,2.1c1.2,0.9,1.9,2.1,2.6,3.3c0.7,1.4,0.9,2.8,0.9,4.4
			c0,1.4-0.2,2.8-0.7,4.2c-0.5,1.2-0.9,2.1-1.6,3c-0.7,0.9-1.4,1.6-2.3,2.3l-2.3,1.9c-0.7,0.5-1.4,0.9-1.9,1.6
			c-0.5,0.5-0.9,1.2-0.9,1.9l-0.7,4.7h-5.4l-0.5-5.1c-0.2-0.9,0-1.9,0.5-2.6c0.5-0.7,0.9-1.4,1.6-2.1c0.7-0.7,1.4-1.2,2.3-1.9
			c0.9-0.5,1.6-1.2,2.3-1.9s1.4-1.4,1.9-2.3c0.5-0.9,0.9-1.9,0.7-3c0-0.7-0.2-1.4-0.5-2.1c-0.2-0.7-0.7-1.2-1.2-1.6
			c-0.5-0.5-1.2-0.7-1.9-0.9c-0.7-0.2-1.4-0.2-2.3-0.2c-0.9,0-2.1,0-3,0.5c-0.7,0.2-1.4,0.5-2.1,0.9c-0.5,0.2-1.2,0.7-1.4,0.9
			c-0.2,0.2-0.7,0.5-1.2,0.5c-0.7,0-1.4-0.2-1.6-0.9L336.8,23.6z M342.6,57.1c0-0.7,0.2-1.2,0.5-1.9c0.2-0.5,0.5-1.2,0.9-1.4
			c0.9-0.9,2.1-1.4,3.5-1.4c0.7,0,1.2,0.2,1.9,0.5c0.5,0.2,1.2,0.5,1.4,0.9c0.5,0.5,0.7,0.9,0.9,1.4c0.5,1.2,0.5,2.6,0,3.7
			c-0.2,0.5-0.7,1.2-0.9,1.4c-0.5,0.5-0.9,0.7-1.4,0.9c-0.7,0.2-1.2,0.5-1.9,0.5s-1.4,0-1.9-0.5c-0.5-0.2-1.2-0.5-1.4-0.9
			c-0.5-0.5-0.7-0.9-0.9-1.4C342.9,58.5,342.6,57.8,342.6,57.1L342.6,57.1z"/>
	</g>
</g>
<g id="freepik--speech-bubble-2--inject-2">
	<g id="freepik--speech-bubble--inject-2_00000066488454003951630870000013103072402267148969_">
		<g id="freepik--speech-bubble--inject-2">
			<path class="st22" d="M309.6,80.8c-4.4,6.3-10.9,10.5-18.4,12.1l-3.5,0.5c-16.5,1.6-31-10.7-32.6-27
				c-1.4-14.7,8.2-28.2,22.4-31.7l3.3-0.7c16.3-2.3,31.4,9.1,33.8,25.4C316.2,66.8,314.3,74.5,309.6,80.8L309.6,80.8z"/>
			<path class="st33" d="M304,36.8c-14.7-10.2-34.9-6.8-45.4,7.9c-9.1,13-7.7,30.7,3.7,41.9l-2.3,9.8c-0.2,0.9,0.5,2.1,1.4,2.3
				c0.5,0.2,0.9,0,1.4-0.2l8.4-5.6c16.3,7.7,35.6,0.9,43.3-15.4C321.5,63.1,316.8,45.8,304,36.8z M309.6,80.8
				c-4.4,6.3-10.9,10.5-18.4,12.1l-3.5,0.5c-16.5,1.6-31-10.7-32.6-27c-1.4-14.7,8.2-28.2,22.4-31.7l3.3-0.7
				c16.3-2.3,31.4,9.1,33.8,25.4C316.2,66.8,314.3,74.5,309.6,80.8L309.6,80.8z"/>
			<path class="st34" d="M309.6,80.8c-4.4,6.3-10.9,10.5-18.4,12.1l-3.5,0.5c-16.5,1.6-31-10.7-32.6-27
				c-1.4-14.7,8.2-28.2,22.4-31.7l3.3-0.7c16.3-2.3,31.4,9.1,33.8,25.4C316.2,66.8,314.3,74.5,309.6,80.8L309.6,80.8z"/>
		</g>
		<path class="st33" d="M273.1,46.5c0.7-0.7,1.6-1.2,2.3-1.9c0.9-0.5,1.9-1.2,2.8-1.4c0.9-0.5,2.1-0.7,3.3-0.9
			c1.2-0.2,2.6-0.5,3.7-0.5c1.6,0,3.3,0.2,4.9,0.7c1.4,0.5,2.8,1.2,4,2.1c1.2,0.9,1.9,2.1,2.6,3.3c0.7,1.4,0.9,2.8,0.9,4.4
			c0,1.4-0.2,2.8-0.7,4.2c-0.5,1.2-0.9,2.1-1.6,3c-0.7,0.9-1.4,1.6-2.3,2.3l-2.3,1.9c-0.7,0.5-1.4,0.9-1.9,1.6
			c-0.5,0.5-0.9,1.2-0.9,1.9l-0.7,4.7h-5.4l-0.5-5.1c-0.2-0.9,0-1.9,0.5-2.6s0.9-1.4,1.6-2.1c0.7-0.7,1.4-1.2,2.3-1.9
			c0.9-0.5,1.6-1.2,2.3-1.9s1.4-1.4,1.9-2.3c0.5-0.9,0.9-1.9,0.7-3c0-0.7-0.2-1.4-0.5-2.1c-0.2-0.7-0.7-1.2-1.2-1.6
			c-0.5-0.5-1.2-0.7-1.9-0.9c-0.7-0.2-1.4-0.2-2.3-0.2c-0.9,0-2.1,0-3,0.5c-0.7,0.2-1.4,0.5-2.1,0.9c-0.5,0.2-1.2,0.7-1.4,0.9
			c-0.2,0.2-0.7,0.5-1.2,0.5c-0.7,0-1.4-0.2-1.6-0.9L273.1,46.5z M279.1,80.1c0-0.7,0.2-1.2,0.5-1.9c0.2-0.5,0.5-1.2,0.9-1.4
			c0.9-0.9,2.1-1.4,3.5-1.4c0.7,0,1.2,0.2,1.9,0.5c0.5,0.2,1.2,0.5,1.4,0.9c0.5,0.5,0.7,0.9,0.9,1.4c0.5,1.2,0.5,2.6,0,3.7
			c-0.2,0.5-0.7,1.2-0.9,1.4c-0.5,0.5-0.9,0.7-1.4,0.9c-0.7,0.2-1.2,0.5-1.9,0.5c-0.7,0-1.4,0-1.9-0.5c-0.5-0.2-1.2-0.5-1.4-0.9
			c-0.5-0.5-0.7-0.9-0.9-1.4C279.1,81.5,279.1,80.8,279.1,80.1L279.1,80.1z"/>
	</g>
</g>
<g id="freepik--speech-bubble-2--inject-2_00000109028181826604901500000011967625244551689352_">
	<g id="freepik--speech-bubble--inject-2_00000095318772634225927320000006108422982326577330_">
		<g id="freepik--speech-bubble--inject-2_00000119085823450132502770000005541283484642365079_">
			<path class="st22" d="M183.1,64.9c-4.4,6.3-10.9,10.5-18.4,12.1l-3.5,0.5c-16.5,1.6-31-10.7-32.6-27
				c-1.4-14.7,8.2-28.2,22.4-31.7l3.3-0.7c16.3-2.3,31.4,9.1,33.8,25.4C189.6,50.9,187.8,58.6,183.1,64.9L183.1,64.9z"/>
			<path class="st33" d="M177.5,20.9c-14.7-10.2-34.9-6.8-45.4,7.9c-9.1,13-7.7,30.7,3.7,41.9l-2.3,9.8c-0.2,0.9,0.5,2.1,1.4,2.3
				c0.5,0.2,0.9,0,1.4-0.2l8.4-5.6c16.3,7.7,35.6,0.9,43.3-15.4C195,47.2,190.3,29.9,177.5,20.9z M183.1,64.9
				c-4.4,6.3-10.9,10.5-18.4,12.1l-3.5,0.5c-16.5,1.6-31-10.7-32.6-27c-1.4-14.7,8.2-28.2,22.4-31.7l3.3-0.7
				c16.3-2.3,31.4,9.1,33.8,25.4C189.6,50.9,187.8,58.6,183.1,64.9L183.1,64.9z"/>
			<path class="st34" d="M183.1,64.9c-4.4,6.3-10.9,10.5-18.4,12.1l-3.5,0.5c-16.5,1.6-31-10.7-32.6-27
				c-1.4-14.7,8.2-28.2,22.4-31.7l3.3-0.7c16.3-2.3,31.4,9.1,33.8,25.4C189.6,50.9,187.8,58.6,183.1,64.9L183.1,64.9z"/>
		</g>
		<path class="st33" d="M146.5,30.6c0.7-0.7,1.6-1.2,2.3-1.9c0.9-0.5,1.9-1.2,2.8-1.4c0.9-0.5,2.1-0.7,3.3-0.9
			c1.2-0.2,2.6-0.5,3.7-0.5c1.6,0,3.3,0.2,4.9,0.7c1.4,0.5,2.8,1.2,4,2.1c1.2,0.9,1.9,2.1,2.6,3.3c0.7,1.4,0.9,2.8,0.9,4.4
			c0,1.4-0.2,2.8-0.7,4.2c-0.5,1.2-0.9,2.1-1.6,3c-0.7,0.9-1.4,1.6-2.3,2.3l-2.3,1.9c-0.7,0.5-1.4,0.9-1.9,1.6
			c-0.5,0.5-0.9,1.2-0.9,1.9l-0.7,4.7h-5.4l-0.5-5.1c-0.2-0.9,0-1.9,0.5-2.6s0.9-1.4,1.6-2.1c0.7-0.7,1.4-1.2,2.3-1.9
			c0.9-0.5,1.6-1.2,2.3-1.9s1.4-1.4,1.9-2.3c0.5-0.9,0.9-1.9,0.7-3c0-0.7-0.2-1.4-0.5-2.1c-0.2-0.7-0.7-1.2-1.2-1.6
			c-0.5-0.5-1.2-0.7-1.9-0.9c-0.7-0.2-1.4-0.2-2.3-0.2s-2.1,0-3,0.5c-0.7,0.2-1.4,0.5-2.1,0.9c-0.5,0.2-1.2,0.7-1.4,0.9
			c-0.2,0.2-0.7,0.5-1.2,0.5c-0.7,0-1.4-0.2-1.6-0.9L146.5,30.6z M152.6,64.2c0-0.7,0.2-1.2,0.5-1.9c0.2-0.5,0.5-1.2,0.9-1.4
			c0.9-0.9,2.1-1.4,3.5-1.4c0.7,0,1.2,0.2,1.9,0.5c0.5,0.2,1.2,0.5,1.4,0.9c0.5,0.5,0.7,0.9,0.9,1.4c0.5,1.2,0.5,2.6,0,3.7
			c-0.2,0.5-0.7,1.2-0.9,1.4c-0.5,0.5-0.9,0.7-1.4,0.9c-0.7,0.2-1.2,0.5-1.9,0.5s-1.4,0-1.9-0.5c-0.5-0.2-1.2-0.5-1.4-0.9
			c-0.5-0.5-0.7-0.9-0.9-1.4C152.6,65.6,152.6,64.9,152.6,64.2L152.6,64.2z"/>
	</g>
</g>
</svg>
