<?xml version="1.0" encoding="utf-8"?>
<!-- Generator: Adobe Illustrator 27.3.1, SVG Export Plug-In . SVG Version: 6.00 Build 0)  -->
<svg version="1.1" id="Layer_1" xmlns="http://www.w3.org/2000/svg" xmlns:xlink="http://www.w3.org/1999/xlink" x="0px" y="0px"
	 viewBox="0 0 500 500" style="enable-background:new 0 0 500 500;" xml:space="preserve">
<style type="text/css">
	.st0{fill:#FAFAFA;}
	.st1{fill:#E0E0E0;}
	.st2{fill:#455A64;}
	.st3{fill:#37474F;}
	.st4{opacity:0.3;}
	.st5{fill:#A0B19E;}
	.st6{opacity:0.2;enable-background:new    ;}
	.st7{opacity:0.25;fill:#FFFFFF;enable-background:new    ;}
	.st8{opacity:0.3;fill:#FFFFFF;enable-background:new    ;}
	.st9{opacity:0.1;fill:#FFFFFF;enable-background:new    ;}
	.st10{opacity:0.55;fill:#FFFFFF;enable-background:new    ;}
	.st11{opacity:0.45;enable-background:new    ;}
	.st12{opacity:0.3;enable-background:new    ;}
	.st13{opacity:0.15;enable-background:new    ;}
	.st14{opacity:0.75;fill:#FFFFFF;enable-background:new    ;}
	.st15{opacity:0.25;enable-background:new    ;}
	.st16{opacity:0.1;enable-background:new    ;}
	.st17{opacity:0.5;fill:#A0B19E;enable-background:new    ;}
	.st18{opacity:0.5;fill:#F5F5F5;enable-background:new    ;}
	.st19{opacity:0.4;fill:#FFFFFF;enable-background:new    ;}
	.st20{opacity:0.2;fill:#FFFFFF;enable-background:new    ;}
	.st21{opacity:0.5;fill:#FFFFFF;enable-background:new    ;}
	.st22{opacity:0.5;enable-background:new    ;}
	.st23{opacity:0.35;enable-background:new    ;}
	.st24{fill:#FFA8A7;}
	.st25{fill:#263238;}
	.st26{fill:#FFBDA7;}
	.st27{fill:#EBEBEB;}
	.st28{fill:#F0997A;}
	.st29{fill:#F5F5F5;}
	.st30{opacity:0.15;fill:#FFFFFF;enable-background:new    ;}
	.st31{fill:#FFFFFF;}
</style>
<g id="freepik--Floor--inject-44">
	<path id="freepik--floor--inject-44" class="st0" d="M77.7,251.3c-95.2,55-95.2,144,0,199s249.5,55,344.7,0s95.2-144,0-199
		S172.8,196.4,77.7,251.3z"/>
</g>
<g id="freepik--Shadows--inject-44">
	<path id="freepik--Shadow--inject-44" class="st1" d="M140.4,430.7l-13.8-2.4c-0.5,0.3-1,0.5-1.6,0.8l-2,0.9l-4.2-11.7l-25.2-3.9
		l-0.8-8.6l0.1-2.9l-16.9-5.3l4.6-2.2c7.3-3.5,16.6-5.4,26.1-5.4c11.6,0,22.4,2.7,30.6,7.6c2.3,1.3,4.4,2.9,6.2,4.8h1.2v1.2
		c3.6,4,5.3,8.5,5,13c-0.3,5-3,9.7-7.7,13.7l-0.6,0.5L140.4,430.7z"/>
	<path id="freepik--shadow--inject-44" class="st1" d="M88.4,441.1c-11.6,0-22.4-2.7-30.6-7.6S45.3,422,45.4,415.1
		s4.8-13.3,13.1-17.9c0.8-0.5,1.6-0.8,2.2-1.1l0.7-0.3l15.6,5l-0.1,5.7l0.5,5.3l24.5,3.8l3.6,9.7l0.6-0.4l19.3,3.3l-3.3,2.8
		c-1.7,1.4-3.5,2.6-5.4,3.6c-1.9,1.1-3.9,2-6,2.8l-0.7,0.2C103.1,439.9,95.8,441.1,88.4,441.1z"/>
	<path id="freepik--shadow--inject-44_00000051379406933421511680000009609664772726455170_" class="st1" d="M371.9,452.1l-9.6,5.5
		c-2,0.9-4.3,0.8-6.3-0.3l-47.4-27.3c-1.9-1.1-2.1-2.7-0.5-3.6l9.6-5.5c2-0.9,4.3-0.8,6.3,0.3l47.3,27.3
		C373.3,449.6,373.5,451.2,371.9,452.1z"/>
	<path id="freepik--shadow--inject-44_00000073002615331422160340000011984387470882652558_" class="st1" d="M363,426.3
		c-0.8,3.8,1.4,7.6,4.1,10.3c3,2.9,7,4.6,11,5.9c10.4,3.2,24.5,3.4,35.6,5.5c12.8,2.4,26,9.3,39.3,7.2c4.2-0.5,8.1-2.1,11.5-4.6
		c2.9-2.3,3.9-6.6,1.6-9.8c-1.7-2.4-4.6-3.8-7.2-5c-7.1-3.1-14.6-3.4-22.3-4.3c-11.2-1.3-22.3-3.8-33-7.3c-8.3-2.5-16.9-3.8-25.5-4
		c-3.6-0.1-7.1-0.5-10.6,0.8c-1.3,0.4-2.4,1.3-3.3,2.4c-0.3,0.5-0.6,1.1-0.8,1.7C363.2,425.5,363.1,425.9,363,426.3z"/>
</g>
<g id="freepik--Plant--inject-44">
	<g id="freepik--Plants--inject-44">
		<g id="freepik--plants--inject-44">
			<path class="st2" d="M58.4,374c-0.6-1.7-0.3-3.6,1-4.9c1.6-1.8,4.1-2.8,4.3-2.7s0.4,2.7-1.3,5C61.6,372.9,60.1,373.8,58.4,374z"
				/>
			<path class="st2" d="M58.1,380c0.2-1.8,1.4-3.3,3.2-3.9c2.3-0.9,4.9-0.6,5.1-0.4s-0.9,2.6-3.5,3.9
				C61.5,380.5,59.7,380.6,58.1,380z"/>
			<path class="st2" d="M53.7,381.5c-1.7-0.5-3-2-3.3-3.8c-0.5-2.4,0-4.7,0.3-4.9s2.7,1.5,3.6,3.9C55,378.3,54.8,380.1,53.7,381.5z"
				/>
			<path class="st3" d="M53.4,400.4h1.2c-0.3-1.9-0.4-3.9-0.5-5.8c0-3.8,0.5-7.5,1.4-11.2c0.5-2.2,1.3-4.3,2.1-6.3
				c0.9-2.3,1.9-4.6,3.2-6.7c0,0-0.1-0.1-0.1-0.1c-1.7,2.1-3.1,4.5-4.1,7.1c-1.7,3.9-2.8,8-3.3,12.3c-0.3,2-0.4,4.1-0.3,6.1
				C52.9,397.3,53.1,398.8,53.4,400.4z"/>
			<path class="st3" d="M54.5,383.4c-0.6-0.9-1.2-1.9-1.6-2.9c-0.4-1-0.7-2-0.7-3.1c0-0.1,0.1,0,0.2,0.1c0.3,0.9,0.6,1.8,1,2.6
				c0.4,0.9,1,1.8,1.6,2.5c0.2,0.2,0.2,0.5,0.1,0.8C54.9,383.5,54.7,383.5,54.5,383.4C54.5,383.4,54.5,383.4,54.5,383.4z"/>
			<path class="st3" d="M54.7,383c0.9-1.3,2-2.4,3.2-3.3c0.6-0.4,1.1-0.8,1.8-1.2c0.7-0.4,1.5-0.7,2.3-0.9c0,0,0.2,0,0.2,0.1
				c-0.8,0.3-1.5,0.7-2.2,1.2c-0.6,0.4-1.2,0.8-1.8,1.3c-1.1,0.9-2.2,2-3.1,3.2C55,383.6,54.5,383.2,54.7,383z"/>
			<path class="st2" d="M56,388.8c-0.2-1.8,0.7-3.5,2.3-4.5c2.1-1.3,4.7-1.6,4.9-1.5s-0.3,2.7-2.5,4.5C59.4,388.5,57.7,389,56,388.8
				z"/>
			<path class="st3" d="M53.2,392.4c0.6-1.4,1.4-2.8,2.5-3.9c0.5-0.5,1-1,1.5-1.5c0.6-0.6,1.3-1,2.1-1.4c0,0,0.2,0,0.2,0
				c-0.7,0.5-1.3,1-1.9,1.6c-0.5,0.5-1.1,1.1-1.5,1.6c-0.9,1.2-1.7,2.4-2.4,3.8C53.6,393,53.1,392.7,53.2,392.4z"/>
		</g>
		<g id="freepik--plants--inject-44_00000093148204773296712160000016693519728551540357_">
			<path class="st2" d="M39.8,366.1c0.2-2-0.8-3.8-2.5-4.8c-2.2-1.4-5.1-1.7-5.3-1.5s0.4,3,2.8,4.9C36.1,365.8,38,366.4,39.8,366.1z
				"/>
			<path class="st2" d="M41.8,372.3c-0.7-1.8-2.5-3-4.4-3.1c-2.6-0.2-5.3,0.8-5.4,1.1s1.7,2.4,4.8,3.1
				C38.5,373.8,40.4,373.4,41.8,372.3z"/>
			<path class="st2" d="M46.9,372.6c1.7-1,2.6-3,2.3-4.9c-0.2-2.6-1.4-4.9-1.7-5s-2.3,2.3-2.7,5.1C44.7,369.6,45.4,371.4,46.9,372.6
				z"/>
			<path class="st3" d="M53.1,400.4h1.2c-0.4-4.4-1.1-8.8-2.2-13.1c-0.5-2.2-1.2-4.3-2.1-6.3c-1.8-4.2-4.2-8.2-7.1-11.9
				c-1.8-2.4-3.9-4.5-6.3-6.2c0,0-0.2,0.1-0.1,0.1c1.9,1.8,3.7,3.9,5.3,6.1c1.5,1.9,2.8,3.9,4,6c2.1,3.5,3.7,7.4,4.7,11.3
				C51.6,390.9,52.5,395.6,53.1,400.4z"/>
			<path class="st3" d="M46.7,374.7c0.4-1.1,0.7-2.3,0.8-3.5c0.2-1.1,0.1-2.3-0.1-3.4c0-0.2-0.1,0.1-0.1,0.2c0,1-0.1,2-0.3,3
				c-0.2,1.1-0.5,2.1-1,3.1c-0.1,0.3-0.1,0.6,0.2,0.8c0.2,0.1,0.4,0.1,0.5-0.1C46.6,374.8,46.6,374.8,46.7,374.7z"/>
			<path class="st3" d="M46.4,374.4c-1.3-1.1-2.8-1.9-4.4-2.5c-0.7-0.3-1.4-0.5-2.2-0.7c-0.9-0.2-1.8-0.3-2.7-0.2
				c0,0-0.2,0.1-0.2,0.1c0.9,0.1,1.7,0.3,2.6,0.6c0.8,0.2,1.5,0.5,2.3,0.8c1.5,0.7,2.9,1.5,4.2,2.5
				C46.3,375.2,46.6,374.6,46.4,374.4z"/>
			<path class="st2" d="M46.7,380.8c-0.4-1.9-1.8-3.5-3.7-4c-2.5-0.8-5.3-0.3-5.5-0.1s1.2,2.7,4,4C43.1,381.5,45,381.6,46.7,380.8z"
				/>
			<path class="st3" d="M50.7,383.8c-1-1.3-2.3-2.5-3.7-3.3c-0.6-0.4-1.3-0.8-2-1.1c-0.8-0.4-1.7-0.7-2.6-0.8c0,0-0.2,0.1-0.2,0.1
				c0.8,0.3,1.6,0.7,2.4,1.1c0.7,0.4,1.4,0.8,2,1.3c1.3,0.9,2.5,2,3.6,3.2C50.4,384.5,50.8,384,50.7,383.8z"/>
		</g>
	</g>
</g>
<g id="freepik--bar-chart--inject-44">
	<g id="freepik--bar-graph--inject-44">
		<g class="st4">
			<path class="st5" d="M149.4,370.7L115,350.8c-0.1-0.1-0.2-0.2-0.2-0.4c0-0.2,0.1-0.3,0.2-0.4l27.6-15.9c0.1-0.1,0.3-0.1,0.4,0
				l34.4,19.9c0.2,0.1,0.3,0.4,0.2,0.6c0,0.1-0.1,0.1-0.2,0.2l-27.6,15.9C149.7,370.8,149.6,370.8,149.4,370.7L149.4,370.7z
				 M142.7,335.1L116,350.5l33.6,19.4l26.7-15.4L142.7,335.1z"/>
		</g>
		<polygon class="st5" points="149.6,366.4 149.6,259.2 170.3,247.2 170.3,354.5 		"/>
		<polygon class="st6" points="149.6,366.4 149.6,259.2 170.3,247.2 170.3,354.5 		"/>
		<polygon class="st5" points="149.6,366.4 122.1,350.5 122.1,243.3 149.6,259.2 		"/>
		<polygon class="st5" points="122.1,243.3 142.7,231.3 170.3,247.2 149.6,259.2 		"/>
		<polygon class="st7" points="122.1,243.3 142.7,231.3 170.3,247.2 149.6,259.2 		"/>
		<path class="st8" d="M122.1,243.3l27.8,15.3l9-5l11.4-6.3l-11.1,6.7l-9.1,5.4c0.2,3.1,0.3,94.4,0.2,97.5c0,3.2-0.2,6.3-0.6,9.5
			c-0.4-3.2-0.6-6.3-0.6-9.5c0-3,0-94.2,0.2-97.2L122.1,243.3z"/>
		<g class="st4">
			<path class="st5" d="M201.1,400.6l-34.4-19.9c-0.1-0.1-0.2-0.2-0.2-0.4c0-0.2,0.1-0.3,0.2-0.4l27.5-15.9c0.1-0.1,0.3-0.1,0.4,0
				l34.4,19.9c0.1,0.1,0.2,0.2,0.2,0.4c0,0.2-0.1,0.3-0.2,0.4l-27.5,15.9c-0.1,0-0.1,0-0.2,0C201.2,400.6,201.1,400.6,201.1,400.6z
				 M194.4,364.9l-26.7,15.4l33.6,19.4l26.7-15.4L194.4,364.9z"/>
		</g>
		<polygon class="st5" points="201.3,396.2 201.3,331.3 221.9,319.4 221.9,384.3 		"/>
		<polygon class="st9" points="201.3,396.2 201.3,331.3 221.9,319.4 221.9,384.3 		"/>
		<polygon class="st5" points="201.3,396.2 173.7,380.3 173.7,315.4 201.3,331.3 		"/>
		<polygon class="st8" points="201.3,396.2 173.7,380.3 173.7,315.4 201.3,331.3 		"/>
		<polygon class="st5" points="173.7,315.4 194.4,303.5 221.9,319.4 201.3,331.3 		"/>
		<polygon class="st10" points="173.7,315.4 194.4,303.5 221.9,319.4 201.3,331.3 		"/>
		<path class="st8" d="M200.9,331.8l-27.2-16.4l27.8,15.4c3-1.7,6-3.4,9-5l11.4-6.3l-11.1,6.7c-3.1,1.8-6.1,3.6-9.2,5.5
			c0.1,3.2,0.2,18.7,0.2,22s0.1,19.8,0,23s-0.1,6.6-0.2,9.9s-0.2,6.6-0.4,9.8c-0.2-3.3-0.3-6.6-0.4-9.8s-0.2-6.6-0.2-9.9
			s0-19.8,0-23C200.7,350.4,200.8,335,200.9,331.8z"/>
		<g class="st4">
			<path class="st5" d="M252.7,430.4l-34.4-19.9c-0.2-0.1-0.3-0.4-0.2-0.6c0-0.1,0.1-0.1,0.2-0.2l27.6-15.9c0.1-0.1,0.3-0.1,0.4,0
				l34.4,19.9c0.1,0.1,0.2,0.2,0.2,0.4c0,0.1-0.1,0.3-0.2,0.4l-27.6,15.9c-0.1,0-0.1,0.1-0.2,0C252.8,430.4,252.8,430.4,252.7,430.4
				z M246,394.7l-26.7,15.4l33.6,19.4l26.7-15.4L246,394.7z"/>
		</g>
		<polygon class="st5" points="252.9,426 252.9,396 273.6,384 273.6,414.1 		"/>
		<polygon class="st11" points="252.9,426 252.9,396 273.6,384 273.6,414.1 		"/>
		<polygon class="st5" points="252.9,426 225.4,410.1 225.4,380.1 252.9,396 		"/>
		<polygon class="st12" points="252.9,426 225.4,410.1 225.4,380.1 252.9,396 		"/>
		<polygon class="st5" points="225.4,380.1 246,368.1 273.6,384 252.9,396 		"/>
		<polygon class="st13" points="225.4,380.1 246,368.1 273.6,384 252.9,396 		"/>
		<path class="st8" d="M225.4,380.1l27.8,15.3l9-5l11.4-6.4l-11.1,6.7l-9.1,5.5c0.2,1.9,0.3,22.1,0.2,24c0,2-0.2,3.9-0.6,5.9
			c-0.4-1.9-0.6-3.9-0.6-5.9c0-1.8,0-21.9,0.2-23.7L225.4,380.1z"/>
		<g class="st4">
			<path class="st5" d="M97.8,340.9L63.3,321c-0.1-0.1-0.2-0.2-0.2-0.4c0-0.1,0.1-0.3,0.2-0.4l27.5-15.9c0.1-0.1,0.3-0.1,0.4,0
				l34.4,19.9c0.2,0.1,0.3,0.4,0.2,0.6c0,0.1-0.1,0.1-0.2,0.2l-27.6,15.9c0,0-0.1,0.1-0.2,0.1C97.9,341,97.8,341,97.8,340.9z
				 M91.1,305.2l-26.7,15.4L98,340l26.7-15.4L91.1,305.2z"/>
		</g>
		<polygon class="st5" points="98,336.6 98,181.3 118.6,169.3 118.6,324.6 		"/>
		<polygon class="st8" points="98,336.6 98,181.3 118.6,169.3 118.6,324.6 		"/>
		<polygon class="st5" points="98,336.6 70.4,320.7 70.4,165.4 98,181.3 		"/>
		<polygon class="st10" points="98,336.6 70.4,320.7 70.4,165.4 98,181.3 		"/>
		<polygon class="st5" points="70.4,165.4 91.1,153.4 118.6,169.3 98,181.3 		"/>
		<polygon class="st14" points="70.4,165.4 91.1,153.4 118.6,169.3 98,181.3 		"/>
		<path class="st8" d="M97.6,181.8l-27.2-16.4l27.8,15.3c3-1.7,6-3.4,9-5.1l11.3-6.3l-11.1,6.7c-3,1.8-6.1,3.7-9.2,5.5
			c0.1,3.6,0.2,7.3,0.2,10.9s0,118.2,0,121.9s-0.1,7.4-0.2,11.1s-0.2,7.4-0.4,11.1c-0.2-3.7-0.3-7.4-0.4-11.1
			c-0.1-3.7-0.2-7.4-0.2-11.1s0-118.2,0-121.9C97.4,188.8,97.5,185.3,97.6,181.8z"/>
	</g>
</g>
<g id="freepik--Coin--inject-44">
	<path class="st5" d="M142.6,396.5L142.6,396.5c-1.9-1.9-4.1-3.6-6.4-5c-14.9-8.9-38.8-9.7-54.8-2.1l-0.1,7.5l13.5,4.3l-0.1,4.3
		l0.7,6.9l24.9,3.9l3.9,10.7c0.7-0.3,1.4-0.7,2.1-1.1l14.3,2.5l0,0c5.9-4.9,8.1-10.8,6.5-16.6C148.6,406.7,147.1,401.3,142.6,396.5z
		"/>
	<g id="freepik--coin--inject-44">
		<path class="st5" d="M147.6,408.1l-0.1,8.2c-0.3,4.3-2.6,8.5-7,12.1l0.1-7.5l-14.3-2.5c-0.7,0.4-1.3,0.7-2.1,1.1l-4-10.8
			l-24.8-3.9l-0.7-6.9l0.1-4.3l-1.9-0.6c14.5-3,31.5-1,43.1,6c3.9,2.1,7.1,5.2,9.4,9H147.6z"/>
		<path class="st15" d="M147.6,408.1l-0.1,8.2c-0.3,4.3-2.6,8.5-7,12.1l0.1-7.5l-14.3-2.5c-0.7,0.4-1.3,0.7-2.1,1.1l-4-10.8
			l-24.8-3.9l-0.7-6.9l0.1-4.3l-1.9-0.6c14.5-3,31.5-1,43.1,6c3.9,2.1,7.1,5.2,9.4,9H147.6z"/>
		<path class="st16" d="M107.7,391.7l-0.3,15l-12-1.9l-0.7-6.9l0.1-4.3l-1.9-0.6C97.8,392.1,102.7,391.6,107.7,391.7z"/>
		<path class="st17" d="M147.6,408.1l-0.1,8.2c-0.3,3-1.4,5.9-3.3,8.3c-1.1,1.4-2.3,2.7-3.7,3.8l0.1-7.5l-11.4-2l0.4-23.1
			c2.2,0.9,4.4,1.9,6.4,3.2c3.9,2.1,7.1,5.2,9.4,9L147.6,408.1z"/>
		<path class="st5" d="M140.6,420.9L140.6,420.9l-14.3-2.5c-0.7,0.4-1.3,0.7-2.1,1.1l-4-10.8l-24.8-3.9l-0.7-6.9l0.1-4.3l-13.5-4.3
			c15.9-7.6,39.9-6.9,54.8,2.1c2.4,1.4,4.5,3.1,6.4,5l0,0C149.9,404.3,149.2,413.7,140.6,420.9z"/>
		<path class="st6" d="M140.6,420.9L140.6,420.9l-14.3-2.5c-0.7,0.4-1.3,0.7-2.1,1.1l-4-10.8l-24.8-3.9l-0.7-6.9l0.1-4.3l-13.5-4.3
			c15.9-7.6,39.9-6.9,54.8,2.1c2.4,1.4,4.5,3.1,6.4,5l0,0C149.9,404.3,149.2,413.7,140.6,420.9z"/>
		<path class="st18" d="M140.6,420.9L140.6,420.9l-0.8-0.1c3.2-2.7,6.1-6.1,6.8-9.8c0.9-5.1-0.5-10.3-3.8-14.2
			C149.9,404.4,149.2,413.8,140.6,420.9z"/>
		<path class="st18" d="M84.6,388c-1,0.4-2,0.9-2.9,1.5l-0.3-0.1C82.4,388.9,83.5,388.4,84.6,388z"/>
		<path class="st5" d="M137.7,420.4l-11.4-2c-0.7,0.4-1.3,0.7-2.1,1.1l-4-10.8l-24.8-3.8l-0.7-6.9l0.1-4.3L84,390.3
			c14.8-6.7,36.5-5.8,50.1,2.3C147.1,400.4,148.2,412.2,137.7,420.4z"/>
		<path class="st19" d="M137.7,420.4l-11.4-2c-0.7,0.4-1.3,0.7-2.1,1.1l-4-10.8l-24.8-3.8l-0.7-6.9l0.1-4.3L84,390.3
			c14.8-6.7,36.5-5.8,50.1,2.3C147.1,400.4,148.2,412.2,137.7,420.4z"/>
		<path class="st20" d="M143,414.5c3.1-5.5,2.2-11.6-2.6-16.9c-1-1-2-2-3.1-2.8c-1-0.7-2-1.4-3-2c-0.6-0.4-1.2-0.7-1.8-1
			c1.5,2.6,0.9,5.3-7.9,5.7c-17.2,0.7,4.3,17.6,4.3,17.6S140,409.7,143,414.5z"/>
		<path class="st21" d="M141.3,409.9c2.6-0.2,3.9-2.9,3-5.9s-3.8-5.2-6.4-5s-3.9,2.9-3,5.9S138.7,410.1,141.3,409.9z"/>
		<path class="st5" d="M127.6,418.7l-1.3-0.2c-0.7,0.4-1.3,0.7-2.1,1.1l-4-10.8l-24.8-3.9l-0.7-6.9l0.1-4.3l-1.3-0.4
			c10.2-3.3,23.3-2.5,32.4,2.3c0.4,0.2,0.9,0.5,1.3,0.8C137.8,402.7,137.9,412.6,127.6,418.7z"/>
		<path class="st6" d="M127.6,418.7l-1.3-0.2c-0.7,0.4-1.3,0.7-2.1,1.1l-4-10.8l-24.8-3.9l-0.7-6.9l0.1-4.3l-1.3-0.4
			c10.2-3.3,23.3-2.5,32.4,2.3c0.4,0.2,0.9,0.5,1.3,0.8C137.8,402.7,137.9,412.6,127.6,418.7z"/>
		<path class="st5" d="M126.3,418.4l-0.6,0.3c-0.2,0.1-0.4,0.2-0.7,0.4s-0.5,0.3-0.8,0.4l-4-10.8l-24.8-3.9l-0.7-6.9l0.1-4.3
			c10.2-3,23.1-1.9,31.6,3.2C136.6,403,136.6,412.6,126.3,418.4z"/>
		<path class="st22" d="M126.3,418.4l-0.6,0.3c-0.2,0.1-0.4,0.2-0.7,0.4s-0.5,0.3-0.8,0.4l-4-10.8l-24.8-3.9l-0.7-6.9l0.1-4.3
			c10.2-3,23.1-1.9,31.6,3.2C136.6,403,136.6,412.6,126.3,418.4z"/>
		<path class="st5" d="M133.7,410c-0.8,3.1-3.3,6.1-7.4,8.5l-0.6,0.3c-0.2,0.1-0.4,0.2-0.7,0.4s-0.5,0.3-0.8,0.4l-4-10.8l-24.8-3.9
			l-0.7-6.9c10.2-3,23.1-1.9,31.6,3.2C130.6,403.7,133,406.8,133.7,410z"/>
		<path class="st23" d="M133.7,410c-0.8,3.1-3.3,6.1-7.4,8.5l-0.6,0.3c-0.2,0.1-0.4,0.2-0.7,0.4s-0.5,0.3-0.8,0.4l-4-10.8l-24.8-3.9
			l-0.7-6.9c10.2-3,23.1-1.9,31.6,3.2C130.6,403.7,133,406.8,133.7,410z"/>
	</g>
	<path class="st15" d="M124.2,419.5l-0.1,7.5l2.1-1.1l0.1-7.5C125.6,418.8,124.9,419.2,124.2,419.5z"/>
	<polygon class="st20" points="120.3,408.8 120.1,416.3 124.1,427 124.2,419.5 	"/>
	<polygon class="st20" points="95.4,404.9 95.3,412.4 94.6,405.5 94.7,398 	"/>
</g>
<g id="freepik--coin--inject-44_00000085236887770241217670000008425173044780689836_">
	<path class="st5" d="M120.8,421.6l-0.1,7.5c-1.6,1.3-3.3,2.4-5.1,3.4c-15.9,8.8-41.3,8.4-56.9-1c-7.5-4.5-11.3-10.2-11.5-16l0,0
		l0.2-8.2h2.2c2.5-3.7,5.8-6.7,9.8-8.7c4.3-2.3,9-4,13.8-5l1.9,0.6l-0.1,4.4l0.7,6.9l24.9,3.9l3.9,10.8c0.7-0.3,1.4-0.7,2.1-1.1
		L120.8,421.6z"/>
	<path class="st15" d="M120.8,421.6l-0.1,7.5c-1.6,1.3-3.3,2.4-5.1,3.4c-15.9,8.8-41.3,8.4-56.9-1c-7.5-4.5-11.3-10.2-11.5-16l0,0
		l0.2-8.2h2.2c2.5-3.7,5.8-6.7,9.8-8.7c4.3-2.3,9-4,13.8-5l1.9,0.6l-0.1,4.4l0.7,6.9l24.9,3.9l3.9,10.8c0.7-0.3,1.4-0.7,2.1-1.1
		L120.8,421.6z"/>
	<path class="st16" d="M87.6,407.4l-0.6,31.4c-10.3-0.2-20.5-2.6-28.3-7.3c-7.5-4.5-11.3-10.2-11.5-16l0,0l0.2-8.2h2.2
		c2.5-3.7,5.8-6.7,9.8-8.7c4.3-2.3,9-4,13.8-5l1.9,0.6l-0.1,4.4l0.7,6.9L87.6,407.4z"/>
	<path class="st16" d="M65.8,395.8c-2.3,0.8-4.4,1.8-6.5,2.9c-3.9,2-7.3,5-9.8,8.7h-2.2l-0.2,8.2l0,0c0.2,5.7,4,11.5,11.5,16
		c2.1,1.2,4.2,2.3,6.4,3.1L65.8,395.8z"/>
	<path class="st17" d="M120.8,421.6l-0.1,7.5c-1.6,1.3-3.3,2.4-5.1,3.4c-2.1,1.2-4.3,2.1-6.5,2.9l0.3-15.9L120.8,421.6z"/>
	<path class="st5" d="M120.8,421.6c-1.6,1.3-3.2,2.4-5,3.4c-1.8,1-3.8,1.9-5.7,2.6l-0.6,0.2c-15.7,5.7-36.9,4.3-50.5-3.9
		c-15.5-9.3-15.3-24,0.6-32.8c0.7-0.4,1.4-0.8,2.1-1.1l13.4,4.3v4.3l0.7,6.9l24.9,3.9l3.9,10.8c0.7-0.3,1.4-0.7,2.1-1.1L120.8,421.6
		z"/>
	<path class="st6" d="M120.8,421.6c-1.6,1.3-3.2,2.4-5,3.4c-1.8,1-3.8,1.9-5.7,2.6l-0.6,0.2c-15.7,5.7-36.9,4.3-50.5-3.9
		c-15.5-9.3-15.3-24,0.6-32.8c0.7-0.4,1.4-0.8,2.1-1.1l13.4,4.3v4.3l0.7,6.9l24.9,3.9l3.9,10.8c0.7-0.3,1.4-0.7,2.1-1.1L120.8,421.6
		z"/>
	<path class="st18" d="M120.8,421.6c-1.6,1.3-3.2,2.4-5,3.4c-1.8,1-3.8,1.9-5.7,2.6c3.6-1.6,6.9-3.7,9.9-6.2L120.8,421.6z"/>
	<path class="st18" d="M48.5,404.6c-0.9,5.1,0.5,10.4,3.9,14.3c-8.5-9-6.1-20.4,7.1-27.7c0.7-0.4,1.4-0.8,2.1-1.1l0.3,0.1
		C56.9,392.9,49.7,398.3,48.5,404.6z"/>
	<path class="st5" d="M117.9,421.1c-1.3,1-2.7,1.9-4.1,2.7c-14.8,8.2-38.4,7.8-52.9-0.9s-14.2-22.4,0.5-30.5c0.9-0.5,1.8-1,2.8-1.4
		l10.8,3.4v4.3l0.7,6.9l24.9,3.9l3.9,10.8c0.7-0.3,1.4-0.7,2.1-1.1L117.9,421.1z"/>
	<path class="st19" d="M117.9,421.1c-1.3,1-2.7,1.9-4.1,2.7c-14.8,8.2-38.4,7.8-52.9-0.9s-14.2-22.4,0.5-30.5c0.9-0.5,1.8-1,2.8-1.4
		l10.8,3.4v4.3l0.7,6.9l24.9,3.9l3.9,10.8c0.7-0.3,1.4-0.7,2.1-1.1L117.9,421.1z"/>
	<path class="st5" d="M94,423.8c-0.7-6.4-28.4-24.6-28.4-24.6s-6.2-2.6-4-6.9c-1,0.6-2,1.2-3,1.9c-0.7,0.5-1.3,0.9-1.8,1.4
		c-8.5,7.1-8.6,16.5-0.4,23.9c0.5,0.5,1.2,1,1.8,1.5c0.9,0.7,1.8,1.3,2.7,1.9c0.9,0.6,1.9,1.1,2.9,1.6c0.8,0.4,1.7,0.8,2.5,1.1
		s1.7,0.7,2.6,1c2.7,0.9,5.5,1.7,8.3,2.1c0.6,0.1,1.2,0.2,1.9,0.3c2.8,0.4,5.5,0.6,8.3,0.7c3.4,0.1,6.8-0.2,10.2-0.7
		C97.6,429,93.1,428,94,423.8z"/>
	<path class="st8" d="M94,423.8c-0.7-6.4-28.4-24.6-28.4-24.6s-6.2-2.6-4-6.9c-1,0.6-2,1.2-3,1.9c-0.7,0.5-1.3,0.9-1.8,1.4
		c-8.5,7.1-8.6,16.5-0.4,23.9c0.5,0.5,1.2,1,1.8,1.5c0.9,0.7,1.8,1.3,2.7,1.9c0.9,0.6,1.9,1.1,2.9,1.6c0.8,0.4,1.7,0.8,2.5,1.1
		s1.7,0.7,2.6,1c2.7,0.9,5.5,1.7,8.3,2.1c0.6,0.1,1.2,0.2,1.9,0.3c2.8,0.4,5.5,0.6,8.3,0.7c3.4,0.1,6.8-0.2,10.2-0.7
		C97.6,429,93.1,428,94,423.8z"/>
	<path class="st5" d="M107.8,419.3c-0.2,0.1-0.5,0.3-0.7,0.4c-11,6.1-28.6,5.8-39.4-0.7c-0.4-0.3-0.9-0.5-1.2-0.8
		c-9.5-6.5-8.9-16.1,1.7-21.9c1.8-1,3.7-1.8,5.6-2.4l1.3,0.4l0,4.3l0.7,6.9l24.9,3.9l3.9,10.8c0.7-0.3,1.4-0.7,2.1-1.1L107.8,419.3z
		"/>
	<path class="st6" d="M107.8,419.3c-0.2,0.1-0.5,0.3-0.7,0.4c-11,6.1-28.6,5.8-39.4-0.7c-0.4-0.3-0.9-0.5-1.2-0.8
		c-9.5-6.5-8.9-16.1,1.7-21.9c1.8-1,3.7-1.8,5.6-2.4l1.3,0.4l0,4.3l0.7,6.9l24.9,3.9l3.9,10.8c0.7-0.3,1.4-0.7,2.1-1.1L107.8,419.3z
		"/>
	<path class="st5" d="M104.4,420.2c-10.6,4.9-26.1,4.3-35.8-1.6c-10.3-6.2-10.1-15.9,0.4-21.7c1.9-1.1,3.9-1.9,6.1-2.5l0,4.3
		l0.7,6.9l24.9,3.9L104.4,420.2z"/>
	<path class="st22" d="M104.4,420.2c-10.6,4.9-26.1,4.3-35.8-1.6c-10.3-6.2-10.1-15.9,0.4-21.7c1.9-1.1,3.9-1.9,6.1-2.5l0,4.3
		l0.7,6.9l24.9,3.9L104.4,420.2z"/>
	<path class="st5" d="M104.4,420.2c-10.6,4.9-26.1,4.3-35.8-1.6c-4.2-2.5-6.7-5.6-7.4-8.9c0.8-3.2,3.4-6.2,7.7-8.6
		c1.9-1,3.9-1.9,6-2.5l0.7,6.9l24.9,3.9L104.4,420.2z"/>
	<path class="st23" d="M104.4,420.2c-10.6,4.9-26.1,4.3-35.8-1.6c-4.2-2.5-6.7-5.6-7.4-8.9c0.8-3.2,3.4-6.2,7.7-8.6
		c1.9-1,3.9-1.9,6-2.5l0.7,6.9l24.9,3.9L104.4,420.2z"/>
</g>
<g id="freepik--Arrow--inject-44">
	<g id="freepik--arrow--inject-44">
		<polygon class="st5" points="156.3,114.2 133.9,126.4 171.6,91.3 196,79.1 		"/>
		<polygon class="st12" points="196,79.1 156.3,114.2 133.9,126.4 171.6,91.3 		"/>
		<polygon class="st5" points="80,22.2 133.9,126.4 149.3,112 		"/>
		<polygon class="st5" points="262.9,172.6 223.3,195.4 277.2,147 312,130.6 		"/>
		<polygon class="st12" points="312,130.6 262.9,172.6 223.3,195.4 277.2,147 		"/>
		<polygon class="st5" points="249.1,172.2 223.3,195.4 171.6,91.3 196,79.1 		"/>
		<path class="st5" d="M369.1,230.6l-57.1-100L277.2,147l52.3,106.5l-14.8,8.6l58.7,22.1l10.5-62.1L369.1,230.6z"/>
	</g>
</g>
<g id="freepik--Character--inject-44">
	<g id="freepik--character--inject-44">
		<g id="freepik--Bottom--inject-44">
			<path class="st24" d="M458.1,424.6c-1.9-1.5-4-5.1-7.2-11.8l-10.7,8.3c0,0,8.1,8.9,9.3,11C452.5,437.5,458.1,424.6,458.1,424.6z"
				/>
			<path class="st2" d="M461.7,426.4c0-0.3,0-0.7,0-1c-0.7-0.7-1.5-1.2-2.4-1.4c-0.8-0.3-1.6-0.7-2.2-1.3c-0.5-0.4-0.9-0.8-1.3-0.8
				c-1.7,0.4-3.2,1.4-4.4,2.7c-1.8,2-2.5,4.2-1.7,5.6c0.6,1.1,1.2,1.7,0.6,1.8s-1.5-0.7-1.5-0.7c0.2,0.4,0.3,0.7,0.5,1.1
				c0.5,0.9,1,1.8,1.3,2.8c0.7,2,1.4,4.6,0.4,6.7c-0.7,1.3-1.5,2.6-2.4,3.7c-0.5,0.6-0.7,1.3-0.9,2.1c0,1.1,0.6,2.1,1.5,2.7
				c0.7,0.4,1.6,0.6,2.5,0.6c0.9-0.3,1.9-0.7,2.7-1.2c1.8-1,3.5-2.1,5-3.5c1-0.8,1.8-1.8,2.4-3c0.5-1.2,0.7-2.6,0.6-3.9
				c-0.1-1.3-0.3-2.7-0.5-4c-0.2-1.8-0.3-3.7-0.2-5.5C461.6,429,461.8,427.2,461.7,426.4L461.7,426.4z"/>
			<path d="M463.8,437.7c0.2,0.6,0.3,1.1,0.4,1.7c0.1,0.9,0,1.9-0.4,2.8c-0.3,0.6-0.6,1.2-1,1.7c-1.1,1.4-2.4,2.7-3.9,3.7
				c-1.1,0.8-2.3,1.5-3.5,2.1c1.3-1.2,2.3-2.7,2.9-4.4c0.4-0.8,0.6-1.7,0.6-2.6c0-0.2,0-0.4,0-0.7c-0.1-2-0.4-4-0.9-6
				c-0.2-1-0.3-2-0.2-3c0.1-1,0.3-2,0.7-2.9c1.4-4,4-4.7,4-4.7c0.4,0,0.9,1.1,0.9,1.7c0,1.2-0.1,2.3-0.3,3.5
				c-0.1,0.6-0.2,1.2-0.2,1.8c-0.1,0.9-0.1,1.8,0,2.7c0.2,0.6,0.4,1.2,0.6,1.8C463.6,437.3,463.7,437.5,463.8,437.7z"/>
			<path class="st25" d="M449,450.8c0.2,0.5,1.9,0.6,2.9,0.3c2.6-0.5,4.9-2,6.4-4.2c0.7-1.1,1.1-2.4,1.2-3.7c0.3-3-0.9-5.7-1.3-8.6
				c-0.2-1.5,0-3,0.5-4.3c1.6-3.6,3.7-4.8,3.7-4.8c-0.4-0.3-0.9-0.4-1.4-0.3c-1.8,0.7-3.6,3.8-4,6.6c-0.1,1.8,0.1,3.6,0.8,5.3
				c0.2,0.9,0.4,1.8,0.5,2.7c0.2,1,0.3,2.1,0.1,3.2c-0.2,1.8-1.1,3.4-2.3,4.7c-1.3,1.2-2.8,2.2-4.5,2.7c-0.8,0.2-1.7,0.2-2.5,0
				c-0.3-0.1-0.5-0.3-0.7-0.5C448.6,450.1,448.9,450.6,449,450.8z"/>
			<path class="st3" d="M431.4,334.2c4,6.7,5.5,14.6,4.3,22.3c-0.4,2.2-0.6,4.3-0.6,6.5c0,8.8,0.5,25.5,0.5,25.5s4.1,3.6,9.3,13.1
				c4.4,8,8,15.2,8,15.2c-1.9,0.6-3.6,1.6-5,2.9c-1.6,1.8-3,3.8-4.2,5.9c0,0-10.3-10.4-20.3-22c-4.7-5.5-6.5-7.5-8.6-15.8
				c-2.9-11.5-7-27.6-7-27.6l-3.1-23.2L431.4,334.2z"/>
			<path class="st25" d="M414.9,373.6c-0.1,1.9-0.6,7.6,1,17.8c-0.3-1.1-0.7-2.2-1-3.6c-2.9-11.5-7-27.6-7-27.6l-3.1-23.2l0,0
				l19.2,12.1c1.2,5.1-0.2,11.4-3.2,15C417.3,368.2,415,371.7,414.9,373.6z"/>
			<path class="st25" d="M392.2,432.4c0.3,1.2,0.6,2.1-0.5,3.5s-3.5,2.1-5.8,2c-1.7-0.1-3.3-0.8-4.5-1.9c-1.4-1.1-2.3-2-2.8-2.4
				c-1.4-0.7-2.9-1.2-4.4-1.4c-2-0.4-5.9-1.3-7.8-4.2c-1.1-1.6-1.7-3.5-1.6-5.4L392.2,432.4z"/>
			<path class="st2" d="M377.5,420.9c4.1,1.5,10.4,2.4,14.1,3.4c1.1,1,0.8,5.8,0.8,9c-1.5,3.3-6.1,4.1-9.1,2.7
				c-1.6-0.9-2.6-2.1-4.1-3.1c-1.2-0.7-2.6-1.2-4-1.4c-1.6-0.4-3.2-0.9-4.8-1.5c-4-1.9-6-5.4-5.8-8.2
				C365,418.3,368.3,417.6,377.5,420.9z"/>
			<path class="st24" d="M391.7,421c0,0.1-0.3,5.5-0.3,5.5s-0.4,1.3-4,1.8s-6.5-0.9-7.1-1.8c0,0-0.4-3.3-0.6-5.1L391.7,421z"/>
			<path class="st3" d="M423.8,347.8c0.7,8.6-3.9,16-12.7,21.8c-3.7,3.1-7.2,6.6-10.3,10.2c-4.1,4.7-8,9.5-8,9.5
				c1.3,3.9,1.8,8,1.4,12.1c-0.9,8.2-2.2,19.7-2.2,19.7c-2.1,1.3-4.5,1.9-7,1.7c-2-0.1-3.9-0.7-5.6-1.6c0,0-4.3-23.1-5.5-30.2
				c-0.9-5-1.5-8.5,2.3-16.4c3.6-7.5,16.1-28.6,16.5-30.7l27-13.1C421.8,336.2,423.2,342,423.8,347.8z"/>
		</g>
		<g id="freepik--Top--inject-44">
			<path class="st26" d="M388.4,282.7c3.6,3.7,5.6,5.3,10.9,10.2s9,8.1,9.9,12.2s4.4-1,6.3-5.9c1.4-3.4,1.7-7.2,0.8-10.8
				c-1.7-2.8-2.7-3.1-5.9-5.9c-2.8-2.5-4.8-4-7.1-6c-3-2.6-5.9-5.5-5.9-5.5s-5.9-13.3-7.9-17.8c-1-2.2-2-4.4-2.8-6.6
				c-0.7-2.2-0.9-4.5-0.5-6.8c0.2-1.1,0.4-2.1,0.5-3.2c0.1-1.6-0.4-3.2-0.7-4.8c-0.3-1.8-0.6-3.6-0.9-5.4c0-0.3-0.1-0.6-0.4-0.8
				c-0.4-0.3-0.9,0-1.2,0.4c-0.6,0.9-0.8,2-0.6,3.1c-0.5,0.3-0.8,0.7-1,1.2c-0.3,1-0.4,2-0.4,3c0,1.8-0.3,3.5-1,5.2
				c-0.7,1.9-1.9,3.5-2.7,5.4c-0.7,1.8-0.8,3.9-0.3,5.8c0.5,1.8,1.3,2.1,1.9,5.3c0.3,1.6,0.7,3.2,1.1,4.8c1,4.2,2.1,8.4,3,12.6
				C384.5,277.3,385.1,279.3,388.4,282.7z"/>
			<path class="st27" d="M386.8,273.9c4-0.1,6.9-1.8,10.3-3.7l0.4,0.8c0,0,6,4.9,10.1,8.5s10.5,4.8,12.9,5.9c1.7,3-1.3,13.2-4.3,18
				s-6.9,4.5-6.9,4.5c-0.4-1.8-0.9-3.5-1.7-5.1c-1.1-2.2-10.5-11.3-15-15.4s-7.5-7.2-8.3-10.2c-0.2-0.8-0.5-1.9-0.8-3.2
				C384.6,274,385.7,274,386.8,273.9z"/>
			<path class="st1" d="M395.6,266.9l0.5,1.2c0,0-1.5,2.2-6,3.5s-6.8,0.5-6.8,0.5l-0.3-1.3c-0.7,0.6-0.9,1.6-0.4,2.3
				c0.5,0.9,0.8,2,0.7,3.1c0,1.2,3.8,3.5,9.1,1.4s6.5-5.3,6-7s-1-0.9-1.4-2.4S396.4,266.7,395.6,266.9z"/>
			<polygon class="st26" points="398.2,284.1 399.4,293.6 413.2,292.9 411.9,282.6 			"/>
			<path class="st28" d="M392.3,266.1c-1.9,1.6-3.5,3.4-4.9,5.3l2.9,1.8L392.3,266.1z"/>
			<path class="st26" d="M400.6,256.4c-4-0.5-7.5,2.5-8.7,11c-0.4,0.7-0.7,1.4-0.9,2.1c-1.7,5.5-0.8,10.7,0.1,12.1
				c2.3,1.9,5.7,2.7,9.4,2.4c2.9-0.2,9.2-0.4,13-4.2c4.4-4.5,8.4-12.1,5.4-15.7C414.4,259.1,402.8,256.6,400.6,256.4z"/>
			<path class="st28" d="M400.6,256.4c-5.9-0.6-8,6.3-8.6,11c-1.6,3.3-2.2,7-1.9,10.6c0.1,1.3,0.4,2.5,0.9,3.6
				c-0.6-1.1-0.9-2.4-1-3.6c-0.4-3.6,0.2-7.3,1.7-10.6C392.4,262.7,394.6,255.6,400.6,256.4L400.6,256.4z"/>
			<path class="st28" d="M391,281.6c0.5,0.8,4.9,2.8,7.2,2.9l-0.2-1.8C395.7,282.7,393.3,282.3,391,281.6z"/>
			<path class="st25" d="M417.8,261.9c2.9,1.8,4.4,7.8-0.3,14.1c-2,2.6-3.6,3.5-5.6,6.6c-2.5,1.1-5.4,1-7.9-0.1
				c-2.8-2.5-1.6-6.8-1.6-6.8s1.4,2.2,4.1-0.3c1.7-1.5,2.5-6-0.8-6.2c-0.9,0-1.8,0.2-2.5,0.8c-0.6,0.5-1,1.1-1.5,1.7
				c-0.2,0.3-0.7,0.4-1,0.2c-0.2-0.1-0.3-0.3-0.3-0.5c-0.2-0.8-0.2-1.6,0-2.4c1.2-3.6-1.9-3-3-4.5c-0.6-0.9,0.1-2.5,0.2-3.4
				C400.8,260,417.8,261.9,417.8,261.9z"/>
			<path class="st25" d="M397.6,261.1c0-0.8-2-2.6-2.8-2.2c-0.3,0.4-0.6,0.8-0.8,1.2c-1.9-0.3-2-3.2,0.1-4.2
				c-1.3-0.2-1.4-1.1-1.2-2.1c1.5,1.4,4.8-1.2,9.6-1.3c4.6-0.1,7.6,0.9,11.8,2.8c3.6,1.7,5.3,4.8,4.6,7.8
				C415.8,265.3,401.7,263.2,397.6,261.1z"/>
			<path class="st29" d="M428,294.9c-1.5-4.8-5.4-9.6-9.2-10c-2.2-0.4-4.5-0.2-6.6,0.5l0.1,1c-1.4,2-10.9,5.6-13.9,5.7
				c0,0-7.6,3.2-10.5,3.4s-1.1,3.1-1.9,6.2c-0.6,3.7,0.5,8.2,2.8,16.2c1.2,4.5,2.1,9,2.8,13.6c0.8,4.8,1.3,8.6,1,12.2
				c1.4,1.4,6.1,3.8,16,4.4c6.9,0.4,16-2.3,20.6-5.2s4.7-3.7,4.7-3.7c-1-3.1-1.7-6.3-2.4-9.5c-0.8-3.8-1.2-7.6-1.3-11.5
				C430.2,309.6,430,301,428,294.9z"/>
			<path class="st26" d="M360.7,302.4c4.7,2.2,7.1,2.9,13.9,5.6s11.3,4.3,13.6,7.8s3.8-2.6,3.7-7.8c0.1-3.7-1-7.3-3.2-10.3
				c-2.6-2-3.6-1.9-7.6-3.4c-3.5-1.3-6-2-8.8-3c-3.7-1.4-7.5-3-7.5-3s-10.2-10.3-13.8-13.6c-2.6-2.3-4.9-5-6.7-8
				c-1.8-2.7-2.8-3.8-3.7-5.8s-1.6-3.5-3-1.5s1.1,4.1,0.5,5.9c-0.4,1.1-1.4,1.4-2,1.8c-0.6,0.3-1.2,0.5-1.9,0.6
				c-0.4,0.1-0.7,0.1-1.1,0.1c-0.2,0-0.4,0-0.5,0c-0.2,0-0.5,0-0.7,0c-0.3,0-0.5,0-0.8-0.1c-0.3-0.1-0.5-0.1-0.7-0.2
				c-0.7-0.3-1.4-0.7-2.1-1c-0.7-0.3-1.4-0.5-2.2-0.7c-0.8-0.2-1.7-0.1-2.3,0.4c-0.1,0.1-0.2,0.2-0.2,0.3c0,0.3,0.1,0.5,0.4,0.7
				c0.3,0.2,0.8,0.8,1.1,1c0.2,0.2,0.4,0.3,0.6,0.5c0.2,0.2,0.3,0.4,0.4,0.6c2,2.6,2.5,4.2,5.8,5.6s7.5,0.5,9.7,4s6.7,9.7,10.8,15.7
				C355.1,298.8,356.4,300.3,360.7,302.4z"/>
			<path class="st27" d="M356,294.7c3.7-1.6,5.7-4.2,8.2-7.2l0.7,0.6c0,0,7.4,2.4,12.5,4.2s9.1,2.9,11.7,3c2.7,2.2,6,10.5,5,16.1
				s-4.7,6.7-4.7,6.7c-1-1.5-2.1-2.9-3.4-4.2c-1.8-1.6-13.9-6.8-19.6-8.9s-9.6-4.1-11.5-6.5c-0.5-0.6-1.1-1.6-1.9-2.7
				C354,295.6,355,295.2,356,294.7z"/>
			<path class="st1" d="M361.7,285.1l1,1c0,0-0.6,2.6-4.4,5.4s-6.2,3-6.2,3l-0.8-1.1c-0.5,0.8-0.3,1.8,0.5,2.3
				c0.8,0.7,1.4,1.6,1.8,2.6c0.5,1.1,4.8,1.9,9-2s4.2-7.3,3.1-8.7s-1.3-0.5-2.1-1.7S362.3,284.6,361.7,285.1z"/>
			<path class="st27" d="M397.6,292.6c0,0,6.7,1.6,12.7-0.9c5.6-2.4,4.2-4.2,4.2-4.2s-1.2-3-2.4-3.2l0.1,1.1c0,0-0.9,1.4-3.9,2.4
				c-3.1,0.9-6.4,1.2-9.7,0.9l-0.1-1c-1.1,0.9-1.5,3.4-1.9,5L397.6,292.6z"/>
		</g>
	</g>
</g>
<g id="freepik--Briefcase--inject-44">
	<g id="freepik--briefcase--inject-44_00000135666004131375979080000000868621622523680173_">
		<g id="freepik--briefcase--inject-44">
			<path class="st3" d="M367.4,413.1v34.2c0,1.7-1.2,2.6-2.6,3.5l-3.6,2.1c-0.8,0.6-1.8,0.8-2.8,0.5c-0.7-0.2-1.3-0.4-1.9-0.8
				c0,0-0.1,0-0.1,0l-0.2-0.1L317,429.9c-1.2-0.7-1.9-2-2-3.4v-33.9c0-0.8,0.5-1.5,1.1-1.9l6.1-3.5c0.7-0.4,1.5-0.4,2.2,0l41.8,24.1
				c0.3,0.2,0.6,0.5,0.8,0.8C367.3,412.4,367.4,412.8,367.4,413.1z"/>
			<path class="st25" d="M367.4,413.1v34.2c0,1.7-1.2,2.6-2.6,3.5l-3.6,2.1c-0.8,0.6-1.8,0.8-2.8,0.5c-0.7-0.2-1.3-0.4-1.9-0.8l0,0
				c1.4,0.7,2.6-0.1,2.6-1.8v-32.3c0-0.6-0.2-1.2-0.5-1.7l8.5-4.9C367.3,412.4,367.4,412.8,367.4,413.1z"/>
			<path class="st2" d="M359,418.6c-0.1-1.2-0.7-2.3-1.7-2.9L317.9,393c-1.6-0.9-2.8-0.2-2.8,1.6v32c0,1.4,0.7,2.7,2,3.4l39.2,22.6
				c1.6,0.9,2.8,0.2,2.8-1.6L359,418.6z"/>
			<path class="st5" d="M320.3,388.3l41.8,24.4c1.2,0.7,1.9,2,1.9,3.4v35.2l-0.6,0.4V416c0-1.2-0.6-2.2-1.6-2.8l-42.1-24.5
				L320.3,388.3z"/>
			<path class="st5" d="M335.2,392.7v5.4l-2.1,1.2v-7c0-0.4,0.2-0.5,0.6-0.3L335.2,392.7z"/>
			<path class="st12" d="M335.2,392.7v5.4l-2.1,1.2v-7c0-0.4,0.2-0.5,0.6-0.3L335.2,392.7z"/>
			<path class="st5" d="M349.8,397.9v8.6l-2,1.1l-1.3-0.8v-7c0-0.4-0.2-0.8-0.6-1l-10.1-5.8l-2.1-1.2c-0.3-0.2-0.6,0-0.6,0.3v7
				l-1.3-0.8v-8.6c0,0,0-0.1,0-0.1c0.1-0.4,0.3-0.7,0.6-0.9l0.8-0.5c0.4-0.2,0.8-0.2,1.1,0l14.9,8.6
				C349.5,397.1,349.7,397.5,349.8,397.9z"/>
			<path class="st6" d="M347.8,399v8.6l-1.3-0.8v-7c0-0.4-0.2-0.8-0.6-1l-10.1-5.8l-2.1-1.2c-0.3-0.2-0.6,0-0.6,0.3v7l-1.3-0.8v-8.6
				c0,0,0-0.1,0-0.1c0-0.3,0.3-0.4,0.6-0.2l14.9,8.5C347.5,398.2,347.7,398.6,347.8,399z"/>
		</g>
	</g>
</g>
<g id="freepik--speech-bubble--inject-44">
	<g id="freepik--Alert--inject-44">
		<g id="freepik--Bubble--inject-44">
			<path class="st5" d="M460.2,220.8c-3-1.7-7.2-1.4-11.8,1.2c-9.2,5.3-16.7,18.3-16.7,29c0,5.3,1.9,9.1,4.9,10.8l4.1,2.3
				c3,1.7,7.2,1.5,11.8-1.2c9.2-5.3,16.7-18.3,16.7-29c0-5.3-1.9-9.1-4.9-10.8L460.2,220.8z"/>
			<path class="st13" d="M460.2,220.8c-3-1.7-7.2-1.4-11.8,1.2c-9.2,5.3-16.7,18.3-16.7,29c0,5.3,1.9,9.1,4.9,10.8l4.1,2.3
				c3,1.7,7.2,1.5,11.8-1.2c9.2-5.3,16.7-18.3,16.7-29c0-5.3-1.9-9.1-4.9-10.8L460.2,220.8z"/>
			<ellipse transform="matrix(0.5 -0.866 0.866 0.5 15.2677 513.7042)" class="st5" cx="452.5" cy="243.6" rx="23.7" ry="13.7"/>
			<path class="st5" d="M435.8,254.4l-4.1-2.4l-5,7.3c-0.2,0.2-0.1,0.6,0.1,0.7c0,0,0,0,0,0l4.1,2.4c0.1,0.1,0.3,0.1,0.5,0l6.4-2.3
				L435.8,254.4z"/>
			<path class="st30" d="M435.8,254.4l-4.1-2.4l-5,7.3c-0.2,0.2-0.1,0.6,0.1,0.7c0,0,0,0,0,0l4.1,2.4c0.1,0.1,0.3,0.1,0.5,0l6.4-2.3
				L435.8,254.4z"/>
			<path class="st5" d="M435.8,254.4l-5,7.3c-0.2,0.2-0.1,0.6,0.2,0.7c0.1,0.1,0.3,0.1,0.5,0.1l6.4-2.3L435.8,254.4z"/>
		</g>
	</g>
</g>
<path class="st31" d="M453.6,231.4c0.6-0.4,1.3-0.6,2.1-0.7c0.6-0.1,1.2,0,1.8,0.3c0.6,0.3,1,0.8,1.3,1.5c0.3,0.9,0.5,1.8,0.5,2.7
	c0,0.9-0.1,1.7-0.3,2.6c-0.2,0.8-0.4,1.5-0.7,2.2c-0.3,0.7-0.6,1.4-0.9,2.1c-0.3,0.7-0.7,1.3-1,1.9c-0.3,0.6-0.6,1.2-0.8,1.7
	c-0.2,0.5-0.4,1.1-0.4,1.6c0,0.3-0.1,0.5-0.2,0.8c-0.1,0.2-0.2,0.4-0.4,0.5l-1.7,1c-0.1,0.1-0.3,0.1-0.5,0c-0.1-0.2-0.2-0.4-0.2-0.6
	c0-0.9,0.2-1.7,0.4-2.6c0.2-0.8,0.5-1.5,0.8-2.3c0.3-0.7,0.6-1.4,1-2.1c0.4-0.6,0.7-1.3,1-1.8s0.5-1.1,0.7-1.6
	c0.2-0.5,0.3-1,0.3-1.5c0.2-0.8-0.3-1.7-1.1-1.9c-0.6-0.2-1.1,0-1.5,0.4c-1.5,1.1-2.5,2.7-2.8,4.6c-0.1,0.2-0.1,0.5-0.2,0.7
	c-0.1,0.2-0.2,0.3-0.4,0.4l-1.8,1c-0.1,0.1-0.2,0.1-0.3,0c-0.1-0.1-0.2-0.3-0.1-0.5c0-0.9,0.2-1.9,0.5-2.8c0.3-1,0.7-2,1.2-3
	c0.5-1,1.1-1.9,1.8-2.7C452,232.6,452.8,231.9,453.6,231.4z M454.5,250.5c0.1-0.1,0.3-0.1,0.4,0c0.1,0.1,0.2,0.4,0.2,0.6v3.1
	c0,0.3-0.1,0.5-0.2,0.8c-0.1,0.2-0.2,0.4-0.4,0.5l-1.9,1.1c-0.1,0.1-0.3,0.1-0.4,0c-0.1-0.2-0.2-0.4-0.2-0.6v-3
	c0-0.3,0.1-0.5,0.2-0.8c0.1-0.2,0.2-0.4,0.4-0.5L454.5,250.5z"/>
</svg>
