<?xml version="1.0" encoding="utf-8"?>
<!-- Generator: Adobe Illustrator 27.3.1, SVG Export Plug-In . SVG Version: 6.00 Build 0)  -->
<svg version="1.1" id="Layer_1" xmlns="http://www.w3.org/2000/svg" xmlns:xlink="http://www.w3.org/1999/xlink" x="0px" y="0px"
	 viewBox="0 0 500 500" style="enable-background:new 0 0 500 500;" xml:space="preserve">
<style type="text/css">
	.st0{fill:#FAFAFA;}
	.st1{fill:#E0E0E0;}
	.st2{fill:#455A64;}
	.st3{fill:#37474F;}
	.st4{opacity:0.3;}
	.st5{fill:#A0B19E;}
	.st6{opacity:0.2;enable-background:new    ;}
	.st7{opacity:0.25;fill:#FFFFFF;enable-background:new    ;}
	.st8{opacity:0.3;fill:#FFFFFF;enable-background:new    ;}
	.st9{opacity:0.1;fill:#FFFFFF;enable-background:new    ;}
	.st10{opacity:0.55;fill:#FFFFFF;enable-background:new    ;}
	.st11{opacity:0.45;enable-background:new    ;}
	.st12{opacity:0.3;enable-background:new    ;}
	.st13{opacity:0.15;enable-background:new    ;}
	.st14{opacity:0.75;fill:#FFFFFF;enable-background:new    ;}
	.st15{fill:#263238;}
	.st16{opacity:0.25;}
	.st17{opacity:0.1;enable-background:new    ;}
	.st18{opacity:0.5;fill:#A0B19E;enable-background:new    ;}
	.st19{opacity:0.5;fill:#F5F5F5;enable-background:new    ;}
	.st20{opacity:0.5;fill:#FFFFFF;enable-background:new    ;}
	.st21{opacity:0.2;fill:#FFFFFF;enable-background:new    ;}
	.st22{fill:#FFBDA7;}
	.st23{fill:#EBEBEB;}
	.st24{fill:#F0997A;}
	.st25{fill:#B16668;}
	.st26{fill:#F28F8F;}
	.st27{fill:#A1B29E;}
	.st28{opacity:0.15;}
</style>
<g id="freepik--Floor--inject-44">
	<path id="freepik--floor--inject-44" class="st0" d="M77.7,251.3c-95.2,55-95.2,144,0,199s249.5,55,344.7,0s95.2-144,0-199
		S172.8,196.4,77.7,251.3z"/>
</g>
<g id="freepik--Shadows--inject-44">
	<path id="freepik--shadow--inject-44_00000051379406933421511680000009609664772726455170_" class="st1" d="M371.9,452.1l-9.6,5.5
		c-2,0.9-4.3,0.8-6.3-0.3l-47.4-27.3c-1.9-1.1-2.1-2.7-0.5-3.6l9.6-5.5c2-0.9,4.3-0.8,6.3,0.3l47.3,27.3
		C373.3,449.6,373.5,451.2,371.9,452.1z"/>
</g>
<g id="freepik--Plant--inject-44">
	<g id="freepik--Plants--inject-44">
		<g id="freepik--plants--inject-44">
			<path class="st2" d="M58.4,374c-0.6-1.7-0.3-3.6,1-4.9c1.6-1.8,4.1-2.8,4.3-2.7s0.4,2.7-1.3,5C61.6,372.9,60.1,373.8,58.4,374z"
				/>
			<path class="st2" d="M58.1,380c0.2-1.8,1.4-3.3,3.2-3.9c2.3-0.9,4.9-0.6,5.1-0.4s-0.9,2.6-3.5,3.9
				C61.5,380.5,59.7,380.6,58.1,380z"/>
			<path class="st2" d="M53.7,381.5c-1.7-0.5-3-2-3.3-3.8c-0.5-2.4,0-4.7,0.3-4.9s2.7,1.5,3.6,3.9C55,378.3,54.8,380.1,53.7,381.5z"
				/>
			<path class="st3" d="M53.4,400.4h1.2c-0.3-1.9-0.4-3.9-0.5-5.8c0-3.8,0.5-7.5,1.4-11.2c0.5-2.2,1.3-4.3,2.1-6.3
				c0.9-2.3,1.9-4.6,3.2-6.7c0,0-0.1-0.1-0.1-0.1c-1.7,2.1-3.1,4.5-4.1,7.1c-1.7,3.9-2.8,8-3.3,12.3c-0.3,2-0.4,4.1-0.3,6.1
				C52.9,397.3,53.1,398.8,53.4,400.4z"/>
			<path class="st3" d="M54.5,383.4c-0.6-0.9-1.2-1.9-1.6-2.9c-0.4-1-0.7-2-0.7-3.1c0-0.1,0.1,0,0.2,0.1c0.3,0.9,0.6,1.8,1,2.6
				c0.4,0.9,1,1.8,1.6,2.5c0.2,0.2,0.2,0.5,0.1,0.8C54.9,383.5,54.7,383.5,54.5,383.4C54.5,383.4,54.5,383.4,54.5,383.4z"/>
			<path class="st3" d="M54.7,383c0.9-1.3,2-2.4,3.2-3.3c0.6-0.4,1.1-0.8,1.8-1.2c0.7-0.4,1.5-0.7,2.3-0.9c0,0,0.2,0,0.2,0.1
				c-0.8,0.3-1.5,0.7-2.2,1.2c-0.6,0.4-1.2,0.8-1.8,1.3c-1.1,0.9-2.2,2-3.1,3.2C55,383.6,54.5,383.2,54.7,383z"/>
			<path class="st2" d="M56,388.8c-0.2-1.8,0.7-3.5,2.3-4.5c2.1-1.3,4.7-1.6,4.9-1.5s-0.3,2.7-2.5,4.5C59.4,388.5,57.7,389,56,388.8
				z"/>
			<path class="st3" d="M53.2,392.4c0.6-1.4,1.4-2.8,2.5-3.9c0.5-0.5,1-1,1.5-1.5c0.6-0.6,1.3-1,2.1-1.4c0,0,0.2,0,0.2,0
				c-0.7,0.5-1.3,1-1.9,1.6c-0.5,0.5-1.1,1.1-1.5,1.6c-0.9,1.2-1.7,2.4-2.4,3.8C53.6,393,53.1,392.7,53.2,392.4z"/>
		</g>
		<g id="freepik--plants--inject-44_00000093148204773296712160000016693519728551540357_">
			<path class="st2" d="M39.8,366.1c0.2-2-0.8-3.8-2.5-4.8c-2.2-1.4-5.1-1.7-5.3-1.5s0.4,3,2.8,4.9C36.1,365.8,38,366.4,39.8,366.1z
				"/>
			<path class="st2" d="M41.8,372.3c-0.7-1.8-2.5-3-4.4-3.1c-2.6-0.2-5.3,0.8-5.4,1.1s1.7,2.4,4.8,3.1
				C38.5,373.8,40.4,373.4,41.8,372.3z"/>
			<path class="st2" d="M46.9,372.6c1.7-1,2.6-3,2.3-4.9c-0.2-2.6-1.4-4.9-1.7-5s-2.3,2.3-2.7,5.1C44.7,369.6,45.4,371.4,46.9,372.6
				z"/>
			<path class="st3" d="M53.1,400.4h1.2c-0.4-4.4-1.1-8.8-2.2-13.1c-0.5-2.2-1.2-4.3-2.1-6.3c-1.8-4.2-4.2-8.2-7.1-11.9
				c-1.8-2.4-3.9-4.5-6.3-6.2c0,0-0.2,0.1-0.1,0.1c1.9,1.8,3.7,3.9,5.3,6.1c1.5,1.9,2.8,3.9,4,6c2.1,3.5,3.7,7.4,4.7,11.3
				C51.6,390.9,52.5,395.6,53.1,400.4z"/>
			<path class="st3" d="M46.7,374.7c0.4-1.1,0.7-2.3,0.8-3.5c0.2-1.1,0.1-2.3-0.1-3.4c0-0.2-0.1,0.1-0.1,0.2c0,1-0.1,2-0.3,3
				c-0.2,1.1-0.5,2.1-1,3.1c-0.1,0.3-0.1,0.6,0.2,0.8c0.2,0.1,0.4,0.1,0.5-0.1C46.6,374.8,46.6,374.8,46.7,374.7z"/>
			<path class="st3" d="M46.4,374.4c-1.3-1.1-2.8-1.9-4.4-2.5c-0.7-0.3-1.4-0.5-2.2-0.7c-0.9-0.2-1.8-0.3-2.7-0.2
				c0,0-0.2,0.1-0.2,0.1c0.9,0.1,1.7,0.3,2.6,0.6c0.8,0.2,1.5,0.5,2.3,0.8c1.5,0.7,2.9,1.5,4.2,2.5
				C46.3,375.2,46.6,374.6,46.4,374.4z"/>
			<path class="st2" d="M46.7,380.8c-0.4-1.9-1.8-3.5-3.7-4c-2.5-0.8-5.3-0.3-5.5-0.1s1.2,2.7,4,4C43.1,381.5,45,381.6,46.7,380.8z"
				/>
			<path class="st3" d="M50.7,383.8c-1-1.3-2.3-2.5-3.7-3.3c-0.6-0.4-1.3-0.8-2-1.1c-0.8-0.4-1.7-0.7-2.6-0.8c0,0-0.2,0.1-0.2,0.1
				c0.8,0.3,1.6,0.7,2.4,1.1c0.7,0.4,1.4,0.8,2,1.3c1.3,0.9,2.5,2,3.6,3.2C50.4,384.5,50.8,384,50.7,383.8z"/>
		</g>
	</g>
</g>
<g id="freepik--bar-chart--inject-44">
	<g id="freepik--bar-graph--inject-44">
		<g class="st4">
			<path class="st5" d="M149.4,370.7L115,350.8c-0.1-0.1-0.2-0.2-0.2-0.4c0-0.2,0.1-0.3,0.2-0.4l27.6-15.9c0.1-0.1,0.3-0.1,0.4,0
				l34.4,19.9c0.2,0.1,0.3,0.4,0.2,0.6c0,0.1-0.1,0.1-0.2,0.2l-27.6,15.9C149.7,370.8,149.6,370.8,149.4,370.7L149.4,370.7z
				 M142.7,335.1L116,350.5l33.6,19.4l26.7-15.4L142.7,335.1z"/>
		</g>
		<polygon class="st5" points="149.6,366.4 149.6,259.2 170.3,247.2 170.3,354.5 		"/>
		<polygon class="st6" points="149.6,366.4 149.6,259.2 170.3,247.2 170.3,354.5 		"/>
		<polygon class="st5" points="149.6,366.4 122.1,350.5 122.1,243.3 149.6,259.2 		"/>
		<polygon class="st5" points="122.1,243.3 142.7,231.3 170.3,247.2 149.6,259.2 		"/>
		<polygon class="st7" points="122.1,243.3 142.7,231.3 170.3,247.2 149.6,259.2 		"/>
		<path class="st8" d="M122.1,243.3l27.8,15.3l9-5l11.4-6.3l-11.1,6.7l-9.1,5.4c0.2,3.1,0.3,94.4,0.2,97.5c0,3.2-0.2,6.3-0.6,9.5
			c-0.4-3.2-0.6-6.3-0.6-9.5c0-3,0-94.2,0.2-97.2L122.1,243.3z"/>
		<g class="st4">
			<path class="st5" d="M201.1,400.6l-34.4-19.9c-0.1-0.1-0.2-0.2-0.2-0.4c0-0.2,0.1-0.3,0.2-0.4l27.5-15.9c0.1-0.1,0.3-0.1,0.4,0
				l34.4,19.9c0.1,0.1,0.2,0.2,0.2,0.4c0,0.2-0.1,0.3-0.2,0.4l-27.5,15.9c-0.1,0-0.1,0-0.2,0C201.2,400.6,201.1,400.6,201.1,400.6z
				 M194.4,364.9l-26.7,15.4l33.6,19.4l26.7-15.4L194.4,364.9z"/>
		</g>
		<polygon class="st5" points="201.3,396.2 201.3,331.3 221.9,319.4 221.9,384.3 		"/>
		<polygon class="st9" points="201.3,396.2 201.3,331.3 221.9,319.4 221.9,384.3 		"/>
		<polygon class="st5" points="201.3,396.2 173.7,380.3 173.7,315.4 201.3,331.3 		"/>
		<polygon class="st8" points="201.3,396.2 173.7,380.3 173.7,315.4 201.3,331.3 		"/>
		<polygon class="st5" points="173.7,315.4 194.4,303.5 221.9,319.4 201.3,331.3 		"/>
		<polygon class="st10" points="173.7,315.4 194.4,303.5 221.9,319.4 201.3,331.3 		"/>
		<path class="st8" d="M200.9,331.8l-27.2-16.4l27.8,15.4c3-1.7,6-3.4,9-5l11.4-6.3l-11.1,6.7c-3.1,1.8-6.1,3.6-9.2,5.5
			c0.1,3.2,0.2,18.7,0.2,22s0.1,19.8,0,23s-0.1,6.6-0.2,9.9s-0.2,6.6-0.4,9.8c-0.2-3.3-0.3-6.6-0.4-9.8s-0.2-6.6-0.2-9.9
			s0-19.8,0-23C200.7,350.4,200.8,335,200.9,331.8z"/>
		<g class="st4">
			<path class="st5" d="M252.7,430.4l-34.4-19.9c-0.2-0.1-0.3-0.4-0.2-0.6c0-0.1,0.1-0.1,0.2-0.2l27.6-15.9c0.1-0.1,0.3-0.1,0.4,0
				l34.4,19.9c0.1,0.1,0.2,0.2,0.2,0.4c0,0.1-0.1,0.3-0.2,0.4l-27.6,15.9c-0.1,0-0.1,0.1-0.2,0C252.8,430.4,252.8,430.4,252.7,430.4
				z M246,394.7l-26.7,15.4l33.6,19.4l26.7-15.4L246,394.7z"/>
		</g>
		<polygon class="st5" points="252.9,426 252.9,396 273.6,384 273.6,414.1 		"/>
		<polygon class="st11" points="252.9,426 252.9,396 273.6,384 273.6,414.1 		"/>
		<polygon class="st5" points="252.9,426 225.4,410.1 225.4,380.1 252.9,396 		"/>
		<polygon class="st12" points="252.9,426 225.4,410.1 225.4,380.1 252.9,396 		"/>
		<polygon class="st5" points="225.4,380.1 246,368.1 273.6,384 252.9,396 		"/>
		<polygon class="st13" points="225.4,380.1 246,368.1 273.6,384 252.9,396 		"/>
		<path class="st8" d="M225.4,380.1l27.8,15.3l9-5l11.4-6.4l-11.1,6.7l-9.1,5.5c0.2,1.9,0.3,22.1,0.2,24c0,2-0.2,3.9-0.6,5.9
			c-0.4-1.9-0.6-3.9-0.6-5.9c0-1.8,0-21.9,0.2-23.7L225.4,380.1z"/>
		<g class="st4">
			<path class="st5" d="M97.8,340.9L63.3,321c-0.1-0.1-0.2-0.2-0.2-0.4c0-0.1,0.1-0.3,0.2-0.4l27.5-15.9c0.1-0.1,0.3-0.1,0.4,0
				l34.4,19.9c0.2,0.1,0.3,0.4,0.2,0.6c0,0.1-0.1,0.1-0.2,0.2l-27.6,15.9c0,0-0.1,0.1-0.2,0.1C97.9,341,97.8,341,97.8,340.9z
				 M91.1,305.2l-26.7,15.4L98,340l26.7-15.4L91.1,305.2z"/>
		</g>
		<polygon class="st5" points="98,336.6 98,181.3 118.6,169.3 118.6,324.6 		"/>
		<polygon class="st8" points="98,336.6 98,181.3 118.6,169.3 118.6,324.6 		"/>
		<polygon class="st5" points="98,336.6 70.4,320.7 70.4,165.4 98,181.3 		"/>
		<polygon class="st10" points="98,336.6 70.4,320.7 70.4,165.4 98,181.3 		"/>
		<polygon class="st5" points="70.4,165.4 91.1,153.4 118.6,169.3 98,181.3 		"/>
		<polygon class="st14" points="70.4,165.4 91.1,153.4 118.6,169.3 98,181.3 		"/>
		<path class="st8" d="M97.6,181.8l-27.2-16.4l27.8,15.3c3-1.7,6-3.4,9-5.1l11.3-6.3l-11.1,6.7c-3,1.8-6.1,3.7-9.2,5.5
			c0.1,3.6,0.2,7.3,0.2,10.9s0,118.2,0,121.9s-0.1,7.4-0.2,11.1s-0.2,7.4-0.4,11.1c-0.2-3.7-0.3-7.4-0.4-11.1
			c-0.1-3.7-0.2-7.4-0.2-11.1s0-118.2,0-121.9C97.4,188.8,97.5,185.3,97.6,181.8z"/>
	</g>
</g>
<g id="freepik--Briefcase--inject-44">
	<g id="freepik--briefcase--inject-44_00000135666004131375979080000000868621622523680173_">
		<g id="freepik--briefcase--inject-44">
			<path class="st3" d="M367.4,413.1v34.2c0,1.7-1.2,2.6-2.6,3.5l-3.6,2.1c-0.8,0.6-1.8,0.8-2.8,0.5c-0.7-0.2-1.3-0.4-1.9-0.8
				c0,0-0.1,0-0.1,0l-0.2-0.1L317,429.9c-1.2-0.7-1.9-2-2-3.4v-33.9c0-0.8,0.5-1.5,1.1-1.9l6.1-3.5c0.7-0.4,1.5-0.4,2.2,0l41.8,24.1
				c0.3,0.2,0.6,0.5,0.8,0.8C367.3,412.4,367.4,412.8,367.4,413.1z"/>
			<path class="st15" d="M367.4,413.1v34.2c0,1.7-1.2,2.6-2.6,3.5l-3.6,2.1c-0.8,0.6-1.8,0.8-2.8,0.5c-0.7-0.2-1.3-0.4-1.9-0.8l0,0
				c1.4,0.7,2.6-0.1,2.6-1.8v-32.3c0-0.6-0.2-1.2-0.5-1.7l8.5-4.9C367.3,412.4,367.4,412.8,367.4,413.1z"/>
			<path class="st2" d="M359,418.6c-0.1-1.2-0.7-2.3-1.7-2.9L317.9,393c-1.6-0.9-2.8-0.2-2.8,1.6v32c0,1.4,0.7,2.7,2,3.4l39.2,22.6
				c1.6,0.9,2.8,0.2,2.8-1.6L359,418.6z"/>
			<path class="st5" d="M320.3,388.3l41.8,24.4c1.2,0.7,1.9,2,1.9,3.4v35.2l-0.6,0.4V416c0-1.2-0.6-2.2-1.6-2.8l-42.1-24.5
				L320.3,388.3z"/>
			<path class="st5" d="M335.2,392.7v5.4l-2.1,1.2v-7c0-0.4,0.2-0.5,0.6-0.3L335.2,392.7z"/>
			<path class="st12" d="M335.2,392.7v5.4l-2.1,1.2v-7c0-0.4,0.2-0.5,0.6-0.3L335.2,392.7z"/>
			<path class="st5" d="M349.8,397.9v8.6l-2,1.1l-1.3-0.8v-7c0-0.4-0.2-0.8-0.6-1l-10.1-5.8l-2.1-1.2c-0.3-0.2-0.6,0-0.6,0.3v7
				l-1.3-0.8v-8.6c0,0,0-0.1,0-0.1c0.1-0.4,0.3-0.7,0.6-0.9l0.8-0.5c0.4-0.2,0.8-0.2,1.1,0l14.9,8.6
				C349.5,397.1,349.7,397.5,349.8,397.9z"/>
			<path class="st6" d="M347.8,399v8.6l-1.3-0.8v-7c0-0.4-0.2-0.8-0.6-1l-10.1-5.8l-2.1-1.2c-0.3-0.2-0.6,0-0.6,0.3v7l-1.3-0.8v-8.6
				c0,0,0-0.1,0-0.1c0-0.3,0.3-0.4,0.6-0.2l14.9,8.5C347.5,398.2,347.7,398.6,347.8,399z"/>
		</g>
	</g>
</g>
<g>
	<polygon class="st5" points="164.2,161.4 80.8,61 86.9,57.8 41.6,35.9 47.8,78.3 55.5,74.3 139.2,175 	"/>
	<g id="freepik--Arrow--inject-44_00000081619601868032282920000000606432600022384262_">
		<g id="freepik--arrow--inject-44_00000038373797582142523200000009115577232228438439_">
			<polygon class="st5" points="164.2,161.4 139.2,175 176.5,138.2 208.4,122.3 			"/>
			<polygon class="st12" points="208.4,122.3 164.2,161.4 139.2,175 176.5,138.2 			"/>
			<polygon class="st5" points="282.9,226.4 244.2,247 298.8,198 337.6,179.7 			"/>
			<polygon class="st12" points="337.6,179.7 282.9,226.4 244.2,247 298.8,198 			"/>
			<polygon class="st5" points="267.6,226 244.2,247 176.5,138.2 208.4,122.3 			"/>
		</g>
	</g>
	<polygon class="st5" points="376.3,302.8 337.6,179.7 298.8,198 376.3,302.8 	"/>
</g>
<g>
	<g>
		<path class="st5" d="M135.4,395.1c-2.5-3.9-6-7.2-10.1-9.4c-16.6-9.6-43.4-9.6-60,0c-4.1,2.2-7.6,5.4-10.1,9.4h-2.3v8.7l0,0
			c0.3,6,4.4,12,12.4,16.6c16.6,9.6,43.5,9.6,60,0c8-4.6,12.1-10.6,12.4-16.6l0,0v-8.7L135.4,395.1z"/>
		<g class="st16">
			<path d="M135.4,395.1c-2.5-3.9-6-7.2-10.1-9.4c-16.6-9.6-43.4-9.6-60,0c-4.1,2.2-7.6,5.4-10.1,9.4h-2.3v8.7l0,0
				c0.3,6,4.4,12,12.4,16.6c16.6,9.6,43.5,9.6,60,0c8-4.6,12.1-10.6,12.4-16.6l0,0v-8.7L135.4,395.1z"/>
		</g>
		<path class="st17" d="M95.3,378.6c-10.9,0-21.7,2.4-30,7.2c-4.1,2.2-7.6,5.4-10.1,9.4h-2.3v8.7l0,0c0.3,6,4.4,12,12.4,16.6
			c8.3,4.8,19.2,7.2,30,7.2L95.3,378.6z"/>
		<path class="st17" d="M72.1,382.6c-2.4,0.9-4.6,2-6.8,3.2c-4.1,2.2-7.6,5.4-10.1,9.4h-2.3v8.7l0,0c0.3,6,4.4,12,12.4,16.6
			c2.2,1.3,4.5,2.3,6.8,3.2L72.1,382.6z"/>
		<path class="st18" d="M118.5,382.6c2.4,0.9,4.6,2,6.8,3.2c4.1,2.2,7.6,5.4,10.1,9.4h2.3v8.7l0,0c-0.3,6-4.5,12-12.4,16.6
			c-2.2,1.3-4.5,2.3-6.8,3.2L118.5,382.6z"/>
		<path class="st5" d="M125.3,377.8c-16.6-9.6-43.4-9.6-60,0s-16.6,25.1,0,34.7s43.5,9.6,60,0S141.9,387.4,125.3,377.8z"/>
		<path class="st6" d="M125.3,377.8c-16.6-9.6-43.4-9.6-60,0s-16.6,25.1,0,34.7s43.5,9.6,60,0S141.9,387.4,125.3,377.8z"/>
		<path class="st5" d="M114.8,384.2c-5.3-2.7-12.2-4.2-19.6-4.2s-14.3,1.5-19.6,4.2c-5.6,2.9-8.6,6.8-8.6,11s3.1,8.1,8.6,11
			c5.2,2.7,12.2,4.2,19.6,4.2s14.3-1.5,19.6-4.2c5.6-2.9,8.6-6.8,8.6-11S120.4,387,114.8,384.2z"/>
		<path class="st5" d="M124.4,379.4c-7.7-4.5-18.1-6.9-29.1-6.9s-21.3,2.5-29.1,6.9c-7.4,4.3-11.5,9.9-11.5,15.7s4.1,11.5,11.5,15.7
			c7.7,4.5,18.1,6.9,29.1,6.9s21.4-2.5,29.1-6.9c7.4-4.3,11.5-9.9,11.5-15.7S131.8,383.7,124.4,379.4z M114.8,406.1
			c-5.3,2.7-12.2,4.2-19.6,4.2s-14.3-1.5-19.6-4.2c-5.6-2.9-8.6-6.8-8.6-11s3.1-8.1,8.6-11c5.2-2.7,12.2-4.2,19.6-4.2
			s14.3,1.5,19.6,4.2c5.6,2.9,8.6,6.8,8.6,11S120.4,403.3,114.8,406.1L114.8,406.1z"/>
		<path class="st8" d="M124.4,379.4c-7.7-4.5-18.1-6.9-29.1-6.9s-21.3,2.5-29.1,6.9c-7.4,4.3-11.5,9.9-11.5,15.7s4.1,11.5,11.5,15.7
			c7.7,4.5,18.1,6.9,29.1,6.9s21.4-2.5,29.1-6.9c7.4-4.3,11.5-9.9,11.5-15.7S131.8,383.7,124.4,379.4z M114.8,406.1
			c-5.3,2.7-12.2,4.2-19.6,4.2s-14.3-1.5-19.6-4.2c-5.6-2.9-8.6-6.8-8.6-11s3.1-8.1,8.6-11c5.2-2.7,12.2-4.2,19.6-4.2
			s14.3,1.5,19.6,4.2c5.6,2.9,8.6,6.8,8.6,11S120.4,403.3,114.8,406.1L114.8,406.1z"/>
		<path class="st6" d="M114.2,404.8c10.4-5.4,10.4-14,0-19.4s-27.3-5.4-37.8,0s-10.4,14,0,19.4S103.8,410.2,114.2,404.8z"/>
		<path class="st5" d="M114.2,404.8c10.4-5.4,10.4-14,0-19.4s-27.3-5.4-37.8,0s-10.4,14,0,19.4S103.8,410.2,114.2,404.8z"/>
		<path class="st11" d="M114.2,404.8c10.4-5.4,10.4-14,0-19.4s-27.3-5.4-37.8,0s-10.4,14,0,19.4S103.8,410.2,114.2,404.8z"/>
		<path class="st5" d="M114.2,389.1c-10.4-5.4-27.3-5.4-37.8,0c-4.3,2.2-6.8,5-7.6,7.9c0.7,2.9,3.3,5.7,7.6,7.9
			c10.4,5.4,27.3,5.4,37.8,0c4.3-2.2,6.8-5,7.6-7.9C121,394.1,118.5,391.3,114.2,389.1z"/>
		<path class="st12" d="M114.2,389.1c-10.4-5.4-27.3-5.4-37.8,0c-4.3,2.2-6.8,5-7.6,7.9c0.7,2.9,3.3,5.7,7.6,7.9
			c10.4,5.4,27.3,5.4,37.8,0c4.3-2.2,6.8-5,7.6-7.9C121,394.1,118.5,391.3,114.2,389.1z"/>
		<path class="st19" d="M66.5,380c11.2-6.8,28.8-7.5,28.8-7.5c-11,0-21.3,2.5-29.1,6.9c-7.4,4.3-11.5,9.9-11.5,15.7
			C54.7,395.1,55.1,386.9,66.5,380z"/>
		<path class="st19" d="M92,419.6c11.9,0.5,24.2-1.8,33.3-7.1c9.5-5.5,13.6-12.9,12.2-20c0,0,1.8,11.6-12.9,19.6S92,419.6,92,419.6z
			"/>
		<path class="st20" d="M129.8,394.5c2.6-0.2,3.9-2.9,3-5.9s-3.8-5.2-6.4-5s-3.9,2.9-3,5.9S127.2,394.8,129.8,394.5z"/>
		<g>
			<path class="st21" d="M131.4,385c-1-1-2-2-3.1-2.8c-1-0.7-2-1.4-3-2c-0.6-0.4-1.2-0.7-1.8-1c1.5,2.5,0.9,5.2-7.5,5.6
				c4.8,2.8,7.4,6.4,7.4,10.4c0,2.5-1.1,4.9-3.1,7c2.2-0.9,11.1-4.4,13.7-0.2C137.2,396.5,136.3,390.3,131.4,385z"/>
		</g>
	</g>
	<g>
		<path class="st5" d="M132.2,382.5c-2.5-3.9-6-7.2-10.1-9.4c-16.6-9.6-43.4-9.6-60,0c-4.1,2.2-7.6,5.4-10.1,9.4h-2.3v8.7l0,0
			c0.3,6,4.4,12,12.4,16.6c16.6,9.6,43.5,9.6,60,0c8-4.6,12.1-10.6,12.4-16.6l0,0v-8.7L132.2,382.5z"/>
		<g class="st16">
			<path d="M132.2,382.5c-2.5-3.9-6-7.2-10.1-9.4c-16.6-9.6-43.4-9.6-60,0c-4.1,2.2-7.6,5.4-10.1,9.4h-2.3v8.7l0,0
				c0.3,6,4.4,12,12.4,16.6c16.6,9.6,43.5,9.6,60,0c8-4.6,12.1-10.6,12.4-16.6l0,0v-8.7L132.2,382.5z"/>
		</g>
		<path class="st17" d="M92,365.9c-10.9,0-21.7,2.4-30,7.2c-4.1,2.2-7.6,5.4-10.1,9.4h-2.3v8.7l0,0c0.3,6,4.4,12,12.4,16.6
			c8.3,4.8,19.2,7.2,30,7.2L92,365.9z"/>
		<path class="st17" d="M68.8,369.9c-2.4,0.9-4.6,2-6.8,3.2c-4.1,2.2-7.6,5.4-10.1,9.4h-2.3v8.7l0,0c0.3,6,4.4,12,12.4,16.6
			c2.2,1.3,4.5,2.3,6.8,3.2L68.8,369.9z"/>
		<path class="st18" d="M115.2,369.9c2.4,0.9,4.6,2,6.8,3.2c4.1,2.2,7.6,5.4,10.1,9.4h2.3v8.7l0,0c-0.3,6-4.5,12-12.4,16.6
			c-2.2,1.3-4.5,2.3-6.8,3.2L115.2,369.9z"/>
		<path class="st5" d="M122,365.2c-16.6-9.6-43.4-9.6-60,0s-16.6,25.1,0,34.7s43.5,9.6,60,0S138.6,374.7,122,365.2z"/>
		<path class="st6" d="M122,365.2c-16.6-9.6-43.4-9.6-60,0s-16.6,25.1,0,34.7s43.5,9.6,60,0S138.6,374.7,122,365.2z"/>
		<path class="st5" d="M111.6,371.5c-5.3-2.7-12.2-4.2-19.6-4.2s-14.3,1.5-19.6,4.2c-5.6,2.9-8.6,6.8-8.6,11s3.1,8.1,8.6,11
			c5.2,2.7,12.2,4.2,19.6,4.2s14.3-1.5,19.6-4.2c5.6-2.9,8.6-6.8,8.6-11S117.1,374.4,111.6,371.5z"/>
		<path class="st5" d="M121.1,366.8c-7.7-4.5-18.1-6.9-29.1-6.9s-21.3,2.5-29.1,6.9c-7.4,4.3-11.5,9.9-11.5,15.7s4.1,11.5,11.5,15.7
			c7.7,4.5,18.1,6.9,29.1,6.9s21.4-2.5,29.1-6.9c7.4-4.3,11.5-9.9,11.5-15.7S128.5,371.1,121.1,366.8z M111.6,393.5
			c-5.3,2.7-12.2,4.2-19.6,4.2s-14.3-1.5-19.6-4.2c-5.6-2.9-8.6-6.8-8.6-11s3.1-8.1,8.6-11c5.2-2.7,12.2-4.2,19.6-4.2
			s14.3,1.5,19.6,4.2c5.6,2.9,8.6,6.8,8.6,11S117.1,390.6,111.6,393.5L111.6,393.5z"/>
		<path class="st8" d="M121.1,366.8c-7.7-4.5-18.1-6.9-29.1-6.9s-21.3,2.5-29.1,6.9c-7.4,4.3-11.5,9.9-11.5,15.7s4.1,11.5,11.5,15.7
			c7.7,4.5,18.1,6.9,29.1,6.9s21.4-2.5,29.1-6.9c7.4-4.3,11.5-9.9,11.5-15.7S128.5,371.1,121.1,366.8z M111.6,393.5
			c-5.3,2.7-12.2,4.2-19.6,4.2s-14.3-1.5-19.6-4.2c-5.6-2.9-8.6-6.8-8.6-11s3.1-8.1,8.6-11c5.2-2.7,12.2-4.2,19.6-4.2
			s14.3,1.5,19.6,4.2c5.6,2.9,8.6,6.8,8.6,11S117.1,390.6,111.6,393.5L111.6,393.5z"/>
		<path class="st6" d="M110.9,392.2c10.4-5.4,10.4-14,0-19.4s-27.3-5.4-37.8,0s-10.4,14,0,19.4S100.5,397.5,110.9,392.2z"/>
		<path class="st5" d="M110.9,392.2c10.4-5.4,10.4-14,0-19.4s-27.3-5.4-37.8,0s-10.4,14,0,19.4S100.5,397.5,110.9,392.2z"/>
		<path class="st11" d="M110.9,392.2c10.4-5.4,10.4-14,0-19.4s-27.3-5.4-37.8,0s-10.4,14,0,19.4S100.5,397.5,110.9,392.2z"/>
		<path class="st5" d="M110.9,376.4c-10.4-5.4-27.3-5.4-37.8,0c-4.3,2.2-6.8,5-7.6,7.9c0.7,2.9,3.3,5.7,7.6,7.9
			c10.4,5.4,27.3,5.4,37.8,0c4.3-2.2,6.8-5,7.6-7.9C117.7,381.4,115.2,378.7,110.9,376.4z"/>
		<path class="st12" d="M110.9,376.4c-10.4-5.4-27.3-5.4-37.8,0c-4.3,2.2-6.8,5-7.6,7.9c0.7,2.9,3.3,5.7,7.6,7.9
			c10.4,5.4,27.3,5.4,37.8,0c4.3-2.2,6.8-5,7.6-7.9C117.7,381.4,115.2,378.7,110.9,376.4z"/>
		<path class="st19" d="M63.2,367.3c11.2-6.8,28.8-7.5,28.8-7.5c-11,0-21.3,2.5-29.1,6.9c-7.4,4.3-11.5,9.9-11.5,15.7
			C51.4,382.5,51.8,374.3,63.2,367.3z"/>
		<path class="st19" d="M88.7,406.9c11.9,0.5,24.2-1.8,33.3-7.1c9.5-5.5,13.6-12.9,12.2-20c0,0,1.8,11.6-12.9,19.6
			S88.7,406.9,88.7,406.9z"/>
		<path class="st20" d="M126.5,381.9c2.6-0.2,3.9-2.9,3-5.9s-3.8-5.2-6.4-5s-3.9,2.9-3,5.9S123.9,382.1,126.5,381.9z"/>
		<g>
			<path class="st21" d="M128.2,372.4c-1-1-2-2-3.1-2.8c-1-0.7-2-1.4-3-2c-0.6-0.4-1.2-0.7-1.8-1c1.5,2.5,0.9,5.2-7.5,5.6
				c4.8,2.8,7.4,6.4,7.4,10.4c0,2.5-1.1,4.9-3.1,7c2.2-0.9,11.1-4.4,13.7-0.2C133.9,383.8,133,377.7,128.2,372.4z"/>
		</g>
	</g>
</g>
<g>
	<g>
		<path class="st5" d="M201.6,436.2c-2.5-3.9-6-7.2-10.1-9.4c-16.6-9.6-43.4-9.6-60,0c-4.1,2.2-7.6,5.4-10.1,9.4H119v8.7l0,0
			c0.3,6,4.4,12,12.4,16.6c16.6,9.6,43.5,9.6,60,0c8-4.6,12.1-10.6,12.4-16.6l0,0v-8.7L201.6,436.2z"/>
		<g class="st16">
			<path d="M201.6,436.2c-2.5-3.9-6-7.2-10.1-9.4c-16.6-9.6-43.4-9.6-60,0c-4.1,2.2-7.6,5.4-10.1,9.4H119v8.7l0,0
				c0.3,6,4.4,12,12.4,16.6c16.6,9.6,43.5,9.6,60,0c8-4.6,12.1-10.6,12.4-16.6l0,0v-8.7L201.6,436.2z"/>
		</g>
		<path class="st17" d="M161.4,419.7c-10.9,0-21.7,2.4-30,7.2c-4.1,2.2-7.6,5.4-10.1,9.4H119v8.7l0,0c0.3,6,4.4,12,12.4,16.6
			c8.3,4.8,19.2,7.2,30,7.2L161.4,419.7z"/>
		<path class="st17" d="M138.2,423.7c-2.4,0.9-4.6,2-6.8,3.2c-4.1,2.2-7.6,5.4-10.1,9.4H119v8.7l0,0c0.3,6,4.4,12,12.4,16.6
			c2.2,1.3,4.5,2.3,6.8,3.2L138.2,423.7z"/>
		<path class="st18" d="M184.6,423.7c2.4,0.9,4.6,2,6.8,3.2c4.1,2.2,7.6,5.4,10.1,9.4h2.3v8.7l0,0c-0.3,6-4.5,12-12.4,16.6
			c-2.2,1.3-4.5,2.3-6.8,3.2L184.6,423.7z"/>
		<path class="st5" d="M191.4,418.9c-16.6-9.6-43.4-9.6-60,0s-16.6,25.1,0,34.7s43.5,9.6,60,0S208,428.5,191.4,418.9z"/>
		<path class="st6" d="M191.4,418.9c-16.6-9.6-43.4-9.6-60,0s-16.6,25.1,0,34.7s43.5,9.6,60,0S208,428.5,191.4,418.9z"/>
		<path class="st5" d="M181,425.2c-5.3-2.7-12.2-4.2-19.6-4.2s-14.3,1.5-19.6,4.2c-5.6,2.9-8.6,6.8-8.6,11s3.1,8.1,8.6,11
			c5.2,2.7,12.2,4.2,19.6,4.2s14.3-1.5,19.6-4.2c5.6-2.9,8.6-6.8,8.6-11S186.5,428.1,181,425.2z"/>
		<path class="st5" d="M190.5,420.5c-7.7-4.5-18.1-6.9-29.1-6.9s-21.4,2.5-29.1,6.9c-7.4,4.3-11.5,9.9-11.5,15.7s4.1,11.5,11.5,15.7
			c7.7,4.5,18.1,6.9,29.1,6.9s21.4-2.5,29.1-6.9c7.4-4.3,11.5-9.9,11.5-15.7S197.9,424.8,190.5,420.5z M181,447.2
			c-5.3,2.7-12.2,4.2-19.6,4.2s-14.3-1.5-19.6-4.2c-5.6-2.9-8.6-6.8-8.6-11s3.1-8.1,8.6-11c5.2-2.7,12.2-4.2,19.6-4.2
			s14.3,1.5,19.6,4.2c5.6,2.9,8.6,6.8,8.6,11S186.5,444.4,181,447.2L181,447.2z"/>
		<path class="st8" d="M190.5,420.5c-7.7-4.5-18.1-6.9-29.1-6.9s-21.4,2.5-29.1,6.9c-7.4,4.3-11.5,9.9-11.5,15.7s4.1,11.5,11.5,15.7
			c7.7,4.5,18.1,6.9,29.1,6.9s21.4-2.5,29.1-6.9c7.4-4.3,11.5-9.9,11.5-15.7S197.9,424.8,190.5,420.5z M181,447.2
			c-5.3,2.7-12.2,4.2-19.6,4.2s-14.3-1.5-19.6-4.2c-5.6-2.9-8.6-6.8-8.6-11s3.1-8.1,8.6-11c5.2-2.7,12.2-4.2,19.6-4.2
			s14.3,1.5,19.6,4.2c5.6,2.9,8.6,6.8,8.6,11S186.5,444.4,181,447.2L181,447.2z"/>
		<path class="st6" d="M180.3,445.9c10.4-5.4,10.4-14,0-19.4s-27.3-5.4-37.8,0s-10.4,14,0,19.4C153,451.3,169.9,451.3,180.3,445.9z"
			/>
		<path class="st5" d="M180.3,445.9c10.4-5.4,10.4-14,0-19.4s-27.3-5.4-37.8,0s-10.4,14,0,19.4C153,451.3,169.9,451.3,180.3,445.9z"
			/>
		<path class="st11" d="M180.3,445.9c10.4-5.4,10.4-14,0-19.4s-27.3-5.4-37.8,0s-10.4,14,0,19.4C153,451.3,169.9,451.3,180.3,445.9z
			"/>
		<path class="st5" d="M180.3,430.2c-10.4-5.4-27.3-5.4-37.8,0c-4.3,2.2-6.8,5-7.6,7.9c0.7,2.9,3.3,5.7,7.6,7.9
			c10.4,5.4,27.3,5.4,37.8,0c4.3-2.2,6.8-5,7.6-7.9C187.1,435.2,184.6,432.4,180.3,430.2z"/>
		<path class="st12" d="M180.3,430.2c-10.4-5.4-27.3-5.4-37.8,0c-4.3,2.2-6.8,5-7.6,7.9c0.7,2.9,3.3,5.7,7.6,7.9
			c10.4,5.4,27.3,5.4,37.8,0c4.3-2.2,6.8-5,7.6-7.9C187.1,435.2,184.6,432.4,180.3,430.2z"/>
		<path class="st19" d="M132.6,421.1c11.2-6.8,28.8-7.5,28.8-7.5c-11,0-21.4,2.5-29.1,6.9c-7.4,4.3-11.5,9.9-11.5,15.7
			C120.8,436.2,121.2,428,132.6,421.1z"/>
		<path class="st19" d="M158.1,460.7c11.9,0.5,24.2-1.8,33.3-7.1c9.5-5.5,13.6-12.9,12.2-20c0,0,1.8,11.6-12.9,19.6
			S158.1,460.7,158.1,460.7z"/>
		<path class="st20" d="M195.9,435.6c2.6-0.2,3.9-2.9,3-5.9s-3.8-5.2-6.4-5s-3.9,2.9-3,5.9S193.3,435.9,195.9,435.6z"/>
		<g>
			<path class="st21" d="M197.6,426.1c-1-1-2-2-3.1-2.8c-1-0.7-2-1.4-3-2c-0.6-0.4-1.2-0.7-1.8-1c1.5,2.5,0.9,5.2-7.5,5.6
				c4.8,2.8,7.4,6.4,7.4,10.4c0,2.5-1.1,4.9-3.1,7c2.2-0.9,11.1-4.4,13.7-0.2C203.3,437.6,202.4,431.4,197.6,426.1z"/>
		</g>
	</g>
	<g>
		<path class="st5" d="M213.3,425.4c-2.5-3.9-6-7.2-10.1-9.4c-16.6-9.6-43.4-9.6-60,0c-4.1,2.2-7.6,5.4-10.1,9.4h-2.3v8.7l0,0
			c0.3,6,4.4,12,12.4,16.6c16.6,9.6,43.5,9.6,60,0c8-4.6,12.1-10.6,12.4-16.6l0,0v-8.7L213.3,425.4z"/>
		<g class="st16">
			<path d="M213.3,425.4c-2.5-3.9-6-7.2-10.1-9.4c-16.6-9.6-43.4-9.6-60,0c-4.1,2.2-7.6,5.4-10.1,9.4h-2.3v8.7l0,0
				c0.3,6,4.4,12,12.4,16.6c16.6,9.6,43.5,9.6,60,0c8-4.6,12.1-10.6,12.4-16.6l0,0v-8.7L213.3,425.4z"/>
		</g>
		<path class="st17" d="M173.2,408.8c-10.9,0-21.7,2.4-30,7.2c-4.1,2.2-7.6,5.4-10.1,9.4h-2.3v8.7l0,0c0.3,6,4.4,12,12.4,16.6
			c8.3,4.8,19.2,7.2,30,7.2L173.2,408.8z"/>
		<path class="st17" d="M150,412.8c-2.4,0.9-4.6,2-6.8,3.2c-4.1,2.2-7.6,5.4-10.1,9.4h-2.3v8.7l0,0c0.3,6,4.4,12,12.4,16.6
			c2.2,1.3,4.5,2.3,6.8,3.2L150,412.8z"/>
		<path class="st18" d="M196.4,412.8c2.4,0.9,4.6,2,6.8,3.2c4.1,2.2,7.6,5.4,10.1,9.4h2.3v8.7l0,0c-0.3,6-4.5,12-12.4,16.6
			c-2.2,1.3-4.5,2.3-6.8,3.2L196.4,412.8z"/>
		<path class="st5" d="M203.2,408c-16.6-9.6-43.4-9.6-60,0s-16.6,25.1,0,34.7s43.5,9.6,60,0S219.8,417.6,203.2,408z"/>
		<path class="st6" d="M203.2,408c-16.6-9.6-43.4-9.6-60,0s-16.6,25.1,0,34.7s43.5,9.6,60,0S219.8,417.6,203.2,408z"/>
		<path class="st5" d="M192.7,414.4c-5.3-2.7-12.2-4.2-19.6-4.2s-14.3,1.5-19.6,4.2c-5.6,2.9-8.6,6.8-8.6,11s3.1,8.1,8.6,11
			c5.2,2.7,12.2,4.2,19.6,4.2s14.3-1.5,19.6-4.2c5.6-2.9,8.6-6.8,8.6-11S198.3,417.2,192.7,414.4z"/>
		<path class="st5" d="M202.3,409.6c-7.7-4.5-18.1-6.9-29.1-6.9s-21.4,2.5-29.1,6.9c-7.4,4.3-11.5,9.9-11.5,15.7s4.1,11.5,11.5,15.7
			c7.7,4.5,18.1,6.9,29.1,6.9s21.4-2.5,29.1-6.9c7.4-4.3,11.5-9.9,11.5-15.7S209.7,413.9,202.3,409.6z M192.7,436.4
			c-5.3,2.7-12.2,4.2-19.6,4.2s-14.3-1.5-19.6-4.2c-5.6-2.9-8.6-6.8-8.6-11s3.1-8.1,8.6-11c5.2-2.7,12.2-4.2,19.6-4.2
			s14.3,1.5,19.6,4.2c5.6,2.9,8.6,6.8,8.6,11S198.3,433.5,192.7,436.4L192.7,436.4z"/>
		<path class="st8" d="M202.3,409.6c-7.7-4.5-18.1-6.9-29.1-6.9s-21.4,2.5-29.1,6.9c-7.4,4.3-11.5,9.9-11.5,15.7s4.1,11.5,11.5,15.7
			c7.7,4.5,18.1,6.9,29.1,6.9s21.4-2.5,29.1-6.9c7.4-4.3,11.5-9.9,11.5-15.7S209.7,413.9,202.3,409.6z M192.7,436.4
			c-5.3,2.7-12.2,4.2-19.6,4.2s-14.3-1.5-19.6-4.2c-5.6-2.9-8.6-6.8-8.6-11s3.1-8.1,8.6-11c5.2-2.7,12.2-4.2,19.6-4.2
			s14.3,1.5,19.6,4.2c5.6,2.9,8.6,6.8,8.6,11S198.3,433.5,192.7,436.4L192.7,436.4z"/>
		<path class="st6" d="M192.1,435.1c10.4-5.4,10.4-14,0-19.4s-27.3-5.4-37.8,0s-10.4,14,0,19.4C164.7,440.4,181.6,440.4,192.1,435.1
			z"/>
		<path class="st5" d="M192.1,435.1c10.4-5.4,10.4-14,0-19.4s-27.3-5.4-37.8,0s-10.4,14,0,19.4C164.7,440.4,181.6,440.4,192.1,435.1
			z"/>
		<path class="st11" d="M192.1,435.1c10.4-5.4,10.4-14,0-19.4s-27.3-5.4-37.8,0s-10.4,14,0,19.4
			C164.7,440.4,181.6,440.4,192.1,435.1z"/>
		<path class="st5" d="M192.1,419.3c-10.4-5.4-27.3-5.4-37.8,0c-4.3,2.2-6.8,5-7.6,7.9c0.7,2.9,3.3,5.7,7.6,7.9
			c10.4,5.4,27.3,5.4,37.8,0c4.3-2.2,6.8-5,7.6-7.9C198.9,424.3,196.4,421.5,192.1,419.3z"/>
		<path class="st12" d="M192.1,419.3c-10.4-5.4-27.3-5.4-37.8,0c-4.3,2.2-6.8,5-7.6,7.9c0.7,2.9,3.3,5.7,7.6,7.9
			c10.4,5.4,27.3,5.4,37.8,0c4.3-2.2,6.8-5,7.6-7.9C198.9,424.3,196.4,421.5,192.1,419.3z"/>
		<path class="st19" d="M144.4,410.2c11.2-6.8,28.8-7.5,28.8-7.5c-11,0-21.4,2.5-29.1,6.9c-7.4,4.3-11.5,9.9-11.5,15.7
			C132.6,425.4,133,417.2,144.4,410.2z"/>
		<path class="st19" d="M169.9,449.8c11.9,0.5,24.2-1.8,33.3-7.1c9.5-5.5,13.6-12.9,12.2-20c0,0,1.8,11.6-12.9,19.6
			S169.9,449.8,169.9,449.8z"/>
		<path class="st20" d="M207.7,424.8c2.6-0.2,3.9-2.9,3-5.9s-3.8-5.2-6.4-5s-3.9,2.9-3,5.9S205.1,425,207.7,424.8z"/>
		<g>
			<path class="st21" d="M209.3,415.3c-1-1-2-2-3.1-2.8c-1-0.7-2-1.4-3-2c-0.6-0.4-1.2-0.7-1.8-1c1.5,2.5,0.9,5.2-7.5,5.6
				c4.8,2.8,7.4,6.4,7.4,10.4c0,2.5-1.1,4.9-3.1,7c2.2-0.9,11.1-4.4,13.7-0.2C215.1,426.7,214.2,420.5,209.3,415.3z"/>
		</g>
	</g>
	<g>
		<path class="st5" d="M198.3,417.2c-2.5-3.9-6-7.2-10.1-9.4c-16.6-9.6-43.4-9.6-60,0c-4.1,2.2-7.6,5.4-10.1,9.4h-2.3v8.7l0,0
			c0.3,6,4.4,12,12.4,16.6c16.6,9.6,43.5,9.6,60,0c8-4.6,12.1-10.6,12.4-16.6l0,0v-8.7L198.3,417.2z"/>
		<g class="st16">
			<path d="M198.3,417.2c-2.5-3.9-6-7.2-10.1-9.4c-16.6-9.6-43.4-9.6-60,0c-4.1,2.2-7.6,5.4-10.1,9.4h-2.3v8.7l0,0
				c0.3,6,4.4,12,12.4,16.6c16.6,9.6,43.5,9.6,60,0c8-4.6,12.1-10.6,12.4-16.6l0,0v-8.7L198.3,417.2z"/>
		</g>
		<path class="st17" d="M158.1,400.6c-10.9,0-21.7,2.4-30,7.2c-4.1,2.2-7.6,5.4-10.1,9.4h-2.3v8.7l0,0c0.3,6,4.4,12,12.4,16.6
			c8.3,4.8,19.2,7.2,30,7.2L158.1,400.6z"/>
		<path class="st17" d="M134.9,404.6c-2.4,0.9-4.6,2-6.8,3.2c-4.1,2.2-7.6,5.4-10.1,9.4h-2.3v8.7l0,0c0.3,6,4.4,12,12.4,16.6
			c2.2,1.3,4.5,2.3,6.8,3.2L134.9,404.6z"/>
		<path class="st18" d="M181.3,404.6c2.4,0.9,4.6,2,6.8,3.2c4.1,2.2,7.6,5.4,10.1,9.4h2.3v8.7l0,0c-0.3,6-4.5,12-12.4,16.6
			c-2.2,1.3-4.5,2.3-6.8,3.2L181.3,404.6z"/>
		<path class="st5" d="M188.1,399.9c-16.6-9.6-43.4-9.6-60,0s-16.6,25.1,0,34.7s43.5,9.6,60,0S204.7,409.4,188.1,399.9z"/>
		<path class="st6" d="M188.1,399.9c-16.6-9.6-43.4-9.6-60,0s-16.6,25.1,0,34.7s43.5,9.6,60,0S204.7,409.4,188.1,399.9z"/>
		<path class="st5" d="M177.7,406.2c-5.3-2.7-12.2-4.2-19.6-4.2s-14.3,1.5-19.6,4.2c-5.6,2.9-8.6,6.8-8.6,11s3.1,8.1,8.6,11
			c5.2,2.7,12.2,4.2,19.6,4.2s14.3-1.5,19.6-4.2c5.6-2.9,8.6-6.8,8.6-11S183.2,409,177.7,406.2z"/>
		<path class="st5" d="M187.2,401.5c-7.7-4.5-18.1-6.9-29.1-6.9s-21.4,2.5-29.1,6.9c-7.4,4.3-11.5,9.9-11.5,15.7s4.1,11.5,11.5,15.7
			c7.7,4.5,18.1,6.9,29.1,6.9s21.4-2.5,29.1-6.9c7.4-4.3,11.5-9.9,11.5-15.7S194.6,405.7,187.2,401.5z M177.7,428.2
			c-5.3,2.7-12.2,4.2-19.6,4.2s-14.3-1.5-19.6-4.2c-5.6-2.9-8.6-6.8-8.6-11s3.1-8.1,8.6-11c5.2-2.7,12.2-4.2,19.6-4.2
			s14.3,1.5,19.6,4.2c5.6,2.9,8.6,6.8,8.6,11S183.2,425.3,177.7,428.2L177.7,428.2z"/>
		<path class="st8" d="M187.2,401.5c-7.7-4.5-18.1-6.9-29.1-6.9s-21.4,2.5-29.1,6.9c-7.4,4.3-11.5,9.9-11.5,15.7s4.1,11.5,11.5,15.7
			c7.7,4.5,18.1,6.9,29.1,6.9s21.4-2.5,29.1-6.9c7.4-4.3,11.5-9.9,11.5-15.7S194.6,405.7,187.2,401.5z M177.7,428.2
			c-5.3,2.7-12.2,4.2-19.6,4.2s-14.3-1.5-19.6-4.2c-5.6-2.9-8.6-6.8-8.6-11s3.1-8.1,8.6-11c5.2-2.7,12.2-4.2,19.6-4.2
			s14.3,1.5,19.6,4.2c5.6,2.9,8.6,6.8,8.6,11S183.2,425.3,177.7,428.2L177.7,428.2z"/>
		<path class="st6" d="M177,426.9c10.4-5.4,10.4-14,0-19.4s-27.3-5.4-37.8,0s-10.4,14,0,19.4C149.7,432.3,166.6,432.2,177,426.9z"/>
		<path class="st5" d="M177,426.9c10.4-5.4,10.4-14,0-19.4s-27.3-5.4-37.8,0s-10.4,14,0,19.4C149.7,432.3,166.6,432.2,177,426.9z"/>
		<path class="st11" d="M177,426.9c10.4-5.4,10.4-14,0-19.4s-27.3-5.4-37.8,0s-10.4,14,0,19.4C149.7,432.3,166.6,432.2,177,426.9z"
			/>
		<path class="st5" d="M177,411.1c-10.4-5.4-27.3-5.4-37.8,0c-4.3,2.2-6.8,5-7.6,7.9c0.7,2.9,3.3,5.7,7.6,7.9
			c10.4,5.4,27.3,5.4,37.8,0c4.3-2.2,6.8-5,7.6-7.9C183.8,416.1,181.3,413.3,177,411.1z"/>
		<path class="st12" d="M177,411.1c-10.4-5.4-27.3-5.4-37.8,0c-4.3,2.2-6.8,5-7.6,7.9c0.7,2.9,3.3,5.7,7.6,7.9
			c10.4,5.4,27.3,5.4,37.8,0c4.3-2.2,6.8-5,7.6-7.9C183.8,416.1,181.3,413.3,177,411.1z"/>
		<path class="st19" d="M129.4,402c11.2-6.8,28.8-7.5,28.8-7.5c-11,0-21.4,2.5-29.1,6.9c-7.4,4.3-11.5,9.9-11.5,15.7
			C117.5,417.2,117.9,409,129.4,402z"/>
		<path class="st19" d="M154.8,441.6c11.9,0.5,24.2-1.8,33.3-7.1c9.5-5.5,13.6-12.9,12.2-20c0,0,1.8,11.6-12.9,19.6
			S154.8,441.6,154.8,441.6z"/>
		<path class="st20" d="M192.7,416.6c2.6-0.2,3.9-2.9,3-5.9s-3.8-5.2-6.4-5s-3.9,2.9-3,5.9S190.1,416.8,192.7,416.6z"/>
		<g>
			<path class="st21" d="M194.3,407.1c-1-1-2-2-3.1-2.8c-1-0.7-2-1.4-3-2c-0.6-0.4-1.2-0.7-1.8-1c1.5,2.5,0.9,5.2-7.5,5.6
				c4.8,2.8,7.4,6.4,7.4,10.4c0,2.5-1.1,4.9-3.1,7c2.2-0.9,11.1-4.4,13.7-0.2C200,418.5,199.1,412.4,194.3,407.1z"/>
		</g>
	</g>
	<g>
		<path class="st5" d="M201.6,405.7c-2.5-3.9-6-7.2-10.1-9.4c-16.6-9.6-43.4-9.6-60,0c-4.1,2.2-7.6,5.4-10.1,9.4H119v8.7l0,0
			c0.3,6,4.4,12,12.4,16.6c16.6,9.6,43.5,9.6,60,0c8-4.6,12.1-10.6,12.4-16.6l0,0v-8.7L201.6,405.7z"/>
		<g class="st16">
			<path d="M201.6,405.7c-2.5-3.9-6-7.2-10.1-9.4c-16.6-9.6-43.4-9.6-60,0c-4.1,2.2-7.6,5.4-10.1,9.4H119v8.7l0,0
				c0.3,6,4.4,12,12.4,16.6c16.6,9.6,43.5,9.6,60,0c8-4.6,12.1-10.6,12.4-16.6l0,0v-8.7L201.6,405.7z"/>
		</g>
		<path class="st17" d="M161.4,389.2c-10.9,0-21.7,2.4-30,7.2c-4.1,2.2-7.6,5.4-10.1,9.4H119v8.7l0,0c0.3,6,4.4,12,12.4,16.6
			c8.3,4.8,19.2,7.2,30,7.2L161.4,389.2z"/>
		<path class="st17" d="M138.2,393.2c-2.4,0.9-4.6,2-6.8,3.2c-4.1,2.2-7.6,5.4-10.1,9.4H119v8.7l0,0c0.3,6,4.4,12,12.4,16.6
			c2.2,1.3,4.5,2.3,6.8,3.2L138.2,393.2z"/>
		<path class="st18" d="M184.6,393.2c2.4,0.9,4.6,2,6.8,3.2c4.1,2.2,7.6,5.4,10.1,9.4h2.3v8.7l0,0c-0.3,6-4.5,12-12.4,16.6
			c-2.2,1.3-4.5,2.3-6.8,3.2L184.6,393.2z"/>
		<path class="st5" d="M191.4,388.4c-16.6-9.6-43.4-9.6-60,0s-16.6,25.1,0,34.7s43.5,9.6,60,0S208,398,191.4,388.4z"/>
		<path class="st6" d="M191.4,388.4c-16.6-9.6-43.4-9.6-60,0s-16.6,25.1,0,34.7s43.5,9.6,60,0S208,398,191.4,388.4z"/>
		<path class="st5" d="M181,394.7c-5.3-2.7-12.2-4.2-19.6-4.2s-14.3,1.5-19.6,4.2c-5.6,2.9-8.6,6.8-8.6,11s3.1,8.1,8.6,11
			c5.2,2.7,12.2,4.2,19.6,4.2s14.3-1.5,19.6-4.2c5.6-2.9,8.6-6.8,8.6-11S186.5,397.6,181,394.7z"/>
		<path class="st5" d="M190.5,390c-7.7-4.5-18.1-6.9-29.1-6.9s-21.3,2.5-29.1,6.9c-7.4,4.3-11.5,9.9-11.5,15.7s4.1,11.5,11.5,15.7
			c7.7,4.5,18.1,6.9,29.1,6.9s21.4-2.5,29.1-6.9c7.4-4.3,11.5-9.9,11.5-15.7S197.9,394.3,190.5,390z M181,416.7
			c-5.3,2.7-12.2,4.2-19.6,4.2s-14.3-1.5-19.6-4.2c-5.6-2.9-8.6-6.8-8.6-11s3.1-8.1,8.6-11c5.2-2.7,12.2-4.2,19.6-4.2
			s14.3,1.5,19.6,4.2c5.6,2.9,8.6,6.8,8.6,11S186.5,413.9,181,416.7L181,416.7z"/>
		<path class="st8" d="M190.5,390c-7.7-4.5-18.1-6.9-29.1-6.9s-21.3,2.5-29.1,6.9c-7.4,4.3-11.5,9.9-11.5,15.7s4.1,11.5,11.5,15.7
			c7.7,4.5,18.1,6.9,29.1,6.9s21.4-2.5,29.1-6.9c7.4-4.3,11.5-9.9,11.5-15.7S197.9,394.3,190.5,390z M181,416.7
			c-5.3,2.7-12.2,4.2-19.6,4.2s-14.3-1.5-19.6-4.2c-5.6-2.9-8.6-6.8-8.6-11s3.1-8.1,8.6-11c5.2-2.7,12.2-4.2,19.6-4.2
			s14.3,1.5,19.6,4.2c5.6,2.9,8.6,6.8,8.6,11S186.5,413.9,181,416.7L181,416.7z"/>
		<path class="st6" d="M180.3,415.4c10.4-5.4,10.4-14,0-19.4s-27.3-5.4-37.8,0s-10.4,14,0,19.4S169.9,420.8,180.3,415.4z"/>
		<path class="st5" d="M180.3,415.4c10.4-5.4,10.4-14,0-19.4s-27.3-5.4-37.8,0s-10.4,14,0,19.4S169.9,420.8,180.3,415.4z"/>
		<path class="st11" d="M180.3,415.4c10.4-5.4,10.4-14,0-19.4s-27.3-5.4-37.8,0s-10.4,14,0,19.4S169.9,420.8,180.3,415.4z"/>
		<path class="st5" d="M180.3,399.7c-10.4-5.4-27.3-5.4-37.8,0c-4.3,2.2-6.8,5-7.6,7.9c0.7,2.9,3.3,5.7,7.6,7.9
			c10.4,5.4,27.3,5.4,37.8,0c4.3-2.2,6.8-5,7.6-7.9C187.1,404.7,184.6,401.9,180.3,399.7z"/>
		<path class="st12" d="M180.3,399.7c-10.4-5.4-27.3-5.4-37.8,0c-4.3,2.2-6.8,5-7.6,7.9c0.7,2.9,3.3,5.7,7.6,7.9
			c10.4,5.4,27.3,5.4,37.8,0c4.3-2.2,6.8-5,7.6-7.9C187.1,404.7,184.6,401.9,180.3,399.7z"/>
		<path class="st19" d="M132.6,390.6c11.2-6.8,28.8-7.5,28.8-7.5c-11,0-21.3,2.5-29.1,6.9c-7.4,4.3-11.5,9.9-11.5,15.7
			C120.8,405.7,121.2,397.5,132.6,390.6z"/>
		<path class="st19" d="M158.1,430.2c11.9,0.5,24.2-1.8,33.3-7.1c9.5-5.5,13.6-12.9,12.2-20c0,0,1.8,11.6-12.9,19.6
			S158.1,430.2,158.1,430.2z"/>
		<path class="st20" d="M195.9,405.1c2.6-0.2,3.9-2.9,3-5.9s-3.8-5.2-6.4-5s-3.9,2.9-3,5.9S193.3,405.4,195.9,405.1z"/>
		<g>
			<path class="st21" d="M197.6,395.6c-1-1-2-2-3.1-2.8c-1-0.7-2-1.4-3-2c-0.6-0.4-1.2-0.7-1.8-1c1.5,2.5,0.9,5.2-7.5,5.6
				c4.8,2.8,7.4,6.4,7.4,10.4c0,2.5-1.1,4.9-3.1,7c2.2-0.9,11.1-4.4,13.7-0.2C203.3,407.1,202.4,400.9,197.6,395.6z"/>
		</g>
	</g>
	<g>
		<path class="st5" d="M197,395.8c-2.5-3.9-6-7.2-10.1-9.4c-16.6-9.6-43.4-9.6-60,0c-4.1,2.2-7.6,5.4-10.1,9.4h-2.3v8.7l0,0
			c0.3,6,4.4,12,12.4,16.6c16.6,9.6,43.5,9.6,60,0c8-4.6,12.1-10.6,12.4-16.6l0,0v-8.7L197,395.8z"/>
		<g class="st16">
			<path d="M197,395.8c-2.5-3.9-6-7.2-10.1-9.4c-16.6-9.6-43.4-9.6-60,0c-4.1,2.2-7.6,5.4-10.1,9.4h-2.3v8.7l0,0
				c0.3,6,4.4,12,12.4,16.6c16.6,9.6,43.5,9.6,60,0c8-4.6,12.1-10.6,12.4-16.6l0,0v-8.7L197,395.8z"/>
		</g>
		<path class="st17" d="M156.8,379.2c-10.9,0-21.7,2.4-30,7.2c-4.1,2.2-7.6,5.4-10.1,9.4h-2.3v8.7l0,0c0.3,6,4.4,12,12.4,16.6
			c8.3,4.8,19.2,7.2,30,7.2L156.8,379.2z"/>
		<path class="st17" d="M133.7,383.2c-2.4,0.9-4.6,2-6.8,3.2c-4.1,2.2-7.6,5.4-10.1,9.4h-2.3v8.7l0,0c0.3,6,4.4,12,12.4,16.6
			c2.2,1.3,4.5,2.3,6.8,3.2L133.7,383.2z"/>
		<path class="st18" d="M180,383.2c2.4,0.9,4.6,2,6.8,3.2c4.1,2.2,7.6,5.4,10.1,9.4h2.3v8.7l0,0c-0.3,6-4.5,12-12.4,16.6
			c-2.2,1.3-4.5,2.3-6.8,3.2L180,383.2z"/>
		<path class="st5" d="M186.9,378.5c-16.6-9.6-43.4-9.6-60,0s-16.6,25.1,0,34.7s43.5,9.6,60,0S203.4,388,186.9,378.5z"/>
		<path class="st6" d="M186.9,378.5c-16.6-9.6-43.4-9.6-60,0s-16.6,25.1,0,34.7s43.5,9.6,60,0S203.4,388,186.9,378.5z"/>
		<path class="st5" d="M176.4,384.8c-5.3-2.7-12.2-4.2-19.6-4.2s-14.3,1.5-19.6,4.2c-5.6,2.9-8.6,6.8-8.6,11s3.1,8.1,8.6,11
			c5.2,2.7,12.2,4.2,19.6,4.2s14.3-1.5,19.6-4.2c5.6-2.9,8.6-6.8,8.6-11S181.9,387.7,176.4,384.8z"/>
		<path class="st5" d="M185.9,380.1c-7.7-4.5-18.1-6.9-29.1-6.9s-21.3,2.5-29.1,6.9c-7.4,4.3-11.5,9.9-11.5,15.7s4.1,11.5,11.5,15.7
			c7.7,4.5,18.1,6.9,29.1,6.9s21.4-2.5,29.1-6.9c7.4-4.3,11.5-9.9,11.5-15.7S193.4,384.4,185.9,380.1z M176.4,406.8
			c-5.3,2.7-12.2,4.2-19.6,4.2s-14.3-1.5-19.6-4.2c-5.6-2.9-8.6-6.8-8.6-11s3.1-8.1,8.6-11c5.2-2.7,12.2-4.2,19.6-4.2
			s14.3,1.5,19.6,4.2c5.6,2.9,8.6,6.8,8.6,11S181.9,403.9,176.4,406.8L176.4,406.8z"/>
		<path class="st8" d="M185.9,380.1c-7.7-4.5-18.1-6.9-29.1-6.9s-21.3,2.5-29.1,6.9c-7.4,4.3-11.5,9.9-11.5,15.7s4.1,11.5,11.5,15.7
			c7.7,4.5,18.1,6.9,29.1,6.9s21.4-2.5,29.1-6.9c7.4-4.3,11.5-9.9,11.5-15.7S193.4,384.4,185.9,380.1z M176.4,406.8
			c-5.3,2.7-12.2,4.2-19.6,4.2s-14.3-1.5-19.6-4.2c-5.6-2.9-8.6-6.8-8.6-11s3.1-8.1,8.6-11c5.2-2.7,12.2-4.2,19.6-4.2
			s14.3,1.5,19.6,4.2c5.6,2.9,8.6,6.8,8.6,11S181.9,403.9,176.4,406.8L176.4,406.8z"/>
		<path class="st6" d="M175.7,405.5c10.4-5.4,10.4-14,0-19.4s-27.3-5.4-37.8,0s-10.4,14,0,19.4S165.3,410.8,175.7,405.5z"/>
		<path class="st5" d="M175.7,405.5c10.4-5.4,10.4-14,0-19.4s-27.3-5.4-37.8,0s-10.4,14,0,19.4S165.3,410.8,175.7,405.5z"/>
		<path class="st11" d="M175.7,405.5c10.4-5.4,10.4-14,0-19.4s-27.3-5.4-37.8,0s-10.4,14,0,19.4S165.3,410.8,175.7,405.5z"/>
		<path class="st5" d="M175.7,389.7c-10.4-5.4-27.3-5.4-37.8,0c-4.3,2.2-6.8,5-7.6,7.9c0.7,2.9,3.3,5.7,7.6,7.9
			c10.4,5.4,27.3,5.4,37.8,0c4.3-2.2,6.8-5,7.6-7.9C182.6,394.7,180,391.9,175.7,389.7z"/>
		<path class="st12" d="M175.7,389.7c-10.4-5.4-27.3-5.4-37.8,0c-4.3,2.2-6.8,5-7.6,7.9c0.7,2.9,3.3,5.7,7.6,7.9
			c10.4,5.4,27.3,5.4,37.8,0c4.3-2.2,6.8-5,7.6-7.9C182.6,394.7,180,391.9,175.7,389.7z"/>
		<path class="st19" d="M128.1,380.6c11.2-6.8,28.8-7.5,28.8-7.5c-11,0-21.3,2.5-29.1,6.9c-7.4,4.3-11.5,9.9-11.5,15.7
			C116.2,395.8,116.6,387.6,128.1,380.6z"/>
		<path class="st19" d="M153.6,420.2c11.9,0.5,24.2-1.8,33.3-7.1c9.5-5.5,13.6-12.9,12.2-20c0,0,1.8,11.6-12.9,19.6
			S153.6,420.2,153.6,420.2z"/>
		<path class="st20" d="M191.4,395.2c2.6-0.2,3.9-2.9,3-5.9s-3.8-5.2-6.4-5s-3.9,2.9-3,5.9S188.8,395.4,191.4,395.2z"/>
		<g>
			<path class="st21" d="M193,385.7c-1-1-2-2-3.1-2.8c-1-0.7-2-1.4-3-2c-0.6-0.4-1.2-0.7-1.8-1c1.5,2.5,0.9,5.2-7.5,5.6
				c4.8,2.8,7.4,6.4,7.4,10.4c0,2.5-1.1,4.9-3.1,7c2.2-0.9,11.1-4.4,13.7-0.2C198.7,397.1,197.9,391,193,385.7z"/>
		</g>
	</g>
</g>
<g>
	<g>
		<path class="st1" d="M460.8,426c-1-1-2.2-1.7-3.5-2.1c-6.1-1.7-7.4-4.4-14.3-6.6c-10.4-3.1-21.1-4.7-31.8-5
			c-4.5-0.1-8.9-0.6-13.2,1c-1.3,0.4-2.4,1.1-3.3,2.1c-0.8,0.8-1.4,1.9-1.8,3l0,0c-0.2,0.5-0.4,1-0.5,1.5c-1,4.7,1.7,9.5,5.1,12.9
			c3.7,3.6,8.7,5.7,13.7,7.4c13,4,30.6,4.2,44.5,6.9c2.3,0.4,4.5,1,6.8,1.6c2.2-0.3,4.1-0.6,6.3-0.9
			C478.1,442,467.1,432.4,460.8,426z"/>
	</g>
	<g id="freepik--characters--inject-64">
		<g id="freepik--Chartacter--inject-64">
			<g id="freepik--bottom--inject-64_00000090263082114916186070000005537990469547621017_">
				<path class="st15" d="M446,436.3c0.2,3.2,0.7,5.2,1.9,7.1c1.1,1.9,3.2,2.3,5.3,1.9c2.7-0.6,4.8-2.5,5.8-5
					c0.7-2.1,0.4-4.6-0.1-7.6L446,436.3z"/>
				<path class="st2" d="M454.6,413.1c0.9,0.1,1.2,4.3,1.7,8.6c0.6,4.6,2,7.1,2.5,10.1c0.7,4.2,0.4,6.2-1,8.8
					c-1.4,2.6-7.1,5.4-9.7,1.7c-2.1-3-2.3-6.3-2.1-10.6c0.1-4.4,0.3-7.6,0.1-10.9c-0.2-3.2-0.5-6.3,0.3-6.7c0.1,0.5,0.1,1.1,0.2,1.5
					c0.1,0.3,0.1,2.1,0.7,2.1c0-0.4,0-0.8,0-1.2c-0.1-0.3,0-0.7,0.2-1.1c0.3-0.3,0.6-0.4,0.9-0.5c0.9-0.2,1.7-0.3,2.6-0.5
					c0.5-0.1,0.9-0.1,1.3-0.1c0.5-0.1,1.1-0.1,1.6,0c0.2,0.1,0.4,0.2,0.5,0.4c0.1,0.1,0.1,0.3,0.1,0.5c0,0.3,0.1,0.6,0.1,0.9
					c0,0.1,0.1,0.3,0.3,0.3s0.1-0.1,0.1-0.3c0-0.5-0.1-0.9-0.1-1.5c0-0.3-0.1-0.7-0.1-0.9C454.7,413.6,454.6,413.4,454.6,413.1z"/>
				<path class="st13" d="M455.6,433c0,0.2-0.1,0.3-0.3,0.3c-0.2,0-0.3-0.1-0.3-0.3c0-0.2,0.1-0.3,0.3-0.3
					C455.5,432.7,455.6,432.8,455.6,433L455.6,433z"/>
				<path class="st13" d="M455.3,430c0,0.2-0.1,0.3-0.3,0.3c-0.2,0-0.3-0.1-0.3-0.3c0-0.2,0.1-0.3,0.3-0.3
					C455.1,429.8,455.3,429.8,455.3,430L455.3,430z"/>
				<path class="st13" d="M455,427.3c0,0.2-0.1,0.3-0.3,0.3c-0.2,0-0.3-0.1-0.3-0.3c0-0.2,0.1-0.3,0.3-0.3
					C454.9,426.9,455,427.1,455,427.3L455,427.3z"/>
				<path class="st13" d="M454.7,424.5c0,0.2-0.1,0.3-0.3,0.3l0,0c-0.1,0-0.3-0.1-0.3-0.3l0,0c0-0.2,0.1-0.3,0.3-0.3l0,0
					C454.5,424.2,454.7,424.3,454.7,424.5L454.7,424.5z"/>
				<path class="st13" d="M448.6,425.1c0,0.1-0.1,0.3-0.3,0.3s-0.3-0.1-0.3-0.3l0,0c0-0.2,0.1-0.3,0.3-0.3
					C448.4,424.8,448.5,424.9,448.6,425.1L448.6,425.1z"/>
				<path class="st13" d="M448.8,427.9c0,0.2-0.1,0.3-0.3,0.3l0,0c-0.1,0-0.3-0.1-0.3-0.3l0,0c0-0.2,0.1-0.3,0.3-0.3l0,0
					C448.7,427.6,448.8,427.7,448.8,427.9z"/>
				<path class="st13" d="M449.2,430.6c0,0.2-0.1,0.3-0.3,0.3l0,0c-0.2,0-0.3-0.1-0.3-0.3c0-0.2,0.1-0.3,0.3-0.3l0,0
					C449,430.4,449.2,430.4,449.2,430.6L449.2,430.6z"/>
				<path class="st13" d="M449.5,433.6c0,0.1-0.1,0.3-0.3,0.3l0,0c-0.1,0-0.3-0.1-0.3-0.3l0,0c0-0.2,0.1-0.3,0.3-0.3
					C449.3,433.3,449.5,433.4,449.5,433.6C449.5,433.6,449.5,433.6,449.5,433.6z"/>
				<polygon class="st13" points="452.1,435 449.4,414.4 450.5,414.3 				"/>
				<path class="st15" d="M455.4,433.2L455.4,433.2c-2.1-0.4-4.2-0.2-6.1,0.6c-0.1,0.1-0.2,0-0.2-0.1l0,0c-0.1-0.1,0-0.2,0.1-0.2
					c2-0.8,4.2-1.1,6.3-0.6c0.1,0,0.1,0.1,0.1,0.2C455.5,433.1,455.5,433.2,455.4,433.2L455.4,433.2z"/>
				<path class="st15" d="M455.1,430.2L455.1,430.2c-1.6-0.7-4.6-0.2-6.1,0.6c-0.1,0.1-0.2,0-0.2-0.1l0,0c-0.1-0.1,0-0.2,0.1-0.2
					c1.6-0.8,4.7-1.4,6.3-0.6c0.1,0.1,0.1,0.1,0.1,0.2C455.1,430.2,455.1,430.2,455.1,430.2z"/>
				<path class="st15" d="M454.7,427.5L454.7,427.5c-1.6-0.7-4.6-0.2-6.1,0.6c-0.1,0.1-0.2,0-0.2-0.1l0,0c-0.1-0.1,0-0.2,0.1-0.2
					c1.6-0.8,4.7-1.4,6.3-0.6c0.1,0,0.1,0.1,0.1,0.2l0,0C454.8,427.4,454.8,427.4,454.7,427.5z"/>
				<path class="st15" d="M454.4,424.7L454.4,424.7c-1.6-0.7-4.6-0.2-6.1,0.6c-0.1,0.1-0.2,0-0.2-0.1l0,0c-0.1-0.1,0-0.2,0.1-0.2
					c1.6-0.8,4.6-1.4,6.3-0.6c0.1,0.1,0.1,0.1,0.1,0.2C454.5,424.7,454.5,424.7,454.4,424.7z"/>
				<polygon points="426.9,423.7 423.2,422.4 424.4,419.8 426.7,421.9 				"/>
				<path class="st15" d="M430.5,416.9c0,0,0.2,2.5,0.3,3.2s-3,3.2-3.8,3.6l-0.3-1.8c-0.7,0.9-1.3,1.9-1.7,3
					c-0.6,1.1-1.3,3.2-2.9,4.6c-2.5,2.2-6.3,3.3-10.3,3.6s-6.3-0.7-7.4-1.5s-1.5-1.9-1.3-2.9C403.2,427.7,430.5,416.9,430.5,416.9z"
					/>
				<path class="st2" d="M419.6,408.9l-0.1-1.4c-0.7,0-0.7,2.1-1.8,3.8c-1.5,2.7-3.2,5.2-5.4,7.5c-3.9,3.9-7.4,6.4-9.2,8.1
					c-2.3,2.3,2,5.8,8.5,5.2c3.2-0.3,8.9-2.1,10.5-4.1c1.6-2,2.5-5,3.7-6.5c1.3-1.5,4-3,4.7-4.7c0.4-0.9,0.1-3.2-0.2-5
					c-0.3-1.7-0.4-4.4-1.4-4.1l-0.1,0.9c-0.3,0.7-1.3,2.1-3.8,2.6C423.8,411.4,419.9,411.7,419.6,408.9z"/>
				<path class="st13" d="M423,411.3c-1.3-0.1-2.6-0.5-3.2-1.6l0,0c0.2,1-0.1,2-0.7,2.7c-1.1,1.4-8.2,11.5-8.2,11.5s6.6-8.3,7.8-9.9
					C420.6,411.7,421.2,411.4,423,411.3L423,411.3z"/>
				<path class="st13" d="M421.4,413.9c0,0.2,0.2,0.4,0.5,0.3c0.2-0.1,0.4-0.3,0.3-0.5c0-0.2-0.3-0.4-0.5-0.3
					C421.6,413.5,421.4,413.7,421.4,413.9z"/>
				<path class="st13" d="M419.6,416.2c0,0.2,0.2,0.4,0.5,0.3c0.2-0.1,0.4-0.3,0.3-0.5l0,0c0-0.2-0.2-0.4-0.5-0.3
					C419.7,415.7,419.6,416,419.6,416.2L419.6,416.2z"/>
				<path class="st13" d="M417.7,418.4c0,0.2,0.3,0.4,0.5,0.3c0.2-0.1,0.4-0.3,0.3-0.5c0-0.2-0.2-0.4-0.5-0.3
					C417.9,418,417.7,418.2,417.7,418.4z"/>
				<path class="st13" d="M415.9,420.6c0,0.2,0.2,0.4,0.5,0.3c0.2-0.1,0.4-0.3,0.3-0.5c0-0.2-0.2-0.4-0.5-0.3
					C416,420.2,415.9,420.4,415.9,420.6L415.9,420.6z"/>
				<path class="st13" d="M414,422.9c0,0.2,0.2,0.4,0.4,0.4s0.4-0.2,0.4-0.4v-0.1c0-0.2-0.2-0.4-0.5-0.3
					C414.2,422.4,414,422.6,414,422.9L414,422.9z"/>
				<path class="st15" d="M421.8,414.1C421.9,414.1,421.9,414.1,421.8,414.1c0.1-0.1,0.1-0.3,0.1-0.3c-0.1-0.1-2.1-1.9-4.6-1.7l0,0
					c-0.1,0-0.1,0.1-0.1,0.2l0,0c0,0.1,0.1,0.1,0.2,0.1l0,0c2.4-0.2,4.3,1.6,4.3,1.6C421.8,414.1,421.8,414.1,421.8,414.1z"/>
				<path class="st15" d="M420,416.3C420.1,416.3,420.1,416.3,420,416.3c0.1-0.1,0.1-0.2,0.1-0.3l0,0c-1.3-1.1-2.9-1.7-4.6-1.7l0,0
					c-0.1,0-0.1,0.1-0.1,0.2l0,0c0,0.1,0.1,0.1,0.2,0.1l0,0c2.3-0.2,4.3,1.6,4.3,1.6C419.9,416.3,420,416.3,420,416.3z"/>
				<path class="st15" d="M418.1,418.5C418.2,418.5,418.2,418.5,418.1,418.5c0.1-0.1,0.1-0.3,0.1-0.3c-1.3-1.1-2.9-1.7-4.6-1.7l0,0
					c-0.1,0-0.1,0.1-0.1,0.1l0,0c0,0.1,0.1,0.1,0.2,0.1l0,0c2.3-0.2,4.3,1.6,4.3,1.6C418.1,418.5,418.1,418.5,418.1,418.5z"/>
				<path class="st15" d="M416.3,420.8C416.3,420.8,416.3,420.8,416.3,420.8c0.1-0.1,0.1-0.3,0.1-0.3c-0.1-0.1-2.1-1.9-4.6-1.7l0,0
					c-0.1,0-0.2,0.1-0.2,0.1c0,0.1,0.1,0.2,0.1,0.2h0.1c2.3-0.2,4.3,1.6,4.3,1.6C416.2,420.8,416.3,420.8,416.3,420.8z"/>
				<path class="st15" d="M414.5,423C414.5,423,414.5,423,414.5,423c0.1-0.1,0.1-0.3,0.1-0.3c-1.3-1.1-2.9-1.7-4.6-1.7l0,0
					c-0.1,0-0.1,0.1-0.1,0.2l0,0c0,0.1,0.1,0.1,0.2,0.1l0,0c2.3-0.2,4.3,1.6,4.3,1.6C414.3,423,414.4,423,414.5,423z"/>
				<path class="st3" d="M454.1,317.5c1.7,25.5,2.3,53.9,2.3,53.9c0.5,5.2,0.8,10.3,0.8,15.5c0.1,9.3-0.5,32-0.5,32s-5.8,4.2-12,1.1
					c0,0-4.6-25.2-6.7-38.6c-1.7-10.8-3.9-24.7-3.9-24.7l-1.9,12.9c0.7,5,0.9,10,0.7,15c-0.3,5.4-2.3,26.1-2.3,26.1
					s-7.5,6.3-13.4,0.3c0,0-2.8-34.5-3.2-41c-0.7-12.8-0.3-36,0-52.2L454.1,317.5z"/>
				<path class="st15" d="M434.1,356.7l-3.2-22.1c0,0-6.1-0.7-9.3-3.5c0,0,2.1,3.8,7.9,5.1l3,20.1l-0.3,13.4L434.1,356.7z"/>
			</g>
			<g id="freepik--top--inject-64">
				<path class="st22" d="M420,269c-4.8,1.9-5.2,4.6-7.2,16.4c-1.9,11.6-2.4,14.7-2.4,14.7s-20.1,6.2-22.5,6.6l1.9,9.1l13.1-2.1
					c9.7-1.5,14.4-2.6,16.7-5s5.2-26.3,5.2-26.3L420,269z"/>
				<path class="st23" d="M419.9,268.6c-3.4,1.4-4.8,2.2-6.2,8.2c-1.2,5-5.2,22-5.2,22l-18.3,7.3c0,0,1.7,1.7,2,5.4
					c0.3,3.4-0.4,4.7-0.4,4.7s15-2.1,20.9-3.4s7.6-2.3,8.5-5.2c0.5-1.5,4-16,4.5-18.9c0.5-2.9,0.9-5.6,0.9-5.6L419.9,268.6z"/>
				<path id="freepik--chest--inject-64" class="st0" d="M440.5,265.2c2.5,0.5,5.4,1.1,5.4,1.1c6.2,2.7,7.3,3,8.6,3.6
					c0,0,3.1,7.9,1.3,20c-0.4,2.5-1.9,10.4-1.9,15.7c0.1,7.2,0.1,12.8,0.1,12.8s-6.9,6.6-24.3,5.6c-13.7-0.8-15.8-5.6-15.8-5.6
					s-0.2-18.2,0-28.3c0.3-13.2,2.9-19.2,5.8-21.5l8.2-4L440.5,265.2z"/>
				<g id="freepik--Head--inject-64">
					<path class="st15" d="M420.4,245.7c-1.5-3.3-0.3-7.8,1.5-9.9c2.5-3,6.4-4.7,12.3-4.4c4.4,0.3,9.5,2.8,10.3,7.4
						c4.1,2.1,2.1,9,0.9,11.4c-2.3,5-4.5,7.9-4.6,10.5L420.4,245.7z"/>
					<path class="st22" d="M420.8,258.3c0.6,1.4,1.6,2.5,2.9,3.3c0.9,0.5,1.7,0.9,2.7,1.1c0.8,0.1,1.5,0.2,2.3,0.1l-0.1,3.2
						c-0.6,2.6-0.8,5.7,0.9,7.2c3.6-5.8,11.5-6.5,11.5-6.5v-10.9c0,0,1.5,1.7,3.8,0.1c1.6-1.1,3-4,1.6-6.3c-1.5-2.3-4-1.4-4.7-0.7
						c-0.4,0.5-0.7,1.6-1.3,1.9c-0.7,0.3-1.2-1.1-1.3-1.6c-0.1-0.5,0-1.1,0.1-1.7c0.3-0.9,0.7-1.7,0.5-2.6c-0.3-1.1-1.7-1.5-2.4-2.4
						c-0.5-0.7-0.7-1.5-0.5-2.4c0.1-1.5,0.3-3-1.4-3.6c-1.2-0.3-2.5-0.3-3.6,0.3c-1.4,0.7-2.5,2.1-4.1,2.2c-0.3,0.1-0.5,0-0.8-0.1
						c-0.6-0.3-0.7-1.2-1.2-1.7c-0.6-0.4-1.3-0.4-1.9-0.1c-0.9,0.4-1.7,1.1-2.3,1.9c-0.7,0.9-0.7,2.1-0.9,3.2
						c-0.9,4.4-1,8.9-0.4,13.5c0.1,0.8,0.3,1.5,0.5,2.3C420.7,258.1,420.8,258.2,420.8,258.3z"/>
					<path class="st24" d="M428.7,262.8c2.6-0.1,7.8-1.4,9.2-2.8c1.4-1.4,2-4.4,2-4.4s-0.2,3.7-1.3,5.4c-1.1,1.7-3.8,2.4-5.4,2.8
						c-1.5,0.3-3,0.5-4.5,0.7V262.8z"/>
					<path class="st24" d="M428,247.9l-0.5,4.4c0,0.4-0.4,0.6-0.7,0.5l-2.2-0.8c-0.3-0.1-0.5-0.6-0.3-0.8l2.7-3.6
						C427.3,247.1,428.1,247.3,428,247.9z"/>
					<path class="st25" d="M431.3,254l-3.6,1.4c0.3,1,1.5,1.6,2.5,1.2h0.1C431.1,256.2,431.7,255.1,431.3,254z"/>
					<path class="st26" d="M430.1,256.7c-0.1,0-0.1,0.1-0.3,0.1c-0.1-1,0.5-1.9,1.5-2C431.4,255.6,430.9,256.4,430.1,256.7z"/>
					<path class="st15" d="M422.3,247.6c-0.2,0.6,0.2,0.7,0.7,0.9s1.1,0.3,1.3-0.3c0.2-0.5-0.1-1.1-0.7-1.3
						C423.1,246.8,422.5,247.1,422.3,247.6L422.3,247.6L422.3,247.6z"/>
					<path class="st15" d="M424.2,244.6c-0.3-0.1-0.5-0.3-0.8-0.3c-0.3-0.1-0.5-0.1-0.8-0.1c-0.3,0-0.6,0.1-0.8,0.3
						c0,0-0.1,0.1,0,0.1c0.2,0,0.4-0.1,0.7-0.1s0.6,0.1,0.9,0.1c0.3,0.1,0.7,0.2,1,0.4l0.3,0.2l0.1-0.1
						C424.6,244.9,424.4,244.7,424.2,244.6z"/>
					<path class="st15" d="M433.2,247.9c0.2,0.6-0.2,0.7-0.7,0.9c-0.5,0.2-1.1,0.3-1.3-0.3c-0.2-0.5,0.1-1.1,0.7-1.3
						C432.4,247.1,433,247.4,433.2,247.9L433.2,247.9z"/>
					<path class="st15" d="M431.3,244.9c0.3-0.1,0.5-0.3,0.8-0.3c0.3-0.1,0.5-0.1,0.8-0.1s0.6,0.1,0.8,0.3v0.1
						c-0.3-0.1-0.5-0.1-0.7-0.1c-0.3,0-0.6,0.1-0.9,0.1c-0.3,0.1-0.7,0.2-1.1,0.4l-0.3,0.2l-0.1-0.1
						C430.9,245.1,431.1,244.9,431.3,244.9z"/>
				</g>
				<g id="freepik--Tie--inject-64">
					<path class="st27" d="M427.5,273.9c0,0-1.9-3.2-2-4.5l2.1-2.3l0.9,5.4L427.5,273.9z"/>
					<g class="st28">
						<path d="M427.5,273.9c0,0-1.9-3.2-2-4.5l2.1-2.3l0.9,5.4L427.5,273.9z"/>
					</g>
					<polygon class="st27" points="430.2,272.5 433.7,269.8 436.8,271.7 431.4,274.8 					"/>
					<g class="st28">
						<polygon points="430.2,272.5 433.7,269.8 436.8,271.7 431.4,274.8 						"/>
					</g>
					<path class="st27" d="M431.5,305.2c0.6-7-1.5-26.1-1.4-28.6l-1.9-0.1c-1.1,3-3.8,22.7-3.7,27.6c0,2.3,2.6,6.4,3.4,6.5
						C428.7,310.8,431.5,306.7,431.5,305.2z"/>
					<path class="st13" d="M428.1,277c0.1-0.1,0.1-0.3,0.1-0.5l0,0l1.9,0.1l0,0c0,0.2,0,0.5,0,0.8
						C429.5,277.5,428.7,277.4,428.1,277z"/>
					<path class="st27" d="M430.2,272.5c-0.6-0.1-1.2-0.1-1.7,0c-0.4,0.4-0.7,0.9-0.9,1.5c0.1,0.9,0.4,1.9,0.9,2.7
						c0.6,0.3,1.3,0.4,1.9,0.1c0.5-0.6,0.9-1.3,1.1-2C431.3,273.9,430.9,273.1,430.2,272.5z"/>
					<path class="st23" d="M429.9,272.4h0.3c0.7-0.7,1.3-1.4,2.1-1.9c0.5-0.3,2.6,3.4,3,4.3c0.4,0.9,0.3,0.9,1.6,0.1
						c2.3-1.4,4.4-3,6.4-4.8c2.5-2.3,2.7-3.9,2.7-3.9s-4.2-4.2-5-4v1.8c-0.2,1.3-8,4-8.7,4.7C431.4,269.9,430.6,271.1,429.9,272.4z"
						/>
					<path class="st23" d="M424.8,273.7c0.2,0.5,1.5-4,2.4-3.9c0.4,0.1,0.9,1.4,1.7,2.7h0.1c-0.3-1.3-0.5-2.5-0.5-3.8
						c-0.1-0.9,0.1-1.8,0.3-2.7l0.1-2.4c-0.9,0.3-1.7,0.9-2.2,1.6c-0.8,0.9-1.4,2.1-1.6,3.2C424.6,270.2,424.5,271.9,424.8,273.7z"
						/>
				</g>
				<path class="st22" d="M468.4,299.1c0.8,5.2,0.9,6,0.7,9.5c-0.2,2.6-0.5,3-1.4,7.8c-0.9,4.7-3.2,13.4-3.2,14.7
					c0.1,1.2,0.1,2.4,0.1,3.6c-0.1,1.5-0.4,2.9-0.9,4.2c-0.3,0.9-0.6,1.9-1,2.9c-0.4,0.6-0.8,1.2-1.3,1.7c-0.5,0.7-0.6,1.4-1.2,2
					c-1,1-2.1,1.1-3,1.6c-0.4,0.6-1.1,1.9-1.6,2.5c-1.2,1.5-1.5-0.9-1.5-1.7c0.1-0.9,0.2-1.7,0.5-2.6c0.6-2.1,1.1-4.3,1.4-6.5
					c0.1-0.4,0.5-2-0.1-2c-0.2,0-0.4,0.1-0.5,0.3c-0.4,0.5-0.7,1.1-1.1,1.7c-0.3,0.4-0.7,0.9-1,1.2c-0.3,0.3-0.7,0.6-1,0.8
					c-0.4,0.2-1.9,0.3-2-0.4c0-0.1,0-0.2,0.1-0.3c0.3-0.7,0.7-1.5,1-2.2s0.6-1.5,0.9-2.3c0.6-2.4,1.2-4.4,2.6-6.4
					c2.5-3.6,2.7-24.4,2.7-24.4l-3.6-14.3c-1.5-3.8-2.3-7.9-2.2-12.1c0.1-5,4.3-7.8,4.3-7.8c5.3,2.1,6.6,2.7,8,7.6
					C465.5,283,467.9,295.7,468.4,299.1z"/>
				<path class="st23" d="M469.2,302.8c-0.2-1.3-1.1-7.7-3.1-17.1c-1.5-6.7-2-9.6-3.8-11.7c-1.5-1.6-5.2-3.1-7.6-4.2
					c-2.3,2.8-3.4,6.3-3.5,9.9c-0.1,5.6,2,12.6,2,12.6l3.9,13.1l-1.1,19c2.5-0.9,7.8,1.5,9.1,4c0,0,3-11.6,3.9-16.2
					C469.4,309.1,469.6,306,469.2,302.8z"/>
			</g>
		</g>
	</g>
	<g>
		<path class="st22" d="M386.2,307.5c-2.3,0.3-3.2,0.1-4.1-0.6c-1-0.9-2.2-1.6-3.5-1.9c-2.6-0.6-4.7-1.6-4.9-1c0,0.1,0,0.2-0.1,0.3
			c-0.2-0.2-1.7,0.2-2.9,0.7c-0.2,0.1-0.3,0.2-0.4,0.4c-0.4,1.2-0.7,2.4-0.6,3.6c0,0.2,0.1,0.4,0.2,0.5c0.6,0.6,1.3,1.1,2,1.4
			c0.2,0.1,0.2,0.3,0,0.3c-2.6,0.2-6.3-0.4-8-0.6c-1.3-0.2-1.8,1.7,0.1,2.1c2.6,0.5,5.2,0.8,7.8,1c0.2,0,0.3,0.3,0,0.3
			c-1,0.2-3.9,0.6-8.7,0.3c-1.3-0.1-1.8,2,0,2.1c3.2,0.4,6.4,0.4,9.7,0.1c0.3,0,0.4,0.2,0.1,0.3c-2,0.7-4.1,1.2-6.2,1.4
			c-1.6,0.2-1.5,2.3,0.5,2.3c3.6-0.1,8-0.5,11.4-1.6c3.4-1.1,5.3-2.2,8.1-2.7c0.6-0.1,1.7-0.2,3.1-0.4l-1.9-9.1
			C386.9,307,386.6,307.4,386.2,307.5z M376.3,308.5c-0.1,0-0.2,0.2-0.3,0.2c-0.8,0.3-2-0.1-2.8-0.1c-0.5-0.1-0.9-0.3-1.4-0.5
			c0.2-0.6,0.3-1.2,0.3-1.8c1-0.4,1.5-0.8,1.5-1.5c0.3,1,1.9,1.4,2.8,2.2C376.8,307.5,376.8,308.2,376.3,308.5z"/>
	</g>
</g>
</svg>
