<?xml version="1.0" encoding="utf-8"?>
<!-- Generator: Adobe Illustrator 27.3.1, SVG Export Plug-In . SVG Version: 6.00 Build 0)  -->
<svg version="1.1" id="Layer_1" xmlns="http://www.w3.org/2000/svg" xmlns:xlink="http://www.w3.org/1999/xlink" x="0px" y="0px"
	 viewBox="0 0 500 500" style="enable-background:new 0 0 500 500;" xml:space="preserve">
<style type="text/css">
	.st0{fill:#F5F5F5;}
	.st1{fill:#FAFAFA;}
	.st2{fill:#FFFFFF;}
	.st3{fill:#F0F0F0;}
	.st4{fill:#E0E0E0;}
	.st5{fill:#BDC9BB;}
	.st6{fill:#263238;}
	.st7{fill:#FFBDA7;}
	.st8{fill:#37474F;}
	.st9{fill:#F0997A;}
	.st10{fill:#E6E6E6;}
	.st11{fill:#B16668;}
	.st12{fill:#F28F8F;}
	.st13{opacity:0.3;enable-background:new    ;}
	.st14{opacity:0.4;fill:#BDC9BB;enable-background:new    ;}
	.st15{opacity:0.15;enable-background:new    ;}
	.st16{fill:#455A64;}
	.st17{opacity:0.5;fill:#37474F;enable-background:new    ;}
	.st18{opacity:0.4;fill:#FFFFFF;enable-background:new    ;}
	.st19{opacity:0.6;fill:#FFFFFF;enable-background:new    ;}
	.st20{opacity:0.2;fill:#BDC9BB;enable-background:new    ;}
	.st21{fill:#FFA8A7;}
	.st22{fill:#EBEBEB;}
	.st23{opacity:0.2;fill:#FFFFFF;enable-background:new    ;}
	.st24{opacity:0.35;fill:#FFFFFF;enable-background:new    ;}
	.st25{opacity:0.15;}
	.st26{opacity:0.5;fill:#FFFFFF;enable-background:new    ;}
</style>
<g id="freepik--Floor--inject-2">
	<path id="freepik--floor--inject-2" class="st0" d="M85.9,247.2c-92.1,53.1-92,139.3,0,192.5s241.3,53.1,333.3,0s92-139.3,0-192.5
		S177.9,194.1,85.9,247.2z"/>
</g>
<g id="freepik--Pictures--inject-2">
	<g id="freepik--Picture--inject-2">
		<g id="freepik--Frame--inject-2">
			<polygon class="st1" points="30.1,169.2 31.8,170.2 65.9,150.5 64.2,149.5 			"/>
			<polygon class="st2" points="64.2,149.5 31.8,168.3 31.8,134.2 64.2,115.5 			"/>
			<path class="st3" d="M69.1,109.1l-40.4,23.3v43.2l40.4-23.4V109.1z M65.9,150.5l-34.2,19.7v-36l34.2-19.7L65.9,150.5z"/>
			<polygon class="st4" points="65.9,150.5 64.2,149.5 64.2,115.5 65.9,114.5 			"/>
			<polygon class="st1" points="69.1,109.1 67.4,108.1 26.9,131.5 28.6,132.4 			"/>
			<polygon class="st4" points="26.9,131.5 28.6,132.4 28.6,175.7 26.9,174.7 			"/>
		</g>
		<g id="freepik--Land--inject-2">
			<polygon class="st3" points="63,148.5 33,165.8 33,157.1 40.5,139.8 45.2,144.2 43.5,151.4 53.8,129.3 63,139.8 			"/>
			<path class="st3" d="M44.9,131.5c-1.3,0.9-2.1,2.3-2.2,3.8c0,1.4,1,2,2.2,1.3c1.3-0.9,2.1-2.3,2.2-3.8
				C47.1,131.4,46.1,130.8,44.9,131.5z"/>
		</g>
	</g>
	<g id="freepik--picture--inject-2">
		<g id="freepik--frame--inject-2">
			<polygon class="st1" points="30.1,114.6 31.8,115.5 65.9,95.8 64.2,94.8 			"/>
			<polygon class="st2" points="64.2,94.8 31.8,113.6 31.8,79.6 64.2,60.8 			"/>
			<path class="st3" d="M69.1,54.4L28.6,77.8V121l40.4-23.4V54.4z M65.9,95.8l-34.2,19.7v-36l34.2-19.7L65.9,95.8z"/>
			<polygon class="st4" points="65.9,95.8 64.2,94.8 64.2,60.8 65.9,59.8 			"/>
			<polygon class="st1" points="69.1,54.4 67.4,53.4 26.9,76.8 28.6,77.8 			"/>
			<polygon class="st4" points="26.9,76.8 28.6,77.8 28.6,121 26.9,120 			"/>
		</g>
		<g id="freepik--land--inject-2">
			<polygon class="st3" points="63,93.8 33,111.1 33,102.5 40.5,85.2 45.2,89.5 43.5,96.7 53.8,74.6 63,85.2 			"/>
			<path class="st3" d="M44.9,76.8c-1.3,0.9-2.1,2.3-2.2,3.8c0,1.4,1,2,2.2,1.3c1.3-0.9,2.1-2.3,2.2-3.8
				C47.1,76.7,46.1,76.1,44.9,76.8z"/>
		</g>
	</g>
</g>
<g id="freepik--Window--inject-2">
	<g id="freepik--window--inject-2_00000051370520869060143670000015595204348614647702_">
		<g id="freepik--window--inject-2">
			<g id="freepik--frame--inject-2_00000023990880955415099330000001358752311290155656_">
				<polygon class="st1" points="477,209.7 474.8,211 403,169.5 405.1,168.2 				"/>
				<polygon class="st2" points="405.1,168.2 474.8,208.5 474.8,88.3 405.1,48.1 				"/>
				<path class="st0" d="M398.8,171.9l80.1,46.2V86l-80.1-46.3V171.9z M402.9,46.9l71.9,41.5V211L403,169.5L402.9,46.9z"/>
				<polygon class="st4" points="403,169.5 405.1,168.2 405.1,48.1 403,46.8 				"/>
				<polygon class="st1" points="474.8,166 474.8,168.5 403,127.1 405.1,125.8 				"/>
				<polygon class="st1" points="474.8,123.5 474.8,126.1 403,84.6 405.1,83.3 				"/>
				<polygon class="st1" points="398.8,39.7 401.1,38.5 481.1,84.7 478.9,86 				"/>
				<polygon class="st4" points="481.1,84.7 478.9,86 478.9,218.1 481.1,216.9 				"/>
				<polygon class="st4" points="443.1,70 440.9,68.8 440.9,191.5 443.1,190.2 				"/>
			</g>
			<polygon class="st0" points="436.8,66.4 440.9,68.8 440.9,191.5 436.8,189.1 			"/>
			<polygon class="st0" points="398.8,82.2 398.8,86.9 478.9,133.2 478.9,128.4 			"/>
			<polygon class="st0" points="398.8,124.7 398.8,129.4 478.9,175.6 478.9,170.9 			"/>
			<polygon class="st1" points="440.9,106.5 443.1,105.2 474.8,123.5 474.8,126.1 			"/>
			<polygon class="st1" points="440.9,149 443.1,147.7 474.8,166 474.8,168.5 			"/>
		</g>
	</g>
</g>
<g id="freepik--Plants--inject-2">
	<g id="freepik--plants--inject-2">
		<path class="st5" d="M454,376.6c-0.1,0-0.1,0-0.2,0l-4.8-1.2c-0.1,0-0.2-0.1-0.3-0.3c0-0.1-4.2-12.6,4.7-29.4
			c6.3-12,16.2-19.9,22.5-17.8c2.4,0.7,4.3,2.6,4.9,5c0.5,2.8-0.4,5.7-2.6,7.6c-0.5,0.5-1.3,1.1-2.2,2c-6,5.1-20.2,17.2-21.7,33.8
			c0,0.1-0.1,0.2-0.2,0.3C454.1,376.6,454.1,376.6,454,376.6z M449.5,374.6l4.1,1c1.8-16.7,15.9-28.7,22-33.9c1-0.8,1.7-1.5,2.2-1.9
			c1.9-1.7,2.8-4.3,2.3-6.8c-0.6-2.1-2.2-3.8-4.4-4.4c-5.9-1.9-15.4,5.7-21.5,17.4C446.1,361.4,449,372.9,449.5,374.6L449.5,374.6z"
			/>
		<path class="st5" d="M451.3,375.9L451.3,375.9c-0.2,0-0.4-0.2-0.4-0.4c0,0,0,0,0,0c-0.4-19.4,13.1-38.1,22.1-42
			c0.2-0.1,0.5,0,0.5,0.2s0,0.5-0.2,0.5c-8.9,3.8-22,22.8-21.6,41.2C451.7,375.7,451.5,375.8,451.3,375.9
			C451.3,375.9,451.3,375.9,451.3,375.9z"/>
		<path class="st5" d="M449.2,375.3c-0.1,0-0.1,0-0.2,0l-3.2-1c-0.1,0-0.2-0.1-0.3-0.3c-0.1-0.2-5.8-18.7-1.6-43.7
			c2.1-12.7,9.6-25.2,17.6-29.5c3.4-2.1,7.7-2.4,11.4-0.8c1.8,0.7,3.2,2.1,3.8,4c1.3,4.7-3.6,11.8-8.8,19.2
			c-3.6,5.2-7.4,10.6-9.1,15.4c-0.1,0.2-0.3,0.3-0.5,0.3c0,0,0,0,0,0c-0.2-0.1-0.3-0.3-0.3-0.5c0,0,0,0,0,0
			c1.8-4.9,5.5-10.3,9.2-15.6c5.1-7.3,9.9-14.2,8.7-18.5c-0.5-1.6-1.8-2.9-3.4-3.4c-3.5-1.5-7.4-1.2-10.6,0.8
			c-7.9,4.3-15.1,16.5-17.2,29c-3.9,23.4,0.9,41.1,1.5,43.1l3,0.9c0.2,0.1,0.3,0.3,0.3,0.5c0,0,0,0,0,0
			C449.5,375.3,449.3,375.3,449.2,375.3z"/>
		<path class="st5" d="M448.4,363.5L448.4,363.5c-0.2,0-0.4-0.2-0.5-0.4c-2.4-30,14.3-54.1,19.3-58.2c0.2-0.2,0.4-0.2,0.6,0
			c0,0,0,0,0,0c0.1,0.2,0.1,0.4,0,0.6c0,0,0,0,0,0c-4.9,4.1-21.4,27.8-19,57.5C448.8,363.2,448.7,363.5,448.4,363.5
			C448.4,363.5,448.4,363.5,448.4,363.5z"/>
	</g>
	<g id="freepik--plants--inject-2_00000121270335636017850560000005069361275606038206_">
		<path class="st5" d="M44.5,374.8c-0.1-0.1-0.1-0.2-0.2-0.3c-1.5-16.1-15.2-27.8-21.1-32.8c-1-0.8-1.7-1.4-2.2-1.9
			c-2.1-1.8-3-4.6-2.5-7.4c0.6-2.4,2.4-4.2,4.8-4.9c6.1-2,15.7,5.6,21.9,17.3c8.6,16.4,4.6,28.4,4.5,28.5c0,0.1-0.2,0.2-0.3,0.3
			l-4.6,1.2h-0.2C44.6,374.8,44.6,374.8,44.5,374.8z M44.5,345.2c-6-11.3-15.1-18.8-20.9-16.9c-2.1,0.5-3.7,2.2-4.2,4.3
			c-0.5,2.5,0.4,5,2.3,6.6c0.5,0.5,1.2,1.1,2.1,1.9c5.9,5,19.6,16.6,21.3,32.9l4-1C49.5,371.3,52.3,360.1,44.5,345.2L44.5,345.2z"/>
		<path class="st5" d="M47.3,374.2L47.3,374.2c0.2,0,0.4-0.2,0.4-0.4c0,0,0,0,0,0c0.3-18.8-12.7-37-21.5-40.7
			c-0.2-0.1-0.4,0-0.5,0.2s0,0.4,0.2,0.5l0,0c8.7,3.7,21.3,22.1,21,40C46.9,374,47.1,374.1,47.3,374.2z"/>
		<path class="st5" d="M49.3,373.6c0.1,0,0.1,0,0.2,0l3.1-1c0.1,0,0.2-0.1,0.3-0.3c0-0.2,5.6-18.2,1.5-42.4
			c-2.1-12.4-9.3-24.4-17.1-28.6c-3.3-2-7.4-2.3-11-0.8c-1.8,0.6-3.1,2-3.7,3.8c-1.3,4.6,3.4,11.4,8.5,18.6
			c3.5,5.1,7.2,10.3,8.8,14.9c0.1,0.2,0.3,0.3,0.5,0.2c0,0,0,0,0,0c0.2-0.1,0.3-0.3,0.2-0.5c-1.7-4.7-5.4-10-8.9-15.1
			c-4.9-7.1-9.6-13.8-8.4-18c0.5-1.6,1.7-2.8,3.3-3.3c3.4-1.4,7.2-1.2,10.3,0.7c7.6,4.1,14.7,16,16.7,28.1
			c3.8,22.7-0.8,39.8-1.4,41.9l-2.9,0.9c-0.2,0.1-0.3,0.3-0.3,0.5c0,0,0,0,0,0C49,373.5,49.1,373.6,49.3,373.6z"/>
		<path class="st5" d="M50.1,362.2L50.1,362.2c0.2,0,0.4-0.1,0.4-0.3c0,0,0,0,0,0c2.4-29.1-13.9-52.5-18.7-56.5
			c-0.2-0.1-0.4-0.1-0.6,0c-0.1,0.2-0.1,0.4,0,0.6c0,0,0,0,0,0c4.7,4,20.8,27,18.4,55.8C49.7,362,49.9,362.2,50.1,362.2
			C50.1,362.2,50.1,362.2,50.1,362.2z"/>
	</g>
</g>
<g id="freepik--Shadows--inject-2">
	<polygon id="freepik--Shadow--inject-2" class="st4" points="328.7,327.2 153.2,428.5 134.7,417.9 310.2,316.5 	"/>
	<ellipse id="freepik--shadow--inject-2" class="st4" cx="91.1" cy="395.8" rx="61.6" ry="35.9"/>
	
		<ellipse id="freepik--shadow--inject-2_00000036238610012610560690000003709869253405262771_" class="st4" cx="405.8" cy="395.3" rx="63.5" ry="37.1"/>
	<path id="freepik--shadow--inject-2_00000145032031731703818770000008388098637365908887_" class="st4" d="M231.2,470.8
		c-1.8,0-3.5-0.3-5.1-1.1c-4.8-2.7-10.9-6.8-12.2-12.8c-4.8-1.3-9.5-2.9-14.1-4.9l-2.1-0.9c-5.4,2.2-8.7,3.5-8.7,3.5l-1.3,0.5
		L174,448l-0.6-6.8l2.6-2.1c1.6-1.2,3.4-2.6,5.5-4.1c4.4-3.1,19.5-13.5,32.4-17.8c5.5-1.8,10-2.9,13.5-3.7c4.5-1.1,7.8-1.9,10.5-3.4
		c2.6-1.5,3.7-3.1,5.6-5.7c2-2.8,4.2-5.5,6.6-8c7.4-7.6,25.5-16.4,30.9-18.9c2.3-1.1,4.6-2.1,7.1-3.1l1-0.4l1.1,0.4
		c3.8,1.4,7.3,3.6,10.2,6.5l3.3,3.4l-2.5,0.9c1,0.9,2.3,2,3.7,3.1c3.4,2.8,7.2,5.9,9,8.8c1.4,2,2.2,4.4,2.4,6.8
		c3.5,1.2,6.8,2.8,10,4.7c2.6,1.5,3.4,4.9,1.9,7.5c-0.5,0.9-1.3,1.6-2.2,2.1l-3.8,1.9c-1.5,0.8-3.2,1.2-4.9,1.2l0,0
		c-1.9,0-3.9-0.5-5.5-1.6c-1.4-0.9-2.9-1.7-4.4-2.3c-0.7,0.5-1.5,1-2.2,1.4c-2.5,1.4-5,2.6-7.7,3.6l-0.6,0.2c-2.6,0.9-5.3,1.6-8,2.1
		l-0.6,0.1l-0.7,0.1l-0.7,0.1l-0.5,0l-0.9,0.1l-0.8,0.1h-0.3c-0.4,0-0.8,0-1.2,0.1c-0.7,0-1.4,0-2.1,0H280l0,0
		c-3.4-0.1-6.9-0.5-10.2-1.2c-0.5-0.1-1.1-0.2-1.7-0.4c-3.6,1.4-7.6,2.9-12,4.5l0.1,0.1c0.1,0.2,0.3,0.4,0.4,0.7
		c0.5,0.8,0.9,1.7,1.3,2.6c0.1,0.3,0.3,0.7,0.4,1c0.1,0.3,0.2,0.7,0.3,1c0.3,1,0.4,2.1,0.4,3.2c0,5.8-4,10.8-12.2,15.6
		c-0.5,0.3-1,0.6-1.5,0.8l-0.3,0.1c-0.6,0.3-1.1,0.5-1.6,0.8c-1.1,0.5-2.4,1.1-3.7,1.6l-1.2,0.4l-0.9,0.3l-0.4,0.1l-0.4,0.1
		c0.7,0.5,1.5,1,2.4,1.4c2.8,1.5,3.4,3.4,3.5,4.7c0,1-0.3,3-2.8,4.7l-3.3,2.2C234.9,470.5,233.1,470.9,231.2,470.8z M213.6,447
		c0.7,0.2,1.4,0.4,2.1,0.6h0.1c0.2-0.3,0.4-0.6,0.6-0.9c1.1-1.6,2.4-3.1,3.7-4.5l-9.5,3.8l1.4,0.5l1.3,0.4L213.6,447L213.6,447z
		 M246.3,436.3c-5.8,5.2-9.2,8.4-11.2,10.4c1.4-0.5,2.7-1.2,4-1.9c0.3-0.1,0.5-0.3,0.8-0.4c0.7-0.4,1.3-0.8,1.8-1.1l0.4-0.3
		c0.9-0.6,1.7-1.3,2.4-2.1l0.4-0.4c0.1-0.1,0.2-0.3,0.3-0.4l0.3-0.4c0-0.1,0.1-0.1,0.1-0.2l0.1-0.1c0.1-0.1,0.1-0.2,0.2-0.3
		c0-0.1,0.1-0.2,0.1-0.2l0.1-0.1l0.1-0.2c0.2-0.6,0.3-1.2,0.3-1.8v-0.2C246.3,436.4,246.3,436.3,246.3,436.3L246.3,436.3z
		 M225.6,425c-0.6,0.1-1.2,0.2-1.9,0.4s-1.2,0.3-1.8,0.4c-1.7,0.4-3.5,1-5.3,1.6c-0.7,0.2-1.3,0.5-2,0.7c-1.6,0.6-3.2,1.2-4.9,2
		c-0.4,0.2-0.7,0.3-0.9,0.5l-0.1,0c-6,2.9-9.3,5.4-11,7.2c8.7-3.7,20-8.5,31.9-13.3c-0.9,0.1-1.9,0.2-2.8,0.3l-0.6,0.1H226
		L225.6,425z M257.8,407.2l0.2,0.2c0.2,0.2,0.5,0.4,0.7,0.6c8.7-7.1,17-13.6,23.1-18.4l-0.8,0.2l-0.5,0.1l-0.3,0.1l-0.3,0.1l-0.1,0
		h-0.1h-0.1h0l-1,0.3c-0.8,0.3-1.6,0.6-2.5,1l-1.3,0.6l-0.8,0.4l-0.5,0.3c-0.5,0.3-1.1,0.6-1.6,0.9l-0.2,0.1l-0.3,0.1l-0.6,0.3
		c-1.4,0.9-2.8,1.8-4.1,2.7C261,401.3,258,405.7,257.8,407.2L257.8,407.2z M295.9,394l-12.4,10.4c2.7-0.8,5-1.4,7-1.9
		c3.6-0.9,7.3-1.3,11-1.3c0.6,0,1.1,0,1.7,0c-1.1-1.7-2.4-3.2-3.9-4.5C298.7,396.3,297.5,395.2,295.9,394z"/>
</g>
<g id="freepik--character-1--inject-2">
	<g id="freepik--Character--inject-2">
		<g id="freepik--Bottom--inject-2">
			<g id="freepik--bottom--inject-2">
				<polygon class="st6" points="104.2,382 107.4,380.4 104.2,379.5 				"/>
				<path class="st6" d="M136.5,387.4c0,0-38.6-16.6-39-14c-0.1,0.5-0.1,1,0,1.5l-0.1-0.1l0.8,4.8c1.7,1.4,3.8,2.2,6,2.4v-2.5
					c1.2,0.5,2.3,1,3.4,1.7c2.5,1.6,4.1,4.4,6.8,7.6c1.9,2.4,5.3,3.4,10.4,4.1c5.4,0.7,10.2-0.4,11.5-1.9
					C137.3,389.9,136.7,387.8,136.5,387.4z"/>
				<path class="st7" d="M135.4,386.6c-0.4-0.4-1.8-1.9-3.6-3.5c-1.8-1.6-3.7-3.2-5.6-4.6c-1-0.7-1.9-1.4-2.8-2.2
					c-0.7-0.7-1.3-1.4-1.9-2.2c-1.9-2.4-3.5-5-4.8-7.7c-0.6-1.3-1.8-4.1-1.5-9.5c0.3-8.1,1-11,0.9-16.2l-18.2,2.8
					c0.6,2.9,1.2,9.4,1.6,12.6c0.5,5,1.2,5.5-0.6,10.5c-0.6,1.5-1.4,2.9-1.4,4.5c-0.1,2.6,2,4.8,4.3,6c1.9,1,4.1,1.4,5.9,2.5
					c1.9,1.2,3.5,2.8,4.8,4.6c1.3,1.6,2.4,3.5,4.2,4.7c1.9,1.1,4.1,1.8,6.3,2c2.8,0.4,5.6,0.5,8.4,0.3
					C135.2,390.8,138.2,389.3,135.4,386.6z"/>
				<path class="st8" d="M133.2,383.8c-1.7-1.4-4.1-3.3-6.9-5.5c-2-0.7-4.1-0.4-5.9,0.6c-5.7,3.1-6.6,7.3-6.6,7.3
					c1,1.9,2.7,3.3,4.7,4c6.6,2.8,18.4,1.7,18.5-1.4C137,387,135.2,385.4,133.2,383.8z M99.1,365.5c0,0-0.4,1-1.3,3
					c-1.1,1.8-1,4.1,0.2,5.8c1.3,2,3.4,3.4,5.8,3.8C105.5,372.3,101.4,366.7,99.1,365.5z"/>
				<path class="st6" d="M66,380.2c0,2.1-0.5,8.2-0.3,12.9c0.2,4.2,0.9,10.8-0.3,15.7s-5.5,10.2-11.2,5.5c-3.6-2.9-5-6.4-5.3-12.5
					c-0.3-4.2,1.5-10,3.1-15.1c1.8-6,2.5-9.2,2.5-9.2L66,380.2z"/>
				<path class="st7" d="M54.6,349c-0.6,9.8,0.4,16.7,0.3,23c-0.1,2.9-0.4,5.7-1.1,8.5c-0.9,4-2.4,9.5-3.1,12.1
					c-0.9,3.6-1.6,5.9-0.4,10c0.1,0.3,0.2,0.6,0.4,0.9c1.7,3.4,6.2,6,7.6,5.6c0.6,0.8,1.6,1.1,2.6,0.9c0.2,0,0.3-0.1,0.5-0.1
					c0.2-0.1,0.3-0.1,0.5-0.2c1.2-0.6,2.1-1.7,2.5-3c0.1-0.3,0.2-0.6,0.2-0.9c1.2-5,0.5-8.3,0.4-10.3c-0.1-2.3,0.1-5.2,0.4-8.9
					s1.4-15.2,2.8-20.7c1-3.8,2.3-8.6,3.7-13.8L54.6,349z"/>
				<path class="st8" d="M49.8,397.3c3.6-1.5,13.9-1.5,15.4,3.5c0,4.7-0.1,7.8-3.2,11.8c-4.1,5.3-9.1-0.5-11-4.2
					S49.3,399.8,49.8,397.3z"/>
				<path class="st8" d="M71.8,210.9c-5.2,8.8-12.2,21-12.8,40.9c-0.9,26.5-1.4,45.6-1.6,48.7s-2.4,9-4.5,24.7s0.2,45.8,0.2,45.8
					s1.8,3.6,7.9,4.3c5.6,0.6,8.2-2,8.2-2s8.9-42.1,11.3-51.5S91,271.2,91,271.2l3,25.4c0,0-2,8.6-0.6,22.5s5.8,40.6,5.8,40.6
					s2.5,2.7,8.5,2.4c3,0,6-1.1,8.2-3.2c0,0,5.2-52.8,5.7-68.5s0-56.3-4.4-79.6L71.8,210.9z"/>
				<path class="st6" d="M95.8,246.1L91,271.2l3,25.4l0.1-24.1l4.8-23.9c3.8-0.8,13.7-7.4,14.6-13.8
					C108.1,243.1,95.8,246.1,95.8,246.1z M67.2,340.4c-1.6,8.1-3.1,16.3-4.5,24.5c2-8.1,3.9-16.1,5.8-24.2
					c1.8-8.1,3.6-16.2,5.3-24.3s3.7-26.6,4.6-34.9s1.7-16.5,2.3-24.8c-1.3,8.2-2.4,16.4-3.6,24.6s-3.3,26.6-5,34.7
					S68.8,332.2,67.2,340.4z M114.2,281.6c0.1,3.6,0.2,7.2,0,10.8s-0.5,7.2-0.8,10.8l-0.8,10.8c-0.6,7.2-1.1,14.4-1.5,21.6
					c1.1-7.2,2-14.3,2.8-21.5c0.8-7.2,1.6-14.4,2-21.6c0.2-7.3-0.3-14.5-0.7-21.7s-1.2-14.4-2.1-21.6l0.8,21.7
					C114,274.4,114.1,278,114.2,281.6z"/>
			</g>
		</g>
		<g id="freepik--Top--inject-2">
			<g id="freepik--Arm--inject-2">
				<path class="st7" d="M158.9,185.4c-4.1,3.4-9.9,8.3-15,11.2c-6.1,3.5-8.1,3.2-12.6,0.4c-8.5-5.2-19.2-13.6-22.9-17.3
					s-3.2-15.9-3.1-20.8c8.1,0.9,11.6,4.6,17.7,10.1s14.1,12.5,14.1,12.5s16.1-7.4,21.4-12c0.8-0.8,1.3-1.9,1.5-3
					c0.2-1.9,0.7-3.7,1.3-5.5c0.8-1.8,1.6-3.4,2.3-5.2c0.1-0.4,0.3-0.7,0.5-1c0.2-0.2,0.4-0.3,0.7-0.3c0.2,0,0.4,0.1,0.5,0.2
					c1.3,1,1.1,2.6,0.8,4.1c-0.1,0.6-0.7,2-0.4,2.6s1.4,0.2,1.8-0.2c0.5-0.4,1-0.8,1.4-1.3c1.7-1.9,3.1-5.6,4.6-7.6
					c0.3-0.5,0.8-0.9,1.3-1.1c0.5-0.3,1.1-0.2,1.6,0.1c0.2,0.1,0.3,0.3,0.6,0.3c0.2,0,0.4-0.1,0.5-0.2c0.8-0.5,1.9-0.3,2.4,0.5
					c0.2,0.3,0.3,0.6,0.3,0.9c0,0.3,0,0.5,0,0.8c0.1,0.3,0.3,0.5,0.6,0.7c0.4,0.5,0.7,1.1,0.7,1.7c0,0.4-0.2,1.3,0.1,1.6
					c0.9,1.2,0.9,2.8,0.1,4c-1.4,2.8-3,5.4-4.8,7.9c-2.7,3.5-6.3,6.1-10.6,9.6C164.7,180.3,161,183.6,158.9,185.4z"/>
				<path class="st3" d="M105.1,158.4c5.6,0.2,9,2.1,11.3,4.1s8.1,7.2,8.1,7.2c-4.1,5.6-10.4,9.2-17.3,9.8c0,0-2.4-3.5-2.8-10.5
					S105.1,158.4,105.1,158.4z"/>
				<path class="st9" d="M175.8,163.1l1.5-2.4c0.5-0.8,1.1-1.6,1.7-2.4c0.4-0.5,1-0.9,1.7-0.9c0.1,0,0.1,0.1,0,0.2
					c-0.8,0.2-1.4,0.8-1.8,1.5c-0.4,0.8-0.9,1.6-1.4,2.3c-0.9,1.5-1.9,3-3.1,4.4c0,0-0.1-0.1-0.1-0.1
					C174.8,164.8,175.3,163.9,175.8,163.1z"/>
				<path class="st9" d="M176.1,157.3c0.5-0.8,1-1.5,1.5-2.2c0.5-0.6,1.3-1.6,2.2-1.4c0,0,0,0,0,0.1c-0.3,0.1-0.5,0.2-0.8,0.4
					c-0.3,0.2-0.6,0.4-0.8,0.7c-0.9,1-1.6,2.2-2.2,3.4c-0.9,1.7-2,3.3-3.2,4.8c0,0,0,0,0-0.1s0.1-0.2,0.2-0.4
					c0.8-1.5,1.7-2.9,2.5-4.3L176.1,157.3z"/>
				<path class="st9" d="M170.3,162c0.9-1.8,1.8-3.6,2.9-5.3c0.5-0.9,1-1.8,1.6-2.6c0.6-0.8,1.3-1.6,2-2.3c0.1-0.1,0.1,0.1,0.1,0.2
					c-1.2,1.6-2.3,3.3-3.3,5c-0.9,1.7-2,3.4-3.1,5C170.4,162.2,170.3,162.1,170.3,162z"/>
				<path class="st9" d="M166.9,170.9c-0.1-0.3,0.3-0.7,0.4-1c0.3-0.6,0.4-1.3,0.4-2c-0.1-1.1-0.3-2.3-0.9-3.3c0,0,0-0.1,0-0.1
					c0.3,0.2,0.6,0.5,0.8,0.8c0.2,0.3,0.4,0.7,0.6,1.1c0.3,1.1,0.2,2.3-0.3,3.3C167.8,170,167.4,170.7,166.9,170.9z"/>
			</g>
			<path id="freepik--Chest--inject-2" class="st10" d="M66,221.2c-3.2-3.8,2.5-7.3,1-17.3c-0.7-5-3.5-15.4-3.5-15.4
				s7.8-6.2,5.1-25.4l17.8-5.6l18.8,0.9c4.1,3.6,7.8,7.6,11.1,12c5.2,7.4,6.1,15.6,0.8,21.7c-0.6,4-0.8,8.1-0.7,12.2
				c0.3,4,1.1,8,2.3,11.8c0.5,1.8,1.3,4.2,0.1,6.6C113.6,231,83.3,239.7,66,221.2z"/>
			<g id="freepik--Head--inject-2">
				<path class="st8" d="M79.6,149.9c-1.1-2.9-3.1-4.5-4.6-5.9c-3.6-3.5-6.2-6-8-12c-1.2-3.9-0.2-11.5,4.5-13.9
					c1-6.9,6.3-10.4,15-10.1c3.4,0.3,6.8,0.8,10.1,1.6c1.5,0.4,3,0.6,4.5,0.7c1.5,0.1,3.1-0.2,4.5-0.9c0.8-0.3,1.7-0.8,2.3-0.4
					c0.3,0.3,0.5,0.7,0.5,1.2c0,1.9-0.9,3.7-2.5,4.7c4.2-0.8,5.4,3.1,5.2,4.7c-0.2,1.4-1,2.7-2.3,3.3c1.2,1.2,1.4,3,0.6,4.4
					c-0.9,1.3-2.2,2.3-3.6,2.8c-4.3,2.3-8,5.6-11.8,8.6C90.4,141.7,79.6,149.7,79.6,149.9z"/>
				<path class="st7" d="M99.1,116c4.2,1.8,7.3,3.4,8.8,19.1c1.1,11.2-2.9,15.2-4.8,16.1c-2.6,1.3-3.9,1.9-6.9,1.8l0.3,5.7
					c3.3,3.5,5.5,8,6.1,12.8c-15.4-2-23.3-10.6-23.3-10.6l-0.7-17.6c-0.2,0.8-2.8,2.5-5.2,0.8c-4-2.8-4-7.7-2.1-9.8
					c1.5-1.9,4.2-2.2,6.1-0.7c0.4,0.3,0.8,0.7,1.1,1.2c0,0-1.8-10.6,4.5-15.4C90.2,113.7,94.2,113.9,99.1,116z"/>
				<path class="st11" d="M92.9,142.2c-0.5,1.4,0.3,3,1.8,3.5c1.5,0.3,2.9-0.5,3.3-2L92.9,142.2z"/>
				<path class="st12" d="M94.6,145.7c-0.9-0.3-1.5-1-1.8-1.8c1.4-0.1,2.7,0.5,3.4,1.7C95.8,145.8,95.2,145.8,94.6,145.7z"/>
				<polygon class="st9" points="95.9,129.8 97.8,140.4 103.1,138.1 				"/>
				<path class="st9" d="M96.2,153c-9-1.1-12.8-2.9-16-8.1c0.4,1.9,1.3,3.7,2.7,5.2c4.2,4.2,13.4,4.8,13.4,4.8L96.2,153z"/>
				<path class="st6" d="M92.3,128.1l-3.8,2.3c-0.6-1.1-0.1-2.4,0.9-3C90.4,126.9,91.6,127.2,92.3,128.1z"/>
				<path class="st6" d="M104.9,128.3l-4-1.5c0.5-1.1,1.7-1.6,2.8-1.2c1.1,0.4,1.6,1.6,1.2,2.7C104.9,128.2,104.9,128.2,104.9,128.3
					z"/>
				<path class="st6" d="M101.2,131.7c-0.1,0.9,0.6,1.6,1.5,1.7c0.9,0.1,1.6-0.6,1.7-1.5c0.1-0.9-0.6-1.6-1.4-1.7
					C102,130.2,101.3,130.9,101.2,131.7z"/>
				<path class="st6" d="M90.1,133c-0.1,0.9,0.6,1.6,1.5,1.7c0.9,0.1,1.6-0.6,1.7-1.5c0.1-0.9-0.6-1.6-1.4-1.7
					C90.9,131.5,90.1,132.1,90.1,133z"/>
				<path class="st8" d="M95.2,120.8c-1.8,0.4-4.1-2.4-7.5-0.3c-3,1.8-1.8,4.2-4.6,7.5c-1.9,2.2,0,6.6-2.3,7.8c-1,0.5-2.4-1-2.4-1
					s-2-2.7-1.6-9.3c0.4-6.6,9.5-11.5,16.1-12.2s12.6,3.3,12.6,9.1c0,0-1.7-3.9-4.8-4.2S96.9,120.5,95.2,120.8z"/>
			</g>
			<g id="freepik--arm--inject-2">
				<path class="st7" d="M140.2,231.7c-1-0.7-2.1-1.2-3.3-1.5c0,0,2.5,0.4,2.6-0.7s-0.4-1.8-2.3-2.5c-2.3-0.6-4.5-1.4-6.7-2.5
					c-0.9-0.4-1.8-1-2.6-1.5c-1-0.5-1.9-1-2.8-1.6c-0.2-0.1-0.3-0.3-0.3-0.5c0.1-0.6,2.3-0.4,2.7-0.4c1.1,0,2.1-0.3,3-0.9
					c0.4-0.2,0.7-0.6,0.9-1c0.2-0.4,0.3-0.9,0.2-1.3c-0.2-1-1.7-0.9-2.6-0.9c-3.6,0.1-6.8-0.8-10.3,0.4c-1.1,0.4-3,0.9-4.1,0.4
					c-6.5-2.8-24.7-14.6-28.8-17.7c0,0-3.4-12.7-6.3-21.5c-3.5-10.6-7-13.9-10.9-14.6c-8.7,3.7-9.4,9.4-6.6,21.6
					c1.5,6.7,4.4,14.8,7.4,23.1c1.3,3.6,2.7,5.2,8.3,7.9c9.2,4.4,19,7.9,28.4,11.7c2.7,1,5.2,2.3,7.5,3.9c5.4,3.7,11.8,5.8,18.3,6.1
					c3.7,0.1,3.4-1.4,3.4-1.4c2.3,0.4,3.3-1.2,3.3-1.9c0.5,0,0.9,0,1.4-0.1C141.5,234.2,141.2,232.7,140.2,231.7z"/>
				<path class="st9" d="M127,227.5c3,1.7,6.4,2.6,9.9,2.8C133.5,229.5,130.2,228.6,127,227.5z M124.4,230.8
					c4.3,2.8,9.6,3.6,14.7,3.8C134.1,233.8,129,233,124.4,230.8L124.4,230.8z M135.8,236.5c-3.9-0.3-7.7-1.1-11.4-2.4
					C127.9,235.9,131.8,236.8,135.8,236.5L135.8,236.5z"/>
				<path class="st3" d="M68.6,163c-6.7,3.1-8.4,7-8.2,12.3s0,8.8,0,8.8s1.3,3.3,8,4.9c5,1,10.1,0.7,14.9-0.8c0,0-1.8-6.9-4.2-13.1
					S74.6,164.5,68.6,163z"/>
			</g>
		</g>
	</g>
</g>
<g id="freepik--Clipboard--inject-2">
	<g id="freepik--clip-board--inject-2">
		<g id="freepik--Board--inject-2">
			<path class="st5" d="M153.1,419.8l-3.4-2c-1.2-0.7-1.9-2-2-3.4v-278c0.1-1.4,0.8-2.6,2-3.4l157-90.6c1.2-0.6,2.7-0.6,3.9,0l3.4,2
				c1.2,0.7,1.9,2,2,3.4v278c-0.1,1.4-0.8,2.6-2,3.4l-157,90.7C155.8,420.4,154.3,420.4,153.1,419.8z"/>
			<path class="st13" d="M153.1,419.8l-3.4-2c-1.2-0.7-1.9-2-2-3.4v-278c0.1-1.4,0.8-2.6,2-3.4l157-90.6c1.2-0.6,2.7-0.6,3.9,0
				l3.4,2c1.2,0.7,1.9,2,2,3.4v278c-0.1,1.4-0.8,2.6-2,3.4l-157,90.7C155.8,420.4,154.3,420.4,153.1,419.8z"/>
			<path class="st14" d="M315.9,47.4c-0.1-1-1-1.4-1.9-0.8l-157,90.6c-0.6,0.4-1,0.9-1.4,1.4l-7.3-4.2c0.3-0.6,0.8-1.1,1.4-1.4
				l157-90.6c1.2-0.6,2.7-0.6,3.9,0l3.4,2C315,45.1,315.7,46.2,315.9,47.4z"/>
			<path class="st15" d="M156.6,419.9c0,0-0.1,0-0.1,0l-0.2,0.1h-0.1c-0.1,0-0.2,0.1-0.4,0.1l0,0c-0.8,0.1-1.6,0.1-2.3-0.2
				c-0.2-0.1-0.3-0.1-0.4-0.2l-3.4-2c-1.1-0.8-1.9-2-1.9-3.4v-278c0-0.7,0.2-1.3,0.6-1.9l7.3,4.2c-0.4,0.6-0.6,1.2-0.6,1.9v278
				c0,0.4,0.1,0.7,0.3,1c0.2,0.3,0.6,0.4,1,0.3L156.6,419.9z"/>
		</g>
		<g id="freepik--Clip--inject-2">
			<path class="st16" d="M257.2,90.3l-0.2-0.1l-2.6-1.5c-0.9-0.5-2-0.8-3-1c-0.4-0.1-0.8-0.2-1.2-0.3c-0.4-0.1-0.8-0.3-1.1-0.5
				l0.2-0.2l0,0l-2.9-1.7l0,0c-0.2-0.1-0.5-0.2-0.8-0.3c-1.1-0.3-2.7,0.4-4.3,0.2c-1.2-0.1-2.3-0.7-3-1.8c-1-1.3-1.6-3.7-2.5-5.6
				l0.8-1.1c-0.1-0.1-0.2-0.1-0.2-0.1l-2.6-1.5c-0.4-0.3-1-0.4-1.5-0.4c-1,0.1-1.9,0.4-2.8,0.9c-6.3,3.7-6.6,12.4-8.8,18.1
				s-5.5,7.5-7.3,10s-1.9,4.3-5.8,9.7s-4.1,6.7-4.1,7.7v8l2.9,1.7l51.9-30L257.2,90.3z M209.6,121.2c-0.7,0.4-1.2-0.1-1.2-1.2
				c0-1,0.4-2,1.2-2.6c0.7-0.4,1.2,0.1,1.2,1.2C210.8,119.6,210.4,120.5,209.6,121.2L209.6,121.2z M232.4,98.7
				c-1.2,0.9-2.8,0.6-3.6-0.6c-0.1-0.2-0.3-0.4-0.4-0.7c-2,0.4-3.5-1.6-3.5-4.9c0-3.9,2.1-8.3,4.6-9.8c1.2-0.9,2.8-0.6,3.6,0.5
				c0.2,0.2,0.3,0.4,0.4,0.7c2-0.4,3.5,1.5,3.5,4.9C237,92.8,234.9,97.2,232.4,98.7L232.4,98.7z M249.6,98c-0.7,0.4-1.2-0.1-1.2-1.2
				c0-1,0.4-2,1.2-2.6c0.7-0.4,1.2,0.1,1.2,1.2C250.9,96.4,250.4,97.4,249.6,98z"/>
			<path class="st17" d="M209.3,122.6l-5.6-3.2c-0.1,0.4-0.2,0.8-0.2,1.2v8l2.9,1.7l2.9-1.7L209.3,122.6z"/>
			<path class="st17" d="M215.1,112.6l2.9-6.7l-4.6-2.7l0,0c-1.3,1.9-1.7,3.4-3.5,6.3L215.1,112.6z"/>
			<path class="st17" d="M226.6,99.3l0.4-1.9c-1.3-0.5-2.1-2.2-2.1-4.8c0-3.3,1.3-6.5,3.5-8.9l-4-2.3c-1.7,3.9-2.3,8.5-3.7,11.9
				c-0.3,0.7-0.6,1.4-0.9,2L226.6,99.3z"/>
			<path class="st8" d="M257.2,90.3l-0.2-0.1c-0.9-0.4-1.7-0.7-2.7-0.9c-1.5-0.3-2.9-1-4.1-2c-0.3-0.3-0.6-0.5-0.9-0.7
				c-0.2-0.1-0.5-0.2-0.8-0.3c-1.8-0.4-4.9,1.5-7.2-1.5l-0.1-0.1c-1.6-2.2-2.2-7-4.6-8.4c-0.1-0.1-0.2-0.1-0.2-0.1
				c-1-0.5-2.3-0.4-4,0.6c-6.4,3.7-6.6,12.4-8.8,18.1s-5.5,7.5-7.3,10s-1.9,4.3-5.8,9.7s-4.1,6.7-4.1,7.7v8l51.9-30v-8
				C258.4,91.4,257.9,90.6,257.2,90.3z M212.5,122.8c-0.7,0.4-1.2-0.1-1.2-1.2c0-1,0.4-2,1.2-2.6c0.7-0.4,1.2,0.1,1.2,1.2
				C213.7,121.2,213.3,122.2,212.5,122.8L212.5,122.8z M232.4,98.7c-1.2,0.9-2.8,0.6-3.6-0.6c-0.1-0.2-0.3-0.4-0.4-0.7
				c-0.5-1-0.7-2.1-0.6-3.2c0-3.9,2.1-8.3,4.6-9.8c0.3-0.2,0.7-0.4,1.1-0.4c2-0.4,3.5,1.5,3.5,4.9C237,92.8,234.9,97.2,232.4,98.7
				L232.4,98.7z M252.5,99.7c-0.7,0.4-1.2-0.1-1.2-1.2c0-1,0.4-2,1.2-2.6c0.7-0.4,1.2,0.1,1.2,1.2C253.7,98.1,253.3,99.1,252.5,99.7
				L252.5,99.7z"/>
			<path class="st6" d="M237,88.9c0,3.9-2.1,8.3-4.6,9.8c-1.2,0.9-2.8,0.6-3.6-0.6c-0.1-0.2-0.3-0.4-0.4-0.7
				c0.4-0.1,0.8-0.2,1.1-0.4c2.6-1.5,4.6-5.9,4.6-9.8c0-1.1-0.2-2.2-0.6-3.2C235.5,83.6,237,85.6,237,88.9z"/>
			<path class="st6" d="M212.5,122.8c-0.7,0.4-1.2-0.1-1.2-1.2c0-1,0.4-2,1.2-2.6c0.7-0.4,1.2,0.1,1.2,1.2
				C213.7,121.2,213.3,122.2,212.5,122.8"/>
			<path class="st6" d="M252.5,99.7c-0.7,0.4-1.2-0.1-1.2-1.2c0-1,0.4-2,1.2-2.6c0.7-0.4,1.2,0.1,1.2,1.2
				C253.7,98.1,253.3,99.1,252.5,99.7"/>
		</g>
		<g id="freepik--Papet--inject-2">
			<path class="st0" d="M167.2,153.7l136.6-78.9c0.7-0.4,1.6-0.4,2.3,0l1.3,0.8c0.7,0.4,1.1,1.2,1.2,2v240.6c-0.1,0.8-0.5,1.6-1.2,2
				l-136.6,78.9c-0.7,0.4-1.6,0.4-2.3,0l-1.3-0.8c-0.7-0.4-1.1-1.2-1.2-2V155.7C166.1,154.9,166.5,154.1,167.2,153.7z"/>
			<path class="st4" d="M170.6,399.2c-0.1,0.1-0.3,0.1-0.4,0.1h-0.2c-0.2,0-0.5,0-0.7,0c-0.1,0-0.3-0.1-0.4-0.1l-0.3-0.1l-1.3-0.8
				c-0.7-0.4-1.1-1.2-1.2-2V155.7c0-0.4,0.1-0.8,0.4-1.1l3.6,2.1c-0.2,0.3-0.3,0.7-0.3,1.1v240.6
				C169.7,399.1,170.1,399.4,170.6,399.2z"/>
			<path class="st5" d="M307.5,75.6l-1.3-0.8c-0.7-0.4-1.6-0.4-2.3,0l-136.6,78.9c-0.7,0.4-1.1,1.2-1.2,2v39l3.7,2.1l139-80.2v-39
				C308.6,76.7,308.2,76,307.5,75.6z"/>
			<path class="st18" d="M307.5,75.6l-1.3-0.8c-0.7-0.4-1.6-0.4-2.3,0l-136.6,78.9c-0.7,0.4-1.1,1.2-1.2,2v39l3.7,2.1l139-80.2v-39
				C308.6,76.7,308.2,76,307.5,75.6z"/>
			<path class="st5" d="M308.6,77.2c-0.1-0.5-0.6-0.6-1.1-0.3l-136.6,78.9c-0.3,0.2-0.6,0.5-0.8,0.9l-3.6-2.1
				c0.2-0.4,0.5-0.7,0.8-0.9l136.6-78.9c0.7-0.4,1.6-0.4,2.3,0l1.3,0.8C308.1,75.9,308.5,76.5,308.6,77.2z"/>
			<path class="st19" d="M308.6,77.2c-0.1-0.5-0.6-0.6-1.1-0.3l-136.6,78.9c-0.3,0.2-0.6,0.5-0.8,0.9l-3.6-2.1
				c0.2-0.4,0.5-0.7,0.8-0.9l136.6-78.9c0.7-0.4,1.6-0.4,2.3,0l1.3,0.8C308.1,75.9,308.5,76.5,308.6,77.2z"/>
			<path class="st5" d="M166,155.7v39l3.7,2.1v-39c0-0.4,0.1-0.8,0.3-1.2l-3.6-2.1C166.1,154.9,166,155.3,166,155.7z"/>
		</g>
		<g id="freepik--clip--inject-2">
			<path class="st16" d="M266.5,104.4l-2.9-1.7c-0.9-0.4-2-0.4-2.9,0.1c-3.4,1.5-4.8,2.2-6.5,2.9c-0.4,0.2-0.8,0.3-1.2,0.5
				c-0.7,0.3-2,0.1-1.6-2.3l3.8-8.3h-0.1l-2.8-1.6c-0.1-0.1-0.3-0.1-0.5-0.2c-0.1,0-0.2,0-0.3,0c-1.8,0-2.3-11.8-2.4-12.2l0,0
				l-0.1-0.1l-2.8-1.6c-0.5-0.3-1-0.4-1.6-0.4c-0.9,0-1.8,0.3-2.6,0.8c-4.4,2.3-8.8,9.1-9.9,15.2c-0.7,3.9-4.6,9.8-6.8,12
				s-2.4,4-2.4,4l-1,6.2l-0.6,3.2c-0.4,2.4-2.8,4.7-2.8,4.7l-9,6.8c-5.7,4.7-7.3,9.4-8.4,15.3l0,0c0,0.2,0,0.4,0.1,0.4
				c0,0,0.1,0,0.1,0l0,0l1.2-0.7l62.2-35.9c0.3-0.2,0.5-0.5,0.6-0.9l0,0l0,0c0.4-2.2,1.4-6.2,1.4-6.2L266.5,104.4z M247.8,89.9
				c-0.7,3.8-3.4,8-6.1,9.4c-1.9,1-3.2,0.4-3.7-1.3c-0.7,0.3-1.4,0.2-2-0.3c-0.9-0.7,7.1-14.3,7.7-14c0.6,0.3,1.1,0.9,1.2,1.6
				C247.2,84.7,248.4,86.6,247.8,89.9z"/>
			<path class="st17" d="M210,138.9l-4.5-2.6c-2.6,3.5-3.7,7.1-4.5,11.3l0,0c0,0.2,0,0.4,0.1,0.4c0,0,0.1,0,0.1,0l0,0l3.6-2.8
				L210,138.9z"/>
			<path class="st17" d="M220.9,121.9l6.4,3.7l2.2-13l-5.8-3.3c-0.5,0.7-0.8,1.4-0.9,2.2l-1,6.2l-0.6,3.2
				C221.2,121.2,221.1,121.5,220.9,121.9z"/>
			<path class="st17" d="M235.1,87.5c-1.5,2.5-2.5,5.2-3,8c-0.5,2-1.2,3.9-2.3,5.6l5.5,3.2L238,98c-0.7,0.3-1.4,0.1-2-0.3
				c-0.4-0.3,1.4-4.1,3.4-7.7L235.1,87.5z"/>
			<path class="st8" d="M266.5,104.4L266.5,104.4c-1-0.4-2-0.4-2.9,0.1c-4.1,1.8-5.4,2.4-7.8,3.4c-0.7,0.3-2,0.1-1.6-2.2
				c0,0,0-0.1,0-0.2l0.6-3.2l0.9-4.9c0,0,0.4-1.3-0.6-1.9H255c-0.2-0.1-0.5-0.2-0.7-0.2c-1.1-0.1-2-0.7-2.6-1.6
				c-1-1.4-1.3-3.2-1-4.9c0.6-3.7-0.1-6.3-1.7-7.3l-0.1-0.1c-1.1-0.6-2.5-0.5-4.1,0.4c-4.4,2.3-8.8,9.1-9.9,15.2
				c-0.7,3.9-4.6,9.8-6.8,12s-2.4,4-2.4,4l-1,6.2l-0.6,3.2c-0.4,2.4-2.8,4.7-2.8,4.7l-9,6.8c-3.6,2.9-6.2,6.8-7.4,11.3
				c0,0-3.4,2.6-3.6,2.8l0,0l0,0l0,0l1.2-0.7l62.4-35.8c0,0,0.7-0.4,0.9-0.5s2.7-2.5,2.7-2.5C268.2,106.5,267.6,105.1,266.5,104.4z
				 M247.8,89.9c-0.7,3.8-3.4,8-6.1,9.4c-1.9,1-3.2,0.4-3.7-1.3c-0.2-1-0.2-2,0-2.9c0.7-3.8,3.4-8,6.1-9.4c0.2-0.1,0.5-0.2,0.8-0.3
				C247.2,84.7,248.4,86.6,247.8,89.9L247.8,89.9z"/>
			<path class="st6" d="M247.8,89.9c-0.7,3.8-3.4,8-6.1,9.4c-1.9,1-3.2,0.4-3.7-1.3c0.3-0.1,0.5-0.2,0.8-0.3
				c2.7-1.4,5.4-5.6,6.1-9.4c0.2-1,0.2-2,0-2.9C247.2,84.7,248.4,86.6,247.8,89.9z"/>
			<path class="st6" d="M245.2,85.5L245.2,85.5c0.5,0,1,0.2,1.3,0.6c1.1,1.6,0,5.6-0.4,6.9c-0.6,1.8-4.8,6-6,6
				c-0.8-0.1-1.5-0.6-1.9-1.2c-0.2-0.9-0.2-1.9,0-2.8c0.7-3.7,3.4-7.9,6-9.2c0.2-0.1,0.5-0.2,0.7-0.3L245.2,85.5 M245.2,85.3h-0.3
				c-0.3,0.1-0.5,0.2-0.8,0.3c-2.7,1.4-5.4,5.6-6.1,9.4c-0.2,1-0.2,2,0,2.9c0.5,0.7,1.2,1.2,2,1.3l0,0c1.2,0,5.4-4.3,6.1-6.1
				S248.3,85.3,245.2,85.3L245.2,85.3z"/>
			<path class="st6" d="M201.2,148l63.5-36.5l0.9-0.5c0.2-0.1,2.7-2.5,2.7-2.5l-63.5,36.7C204.8,145.2,201,148.2,201.2,148z"/>
		</g>
		<path class="st16" d="M279.2,230.3c-0.1,0-0.2,0-0.3-0.1c-0.2-0.1-0.3-0.3-0.3-0.5v-17.6c0-0.2,0.1-0.4,0.3-0.5l15.2-8.8
			c0.2-0.1,0.4-0.1,0.5,0c0.2,0.1,0.3,0.3,0.3,0.5V221c0,0.2-0.1,0.4-0.3,0.5l-15.2,8.8C279.4,230.3,279.3,230.3,279.2,230.3z
			 M279.8,212.4v16.4l14.1-8.1v-16.4L279.8,212.4z"/>
		<path class="st4" d="M178.7,269v1.2c0,0.7,0.5,0.9,1,0.6l51.4-29.7c0.6-0.4,1-1.1,1-1.8v-1.2c0-0.7-0.5-0.9-1-0.6l-51.4,29.7
			C179.1,267.6,178.7,268.3,178.7,269z"/>
		<path class="st4" d="M178.7,276.7v1.2c0,0.7,0.5,0.9,1,0.6l90.9-52.5c0.6-0.4,1-1.1,1-1.8V223c0-0.7-0.5-0.9-1-0.6l-90.9,52.5
			C179.1,275.3,178.7,275.9,178.7,276.7z"/>
		<path class="st4" d="M178.7,284v1.2c0,0.7,0.5,0.9,1,0.6l90.9-52.5c0.6-0.4,1-1.1,1-1.8v-1.2c0-0.7-0.5-0.9-1-0.6l-90.9,52.5
			C179.1,282.6,178.7,283.3,178.7,284z"/>
		<polygon class="st5" points="286.6,222 283.1,218.6 284.3,216.1 286.3,218 295,199.6 296.5,201.1 		"/>
		<path class="st16" d="M279.2,260.2c-0.1,0-0.2,0-0.3-0.1c-0.2-0.1-0.3-0.3-0.3-0.5v-17.6c0-0.2,0.1-0.4,0.3-0.5l15.2-8.8
			c0.2-0.1,0.4-0.1,0.5,0c0.2,0.1,0.3,0.3,0.3,0.5v17.6c0,0.2-0.1,0.4-0.3,0.5l-15.2,8.8C279.4,260.2,279.3,260.2,279.2,260.2z
			 M279.8,242.4v16.4l14.1-8.2v-16.4L279.8,242.4z"/>
		<path class="st4" d="M178.7,299v1.2c0,0.7,0.5,0.9,1,0.6l51.4-29.7c0.6-0.4,1-1.1,1-1.8v-1.2c0-0.7-0.5-0.9-1-0.6l-51.4,29.7
			C179.1,297.6,178.7,298.3,178.7,299z"/>
		<path class="st4" d="M178.7,306.7v1.2c0,0.7,0.5,0.9,1,0.6l90.9-52.5c0.6-0.4,1-1.1,1-1.8V253c0-0.7-0.5-0.9-1-0.6l-90.9,52.5
			C179.1,305.3,178.7,305.9,178.7,306.7z"/>
		<path class="st4" d="M178.7,314v1.2c0,0.7,0.5,0.9,1,0.6l90.9-52.5c0.6-0.4,1-1.1,1-1.8v-1.3c0-0.7-0.5-0.9-1-0.6l-90.9,52.5
			C179.1,312.6,178.7,313.3,178.7,314z"/>
		<path class="st4" d="M178.7,238.2v1.2c0,0.7,0.5,0.9,1,0.6l116.5-67.3c0.6-0.4,1-1.1,1-1.8v-1.2c0-0.7-0.5-0.9-1-0.6l-116.4,67.3
			C179.1,236.8,178.7,237.5,178.7,238.2z"/>
		<path class="st4" d="M178.7,246v1.2c0,0.7,0.5,0.9,1,0.6l116.5-67.3c0.6-0.4,1-1.1,1-1.8v-1.2c0-0.7-0.5-0.9-1-0.6l-116.4,67.2
			C179.1,244.6,178.7,245.3,178.7,246z"/>
		<path class="st4" d="M178.7,253.8v1.2c0,0.7,0.5,0.9,1,0.6l116.5-67.3c0.6-0.4,1-1.1,1-1.8v-1.2c0-0.7-0.5-0.9-1-0.6L179.7,252
			C179.1,252.4,178.7,253,178.7,253.8z"/>
		<path class="st4" d="M178.7,328.1v1.2c0,0.7,0.5,0.9,1,0.6l116.5-67.3c0.6-0.4,1-1.1,1-1.8v-1.2c0-0.7-0.5-0.9-1-0.6l-116.4,67.3
			C179.1,326.7,178.7,327.4,178.7,328.1z"/>
		<path class="st4" d="M178.7,335.9v1.2c0,0.7,0.5,0.9,1,0.6l116.5-67.3c0.6-0.4,1-1.1,1-1.8v-1.2c0-0.7-0.5-0.9-1-0.6l-116.4,67.3
			C179.1,334.5,178.7,335.1,178.7,335.9z"/>
		<path class="st4" d="M178.7,343.6v1.2c0,0.7,0.5,0.9,1,0.6l116.5-67.3c0.6-0.4,1-1.1,1-1.8v-1.2c0-0.7-0.5-0.9-1-0.6l-116.4,67.3
			C179.1,342.2,178.7,342.9,178.7,343.6z"/>
		<path class="st1" d="M181,172.1l48.8-28.2c0.7-0.4,1.3-0.1,1.3,0.7v0.4c-0.1,0.9-0.5,1.7-1.3,2.2L181,175.4
			c-0.7,0.4-1.3,0.1-1.3-0.7v-0.4C179.8,173.4,180.3,172.6,181,172.1z"/>
		<path class="st1" d="M181,178.7l29-16.7c0.7-0.4,1.3-0.1,1.3,0.7v0.4c-0.1,0.9-0.5,1.7-1.3,2.2l-29,16.8c-0.7,0.4-1.3,0.1-1.3-0.7
			v-0.4C179.8,180,180.3,179.2,181,178.7z"/>
		<path class="st5" d="M278.5,115.3l21.7-12.5c0.4-0.2,0.6,0,0.6,0.4v0.8c0,0.4-0.3,0.9-0.6,1.1l-21.7,12.5c-0.4,0.2-0.6,0-0.6-0.4
			v-0.8C277.9,116,278.2,115.6,278.5,115.3z"/>
		<path class="st5" d="M278.5,125.3l21.7-12.5c0.4-0.2,0.6,0,0.6,0.4v0.9c0,0.4-0.3,0.8-0.6,1.1l-21.7,12.5c-0.4,0.2-0.6,0-0.6-0.4
			v-0.8C277.9,126,278.2,125.6,278.5,125.3z"/>
		<path class="st5" d="M283,117.7l17.2-9.9c0.4-0.2,0.6,0,0.6,0.4v0.9c0,0.4-0.3,0.9-0.6,1.1L283,120c-0.4,0.2-0.6,0-0.6-0.4v-0.8
			C282.4,118.4,282.6,117.9,283,117.7z"/>
		<path class="st4" d="M176.8,228c-0.5-0.1-0.9-0.5-0.9-1.1c0-0.3,0.2-0.5,0.4-0.7l124.6-72c0.5-0.2,1-0.1,1.3,0.4
			c0.2,0.5,0.1,1-0.4,1.3l-124.6,72C177.2,228,177,228,176.8,228z"/>
		<path class="st4" d="M246.6,342.5c-0.5-0.1-0.9-0.6-0.9-1.1c0-0.3,0.2-0.5,0.4-0.7l51.3-29.7c0.4-0.4,1-0.4,1.4,0s0.4,1,0,1.4
			c-0.1,0.1-0.2,0.2-0.4,0.2l-51.3,29.6C247,342.4,246.8,342.4,246.6,342.5z"/>
		<path class="st16" d="M277.6,320.4c-0.7,1.6-1.7,3.1-3.1,4.2c-0.1,0.1-0.3,0.2-0.4,0.3c-0.3,0-0.4-0.2-0.4-0.5c0-0.5,0-1,0.1-1.5
			c0.1-1,0.3-2,0.4-2.9c0.3-1.6,0.5-3.1,0.9-4.7c0.3-0.7,0.5-1.3,0.8-2c0.7-2,1.3-4,1.8-6c0.6-2,0.8-4.1,0.5-6.2
			c0-0.2-0.3-0.4-0.4-0.1c-0.7,2-1.3,4.1-1.6,6.3l-1.5,7.3c0,0.2-0.1,0.3-0.1,0.5c-0.5,1.1-1,2.3-1.6,3.4c-0.3,0.6-0.7,1.3-1,1.9
			c-0.3,0.6-0.7,1.2-1.1,1.7c-0.5,0.6-1.3,0.5-1.6-0.4c-0.1-0.2-0.1-0.4-0.1-0.6c0.5-0.5,0.9-1.1,1.3-1.8c0.4-0.7,0.7-1.5,1-2.3
			c0.3-0.8,0.5-1.7,0.7-2.6c0.1-0.6,0.3-1.5,0-2s-0.9,0-1.1,0.4c-0.4,0.8-0.8,1.5-1.1,2.4c-0.7,1.7-1.1,3.5-1.1,5.3
			c0,0.1,0,0.1,0,0.2l-0.2,0.1c-0.4,0.4-1.1,0.3-1.4-0.1c-0.2-0.2-0.2-0.4-0.2-0.7c0-0.3-0.3-0.4-0.5-0.1c-0.2,0.9-0.5,1.8-0.9,2.7
			c-0.2,0.4-0.6,0.8-1,0.5c-0.2-0.2-0.3-0.4-0.3-0.6c0-0.1,0.1-0.3,0.1-0.4s-0.3-0.5-0.4-0.3c-0.1,0.2-0.2,0.4-0.2,0.5
			c-0.2,0.6-0.5,1.3-0.7,1.9c-0.1-0.7-0.1-1.3,0-2c0-0.3-0.4-0.4-0.4-0.1c-0.2,0.9-0.4,1.7-0.7,2.6c-0.2,0.4-0.3,0.8-0.5,1.2
			c-0.2,0.5-0.4,0.9-0.8,1.3c-0.1,0.1-0.4,0.3-0.5,0.2s-0.2-0.5-0.2-0.8c0-0.5,0-0.9,0-1.4c0.1-0.9,0.2-1.8,0.4-2.7
			c0.1-0.3-0.4-0.5-0.5-0.2c-0.4,1.4-0.9,2.8-1.5,4.2c-0.3,0.6-0.6,1.3-1,1.9c-0.1,0.3-0.6,0.9-0.9,0.9l0.2-0.4c0.8-1.5,1.4-3,2-4.5
			c0.6-1.6,0.9-3.2,1.1-4.9c0.1-0.5-0.1-0.9-0.4-1.2c0.2-0.8,0.2-1.7,0.1-2.5c0-1-0.9-1.8-2-1.8c-0.2,0-0.3,0-0.5,0.1
			c-1.3,0.4-2.3,1.7-3.2,3c-1.8,2.5-3.2,5.2-4.2,8.1c-0.5,1.5-0.9,3.1-1.3,4.6c-0.3,1.5-0.7,3.3-0.2,4.8c1.2,3.5,4.6,0.3,6-1.4
			c0.8-1,1.5-2.1,2.2-3.3c0.4,0.1,0.8,0,1.1-0.4c0.5-0.6,0.8-1.2,1.1-1.8c0.4-0.8,0.7-1.6,1-2.4c0,0.3,0,0.6,0,0.9
			c-0.1,0.5,0,1,0.2,1.5c0.2,0.3,0.5,0.4,0.8,0.4c0.8-0.1,1.2-1.3,1.5-2.1c0.3-0.6,0.5-1.2,0.7-1.8c0.1,0.3,0.1,0.6,0.2,1
			c0,0.1,0.1,0.2,0.3,0.2c0.1,0,0.1-0.1,0.1-0.1c0.3-0.6,0.5-1.2,0.8-1.9c0.2,0.4,0.6,0.5,1,0.5c1-0.2,1.2-1.7,1.6-2.9
			c0.1,0.3,0.4,0.5,0.6,0.6c0.5,0.3,1.1,0.2,1.5-0.1c0.1,0.5,0.3,0.9,0.7,1.2c0.4,0.4,1,0.5,1.5,0.1c0.6-0.6,1-1.3,1.4-2
			c0.5-0.8,0.9-1.6,1.3-2.4c0.2-0.3,0.3-0.6,0.5-0.9c-0.3,1.3-0.5,2.6-0.7,4c-0.1,0.6-0.2,1.1-0.2,1.7c-0.1,0.5-0.1,1-0.1,1.5
			c0.1,0.8,0.6,1.2,1.2,1c0.4-0.2,0.7-0.5,1-0.8c0.4-0.4,0.7-0.8,1.1-1.2c0.7-0.9,1.2-1.8,1.6-2.9
			C278.2,320.3,277.8,320.1,277.6,320.4z M276.6,307.8c0.2-1.2,0.5-2.4,0.7-3.5c0.2-0.8,0.4-1.5,0.6-2.3c0,1.3-0.1,2.6-0.4,3.8
			c-0.3,1.5-0.7,2.9-1.1,4.3c-0.2,0.8-0.5,1.6-0.8,2.3C276,310.9,276.4,309.4,276.6,307.8L276.6,307.8z M255.1,331.1
			c-0.7,1.1-1.6,2.2-2.6,3.1c-0.5,0.4-1,0.7-1.5,1c-0.5,0.3-1.1,0.3-1.6,0c-0.9-0.8-0.8-2.5-0.6-3.8c0.2-1.3,0.5-2.6,0.8-3.9
			c0.7-2.5,1.7-4.9,2.9-7.2c0.6-1.1,1.3-2.2,2.1-3.2c0.8-1.1,1.8-2.3,3-2.5c1.7-0.4,1.8,1.7,1.5,3.7c-0.5,0.1-1,0.4-1.3,0.9
			c-0.9,1.2-1.5,2.7-1.8,4.2c-0.1,0.5-0.2,1-0.3,1.5c-0.4,0.3-0.9,0.5-1.4,0.5c-0.8,0-0.6-1.3-0.6-1.9c0.1-0.7,0.3-1.5,0.6-2.1
			c0.1-0.2-0.2-0.4-0.3-0.2c-0.3,0.8-0.6,1.6-0.7,2.4c-0.2,0.7-0.1,1.4,0.2,2c0.4,0.5,1,0.4,1.5,0.2c0.2-0.1,0.4-0.1,0.6-0.2
			c-0.1,0.9,0,1.8,0.1,2.6c0.1,0.5,0.2,0.9,0.4,1.3C255.8,330,255.5,330.5,255.1,331.1L255.1,331.1z M259,318.8
			c-0.2,0.9-0.4,1.8-0.8,2.7c-0.4,1.1-1.1,2.1-2,2.9c0.2-1.1,0.5-2.1,0.9-3.2c0.2-0.6,0.6-1.2,1-1.7
			C258.4,319.2,258.6,319,259,318.8L259,318.8z M256.4,328.8c-0.1-0.2-0.1-0.5-0.1-0.6c-0.1-0.4-0.1-0.7-0.1-1.1
			c-0.1-0.7-0.1-1.4,0-2.1l0,0c0.2-0.2,0.4-0.3,0.6-0.5c1.1-1.1,1.9-2.5,2.3-4c0.1-0.5,0.3-1,0.4-1.6c0,0,0,0.1,0,0.1
			c0,0.2,0,0.3,0,0.5c-0.2,1.4-0.5,2.8-0.9,4.1C258,325.5,257.3,327.2,256.4,328.8L256.4,328.8z M269.4,319c0.2-1.4,0.6-2.8,1.2-4.2
			c0.2-0.7,0.6-1.3,1-1.9c0,0,0.2-0.3,0.3-0.2s0,0.2,0,0.3c0,0.2,0,0.3,0,0.5c0,0.4-0.1,0.8-0.2,1.2c-0.3,1.5-0.8,3-1.6,4.4
			c-0.2,0.5-0.5,0.9-0.9,1.3C269.3,319.9,269.3,319.5,269.4,319L269.4,319z M292.4,312.1l-0.2,0c0.1-1.1,0.1-2.2,0-3.3
			c0-2.1-0.2-4.2-0.4-6.3l-0.1-0.6c0.1-0.6,0.2-1.3,0.3-1.9c0.1-1.3,0.2-2.8-0.7-3.6c-0.1-0.1-0.2-0.1-0.3,0c0,0-0.1,0.1-0.1,0.1
			c-0.1,1.5-0.1,2.9,0.2,4.4l0.1,0.7c-0.2,1-0.4,2.1-0.6,3.1c-0.3,1.3-0.7,2.6-1.2,3.8c-0.2,0.6-0.5,1.2-0.8,1.8
			c-0.2,0.6-0.7,1.2-1.2,1.6c-0.1-0.3-0.2-0.5-0.1-0.8c0-0.3-0.4-0.4-0.4-0.1l-0.1,0.2c0.1-0.7,0.1-1.4,0.2-2.1
			c0-0.2-0.3-0.4-0.4-0.2c-0.2,0.8-0.5,1.6-0.8,2.4c-0.2,0.4-0.4,0.8-0.6,1.1c-0.1,0.2-0.4,0.7-0.6,0.6c-0.5-0.1-0.1-2.1,0-2.6
			l0.1-0.4c0.3-0.6,0.5-1.3,0.8-1.9c0.1-0.2-0.3-0.5-0.4-0.2c-0.2,0.4-0.4,0.9-0.5,1.3c-0.6,1.5-1.4,2.9-2.2,4.3
			c-0.5,0.8-1.2,2.1-2.1,2.2c-0.5,0.1-0.6-0.4-0.7-0.9c0.9-1,1.6-2,2.3-3.1c0.5-0.8,2.7-5.5,0.6-5.3c-0.9,0.1-1.5,1.3-1.9,2.2
			c-0.5,1.2-0.9,2.4-1.1,3.7c-0.1,0.6-0.2,1.2-0.3,1.8c0,0.2,0,0.4,0,0.5c-0.7,0.7-1.4,1.3-2.2,1.9c-0.2,0.1,0.1,0.5,0.2,0.4
			c0.7-0.5,1.4-1,2-1.6c0,0.2,0.1,0.3,0.1,0.5c0.5,1,1.6,0.5,2.1-0.1c0.9-1,1.6-2.2,2.2-3.4c0.1-0.2,0.2-0.5,0.4-0.7
			c-0.1,0.7-0.1,1.7,0.4,2s1.1-0.6,1.5-1.1c0.2-0.4,0.4-0.8,0.6-1.2c0,0.2,0,0.5,0,0.7s0.2,0.4,0.3,0.3c0.1-0.1,0.2-0.2,0.3-0.3
			c0.1,0.2,0.1,0.4,0.2,0.5c0.1,0.1,0.2,0.1,0.3,0.1c1.2-0.4,1.9-2.2,2.4-3.5c0.6-1.4,1-2.8,1.4-4.3c0.1-0.4,0.2-0.8,0.3-1.2
			c0.1,0.9,0.1,1.8,0.2,2.7c0.1,2,0.1,4.1,0,6.1c-1,0-2,0.4-2.8,1c-1.2,0.7-2.2,1.7-3.1,2.8c-0.9,1.1-1.3,2.5-1.2,3.9
			c0,1.2,0.6,2.3,1.7,2.8c2.2,0.7,4-2.1,4.8-4.4c0.6-1.7,0.9-3.6,1-5.4h0.2C292.7,312.7,292.7,312.2,292.4,312.1L292.4,312.1z
			 M279.7,312.6c0.2-1,0.5-2,0.8-3c0.3-1,0.7-1.9,1.4-2.7c0.1-0.1,0.5-0.4,0.7-0.3s0.2,0.5,0.2,0.8c-0.1,0.5-0.2,1.1-0.4,1.6
			c-0.4,0.9-0.8,1.8-1.3,2.7c-0.5,0.7-1,1.4-1.5,2.1C279.5,313.4,279.6,312.9,279.7,312.6L279.7,312.6z M291.5,300
			c-0.2-1-0.2-2-0.1-3.1C291.7,297.9,291.7,299,291.5,300z M291.4,315.1c-0.5,2.5-1.5,5.3-3.4,6.4c-0.7,0.5-1.8,0.4-2.3-0.3
			c-0.1-0.1-0.2-0.3-0.2-0.4c-0.5-1.3-0.4-2.7,0.3-3.8c0.8-1.3,1.8-2.4,3.1-3.2c0.8-0.7,1.8-1.1,2.9-1.2
			C291.6,313.4,291.5,314.3,291.4,315.1L291.4,315.1z"/>
		<path class="st20" d="M208.8,328v-3.6c-7.9,4.6-14.3,16.8-14.3,27.4l2.7-1.5C197.2,341.7,202.4,331.7,208.8,328z M219.1,337.6
			c0-7.6-4.6-11.1-10.3-7.8s-10.3,12.1-10.3,19.7s4.6,11.1,10.3,7.8S219.1,345.1,219.1,337.6L219.1,337.6z M199.8,348.7
			c0-6.6,4-14.3,9-17.2c0.3-0.2,0.7-0.4,1-0.5l-9.9,19C199.9,349.6,199.9,349.1,199.8,348.7L199.8,348.7z M200.2,352l11.2-21.4
			c2.9-0.5,5.2,1.2,6,4.6l-11.1,21.3C203.4,357,201.1,355.3,200.2,352L200.2,352z M217.8,337.1c0,0.4,0.1,0.8,0.1,1.2
			c0,6.6-4,14.3-9,17.2c-0.3,0.2-0.7,0.3-1,0.5L217.8,337.1z M208.8,320.9c-9.4,5.4-17,20-17,32.5s7.6,18.2,17,12.8s17-20,17-32.4
			S218.2,315.4,208.8,320.9L208.8,320.9z M208.8,364.4c-8.6,5-15.6-0.3-15.6-11.8s7-24.9,15.6-29.9s15.6,0.3,15.6,11.8
			S217.5,359.4,208.8,364.4L208.8,364.4z M220.5,336.8c0,8.6-5.2,18.5-11.6,22.2v3.6c7.9-4.6,14.3-16.8,14.3-27.4L220.5,336.8z"/>
	</g>
</g>
<g id="freepik--character-2--inject-2">
	<g id="freepik--character--inject-2">
		<g id="freepik--bottom--inject-2_00000034063301611720395290000010586950150899464585_">
			<path class="st21" d="M442.5,376.3c-0.9-12.8,0.1-18.1-0.9-38l0,0c-0.1-5.1-0.3-10.6-0.6-15.4c-1.1-16.4-3.6-21.9-3.8-25.1
				c0,0,0.2-19.6-0.8-55.4c-0.5-16.8-5.2-21.9-9-30.9h-47.9c-2.8,22.2-3.1,63.5-3,86.2c0.1,11.6,4.6,69.1,4.7,70.6
				c0.3,5.1-0.1,7-2,9.2c-4,4.5-9.9,8.7-15,12.6c0.7,2,6.8,1.9,9.9,0.4c4-2.1,7.7-4.6,11.3-7.4c4.2-3.2,9.5-5.7,9.6-10.5
				c0-0.3,0.1-0.6,0.1-0.9c0.1-2.8,6.5-39.9,7.1-49.5c0.5-8.3-0.5-22.3-0.5-22.3l4.6-28.5c0,0,2.5,14.9,5.8,29
				c2.6,11.5,7.4,26.7,10.3,40.9l0,0c2.9,16.3,7,27.9,7.8,36.1c0.2,2,2.4,21.1,3.3,25.5s10.2,4.5,10.8-3
				C444.4,394.9,442.7,378.7,442.5,376.3z"/>
			<path class="st6" d="M355.5,395.2c-0.3,0-0.7,2.9,0.7,4.2c1.6,1.5,6.3,3.9,12.6,3.1s9.7-2.7,12.2-4.8s6.1-5.1,8.9-5.7
				c2.6-0.6,5.5-1.8,6.4-2.6s0.8-4.5,0.8-4.5L355.5,395.2z"/>
			<path class="st8" d="M395,370.4c0,0,0.5,0,0.6,0.9c0.2,1,0.4,4,0.8,5.7c0.6,3,0.8,6,0.5,9c-0.4,1.9-4.7,3.2-7.4,4.2
				c-3.3,1.4-6.3,3.3-9,5.7c-3,2.5-9.2,4.9-13.3,4.9c-6.2,0-10.3-1.8-11.5-4.1c-1.5-2.9-0.3-4.5,6.9-7.8c1.4-0.6,6.2-3.5,7.8-4.5
				c1.7-1.1,3.4-2.3,4.9-3.7c0.8-0.7,1.5-1.4,2.2-2.2c0.7-0.7,1.4-1.5,1.9-2.4c0.1-0.2,0.1-0.4,0.2-0.6c0.2-0.6,0.4-1.1,0.5-1.7
				c0.1-0.6,0.2-1.5,0.8-1.9c0.8-0.3,1.7-0.4,2.6-0.3c0.9,0.1,1.9,0.2,2.8,0.4c1,0.3,2.3,0.4,2.9,1.4c0.4,0.8,0.6,1.7,0.6,2.7
				c0,0.4,0,0.9,0,1.3c0,0.2-0.1,0.5,0.2,0.4s0.5-0.7,0.6-0.9c0.2-0.5,0.3-1,0.6-1.5c0.3-0.5,0.6-1.1,1-1.5c0.3-0.4,0.7-0.8,1.1-1.2
				c0.4-0.2,0.8-0.5,1.2-0.8C394.7,371.6,395,371,395,370.4z"/>
			<path class="st1" d="M361.5,389.5c9,0.7,11.8,6.5,12.1,10c-2.1,0.8-4.2,1.2-6.4,1.3c-6.2,0-10.5-1.8-11.7-4.1
				C354.1,394.1,355.1,391.9,361.5,389.5z"/>
			<path class="st3" d="M375.1,389.7c0.2,0,0.4-0.2,0.4-0.5c0-0.1,0-0.2-0.1-0.3c-2.1-2.3-5.1-3.5-8.1-3.4c-0.2,0-0.4,0.3-0.4,0.5
				c0,0.2,0.2,0.4,0.5,0.4c0,0,0,0,0,0c2.8-0.1,5.5,1,7.4,3.1C374.8,389.7,374.9,389.7,375.1,389.7z"/>
			<path class="st3" d="M379,387.4c0.1,0,0.2,0,0.3-0.1c0.2-0.2,0.2-0.4,0.1-0.6c-2.1-2.3-5.1-3.5-8.1-3.4c-0.2,0-0.4,0.2-0.4,0.5
				c0,0,0,0,0,0c0,0.2,0.2,0.4,0.5,0.4c0,0,0,0,0,0c2.8-0.1,5.5,1,7.4,3.1C378.7,387.4,378.9,387.4,379,387.4z"/>
			<path class="st3" d="M382.6,384.8c0.1,0,0.2,0,0.3-0.1c0.2-0.2,0.2-0.4,0.1-0.6c-2.1-2.3-5.1-3.5-8.1-3.4c-0.2,0-0.4,0.2-0.4,0.5
				s0.2,0.4,0.5,0.4c2.8-0.1,5.4,1,7.4,3C382.3,384.7,382.5,384.8,382.6,384.8z"/>
			<path class="st3" d="M386.2,382.2c0.1,0,0.2,0,0.3-0.1c0.2-0.2,0.2-0.4,0.1-0.6c-1.7-2.3-5.6-3.8-8.9-3.5c-0.2,0-0.4,0.3-0.4,0.5
				c0,0.2,0.2,0.4,0.5,0.4c3-0.3,6.6,1.1,8.1,3.1C385.9,382.1,386,382.2,386.2,382.2z"/>
			<path class="st6" d="M430.2,406.4c0.2,4.4,0.9,7.3,2.4,9.8s4.4,3.4,7.2,2.6s6.6-2.8,7.4-6.5s1.3-6.4,0.7-10.4L430.2,406.4z"/>
			<path class="st8" d="M442.4,374.8c1.2,0.1,1.5,6,2.2,11.8c0.7,6.3,2.6,8.9,3.2,14.1c0.8,5.9-0.2,8.5-2.2,12.1s-9.1,7.1-12.7,2
				c-2.9-4.2-3-8.8-2.7-14.7c0.1-5,0-10-0.4-14.9c-0.2-4.4-1.2-8.9-0.1-9.4c0.1,0.6,0.2,1.5,0.2,2.1c0,0.8,0.2,1.6,0.4,2.4
				c0.1,0.3,0.4,0.7,0.5,0.1c0.1-0.4,0.1-0.7,0-1.1c-0.2-1.6,0.6-1.8,1.1-1.9c1.8-0.4,3.7-0.6,5.5-0.8c0.9-0.1,4-0.2,4.5,0.3
				c0.3,0.5,0.4,1.1,0.4,1.7c0.1,0.9,0.3,1.5,0.3,1.3c0.1-0.6-0.1-2.3-0.1-2.7s-0.1-0.9-0.1-1.3S442.4,375.1,442.4,374.8z"/>
			<path class="st1" d="M448.2,404.1c0.2,3.2-0.6,6.3-2.2,9c-2,3.6-9.7,7.1-13.2,2c-1.7-2.5-2.2-5.5-2.5-8.6
				C432.4,402.5,444.9,400.7,448.2,404.1z"/>
			<path class="st3" d="M432.9,400c0,0,0.1,0,0.1,0c0,0,5.5-2.4,10.9-1.1c0.2,0.1,0.5-0.1,0.5-0.3c0,0,0,0,0,0
				c0.1-0.2-0.1-0.5-0.3-0.5c-3.9-0.7-7.9-0.3-11.5,1.1c-0.2,0.1-0.3,0.4-0.2,0.6C432.5,399.9,432.7,400,432.9,400z"/>
			<path class="st3" d="M443.6,394.5c0.2,0,0.3-0.1,0.4-0.3c0.1-0.2,0-0.5-0.3-0.6c-5.3-1.9-11.2,0.9-11.5,1
				c-0.2,0.1-0.3,0.4-0.2,0.6c0.1,0.2,0.4,0.3,0.6,0.2c0.1,0,5.8-2.7,10.8-1C443.5,394.5,443.6,394.5,443.6,394.5z"/>
			<path class="st3" d="M443.5,390.3c0.3,0,0.4-0.3,0.4-0.5c0-0.2-0.1-0.3-0.3-0.4c-5.9-2.2-11.5,0.9-11.7,1
				c-0.2,0.1-0.3,0.4-0.1,0.6c0.1,0.2,0.4,0.3,0.6,0.2c0,0,0,0,0,0c0,0,5.5-2.9,10.9-0.9C443.3,390.3,443.4,390.3,443.5,390.3z"/>
			<path class="st22" d="M443.2,386.2c0.2,0,0.3-0.1,0.4-0.3c0.1-0.2,0-0.5-0.3-0.6c-5.5-2.1-11.5,1-11.8,1.1
				c-0.2,0.1-0.3,0.4-0.2,0.6c0.1,0.2,0.4,0.3,0.6,0.2c0,0,0,0,0,0c0.1,0,5.9-3,11-1.1C443,386.2,443.1,386.2,443.2,386.2z"/>
			<path class="st8" d="M430.7,211.7c5.4,10,7.2,18.2,7.7,47.9s-0.2,32.2-0.1,35.8s2.1,10,3.9,27.7c1,11.4,1,22.9,0,34.3
				c0,0-1.2,2.9-7.8,3.5c-6.1,0.6-9.1-1.8-9.1-1.8s-8.7-30-11-40.6s-8.4-39.8-8.4-39.8l-3.4,21.8c0,0,1.9,9.8,0,25.2
				c-1,9-2.6,17.9-4.6,26.8c-3.1,1.2-6.5,1.8-9.8,1.8c-3,0-5.9-0.8-8.5-2.5c0,0-4.8-41.5-4.8-59s1.8-59.8,3.5-80.9L430.7,211.7z"/>
			<path class="st6" d="M436.8,309.2c-0.2-1-0.4-2-0.6-2.9c-1.7-8.2-1-13.1-1-26.7c0-4.1,0-8.4,0-12.9c-0.1-17.7-1.5-37.6-10.2-50.4
				l-0.7,0.5c5.9,8.6,8.4,20.5,9.4,32.8c-8.7-1.2-10.6-10-13.2-22.1c-0.4-1.6-0.7-3.4-1.1-5.1l-0.8,0.2c0.4,1.8,0.8,3.5,1.1,5.1
				c2.6,12.1,4.6,21.6,14.1,22.8c0.4,5.4,0.6,10.9,0.6,16.2c0,4.5,0,8.8,0,12.9c0,13.7-0.7,18.6,1,26.9c0.2,0.9,0.4,1.9,0.6,2.9
				c2.2,10.6,6,22.1,4.3,49.9c0.3-0.2,0.6-0.4,0.9-0.6C442.7,331.2,439,319.8,436.8,309.2z M385.5,241.1c1.2,5.8,7.8,9.1,12,10.1
				l0.8,3.8c-0.2,3.2-0.4,6.5-0.6,9.9c-1.3,18.9-2,31.9-1,36.3c2.5,11.6,1.7,19,0.4,32.3c-0.1,1.4-0.3,2.8-0.4,4.3
				c-0.8,7.8-1.6,11-2.2,15.9l0.9-0.2c0.5-4.9,1.4-8,2.2-15.6c0.1-1.5,0.3-2.9,0.4-4.3c1.3-13.4,2.1-20.9-0.4-32.6
				c-0.9-4.3-0.2-18.1,1-36c0.1-2.2,0.3-4.3,0.4-6.4l3.7,20.9l0.1,21l3.3-21.8l-5.5-31.1C394.9,247.5,389.5,245.2,385.5,241.1
				L385.5,241.1z"/>
		</g>
		<g id="freepik--top--inject-2_00000122679871904151837950000017158729037950675644_">
			<g id="freepik--arm--inject-2_00000040551918129072224630000003715815049746253223_">
				<path class="st12" d="M364.9,164c0-1.5,0.7-2.6,2.5-3.8c1.4-0.8,2.6-1.9,3.6-3.1c1.1-1.6,2.3-3.1,3.6-4.5c1-0.8-0.2-1.9-1.9-1.8
					s-5.7,2.2-6.6,4.3C364.9,157.9,364.5,161,364.9,164z"/>
				<path class="st21" d="M386.5,156.8c-1.7,0.3-7.8,0.6-11.9,8.2c-4.3,7.9-7.8,14.1-7.8,14.1c-0.8-3.7-1.4-7.4-1.7-11.1
					c-0.3-5.5-0.2-7.9,1.5-11c2.5-3.4,4.7-7,6.7-10.8c-3.1,0.2-6.1,0.6-9.1,1.2c-0.5,0.1-0.9,0.4-1.2,0.8c-0.1,0.3-0.1,0.7-0.3,1
					c-0.2,0.4-0.6,0.8-1.1,0.9c-0.9,0.4-2,0.8-2.4,1.7c-0.2,0.5-0.2,1.1-0.5,1.6c-0.5,0.8-1.1,1.5-1.8,2.1c-0.7,0.8-1.2,1.8-1.3,2.9
					c-1.4,5.6-1.8,11.4-1.8,20.1c0,6.1,0.4,14.4,2.4,19s6.3,9.8,12.4,3.6s16.8-23.2,16.8-23.2L386.5,156.8z"/>
				<path class="st12" d="M367.1,156.2c-1,0.4-1.9,0.8-2.7,1.4c0.5,1,0.5,2.1,0,3.1c-0.7,1.9-2.1,2.6-1.8,4.4c0-1.2,0.6-2.3,1.6-2.8
					C366.3,161,367.4,157.3,367.1,156.2z"/>
				<path class="st3" d="M386.7,156.5c-2.4,0.4-7.3,1-11.1,6.1s-9,16-9,16l0.1,0.6c0,0,3.1,3.9,3.7,11.7c0.4,4.5-1.1,9-4.2,12.4
					c-0.6,0.4-1.2,0.6-1.8,0.8c0,0,1.5,1.1,3.8-0.4s19.3-26.1,19.3-26.1L386.7,156.5z"/>
				<path class="st4" d="M366.5,178.1l0.2,1.1c0,0,2,7-0.5,12.4s-6.3,5.9-8.2,5.7c-2.1-0.2-2.8-2.8-2.8-2.8l-0.4-1.8
					c-0.5,0.4-0.7,1.2-0.5,1.8c0.8,2.2,1.8,4.4,2.9,6.5c1.2,2.1,5.1,5.2,8.5,3.3s5.5-6.4,5.5-12.5s-1.4-9.9-2.3-11.2
					s-2.6-4.1-2.6-4.1L366.5,178.1z"/>
			</g>
			<g id="freepik--top--inject-2">
				<path id="freepik--chest--inject-2" class="st16" d="M415.4,153.5c3.4,0.6,9,1.5,15.6,3.1c1,0.4,2,0.8,3,1.2
					c0,0,2.6,10,1.8,34.1c-0.1,3.6,0,11.8-0.2,19.2c0,6.9,0.4,13.9,1.3,20.7c0,0-11.9,8.2-36,7c-19-1-23.9-5.1-23.9-5.1
					s0.8-30.7,1-44.8c0.2-18.6,4.8-29.1,8.8-32.5l12.4-2.4L415.4,153.5z"/>
			</g>
			<g id="freepik--Pen--inject-2">
				<path class="st16" d="M421.8,97.9c1.1-1.9,0.5-4.2-1.4-5.3c-1.8-1.1-4.1-0.5-5.3,1.3l0,0l-2.1,3.3c-0.3,0.6-0.3,1.4,0.1,2
					c1,1.7,2.8,2.7,4.7,2.9c0.7,0.1,1.4-0.2,1.8-0.8L421.8,97.9L421.8,97.9z"/>
				<path class="st8" d="M418,102c0.7,0.1,1.4-0.2,1.8-0.8l2-3.3l0,0c0.7-1.1,0.8-2.6,0.2-3.8l0,0c0.4,1-0.6,2.6-1.8,4.5
					s-2.5,2.7-5.4,1.2c-2-1.1-1.8-2.4-1.5-3l-0.2,0.4c-0.3,0.6-0.3,1.4,0.1,2C414.3,100.8,416.1,101.8,418,102z"/>
				<path class="st5" d="M421.6,113.9c3.5-5.7,1.7-13.1-4-16.7c-5.7-3.5-13.1-1.7-16.6,4l0,0l0,0c-0.9,1.5-0.9,3.7,0.4,6.1
					c2.6,4.8,9.1,8.8,14.6,9C418.7,116.3,420.7,115.4,421.6,113.9L421.6,113.9z"/>
				<path class="st5" d="M421.2,107.8c-2.6-4.8-9.1-8.8-14.6-9c-2.7-0.1-4.7,0.8-5.6,2.3l-45.3,73.5c-0.9,1.5-0.9,3.7,0.4,6.1
					c2.6,4.8,9.1,8.8,14.6,9c2.7,0.1,4.7-0.8,5.6-2.4l45.3-73.5C422.5,112.4,422.5,110.2,421.2,107.8z"/>
				<path class="st23" d="M421.2,107.8c-2.6-4.8-9.1-8.8-14.6-9c-2.7-0.1-4.7,0.8-5.6,2.3l-45.3,73.5c-0.9,1.5-0.9,3.7,0.4,6.1
					c2.6,4.8,9.1,8.8,14.6,9c2.7,0.1,4.7-0.8,5.6-2.4l45.3-73.5C422.5,112.4,422.5,110.2,421.2,107.8z"/>
				<path class="st5" d="M368.1,194.4c-5.6-0.2-12.3-4.3-15-9.2c-1.3-2.5-1.4-4.7-0.4-6.2l3.5-5.6c1-1.6,3-2.5,5.8-2.4
					c5.6,0.2,12.3,4.3,15,9.2c1.3,2.5,1.4,4.7,0.4,6.2l-3.5,5.7C372.9,193.6,370.9,194.5,368.1,194.4z"/>
				<path class="st24" d="M368.1,194.4c-5.6-0.2-12.3-4.3-15-9.2c-1.3-2.5-1.4-4.7-0.4-6.2l3.5-5.6c1-1.6,3-2.5,5.8-2.4
					c5.6,0.2,12.3,4.3,15,9.2c1.3,2.5,1.4,4.7,0.4,6.2l-3.5,5.7C372.9,193.6,370.9,194.5,368.1,194.4z"/>
				<path class="st5" d="M358.5,176.5c5.6,0.2,12.3,4.3,15,9.2c1.3,2.5,1.4,4.7,0.4,6.2s-3,2.5-5.8,2.4c-5.6-0.2-12.3-4.3-15-9.2
					c-1.3-2.5-1.4-4.7-0.4-6.2S355.7,176.4,358.5,176.5z"/>
				<path class="st15" d="M358.5,176.5c5.6,0.2,12.3,4.3,15,9.2c1.3,2.5,1.4,4.7,0.4,6.2s-3,2.5-5.8,2.4c-5.6-0.2-12.3-4.3-15-9.2
					c-1.3-2.5-1.4-4.7-0.4-6.2S355.7,176.4,358.5,176.5z"/>
				<path class="st5" d="M312.5,247.4c0.8-1.4,2.6-2.2,5-2.1c5.4,0.4,10.2,3.4,13,8c1.1,2.1,1.2,4,0.4,5.4l0,0l-2.8,2.7l0,0
					c-1.1,1-2.6,1.5-4.1,1.3c-4.9-0.4-9.3-3.2-11.9-7.4c-0.8-1.3-1-2.8-0.7-4.3l0,0L312.5,247.4z"/>
				<g class="st25">
					<path d="M312.5,247.4c0.8-1.4,2.6-2.2,5-2.1c5.4,0.4,10.2,3.4,13,8c1.1,2.1,1.2,4,0.4,5.4l0,0l-2.8,2.7l0,0
						c-1.1,1-2.6,1.5-4.1,1.3c-4.9-0.4-9.3-3.2-11.9-7.4c-0.8-1.3-1-2.8-0.7-4.3l0,0L312.5,247.4z"/>
				</g>
				<path class="st5" d="M317.5,245.4c5.4,0.4,10.2,3.4,13,8c1.1,2.1,1.2,4,0.4,5.4l40.9-66.3c0.8-1.4,0.8-3.3-0.4-5.4
					c-2.8-4.6-7.6-7.6-13-8c-2.4-0.1-4.2,0.7-5,2.1l-40.9,66.3l0,0C313.3,246.1,315,245.3,317.5,245.4z"/>
				<path class="st5" d="M327.7,261.7c0.8-1.2,0.7-2.9-0.3-4.9c-2.5-4.1-6.9-6.8-11.7-7.1c-2.2-0.1-3.7,0.6-4.5,1.9l0,0l0,0l0,0
					c-2.6,4.3-7.7,17.1-7.1,23.5l0.1,0.1c0,0.4,0.1,0.7,0.3,1c0.9,1.5,2.5,2.5,4.3,2.6c0.3,0,0.7,0,1-0.2l0,0
					C315.9,276.4,325.1,265.9,327.7,261.7z"/>
				<path class="st23" d="M371.3,187c-0.4-0.8-1-1.5-1.6-2.2l-40.9,66.3c0.6,0.7,1.1,1.4,1.6,2.2l0.2,0.4l40.9-66.3L371.3,187z
					 M377.9,182.8c0-0.2-0.1-0.5-0.2-0.7l40.3-65.4c5.3-8.6,5.3-12.2,3.3-15.8c1.1,3.5-3.7,11.3-4.3,12.3l-40.6,66
					c0.2,0.3,0.4,0.6,0.5,0.9l-3.5,5.7c0.5,0.8,0.8,1.7,1,2.7L377.9,182.8z M306.9,278.4l2.1-1c0,0,1.5,0.2,6.1-4s7.4-8.7,12.2-16.5
					c-0.5-0.9-1.2-1.8-1.9-2.5c0,0.1-5.4,10.5-12.2,17.9c-2,2.2-4.3,4.2-6.7,6L306.9,278.4z"/>
				<path class="st16" d="M305.8,275.4l-1.7,2.8c-0.7,1.2-1.9,4.6-1,5.2s3.5-2,4.2-3.2l0,0l1.7-2.7c0,0,0-0.7-1.3-1.5
					S305.8,275.4,305.8,275.4z"/>
				<path class="st6" d="M304.4,283.1c-0.1-0.3-0.3-0.7-0.6-0.8c-0.3-0.2-0.7-0.2-1-0.1c0,0.6,0,1,0.3,1.2S303.9,283.4,304.4,283.1z
					"/>
			</g>
			<g id="freepik--head--inject-2">
				<path class="st6" d="M423.8,118.3c-0.8-1.6-2.2-2.9-3.9-3.5l0,0c-0.8-4.1-6.1-9-16.2-9.2c-8.2-0.2-12.7,2.9-15.7,7.7
					c-3.1,5-0.7,11.2-0.7,11.2l24.5-2.2c-0.2,1.4-0.2,2.7-0.1,4.1c0.4,3.7,4.6,7.3,4.6,7.3l-0.1,5.1v7.4c1.1-0.4,2.1-1.2,2.7-2.3
					c2-3.3,3.4-6.9,4.3-10.7C425.5,123.4,424.8,120.1,423.8,118.3z"/>
				<path class="st21" d="M422.9,140.7c-3.7,2-5.5-1-5.5-1l-0.2,15.2c-7,10-26.5,6.9-18.7-0.6l-0.1-3.5c-1.1,0-2.2-0.1-3.3-0.2
					c-3.4-0.4-5.8-2.6-6.8-6.3c-1.6-5.4-1.4-17.1-0.7-23.6c0.2-2,1.3-3.7,3-4.8c4-2.1,7.8,0.7,13.4,2.8c2.3,0.9,8,1.1,9.4,0.4
					c-1.9,2.2-1.7,9.1,1.2,11.8c0.4,0.7,0.9,1.3,1.5,1.9c1.2,1,2.2-1.8,3.2-2.9c1.7-1.5,4.4-1.4,5.9,0.3c0.3,0.3,0.5,0.7,0.7,1
					C427.7,134.7,426.4,138.9,422.9,140.7C422.9,140.7,422.9,140.7,422.9,140.7z"/>
				<path class="st12" d="M398.4,150.8c4.4-0.1,8.3-0.8,10.8-1.9s4.8-4.8,5.5-8.3c0.1,2.8-1,7.9-4.9,10s-8.5,2.4-11.3,2.5
					L398.4,150.8z"/>
				<path class="st6" d="M403.6,123.7l3.7,1.6c0.4-1.1,0-2.3-1.1-2.8C405.2,122.2,404,122.7,403.6,123.7
					C403.6,123.7,403.6,123.7,403.6,123.7z"/>
				<path class="st6" d="M389.4,125.6l3.8-1.5c-0.4-1-1.5-1.6-2.5-1.2c0,0,0,0,0,0C389.6,123.4,389.1,124.5,389.4,125.6z"/>
				<path class="st6" d="M406,129c-0.1,0.9-0.8,1.6-1.7,1.5c-0.9-0.1-1.6-0.8-1.5-1.7c0.1-0.9,0.8-1.6,1.7-1.5
					C405.4,127.3,406,128.1,406,129C406,129,406,129,406,129z"/>
				<path class="st6" d="M393.6,128.7c0,0.9-0.8,1.6-1.7,1.6c-0.9,0-1.6-0.8-1.6-1.7c0-0.9,0.8-1.6,1.7-1.6
					C392.9,127,393.6,127.8,393.6,128.7C393.6,128.7,393.6,128.7,393.6,128.7z"/>
				<path class="st12" d="M399.3,126.2l-1,10.5l-6-2.1C394,131.3,396.4,128.4,399.3,126.2z"/>
				<path class="st11" d="M402.7,139.5l-4.3,1.4c0.3,1.2,1.5,1.9,2.7,1.6c0,0,0.1,0,0.1,0C402.4,142,403,140.7,402.7,139.5z"/>
				<path class="st12" d="M402.2,140.2c0.2,0,0.4-0.1,0.5-0.1c0,1-0.6,1.9-1.6,2.2c-0.2,0.1-0.5,0.1-0.7,0.1
					C400.3,141.4,401.1,140.4,402.2,140.2z"/>
			</g>
			<g id="freepik--arm--inject-2_00000044178295798906633770000005134668328596593585_">
				<path class="st12" d="M413.9,191.5c-1.1-1.2-2.1-2.5-2.8-4c-1-1.9-1.3-3.1-2.1-4.6c-0.2-0.5-0.5-1-0.7-1.5
					c-0.1-0.1-0.1-0.2-0.2-0.3c-0.3-0.2-0.6-0.2-0.9,0c-0.8,0.6-1.3,1.5-1.3,2.6c0,1,0.2,2,0.5,3c0.1,0.6,0.8,3,0.8,3L413.9,191.5z"
					/>
				<path class="st12" d="M392.6,178.8c-0.4-0.3-0.8-0.3-1.2-0.1c-0.2,0.2-0.4,0.5-0.4,0.8c-0.1,2,2.4,3.5,3.8,4.4
					c1.8,1.2,3.6,2.4,5.5,3.4c0.9,0.3,1.8,0.4,2.7,0.3c1.1,0.1,2.1,0,3.2-0.3c0,0,0.1,0,0.1,0c0-0.1,0-0.1,0-0.2
					c-0.1-0.4-0.4-0.7-0.6-1c-0.3-0.3-0.6-0.5-0.9-0.7c-2.1-1.4-4.3-2.6-6.6-3.7C396.3,180.7,394.5,179.7,392.6,178.8z"/>
				<path class="st21" d="M444.3,166.4c-2.3-5.6-5.3-6.4-13.3-8.8c-4.3,7.4-1.1,21.7-1.1,21.7l3.6,16.9c0,0-12.4-0.4-14.6-1.4
					s-8.4-6.1-10.5-7.6c-2.8-2-4-1.5-5.2-1.2c-4,1.2-4.9,1.7-5.7,2.3c-0.5,0.4-0.7,1.1-0.6,1.7c-1.1,0.3-2.7,0.5-2.7,2.3
					c0,0.5,0,1,0.1,1.4c-0.3,0.1-0.5,0.3-0.6,0.5c-0.8,1.2,1.3,4.6,2.4,5.4c0.9,0.5,2.1,0.5,3,0.1c1.1-0.3,0.4-1.4,0.4-1.4l1.5-0.1
					c3.7,1.9,4.5,6.3,9,6.7c1.9,0.1,3.7,0.3,5.5,0.6c10,1.9,19.7,7.7,28.3,7.2c8.4-0.4,7.5-4.8,6.9-9.9
					C450.6,198.6,447.1,172.9,444.3,166.4z"/>
				<path class="st12" d="M433.2,194.6l0.4,1.7c3.9,0.4,8.3,2.6,9.5,4.5C441.9,197.7,440,195.5,433.2,194.6z"/>
				<path class="st3" d="M431,156.6c2.9,0.9,7.9,2.3,10.1,4.5s3.7,3.5,5.5,10.9s3.9,24.9,4.8,28s1.7,5.2,0,7.1
					c-2.1-5.6-8-10.4-17.9-10.8c-1.6,0-1.2-2-1.8-3.9s-2.7-12.9-3.6-16.6S426,160.5,431,156.6z"/>
				<path class="st4" d="M432.4,195.5l-0.2,0.7c3.4,1,6.5,2.7,9.1,5c3.8,3.7,4.7,6.7,4.9,8.6s0,3.1-1.5,3.1l-1.3,0.1
					c0,0,0.3,0.7,2.8,0.5c2.2-0.2,4.3-0.8,5.3-3c1-1.8,1.1-3.9,0.3-5.8c-0.7-2-2.6-5.6-8.6-8.1C438.2,194.6,432.4,195.5,432.4,195.5
					z"/>
				<path class="st12" d="M397,190.2l4.7-1.7l-4.7,1C397,189.8,397,190,397,190.2z"/>
				<path class="st12" d="M394.5,194l5.5-1.5l-5.6,0.9C394.4,193.6,394.4,193.8,394.5,194z"/>
				<path class="st12" d="M395.6,196.3c0.2,0.3,0.5,0.4,0.9,0.6c0.3,0.1,0.7,0.2,1,0.2h-0.1c0.2,0.3,0.4,0.5,0.6,0.8l0.1-0.2
					c-0.3,0-0.6,0.1-0.9,0.3c-0.2,0.2-0.3,0.5-0.4,0.8c0.1-0.3,0.3-0.5,0.5-0.7c0.2-0.2,0.5-0.3,0.7-0.2h0.2l-0.1-0.2
					c-0.2-0.3-0.4-0.5-0.6-0.8v-0.1h0c-0.3,0-0.7-0.1-1-0.1C396.1,196.7,395.8,196.5,395.6,196.3z"/>
				<path class="st12" d="M397.2,196.8c0.7,0,1.3,0,2-0.1c0,0,0.1,0.4,0.9,1c0.4,0.3,0.8,0.5,1.2,0.8l-1.5,0.1
					c-0.5-0.5-1.2-0.8-1.9-0.7L397.2,196.8z"/>
			</g>
			<g id="freepik--Hand--inject-2">
				<path class="st21" d="M373.2,146.3c1.1,0,3,1.1,4.5,2.2s3,1.1,2.5,2.2c-0.5,0.7-1.3,1-2.1,0.9c-0.9,0-1.7-0.2-2.5-0.5
					c1.8,1.6,2.2,2.2,1.7,2.8c-0.8,0.8-2.1,0.7-3.2,0.2c0.6,0.6,1.3,1,1,1.6s-1.5,0.8-2.8,0.6c-0.8-0.1-1.7-0.4-2.4-0.8
					c-1.4,0.4-2.8,0.9-2.8,0.9C368.5,152.6,370.6,149.2,373.2,146.3z"/>
				<path class="st12" d="M374.1,154.1c-0.8-0.4-1.5-1-2.2-1.4c-0.8-0.4-1.6-0.5-2.5-0.3c-0.9,0.1-1.7,0.3-2.6,0.4s-1.7,0.3-2.6,0.4
					c0.9-0.2,1.7-0.4,2.6-0.6c0.9-0.2,1.7-0.4,2.6-0.5c0.4-0.1,0.9-0.1,1.3-0.1c0.5,0,0.9,0.2,1.3,0.4
					C372.8,152.9,373.4,153.5,374.1,154.1z"/>
				<path class="st12" d="M375.6,151.1c-0.7-0.4-1.3-0.9-2-1.3c-0.3-0.2-0.7-0.4-1-0.6c-0.4-0.1-0.7-0.1-1.1-0.1
					c-0.8,0-1.6,0.1-2.4,0.2c-0.8,0.1-1.6,0.2-2.4,0.3c0.8-0.2,1.5-0.4,2.3-0.5c0.8-0.2,1.6-0.3,2.4-0.3c0.4,0,0.8,0,1.2,0.1
					c0.4,0.2,0.7,0.4,1,0.6C374.4,150.1,375.1,150.6,375.6,151.1z"/>
			</g>
		</g>
	</g>
</g>
<g id="freepik--Glasses--inject-2">
	<g id="freepik--Specs--inject-2">
		<path class="st6" d="M324.8,406.4c-6.6-3.9-18.2-9.3-33.7-5.6c-27.7,6.6-110.3,42.9-110.3,42.9v3.1l5,2.6
			c0,0,91.1-37.9,104.9-41.3c9.4-2.3,20.3,3.5,24.9,6.3c2.3,1.4,5.1,1.5,7.5,0.3l1.6-0.9c0.8-0.4,1.4-1.3,1.3-2.2v-3.1
			C326,407.6,325.6,406.8,324.8,406.4z"/>
		<path class="st8" d="M185.8,446.2c0,0,91.1-38,104.9-41.3c9.4-2.3,20.3,3.6,24.9,6.3c2.3,1.4,5.1,1.5,7.5,0.3l1.6-0.9
			c1.2-0.6,1.7-2.1,1.1-3.3c-0.2-0.4-0.5-0.8-0.9-1c-6.6-3.9-18.2-9.3-33.7-5.6c-27.7,6.6-110.3,42.9-110.3,42.9L185.8,446.2z"/>
		<path class="st6" d="M296.5,385.5v-3.3l-3.4-2.1c0,0-62.8,47.7-74.3,63.7c-1.7,2.4-2.3,6.9-2.3,6.9s0,1.8,0,2.6
			c0.1,6,5.7,9.7,10.9,12.6c1.7,1,6,0.9,7.5-0.1l1.4-0.9c0.8-0.4,1.3-1.1,1.4-2c0-0.5,0-2.7,0-3.3c0-0.8-0.6-1.6-1.9-2.3
			c-3.3-1.8-9.4-5.9-10.6-9.2c0.2-0.6,0.5-1.2,0.9-1.7C232.1,438.4,296.5,385.5,296.5,385.5z"/>
		<path class="st8" d="M296.5,382.3c0,0-64.4,52.9-70.2,60.8c-3.9,5.4,4.9,11.6,9.7,14.2c2.4,1.3,2.6,2.9,0.5,4.3l-1.4,0.9
			c-1.6,1-5.8,1-7.5,0.1c-6.8-3.8-15-9.8-8.6-18.7c11.5-16,74.3-63.7,74.3-63.7L296.5,382.3z"/>
		<path class="st8" d="M313.4,399.6c-0.1-2.1-0.8-4.1-1.9-5.8c-2.4-3.7-9.6-8.7-12.6-11.7s-0.4-3.9-0.4-3.9c-2.6-2.5-5.6-4.5-9-5.8
			c-2.1,0.9-4.5,1.9-7,3.1c-11,5.1-24.4,12.5-30,18.3c-7.1,7.3-7.4,11.1-12.8,14.2s-12,3.3-24.6,7.4c-10,3.3-22.7,11-31.6,17.3
			c-2,1.4-3.8,2.8-5.4,4l0,0l-0.4,2.8c0,0,3.1,3,10,5.2c0,0,1.6-1.6,6.8,0.2s13.8,6,20.3,7.3c3.2,0.7,6.6,1.1,9.9,1.1h0.1
			c1.2,0,2.4,0,3.7-0.2l0,0l1.8-0.2l0,0c1.7-0.2,3.4-0.6,5.1-1.1c0.3-0.1,0.5-0.1,0.8-0.2l1.2-0.4l1.2-0.4c1.1-0.4,2.3-0.9,3.5-1.5
			c0.5-0.2,0.9-0.5,1.4-0.7s1.1-0.6,1.7-0.9c8.1-4.7,10.7-9,10.7-13l0.4-2.8c0-0.8-0.1-1.7-0.3-2.5c-0.1-0.3-0.1-0.5-0.2-0.8
			s-0.2-0.5-0.3-0.8c-0.3-0.8-0.7-1.5-1.1-2.3c-0.1-0.2-0.2-0.4-0.3-0.5c-0.8-1.1-1.7-2.2-2.6-3.1l-0.5-0.5c-1-1-2.1-2-2.9-2.9
			l-0.4-0.4c-0.1-0.1-0.5-0.5-0.9-1c-0.5-0.6-0.5-1.5,0.1-2c0.1-0.1,0.2-0.1,0.3-0.2l0,0c0.2-0.1,0.4-0.2,0.6-0.3
			c0.2-0.1,0.4-0.2,0.6-0.2c5.7-2.1,13.3,2.9,22,4.6c3.6,0.7,7.2,1.1,10.8,1.1l0,0c0.7,0,1.3,0,2,0c0.4,0,0.7,0,1-0.1l1-0.1
			c0.3,0,0.6-0.1,0.9-0.1h0.3l0.7-0.1c0.3,0,0.5-0.1,0.7-0.1l0.5-0.1c2.5-0.4,5-1.1,7.5-1.9l0.6-0.2c2.5-0.9,4.9-2.1,7.2-3.4
			c7.6-4.4,9.7-8.5,9.6-11.9C312.9,401.4,313.4,400.4,313.4,399.6z M264.9,390.2c1.5-1,2.9-2,4.3-2.8l0.6-0.3l0.6-0.3l1.7-0.9
			c0.2-0.1,0.4-0.2,0.6-0.3l0.8-0.4c0.5-0.2,0.9-0.4,1.4-0.6c0.9-0.4,1.8-0.8,2.7-1.1l0.7-0.2c0.1,0,0.1,0,0.2-0.1
			c0.2-0.1,0.3-0.1,0.5-0.2c0.2-0.1,0.5-0.2,0.7-0.2l0.9-0.3c0.5-0.1,1-0.3,1.5-0.4l0.3-0.1c1.3-0.3,2.7-0.5,4-0.6
			c4.1-0.1,11.5,5.5,14.9,8.6c2.4,2.2,7.4,6.7,5.3,12c0,0.1-0.1,0.3-0.2,0.4c0,0,0,0.1-0.1,0.1c-0.1,0.2-0.2,0.3-0.2,0.5
			c-0.1,0.2-0.2,0.4-0.3,0.5c-1.6,2.2-3.6,4-6,5.2c-6.5,3.9-14.1,5.6-21.7,4.9h-0.1l-0.7-0.1l-0.8-0.1l-0.4,0l-1.1-0.2l-1.2-0.2
			l-0.6-0.1l-0.3-0.1l-0.5-0.1l-0.4-0.1c-1.4-0.4-2.8-0.8-4.2-1.3c-1.9-0.7-3.7-1.5-5.5-2.2c-0.7-0.3-1.4-0.6-2-1
			c-0.3-0.2-0.6-0.3-0.9-0.5l-0.4-0.2l-0.4-0.3c-1-0.6-1.9-1.2-2.7-2c-0.4-0.4-0.8-0.9-1-1.5C254.1,400.7,258.6,394.8,264.9,390.2
			L264.9,390.2z M249.3,431.9L249.3,431.9c0,1-0.1,2-0.5,2.9c-0.1,0.2-0.1,0.3-0.2,0.5c-0.1,0.2-0.1,0.3-0.2,0.5
			c-0.1,0.2-0.2,0.3-0.3,0.5s-0.2,0.3-0.3,0.5s-0.2,0.3-0.3,0.4l-0.4,0.5c-0.1,0.2-0.3,0.3-0.4,0.5c-0.8,0.9-1.8,1.7-2.8,2.5
			c-0.2,0.1-0.3,0.2-0.5,0.3c-0.6,0.4-1.2,0.8-1.9,1.2c-0.3,0.2-0.6,0.3-0.9,0.5c-6,3.3-12.8,4.7-19.6,4c-0.4,0-0.7-0.1-1-0.1
			s-0.7-0.1-1-0.1l-0.9-0.1l-0.8-0.1c-0.2,0-0.4-0.1-0.6-0.1s-0.4-0.1-0.6-0.1l-0.9-0.2l0,0c-0.9-0.2-1.7-0.4-2.5-0.7h-0.1l-1.4-0.4
			c-0.8-0.3-1.6-0.5-2.2-0.8c-0.1,0-0.3-0.1-0.4-0.1l-0.4-0.1c-1-0.4-2.2-0.8-3.4-1.3l-0.8-0.3c-1.5-0.6-3.1-1.4-4.6-2.1
			c-0.6-0.3-1.2-0.6-1.7-0.9c-0.4-0.2-0.8-0.4-1.2-0.7c-0.2-0.1-0.4-0.2-0.6-0.4c0,0-0.1-0.1-0.1-0.1l-0.8-0.6
			c-1-0.8-1.7-1.6-1.6-2.2c0.2-2.3,3.9-6.9,14.3-11.8c0.3-0.2,0.7-0.4,1.1-0.5c1.6-0.7,3.3-1.4,5-2.1c0.7-0.3,1.4-0.5,2.1-0.7
			c1.9-0.6,3.8-1.2,5.6-1.6l1.8-0.4c0.7-0.2,1.4-0.3,2.1-0.4l0.4-0.1c0.3,0,0.5-0.1,0.8-0.1c1.7-0.3,3.4-0.4,5.1-0.3
			c4.6,0.5,9.7,4,13.5,7.5C246.8,426,249.1,428.7,249.3,431.9L249.3,431.9z"/>
		<path class="st6" d="M247.1,414.9l0.6-0.3l0,0c1.3-0.7,2.8-1,4.2-1c1.5,0,2.9,0.3,4.3,0.6c2.8,0.7,5.5,1.7,8.2,2.6
			c2.7,0.9,5.5,1.6,8.3,2.1c2.8,0.5,5.6,0.9,8.5,1.1c-2.9,0.2-5.8,0-8.6-0.4c-2.9-0.4-5.7-1-8.4-1.9c-2.7-0.9-5.4-2-8.1-2.8
			s-5.6-1.4-8.3-0.3l0,0L247.1,414.9z"/>
		<polygon class="st8" points="298.4,378.2 298.4,383.5 289.4,377.7 289.4,372.5 		"/>
		<path class="st16" d="M311.4,393.8c-2.4-3.7-9.6-8.7-12.6-11.7s-0.4-3.9-0.4-3.9c-2.6-2.5-5.6-4.5-9-5.8c-2.1,0.9-4.5,1.9-7,3.1
			c-11,5.1-24.4,12.5-30,18.3c-7.1,7.3-7.4,11.1-12.8,14.2s-12,3.3-24.6,7.4c-10,3.3-22.7,11-31.6,17.3c-2,1.4-3.8,2.8-5.4,4
			c0,0,3.1,3,10,5.2c0,0,1.6-1.5,6.8,0.2s13.8,6,20.3,7.3c3.2,0.7,6.6,1.1,9.9,1.1h0.1c1.2,0,2.4,0,3.7-0.2l0,0
			c0.6-0.1,1.3-0.1,1.9-0.2l0,0c1.7-0.2,3.4-0.6,5.1-1l0.8-0.2l1.2-0.4l1.2-0.4c1.1-0.4,2.3-0.9,3.5-1.5l1.4-0.7
			c0.6-0.3,1.1-0.6,1.7-0.9c8.1-4.7,10.7-9,10.7-13c0-0.8-0.1-1.7-0.3-2.5c-0.1-0.3-0.1-0.5-0.2-0.8c-0.1-0.3-0.2-0.5-0.3-0.8
			c-0.3-0.8-0.7-1.5-1.1-2.3c-0.1-0.2-0.2-0.4-0.3-0.5c-0.8-1.1-1.7-2.2-2.6-3.1l-0.5-0.5c-1-1-2.1-2-2.9-2.9l-0.4-0.4l-0.4-0.5
			c-1.8-2.1-2.4-3.9,0.3-5.5c0.2-0.1,0.4-0.2,0.6-0.3c0.2-0.1,0.4-0.2,0.6-0.3c5.7-2.1,13.3,2.9,22,4.6c3.6,0.7,7.2,1.1,10.8,1.1
			l0,0c0.7,0,1.4,0,2,0c0.4,0,0.7,0,1-0.1l1-0.1l0.9-0.1c0.1,0,0.2,0,0.3,0c0.2,0,0.5,0,0.7-0.1l0.7-0.1l0.5-0.1
			c2.5-0.4,5-1.1,7.5-1.9l0.6-0.2c2.5-0.9,4.9-2.1,7.2-3.4c7.5-4.4,9.6-8.4,9.6-11.8C313.2,397.6,312.6,395.6,311.4,393.8z
			 M249.3,431.9L249.3,431.9c0,1-0.1,2-0.5,2.9c-0.1,0.2-0.1,0.3-0.2,0.5c-0.1,0.2-0.1,0.3-0.2,0.5c-0.1,0.2-0.2,0.3-0.3,0.5
			s-0.2,0.3-0.3,0.5s-0.2,0.3-0.3,0.4l-0.4,0.5c-0.1,0.2-0.3,0.3-0.4,0.5c-0.8,0.9-1.8,1.7-2.8,2.5c-0.2,0.1-0.3,0.2-0.5,0.3
			c-0.6,0.4-1.2,0.8-1.9,1.2c-0.3,0.2-0.6,0.3-0.9,0.5c-6,3.3-12.8,4.7-19.6,4c-0.4,0-0.7-0.1-1-0.1s-0.7-0.1-1-0.1l-0.9-0.1
			l-0.8-0.1c-0.2,0-0.4-0.1-0.6-0.1s-0.4-0.1-0.6-0.1l-0.9-0.2l0,0c-0.9-0.2-1.7-0.4-2.5-0.7h-0.1l-1.4-0.4
			c-0.8-0.3-1.6-0.5-2.2-0.8c-0.1,0-0.3-0.1-0.4-0.1l-0.4-0.1c-1-0.4-2.2-0.8-3.4-1.3l-0.8-0.3c-1.5-0.6-3.1-1.4-4.6-2.1
			c-0.6-0.3-1.1-0.6-1.7-0.9c-0.4-0.2-0.8-0.4-1.2-0.7c-0.2-0.1-0.4-0.2-0.6-0.4c0,0-0.1-0.1-0.1-0.1l-0.8-0.6
			c-1-0.8-1.7-1.6-1.6-2.2c0.2-2.3,3.9-6.9,14.3-11.8c0.3-0.2,0.7-0.4,1.1-0.5c1.6-0.7,3.3-1.4,5-2.1c0.7-0.3,1.4-0.5,2.1-0.7
			c1.9-0.6,3.8-1.2,5.6-1.6l1.8-0.4c0.7-0.2,1.4-0.3,2.1-0.4l0.4-0.1c0.3,0,0.5-0.1,0.8-0.1c1.7-0.3,3.4-0.4,5.1-0.3
			c4.6,0.5,9.7,4,13.5,7.5C246.8,426,249.1,428.7,249.3,431.9z M306.4,401.9c0,0.1-0.1,0.3-0.2,0.4c0,0,0,0.1-0.1,0.1
			c-0.1,0.2-0.2,0.3-0.2,0.5c-0.1,0.2-0.2,0.4-0.3,0.5c-1.6,2.2-3.6,4-6,5.2c-6.5,3.9-14.1,5.6-21.6,4.9h-0.1l-0.7-0.1l-0.8-0.1
			l-0.4,0l-1.1-0.2l-1.2-0.2l-0.6-0.1l-0.3-0.1l-0.5-0.1l-0.4-0.1c-1.4-0.4-2.8-0.8-4.2-1.3c-1.9-0.7-3.7-1.5-5.5-2.2
			c-0.7-0.3-1.4-0.6-2-1c-0.3-0.2-0.6-0.3-0.9-0.5l-0.4-0.2l-0.4-0.3c-1-0.6-1.9-1.2-2.7-2c-0.4-0.4-0.8-0.9-1-1.5
			c-0.8-2.6,3.7-8.6,10.1-13.2c1.5-1,2.9-2,4.3-2.8l0.6-0.3l0.6-0.3l1.7-0.9c0.2-0.1,0.4-0.2,0.6-0.3l0.8-0.4
			c0.5-0.2,0.9-0.4,1.4-0.6c0.9-0.4,1.8-0.8,2.7-1.1l0.7-0.2c0.1,0,0.1,0,0.2-0.1c0.2-0.1,0.3-0.1,0.5-0.2c0.2-0.1,0.5-0.2,0.7-0.2
			l0.9-0.3c0.5-0.1,1-0.3,1.5-0.4l0.3-0.1c1.3-0.3,2.7-0.5,4-0.6c4.1-0.1,11.5,5.5,14.9,8.6C303.6,392.1,308.5,396.6,306.4,401.9
			L306.4,401.9z"/>
		<path class="st6" d="M306.8,400.5c-0.6-3.6-3.9-6.6-5.7-8.2c-3.4-3.1-10.8-8.7-14.9-8.6c-1.3,0.1-2.7,0.3-4,0.6l-0.3,0.1
			c-0.5,0.1-1,0.2-1.5,0.4l-0.9,0.3l-0.7,0.2l-0.5,0.2l-0.2,0.1c-0.2,0.1-0.5,0.1-0.7,0.2c-0.9,0.3-1.8,0.7-2.7,1.1
			c-0.5,0.2-0.9,0.4-1.4,0.6l-0.8,0.4c-0.2,0.1-0.4,0.2-0.6,0.3c-0.5,0.3-1.1,0.6-1.6,0.9l-0.6,0.3l-0.5,0.3
			c-1.4,0.8-2.9,1.8-4.3,2.8c-5.1,3.7-9,8.2-9.9,11.2c-0.1-0.1-0.1-0.3-0.2-0.4c-0.8-2.6,3.7-8.6,10.1-13.2c1.5-1.1,2.9-2,4.3-2.8
			l0.5-0.3l0.6-0.3c0.5-0.3,1.1-0.6,1.7-0.9c0.2-0.1,0.4-0.2,0.6-0.3l0.8-0.4c0.5-0.2,0.9-0.5,1.4-0.6c0.9-0.4,1.8-0.8,2.7-1.1
			c0.2-0.1,0.5-0.2,0.7-0.2c0.1,0,0.1-0.1,0.2-0.1l0.5-0.2l0.7-0.2l0.9-0.3c0.5-0.1,1-0.3,1.5-0.4l0.3,0c1.3-0.3,2.7-0.5,4-0.6
			c4.1-0.1,11.5,5.5,14.9,8.6C303.4,391.9,307.7,395.8,306.8,400.5z"/>
		<path class="st6" d="M249.3,431.9L249.3,431.9c0,0.6,0,1.1-0.1,1.7c-0.5-2.8-2.6-5-4.2-6.5c-3.8-3.4-8.9-7-13.5-7.5
			c-1.7-0.1-3.4,0-5.1,0.3l-0.8,0.1l-0.4,0.1c-0.7,0.1-1.4,0.3-2,0.4s-1.2,0.3-1.8,0.4c-1.8,0.5-3.7,1-5.6,1.6
			c-0.7,0.2-1.4,0.5-2.1,0.7c-1.7,0.6-3.4,1.3-5,2.1l-1.1,0.5c-8.4,4-12.4,7.8-13.7,10.2c-0.3-0.3-0.5-0.7-0.5-1.2
			c0.2-2.3,3.9-6.9,14.2-11.8l1.1-0.5c1.6-0.7,3.3-1.4,5-2.1c0.7-0.3,1.4-0.5,2.1-0.7c1.9-0.6,3.8-1.2,5.6-1.6l1.8-0.4
			c0.7-0.2,1.4-0.3,2.1-0.4l0.4-0.1l0.8-0.1c1.7-0.3,3.4-0.4,5.1-0.3c4.6,0.5,9.7,4,13.5,7.5C246.8,426,249.1,428.7,249.3,431.9z"/>
		<path class="st20" d="M301.2,389.9c2.6,2.4,8.3,7.6,4.5,13.5c-1.6,2.2-3.6,4-6,5.2c-6.5,3.9-14.1,5.6-21.6,4.9h-0.1l-0.7-0.1
			l-0.8-0.1l-0.4,0l-1.1-0.2c-0.4-0.1-0.8-0.1-1.2-0.2l-0.6-0.1l-0.3-0.1l-0.5-0.1l-0.4-0.1c-1.4-0.4-2.9-0.8-4.2-1.3
			c-5.9-2.2-12.1-5.1-12.9-7.8s3.7-8.6,10.1-13.2c1.5-1.1,2.9-2,4.3-2.9l0.5-0.3l0.6-0.3l1.6-0.9l0.6-0.3c0.3-0.1,0.5-0.3,0.8-0.4
			c0.5-0.2,0.9-0.5,1.4-0.6c0.9-0.4,1.8-0.8,2.7-1.1l0.7-0.2c0.1,0,0.1,0,0.2-0.1l0.5-0.2c0.2-0.1,0.5-0.2,0.7-0.2s0.6-0.2,0.9-0.3
			c0.5-0.1,1-0.3,1.5-0.4l0.3-0.1c1.3-0.3,2.7-0.5,4-0.6C290.4,381.2,297.8,386.8,301.2,389.9z"/>
		<path class="st26" d="M301.2,389.9c2.6,2.4,8.3,7.6,4.5,13.5c-1.6,2.2-3.6,4-6,5.2c-6.5,3.9-14.1,5.6-21.6,4.9h-0.1l-0.7-0.1
			l-0.8-0.1l-0.4,0l-1.1-0.2c-0.4-0.1-0.8-0.1-1.2-0.2l-0.6-0.1l-0.3-0.1l-0.5-0.1l-0.4-0.1c-1.4-0.4-2.9-0.8-4.2-1.3
			c-5.9-2.2-12.1-5.1-12.9-7.8s3.7-8.6,10.1-13.2c1.5-1.1,2.9-2,4.3-2.9l0.5-0.3l0.6-0.3l1.6-0.9l0.6-0.3c0.3-0.1,0.5-0.3,0.8-0.4
			c0.5-0.2,0.9-0.5,1.4-0.6c0.9-0.4,1.8-0.8,2.7-1.1l0.7-0.2c0.1,0,0.1,0,0.2-0.1l0.5-0.2c0.2-0.1,0.5-0.2,0.7-0.2s0.6-0.2,0.9-0.3
			c0.5-0.1,1-0.3,1.5-0.4l0.3-0.1c1.3-0.3,2.7-0.5,4-0.6C290.4,381.2,297.8,386.8,301.2,389.9z"/>
		<path class="st20" d="M244.9,424.3c1.9,1.7,4.2,4.4,4.4,7.5l0,0c0.1,3.2-1.9,7-8.8,10.9c-6,3.3-12.8,4.7-19.6,4
			c-0.4,0-0.7-0.1-1-0.1s-0.7-0.1-1-0.1l-0.9-0.1l-0.8-0.1l-0.6-0.1L216,446l-0.9-0.2l0,0c-0.9-0.2-1.7-0.4-2.5-0.7h-0.1l-1.4-0.4
			c-0.8-0.3-1.6-0.5-2.2-0.8l-0.4-0.1l-0.4-0.1c-5.4-2-15.1-6.2-14.9-8.6s3.9-6.9,14.3-11.8c0.3-0.2,0.7-0.4,1.1-0.5
			c1.6-0.7,3.3-1.4,5-2.1c0.7-0.3,1.4-0.5,2.1-0.7c1.9-0.6,3.8-1.2,5.6-1.6l1.8-0.4c0.7-0.2,1.4-0.3,2-0.4l0.4-0.1l0.8-0.1
			c1.7-0.3,3.4-0.4,5.1-0.3C236,417.3,241.1,420.9,244.9,424.3z"/>
		<path class="st26" d="M244.9,424.3c1.9,1.7,4.2,4.4,4.4,7.5l0,0c0.1,3.2-1.9,7-8.8,10.9c-6,3.3-12.8,4.7-19.6,4
			c-0.4,0-0.7-0.1-1-0.1s-0.7-0.1-1-0.1l-0.9-0.1l-0.8-0.1l-0.6-0.1L216,446l-0.9-0.2l0,0c-0.9-0.2-1.7-0.4-2.5-0.7h-0.1l-1.4-0.4
			c-0.8-0.3-1.6-0.5-2.2-0.8l-0.4-0.1l-0.4-0.1c-5.4-2-15.1-6.2-14.9-8.6s3.9-6.9,14.3-11.8c0.3-0.2,0.7-0.4,1.1-0.5
			c1.6-0.7,3.3-1.4,5-2.1c0.7-0.3,1.4-0.5,2.1-0.7c1.9-0.6,3.8-1.2,5.6-1.6l1.8-0.4c0.7-0.2,1.4-0.3,2-0.4l0.4-0.1l0.8-0.1
			c1.7-0.3,3.4-0.4,5.1-0.3C236,417.3,241.1,420.9,244.9,424.3z"/>
	</g>
</g>
</svg>
