<?xml version="1.0" encoding="utf-8"?>
<!-- Generator: Adobe Illustrator 27.3.1, SVG Export Plug-In . SVG Version: 6.00 Build 0)  -->
<svg version="1.1" id="Layer_1" xmlns="http://www.w3.org/2000/svg" xmlns:xlink="http://www.w3.org/1999/xlink" x="0px" y="0px"
	 viewBox="0 0 500 500" style="enable-background:new 0 0 500 500;" xml:space="preserve">
<style type="text/css">
	.st0{fill:#E0E0E0;}
	.st1{fill:#FAFAFA;}
	.st2{opacity:0.1;}
	.st3{fill:#F0F0F0;}
	.st4{opacity:0.1;enable-background:new    ;}
	.st5{fill:#263238;}
	.st6{fill:#455A64;}
	.st7{fill:#37474F;}
	.st8{fill:#B3C6B0;}
	.st9{opacity:0.2;enable-background:new    ;}
	.st10{opacity:0.3;enable-background:new    ;}
	.st11{opacity:0.3;fill:#FFFFFF;enable-background:new    ;}
	.st12{opacity:0.8;fill:#FFFFFF;enable-background:new    ;}
	.st13{opacity:0.3;fill:#B3C6B0;enable-background:new    ;}
	.st14{opacity:0.5;fill:#B3C6B0;enable-background:new    ;}
</style>
<g>
	<path class="st0" d="M476.3,318c-10.6-21.7-30.8-42.2-60.4-59.3c-92.5-53.2-242.2-53.2-334.4,0s-92.2,139.5,0,192.8
		c28.7,16.6,63.1,28,99.5,34.3l292.9-169L476.3,318z"/>
	<path class="st0" d="M415.8,451.5c35.4-20.4,57.2-45.5,65.5-71.9l-184.8,109C340.2,483.4,381.9,471,415.8,451.5z"/>
	<path class="st1" d="M476.3,318l-2.4-1.2L181,485.7c37.5,6.4,77.3,7.4,115.5,2.8l184.8-109C487.8,359.2,486.1,338,476.3,318z"/>
</g>
<g>
	<g id="freepik--building-3--inject-16">
		<g id="freepik--burning-building--inject-16">
			<g id="freepik--Smoke--inject-16">
				<g class="st2">
					<path d="M35,207.2c-1.2-0.1-2.5,0.1-3.6,0.6C32.6,208,33.9,207.8,35,207.2z"/>
				</g>
				<g class="st2">
					<path d="M164.2-55.6c1-0.5,1.9-1,2.8-1.5L164.2-55.6z"/>
				</g>
			</g>
			<g id="freepik--Coffee--inject-16">
				<g id="freepik--Wall--inject-16">
					<polygon class="st3" points="232.5,427.7 100.5,351.5 100.5,99.5 232.5,175.8 					"/>
				</g>
				<g id="freepik--wall--inject-16">
					<polygon class="st1" points="232.5,427.7 379.1,343 379.1,91.1 232.5,175.8 					"/>
				</g>
				<polygon id="freepik--shadow--inject-16_00000044868682155056339780000011122680529594892715_" class="st4" points="
					105.6,102.5 100.5,105.4 100.5,119.3 232.5,195.5 379.1,110.8 379.1,101.6 370,96.3 362,100.9 371.1,106.2 232.5,186.2 
					104.5,112.3 104.5,112.3 113.6,107.1 				"/>
				<g id="freepik--Roof--inject-16">
					<polyline class="st5" points="243.1,17.2 243.1,26.4 363.1,95.7 371.1,91.1 243.1,17.2 					"/>
					<polyline class="st5" points="232.5,180.4 88.5,97.2 88.5,106.5 232.5,189.6 232.5,180.4 					"/>
					<path class="st6" d="M251.1,12.5l-8-4.6L88.5,97.2l144,83L387.1,91L251.1,12.5z M232.5,171.1l-128-73.9l0,0l138.6-79.9
						l128,73.9L232.5,171.1z"/>
					<polygon class="st7" points="387.1,91.1 387.1,100.3 232.5,189.6 232.5,180.4 					"/>
					<polygon class="st7" points="243.1,17.2 243.1,26.4 112.5,101.8 104.5,97.2 					"/>
					<polygon class="st0" points="243.1,26.4 363.1,95.7 232.5,171.1 112.5,101.8 					"/>
					<polygon class="st4" points="356.7,99.4 234.6,31.3 243.1,17.2 371.1,91.1 					"/>
					<polygon class="st4" points="195.7,59.2 128.3,98.2 175.7,125.5 243.1,86.7 					"/>
					<polygon class="st1" points="196.2,50.5 171.7,64.6 205.9,84.4 230.4,70.2 					"/>
					<polygon class="st0" points="171.7,64.6 171.7,78.7 205.9,98.5 205.9,84.4 					"/>
					<polygon class="st3" points="230.4,70.2 230.4,84.4 205.9,98.5 205.9,84.4 					"/>
					<path class="st0" d="M188.1,60.1c-4.4,2.5-4.4,6.7,0,9.3c5.1,2.6,11,2.6,16.1,0c4.5-2.5,4.5-6.7,0-9.3
						C199.1,57.5,193.1,57.5,188.1,60.1z"/>
					<path class="st1" d="M192.4,62.6c-2.1,1.1-2.1,2.9,0,4c2.4,1.1,5.2,1.1,7.5,0c2.1-1.1,2.1-2.9,0-4
						C197.5,61.5,194.8,61.5,192.4,62.6z"/>
					<path class="st8" d="M218.4,98.2c-0.7,0-1.2-0.5-1.2-1.2v-7.8l-4.3-2.5c-0.6-0.3-0.8-1-0.5-1.6s1-0.8,1.6-0.5
						c0,0,0.1,0,0.1,0.1l4.9,2.8c0.4,0.2,0.6,0.6,0.6,1.1v8.5C219.6,97.6,219.1,98.1,218.4,98.2L218.4,98.2z"/>
					<path class="st8" d="M225.5,94.1c-0.7,0-1.2-0.5-1.2-1.2l0,0v-7.8l-4.3-2.5c-0.6-0.3-0.8-1-0.4-1.6l0,0
						c0.3-0.6,1.1-0.8,1.6-0.5l4.9,2.8c0.4,0.2,0.6,0.6,0.6,1.1v8.5C226.8,93.5,226.2,94.1,225.5,94.1L225.5,94.1z"/>
					<polygon class="st1" points="161.9,70.2 137.4,84.4 171.7,104.2 196.2,90 					"/>
					<polygon class="st0" points="137.4,84.4 137.4,98.5 171.7,118.3 171.7,104.2 					"/>
					<polygon class="st3" points="196.2,90 196.2,104.2 171.7,118.3 171.7,104.2 					"/>
					<path class="st0" d="M153.8,79.7c-4.5,2.5-4.5,6.7,0,9.3c5.1,2.6,11,2.6,16.1,0c4.4-2.5,4.4-6.7,0-9.3
						C164.9,77.2,158.9,77.2,153.8,79.7z"/>
					<path class="st1" d="M158.1,82.4c-2.1,1.1-2.1,2.9,0,4c2.4,1.1,5.2,1.1,7.5,0c2.1-1.1,2.1-2.9,0-4
						C163.3,81.3,160.5,81.3,158.1,82.4z"/>
					<path class="st8" d="M184.1,118c-0.7,0-1.2-0.5-1.2-1.2l0,0V109l-4.3-2.5c-0.6-0.3-0.8-1.1-0.4-1.7l0,0c0.3-0.6,1-0.8,1.6-0.4
						l0,0l4.9,2.8c0.4,0.2,0.6,0.6,0.6,1.1v8.5C185.4,117.4,184.8,117.9,184.1,118C184.2,118,184.2,118,184.1,118z"/>
					<path class="st8" d="M191.2,113.9c-0.7,0-1.2-0.5-1.2-1.2v-7.8l-4.3-2.5c-0.6-0.3-0.8-1.1-0.5-1.7c0.4-0.6,1.1-0.7,1.7-0.4
						l4.9,2.8c0.4,0.2,0.6,0.6,0.6,1.1v8.5C192.5,113.3,192,113.8,191.2,113.9C191.3,113.9,191.3,113.9,191.2,113.9z"/>
				</g>
				<g id="freepik--Window--inject-16">
					<polygon class="st7" points="143.6,175.1 143.6,234.5 183.5,257.6 183.5,198.2 					"/>
					<polygon class="st5" points="148.4,231.3 183.5,251.6 183.5,198.2 148.4,177.9 					"/>
					<polygon class="st6" points="143.6,175.1 148.4,177.9 148.4,231.3 143.6,234.5 					"/>
					<polygon class="st8" points="188,260.1 139.2,232 137,233.2 185.8,261.4 					"/>
					<polygon class="st8" points="185.8,261.4 185.8,266.5 137,238.4 137,233.2 					"/>
					<polygon class="st9" points="185.8,261.4 185.8,266.5 137,238.4 137,233.2 					"/>
					<polygon class="st8" points="188,260.1 188,265.3 185.8,266.5 185.8,261.4 					"/>
					<polygon class="st10" points="188,260.1 188,265.3 185.8,266.5 185.8,261.4 					"/>
					<polygon class="st6" points="165.8,241.4 165.8,187.9 163.2,186.4 163.2,239.9 					"/>
				</g>
				<g id="freepik--window--inject-16">
					<polygon class="st7" points="288.2,189.4 288.2,248.8 248.2,271.9 248.2,212.5 					"/>
					<polygon class="st5" points="283.4,245.7 248.2,266 248.2,212.5 283.4,192.2 					"/>
					<polygon class="st6" points="288.2,189.4 283.4,192.2 283.4,245.7 288.2,248.8 					"/>
					<polygon class="st8" points="243.8,274.5 292.6,246.3 294.8,247.5 246,275.7 					"/>
					<polygon class="st8" points="246,275.7 246,280.9 294.8,252.7 294.8,247.5 					"/>
					<polygon class="st9" points="246,275.7 246,280.9 294.8,252.7 294.8,247.5 					"/>
					<polygon class="st8" points="243.8,274.5 243.8,279.6 246,280.9 246,275.7 					"/>
					<polygon class="st10" points="243.8,274.5 243.8,279.6 246,280.9 246,275.7 					"/>
					<polygon class="st6" points="266,255.7 266,202.2 268.6,200.7 268.6,254.2 					"/>
				</g>
				<g id="freepik--window--inject-16_00000122685819340262492820000011445049928066732431_">
					<polygon class="st7" points="357.6,257.8 357.6,317.2 317.6,340.3 317.6,280.9 					"/>
					<polygon class="st5" points="352.8,314 317.6,334.3 317.6,280.9 352.8,260.5 					"/>
					<polygon class="st6" points="357.6,257.8 352.8,260.5 352.8,314 357.6,317.2 					"/>
					<polygon class="st8" points="313.2,342.8 362,314.7 364.2,315.9 315.4,344.1 					"/>
					<polygon class="st8" points="315.4,344.1 315.4,349.2 364.2,321 364.2,315.9 					"/>
					<polygon class="st9" points="315.4,344.1 315.4,349.2 364.2,321 364.2,315.9 					"/>
					<polygon class="st8" points="313.2,342.8 313.2,348 315.4,349.2 315.4,344.1 					"/>
					<polygon class="st10" points="313.2,342.8 313.2,348 315.4,349.2 315.4,344.1 					"/>
					<polygon class="st6" points="335.4,324.1 335.4,270.6 337.9,269.1 337.9,322.6 					"/>
				</g>
				<g id="freepik--window--inject-16_00000003077433654964296750000003391223176254042045_">
					<polygon class="st7" points="359.6,148.2 359.6,207.6 319.6,230.7 319.6,171.3 					"/>
					<polygon class="st5" points="354.8,204.4 319.6,224.7 319.6,171.3 354.8,151 					"/>
					<polygon class="st6" points="359.6,148.2 354.8,151 354.8,204.4 359.6,207.6 					"/>
					<polygon class="st8" points="315.2,233.2 364,205.1 366.2,206.3 317.4,234.5 					"/>
					<polygon class="st8" points="317.4,234.5 317.4,239.6 366.2,211.5 366.2,206.3 					"/>
					<polygon class="st9" points="317.4,234.5 317.4,239.6 366.2,211.5 366.2,206.3 					"/>
					<polygon class="st8" points="315.2,233.2 315.2,238.4 317.4,239.6 317.4,234.5 					"/>
					<polygon class="st10" points="315.2,233.2 315.2,238.4 317.4,239.6 317.4,234.5 					"/>
					<polygon class="st6" points="337.4,214.5 337.4,161 340,159.5 340,213 					"/>
				</g>
				<g id="freepik--Door--inject-16">
					<polygon class="st8" points="296.6,390.5 297.9,391.3 297.9,305.7 296.6,306.4 					"/>
					<polygon class="st9" points="296.6,390.5 297.9,391.3 297.9,305.7 296.6,306.4 					"/>
					<polygon class="st8" points="297.9,391.3 303,388.3 303,296.9 253.3,325.6 253.3,417 258.4,414.1 258.4,328.5 297.9,305.7 
											"/>
					<polygon class="st8" points="303,296.9 253.3,325.6 252,324.8 301.8,296.1 					"/>
					<polygon class="st11" points="303,296.9 253.3,325.6 252,324.8 301.8,296.1 					"/>
					<polygon class="st8" points="253.3,417 253.3,325.6 252,324.8 252,416.3 					"/>
					<polyline class="st9" points="252,324.8 252,416.3 253.3,417 253.3,325.6 					"/>
					<polygon class="st7" points="297.9,305.8 297.9,391.3 258.4,413.8 258.4,328.6 					"/>
					<polygon class="st6" points="258.4,328.6 258.4,408.8 293.6,388.5 293.6,308.3 					"/>
					<path class="st5" d="M265.1,401.6H265c-0.1-0.1-0.1-0.2-0.1-0.3c0-0.5-0.1-0.9-0.5-1.2c-0.3-0.2-0.6-0.2-0.9,0h-0.3
						c-0.1-0.1-0.1-0.2-0.1-0.3v-23.6c0-0.1,0.1-0.2,0.1-0.2c1-0.8,1.7-2,1.7-3.3c0-0.1,0.1-0.2,0.1-0.2l21.9-12.7
						c0.1-0.1,0.2-0.1,0.3,0c0.1,0.1,0.1,0.2,0.1,0.3c-0.1,0.5,0.1,0.9,0.5,1.2c0.3,0.2,0.6,0.2,0.9,0h0.3c0.1,0.1,0.1,0.2,0.1,0.3
						v23.7c0,0.1-0.1,0.2-0.1,0.2c-1,0.8-1.7,2-1.7,3.3c0,0.1-0.1,0.2-0.1,0.2l-21.8,12.6H265.1z M263.9,399.4
						c0.2,0,0.4,0.1,0.6,0.2c0.4,0.3,0.7,0.8,0.7,1.3l21.4-12.3c0.1-1.4,0.7-2.7,1.8-3.5V362c-0.3,0.1-0.7,0.1-1.1,0
						c-0.4-0.3-0.7-0.8-0.7-1.3l-21.5,12.2c-0.1,1.4-0.7,2.7-1.8,3.5v23.1L263.9,399.4z"/>
					<polygon class="st5" points="293.6,388.5 297.9,391.3 258.4,414.1 258.4,408.8 					"/>
					<polygon class="st8" points="287.1,317.4 263.5,331 263.5,368.4 287.1,354.8 					"/>
					<polygon class="st12" points="287.1,317.4 263.5,331 263.5,368.4 287.1,354.8 					"/>
					<polygon class="st7" points="273.9,362.4 275.3,363.2 263.5,370.1 263.5,368.4 					"/>
					<polygon class="st5" points="287.1,354.8 287.1,317.4 288.5,316.5 288.5,355.6 					"/>
					<polygon class="st7" points="287.1,354.8 288.5,355.6 276.8,362.4 276.8,360.7 					"/>
					<polygon class="st6" points="275.3,363.2 276.8,362.4 276.8,323.3 275.3,324.2 					"/>
					<polygon class="st5" points="275.3,363.2 273.9,362.4 273.9,325 275.3,324.2 					"/>
					<polygon class="st6" points="275.3,340.4 273.9,339.6 263.5,345.6 263.5,347.3 					"/>
					<polygon class="st5" points="275.3,340.4 275.3,342.1 263.5,349 263.5,347.3 					"/>
					<polygon class="st6" points="288.5,332.8 287.1,332 276.8,337.9 276.8,339.6 					"/>
					<polygon class="st5" points="288.5,332.8 288.5,334.5 276.8,341.3 276.8,339.6 					"/>
				</g>
			</g>
			<g id="freepik--fire--inject-16">
				<path class="st13" d="M183.5,219.6c-3.3-2.8-7.1-4.8-10.4-7.7s-2.4-7.7-3.4-11.6c-1.1-4.4-4-8.1-7.9-10.4
					c-4.2-2.5-9.6-3.2-12.6-7c-4.8-6.3,0.2-16-3.4-23c-3.8-7.4-15.1-8.1-19.1-15.3c0.4,3.4,3.2,6,5,8.9c2.8,4.5,3.2,10,1.2,14.9
					c-0.8,1.9-1.9,3.6-2.5,5.6c-1.6,4.9-0.9,12.5,2.7,16.4c-3.1-2.2-5.6-5-7.5-8.2c-1-1.9-1.6-4-1.8-6.1c0-3.5-0.4-6.9-1.3-10.3
					c-1.7-3.5-4.2-6.6-7.4-8.9c-2.5-1.9-4.6-4.4-6.1-7.2c-1.1-2.5-2.9-6-1.3-8.7c-3.1,4.9-2.5,11.3-0.5,16.9s4.9,10.6,6.1,16.3
					c1.6,7.4,0,15.1-0.3,22.6c-0.5,5.5,0.5,11,2.9,16c2.5,5,7.8,7.8,8.8,13.6c0.1,2.8,0.3,5.6,0.7,8.3c1.1,3.3,3.3,6,6.1,8
					c1.3,0.9,2.5,1.9,3.6,3c0.7,1,1.5,1.9,2.3,2.7c2.5,1.9,5.3,3.4,8.3,4.2c10.6,3.5,21.7,5.3,32.9,5.3c1.6,0.1,3.2-0.1,4.8-0.5
					L183.5,219.6z"/>
				<path class="st14" d="M183.5,226.8c-0.5-0.4-1-0.8-1.5-1.2c-5.2-3.9-12.2-6.5-16.2-11.8c-3.6-4.8-2.8-12-6.7-16.6
					c-2.5-3-6.5-4.2-9.8-6.3c-5.7-3.8-8.9-10.3-8.6-17.1c-1.6,4.5-2.8,9.5-1.1,14c1.2,3,3.5,5.4,4.4,8.5c0.8,4,0.1,8.2-1.9,11.7
					c0-4.4-3.5-7.9-7.3-10.1c-3.8-2.2-8-3.9-10.7-7.3c-1.9-3-3.2-6.3-3.6-9.8c0.4,4.2,0.1,8.5-0.7,12.7c-0.9,2.8-1.1,5.8-0.5,8.7
					c1.2,3.7,5,5.7,8,8.4c2.6,2.4,4.3,5.6,5,9.1c0.7,3.9,0,8.1,1.3,11.9c0.7,2,1.7,3.9,2.9,5.6c3.8,6,9.6,10.5,16.3,12.6
					c3,0.7,6.1,1,9.3,1l15.7,0.5c1.9,0.1,3.9,0.1,5.8-0.2L183.5,226.8z"/>
			</g>
			<g id="freepik--fire--inject-16_00000000938227576626094730000008371236624190573446_">
				<path class="st13" d="M248.2,233.6c3.3-2.8,7.1-4.8,10.4-7.7c3.2-2.9,2.5-7.7,3.3-11.6c1.1-4.4,4-8.1,7.9-10.4
					c4.2-2.5,9.6-3.2,12.6-7c4.8-6.2-0.2-16,3.4-23s15.1-8.1,19.1-15.3c-0.3,3.4-3.2,6-5,8.9c-2.8,4.5-3.2,10-1.2,14.9
					c0.8,1.9,1.9,3.6,2.5,5.6c1.6,5,0.9,12.6-2.7,16.4c3.1-2.1,5.7-4.9,7.7-8.2c1-1.9,1.6-4,1.8-6.2c0-3.5,0.4-6.9,1.2-10.3
					c1.7-3.5,4.2-6.6,7.4-8.9c2.5-1.9,4.6-4.4,6.1-7.2c1.1-2.5,2.9-6,1.3-8.7c3.1,4.9,2.5,11.3,0.5,16.8s-4.9,10.6-6.1,16.3
					c-1.6,7.4,0,15.1,0.3,22.6c0.5,5.5-0.5,11-2.9,16c-2.5,5-7.8,7.7-8.8,13.6c-0.1,2.8-0.3,5.6-0.7,8.3c-1.1,3.3-3.3,6-6.1,8
					c-1.3,0.9-2.5,1.9-3.6,3c-0.7,0.9-1.5,1.8-2.3,2.7c-2.5,1.9-5.3,3.4-8.3,4.3c-10.6,3.5-21.7,5.3-32.9,5.3
					c-1.6,0-3.2-0.1-4.8-0.5L248.2,233.6z"/>
				<path class="st14" d="M248.2,240.7c0.5-0.4,1-0.8,1.5-1.2c5.2-3.9,12.2-6.6,16.2-11.8c3.6-4.8,2.8-12,6.7-16.5
					c2.5-3,6.5-4.2,9.8-6.3c5.7-3.8,8.9-10.3,8.6-17.2c1.6,4.5,2.8,9.5,1.1,14c-1.2,3-3.5,5.4-4.5,8.5c-0.7,4-0.1,8.2,1.9,11.7
					c-0.1-4.4,3.5-7.8,7.3-10.1s8.1-3.9,10.7-7.3c1.9-3,3.2-6.3,3.6-9.8c-0.4,4.2-0.1,8.4,0.7,12.6c0.9,2.8,1.1,5.8,0.5,8.7
					c-1.2,3.7-5.2,5.7-8,8.4c-2.6,2.4-4.3,5.6-5,9.1c-0.7,3.9,0,8.1-1.3,11.9c-0.7,2-1.6,3.9-2.9,5.6c-3.8,6-9.5,10.5-16.3,12.6
					c-3,0.6-6.1,1-9.3,1l-15.7,0.5c-1.9,0.1-3.9,0.1-5.8-0.2L248.2,240.7z"/>
				<path class="st13" d="M317.4,299c3.3-2.8,7.1-4.8,10.4-7.7c3.2-2.9,2.5-7.7,3.3-11.6c1.1-4.4,4-8.1,7.9-10.4
					c4.2-2.5,9.6-3.2,12.6-7c4.8-6.2-0.2-16,3.4-23s15.1-8.1,19.1-15.3c-0.3,3.4-3.2,6-5,8.9c-2.8,4.5-3.2,10-1.2,14.9
					c0.8,1.9,1.9,3.6,2.5,5.6c1.6,5,0.9,12.6-2.7,16.4c3.1-2.1,5.7-4.9,7.7-8.2c1-1.9,1.6-4,1.8-6.2c0-3.5,0.4-6.9,1.2-10.3
					c1.7-3.5,4.2-6.6,7.4-8.9c2.5-1.9,4.6-4.4,6.1-7.2c1.1-2.5,2.9-6,1.3-8.7c3.1,4.9,2.5,11.3,0.5,16.8s-4.9,10.6-6.1,16.3
					c-1.6,7.4,0,15.1,0.3,22.6c0.5,5.5-0.5,11-2.9,16c-2.5,5-7.8,7.7-8.8,13.6c-0.1,2.8-0.3,5.6-0.7,8.3c-1.1,3.3-3.3,6-6.1,8
					c-1.3,0.9-2.5,1.9-3.6,3c-0.7,0.9-1.5,1.8-2.3,2.7c-2.5,1.9-5.3,3.4-8.3,4.3c-10.6,3.5-21.7,5.3-32.9,5.3
					c-1.6,0-3.2-0.1-4.8-0.5L317.4,299z"/>
				<path class="st14" d="M317.4,306.1c0.5-0.4,1-0.8,1.5-1.2c5.2-3.9,12.2-6.6,16.2-11.8c3.6-4.8,2.8-12,6.7-16.5
					c2.5-3,6.5-4.2,9.8-6.3c5.7-3.8,8.9-10.3,8.6-17.2c1.6,4.5,2.8,9.5,1.1,14c-1.2,3-3.5,5.4-4.5,8.5c-0.7,4-0.1,8.2,1.9,11.7
					c-0.1-4.4,3.5-7.8,7.3-10.1c3.7-2.2,8.1-3.9,10.7-7.3c1.9-3,3.2-6.3,3.6-9.8c-0.4,4.2-0.1,8.4,0.7,12.6c0.9,2.8,1.1,5.8,0.5,8.7
					c-1.2,3.7-5.2,5.7-8,8.4c-2.6,2.4-4.3,5.6-5,9.1c-0.7,3.9,0,8.1-1.3,11.9c-0.7,2-1.6,3.9-2.9,5.6c-3.8,6-9.5,10.5-16.3,12.6
					c-3,0.6-6.1,1-9.3,1l-15.7,0.5c-1.9,0.1-3.9,0.1-5.8-0.2L317.4,306.1z"/>
			</g>
			<g id="freepik--fire--inject-16_00000181066340445764002670000017833132313366837141_">
				<path class="st13" d="M319.6,198.2c3.3-2.8,7.1-4.8,10.4-7.7c3.2-2.9,2.4-7.7,3.3-11.6c1.1-4.4,4-8.1,7.9-10.4
					c4.2-2.5,9.6-3.2,12.6-7c4.8-6.2-0.2-16,3.4-23c3.8-7.4,15.1-8.1,19.1-15.3c-0.3,3.4-3.2,6-5,8.9c-2.8,4.5-3.2,10-1.2,14.9
					c0.8,1.9,1.9,3.6,2.5,5.6c1.6,5,0.9,12.6-2.7,16.4c3.1-2.1,5.7-4.9,7.7-8.2c1-1.9,1.6-4,1.8-6.2c0-3.5,0.4-6.9,1.2-10.3
					c1.7-3.5,4.2-6.6,7.4-8.9c2.5-1.9,4.6-4.4,6.1-7.2c1.1-2.5,2.9-6,1.3-8.7c3.1,4.9,2.5,11.4,0.5,16.9s-4.9,10.6-6.1,16.3
					c-1.6,7.4,0,15.1,0.3,22.6c0.5,5.5-0.5,11-2.9,16c-2.5,4.9-7.8,7.7-8.8,13.6c-0.1,2.8-0.3,5.6-0.7,8.3c-1.1,3.3-3.3,6-6.1,8
					c-1.3,0.9-2.5,1.9-3.6,3c-0.7,1-1.5,1.9-2.3,2.7c-2.5,1.9-5.3,3.3-8.3,4.2c-10.6,3.5-21.7,5.3-32.9,5.4c-1.6,0-3.2-0.1-4.8-0.5
					L319.6,198.2z"/>
				<path class="st14" d="M319.6,205.4l1.5-1.2c5.2-3.8,12.2-6.5,16.2-11.8c3.6-4.8,2.8-12,6.7-16.6c2.5-3,6.5-4.2,9.8-6.3
					c5.7-3.8,8.9-10.3,8.6-17.1c1.6,4.5,2.8,9.5,1.1,14c-1.2,3-3.5,5.4-4.5,8.5c-0.7,4-0.1,8.2,1.9,11.7c-0.1-4.4,3.5-7.9,7.3-10.1
					c3.7-2.2,8.1-3.9,10.7-7.3c1.9-3,3.2-6.3,3.6-9.8c-0.4,4.2-0.1,8.4,0.7,12.6c0.9,2.8,1.1,5.8,0.5,8.7c-1.2,3.7-5,5.7-8,8.4
					c-2.6,2.5-4.3,5.6-5,9.1c-0.7,3.9,0,8-1.3,11.9c-0.7,2-1.6,3.9-2.9,5.6c-3.8,6-9.5,10.5-16.3,12.6c-3,0.7-6.1,1-9.3,1l-15.7,0.5
					c-1.9,0.1-3.9,0-5.8-0.2L319.6,205.4z"/>
			</g>
		</g>
	</g>
	<g>
		<g>
			<path class="st4" d="M177,108.9c-0.5-11.8,1.7-23.2,0.9-35.1c-0.4-5.6-0.1-10.8-4.9-14.5c-2.8-2.3-8.1-5.1-11.7-3.1
				c2.6-1.7,3.4-5.2,1.9-7.9c-1.6-2.6-4.4-4.3-7.4-4.5c-4.2-0.5-8.9,1.4-10.7,5.1c-3.2-5.7-10.7-7.6-17.3-7.2
				c-3.7,0.1-7.3,1.1-10.5,3c-3.2,2-5.2,5.4-5.4,9.1c-12.3-5.2-26.3-5-38.4,0.6c-4.6,2-8.7,5.2-11.7,9.3c-3,4.1-4,9.4-2.6,14.4
				c2.2,6.8,9.4,10.7,16.3,12.2c-2.5,2.9-5,6-5.7,9.7s1.2,8.3,4.9,9.1c2.4,0.5,5.3-0.4,7,1.4c0.5,0.6,0.9,1.3,1.2,2
				c2.3,3.6,7.4,3.2,11.7,3.4c0.9-0.1,1.8,0.2,2.5,0.8c0.8,0.8,0.8,2.2,1,3.4c0.4,2.1,1.8,3.8,3.8,4.6c-3.3,3.4-8.7,3.1-13.4,3.4
				c-4.7,0.3-10.3,2.4-10.9,7.1c-0.1,0.7,0,1.4,0.3,2c1.2,2.3,5.3,1.7,6.4,4.1c0.5,1.5-0.1,3.2-1.5,4.1c-1.4,0.8-2.8,1.4-4.4,1.7
				c-2.5,0.8-4.8,2.1-6.8,3.7c-1.2,0.9-2.1,2.1-2.7,3.4c-1.1,3.1,1.1,6.6,4,8.1s6.3,1.5,9.6,1.5c0.6,4.4-1.8,8.5-2.8,12.8
				c-1.1,4.3,0.3,10.1,4.6,10.9c2.3,0.4,4.6-0.8,7-1.2s5.5,0.7,5.4,3.1c0,2.6-3.6,3.4-5.5,5.2c-2.3,2-2.5,5.4-0.5,7.7
				c1.3,1.4,3.2,2.1,5.1,1.7c1.8-0.3,3.5-1.5,5.2-1c2.2,0.7,2.6,3.7,4.2,5.4c2.5,2.8,7,1.6,10.7,1.9c3.5,0.3,6.6,2.1,9.8,3.6
				c9.5,4.5,20.6,6.5,30.4,2.9c9.9-3.6,17.7-13.6,16.3-24c-0.6-4.1-2.4-7.9-3.6-11.9s-1.5-8.6,0.8-12.1c1.5-2.1,3.6-3.6,5.2-5.6
				c1.8-2.6,3-5.5,3.4-8.7c1.3-6.3,1.8-12.7,1.6-19.1C179.1,126.4,177.4,117.7,177,108.9z"/>
			<path class="st4" d="M155.8,216.6c9.1-3.3,16.5-12.2,16.4-21.8c-2.4,1.4-5.3,1.8-7.9,0.9c-3.5-1.1-6.3-3.7-9-6.3
				c-3.8,4.5-10.5,5.1-15,1.3c-1.8-1.5-3-3.5-3.5-5.8c-2.2,2.3-4.9,4.5-8.2,4.8c-3.2,0.3-6.8-2.2-6.5-5.4c-2.9,2.4-6.7,4.1-10.3,3.1
				c-3.6-1-6-5.7-3.8-8.7c-3,0.4-6.1,0.2-9-0.6c-3-0.9-5.2-3.3-5.9-6.3c-0.3-2.3,0.9-4.6,3-5.7c-2.3-0.4-4.1-2.3-4.4-4.6
				c-0.2-3.1,2.1-5.9,4.9-7.1c2.9-1.1,6-1.6,9-1.3c-2.7,0.2-4-3.7-2.5-6c1.5-2.2,4.4-2.9,7.1-3.5c-4.1,0.6-8.2-0.5-11.5-2.9
				c-0.7-0.5-1.3-1.2-1.5-2c-0.1-1,0.3-1.9,1-2.5c4.4-4.8,11.8-4.7,18.3-4.1c-4.1-0.8-5.7-6.4-3.8-10.3s5.7-6,9.4-8.1
				c-2.6,0.6-5.3,0.6-7.9,0c-2.5-0.8-4.7-3.3-4.3-5.9c-3.2,1.7-7.2,2.7-10.3,0.9s-4.1-7.1-0.9-8.8c-3.3-0.4-6.6,1-9.9,1
				s-7.2-2.8-6.3-6c1.1-3.8,7.1-3.4,9.6-6.5c-3.5,1.2-7.3-0.6-8.5-4.1c-0.9-2.5-0.2-5.2,1.7-7.1c-7,1-14.7-1.7-18.3-7.8
				c-1.7-3.1-2.1-6.7-1.2-10c-1.5,1.3-2.9,2.8-4.1,4.4c-3,4.1-4,9.4-2.6,14.4c2.2,6.8,9.3,10.7,16.3,12.2c-2.5,2.9-5,6-5.7,9.7
				s1.2,8.3,4.9,9.1c2.4,0.5,5.3-0.4,7,1.4c0.5,0.6,0.9,1.3,1.2,2c2.3,3.6,7.4,3.2,11.7,3.4c0.9-0.1,1.8,0.2,2.5,0.8
				c0.8,0.8,0.8,2.2,1,3.4c0.4,2.1,1.8,3.8,3.8,4.6c-3.3,3.4-8.7,3.1-13.4,3.4c-4.7,0.3-10.3,2.4-10.9,7.1c-0.1,0.7,0,1.4,0.3,2
				c1.2,2.3,5.3,1.7,6.4,4.1c0.5,1.5-0.1,3.2-1.5,4.1c-1.4,0.8-2.8,1.4-4.4,1.7c-2.5,0.8-4.8,2.1-6.8,3.7c-1.2,0.9-2.1,2.1-2.7,3.4
				c-1.1,3.1,1.1,6.6,4,8.1s6.3,1.5,9.6,1.5c0.6,4.4-1.8,8.5-2.8,12.8c-1.1,4.3,0.3,10.1,4.6,10.9c2.3,0.4,4.6-0.8,7-1.2
				c2.3-0.4,5.5,0.7,5.4,3.1c0,2.6-3.6,3.4-5.5,5.2c-2.3,2-2.5,5.4-0.5,7.7c1.3,1.4,3.2,2.1,5.1,1.7c1.8-0.3,3.5-1.5,5.2-1
				c2.2,0.7,2.6,3.7,4.2,5.4c2.5,2.8,7,1.6,10.7,1.9c3.5,0.3,6.6,2.1,9.8,3.6C134.8,218.1,146,220.1,155.8,216.6z"/>
		</g>
		<g>
			<path class="st4" d="M301.2,96.3c-2,3.4-2,7.6,0,11.1c1.6,2,3.7,3.6,6.1,4.6c5.7,2.8,11.6,5.1,17.7,6.9c1.3,0.3,2.5,0.8,3.5,1.6
				c3.3,3.2-0.6,8.7,0,13.3c0.8,6.5,9.9,8.3,13.4,13.9c2.9,4.8,1,10.9-1,16.2c6.3,0.9,12.1-3,17.3-6.8c3.2-2.1,6-4.7,8.4-7.7
				c2.3-3.1,2.8-7.2,1.3-10.8c-1.9-3.9-7-7.4-5-11.2c1.2-2.1,3.9-2.5,6.2-3c7.4-1.6,14.5-6.5,16.8-13.7s-1.5-16.4-8.9-18.2
				c6.9,0.1,12.7-5.5,12.7-12.4c0.1-6.9-5.5-12.7-12.4-12.7c-2.2,0-4.3,0.5-6.2,1.6c1.2-0.6,1.8-13.1,1.3-15.1
				c-1.7-5.3-5.7-9.6-10.9-11.6c-6.3-2.4-13.5-1.3-18.8,2.9c-1.5-6-4.8-11.3-9.4-15.4c-4.7-4.1-11-5.8-17.1-4.6
				c-2.9,0.5-5.4,2.4-6.6,5c-0.4,1.4-0.5,2.8-0.4,4.3c0.5,3.8,0.3,7.7-0.7,11.3c-1.9,5-7.8,5.9-10.9,9.9c-3.7,4.7-4,11-3.5,16.7
				c0.7,8.3,5.5,14.4,14.3,15.5C305.6,90.2,303.2,93.1,301.2,96.3z"/>
			<path class="st4" d="M350.7,140.2c-1.8-1.1-3.4-2.4-4.8-4c-2.1-3.3-1.1-7.8,2.3-9.8c0.5-0.3,1-0.5,1.5-0.7
				c-4.3,0.3-8-2.9-8.4-7.2c-0.2-3.1,1.4-6,4.1-7.4c-3.9,2.5-8.8,3.1-13.2,1.8c-3.5-1.1-7-4.4-6-8c1-2.2,2.9-4,5.2-4.8l10.7-5.6
				c-2,1.1-4.2,1.5-6.5,1.2c-3.2-0.7-5.6-5-3.2-7.4c-2.1,0.6-4.2,0.7-6.3,0.4c-2.2-0.3-3.9-1.9-4.6-4c-0.7-3.2,2.5-5.9,3.3-9
				c-3.3,0.6-6.6,0.6-9.9,0c-3.3-0.8-5.9-3.3-6.8-6.5c-0.3-1.6-0.1-3.3,0.4-4.9c2.5-7.7,9.9-12.6,16.8-16.7
				c-3.4-2.2-6.3-5.2-8.4-8.7s-2.3-7.9-0.5-11.6c0.7-1.2,1.6-2.2,2.8-2.9c-1.1,0-2.1,0.2-3.2,0.4c-2.9,0.5-5.4,2.4-6.6,5
				c-0.4,1.4-0.5,2.8-0.4,4.3c0.5,3.8,0.3,7.7-0.7,11.3c-1.9,5-7.8,5.9-10.9,9.9c-3.7,4.7-4,11-3.5,16.7c0.7,8.3,5.5,14.4,14.3,15.5
				c-2.8,2.5-5.2,5.4-7.2,8.6c-2,3.4-2,7.6,0,11.1c1.6,2,3.7,3.6,6.1,4.5c5.7,2.8,11.6,5.1,17.7,6.9c1.3,0.3,2.5,0.8,3.5,1.6
				c3.3,3.2-0.6,8.7,0,13.3c0.8,6.5,9.9,8.3,13.4,13.9c2.9,4.8,1,10.9-1,16.2c6.1,0.8,11.7-2.8,16.8-6.4
				C358.5,150.8,355.8,144.3,350.7,140.2z"/>
		</g>
	</g>
</g>
<g>
	<ellipse class="st4" cx="155.5" cy="420.9" rx="25.9" ry="13"/>
	<ellipse class="st4" cx="104.1" cy="450.8" rx="18.1" ry="9"/>
	<g id="freepik--Trees--inject-16">
		<g id="freepik--trees--inject-16">
			<g id="freepik--Tree--inject-16">
				<g id="freepik--tree--inject-16">
					<path class="st8" d="M98.1,393.5c-1.2,0.3-2.2,1-3.1,1.9c-1.7,1.9-3.2,3.8-4.6,5.8c-1.3,2-3.2,3.6-5.3,4.8
						c-2.2,1-4.7,0.6-6.4-1.1c-0.3-0.3-0.3-0.7-0.8-0.9c-0.8-0.3-1.7-0.1-2.3,0.4c-0.6,0.6-1.2,1.2-1.7,1.8c-2.3,2-5.1,3.3-8.1,3.8
						c-2.4,0.5-4.9,0.7-6.1-1.5c-0.8-1.4,0.2-2.6,0.6-3.9c0.3-1.4,0.5-2.8-0.9-3.6c-0.5-0.2-1-0.3-1.6-0.2c-2.9,0.1-5.7,2.1-8.6,1.4
						c-2.1-0.8-3.3-2.8-3-5c0.4-2.1,1.7-4,3.6-5c1.7-1.1,3.5-2,4-3.9s-0.9-2.8-2.3-3.4c-1.4-0.6-2.6-0.5-3.8-1.6
						c-1.3-1.1-1.8-2.8-1.4-4.4c0.5-1.7,1.7-3.2,3.2-4.1c0.8-0.5,1.5-1,2.2-1.6c0.6-0.6,1-1.5,0.4-2.1s-0.9-0.3-1.3-0.6
						c-0.8-0.7-0.5-1.8,0-2.6c0.7-0.8,1.5-1.4,2.3-2c1.4-1.2,2.5-2.6,1.1-4.2s-3.5,0.1-5.2-1.3s-1.4-4.7-0.7-6.4
						c0.9-1.4,1.8-2.8,2.9-4.2c1.1-1.3,1-3.3-0.2-4.5c-1.4-1.3-4.2-1.2-6.1-1.3c-1.9,0-4.3-0.6-4.8-2.6s0.9-2.9,1.6-4.6
						c0.8-2,0.6-4.2-0.5-6c-0.7-1-1.3-2-1.7-3.1c-0.8-3.8,0.6-7.7,3.6-10.1c1.1-1,2.6-1.4,4-0.9c0.9,0,1.8,0.3,2.5,0.8
						c1.4,1,2.4,2.9,4.6,2.6c3.3-0.5,4.3-4,7.8-1.3c1.6,1.3,3,2.8,4.3,4.4c1.2,1.5,1.7,3.2,3.8,4c2.3,1,4.9,0.7,7-0.7
						c1.6-1.2,3.6-1.7,5.6-1.5c3.5,0.8,3.9,3.7,3.7,6.7c-0.2,3.4,1.7,4.3,3.6,6.6c0.9,1.1,1.2,2,2.8,2.4c2.8,0.8,4.1,0.5,5.3,3.6
						s1.6,2,4.5,2.4c2.6,0.3,5.3,2.3,7.8,3.3c1.6,0.6,3.7,0.7,4.5,2.5c1.5,3.3-2.8,4.3-4.3,6.1c-1.8,2.3-1.4,5.7,0.9,7.5
						c0.5,0.4,1,0.6,1.5,0.8c3.2,1.4,7.2,1,9,4.5c1.4,2.7-0.3,4-2.1,5.8c-1.4,1.4-1,1.8-0.3,3.7c1.4,3.9,0.6,5.8-3.7,6.7
						c-1.4,0.1-2.7,0.5-3.9,1.1c-1.4,1.1-0.5,1.3-0.2,2.7c0.8,3.4-2.7,3.9-5.2,3.1C103.7,393.5,100.9,393.1,98.1,393.5z"/>
					<path class="st4" d="M98.1,393.5c-1.2,0.3-2.2,1-3.1,1.9c-1.7,1.9-3.2,3.8-4.6,5.8c-1.3,2-3.2,3.6-5.3,4.8
						c-2.2,1-4.7,0.6-6.4-1.1c-0.3-0.3-0.3-0.7-0.8-0.9c-0.8-0.3-1.7-0.1-2.3,0.4c-0.6,0.6-1.2,1.2-1.7,1.8c-2.3,2-5.1,3.3-8.1,3.8
						c-2.4,0.5-4.9,0.7-6.1-1.5c-0.8-1.4,0.2-2.6,0.6-3.9c0.3-1.4,0.5-2.8-0.9-3.6c-0.5-0.2-1-0.3-1.6-0.2c-2.9,0.1-5.7,2.1-8.6,1.4
						c-2.1-0.8-3.3-2.8-3-5c0.4-2.1,1.7-4,3.6-5c1.7-1.1,3.5-2,4-3.9s-0.9-2.8-2.3-3.4c-1.4-0.6-2.6-0.5-3.8-1.6
						c-1.3-1.1-1.8-2.8-1.4-4.4c0.5-1.7,1.7-3.2,3.2-4.1c0.8-0.5,1.5-1,2.2-1.6c0.6-0.6,1-1.5,0.4-2.1s-0.9-0.3-1.3-0.6
						c-0.8-0.7-0.5-1.8,0-2.6c0.7-0.8,1.5-1.4,2.3-2c1.4-1.2,2.5-2.6,1.1-4.2s-3.5,0.1-5.2-1.3s-1.4-4.7-0.7-6.4
						c0.9-1.4,1.8-2.8,2.9-4.2c1.1-1.3,1-3.3-0.2-4.5c-1.4-1.3-4.2-1.2-6.1-1.3c-1.9,0-4.3-0.6-4.8-2.6s0.9-2.9,1.6-4.6
						c0.8-2,0.6-4.2-0.5-6c-0.7-1-1.3-2-1.7-3.1c-0.8-3.8,0.6-7.7,3.6-10.1c1.1-1,2.6-1.4,4-0.9c0.9,0,1.8,0.3,2.5,0.8
						c1.4,1,2.4,2.9,4.6,2.6c3.3-0.5,4.3-4,7.8-1.3c1.6,1.3,3,2.8,4.3,4.4c1.2,1.5,1.7,3.2,3.8,4c2.3,1,4.9,0.7,7-0.7
						c1.6-1.2,3.6-1.7,5.6-1.5c3.5,0.8,3.9,3.7,3.7,6.7c-0.2,3.4,1.7,4.3,3.6,6.6c0.9,1.1,1.2,2,2.8,2.4c2.8,0.8,4.1,0.5,5.3,3.6
						s1.6,2,4.5,2.4c2.6,0.3,5.3,2.3,7.8,3.3c1.6,0.6,3.7,0.7,4.5,2.5c1.5,3.3-2.8,4.3-4.3,6.1c-1.8,2.3-1.4,5.7,0.9,7.5
						c0.5,0.4,1,0.6,1.5,0.8c3.2,1.4,7.2,1,9,4.5c1.4,2.7-0.3,4-2.1,5.8c-1.4,1.4-1,1.8-0.3,3.7c1.4,3.9,0.6,5.8-3.7,6.7
						c-1.4,0.1-2.7,0.5-3.9,1.1c-1.4,1.1-0.5,1.3-0.2,2.7c0.8,3.4-2.7,3.9-5.2,3.1C103.7,393.5,100.9,393.1,98.1,393.5z"/>
					<path class="st9" d="M57.6,400.9c-2.3,0.2-4.3,1.2-6.6,1.6c1.1-0.7,2.2-1.3,3.4-1.8c3.1-1,6.4-1,9.5,0
						c-0.5,1.6-0.4,3.4,0.3,4.9c6.3-2,9.3-8.3,15.9-9.8c0.6,2.5,1.7,5.1,4.7,4.8c1.6-0.4,2.9-1.6,3.5-3.2c0.7-1.4,0.8-3.1,1.5-4.5
						c1.4-3.7,5.3-5.9,9.2-5.4c1.7,0.3,3.2,1.3,4.3-0.2c1.1-1.5-0.8-3.6,0.3-5c0.7-1,2.1-0.6,2.6-1.7c0.2-0.5,0.2-1,0-1.5
						c-0.1-2.8-1.2-5.5-3.1-7.7c-1.9-1.7-4.7-1.7-5.3-4.3c-0.5-2.3,1.3-3.7,3-4.8s3.6-2.9,2.7-5.1s-3.5-2.3-4.8-4.1
						c-0.5-0.8-0.6-1.9-1.4-2.5c-1.1-1-2.5-0.3-3.8-1c-2.3-1.2-2.8-4.3-4.3-6.3c-1.1-1.5-3.2-2-4.5-3.4c-2.4-2.6-2.8-6.5-0.9-9.5
						c0.6-1.1,1.2-2.2,1.8-3.4l0,0c0.8,1.6,1,3.3,0.7,5c-0.3,3.2,1.7,4.3,3.6,6.4c0.9,1.1,1.2,2,2.8,2.4c2.8,0.7,4.1,0.5,5.3,3.6
						c1.2,3.1,1.5,2,4.5,2.4c2.6,0.3,5.3,2.3,7.8,3.3c1.6,0.6,3.7,0.7,4.5,2.5c1.5,3.3-2.8,4.3-4.3,6.1c-1.8,2.3-1.4,5.7,0.9,7.5
						c0.5,0.4,1,0.6,1.5,0.8c3.2,1.4,7.2,1,9,4.5c1.4,2.7-0.3,4-2.1,5.8c-1.4,1.4-1,1.8-0.3,3.7c1.4,3.9,0.6,5.8-3.7,6.7
						c-1.4,0.1-2.7,0.5-3.9,1.1c-1.4,1.1-0.5,1.3-0.2,2.7c0.8,3.4-2.7,3.9-5.2,3.1c-2.6-1.2-5.5-1.6-8.3-1.1c-1.2,0.3-2.2,1-3.1,1.9
						c-1.6,1.8-3.2,3.8-4.6,5.8c-1.3,2-3.2,3.6-5.3,4.8c-2.2,1-4.7,0.6-6.4-1.1c-0.3-0.3-0.3-0.7-0.8-0.9c-0.8-0.3-1.7-0.1-2.3,0.4
						c-0.6,0.6-1.2,1.2-1.7,1.8c-2.3,2-5.1,3.3-8.1,3.8c-2.4,0.5-4.9,0.7-6.1-1.5c-0.8-1.4,0.2-2.6,0.6-3.9c0.3-1.4,0.5-2.8-0.9-3.6
						C58.8,400.9,58.2,400.8,57.6,400.9z"/>
					<path d="M107.9,450.3L105,452c-13.5-22.5-10.6-42-18.1-66.6c-8-7.4-16.2-14.6-24.5-21.5c7.8,5.5,15,10.4,22.8,16.7
						c-2.6-7.6,0.2,1.5-3.5-10c-3.7-11.4-12.7-32-27.9-39.3c15.7,6.7,26,26.3,30.8,38s2,5.1,5.4,13.4c0.3-10.6,1.3-20.1,0.7-30.2
						c1.4,12,1.7,24.1,0.6,36.1C98.5,413,95.4,428.1,107.9,450.3z"/>
				</g>
			</g>
			<g id="freepik--tree--inject-16_00000016072765833755940460000010345549001075679676_">
				<g id="freepik--tree--inject-16_00000141442834725277825760000004443176644577112471_">
					<path class="st8" d="M154.7,362.4c-1.4,0.3-2.6,0.9-3.7,1.8c-2,1.9-4,3.8-5.8,5.9c-1.7,2.1-3.9,3.7-6.4,4.8
						c-2.6,1-5.4,0.2-7.2-1.9c-0.3-0.4-0.3-0.8-0.8-1.1c-0.9-0.4-1.9-0.3-2.6,0.2c-0.8,0.6-1.5,1.2-2.1,1.9c-2.8,2-6.1,3.2-9.5,3.4
						c-2.7,0.3-5.6,0.3-6.7-2.3c-0.7-1.7,0.5-2.8,1.1-4.3c0.5-1.5,0.9-3.1-0.6-4.1c-0.5-0.3-1.2-0.5-1.8-0.4
						c-3.3-0.2-6.6,1.8-9.8,0.6c-2.2-1.1-3.4-3.6-2.8-6c0.6-2.3,2.3-4.3,4.6-5.2c2.1-1,4.1-1.8,4.9-3.9s-0.7-3.3-2.1-4.1
						s-2.9-0.9-4.1-2.1c-1.3-1.4-1.7-3.3-1.1-5.1c0.8-1.9,2.2-3.4,4.1-4.2c1-0.4,1.9-0.8,2.7-1.4c0.8-0.6,1.3-1.6,0.7-2.5
						c-0.4-0.5-1-0.4-1.4-0.8c-0.8-0.9-0.3-2,0.4-2.9c0.9-0.8,1.8-1.5,2.8-2c1.7-1.2,3.1-2.6,1.7-4.6c-1.4-1.9-4-0.2-5.7-2
						s-1.1-5.4,0-7.3c1.1-1.5,2.4-2.9,3.7-4.3c1.4-1.4,1.5-3.5,0.3-5c-1.5-1.7-4.5-1.9-6.7-2.1c-2.1-0.3-4.7-1.2-5-3.5
						s1.3-3.1,2.3-5c1.1-2.1,1.1-4.6,0-6.7c-0.7-1.2-1.2-2.4-1.6-3.7c-0.5-4.3,1.5-8.5,5.1-10.9c1.3-1,3.1-1.3,4.6-0.6
						c1,0.1,2,0.5,2.8,1.2c1.5,1.3,2.4,3.5,4.9,3.4c3.8-0.2,5.4-4,8.9-0.6c1.6,1.7,3,3.5,4.3,5.4c1.2,1.8,1.5,3.8,3.8,4.9
						c2.5,1.4,5.4,1.4,7.9,0c1.9-1.2,4.2-1.5,6.4-1c3.9,1.3,4,4.6,3.4,7.9c-0.6,3.8,1.4,5,3.3,7.8c0.9,1.3,1.2,2.4,2.8,3
						c3.1,1.1,4.5,1,5.5,4.6c0.9,3.3,1.5,2.4,4.8,3.2c2.9,0.7,5.7,3.1,8.4,4.5c1.7,0.9,4.1,1.2,4.8,3.3c1.3,3.9-3.6,4.5-5.5,6.4
						c-2.3,2.4-2.2,6.2,0.3,8.5c0.5,0.4,1,0.8,1.6,1.1c3.4,1.9,8,1.9,9.6,6c1.2,3.2-0.8,4.4-2.9,6.3c-1.7,1.5-1.3,1.9-0.7,4.1
						c1.2,4.5,0,6.6-4.9,7.2c-1.5,0-3.1,0.3-4.5,0.8c-1.6,1.1-0.7,1.4-0.5,3c0.6,3.9-3.4,4-6.2,2.9
						C160.7,363.2,158.2,361.9,154.7,362.4z"/>
					<path class="st10" d="M154.7,362.4c-1.4,0.3-2.6,0.9-3.7,1.8c-2,1.9-4,3.8-5.8,5.9c-1.7,2.1-3.9,3.7-6.4,4.8
						c-2.6,1-5.4,0.2-7.2-1.9c-0.3-0.4-0.3-0.8-0.8-1.1c-0.9-0.4-1.9-0.3-2.6,0.2c-0.8,0.6-1.5,1.2-2.1,1.9c-2.8,2-6.1,3.2-9.5,3.4
						c-2.7,0.3-5.6,0.3-6.7-2.3c-0.7-1.7,0.5-2.8,1.1-4.3c0.5-1.5,0.9-3.1-0.6-4.1c-0.5-0.3-1.2-0.5-1.8-0.4
						c-3.3-0.2-6.6,1.8-9.8,0.6c-2.2-1.1-3.4-3.6-2.8-6c0.6-2.3,2.3-4.3,4.6-5.2c2.1-1,4.1-1.8,4.9-3.9s-0.7-3.3-2.1-4.1
						s-2.9-0.9-4.1-2.1c-1.3-1.4-1.7-3.3-1.1-5.1c0.8-1.9,2.2-3.4,4.1-4.2c1-0.4,1.9-0.8,2.7-1.4c0.8-0.6,1.3-1.6,0.7-2.5
						c-0.4-0.5-1-0.4-1.4-0.8c-0.8-0.9-0.3-2,0.4-2.9c0.9-0.8,1.8-1.5,2.8-2c1.7-1.2,3.1-2.6,1.7-4.6c-1.4-1.9-4-0.2-5.7-2
						s-1.1-5.4,0-7.3c1.1-1.5,2.4-2.9,3.7-4.3c1.4-1.4,1.5-3.5,0.3-5c-1.5-1.7-4.5-1.9-6.7-2.1c-2.1-0.3-4.7-1.2-5-3.5
						s1.3-3.1,2.3-5c1.1-2.1,1.1-4.6,0-6.7c-0.7-1.2-1.2-2.4-1.6-3.7c-0.5-4.3,1.5-8.5,5.1-10.9c1.3-1,3.1-1.3,4.6-0.6
						c1,0.1,2,0.5,2.8,1.2c1.5,1.3,2.4,3.5,4.9,3.4c3.8-0.2,5.4-4,8.9-0.6c1.6,1.7,3,3.5,4.3,5.4c1.2,1.8,1.5,3.8,3.8,4.9
						c2.5,1.4,5.4,1.4,7.9,0c1.9-1.2,4.2-1.5,6.4-1c3.9,1.3,4,4.6,3.4,7.9c-0.6,3.8,1.4,5,3.3,7.8c0.9,1.3,1.2,2.4,2.8,3
						c3.1,1.1,4.5,1,5.5,4.6c0.9,3.3,1.5,2.4,4.8,3.2c2.9,0.7,5.7,3.1,8.4,4.5c1.7,0.9,4.1,1.2,4.8,3.3c1.3,3.9-3.6,4.5-5.5,6.4
						c-2.3,2.4-2.2,6.2,0.3,8.5c0.5,0.4,1,0.8,1.6,1.1c3.4,1.9,8,1.9,9.6,6c1.2,3.2-0.8,4.4-2.9,6.3c-1.7,1.5-1.3,1.9-0.7,4.1
						c1.2,4.5,0,6.6-4.9,7.2c-1.5,0-3.1,0.3-4.5,0.8c-1.6,1.1-0.7,1.4-0.5,3c0.6,3.9-3.4,4-6.2,2.9
						C160.7,363.2,158.2,361.9,154.7,362.4z"/>
					<path class="st9" d="M108.5,366.2c-2.6,0-5,0.9-7.6,1.1c1.3-0.6,2.6-1.2,4-1.6c3.6-0.8,7.3-0.5,10.7,0.9
						c-0.8,1.8-0.8,3.7-0.2,5.5c7.3-1.5,11.3-8.3,18.9-9.2c0.4,2.8,1.4,5.9,4.7,5.9c1.9-0.2,3.5-1.4,4.3-3.2
						c0.9-1.5,1.3-3.4,2.1-4.9c2.4-3.9,6.4-6.3,10.9-5c1.8,0.5,3.4,1.8,4.7,0.2c1.3-1.6-0.5-4.1,0.9-5.6c0.9-1,2.4-0.4,3.1-1.6
						c0.3-0.5,0.3-1.1,0.2-1.6c-0.2-3.1-0.4-6.6-2.6-8.9c-2.2-2.3-5.1-2.4-5.5-5.4c-0.3-2.6,1.9-4,3.9-5.1s4.3-2.8,3.6-5.4
						c-0.7-2.5-3.7-2.9-4.9-5.1c-0.5-0.9-0.5-2.1-1.3-3c-1.1-1.2-2.8-0.6-4.1-1.5c-2.5-1.6-2.7-5.1-4.3-7.6
						c-1.1-1.8-3.4-2.6-4.7-4.3c-2.4-3.2-2.4-7.6,0-10.7c0.9-1.2,1.6-2.4,2.4-3.6v-0.2c0.7,1.8,0.8,3.8,0.3,5.7
						c-0.6,3.6,1.4,5.1,3.3,7.7c0.9,1.3,1.2,2.4,2.8,3c3.1,1.1,4.5,1,5.5,4.6c0.9,3.3,1.5,2.4,4.8,3.2c2.9,0.7,5.7,3.1,8.4,4.5
						c1.7,0.9,4.1,1.2,4.8,3.3c1.3,3.9-3.6,4.5-5.5,6.4c-2.3,2.4-2.2,6.2,0.3,8.5c0.5,0.4,1,0.8,1.6,1.1c3.4,1.9,8,1.9,9.6,6
						c1.2,3.2-0.8,4.4-2.9,6.3c-1.7,1.5-1.3,1.9-0.7,4.1c1.2,4.5,0,6.6-4.9,7.2c-1.5,0-3.1,0.3-4.5,0.8c-1.6,1.1-0.7,1.4-0.5,3
						c0.6,3.9-3.4,4-6.2,2.9c-3.2-1.4-5.7-2.7-9.2-2.1c-1.4,0.3-2.6,0.9-3.7,1.8c-2,1.9-4,3.8-5.8,5.9c-1.7,2.1-3.9,3.7-6.4,4.8
						c-2.6,1-5.4,0.2-7.2-1.9c-0.3-0.4-0.3-0.8-0.8-1.1c-0.9-0.4-1.9-0.3-2.6,0.2c-0.8,0.6-1.5,1.2-2.1,1.9c-2.8,2-6.1,3.1-9.5,3.3
						c-2.7,0.3-5.6,0.3-6.7-2.3c-0.7-1.7,0.5-2.8,1.1-4.3c0.5-1.5,0.9-3.1-0.6-4.1C109.7,366.3,109.1,366.2,108.5,366.2z"/>
					<path d="M157.2,421.9l-3.5,2c-10-24.6-5.5-45.1-10.9-71.8c-8.1-9.2-16.5-18.2-25.1-26.9c8.1,7,15.7,13.3,23.6,21.2
						c-2-8.8,0,1.7-2.9-11.5s-10.7-37.3-26.9-47c16.8,9.2,26.2,32.2,30.3,46s1.7,5.9,4.5,15.6c1.6-11.8,3.7-22.4,4.1-33.8
						c0.3,13.6-0.7,27.1-3.2,40.5C152.6,382.4,148.5,398.5,157.2,421.9z"/>
				</g>
			</g>
		</g>
	</g>
</g>
<g id="freepik--Fence--inject-16">
	<g id="freepik--fence--inject-16_00000091717910774491789130000001035153810530447765_">
		<polygon id="freepik--shadow--inject-16_00000059285934830548480460000008816865266262684320_" class="st4" points="259.7,433.2 
			159.6,491 154.8,488.1 254.9,430.3 		"/>
		<g id="freepik--fence--inject-16">
			<polygon class="st7" points="162.4,485.9 162.4,449.2 165.1,443.6 167.9,446 167.9,482.7 			"/>
			<polygon class="st5" points="162.4,449.2 161,448.4 161,485.1 162.4,485.9 			"/>
			<polygon class="st6" points="165.1,443.6 163.8,442.7 161,448.4 162.4,449.2 			"/>
			<polygon class="st7" points="182.7,474.2 182.7,437.5 185.5,431.9 188.2,434.3 188.2,471 			"/>
			<polygon class="st5" points="182.7,437.5 181.4,436.7 181.4,473.4 182.7,474.2 			"/>
			<polygon class="st6" points="185.5,431.9 184.1,431 181.4,436.7 182.7,437.5 			"/>
			<polygon class="st7" points="203.1,462.5 203.1,425.8 205.8,420.2 208.6,422.6 208.6,459.4 			"/>
			<polygon class="st5" points="203.1,425.8 201.7,425 201.7,461.7 203.1,462.5 			"/>
			<polygon class="st6" points="205.8,420.2 204.4,419.4 201.7,425 203.1,425.8 			"/>
			<polygon class="st7" points="223.4,450.8 223.4,414.1 226.1,408.5 228.9,410.9 228.9,447.7 			"/>
			<polygon class="st5" points="223.4,414.1 222,413.3 222,450.1 223.4,450.8 			"/>
			<polygon class="st6" points="226.1,408.5 224.8,407.7 222,413.3 223.4,414.1 			"/>
			<polygon class="st7" points="243.8,439.1 243.8,402.4 246.5,396.8 249.3,399.3 249.3,436 			"/>
			<polygon class="st5" points="243.8,402.4 242.4,401.6 242.4,438.4 243.8,439.1 			"/>
			<polygon class="st6" points="246.5,396.8 245.1,396 242.4,401.6 243.8,402.4 			"/>
			<polygon class="st5" points="249.3,414 243.8,417.2 243.8,415 249.3,411.9 			"/>
			<polygon class="st5" points="223.4,426.7 228.9,423.5 228.9,425.7 223.4,428.9 			"/>
			<polygon class="st5" points="182.7,450.1 188.2,446.9 188.2,449 182.7,452.2 			"/>
			<polygon class="st5" points="203.1,438.4 208.6,435.2 208.6,437.4 203.1,440.5 			"/>
			<polygon class="st5" points="162.4,461.7 167.9,458.6 167.9,460.7 162.4,463.9 			"/>
			<polygon class="st5" points="249.3,428 243.8,431.1 243.8,428.9 249.3,425.8 			"/>
			<polygon class="st5" points="223.4,440.6 228.9,437.5 228.9,439.6 223.4,442.8 			"/>
			<polygon class="st5" points="182.7,464 188.2,460.8 188.2,463 182.7,466.2 			"/>
			<polygon class="st5" points="203.1,452.3 208.6,449.2 208.6,451.3 203.1,454.5 			"/>
			<polygon class="st5" points="162.4,475.7 167.9,472.5 167.9,474.7 162.4,477.9 			"/>
			<polygon class="st7" points="156.2,477.8 255.1,420.9 255.1,423.1 156.2,479.9 			"/>
			<polygon class="st5" points="156.2,477.8 154.8,476.9 154.8,479.1 156.2,479.9 			"/>
			<polygon class="st6" points="255.1,420.9 156.2,477.8 154.8,476.9 253.7,420.1 			"/>
			<polygon class="st7" points="156.2,463.9 255.1,407.1 255.1,409.2 156.2,466.1 			"/>
			<polygon class="st5" points="156.2,463.9 154.8,463.1 154.8,465.3 156.2,466.1 			"/>
			<polygon class="st6" points="255.1,407.1 156.2,463.9 154.8,463.1 253.7,406.3 			"/>
		</g>
	</g>
	<g id="freepik--fence--inject-16_00000012435403311078721060000010010486680993249189_">
		<polygon id="freepik--shadow--inject-16_00000023986531127878606950000003011177065956599430_" class="st4" points="455,321.3 
			354.9,379.1 350.1,376.2 450.1,318.4 		"/>
		<g id="freepik--fence--inject-16_00000155137987446531921130000006719168633917185940_">
			<polygon class="st5" points="357.7,337.3 356.3,336.5 356.3,373.2 357.7,374 			"/>
			<polygon class="st6" points="360.4,331.7 359,330.8 356.3,336.5 357.7,337.3 			"/>
			<polygon class="st5" points="378,325.6 376.6,324.8 376.6,361.5 378,362.3 			"/>
			<polygon class="st6" points="380.7,320 379.4,319.2 376.6,324.8 378,325.6 			"/>
			<polygon class="st5" points="398.4,313.9 397,313.1 397,349.8 398.4,350.6 			"/>
			<polygon class="st6" points="401.1,308.3 399.7,307.5 397,313.1 398.4,313.9 			"/>
			<polygon class="st5" points="418.7,302.2 417.3,301.4 417.3,338.2 418.7,339 			"/>
			<polygon class="st6" points="421.4,296.6 420,295.8 417.3,301.4 418.7,302.2 			"/>
			<polygon class="st7" points="439,327.3 439,290.5 441.7,284.9 444.5,287.4 444.5,324.1 			"/>
			<path class="st7" d="M357.7,337.3V374l5.5-3.2v-36.7l-2.8-2.4L357.7,337.3z M378,325.6v36.7l5.5-3.2v-36.7l-2.8-2.4L378,325.6z
				 M398.4,313.9v36.7l5.5-3.2v-36.8l-2.8-2.4L398.4,313.9z M418.7,302.2V339l5.5-3.2V299l-2.8-2.4L418.7,302.2z M441.7,284.9
				l-2.7,5.6v36.8l5.5-3.2v-36.8L441.7,284.9z"/>
			<polygon class="st5" points="439,290.5 437.6,289.7 437.6,326.5 439,327.3 			"/>
			<polygon class="st6" points="441.7,284.9 440.4,284.1 437.6,289.7 439,290.5 			"/>
			<polygon class="st5" points="357.7,349.8 363.2,346.7 363.2,348.8 357.7,352 			"/>
			<polygon class="st5" points="444.5,316.1 439,319.2 439,317.1 444.5,313.9 			"/>
			<polygon class="st5" points="418.7,328.7 424.2,325.6 424.2,327.8 418.7,330.9 			"/>
			<polygon class="st5" points="378,352.1 383.5,348.9 383.5,351.1 378,354.3 			"/>
			<polygon class="st5" points="398.4,340.4 403.9,337.3 403.9,339.4 398.4,342.6 			"/>
			<polygon class="st5" points="357.7,363.8 363.2,360.6 363.2,362.8 357.7,366 			"/>
			<polygon class="st7" points="351.5,365.9 450.4,309 450.4,311.2 351.5,368 			"/>
			<polygon class="st5" points="351.5,365.9 350.1,365.1 350.1,367.2 351.5,368 			"/>
			<polygon class="st6" points="450.4,309 351.5,365.9 350.1,365.1 448.9,308.2 			"/>
			<polygon class="st7" points="351.5,352.4 450.5,319.3 450.5,321.5 351.5,354.5 			"/>
			<polygon class="st5" points="357.7,354.4 363.2,352.6 363.2,350.4 357.7,352.3 			"/>
			<polygon class="st5" points="383.5,343.6 378,345.5 378,347.7 383.5,345.8 			"/>
			<polygon class="st5" points="439,325.2 439,327.3 444.5,324.1 444.5,323.3 			"/>
			<polygon class="st5" points="424.2,330.1 418.7,331.9 418.7,334.1 424.2,332.3 			"/>
			<polygon class="st5" points="403.9,336.9 398.4,338.7 398.4,340.9 403.9,339 			"/>
			<polygon class="st5" points="351.5,352.4 350.1,351.2 350.1,353.4 351.5,354.5 			"/>
			<polygon class="st6" points="450.5,319.3 351.5,352.4 350.1,351.2 449,318.2 			"/>
		</g>
	</g>
</g>
<g id="freepik--street-lights--inject-16_00000034085583322980671960000014955090955386045835_">
	<path class="st6" d="M442.4,414.3c-2.5-1.2-5.4-1.2-7.8,0c-1.3,0-2.3,1-2.3,2.3s1,2.3,2.3,2.3c2.5,1.2,5.4,1.2,7.8,0
		c1.3,0,2.3-1,2.3-2.3C444.7,415.4,443.7,414.3,442.4,414.3z"/>
	<path class="st5" d="M444,416.6c-0.1-1-0.7-1.9-1.6-2.3c-2.5-1.2-5.4-1.2-7.8,0c-0.9,0.4-1.5,1.3-1.6,2.3v1.4
		c0.1,1,0.7,1.9,1.6,2.3c2.5,1.2,5.4,1.2,7.8,0c0.9-0.4,1.5-1.3,1.6-2.3V416.6z"/>
	<path class="st6" d="M442.4,414.3c-2.5-1.2-5.4-1.2-7.8,0c-1.3,0-2.3,1-2.3,2.3s1,2.3,2.3,2.3c2.5,1.2,5.4,1.2,7.8,0
		c1.3,0,2.3-1,2.3-2.3C444.7,415.4,443.7,414.3,442.4,414.3z"/>
	<path class="st7" d="M434.4,356.8c0.1-0.7,0.5-1.4,1.2-1.7c1.8-0.9,4-0.9,5.8,0c0.7,0.3,1.1,0.9,1.2,1.7v59.4
		c-0.1,0.7-0.5,1.4-1.2,1.7c-1.8,0.9-4,0.9-5.8,0c-0.7-0.3-1.1-0.9-1.2-1.7V356.8z"/>
	<path class="st6" d="M441.4,355.1c-1.8-0.9-4-0.9-5.8,0c-0.9,0.3-1.4,1.3-1.1,2.2c0.2,0.5,0.6,0.9,1.1,1.1c1.8,0.9,4,0.9,5.8,0
		c0.9-0.3,1.4-1.3,1.1-2.2C442.3,355.7,441.9,355.3,441.4,355.1z"/>
	<path class="st5" d="M460.5,216.9L439,357.1c0,0-0.1,0.2-0.3,0.2c-0.3,0.1-0.7,0-0.9-0.2c-0.1-0.1-0.1-0.2-0.1-0.3l21.5-140.2
		c0.1-0.4,0.4-0.6,0.8-0.5l0,0C460.3,216.2,460.6,216.5,460.5,216.9z"/>
	<path class="st5" d="M457.1,238.4l-1.2-0.3c1.2-5.2,5.1-9.3,10.2-10.9c5.8-1.8,12.1-0.4,16.5,3.8l-0.8,0.9
		c-4.1-3.9-9.9-5.2-15.3-3.5C461.9,229.8,458.3,233.6,457.1,238.4z"/>
	<path class="st5" d="M457.1,238.4l-1.2-0.3c0.9-4.8-0.7-9.8-4.4-13c-4.2-3.8-10-5-15.3-3.2l-0.3-1.1c5.7-2,12-0.6,16.5,3.4
		C456.4,227.8,458.2,233.1,457.1,238.4z"/>
	<path class="st5" d="M480.9,235.4l2.5,2.7c2.2,2.2,5.3,3,8.3,2.3c1-0.2,1.8-0.9,2.1-1.8c0-0.3,0.3-1.4,0.3-1.7
		c0.2-0.9-0.3-1.9-1.6-2.8l-4.2-3.1c-2.1-1.7-4.8-2.5-7.5-2.2c-0.6,0.2-1.1,0.7-1.2,1.3c0,0.3-0.3,1.4-0.3,1.6
		C479.3,233.1,479.8,234.5,480.9,235.4z"/>
	<path class="st7" d="M480.9,228.9c-1.8,0.6-1.7,2.8,0.3,4.9l2.5,2.7c2.2,2.2,5.3,3,8.3,2.3c2.6-0.8,2.8-2.9,0.5-4.6l-4.2-3.1
		C486.3,229.3,483.6,228.5,480.9,228.9z"/>
	<path class="st6" d="M480.4,230.2c0.1-0.3,0.4-0.6,0.7-0.7c0.8-0.2,1.7-0.2,2.5,0c1.6,0.4,3,1,4.3,2l4.2,3.1
		c0.9,0.7,1.4,1.5,1.3,2.1s-0.7,1-1.6,1.3c-1.1,0.3-2.3,0.3-3.5,0c-1.6-0.3-3-1.1-4.1-2.3l-2.5-2.5
		C480.9,232.5,480.4,231.4,480.4,230.2z"/>
	<path class="st5" d="M434.5,225.3l-3.4,1.4c-2.9,1.1-6.1,0.6-8.6-1.3c-0.8-0.6-1.2-1.5-1.1-2.5c0-0.3,0.3-1.4,0.4-1.6
		c0.2-0.9,1.1-1.6,2.6-2l5.1-1.1c2.6-0.7,5.4-0.3,7.7,1.2c0.5,0.4,0.7,1,0.6,1.6c0,0.3-0.3,1.4-0.4,1.6
		C437.3,223.6,436.2,224.6,434.5,225.3z"/>
	<path class="st7" d="M437.2,219.4c1.4,1.3,0.3,3.2-2.3,4.3l-3.4,1.4c-2.9,1.1-6.1,0.6-8.6-1.3c-2-1.9-1.4-3.9,1.5-4.5l5.1-1.1
		C432.2,217.5,434.9,217.9,437.2,219.4z"/>
	<path class="st6" d="M437.1,220.8c0.1-0.4-0.1-0.7-0.4-0.9c-0.7-0.5-1.5-0.9-2.3-1c-1.6-0.3-3.2-0.3-4.8,0l-5.1,1.1
		c-1.1,0.3-1.9,0.8-2.1,1.4c-0.2,0.6,0.2,1.2,0.9,1.9c0.9,0.8,2,1.3,3.1,1.5c1.6,0.4,3.2,0.3,4.7-0.3l3.4-1.4
		C436,222.5,437,221.6,437.1,220.8z"/>
</g>
</svg>
