<?xml version="1.0" encoding="utf-8"?>
<!-- Generator: Adobe Illustrator 27.3.1, SVG Export Plug-In . SVG Version: 6.00 Build 0)  -->
<svg version="1.1" id="Layer_1" xmlns="http://www.w3.org/2000/svg" xmlns:xlink="http://www.w3.org/1999/xlink" x="0px" y="0px"
	 viewBox="0 0 500 500" style="enable-background:new 0 0 500 500;" xml:space="preserve">
<style type="text/css">
	.st0{fill:#E0E0E0;}
	.st1{fill:#FAFAFA;}
	.st2{opacity:0.1;}
	.st3{fill:#F0F0F0;}
	.st4{opacity:0.1;enable-background:new    ;}
	.st5{fill:#263238;}
	.st6{fill:#455A64;}
	.st7{fill:#37474F;}
	.st8{fill:#B3C6B0;}
	.st9{opacity:0.2;enable-background:new    ;}
	.st10{opacity:0.3;enable-background:new    ;}
	.st11{opacity:0.3;fill:#FFFFFF;enable-background:new    ;}
	.st12{opacity:0.8;fill:#FFFFFF;enable-background:new    ;}
	.st13{fill:#CBD7CA;}
	.st14{opacity:0.25;enable-background:new    ;}
	.st15{opacity:0.4;enable-background:new    ;}
	.st16{opacity:0.6;enable-background:new    ;}
	.st17{opacity:0.5;enable-background:new    ;}
	.st18{fill:#F5F5F5;}
	.st19{fill:#FFA8A7;}
	.st20{fill:#EBEBEB;}
	.st21{opacity:0.7;fill:#FFFFFF;enable-background:new    ;}
	.st22{opacity:0.5;fill:#FFFFFF;enable-background:new    ;}
	.st23{fill:#FFFFFF;}
	.st24{clip-path:url(#SVGID_00000039134584707960653970000014394966025409150899_);}
	.st25{opacity:0.35;fill:#FFFFFF;enable-background:new    ;}
	.st26{fill:#CFDECE;}
	.st27{fill:#F28F8F;}
</style>
<g>
	<path class="st0" d="M476.3,318c-10.6-21.7-30.8-42.2-60.4-59.3c-92.5-53.2-242.2-53.2-334.4,0c-92.2,53.2-92.2,139.5,0,192.8
		c28.7,16.6,63.1,28,99.5,34.3l292.9-169L476.3,318z"/>
	<path class="st0" d="M415.8,451.5c35.4-20.4,57.2-45.5,65.5-71.9l-184.8,109C340.2,483.4,381.9,471,415.8,451.5z"/>
	<path class="st1" d="M476.3,318l-2.4-1.2L181,485.7c37.5,6.4,77.3,7.4,115.5,2.8l184.8-109C487.8,359.2,486.1,338,476.3,318z"/>
</g>
<g>
	<g id="freepik--building-3--inject-16">
		<g id="freepik--burning-building--inject-16">
			<g id="freepik--Smoke--inject-16">
				<g class="st2">
					<path d="M35,207.2c-1.2-0.1-2.5,0.1-3.6,0.6C32.6,208,33.9,207.8,35,207.2z"/>
				</g>
				<g class="st2">
					<path d="M164.2-55.6c1-0.5,1.9-1,2.8-1.5L164.2-55.6z"/>
				</g>
			</g>
			<g id="freepik--Coffee--inject-16">
				<g id="freepik--Wall--inject-16">
					<polygon class="st3" points="232.5,427.7 100.5,351.5 100.5,99.5 232.5,175.8 					"/>
				</g>
				<g id="freepik--wall--inject-16">
					<polygon class="st1" points="232.5,427.7 379.1,343 379.1,91.1 232.5,175.8 					"/>
				</g>
				<polygon id="freepik--shadow--inject-16_00000044868682155056339780000011122680529594892715_" class="st4" points="
					105.6,102.5 100.5,105.4 100.5,119.3 232.5,195.5 379.1,110.8 379.1,101.6 370,96.3 362,100.9 371.1,106.2 232.5,186.2 
					104.5,112.3 104.5,112.3 113.6,107.1 				"/>
				<g id="freepik--Roof--inject-16">
					<polyline class="st5" points="243.1,17.2 243.1,26.4 363.1,95.7 371.1,91.1 243.1,17.2 					"/>
					<polyline class="st5" points="232.5,180.4 88.5,97.2 88.5,106.5 232.5,189.6 232.5,180.4 					"/>
					<path class="st6" d="M251.1,12.5l-8-4.6L88.5,97.2l144,83L387.1,91L251.1,12.5z M232.5,171.1l-128-73.9l0,0l138.6-79.9
						l128,73.9L232.5,171.1z"/>
					<polygon class="st7" points="387.1,91.1 387.1,100.3 232.5,189.6 232.5,180.4 					"/>
					<polygon class="st7" points="243.1,17.2 243.1,26.4 112.5,101.8 104.5,97.2 					"/>
					<polygon class="st0" points="243.1,26.4 363.1,95.7 232.5,171.1 112.5,101.8 					"/>
					<polygon class="st4" points="356.7,99.4 234.6,31.3 243.1,17.2 371.1,91.1 					"/>
					<polygon class="st4" points="195.7,59.2 128.3,98.2 175.7,125.5 243.1,86.7 					"/>
					<polygon class="st1" points="196.2,50.5 171.7,64.6 205.9,84.4 230.4,70.2 					"/>
					<polygon class="st0" points="171.7,64.6 171.7,78.7 205.9,98.5 205.9,84.4 					"/>
					<polygon class="st3" points="230.4,70.2 230.4,84.4 205.9,98.5 205.9,84.4 					"/>
					<path class="st0" d="M188.1,60.1c-4.4,2.5-4.4,6.7,0,9.3c5.1,2.6,11,2.6,16.1,0c4.5-2.5,4.5-6.7,0-9.3
						C199.1,57.5,193.1,57.5,188.1,60.1z"/>
					<path class="st1" d="M192.4,62.6c-2.1,1.1-2.1,2.9,0,4c2.4,1.1,5.2,1.1,7.5,0c2.1-1.1,2.1-2.9,0-4
						C197.5,61.5,194.8,61.5,192.4,62.6z"/>
					<path class="st8" d="M218.4,98.2c-0.7,0-1.2-0.5-1.2-1.2v-7.8l-4.3-2.5c-0.6-0.3-0.8-1-0.5-1.6c0.3-0.6,1-0.8,1.6-0.5
						c0,0,0.1,0,0.1,0.1l4.9,2.8c0.4,0.2,0.6,0.6,0.6,1.1v8.5C219.6,97.6,219.1,98.1,218.4,98.2C218.4,98.2,218.4,98.2,218.4,98.2z"
						/>
					<path class="st8" d="M225.5,94.1c-0.7,0-1.2-0.5-1.2-1.2l0,0v-7.8l-4.3-2.5c-0.6-0.3-0.8-1-0.4-1.6c0,0,0,0,0,0
						c0.3-0.6,1.1-0.8,1.6-0.5l4.9,2.8c0.4,0.2,0.6,0.6,0.6,1.1v8.5C226.8,93.5,226.2,94.1,225.5,94.1
						C225.5,94.1,225.5,94.1,225.5,94.1z"/>
					<polygon class="st1" points="161.9,70.2 137.4,84.4 171.7,104.2 196.2,90 					"/>
					<polygon class="st0" points="137.4,84.4 137.4,98.5 171.7,118.3 171.7,104.2 					"/>
					<polygon class="st3" points="196.2,90 196.2,104.2 171.7,118.3 171.7,104.2 					"/>
					<path class="st0" d="M153.8,79.7c-4.5,2.5-4.5,6.7,0,9.3c5.1,2.6,11,2.6,16.1,0c4.4-2.5,4.4-6.7,0-9.3
						C164.9,77.2,158.9,77.2,153.8,79.7z"/>
					<path class="st1" d="M158.1,82.4c-2.1,1.1-2.1,2.9,0,4c2.4,1.1,5.2,1.1,7.5,0c2.1-1.1,2.1-2.9,0-4
						C163.3,81.3,160.5,81.3,158.1,82.4z"/>
					<path class="st8" d="M184.1,118c-0.7,0-1.2-0.5-1.2-1.2c0,0,0,0,0,0V109l-4.3-2.5c-0.6-0.3-0.8-1.1-0.4-1.7c0,0,0,0,0,0
						c0.3-0.6,1-0.8,1.6-0.4c0,0,0,0,0,0l4.9,2.8c0.4,0.2,0.6,0.6,0.6,1.1v8.5C185.4,117.4,184.8,117.9,184.1,118
						C184.2,118,184.2,118,184.1,118z"/>
					<path class="st8" d="M191.2,113.9c-0.7,0-1.2-0.5-1.2-1.2v-7.8l-4.3-2.5c-0.6-0.3-0.8-1.1-0.5-1.7c0.4-0.6,1.1-0.7,1.7-0.4
						l4.9,2.8c0.4,0.2,0.6,0.6,0.6,1.1v8.5C192.5,113.3,192,113.8,191.2,113.9C191.3,113.9,191.3,113.9,191.2,113.9z"/>
				</g>
				<g id="freepik--Window--inject-16">
					<polygon class="st7" points="143.6,175.1 143.6,234.5 183.5,257.6 183.5,198.2 					"/>
					<polygon class="st5" points="148.4,231.3 183.5,251.6 183.5,198.2 148.4,177.9 					"/>
					<polygon class="st6" points="143.6,175.1 148.4,177.9 148.4,231.3 143.6,234.5 					"/>
					<polygon class="st8" points="188,260.1 139.2,232 137,233.2 185.8,261.4 					"/>
					<polygon class="st8" points="185.8,261.4 185.8,266.5 137,238.4 137,233.2 					"/>
					<polygon class="st9" points="185.8,261.4 185.8,266.5 137,238.4 137,233.2 					"/>
					<polygon class="st8" points="188,260.1 188,265.3 185.8,266.5 185.8,261.4 					"/>
					<polygon class="st10" points="188,260.1 188,265.3 185.8,266.5 185.8,261.4 					"/>
					<polygon class="st6" points="165.8,241.4 165.8,187.9 163.2,186.4 163.2,239.9 					"/>
				</g>
				<g id="freepik--window--inject-16">
					<polygon class="st7" points="288.2,189.4 288.2,248.8 248.2,271.9 248.2,212.5 					"/>
					<polygon class="st5" points="283.4,245.7 248.2,266 248.2,212.5 283.4,192.2 					"/>
					<polygon class="st6" points="288.2,189.4 283.4,192.2 283.4,245.7 288.2,248.8 					"/>
					<polygon class="st8" points="243.8,274.5 292.6,246.3 294.8,247.5 246,275.7 					"/>
					<polygon class="st8" points="246,275.7 246,280.9 294.8,252.7 294.8,247.5 					"/>
					<polygon class="st9" points="246,275.7 246,280.9 294.8,252.7 294.8,247.5 					"/>
					<polygon class="st8" points="243.8,274.5 243.8,279.6 246,280.9 246,275.7 					"/>
					<polygon class="st10" points="243.8,274.5 243.8,279.6 246,280.9 246,275.7 					"/>
					<polygon class="st6" points="266,255.7 266,202.2 268.6,200.7 268.6,254.2 					"/>
				</g>
				<g id="freepik--window--inject-16_00000122685819340262492820000011445049928066732431_">
					<polygon class="st7" points="357.6,257.8 357.6,317.2 317.6,340.3 317.6,280.9 					"/>
					<polygon class="st5" points="352.8,314 317.6,334.3 317.6,280.9 352.8,260.5 					"/>
					<polygon class="st6" points="357.6,257.8 352.8,260.5 352.8,314 357.6,317.2 					"/>
					<polygon class="st8" points="313.2,342.8 362,314.7 364.2,315.9 315.4,344.1 					"/>
					<polygon class="st8" points="315.4,344.1 315.4,349.2 364.2,321 364.2,315.9 					"/>
					<polygon class="st9" points="315.4,344.1 315.4,349.2 364.2,321 364.2,315.9 					"/>
					<polygon class="st8" points="313.2,342.8 313.2,348 315.4,349.2 315.4,344.1 					"/>
					<polygon class="st10" points="313.2,342.8 313.2,348 315.4,349.2 315.4,344.1 					"/>
					<polygon class="st6" points="335.4,324.1 335.4,270.6 337.9,269.1 337.9,322.6 					"/>
				</g>
				<g id="freepik--window--inject-16_00000003077433654964296750000003391223176254042045_">
					<polygon class="st7" points="359.6,148.2 359.6,207.6 319.6,230.7 319.6,171.3 					"/>
					<polygon class="st5" points="354.8,204.4 319.6,224.7 319.6,171.3 354.8,151 					"/>
					<polygon class="st6" points="359.6,148.2 354.8,151 354.8,204.4 359.6,207.6 					"/>
					<polygon class="st8" points="315.2,233.2 364,205.1 366.2,206.3 317.4,234.5 					"/>
					<polygon class="st8" points="317.4,234.5 317.4,239.6 366.2,211.5 366.2,206.3 					"/>
					<polygon class="st9" points="317.4,234.5 317.4,239.6 366.2,211.5 366.2,206.3 					"/>
					<polygon class="st8" points="315.2,233.2 315.2,238.4 317.4,239.6 317.4,234.5 					"/>
					<polygon class="st10" points="315.2,233.2 315.2,238.4 317.4,239.6 317.4,234.5 					"/>
					<polygon class="st6" points="337.4,214.5 337.4,161 340,159.5 340,213 					"/>
				</g>
				<g id="freepik--Door--inject-16">
					<polygon class="st8" points="296.6,390.5 297.9,391.3 297.9,305.7 296.6,306.4 					"/>
					<polygon class="st9" points="296.6,390.5 297.9,391.3 297.9,305.7 296.6,306.4 					"/>
					<polygon class="st8" points="297.9,391.3 303,388.3 303,296.9 253.3,325.6 253.3,417 258.4,414.1 258.4,328.5 297.9,305.7 
											"/>
					<polygon class="st8" points="303,296.9 253.3,325.6 252,324.8 301.8,296.1 					"/>
					<polygon class="st11" points="303,296.9 253.3,325.6 252,324.8 301.8,296.1 					"/>
					<polygon class="st8" points="253.3,417 253.3,325.6 252,324.8 252,416.3 					"/>
					<polyline class="st9" points="252,324.8 252,416.3 253.3,417 253.3,325.6 					"/>
					<polygon class="st7" points="297.9,305.8 297.9,391.3 258.4,413.8 258.4,328.6 					"/>
					<polygon class="st6" points="258.4,328.6 258.4,408.8 293.6,388.5 293.6,308.3 					"/>
					<path class="st5" d="M265.1,401.6h-0.1c-0.1-0.1-0.1-0.2-0.1-0.3c0-0.5-0.1-0.9-0.5-1.2c-0.3-0.2-0.6-0.2-0.9,0h-0.3
						c-0.1-0.1-0.1-0.2-0.1-0.3v-23.6c0-0.1,0.1-0.2,0.1-0.2c1-0.8,1.7-2,1.7-3.3c0-0.1,0.1-0.2,0.1-0.2l21.9-12.7
						c0.1-0.1,0.2-0.1,0.3,0c0.1,0.1,0.1,0.2,0.1,0.3c-0.1,0.5,0.1,0.9,0.5,1.2c0.3,0.2,0.6,0.2,0.9,0h0.3c0.1,0.1,0.1,0.2,0.1,0.3
						v23.7c0,0.1-0.1,0.2-0.1,0.2c-1,0.8-1.7,2-1.7,3.3c0,0.1-0.1,0.2-0.1,0.2l-21.8,12.6L265.1,401.6z M263.9,399.4
						c0.2,0,0.4,0.1,0.6,0.2c0.4,0.3,0.7,0.8,0.7,1.3l21.4-12.3c0.1-1.4,0.7-2.7,1.8-3.5v-23.1c-0.3,0.1-0.7,0.1-1.1,0
						c-0.4-0.3-0.7-0.8-0.7-1.3l-21.5,12.2c-0.1,1.4-0.7,2.7-1.8,3.5v23.1L263.9,399.4z"/>
					<polygon class="st5" points="293.6,388.5 297.9,391.3 258.4,414.1 258.4,408.8 					"/>
					<polygon class="st8" points="287.1,317.4 263.5,331 263.5,368.4 287.1,354.8 					"/>
					<polygon class="st12" points="287.1,317.4 263.5,331 263.5,368.4 287.1,354.8 					"/>
					<polygon class="st7" points="273.9,362.4 275.3,363.2 263.5,370.1 263.5,368.4 					"/>
					<polygon class="st5" points="287.1,354.8 287.1,317.4 288.5,316.5 288.5,355.6 					"/>
					<polygon class="st7" points="287.1,354.8 288.5,355.6 276.8,362.4 276.8,360.7 					"/>
					<polygon class="st6" points="275.3,363.2 276.8,362.4 276.8,323.3 275.3,324.2 					"/>
					<polygon class="st5" points="275.3,363.2 273.9,362.4 273.9,325 275.3,324.2 					"/>
					<polygon class="st6" points="275.3,340.4 273.9,339.6 263.5,345.6 263.5,347.3 					"/>
					<polygon class="st5" points="275.3,340.4 275.3,342.1 263.5,349 263.5,347.3 					"/>
					<polygon class="st6" points="288.5,332.8 287.1,332 276.8,337.9 276.8,339.6 					"/>
					<polygon class="st5" points="288.5,332.8 288.5,334.5 276.8,341.3 276.8,339.6 					"/>
				</g>
			</g>
		</g>
	</g>
</g>
<g>
	<ellipse class="st4" cx="155.5" cy="420.9" rx="25.9" ry="13"/>
	<ellipse class="st4" cx="104.1" cy="450.8" rx="18.1" ry="9"/>
	<g id="freepik--Trees--inject-16">
		<g id="freepik--trees--inject-16">
			<g id="freepik--Tree--inject-16">
				<g id="freepik--tree--inject-16">
					<path class="st8" d="M98.1,393.5c-1.2,0.3-2.2,1-3.1,1.9c-1.7,1.9-3.2,3.8-4.6,5.8c-1.3,2-3.2,3.6-5.3,4.8
						c-2.2,1-4.7,0.6-6.4-1.1c-0.3-0.3-0.3-0.7-0.8-0.9c-0.8-0.3-1.7-0.1-2.3,0.4c-0.6,0.6-1.2,1.2-1.7,1.8c-2.3,2-5.1,3.3-8.1,3.8
						c-2.4,0.5-4.9,0.7-6.1-1.5c-0.8-1.4,0.2-2.6,0.6-3.9c0.3-1.4,0.5-2.8-0.9-3.6c-0.5-0.2-1-0.3-1.6-0.2c-2.9,0.1-5.7,2.1-8.6,1.4
						c-2.1-0.8-3.3-2.8-3-5c0.4-2.1,1.7-4,3.6-5c1.7-1.1,3.5-2,4-3.9c0.5-1.9-0.9-2.8-2.3-3.4c-1.4-0.6-2.6-0.5-3.8-1.6
						c-1.3-1.1-1.8-2.8-1.4-4.4c0.5-1.7,1.7-3.2,3.2-4.1c0.8-0.5,1.5-1,2.2-1.6c0.6-0.6,1-1.5,0.4-2.1c-0.6-0.6-0.9-0.3-1.3-0.6
						c-0.8-0.7-0.5-1.8,0-2.6c0.7-0.8,1.5-1.4,2.3-2c1.4-1.2,2.5-2.6,1.1-4.2c-1.4-1.6-3.5,0.1-5.2-1.3c-1.7-1.4-1.4-4.7-0.7-6.4
						c0.9-1.4,1.8-2.8,2.9-4.2c1.1-1.3,1-3.3-0.2-4.5c-1.4-1.3-4.2-1.2-6.1-1.3c-1.9,0-4.3-0.6-4.8-2.6c-0.5-2,0.9-2.9,1.6-4.6
						c0.8-2,0.6-4.2-0.5-6c-0.7-1-1.3-2-1.7-3.1c-0.8-3.8,0.6-7.7,3.6-10.1c1.1-1,2.6-1.4,4-0.9c0.9,0,1.8,0.3,2.5,0.8
						c1.4,1,2.4,2.9,4.6,2.6c3.3-0.5,4.3-4,7.8-1.3c1.6,1.3,3,2.8,4.3,4.4c1.2,1.5,1.7,3.2,3.8,4c2.3,1,4.9,0.7,7-0.7
						c1.6-1.2,3.6-1.7,5.6-1.5c3.5,0.8,3.9,3.7,3.7,6.7c-0.2,3.4,1.7,4.3,3.6,6.6c0.9,1.1,1.2,2,2.8,2.4c2.8,0.8,4.1,0.5,5.3,3.6
						s1.6,2,4.5,2.4c2.6,0.3,5.3,2.3,7.8,3.3c1.6,0.6,3.7,0.7,4.5,2.5c1.5,3.3-2.8,4.3-4.3,6.1c-1.8,2.3-1.4,5.7,0.9,7.5
						c0.5,0.4,1,0.6,1.5,0.8c3.2,1.4,7.2,1,9,4.5c1.4,2.7-0.3,4-2.1,5.8c-1.4,1.4-1,1.8-0.3,3.7c1.4,3.9,0.6,5.8-3.7,6.7
						c-1.4,0.1-2.7,0.5-3.9,1.1c-1.4,1.1-0.5,1.3-0.2,2.7c0.8,3.4-2.7,3.9-5.2,3.1C103.7,393.5,100.9,393.1,98.1,393.5z"/>
					<path class="st4" d="M98.1,393.5c-1.2,0.3-2.2,1-3.1,1.9c-1.7,1.9-3.2,3.8-4.6,5.8c-1.3,2-3.2,3.6-5.3,4.8
						c-2.2,1-4.7,0.6-6.4-1.1c-0.3-0.3-0.3-0.7-0.8-0.9c-0.8-0.3-1.7-0.1-2.3,0.4c-0.6,0.6-1.2,1.2-1.7,1.8c-2.3,2-5.1,3.3-8.1,3.8
						c-2.4,0.5-4.9,0.7-6.1-1.5c-0.8-1.4,0.2-2.6,0.6-3.9c0.3-1.4,0.5-2.8-0.9-3.6c-0.5-0.2-1-0.3-1.6-0.2c-2.9,0.1-5.7,2.1-8.6,1.4
						c-2.1-0.8-3.3-2.8-3-5c0.4-2.1,1.7-4,3.6-5c1.7-1.1,3.5-2,4-3.9c0.5-1.9-0.9-2.8-2.3-3.4c-1.4-0.6-2.6-0.5-3.8-1.6
						c-1.3-1.1-1.8-2.8-1.4-4.4c0.5-1.7,1.7-3.2,3.2-4.1c0.8-0.5,1.5-1,2.2-1.6c0.6-0.6,1-1.5,0.4-2.1c-0.6-0.6-0.9-0.3-1.3-0.6
						c-0.8-0.7-0.5-1.8,0-2.6c0.7-0.8,1.5-1.4,2.3-2c1.4-1.2,2.5-2.6,1.1-4.2c-1.4-1.6-3.5,0.1-5.2-1.3c-1.7-1.4-1.4-4.7-0.7-6.4
						c0.9-1.4,1.8-2.8,2.9-4.2c1.1-1.3,1-3.3-0.2-4.5c-1.4-1.3-4.2-1.2-6.1-1.3c-1.9,0-4.3-0.6-4.8-2.6c-0.5-2,0.9-2.9,1.6-4.6
						c0.8-2,0.6-4.2-0.5-6c-0.7-1-1.3-2-1.7-3.1c-0.8-3.8,0.6-7.7,3.6-10.1c1.1-1,2.6-1.4,4-0.9c0.9,0,1.8,0.3,2.5,0.8
						c1.4,1,2.4,2.9,4.6,2.6c3.3-0.5,4.3-4,7.8-1.3c1.6,1.3,3,2.8,4.3,4.4c1.2,1.5,1.7,3.2,3.8,4c2.3,1,4.9,0.7,7-0.7
						c1.6-1.2,3.6-1.7,5.6-1.5c3.5,0.8,3.9,3.7,3.7,6.7c-0.2,3.4,1.7,4.3,3.6,6.6c0.9,1.1,1.2,2,2.8,2.4c2.8,0.8,4.1,0.5,5.3,3.6
						s1.6,2,4.5,2.4c2.6,0.3,5.3,2.3,7.8,3.3c1.6,0.6,3.7,0.7,4.5,2.5c1.5,3.3-2.8,4.3-4.3,6.1c-1.8,2.3-1.4,5.7,0.9,7.5
						c0.5,0.4,1,0.6,1.5,0.8c3.2,1.4,7.2,1,9,4.5c1.4,2.7-0.3,4-2.1,5.8c-1.4,1.4-1,1.8-0.3,3.7c1.4,3.9,0.6,5.8-3.7,6.7
						c-1.4,0.1-2.7,0.5-3.9,1.1c-1.4,1.1-0.5,1.3-0.2,2.7c0.8,3.4-2.7,3.9-5.2,3.1C103.7,393.5,100.9,393.1,98.1,393.5z"/>
					<path class="st9" d="M57.6,400.9c-2.3,0.2-4.3,1.2-6.6,1.6c1.1-0.7,2.2-1.3,3.4-1.8c3.1-1,6.4-1,9.5,0
						c-0.5,1.6-0.4,3.4,0.3,4.9c6.3-2,9.3-8.3,15.9-9.8c0.6,2.5,1.7,5.1,4.7,4.8c1.6-0.4,2.9-1.6,3.5-3.2c0.7-1.4,0.8-3.1,1.5-4.5
						c1.4-3.7,5.3-5.9,9.2-5.4c1.7,0.3,3.2,1.3,4.3-0.2c1.1-1.5-0.8-3.6,0.3-5c0.7-1,2.1-0.6,2.6-1.7c0.2-0.5,0.2-1,0-1.5
						c-0.1-2.8-1.2-5.5-3.1-7.7c-1.9-1.7-4.7-1.7-5.3-4.3c-0.5-2.3,1.3-3.7,3-4.8s3.6-2.9,2.7-5.1c-0.9-2.2-3.5-2.3-4.8-4.1
						c-0.5-0.8-0.6-1.9-1.4-2.5c-1.1-1-2.5-0.3-3.8-1c-2.3-1.2-2.8-4.3-4.3-6.3c-1.1-1.5-3.2-2-4.5-3.4c-2.4-2.6-2.8-6.5-0.9-9.5
						c0.6-1.1,1.2-2.2,1.8-3.4V327c0.8,1.6,1,3.3,0.7,5c-0.3,3.2,1.7,4.3,3.6,6.4c0.9,1.1,1.2,2,2.8,2.4c2.8,0.7,4.1,0.5,5.3,3.6
						c1.2,3.1,1.5,2,4.5,2.4c2.6,0.3,5.3,2.3,7.8,3.3c1.6,0.6,3.7,0.7,4.5,2.5c1.5,3.3-2.8,4.3-4.3,6.1c-1.8,2.3-1.4,5.7,0.9,7.5
						c0.5,0.4,1,0.6,1.5,0.8c3.2,1.4,7.2,1,9,4.5c1.4,2.7-0.3,4-2.1,5.8c-1.4,1.4-1,1.8-0.3,3.7c1.4,3.9,0.6,5.8-3.7,6.7
						c-1.4,0.1-2.7,0.5-3.9,1.1c-1.4,1.1-0.5,1.3-0.2,2.7c0.8,3.4-2.7,3.9-5.2,3.1c-2.6-1.2-5.5-1.6-8.3-1.1c-1.2,0.3-2.2,1-3.1,1.9
						c-1.6,1.8-3.2,3.8-4.6,5.8c-1.3,2-3.2,3.6-5.3,4.8c-2.2,1-4.7,0.6-6.4-1.1c-0.3-0.3-0.3-0.7-0.8-0.9c-0.8-0.3-1.7-0.1-2.3,0.4
						c-0.6,0.6-1.2,1.2-1.7,1.8c-2.3,2-5.1,3.3-8.1,3.8c-2.4,0.5-4.9,0.7-6.1-1.5c-0.8-1.4,0.2-2.6,0.6-3.9c0.3-1.4,0.5-2.8-0.9-3.6
						C58.8,400.9,58.2,400.8,57.6,400.9z"/>
					<path d="M107.9,450.3l-2.9,1.7c-13.5-22.5-10.6-42-18.1-66.6c-8-7.4-16.2-14.6-24.5-21.5c7.8,5.5,15,10.4,22.8,16.7
						c-2.6-7.6,0.2,1.5-3.5-10c-3.7-11.4-12.7-32-27.9-39.3c15.7,6.7,26,26.3,30.8,38s2,5.1,5.4,13.4c0.3-10.6,1.3-20.1,0.7-30.2
						c1.4,12,1.7,24.1,0.6,36.1C98.5,413,95.4,428.1,107.9,450.3z"/>
				</g>
			</g>
			<g id="freepik--tree--inject-16_00000016072765833755940460000010345549001075679676_">
				<g id="freepik--tree--inject-16_00000141442834725277825760000004443176644577112471_">
					<path class="st8" d="M154.7,362.4c-1.4,0.3-2.6,0.9-3.7,1.8c-2,1.9-4,3.8-5.8,5.9c-1.7,2.1-3.9,3.7-6.4,4.8
						c-2.6,1-5.4,0.2-7.2-1.9c-0.3-0.4-0.3-0.8-0.8-1.1c-0.9-0.4-1.9-0.3-2.6,0.2c-0.8,0.6-1.5,1.2-2.1,1.9c-2.8,2-6.1,3.2-9.5,3.4
						c-2.7,0.3-5.6,0.3-6.7-2.3c-0.7-1.7,0.5-2.8,1.1-4.3c0.5-1.5,0.9-3.1-0.6-4.1c-0.5-0.3-1.2-0.5-1.8-0.4
						c-3.3-0.2-6.6,1.8-9.8,0.6c-2.2-1.1-3.4-3.6-2.8-6c0.6-2.3,2.3-4.3,4.6-5.2c2.1-1,4.1-1.8,4.9-3.9c0.8-2.1-0.7-3.3-2.1-4.1
						s-2.9-0.9-4.1-2.1c-1.3-1.4-1.7-3.3-1.1-5.1c0.8-1.9,2.2-3.4,4.1-4.2c1-0.4,1.9-0.8,2.7-1.4c0.8-0.6,1.3-1.6,0.7-2.5
						c-0.4-0.5-1-0.4-1.4-0.8c-0.8-0.9-0.3-2,0.4-2.9c0.9-0.8,1.8-1.5,2.8-2c1.7-1.2,3.1-2.6,1.7-4.6c-1.4-1.9-4-0.2-5.7-2
						s-1.1-5.4,0-7.3c1.1-1.5,2.4-2.9,3.7-4.3c1.4-1.4,1.5-3.5,0.3-5c-1.5-1.7-4.5-1.9-6.7-2.1c-2.1-0.3-4.7-1.2-5-3.5
						c-0.3-2.3,1.3-3.1,2.3-5c1.1-2.1,1.1-4.6,0-6.7c-0.7-1.2-1.2-2.4-1.6-3.7c-0.5-4.3,1.5-8.5,5.1-10.9c1.3-1,3.1-1.3,4.6-0.6
						c1,0.1,2,0.5,2.8,1.2c1.5,1.3,2.4,3.5,4.9,3.4c3.8-0.2,5.4-4,8.9-0.6c1.6,1.7,3,3.5,4.3,5.4c1.2,1.8,1.5,3.8,3.8,4.9
						c2.5,1.4,5.4,1.4,7.9,0c1.9-1.2,4.2-1.5,6.4-1c3.9,1.3,4,4.6,3.4,7.9c-0.6,3.8,1.4,5,3.3,7.8c0.9,1.3,1.2,2.4,2.8,3
						c3.1,1.1,4.5,1,5.5,4.6c0.9,3.3,1.5,2.4,4.8,3.2c2.9,0.7,5.7,3.1,8.4,4.5c1.7,0.9,4.1,1.2,4.8,3.3c1.3,3.9-3.6,4.5-5.5,6.4
						c-2.3,2.4-2.2,6.2,0.3,8.5c0.5,0.4,1,0.8,1.6,1.1c3.4,1.9,8,1.9,9.6,6c1.2,3.2-0.8,4.4-2.9,6.3c-1.7,1.5-1.3,1.9-0.7,4.1
						c1.2,4.5,0,6.6-4.9,7.2c-1.5,0-3.1,0.3-4.5,0.8c-1.6,1.1-0.7,1.4-0.5,3c0.6,3.9-3.4,4-6.2,2.9
						C160.7,363.2,158.2,361.9,154.7,362.4z"/>
					<path class="st10" d="M154.7,362.4c-1.4,0.3-2.6,0.9-3.7,1.8c-2,1.9-4,3.8-5.8,5.9c-1.7,2.1-3.9,3.7-6.4,4.8
						c-2.6,1-5.4,0.2-7.2-1.9c-0.3-0.4-0.3-0.8-0.8-1.1c-0.9-0.4-1.9-0.3-2.6,0.2c-0.8,0.6-1.5,1.2-2.1,1.9c-2.8,2-6.1,3.2-9.5,3.4
						c-2.7,0.3-5.6,0.3-6.7-2.3c-0.7-1.7,0.5-2.8,1.1-4.3c0.5-1.5,0.9-3.1-0.6-4.1c-0.5-0.3-1.2-0.5-1.8-0.4
						c-3.3-0.2-6.6,1.8-9.8,0.6c-2.2-1.1-3.4-3.6-2.8-6c0.6-2.3,2.3-4.3,4.6-5.2c2.1-1,4.1-1.8,4.9-3.9c0.8-2.1-0.7-3.3-2.1-4.1
						s-2.9-0.9-4.1-2.1c-1.3-1.4-1.7-3.3-1.1-5.1c0.8-1.9,2.2-3.4,4.1-4.2c1-0.4,1.9-0.8,2.7-1.4c0.8-0.6,1.3-1.6,0.7-2.5
						c-0.4-0.5-1-0.4-1.4-0.8c-0.8-0.9-0.3-2,0.4-2.9c0.9-0.8,1.8-1.5,2.8-2c1.7-1.2,3.1-2.6,1.7-4.6c-1.4-1.9-4-0.2-5.7-2
						s-1.1-5.4,0-7.3c1.1-1.5,2.4-2.9,3.7-4.3c1.4-1.4,1.5-3.5,0.3-5c-1.5-1.7-4.5-1.9-6.7-2.1c-2.1-0.3-4.7-1.2-5-3.5
						c-0.3-2.3,1.3-3.1,2.3-5c1.1-2.1,1.1-4.6,0-6.7c-0.7-1.2-1.2-2.4-1.6-3.7c-0.5-4.3,1.5-8.5,5.1-10.9c1.3-1,3.1-1.3,4.6-0.6
						c1,0.1,2,0.5,2.8,1.2c1.5,1.3,2.4,3.5,4.9,3.4c3.8-0.2,5.4-4,8.9-0.6c1.6,1.7,3,3.5,4.3,5.4c1.2,1.8,1.5,3.8,3.8,4.9
						c2.5,1.4,5.4,1.4,7.9,0c1.9-1.2,4.2-1.5,6.4-1c3.9,1.3,4,4.6,3.4,7.9c-0.6,3.8,1.4,5,3.3,7.8c0.9,1.3,1.2,2.4,2.8,3
						c3.1,1.1,4.5,1,5.5,4.6c0.9,3.3,1.5,2.4,4.8,3.2c2.9,0.7,5.7,3.1,8.4,4.5c1.7,0.9,4.1,1.2,4.8,3.3c1.3,3.9-3.6,4.5-5.5,6.4
						c-2.3,2.4-2.2,6.2,0.3,8.5c0.5,0.4,1,0.8,1.6,1.1c3.4,1.9,8,1.9,9.6,6c1.2,3.2-0.8,4.4-2.9,6.3c-1.7,1.5-1.3,1.9-0.7,4.1
						c1.2,4.5,0,6.6-4.9,7.2c-1.5,0-3.1,0.3-4.5,0.8c-1.6,1.1-0.7,1.4-0.5,3c0.6,3.9-3.4,4-6.2,2.9
						C160.7,363.2,158.2,361.9,154.7,362.4z"/>
					<path class="st9" d="M108.5,366.2c-2.6,0-5,0.9-7.6,1.1c1.3-0.6,2.6-1.2,4-1.6c3.6-0.8,7.3-0.5,10.7,0.9
						c-0.8,1.8-0.8,3.7-0.2,5.5c7.3-1.5,11.3-8.3,18.9-9.2c0.4,2.8,1.4,5.9,4.7,5.9c1.9-0.2,3.5-1.4,4.3-3.2
						c0.9-1.5,1.3-3.4,2.1-4.9c2.4-3.9,6.4-6.3,10.9-5c1.8,0.5,3.4,1.8,4.7,0.2c1.3-1.6-0.5-4.1,0.9-5.6c0.9-1,2.4-0.4,3.1-1.6
						c0.3-0.5,0.3-1.1,0.2-1.6c-0.2-3.1-0.4-6.6-2.6-8.9c-2.2-2.3-5.1-2.4-5.5-5.4c-0.3-2.6,1.9-4,3.9-5.1c2-1.1,4.3-2.8,3.6-5.4
						c-0.7-2.5-3.7-2.9-4.9-5.1c-0.5-0.9-0.5-2.1-1.3-3c-1.1-1.2-2.8-0.6-4.1-1.5c-2.5-1.6-2.7-5.1-4.3-7.6
						c-1.1-1.8-3.4-2.6-4.7-4.3c-2.4-3.2-2.4-7.6,0-10.7c0.9-1.2,1.6-2.4,2.4-3.6v-0.2c0.7,1.8,0.8,3.8,0.3,5.7
						c-0.6,3.6,1.4,5.1,3.3,7.7c0.9,1.3,1.2,2.4,2.8,3c3.1,1.1,4.5,1,5.5,4.6c0.9,3.3,1.5,2.4,4.8,3.2c2.9,0.7,5.7,3.1,8.4,4.5
						c1.7,0.9,4.1,1.2,4.8,3.3c1.3,3.9-3.6,4.5-5.5,6.4c-2.3,2.4-2.2,6.2,0.3,8.5c0.5,0.4,1,0.8,1.6,1.1c3.4,1.9,8,1.9,9.6,6
						c1.2,3.2-0.8,4.4-2.9,6.3c-1.7,1.5-1.3,1.9-0.7,4.1c1.2,4.5,0,6.6-4.9,7.2c-1.5,0-3.1,0.3-4.5,0.8c-1.6,1.1-0.7,1.4-0.5,3
						c0.6,3.9-3.4,4-6.2,2.9c-3.2-1.4-5.7-2.7-9.2-2.1c-1.4,0.3-2.6,0.9-3.7,1.8c-2,1.9-4,3.8-5.8,5.9c-1.7,2.1-3.9,3.7-6.4,4.8
						c-2.6,1-5.4,0.2-7.2-1.9c-0.3-0.4-0.3-0.8-0.8-1.1c-0.9-0.4-1.9-0.3-2.6,0.2c-0.8,0.6-1.5,1.2-2.1,1.9c-2.8,2-6.1,3.1-9.5,3.3
						c-2.7,0.3-5.6,0.3-6.7-2.3c-0.7-1.7,0.5-2.8,1.1-4.3c0.5-1.5,0.9-3.1-0.6-4.1C109.7,366.3,109.1,366.2,108.5,366.2z"/>
					<path d="M157.2,421.9l-3.5,2c-10-24.6-5.5-45.1-10.9-71.8c-8.1-9.2-16.5-18.2-25.1-26.9c8.1,7,15.7,13.3,23.6,21.2
						c-2-8.8,0,1.7-2.9-11.5s-10.7-37.3-26.9-47c16.8,9.2,26.2,32.2,30.3,46s1.7,5.9,4.5,15.6c1.6-11.8,3.7-22.4,4.1-33.8
						c0.3,13.6-0.7,27.1-3.2,40.5C152.6,382.4,148.5,398.5,157.2,421.9z"/>
				</g>
			</g>
		</g>
	</g>
</g>
<g id="freepik--Fence--inject-16">
	<g id="freepik--fence--inject-16_00000091717910774491789130000001035153810530447765_">
		<polygon id="freepik--shadow--inject-16_00000059285934830548480460000008816865266262684320_" class="st4" points="259.7,433.2 
			159.6,491 154.8,488.1 254.9,430.3 		"/>
		<g id="freepik--fence--inject-16">
			<polygon class="st7" points="162.4,485.9 162.4,449.2 165.1,443.6 167.9,446 167.9,482.7 			"/>
			<polygon class="st5" points="162.4,449.2 161,448.4 161,485.1 162.4,485.9 			"/>
			<polygon class="st6" points="165.1,443.6 163.8,442.7 161,448.4 162.4,449.2 			"/>
			<polygon class="st7" points="182.7,474.2 182.7,437.5 185.5,431.9 188.2,434.3 188.2,471 			"/>
			<polygon class="st5" points="182.7,437.5 181.4,436.7 181.4,473.4 182.7,474.2 			"/>
			<polygon class="st6" points="185.5,431.9 184.1,431 181.4,436.7 182.7,437.5 			"/>
			<polygon class="st7" points="203.1,462.5 203.1,425.8 205.8,420.2 208.6,422.6 208.6,459.4 			"/>
			<polygon class="st5" points="203.1,425.8 201.7,425 201.7,461.7 203.1,462.5 			"/>
			<polygon class="st6" points="205.8,420.2 204.4,419.4 201.7,425 203.1,425.8 			"/>
			<polygon class="st7" points="223.4,450.8 223.4,414.1 226.1,408.5 228.9,410.9 228.9,447.7 			"/>
			<polygon class="st5" points="223.4,414.1 222,413.3 222,450.1 223.4,450.8 			"/>
			<polygon class="st6" points="226.1,408.5 224.8,407.7 222,413.3 223.4,414.1 			"/>
			<polygon class="st7" points="243.8,439.1 243.8,402.4 246.5,396.8 249.3,399.3 249.3,436 			"/>
			<polygon class="st5" points="243.8,402.4 242.4,401.6 242.4,438.4 243.8,439.1 			"/>
			<polygon class="st6" points="246.5,396.8 245.1,396 242.4,401.6 243.8,402.4 			"/>
			<polygon class="st5" points="249.3,414 243.8,417.2 243.8,415 249.3,411.9 			"/>
			<polygon class="st5" points="223.4,426.7 228.9,423.5 228.9,425.7 223.4,428.9 			"/>
			<polygon class="st5" points="182.7,450.1 188.2,446.9 188.2,449 182.7,452.2 			"/>
			<polygon class="st5" points="203.1,438.4 208.6,435.2 208.6,437.4 203.1,440.5 			"/>
			<polygon class="st5" points="162.4,461.7 167.9,458.6 167.9,460.7 162.4,463.9 			"/>
			<polygon class="st5" points="249.3,428 243.8,431.1 243.8,428.9 249.3,425.8 			"/>
			<polygon class="st5" points="223.4,440.6 228.9,437.5 228.9,439.6 223.4,442.8 			"/>
			<polygon class="st5" points="182.7,464 188.2,460.8 188.2,463 182.7,466.2 			"/>
			<polygon class="st5" points="203.1,452.3 208.6,449.2 208.6,451.3 203.1,454.5 			"/>
			<polygon class="st5" points="162.4,475.7 167.9,472.5 167.9,474.7 162.4,477.9 			"/>
			<polygon class="st7" points="156.2,477.8 255.1,420.9 255.1,423.1 156.2,479.9 			"/>
			<polygon class="st5" points="156.2,477.8 154.8,476.9 154.8,479.1 156.2,479.9 			"/>
			<polygon class="st6" points="255.1,420.9 156.2,477.8 154.8,476.9 253.7,420.1 			"/>
			<polygon class="st7" points="156.2,463.9 255.1,407.1 255.1,409.2 156.2,466.1 			"/>
			<polygon class="st5" points="156.2,463.9 154.8,463.1 154.8,465.3 156.2,466.1 			"/>
			<polygon class="st6" points="255.1,407.1 156.2,463.9 154.8,463.1 253.7,406.3 			"/>
		</g>
	</g>
	<g id="freepik--fence--inject-16_00000012435403311078721060000010010486680993249189_">
		<polygon id="freepik--shadow--inject-16_00000023986531127878606950000003011177065956599430_" class="st4" points="455,321.3 
			354.9,379.1 350.1,376.2 450.1,318.4 		"/>
		<g id="freepik--fence--inject-16_00000155137987446531921130000006719168633917185940_">
			<polygon class="st5" points="357.7,337.3 356.3,336.5 356.3,373.2 357.7,374 			"/>
			<polygon class="st6" points="360.4,331.7 359,330.8 356.3,336.5 357.7,337.3 			"/>
			<polygon class="st5" points="378,325.6 376.6,324.8 376.6,361.5 378,362.3 			"/>
			<polygon class="st6" points="380.7,320 379.4,319.2 376.6,324.8 378,325.6 			"/>
			<polygon class="st5" points="398.4,313.9 397,313.1 397,349.8 398.4,350.6 			"/>
			<polygon class="st6" points="401.1,308.3 399.7,307.5 397,313.1 398.4,313.9 			"/>
			<polygon class="st5" points="418.7,302.2 417.3,301.4 417.3,338.2 418.7,339 			"/>
			<polygon class="st6" points="421.4,296.6 420,295.8 417.3,301.4 418.7,302.2 			"/>
			<polygon class="st7" points="439,327.3 439,290.5 441.7,284.9 444.5,287.4 444.5,324.1 			"/>
			<path class="st7" d="M357.7,337.3V374l5.5-3.2v-36.7l-2.8-2.4L357.7,337.3z M378,325.6v36.7l5.5-3.2v-36.7l-2.8-2.4L378,325.6z
				 M398.4,313.9v36.7l5.5-3.2v-36.8l-2.8-2.4L398.4,313.9z M418.7,302.2V339l5.5-3.2V299l-2.8-2.4L418.7,302.2z M441.7,284.9
				l-2.7,5.6v36.8l5.5-3.2v-36.8L441.7,284.9z"/>
			<polygon class="st5" points="439,290.5 437.6,289.7 437.6,326.5 439,327.3 			"/>
			<polygon class="st6" points="441.7,284.9 440.4,284.1 437.6,289.7 439,290.5 			"/>
			<polygon class="st5" points="357.7,349.8 363.2,346.7 363.2,348.8 357.7,352 			"/>
			<polygon class="st5" points="444.5,316.1 439,319.2 439,317.1 444.5,313.9 			"/>
			<polygon class="st5" points="418.7,328.7 424.2,325.6 424.2,327.8 418.7,330.9 			"/>
			<polygon class="st5" points="378,352.1 383.5,348.9 383.5,351.1 378,354.3 			"/>
			<polygon class="st5" points="398.4,340.4 403.9,337.3 403.9,339.4 398.4,342.6 			"/>
			<polygon class="st5" points="357.7,363.8 363.2,360.6 363.2,362.8 357.7,366 			"/>
			<polygon class="st7" points="351.5,365.9 450.4,309 450.4,311.2 351.5,368 			"/>
			<polygon class="st5" points="351.5,365.9 350.1,365.1 350.1,367.2 351.5,368 			"/>
			<polygon class="st6" points="450.4,309 351.5,365.9 350.1,365.1 448.9,308.2 			"/>
			<polygon class="st7" points="358.7,345.5 450.2,295.4 450.6,297.5 359.1,347.6 			"/>
			<polygon class="st5" points="357.7,354.4 363.2,352.6 363.2,350.4 357.7,352.3 			"/>
			<polygon class="st5" points="383.5,343.6 378,345.5 378,347.7 383.5,345.8 			"/>
			<polygon class="st5" points="439,325.2 439,327.3 444.5,324.1 444.5,323.3 			"/>
			<polygon class="st5" points="424.2,330.1 418.7,331.9 418.7,334.1 424.2,332.3 			"/>
			<polygon class="st5" points="403.9,336.9 398.4,338.7 398.4,340.9 403.9,339 			"/>
			<polygon class="st5" points="358.7,345.5 357.1,344.6 357.5,346.8 359.1,347.6 			"/>
			<polygon class="st6" points="450.2,295.4 358.7,345.5 357.1,344.6 448.6,294.5 			"/>
		</g>
	</g>
</g>
<g id="freepik--street-lights--inject-16_00000034085583322980671960000014955090955386045835_">
	<path class="st6" d="M454.3,405c-2.5-1.2-5.4-1.2-7.8,0c-1.3,0-2.3,1-2.3,2.3c0,1.3,1,2.3,2.3,2.3c2.5,1.2,5.4,1.2,7.8,0
		c1.3,0,2.3-1,2.3-2.3C456.6,406,455.5,405,454.3,405z"/>
	<path class="st5" d="M455.9,407.3c-0.1-1-0.7-1.9-1.6-2.3c-2.5-1.2-5.4-1.2-7.8,0c-0.9,0.4-1.5,1.3-1.6,2.3v1.4
		c0.1,1,0.7,1.9,1.6,2.3c2.5,1.2,5.4,1.2,7.8,0c0.9-0.4,1.5-1.3,1.6-2.3V407.3z"/>
	<path class="st6" d="M454.3,405c-2.5-1.2-5.4-1.2-7.8,0c-1.3,0-2.3,1-2.3,2.3c0,1.3,1,2.3,2.3,2.3c2.5,1.2,5.4,1.2,7.8,0
		c1.3,0,2.3-1,2.3-2.3C456.6,406,455.5,405,454.3,405z"/>
	<path class="st7" d="M446.2,347.5c0.1-0.7,0.5-1.4,1.2-1.7c1.8-0.9,4-0.9,5.8,0c0.7,0.3,1.1,0.9,1.2,1.7v59.4
		c-0.1,0.7-0.5,1.4-1.2,1.7c-1.8,0.9-4,0.9-5.8,0c-0.7-0.3-1.1-0.9-1.2-1.7V347.5z"/>
	<path class="st6" d="M453.3,345.8c-1.8-0.9-4-0.9-5.8,0c-0.9,0.3-1.4,1.3-1.1,2.2c0.2,0.5,0.6,0.9,1.1,1.1c1.8,0.9,4,0.9,5.8,0
		c0.9-0.3,1.4-1.3,1.1-2.2C454.2,346.4,453.8,346,453.3,345.8z"/>
	<path class="st5" d="M451.1,205L451,346.9c0,0-0.1,0.2-0.2,0.3c-0.3,0.1-0.7,0.1-0.9-0.1c-0.1-0.1-0.2-0.2-0.2-0.3l0.1-141.8
		c0-0.4,0.3-0.7,0.7-0.6c0,0,0,0,0,0C450.8,204.4,451.1,204.7,451.1,205z"/>
	<path class="st5" d="M451,226.8l-1.2-0.1c0.5-5.3,3.7-10,8.5-12.3c5.4-2.7,11.9-2.2,16.8,1.2l-0.7,1c-4.6-3.2-10.6-3.7-15.6-1.2
		C454.3,217.6,451.4,221.9,451,226.8z"/>
	<path class="st5" d="M451,226.8l-1.2-0.1c0.2-4.9-2.2-9.5-6.3-12.2c-4.7-3.1-10.7-3.4-15.6-0.8l-0.5-1.1c5.4-2.8,11.8-2.5,16.8,0.9
		C448.6,216.4,451.2,221.5,451,226.8z"/>
	<path class="st5" d="M474,220.3l2.9,2.3c2.5,1.8,5.7,2.2,8.6,1c0.9-0.3,1.6-1.1,1.8-2.1c0-0.3,0.1-1.4,0.1-1.7
		c0.1-0.9-0.6-1.8-2-2.6l-4.6-2.5c-2.3-1.4-5.1-1.7-7.7-1c-0.6,0.3-0.9,0.8-1,1.4c0,0.3-0.1,1.4-0.1,1.7
		C472,218.3,472.8,219.6,474,220.3z"/>
	<path class="st7" d="M473,213.8c-1.7,0.8-1.2,3,1.1,4.8l2.9,2.3c2.5,1.8,5.7,2.2,8.6,1c2.5-1.2,2.4-3.3-0.2-4.6l-4.6-2.5
		C478.5,213.5,475.7,213.1,473,213.8z"/>
	<path class="st6" d="M472.8,215.3c0-0.4,0.3-0.7,0.6-0.8c0.8-0.3,1.6-0.5,2.5-0.4c1.6,0.1,3.2,0.6,4.6,1.3l4.6,2.5
		c1,0.6,1.6,1.2,1.6,1.9c0,0.6-0.5,1.1-1.4,1.6c-1.1,0.5-2.3,0.6-3.4,0.5c-1.6-0.1-3.1-0.7-4.4-1.6l-2.9-2.1
		C473.6,217.4,472.9,216.4,472.8,215.3z"/>
	<path class="st5" d="M426.6,217.3l-3.1,1.9c-2.7,1.5-6,1.5-8.7,0c-0.9-0.4-1.5-1.3-1.5-2.3c0-0.3,0.1-1.4,0.1-1.7
		c0.1-0.9,0.8-1.8,2.3-2.3l4.9-1.9c2.5-1.1,5.3-1.1,7.8,0c0.5,0.3,0.9,0.9,0.8,1.5c0,0.3-0.1,1.4-0.1,1.7
		C429.1,215.2,428.2,216.4,426.6,217.3z"/>
	<path class="st7" d="M428.4,211c1.6,1,0.8,3.1-1.6,4.6l-3.1,1.9c-2.7,1.5-6,1.5-8.7,0c-2.3-1.5-1.9-3.6,0.8-4.7l4.9-1.9
		C423.1,209.9,425.9,209.9,428.4,211z"/>
	<path class="st6" d="M428.5,212.5c0-0.4-0.2-0.7-0.5-0.9c-0.7-0.4-1.6-0.6-2.4-0.7c-1.6-0.1-3.2,0.2-4.7,0.7l-4.9,1.9
		c-1.1,0.4-1.8,1-1.8,1.7c-0.1,0.6,0.4,1.2,1.2,1.7c1,0.6,2.1,0.9,3.3,1c1.6,0.1,3.2-0.2,4.6-1l3.1-1.9
		C427.7,214.3,428.5,213.2,428.5,212.5z"/>
</g>
<g>
	<g id="freepik--Shadows--inject-4_00000145740171278712773220000016870836402916190877_">
		<path id="freepik--shadow--inject-4_00000109005807237075719090000005015460545947252903_" class="st0" d="M428.9,443.2
			c-0.9,0-1.8-0.3-2.5-1l-35.2-36.8c-1.5-1.5-2.3-3.6-2.3-5.7c0-0.4,0-0.7,0.1-1.1c0.4-2.5,1.9-4.6,4-5.9l1.1-0.6
			c3.6-1.9,7.8-1.9,11.5,0l49.3,28.5l2.6,1.5c1,0.4,1.4,1.6,1,2.6c-0.2,0.4-0.6,0.8-1,1l-3.1,1.8c-0.7,0.4-1.6,0.6-2.4,0.6l0,0
			c-0.6,0-1.1-0.1-1.7-0.2l-42.2-16.5l25.4,26.5c0.9,0.9,1,2.4,0.1,3.3c-0.2,0.2-0.4,0.3-0.6,0.5l-2.5,1.4
			C429.9,443.1,429.4,443.2,428.9,443.2z"/>
	</g>
	<g id="freepik--speech-bubble--inject-4_00000024695565744927840500000002032140824951800724_">
		<g id="freepik--speech-bubble--inject-4_00000183209222195565085640000015251585387888411807_">
			<g id="freepik--speech-bubble--inject-4_00000063592503745320234990000000009295436173771412_">
				<path class="st5" d="M429.2,349l1.8-3.5l-1.5-4.3v-2.6l4.5,2.6v2.6l-2,3.4c0,0.1-0.1,0.1-0.2,0.1l0,0L429.2,349z"/>
				<path class="st7" d="M416.9,317.1c0.1-1,0.6-1.8,1.3-2.3l1.1-0.7c0.8-0.4,1.8-0.4,2.7,0l21.4,12.3c0.8,0.5,1.3,1.4,1.3,2.3v18.6
					c-0.1,1-0.6,1.8-1.3,2.3l-1.1,0.7c-0.8,0.4-1.8,0.4-2.7,0l-8.3-4.8l-2,3.4c-0.1,0.2-0.2,0.2-0.4,0.1c-0.1,0-0.1-0.1-0.2-0.2
					l-2.1-5.9l-8.5-4.9c-0.8-0.5-1.3-1.4-1.3-2.3L416.9,317.1L416.9,317.1z"/>
				<path class="st5" d="M444.7,347.4c-0.1,1-0.6,1.8-1.3,2.3l-1.1,0.7c-0.7,0.4-1.7,0.4-2.5,0.1c0.7,0.2,1.2-0.1,1.2-0.9v-18.6
					c0-0.5-0.2-0.9-0.4-1.3l3.8-2.2c0.2,0.4,0.4,0.8,0.4,1.3L444.7,347.4L444.7,347.4z"/>
				<path class="st6" d="M416.9,316.7c0.2-0.6,0.7-0.7,1.3-0.4l21.4,12.3c0.4,0.2,0.7,0.6,1,1l3.8-2.2c-0.2-0.4-0.6-0.7-1-1
					L422,314.1c-0.8-0.4-1.9-0.4-2.7,0l-1.1,0.7C417.5,315.2,417.1,315.9,416.9,316.7z"/>
			</g>
			<path class="st13" d="M437.2,331.7l-15.6-9c-0.3-0.2-0.6,0-0.6,0.3v10.8c0,0.4,0.2,0.7,0.6,1l15.6,9c0.3,0.2,0.6,0,0.6-0.3v-10.8
				C437.7,332.3,437.5,332,437.2,331.7z"/>
			<path class="st6" d="M435.6,342c-0.1,0-0.1,0-0.2,0l-12.7-7.3c-0.1-0.1-0.2-0.2-0.2-0.2c0-0.5-0.2-0.9-0.7-1.1
				c-0.1-0.1-0.2-0.2-0.2-0.2v-7.4c0-0.1,0.1-0.2,0.2-0.2c0.1-0.1,0.2-0.1,0.2,0c0.2,0.2,0.6,0.1,0.7-0.2c0.1-0.1,0.1-0.2,0.1-0.2
				c0-0.1,0.1-0.2,0.2-0.2c0.1-0.1,0.2-0.1,0.2,0l12.7,7.3c0.1,0.1,0.2,0.2,0.2,0.2c0,0.5,0.2,0.9,0.7,1.1c0.1,0.1,0.2,0.2,0.2,0.2
				v7.4c0,0.2-0.1,0.2-0.2,0.2c-0.1,0-0.1,0-0.1,0c-0.2-0.2-0.6-0.1-0.7,0.2c-0.1,0.1-0.1,0.2-0.1,0.2s-0.1,0.2-0.2,0.2
				C435.6,341.9,435.6,342,435.6,342z M423.1,334.1l12.3,7.1c0.1-0.2,0.2-0.4,0.4-0.5s0.4-0.2,0.7-0.2v-6.9
				c-0.4-0.3-0.7-0.8-0.7-1.3l-12.3-7.1c-0.2,0.4-0.7,0.7-1.1,0.7v7C422.8,333.2,423,333.6,423.1,334.1z"/>
			<path class="st6" d="M430.4,336.5c-0.4,0-0.8-0.2-1.2-0.3c-1.4-0.9-2.3-2.5-2.5-4.2c0-0.8,0.2-1.4,0.8-1.7
				c0.5-0.3,1.2-0.2,1.9,0.2c1.4,0.9,2.3,2.5,2.5,4.2c0,0.8-0.2,1.4-0.8,1.7C430.9,336.5,430.7,336.5,430.4,336.5z M428.4,330.6
				c-0.2,0-0.3,0-0.5,0.1c-0.3,0.2-0.6,0.7-0.6,1.2c0.1,1.6,0.9,2.9,2.1,3.8c0.5,0.3,1,0.3,1.4,0.2c0.3-0.2,0.6-0.7,0.6-1.2
				c-0.1-1.6-0.9-3-2.1-3.8C428.9,330.7,428.7,330.6,428.4,330.6L428.4,330.6z"/>
		</g>
	</g>
	<g id="freepik--Coin--inject-4_00000155858622644799656170000016800410177512455848_">
		<g id="freepik--coin--inject-4_00000178178259316052269400000009900406093461687168_">
			<path class="st13" d="M336.9,305.3c-1.2-0.7-2.8-0.7-4.6,0.2c-4.3,2.1-8,8.2-8.5,13.6c-0.2,3.1,0.7,5.3,2.2,6.3
				c0.4,0.2,2,1.2,2.4,1.4c1.2,0.7,2.8,0.7,4.7-0.2c4.3-2.1,8.1-8.2,8.5-13.6c0.2-3.1-0.7-5.4-2.3-6.4
				C338.9,306.3,337.3,305.4,336.9,305.3z"/>
			<path class="st14" d="M336.9,305.3c-1.2-0.7-2.8-0.7-4.6,0.2c-4.3,2.1-8,8.2-8.5,13.6c-0.2,3.1,0.7,5.3,2.2,6.3
				c0.4,0.2,2,1.2,2.4,1.4c1.2,0.7,2.8,0.7,4.7-0.2c4.3-2.1,8.1-8.2,8.5-13.6c0.2-3.1-0.7-5.4-2.3-6.4
				C338.9,306.3,337.3,305.4,336.9,305.3z"/>
			<path class="st4" d="M341.1,316.3l-12.9-7.4c-2.3,2.8-4,6.6-4.3,10.2c-0.2,3.1,0.7,5.3,2.2,6.3c0.4,0.2,2,1.2,2.4,1.4
				c1.2,0.7,2.8,0.7,4.7-0.2C336.6,324.9,339.7,320.7,341.1,316.3z"/>
			<path class="st4" d="M324.6,315.4c-0.3,1.2-0.6,2.4-0.7,3.6c-0.2,3.1,0.7,5.3,2.2,6.3c0.4,0.2,2,1.2,2.4,1.4
				c1.2,0.7,2.8,0.7,4.7-0.2c1.7-0.9,3.1-2.1,4.3-3.6L324.6,315.4z"/>
			<path class="st13" d="M334.7,306.8c-4.3,2.1-8.1,8.2-8.5,13.6c-0.4,5.5,2.7,8.2,7,6.2c4.3-2,8.1-8.2,8.5-13.6
				C342,307.5,339,304.7,334.7,306.8z"/>
			<path class="st9" d="M334.7,306.8c-4.3,2.1-8.1,8.2-8.5,13.6c-0.4,5.5,2.7,8.2,7,6.2c4.3-2,8.1-8.2,8.5-13.6
				C342,307.5,339,304.7,334.7,306.8z"/>
			<path class="st13" d="M338.9,314.2c-0.2,1.8-0.9,3.6-1.9,5.2c-1.1,1.7-2.3,3-3.6,3.7c-1.3,0.7-2.6,0.7-3.5,0
				c-0.8-0.7-1.2-2.1-1-3.9c0.2-1.8,0.9-3.6,1.9-5.2c1.1-1.7,2.3-3,3.6-3.7c1.3-0.7,2.6-0.7,3.4,0
				C338.7,311.1,339.2,312.5,338.9,314.2z"/>
			<path class="st15" d="M338.9,314.2c-0.2,1.8-0.9,3.6-1.9,5.2c-1.1,1.7-2.3,3-3.6,3.7c-1.3,0.7-2.6,0.7-3.5,0
				c-0.8-0.7-1.2-2.1-1-3.9c0.2-1.8,0.9-3.6,1.9-5.2c1.1-1.7,2.3-3,3.6-3.7c1.3-0.7,2.6-0.7,3.4,0
				C338.7,311.1,339.2,312.5,338.9,314.2z"/>
			<path class="st13" d="M339.6,307.5c-1.2-1.1-2.9-1.1-4.8-0.2c-2,1-4,2.9-5.5,5.4c-1.5,2.4-2.4,5-2.7,7.8
				c-0.2,2.5,0.3,4.4,1.6,5.4c1.2,1.1,2.9,1.1,4.8,0.2c2-1,4-2.9,5.5-5.4c1.5-2.4,2.4-5,2.7-7.8
				C341.4,310.4,340.9,308.5,339.6,307.5z M337.9,310.3c0.8,0.7,1.2,2.1,1,3.9c-0.2,1.8-0.9,3.6-1.9,5.1c-1.1,1.7-2.3,3-3.6,3.7
				c-1.3,0.7-2.6,0.7-3.5,0c-0.8-0.7-1.2-2.1-1-3.9c0.2-1.8,0.9-3.6,1.9-5.2c1.1-1.7,2.3-3,3.6-3.7
				C335.8,309.6,337.1,309.6,337.9,310.3z"/>
			<path class="st9" d="M334.6,310.6c2.6-1.4,4.3,0.2,3.9,3.5c-0.4,3.3-2.8,7.1-5.4,8.6s-4.3-0.1-3.9-3.5
				C329.7,315.8,332.1,312,334.6,310.6z"/>
			<path class="st13" d="M334.6,310.6c2.6-1.4,4.3,0.2,3.9,3.5c-0.4,3.3-2.8,7.1-5.4,8.6s-4.3-0.1-3.9-3.5
				C329.7,315.8,332.1,312,334.6,310.6z"/>
			<path class="st16" d="M334.6,310.6c2.6-1.4,4.3,0.2,3.9,3.5c-0.4,3.3-2.8,7.1-5.4,8.6s-4.3-0.1-3.9-3.5
				C329.7,315.8,332.1,312,334.6,310.6z"/>
			<path class="st13" d="M337.8,313.4c-0.4,3.3-2.8,7.1-5.4,8.6c-1.1,0.6-2,0.7-2.6,0.3c-0.5-0.7-0.7-1.7-0.5-3.1
				c0.4-3.3,2.8-7.1,5.4-8.5c1.1-0.6,2-0.7,2.6-0.3C337.7,311.1,338,312.1,337.8,313.4z"/>
			<path class="st17" d="M337.8,313.4c-0.4,3.3-2.8,7.1-5.4,8.6c-1.1,0.6-2,0.7-2.6,0.3c-0.5-0.7-0.7-1.7-0.5-3.1
				c0.4-3.3,2.8-7.1,5.4-8.5c1.1-0.6,2-0.7,2.6-0.3C337.7,311.1,338,312.1,337.8,313.4z"/>
			<path class="st18" d="M333,325.8c3-1.3,5.6-5.2,5.6-5.2c-1.6,2.5-3.6,4.4-5.5,5.4c-1.9,0.9-3.6,0.8-4.8-0.2
				C328.2,325.8,329.9,327.2,333,325.8z"/>
			<path class="st18" d="M328.6,313c1.6-2.8,3.8-5.1,6.1-6.3c2.5-1.2,4.5-0.7,5.8,0.8c0,0-2.1-2.5-5.8-0.6
				C331,308.9,328.6,313,328.6,313z"/>
		</g>
	</g>
	<path class="st19" d="M373.3,327.8c3.2-0.2,4.8,0.8,6.1,2.5c1.4,1.7,7.8,13.4,7.8,13.4s13.5,0.3,16,1.2c2.6,0.8,4,2.2,4.5,3.1
		c0.5,0.9,0.7,2,0.3,3.4c-0.3,1.4-2.3,1.2-3.4,0c-1-1.1-2.1-1.9-3.3-2.6c-1.1-0.7-12,0.2-14.9,0.2s-3.6-1.2-5.4-3.6
		c-1.8-2.4-5.8-8.2-5.8-8.2L373.3,327.8z"/>
	<path class="st7" d="M372.4,327.7c2.9-0.2,4.8-0.1,6.4,1.6c1.7,1.6,7.3,11.7,7.3,11.7s-0.7,3.2-5.5,3.9l-7.3-9.7L372.4,327.7z"/>
	<g id="freepik--bottom--inject-34_00000075856837758458273530000017618237840990262156_">
		<path class="st19" d="M379,403c-0.1,3-0.2,6.4-0.2,6.9c0.2,1.8,1.1,2.6,1.9,3.3c1.7,1.5,2.8,2.1,4.8,3.4c-0.2,0.7-4.2,1.1-5.4,0.6
			c-1.7-0.7-3.4-1.5-5-2.4c-1.7-1.1-2.1-1.7-2.2-3.5c0-0.2-0.2-1.7-0.2-1.7c-0.1-0.4-0.5-3.3-0.9-6.5L379,403z"/>
		<path class="st19" d="M355,409.7v-7.5l7.3,1l-1.5,6.8c0,0-0.9,9.3-1.2,10.9c-1.2,5-5.2,3-5.6,0.3C353.6,419.6,355,409.7,355,409.7
			z"/>
		<path class="st5" d="M388.9,419.1c0.1,0,0.2,1.2-0.3,1.7c-0.7,0.6-2.6,1.5-5,1.1c-2.5-0.4-3.9-1.2-4.9-2c-1-0.8-2.4-2.1-3.6-2.3
			c-1.1-0.2-2.8-0.8-3.1-1.2c-0.3-0.3-0.2-1.8-0.2-1.8L388.9,419.1z"/>
		<path class="st7" d="M372.7,409.5c-0.2,0.1-0.3,0.2-0.4,0.5c-0.1,0.4-0.1,0.9-0.2,1.6c-0.2,0.9-0.4,2.8-0.2,3.6
			c0.2,0.7,2.4,1.4,3.6,1.8c1.3,0.6,2.5,1.4,3.6,2.3c1.2,1,3.6,2,5.3,2.1c2.5,0.1,4.1-0.6,4.6-1.5c0.7-1.1,0.3-2.3-2.6-3.6
			c-0.6-0.2-2.5-1.4-3.1-1.8c-0.7-0.4-1.3-0.9-2-1.5c-0.3-0.2-0.6-0.6-0.8-0.9c-0.2-0.2-0.5-0.6-0.7-0.9c0-0.1-0.1-0.2-0.1-0.2
			c-0.1-0.2-0.2-0.4-0.2-0.7c-0.1-0.2-0.1-0.6-0.3-0.7c-0.2-0.2-3.8,0.5-4,0.9c-0.2,0.3-0.2,0.7-0.2,1.1c0,0.2,0,0.3,0,0.5
			c0,0.1,0,0.2-0.1,0.2s-0.2-0.2-0.2-0.3c-0.1-0.2-0.2-0.4-0.2-0.6c-0.1-0.2-0.2-0.4-0.3-0.6c-0.5-0.4-0.9-0.3-1.1-0.5
			C372.8,409.9,372.7,409.6,372.7,409.5z"/>
		<path class="st1" d="M386.4,416.2c-3.6,0.2-4.6,3.1-4.9,4.5c0.8,0.3,1.7,0.5,2.6,0.6c2.5,0.1,4.2-0.6,4.7-1.5
			C389.4,418.7,388.9,417.2,386.4,416.2z"/>
		<path class="st18" d="M381,416.8c-0.1,0-0.2-0.1-0.2-0.2s0-0.1,0.1-0.1c0.5-0.6,2.1-1.9,3.5-1.7c0.1,0,0.2,0.1,0.2,0.2
			s-0.1,0.2-0.2,0.2l0,0c-1.2-0.2-2.7,1.2-3.1,1.7C381.2,416.8,381.1,416.8,381,416.8z"/>
		<path class="st18" d="M379.4,415.9C379.4,415.9,379.4,415.9,379.4,415.9c-0.2-0.2-0.2-0.2-0.1-0.3l0,0c0.5-0.6,2.1-1.9,3.5-1.7
			c0.1,0,0.2,0.1,0.2,0.2l0,0c0,0.1-0.1,0.2-0.2,0.2l0,0c-1.2-0.2-2.7,1.2-3.1,1.7C379.6,415.9,379.5,415.9,379.4,415.9z"/>
		<path class="st18" d="M378,414.8C378,414.8,378,414.8,378,414.8c-0.2-0.2-0.2-0.2-0.1-0.3l0,0c0.5-0.6,2.1-1.9,3.5-1.7
			c0.1,0,0.2,0.1,0.2,0.2s-0.1,0.2-0.2,0.2l0,0c-1.2-0.2-2.7,1.2-3.1,1.7C378.1,414.8,378.1,414.8,378,414.8z"/>
		<path class="st18" d="M376.6,413.8L376.6,413.8c-0.2-0.1-0.2-0.2-0.1-0.2l0,0c0.7-0.9,2.5-2,3.8-1.8c0.1,0,0.2,0.1,0.2,0.2
			s-0.1,0.2-0.2,0.2l0,0c-1.2-0.2-2.8,0.9-3.5,1.7C376.7,413.8,376.7,413.8,376.6,413.8z"/>
		<path class="st5" d="M360.4,422.4c-0.1,1.7-0.4,2.9-1.1,4c-0.7,1.1-1.8,1.3-3,1c-1.2-0.3-2.7-1.2-3.1-2.6
			c-0.3-1.5-0.5-2.6-0.2-4.2L360.4,422.4z"/>
		<path class="st7" d="M355,409.7c-0.6-0.1-0.5,2.2-0.8,4.6c-0.3,2.6-0.7,3.6-1,5.6c-0.3,2.4,0.1,3.5,0.8,4.9
			c0.8,1.5,3.7,2.9,5.2,0.8c1.2-1.7,1.2-3.6,1.2-5.9c-0.1-2.5,0.2-4.1,0.4-5.9c0.2-1.9,0.4-3.6,0-3.8l-0.2,1.8
			c-0.1,0.2-0.2,0.5-0.3,0c0-0.2,0-0.5,0-0.7c0-0.2-0.2-0.5-0.4-0.6c-0.7-0.3-1.3-0.5-2.1-0.5c-1,0-1.8-0.1-2.3,0.2
			c-0.3,0.2-0.3,0.5-0.3,0.7c-0.1,0.3-0.1,0.6-0.2,0.5C354.8,411.5,355,409.7,355,409.7z"/>
		<path class="st1" d="M353,421.4c-0.1,1.2,0.2,2.6,0.9,3.6c0.8,1.4,4,2.9,5.5,0.8c0.7-1,0.9-2.2,1.1-3.5
			C359.5,420.8,354.3,420.1,353,421.4z"/>
		<path class="st18" d="M359.3,419.8L359.3,419.8c-0.1,0-2.3-1-4.5-0.5c-0.1,0-0.2-0.1-0.2-0.2c0-0.1,0-0.2,0.2-0.2l0,0
			c2.3-0.5,4.6,0.5,4.7,0.5c0.1,0.1,0.2,0.2,0.1,0.2l0,0C359.5,419.8,359.4,419.8,359.3,419.8z"/>
		<path class="st18" d="M354.9,417.5c-0.1,0-0.2-0.1-0.2-0.2s0-0.2,0.1-0.2c2.2-0.7,4.6,0.4,4.7,0.5c0.1,0.1,0.1,0.2,0.1,0.2l0,0
			c-0.1,0.1-0.2,0.1-0.2,0.1C359.4,418,357.1,416.8,354.9,417.5L354.9,417.5z"/>
		<path class="st18" d="M355,415.8c-0.1,0-0.2-0.1-0.2-0.2s0.1-0.2,0.2-0.2c2.4-0.8,4.7,0.4,4.8,0.5s0.1,0.2,0.1,0.2
			c0,0.1-0.2,0.1-0.2,0.1l0,0C359.5,416.3,357.3,415.1,355,415.8C355.1,415.8,355,415.8,355,415.8z"/>
		<path class="st20" d="M355.2,414.2c-0.1,0-0.2-0.1-0.2-0.1c0-0.1,0-0.2,0.1-0.2c2.3-0.8,4.7,0.5,4.9,0.5c0.1,0.1,0.1,0.2,0.1,0.2
			c-0.1,0.1-0.2,0.1-0.2,0.1l0,0C359.7,414.7,357.3,413.4,355.2,414.2L355.2,414.2z"/>
		<path class="st7" d="M357.9,351.7c-0.5,4.8-0.7,6-1,16.7c-0.3,10.3-0.3,11.9-0.4,13.1c-0.2,2.9-1.7,4-1.9,10.7
			c-0.1,6.2,0.3,13.7,0.3,13.7s0.9,1.1,3.3,1.2c1.2,0.1,2.4-0.1,3.5-0.5c0,0,3.3-14.1,4.3-18.3c1.2-5,3.1-13.7,3.1-13.7
			s0.9,7.8,1.3,10.3c0.3,2.4-0.5,3.3,0,8.7c0.4,4.3,1.7,11.4,1.7,11.4c1.1,0.6,2.3,0.8,3.5,0.8c2.7-0.2,3.6-1.1,3.6-1.1
			s1.5-15.9,1.5-22.1c0-6.4,0.2-21.5-0.6-31L357.9,351.7L357.9,351.7z"/>
		<path class="st5" d="M369,374.6l1.4-10.7c0,0,3.5-1.1,5.7-3.6c-0.1,1.8-3.1,4.1-4.6,4.5l-1.7,9.6l0.5,10.5L369,374.6z"/>
	</g>
	<path class="st19" d="M353.8,346c1.7-2.8,4.3-7.9,4.3-7.9c1.5-3.5,1.3-7.3,0.6-9.5c-0.5,0.1-1,0.2-1.4,0.2
		c-2.5,0.7-3.1,1.1-4.4,3.1c-1,1.6-4,9.7-5.2,12.1l-5.8-5.2c-1.4-1.3-1.6-3.1-2.4-4.3c-0.8-1.2-1.8-1.6-2.7-2.6
		c-0.9-1-1.2-1.7-1.7-1c-0.4,0.7,0.6,2.1,0.7,2.6c0.2,0.3,1.2,1.2-0.3,1c-1.6-0.2-4.4-2.5-5.1-2.9c-0.7-0.4-0.8,0.5-0.6,1.2
		c0.2,0.7,0,2.3,0.4,3.3c0.5,1.2,0.7,1.7,2.1,2.6c1.2,0.8,4.1,1.6,5.5,2.8c1.3,1.2,4.4,5,6.2,7.4c2.4,3,4.5,4.4,6.4,2.1
		C351.9,349.2,353.2,347.1,353.8,346z"/>
	<g id="freepik--Wallet--inject-4_00000112611478038978314780000001620697411876399497_">
		<g id="freepik--wallet--inject-4_00000158731370460318269820000000673724709182973842_">
			<path class="st5" d="M451.9,424.6c0.3-0.2,0.5-0.6,0.4-1v-42.4c0-0.5-0.2-1.1-0.4-1.5l2.6-1.5c0.2,0.4,0.4,1,0.4,1.5v42.4
				c0.1,0.4-0.2,0.7-0.4,1L451.9,424.6z"/>
			<path class="st7" d="M451.9,379.7c-0.2-0.5-0.7-0.8-1.1-1.2l-48-27.7c-1.7-1-4.4-1-6,0l-1.1,0.6c-0.9,0.4-1.4,1.3-1.5,2.3v45.9
				c0-1,0.6-1.9,1.5-2.3l1.1-0.6c1.7-1,4.4-1,6,0l48,27.7c0.4,0.3,1,0.3,1.3-0.1c0.2-0.2,0.2-0.5,0.2-0.8v-42.4
				C452.3,380.6,452.1,380.1,451.9,379.7z"/>
			<path class="st6" d="M394.4,354.5c-0.4-1.2,0.1-2.4,1.3-3.1l1.1-0.6c1.7-1,4.4-1,6,0l48,27.7c0.4,0.2,0.8,0.7,1.1,1.2l2.6-1.5
				c-0.2-0.5-0.7-0.8-1.1-1.2l-49.3-28.4c-2.5-1.4-6.2-1.4-8.7,0l-1.1,0.6c-1.5,0.8-2.5,2.2-2.7,3.9c0,0.2-0.1,0.5-0.1,0.7
				c0,1.4,0.6,2.7,1.6,3.8l1.9-1.8C394.8,355.4,394.6,355,394.4,354.5"/>
			<path class="st13" d="M448.8,386.7v-5.8l-48.1-27.8c-0.9-0.5-2.1-0.5-3.1,0l-0.5,0.3c-0.4,0.2-0.7,0.7-0.7,1.2v10.1L448.8,386.7z
				"/>
			<path class="st9" d="M448.8,386.7v-5.8l-48.1-27.8c-0.9-0.5-2.1-0.5-3.1,0l-0.5,0.3c-0.4,0.2-0.7,0.7-0.7,1.2v10.1L448.8,386.7z"
				/>
			<path class="st13" d="M401.3,351.9c-1.3-0.7-3-0.7-4.3,0l-0.5,0.3c-0.7,0.4-1.2,1.2-1.3,1.9c0,0.1,0,0.2,0,0.3v1.6l1.3,1.4v-2.9
				c0-0.5,0.3-0.9,0.7-1.2l0.5-0.3c1-0.5,2.1-0.5,3.1,0l48.1,27.8l1.3-0.7L401.3,351.9z"/>
			<path class="st10" d="M401.3,351.9c-1.3-0.7-3-0.7-4.3,0l-0.5,0.3c-0.7,0.4-1.2,1.2-1.3,1.9c0,0.1,0,0.2,0,0.3v1.6l1.3,1.4v-2.9
				c0-0.5,0.3-0.9,0.7-1.2l0.5-0.3c1-0.5,2.1-0.5,3.1,0l48.1,27.8l1.3-0.7L401.3,351.9z"/>
			<polygon class="st13" points="448.8,380.8 450.2,380.1 450.2,387.3 448.8,386.5 			"/>
			<polygon class="st15" points="448.8,380.8 450.2,380.1 450.2,387.3 448.8,386.5 			"/>
			<path class="st5" d="M450.5,419.2v-32.6l-48.1-27.7c-1-0.6-2.2-0.6-3.2,0l-1.2,0.7v31.1l51,29.5c0.5,0.2,1.1,0.1,1.4-0.4
				C450.5,419.6,450.5,419.4,450.5,419.2z"/>
			<g id="freepik--Card--inject-4_00000083795829903619794060000008637623121493474945_">
				<g id="freepik--card--inject-4_00000088133335510932666230000017641989163202092179_">
					<path class="st13" d="M445.9,418l0.8-0.5c0.2-0.2,0.4-0.5,0.5-0.8v-33.5c0-0.3-0.2-0.7-0.5-0.8l-43.5-25.1
						c-0.3-0.2-0.7-0.2-0.9,0l-0.8,0.5c-0.2,0.2-0.4,0.5-0.5,0.8v33.5c0,0.3,0.2,0.7,0.5,0.8L445,418
						C445.2,418.1,445.5,418.1,445.9,418z"/>
					<path class="st21" d="M445.9,418l0.8-0.5c0.2-0.2,0.4-0.5,0.5-0.8v-33.5c0-0.3-0.2-0.7-0.5-0.8l-43.5-25.1
						c-0.3-0.2-0.7-0.2-0.9,0l-0.8,0.5c-0.2,0.2-0.4,0.5-0.5,0.8v33.5c0,0.3,0.2,0.7,0.5,0.8L445,418
						C445.2,418.1,445.5,418.1,445.9,418z"/>
					<path class="st13" d="M444.9,383.4l-43.5-25.1c-0.2-0.2-0.5,0-0.5,0.2V392c0,0.3,0.2,0.7,0.5,0.8l43.5,25.1
						c0.2,0.2,0.5,0,0.5-0.2v-33.5C445.4,383.9,445.2,383.6,444.9,383.4z"/>
					<path class="st13" d="M444.9,383.4l-43.5-25.1c-0.2-0.2-0.5,0-0.5,0.2V392c0,0.3,0.2,0.7,0.5,0.8l43.5,25.1
						c0.2,0.2,0.5,0,0.5-0.2v-33.5C445.4,383.9,445.2,383.6,444.9,383.4z"/>
					<path class="st22" d="M444.9,383.4l-43.5-25.1c-0.2-0.2-0.5,0-0.5,0.2V392c0,0.3,0.2,0.7,0.5,0.8l43.5,25.1
						c0.2,0.2,0.5,0,0.5-0.2v-33.5C445.4,383.9,445.2,383.6,444.9,383.4z"/>
					<path class="st23" d="M401.4,358.3c3.6,2.2,7.2,4.3,10.7,6.4l10.8,6.4l10.9,6.2l5.5,3.1l5.5,3.1l-5.4-3.2l-5.4-3.2l-10.8-6.4
						l-10.9-6.2C408.7,362.3,405.1,360.2,401.4,358.3z"/>
					<path class="st13" d="M445.2,383.8l1.7-1c0.1,0.2,0.2,0.3,0.2,0.5v33.5c0,0.3-0.2,0.7-0.5,0.8l-0.8,0.5
						c-0.2,0.2-0.6,0.2-0.8,0.1c0.2,0.1,0.4-0.1,0.4-0.3v-33.5C445.4,384,445.3,383.9,445.2,383.8z"/>
					<polygon class="st13" points="445.4,388.1 447.1,387 447.1,395.7 445.4,396.8 					"/>
					<polygon class="st9" points="445.4,388.1 447.1,387 447.1,395.7 445.4,396.8 					"/>
				</g>
				<polygon class="st9" points="401,362.4 445.4,388.1 445.4,396.8 401,371.1 				"/>
				<g id="freepik--Cards--inject-4_00000172422626683525891490000014103660437543442859_">
					<path class="st6" d="M442.7,407.2v5.7c0,0.4-0.3,0.6-0.7,0.4l-6-3.5c-0.4-0.2-0.7-0.7-0.7-1.2V403c0-0.4,0.3-0.6,0.7-0.4
						c1.7,0.9,4.4,2.5,6,3.4C442.3,406.3,442.6,406.7,442.7,407.2z"/>
					<g>
						<g>
							<defs>
								<path id="SVGID_1_" d="M442.7,407.2v5.7c0,0.4-0.3,0.6-0.7,0.4l-6-3.5c-0.4-0.2-0.7-0.7-0.7-1.2V403c0-0.4,0.3-0.6,0.7-0.4
									c1.7,0.9,4.4,2.5,6,3.4C442.3,406.3,442.6,406.7,442.7,407.2z"/>
							</defs>
							<clipPath id="SVGID_00000154402194091778370170000006789228315846807175_">
								<use xlink:href="#SVGID_1_"  style="overflow:visible;"/>
							</clipPath>
							<g style="clip-path:url(#SVGID_00000154402194091778370170000006789228315846807175_);">
								<polygon class="st23" points="443.8,409.5 444,409.2 434.1,403.5 433.9,403.8 								"/>
								<rect x="439.9" y="407.1" class="st23" width="0.3" height="2.9"/>
								<rect x="437.6" y="405.9" class="st23" width="0.3" height="2.9"/>
								<polygon class="st23" points="443.8,412.4 444,412.1 434.1,406.5 433.9,406.7 								"/>
							</g>
						</g>
					</g>
					<path class="st13" d="M407.4,385.3l1.7,1c0.2,0.2,0.4,0.4,0.4,0.7v0.5c0,0.2-0.2,0.3-0.4,0.2l-1.7-1c-0.2-0.2-0.4-0.4-0.4-0.7
						v-0.5C407,385.3,407.2,385.2,407.4,385.3z"/>
					<path class="st13" d="M403.6,383.1l1.7,1c0.2,0.2,0.4,0.4,0.4,0.7v0.5c0,0.2-0.2,0.3-0.4,0.2l-1.7-1c-0.2-0.2-0.4-0.4-0.4-0.7
						v-0.5C403.2,383.1,403.4,382.9,403.6,383.1z"/>
					<path class="st13" d="M425.3,399.3L403.9,387c-0.3-0.2-0.7-0.1-0.7,0.4v0.7c0,0.5,0.2,0.9,0.7,1.2l21.4,12.3
						c0.4,0.2,0.7,0.1,0.7-0.4v-0.7C426,400,425.7,399.5,425.3,399.3z"/>
					<path class="st6" d="M407.4,385.3l1.7,1c0.2,0.2,0.4,0.4,0.4,0.7v0.5c0,0.2-0.2,0.3-0.4,0.2l-1.7-1c-0.2-0.2-0.4-0.4-0.4-0.7
						v-0.5C407,385.3,407.2,385.2,407.4,385.3z"/>
					<path class="st6" d="M403.6,383.1l1.7,1c0.2,0.2,0.4,0.4,0.4,0.7v0.5c0,0.2-0.2,0.3-0.4,0.2l-1.7-1c-0.2-0.2-0.4-0.4-0.4-0.7
						v-0.5C403.2,383.1,403.4,382.9,403.6,383.1z"/>
					<path class="st6" d="M425.3,399.3L403.9,387c-0.3-0.2-0.7-0.1-0.7,0.4v0.7c0,0.5,0.2,0.9,0.7,1.2l21.4,12.3
						c0.4,0.2,0.7,0.1,0.7-0.4v-0.7C426,400,425.7,399.5,425.3,399.3z"/>
					<path class="st1" d="M403.7,377.2L403.7,377.2c0.3,0.2,0.5,0.6,0.5,0.9v1.7c0,0.3-0.2,0.5-0.4,0.3h-0.1
						c-0.2-0.2-0.4-0.5-0.4-0.8v-1.7C403.2,377.2,403.4,377,403.7,377.2z"/>
					<path class="st1" d="M405.9,378.5L405.9,378.5c0.3,0.2,0.5,0.6,0.5,0.9v1.7c0,0.3-0.2,0.5-0.4,0.3h-0.1
						c-0.2-0.2-0.4-0.5-0.4-0.8v-1.7C405.5,378.5,405.7,378.3,405.9,378.5z"/>
					<path class="st1" d="M408.2,379.8L408.2,379.8c0.3,0.2,0.5,0.6,0.5,0.9v1.7c0,0.3-0.2,0.5-0.4,0.3h-0.1
						c-0.2-0.2-0.4-0.5-0.4-0.8v-1.7C407.7,379.8,408,379.6,408.2,379.8z"/>
					<path class="st1" d="M410.4,381.1L410.4,381.1c0.3,0.2,0.5,0.6,0.5,0.9v1.7c0,0.3-0.2,0.5-0.4,0.3h-0.1
						c-0.2-0.2-0.4-0.5-0.4-0.8v-1.7C410,381.1,410.2,381,410.4,381.1z"/>
					<path class="st1" d="M414.2,383.3L414.2,383.3c0.3,0.2,0.5,0.6,0.5,0.9v1.7c0,0.3-0.2,0.5-0.4,0.3h-0.1
						c-0.2-0.2-0.4-0.5-0.4-0.8v-1.7C413.8,383.3,414,383.1,414.2,383.3z"/>
					<path class="st1" d="M416.5,384.6L416.5,384.6c0.3,0.2,0.5,0.6,0.5,0.9v1.7c0,0.3-0.2,0.5-0.4,0.3h-0.1
						c-0.2-0.2-0.4-0.5-0.4-0.8v-1.8C416.1,384.6,416.2,384.4,416.5,384.6z"/>
					<path class="st1" d="M418.7,385.9L418.7,385.9c0.3,0.2,0.5,0.6,0.5,0.9v1.7c0,0.3-0.2,0.5-0.4,0.3h-0.1
						c-0.2-0.2-0.4-0.5-0.4-0.8v-1.7C418.3,385.9,418.5,385.8,418.7,385.9z"/>
					<path class="st1" d="M421,387.2L421,387.2c0.3,0.2,0.5,0.6,0.5,0.9v1.7c0,0.3-0.2,0.5-0.4,0.3H421c-0.2-0.2-0.4-0.5-0.4-0.8
						v-1.7C420.5,387.2,420.8,387.1,421,387.2z"/>
					<path class="st1" d="M424.8,389.4L424.8,389.4c0.3,0.2,0.5,0.6,0.5,0.9v1.7c0,0.3-0.2,0.5-0.4,0.3h-0.1
						c-0.2-0.2-0.4-0.5-0.4-0.8v-1.7C424.3,389.4,424.6,389.2,424.8,389.4z"/>
					<path class="st1" d="M427,390.6L427,390.6c0.3,0.2,0.5,0.6,0.5,0.9v1.7c0,0.3-0.2,0.5-0.4,0.3H427c-0.2-0.2-0.4-0.5-0.4-0.8
						V391C426.6,390.7,426.8,390.5,427,390.6z"/>
					<path class="st1" d="M429.3,391.9L429.3,391.9c0.3,0.2,0.5,0.6,0.5,0.9v1.7c0,0.3-0.2,0.5-0.4,0.3h-0.1
						c-0.2-0.2-0.4-0.5-0.4-0.8v-1.7C428.9,391.9,429,391.9,429.3,391.9z"/>
					<path class="st1" d="M431.6,393.3L431.6,393.3c0.3,0.2,0.5,0.6,0.5,0.9v1.7c0,0.3-0.2,0.5-0.4,0.3h-0.1
						c-0.2-0.2-0.4-0.5-0.4-0.8v-1.7C431.1,393.3,431.3,393.1,431.6,393.3z"/>
					<path class="st1" d="M435.3,395.4L435.3,395.4c0.3,0.2,0.5,0.6,0.5,0.9v1.7c0,0.3-0.2,0.5-0.4,0.3h-0.1
						c-0.2-0.2-0.4-0.5-0.4-0.8v-1.7C434.9,395.4,435.1,395.3,435.3,395.4z"/>
					<path class="st1" d="M437.6,396.7L437.6,396.7c0.3,0.2,0.5,0.6,0.5,0.9v1.7c0,0.3-0.2,0.5-0.4,0.3h-0.1
						c-0.2-0.2-0.4-0.5-0.4-0.8v-1.7C437.1,396.7,437.4,396.7,437.6,396.7z"/>
					<path class="st1" d="M439.8,398.1L439.8,398.1c0.3,0.2,0.5,0.6,0.5,0.9v1.7c0,0.3-0.2,0.5-0.4,0.3h-0.1
						c-0.2-0.2-0.4-0.5-0.4-0.8v-1.7C439.4,398.1,439.6,397.9,439.8,398.1z"/>
					<path class="st1" d="M442.1,399.4L442.1,399.4c0.3,0.2,0.5,0.6,0.5,0.9v1.7c0,0.3-0.2,0.5-0.4,0.3h-0.1
						c-0.2-0.2-0.4-0.5-0.4-0.8v-1.7C441.7,399.4,441.8,399.2,442.1,399.4z"/>
				</g>
			</g>
			<path class="st25" d="M448.2,419.5c0,1-0.7,1.3-1.5,0.9l-41-23.7c-0.9-0.6-1.5-1.6-1.5-2.6v-22.9l44,25.4V419.5z"/>
			<path class="st7" d="M393.3,403.4l34.3,35.8c0.3,0.4,0.7,0.5,0.9,0.3c0.2-0.2,0.3-0.4,0.3-0.8v-42.4c0-0.5-0.2-1.1-0.3-1.6
				c-0.2-0.5-0.5-1-0.9-1.5l-34.3-35.8c-1-1-1.6-2.3-1.6-3.8v45.9C391.7,401.1,392.3,402.4,393.3,403.4z"/>
			<path class="st6" d="M394.1,362.7c-0.1,0-0.2-0.1-0.2-0.2v-0.5c0-0.1,0.1-0.2,0.1-0.2c0.1,0,0.2,0,0.2,0l0.3,0.4
				c0.1,0.1,0.1,0.2,0,0.2l0,0c-0.1,0.1-0.2,0.1-0.2,0l0,0l-0.1-0.1v0.1C394.3,362.6,394.3,362.7,394.1,362.7L394.1,362.7z"/>
			<path class="st6" d="M426.2,432.4c-0.1,0-0.2-0.1-0.2-0.2v-1c0-0.1,0.1-0.2,0.2-0.2s0.2,0.1,0.2,0.2v1
				C426.5,432.3,426.4,432.4,426.2,432.4z M426.2,429.6c-0.1,0-0.2-0.1-0.2-0.2v-1c0-0.1,0.1-0.2,0.2-0.2s0.2,0.1,0.2,0.2v1
				C426.5,429.6,426.4,429.7,426.2,429.6L426.2,429.6z M426.2,426.9c-0.1,0-0.2-0.1-0.2-0.2v-1c0-0.1,0.1-0.2,0.2-0.2
				s0.2,0.1,0.2,0.2v1C426.5,426.8,426.4,426.9,426.2,426.9C426.3,426.9,426.3,426.9,426.2,426.9L426.2,426.9z M426.2,424.2
				c-0.1,0-0.2-0.1-0.2-0.2v-1.1c0-0.1,0.1-0.2,0.2-0.2s0.2,0.1,0.2,0.2v1.1C426.5,424.1,426.4,424.2,426.2,424.2
				C426.3,424.2,426.3,424.2,426.2,424.2L426.2,424.2z M426.2,421.4c-0.1,0-0.2-0.1-0.2-0.2v-1.1c0-0.1,0.1-0.2,0.2-0.2
				s0.2,0.1,0.2,0.2v1.1C426.5,421.3,426.4,421.4,426.2,421.4C426.3,421.4,426.3,421.4,426.2,421.4L426.2,421.4z M426.2,418.6
				c-0.1,0-0.2-0.1-0.2-0.2v-1c0-0.1,0.1-0.2,0.2-0.2s0.2,0.1,0.2,0.2v1C426.5,418.5,426.4,418.6,426.2,418.6
				C426.3,418.6,426.3,418.6,426.2,418.6L426.2,418.6z M426.2,415.9c-0.1,0-0.2-0.1-0.2-0.2v-1c0-0.1,0.1-0.2,0.2-0.2
				s0.2,0.1,0.2,0.2v1C426.5,415.8,426.4,415.9,426.2,415.9C426.3,415.9,426.3,415.9,426.2,415.9L426.2,415.9z M426.2,413.2
				c-0.1,0-0.2-0.1-0.2-0.2v-1.1c0-0.1,0.1-0.2,0.2-0.2s0.2,0.1,0.2,0.2v1.1C426.5,413.1,426.4,413.2,426.2,413.2
				C426.3,413.2,426.3,413.2,426.2,413.2L426.2,413.2z M426.2,410.4c-0.1,0-0.2-0.1-0.2-0.2v-1c0-0.1,0.1-0.2,0.2-0.2
				s0.2,0.1,0.2,0.2v1C426.5,410.4,426.4,410.4,426.2,410.4C426.3,410.4,426.3,410.4,426.2,410.4L426.2,410.4z M426.2,407.6
				c-0.1,0-0.2-0.1-0.2-0.2v-1c0-0.1,0.1-0.2,0.2-0.2s0.2,0.1,0.2,0.2v1C426.5,407.6,426.4,407.6,426.2,407.6
				C426.3,407.6,426.3,407.6,426.2,407.6L426.2,407.6z M426.2,404.9c-0.1,0-0.2-0.1-0.2-0.2v-1c0-0.1,0.1-0.2,0.2-0.2
				s0.2,0.1,0.2,0.2v1C426.5,404.8,426.4,404.9,426.2,404.9C426.3,404.9,426.3,404.9,426.2,404.9L426.2,404.9z M426.2,402.2
				c-0.1,0-0.2-0.1-0.2-0.2v-1c0-0.1,0.1-0.2,0.2-0.2s0.2,0.1,0.2,0.2v1.1C426.5,402.1,426.4,402.2,426.2,402.2L426.2,402.2z
				 M426.2,399.4c-0.1,0-0.2-0.1-0.2-0.2v-1c0-0.1,0.1-0.2,0.2-0.2s0.2,0.1,0.2,0.2v1C426.5,399.3,426.4,399.4,426.2,399.4
				C426.3,399.4,426.3,399.4,426.2,399.4L426.2,399.4z M426.2,396.7c-0.1,0-0.2-0.1-0.2-0.2l0,0c0-0.2-0.1-0.4-0.2-0.7
				c-0.1-0.1-0.1-0.2-0.1-0.2c-0.1-0.1,0-0.2,0.1-0.2l0,0c0.1-0.1,0.2,0,0.2,0.1l0,0c0.1,0.1,0.1,0.2,0.2,0.3
				c0.1,0.2,0.2,0.5,0.2,0.7C426.5,396.6,426.4,396.7,426.2,396.7L426.2,396.7z M424.9,394.3c-0.1,0-0.1,0-0.2-0.1l-0.7-0.7
				c-0.1-0.1-0.1-0.2,0-0.2c0.1-0.1,0.2-0.1,0.2,0l0.7,0.7C425.1,394.1,425.1,394.2,424.9,394.3L424.9,394.3
				C425,394.3,424.9,394.4,424.9,394.3L424.9,394.3z M423,392.4c-0.1,0-0.1,0-0.2-0.1l-0.7-0.7c-0.1-0.1-0.1-0.2,0-0.2
				c0.1-0.1,0.2-0.1,0.2,0l0.7,0.7C423.2,392.1,423.2,392.2,423,392.4C423.1,392.4,423,392.4,423,392.4L423,392.4z M421.1,390.4
				c-0.1,0-0.1,0-0.2-0.1l-0.7-0.7c-0.1-0.1-0.1-0.2,0-0.2l0,0c0.1-0.1,0.2-0.1,0.2,0l0,0l0.7,0.7
				C421.3,390.1,421.3,390.2,421.1,390.4C421.2,390.4,421.1,390.4,421.1,390.4L421.1,390.4z M419.2,388.4c-0.1,0-0.1,0-0.2,0
				l-0.7-0.7c-0.1-0.1-0.1-0.2,0-0.2l0,0c0.1-0.1,0.2-0.1,0.2,0l0,0l0.7,0.7C419.4,388.2,419.4,388.3,419.2,388.4L419.2,388.4
				C419.2,388.4,419.2,388.4,419.2,388.4L419.2,388.4z M417.3,386.4c-0.1,0-0.1,0-0.2-0.1l-0.7-0.7c-0.1-0.1-0.1-0.2,0-0.2
				c0.1-0.1,0.2-0.1,0.2,0l0.7,0.7C417.5,386.2,417.5,386.3,417.3,386.4L417.3,386.4C417.4,386.4,417.3,386.4,417.3,386.4z
				 M415.4,384.4c-0.1,0-0.1,0-0.2-0.1l-0.7-0.7c-0.1-0.1-0.1-0.2,0-0.2s0.2-0.1,0.2,0l0.7,0.7C415.6,384.2,415.6,384.3,415.4,384.4
				L415.4,384.4C415.5,384.4,415.4,384.4,415.4,384.4L415.4,384.4z M413.5,382.5c-0.1,0-0.1,0-0.2-0.1l-0.7-0.7
				c-0.1-0.1-0.1-0.2,0-0.2s0.2-0.1,0.2,0l0,0l0.7,0.7C413.7,382.2,413.7,382.3,413.5,382.5L413.5,382.5
				C413.6,382.5,413.5,382.5,413.5,382.5L413.5,382.5z M411.6,380.5c-0.1,0-0.1,0-0.2-0.1l-0.7-0.7c-0.1-0.1-0.1-0.2,0-0.2
				c0.1-0.1,0.2-0.1,0.2,0l0.7,0.7C411.8,380.2,411.8,380.3,411.6,380.5L411.6,380.5C411.7,380.5,411.6,380.5,411.6,380.5
				L411.6,380.5z M409.7,378.5c-0.1,0-0.1,0-0.2-0.1l-0.7-0.7c-0.1-0.1-0.1-0.2,0-0.2l0,0c0.1-0.1,0.2-0.1,0.2,0l0,0l0.7,0.7
				C409.9,378.2,409.9,378.3,409.7,378.5L409.7,378.5C409.8,378.5,409.7,378.5,409.7,378.5L409.7,378.5z M407.8,376.5
				c-0.1,0-0.1,0-0.2-0.1l-0.7-0.7c-0.1-0.1-0.1-0.2,0-0.2l0,0c0.1-0.1,0.2-0.1,0.2,0l0,0l0.7,0.7C408,376.3,408,376.3,407.8,376.5
				L407.8,376.5C407.9,376.5,407.8,376.5,407.8,376.5z M405.9,374.5c-0.1,0-0.1,0-0.2-0.1l-0.7-0.7c-0.1-0.1-0.1-0.2,0-0.2l0,0
				c0.1-0.1,0.2-0.1,0.2,0l0,0l0.7,0.7C406.1,374.3,406.1,374.4,405.9,374.5L405.9,374.5C406,374.4,405.9,374.5,405.9,374.5
				L405.9,374.5z M404,372.5c-0.1,0-0.1,0-0.2-0.1l-0.7-0.7c-0.1-0.1-0.1-0.2,0-0.2s0.2-0.1,0.2,0l0,0l0.7,0.7
				C404.2,372.3,404.2,372.4,404,372.5L404,372.5C404.1,372.5,404,372.5,404,372.5L404,372.5z M402.1,370.6c-0.1,0-0.1,0-0.2-0.1
				l-0.7-0.7c-0.1-0.1-0.1-0.2,0-0.2c0.1-0.1,0.2-0.1,0.2,0l0,0l0.7,0.7C402.3,370.3,402.3,370.4,402.1,370.6L402.1,370.6
				L402.1,370.6L402.1,370.6z M400.2,368.6c-0.1,0-0.1,0-0.2-0.1l-0.7-0.7c-0.1-0.1-0.1-0.2,0-0.2l0,0c0.1-0.1,0.2-0.1,0.2,0l0,0
				l0.7,0.7C400.4,368.3,400.4,368.4,400.2,368.6L400.2,368.6C400.3,368.5,400.2,368.6,400.2,368.6L400.2,368.6z M398.3,366.6
				c-0.1,0-0.1,0-0.2-0.1l-0.7-0.7c-0.1-0.1-0.1-0.2,0-0.2c0.1-0.1,0.2-0.1,0.2,0l0,0l0.7,0.7C398.5,366.3,398.5,366.4,398.3,366.6
				L398.3,366.6C398.4,366.5,398.3,366.5,398.3,366.6L398.3,366.6z M396.4,364.5c-0.1,0-0.1,0-0.2-0.1l-0.7-0.7
				c-0.1-0.1-0.1-0.2,0-0.2l0,0c0.1-0.1,0.2-0.1,0.2,0l0,0l0.7,0.7C396.6,364.3,396.6,364.4,396.4,364.5L396.4,364.5
				C396.5,364.5,396.4,364.5,396.4,364.5L396.4,364.5z"/>
			<path class="st6" d="M426.2,434.6c-0.1,0-0.1,0-0.2-0.1l-0.3-0.4c-0.1-0.1-0.1-0.2,0-0.2s0.2-0.1,0.2,0l0.1,0.1v-0.1
				c0-0.1,0.1-0.2,0.2-0.2s0.2,0.1,0.2,0.2v0.5C426.5,434.6,426.4,434.6,426.2,434.6C426.3,434.6,426.3,434.6,426.2,434.6z"/>
			<path class="st6" d="M424.7,433c-0.1,0-0.1,0-0.2-0.1l-0.7-0.7c-0.1-0.1-0.1-0.2,0-0.2c0.1-0.1,0.2-0.1,0.2,0l0,0l0.7,0.7
				C424.8,432.7,424.8,432.8,424.7,433L424.7,433C424.7,433,424.7,433,424.7,433z M422.7,430.9c-0.1,0-0.1,0-0.2-0.1l-0.7-0.7
				c-0.1-0.1-0.1-0.2,0-0.2s0.2-0.1,0.2,0l0,0l0.7,0.7C422.8,430.7,422.8,430.8,422.7,430.9L422.7,430.9
				C422.8,430.9,422.8,430.9,422.7,430.9z M420.8,428.9c-0.1,0-0.1,0-0.2-0.1l-0.7-0.7c-0.1-0.1-0.1-0.2,0-0.2l0,0
				c0.1-0.1,0.2-0.1,0.2,0l0,0l0.7,0.7C420.9,428.6,420.9,428.7,420.8,428.9L420.8,428.9C420.9,428.9,420.8,428.9,420.8,428.9z
				 M418.8,426.8c-0.1,0-0.1,0-0.2-0.1l-0.7-0.7c-0.1-0.1-0.1-0.2,0-0.2c0.1-0.1,0.2-0.1,0.2,0l0.7,0.7
				C419,426.5,419,426.6,418.8,426.8L418.8,426.8C418.9,426.8,418.9,426.8,418.8,426.8z M416.8,424.7c-0.1,0-0.1,0-0.2-0.1l-0.7-0.7
				c-0.1-0.1-0.1-0.2,0-0.2l0,0c0.1-0.1,0.2-0.1,0.2,0l0,0l0.7,0.7C417,424.5,417,424.6,416.8,424.7L416.8,424.7
				C416.9,424.7,416.9,424.7,416.8,424.7L416.8,424.7z M414.8,422.7c-0.1,0-0.1,0-0.2-0.1l-0.7-0.7c-0.1-0.1-0.1-0.2,0-0.2
				c0.1-0.1,0.2-0.1,0.2,0l0,0l0.7,0.7C415,422.4,415,422.5,414.8,422.7L414.8,422.7C415,422.7,414.9,422.7,414.8,422.7L414.8,422.7
				z M412.9,420.6c-0.1,0-0.1,0-0.2-0.1l-0.7-0.7c-0.1-0.1-0.1-0.2,0-0.2l0,0c0.1-0.1,0.2-0.1,0.2,0l0,0l0.7,0.7
				C413.1,420.4,413.1,420.4,412.9,420.6L412.9,420.6C413,420.6,412.9,420.7,412.9,420.6L412.9,420.6z M410.9,418.6
				c-0.1,0-0.1,0-0.2-0.1l-0.7-0.7c-0.1-0.1-0.1-0.2,0-0.2c0.1-0.1,0.2-0.1,0.2,0l0.7,0.7C411.1,418.4,411.1,418.5,410.9,418.6
				L410.9,418.6C411,418.5,411,418.6,410.9,418.6L410.9,418.6z M409,416.6c-0.1,0-0.1,0-0.2-0.1l-0.7-0.7c-0.1-0.1-0.1-0.2,0-0.2
				c0.1-0.1,0.2-0.1,0.2,0l0,0l0.7,0.7C409.1,416.3,409.1,416.4,409,416.6L409,416.6C409,416.6,409,416.6,409,416.6L409,416.6z
				 M407,414.5c-0.1,0-0.1,0-0.2-0.1l-0.7-0.7c-0.1-0.1-0.1-0.2,0-0.2c0.1-0.1,0.2-0.1,0.2,0l0.7,0.8
				C407.1,414.3,407.1,414.4,407,414.5L407,414.5C407.1,414.5,407.1,414.5,407,414.5L407,414.5z M405.1,412.4c-0.1,0-0.1,0-0.2-0.1
				l-0.7-0.7c-0.1-0.1-0.1-0.2,0-0.2l0,0c0.1-0.1,0.2-0.1,0.2,0l0,0l0.7,0.7C405.2,412.2,405.2,412.3,405.1,412.4
				C405.2,412.4,405.1,412.4,405.1,412.4L405.1,412.4z M403.1,410.4c-0.1,0-0.1,0-0.2-0.1l-0.7-0.7c-0.1-0.1-0.1-0.2,0-0.2
				s0.2-0.1,0.2,0l0,0l0.7,0.7C403.3,410.1,403.3,410.2,403.1,410.4L403.1,410.4C403.2,410.4,403.1,410.4,403.1,410.4z M401.1,408.3
				c-0.1,0-0.1,0-0.2-0.1l-0.7-0.7c-0.1-0.1-0.1-0.2,0-0.2l0,0c0.1-0.1,0.2-0.1,0.2,0l0,0l0.7,0.7
				C401.3,408.1,401.3,408.1,401.1,408.3L401.1,408.3C401.2,408.3,401.2,408.3,401.1,408.3L401.1,408.3z M399.1,406.3
				c-0.1,0-0.1,0-0.2-0.1l-0.7-0.7c-0.1-0.1-0.1-0.2,0-0.2s0.2-0.1,0.2,0l0.7,0.7C399.3,406.1,399.3,406.2,399.1,406.3L399.1,406.3
				C399.2,406.2,399.2,406.2,399.1,406.3L399.1,406.3z M397.2,404.3c-0.1,0-0.1,0-0.2-0.1l-0.7-0.7c-0.1-0.1-0.1-0.2,0-0.2
				c0.1-0.1,0.2-0.1,0.2,0l0,0l0.7,0.7C397.4,404,397.4,404.1,397.2,404.3L397.2,404.3C397.3,404.2,397.2,404.3,397.2,404.3
				L397.2,404.3z M395.3,402.2c-0.1,0-0.1,0-0.2-0.1l-0.2-0.2c-0.2-0.2-0.3-0.4-0.5-0.6c-0.1-0.1,0-0.2,0.1-0.2l0,0
				c0.1-0.1,0.2,0,0.2,0.1l0,0c0.1,0.2,0.2,0.4,0.4,0.6l0.2,0.2C395.4,402,395.4,402.1,395.3,402.2L395.3,402.2
				C395.3,402.2,395.3,402.2,395.3,402.2L395.3,402.2z M394.1,399.6c-0.1,0-0.2-0.1-0.2-0.2v-1.1c0-0.1,0.1-0.2,0.2-0.2
				s0.2,0.1,0.2,0.2v1.1C394.3,399.5,394.2,399.6,394.1,399.6L394.1,399.6z M394.1,396.8c-0.1,0-0.2-0.1-0.2-0.2v-1.1
				c0-0.1,0.1-0.2,0.2-0.2s0.2,0.1,0.2,0.2v1.1C394.3,396.7,394.2,396.8,394.1,396.8L394.1,396.8z M394.1,394
				c-0.1,0-0.2-0.1-0.2-0.2v-1.1c0-0.1,0.1-0.2,0.2-0.2s0.2,0.1,0.2,0.2v1.1C394.3,393.9,394.2,393.9,394.1,394L394.1,394z
				 M394.1,391.1c-0.1,0-0.2-0.1-0.2-0.2v-1.1c0-0.1,0.1-0.2,0.2-0.2s0.2,0.1,0.2,0.2v1.1C394.3,391,394.2,391.1,394.1,391.1
				L394.1,391.1z M394.1,388.3c-0.1,0-0.2-0.1-0.2-0.2v-1.1c0-0.1,0.1-0.2,0.2-0.2s0.2,0.1,0.2,0.2v1.1
				C394.3,388.2,394.2,388.3,394.1,388.3L394.1,388.3z M394.1,385.4c-0.1,0-0.2-0.1-0.2-0.2v-1.1c0-0.1,0.1-0.2,0.2-0.2
				s0.2,0.1,0.2,0.2v1.1C394.3,385.3,394.2,385.4,394.1,385.4L394.1,385.4z M394.1,382.6c-0.1,0-0.2-0.1-0.2-0.2v-1.1
				c0-0.1,0.1-0.2,0.2-0.2s0.2,0.1,0.2,0.2v1.1C394.3,382.5,394.2,382.6,394.1,382.6L394.1,382.6z M394.1,379.8
				c-0.1,0-0.2-0.1-0.2-0.2v-1.1c0-0.1,0.1-0.2,0.2-0.2s0.2,0.1,0.2,0.2v1.1C394.3,379.7,394.2,379.7,394.1,379.8L394.1,379.8z
				 M394.1,376.9c-0.1,0-0.2-0.1-0.2-0.2v-1.1c0-0.1,0.1-0.2,0.2-0.2s0.2,0.1,0.2,0.2v1.1C394.3,376.8,394.2,376.9,394.1,376.9
				L394.1,376.9z M394.1,374.1c-0.1,0-0.2-0.1-0.2-0.2v-1.1c0-0.1,0.1-0.2,0.2-0.2s0.2,0.1,0.2,0.2v1.1
				C394.3,374,394.2,374.1,394.1,374.1L394.1,374.1z M394.1,371.2c-0.1,0-0.2-0.1-0.2-0.2V370c0-0.1,0.1-0.2,0.2-0.2
				s0.2,0.1,0.2,0.2v1.1C394.3,371.1,394.2,371.2,394.1,371.2L394.1,371.2z M394.1,368.4c-0.1,0-0.2-0.1-0.2-0.2v-1.1
				c0-0.1,0.1-0.2,0.2-0.2s0.2,0.1,0.2,0.2v1.1C394.3,368.3,394.2,368.4,394.1,368.4L394.1,368.4z M394.1,365.6
				c-0.1,0-0.2-0.1-0.2-0.2v-1.1c0-0.1,0.1-0.2,0.2-0.2s0.2,0.1,0.2,0.2v1.1C394.3,365.5,394.2,365.5,394.1,365.6L394.1,365.6z"/>
			<path class="st5" d="M430.8,393.5l-2.4,1.4c0.2,0.5,0.3,1,0.3,1.6v42.4c0,0.4-0.1,0.7-0.3,0.8l2.3-1.3c0.2-0.1,0.3-0.4,0.3-0.8
				v-42.4C431.1,394.6,430.9,394,430.8,393.5z"/>
			<path class="st1" d="M422.4,411.1c0-1.2-0.5-2.5-1.2-3.4c-0.7-0.7-1.2-0.4-1.2,0.7c0,1.2,0.5,2.5,1.2,3.4
				C421.8,412.6,422.4,412.3,422.4,411.1z"/>
			<polygon class="st7" points="455,395.7 460.8,399.1 455,402.5 			"/>
			<path class="st6" d="M459.4,399.9l1.3-0.7c0.5-0.2,0.7-0.7,0.6-1.2c-0.1-0.2-0.3-0.5-0.6-0.6L455,394v1.7l4,2.3
				c0.2,0.1,0.2,0.2,0.1,0.4l-0.1,0.1l-1,0.6L459.4,399.9z"/>
			<path class="st6" d="M451.1,403.1c-1.7,1-3.1,3.2-3.1,5c0,0.9,0.3,1.5,0.8,1.7c0.5,0.3,1.4,0.8,1.4,0.8l9-5.9
				c0.3-0.2,0.6-0.5,0.7-0.9v-6.5c0,0.4-0.2,0.7-0.7,0.9L451.1,403.1z"/>
			<path class="st7" d="M452.5,403.9c-1.7,1-3.1,3.2-3.1,5s1.3,2.5,3.1,1.6l8.3-4.8c0.3-0.2,0.6-0.5,0.7-0.9v-6.5
				c0,0.4-0.2,0.7-0.7,0.9L452.5,403.9z"/>
			<path class="st1" d="M453.1,404.9c1-0.6,1.7-0.1,1.7,1c-0.1,1.2-0.7,2.3-1.7,3.1c-1,0.6-1.7,0.1-1.7-1
				C451.3,406.6,452,405.6,453.1,404.9z"/>
			<path class="st6" d="M429.9,392.1l-34.7-36.3c-0.3-0.3-0.6-0.7-0.7-1.2l-1.2,3l34.3,35.9c0.4,0.4,0.7,0.9,0.9,1.5l2.4-1.4
				C430.5,393,430.3,392.5,429.9,392.1z"/>
		</g>
	</g>
	<g>
		<path class="st1" d="M378.5,337.2c-0.3-6.8-3.3-8.7-4.5-9.1l-4.9-0.9c-1.5,0.2-7.8,2.1-9.5,2.6c-1.1,0.3-2.9,1-3.5,4.6
			c-0.4,2.9-0.5,4.9,0.5,10.1c0.8,4.5,0.4,7.1-0.3,13.2c5.7,4.3,19.2,3.3,22.6-1.3c0,0-0.1-8.6-0.1-10.9S378.6,339,378.5,337.2z"/>
		<path class="st26" d="M371.2,327.9c0.6,0.3,3.6,3,4.1,7.6c1,8.4,1.2,16.6,1.4,23.9c1-0.5,2.7-1.5,3.1-2.8
			c-0.3-2.9-0.5-9.7-0.6-11.8c-0.2-2.9-0.4-7.6-0.6-9.4c-0.3-2.5-1.8-5.9-3.9-7.6c-1.2-0.1-2.3-0.2-3.4-0.4L371.2,327.9z"/>
		<path class="st26" d="M356.5,330.1l2.5-1.6l4.5-0.7c0,0,2.4,2.4,2.7,12c0.4,10.5,0.5,21.6,0.5,21.6s-7.9,1.1-11-3.3
			c0.5-3.1,0.8-6.2,0.8-9.3c0-3.1-0.6-5.2-1-7.9C354.7,336,355.1,332.8,356.5,330.1z"/>
		<path class="st7" d="M373.8,331.2l-0.8-3.9c0,0-1.4-1.4-1.7-1.6c-0.2-0.1-0.3-0.2-0.5-0.3l0,2.2C372,328.5,373,329.8,373.8,331.2z
			"/>
		<path class="st7" d="M365.5,333l-0.6-4.7c-0.4-0.4-0.5-0.5-0.8-1V326c-0.3,0-0.6,0.3-0.6,0.6c0,0,0,0,0,0c0,0.6,0,1.2,0,1.2
			C364.3,329.2,364.9,331,365.5,333z"/>
	</g>
	<g>
		<g id="freepik--top--inject-34_00000032611549169856535890000002085648680756899003_">
			<g id="freepik--head--inject-34_00000062191919886925277330000012185658301095337639_">
				<path class="st5" d="M364.3,324.6c-0.3-1.7-2.1-3.4-2.8-4.8c-0.7-1.4-1.2-2.5-1.2-3.8c0-0.8,0.5-1.9,1.1-2.1
					c-0.6-1.9,0.5-4,2.4-4.5c0.1,0,0.1,0,0.2-0.1c0.6-0.2,1.1-0.2,1.6-0.5c0.7-0.2,0.7-0.8,1.2-1.2c0.8-0.7,2.3-0.8,2.9,0.3
					c0.6-0.7,1.3-0.7,2.3-0.6c0.8,0.2,1.3,0.9,1.2,1.7c1.2-0.7,2.3,0.2,2.5,0.8c0.1,0.5,0,1,0.3,1.4c0.4,0.5,1.2,0.5,1.3,0.1
					c0.2,0.7-0.2,1.3-1,1.3c0.3,0.4,0.4,0.9,0.2,1.4c-0.2,0.7-0.7,1.1-1.4,1.1c0,0.4-0.2,0.8-0.3,1.2c-0.2,0.3-0.6,0.7-0.9,0.9
					c-1.2,0.6-2.6,0.8-3.9,1.2l-1.6,0.3c-0.1,0-0.6,0.1-0.7,0.2L364.3,324.6z"/>
				<path class="st19" d="M362.1,322.4c1.2,0.7,2-0.1,2-0.1v5.5c1,2.3,5,2.6,6.4,2c1.5-0.7,1.2-1.6,0.2-2.9l0.1-0.9
					c0.7,0,1.3-0.1,2-0.2c1.3-0.2,2.4-1.5,2.7-3c0.3-1.8,0.3-3.6-0.1-5.5c-0.1-0.4-0.2-0.9-0.1-1.4c0.1-1.2-0.2-1.9-0.5-3
					c-1.5-1.2-4.8-1.5-7.9,0.5c0.4,1.8-0.2,3.3-1.7,4c0.1,0.5,0.2,1.7-0.7,1.7c-0.6,0-0.7-0.7-1.2-1.4c-0.6-0.7-2.1-0.8-2.6,0.2
					C360.3,319.7,360.9,321.7,362.1,322.4z"/>
				<path class="st27" d="M371.8,318.3l0.7,2.9l2-1.1l-0.2-0.3c-0.1-0.1-0.1-0.1-0.2-0.2s-0.2-0.2-0.2-0.3c-0.2-0.3-0.5-0.7-0.7-0.9
					c-0.1-0.2-0.2-0.3-0.4-0.4c-0.1-0.2-0.2-0.2-0.3-0.3s-0.2-0.1-0.2-0.2C371.9,317.5,371.9,317.9,371.8,318.3z"/>
				<path class="st27" d="M370.6,321.7L370.6,321.7c0.2,0,0.2,0.1,0.3,0.2c0.3,0.2,0.7,0.3,1.1,0.5c0.1,0,0.2,0,0.2,0h0.2h0.1
					c0.2,0.2-0.3,0.2-0.4,0.2c-0.2,0-0.4,0-0.6-0.1c-0.4-0.1-0.7-0.2-1.1-0.5c-0.1,0-0.1-0.1-0.1-0.2
					C370.5,321.8,370.5,321.7,370.6,321.7L370.6,321.7z"/>
				<path class="st27" d="M371,326.1c-2.1-0.2-3.7-0.4-4.8-1.9c-0.5-0.7-1-1.6-1.3-2.5c0.2,1.1,0.5,2.1,1,3.1c0.6,1,1.8,1.7,5,2
					L371,326.1z"/>
				<path class="st5" d="M370.3,317.8c0,0.3-0.2,0.7-0.5,0.7l0,0c-0.3,0-0.7-0.2-0.7-0.6s0.2-0.7,0.6-0.7
					C369.9,317.2,370.2,317.5,370.3,317.8L370.3,317.8z"/>
				<path class="st5" d="M369.4,315.6l-1.3,0.5c-0.2-0.4,0.1-0.8,0.4-0.9C368.8,315.1,369.2,315.2,369.4,315.6
					C369.4,315.6,369.4,315.6,369.4,315.6z"/>
				<path class="st5" d="M374.9,315.3l-1.4-0.2c0-0.4,0.3-0.7,0.7-0.7l0,0C374.6,314.6,374.9,314.9,374.9,315.3z"/>
				<path class="st5" d="M375,317.5c0,0.3-0.3,0.6-0.7,0.6s-0.6-0.3-0.6-0.7c0-0.3,0.2-0.6,0.6-0.6C374.8,316.9,375,317.2,375,317.5
					z"/>
			</g>
		</g>
		<g>
			<path class="st19" d="M364.9,328.3l0,0.6c2.3,2.9,5.2,3.7,6.8,4.1c1.1-1.9-0.1-4.8-0.1-4.8l-0.4,0.1c-1.2,0.4-1.9,0.4-3.2,0.4
				C366.8,328.7,365.8,328.5,364.9,328.3z"/>
		</g>
	</g>
	<path class="st7" d="M359.3,328.5c-2-0.1-5.1,0.1-6.9,4c-1.7,3.9-4.3,10.2-4.3,10.2s3,4,6.2,3.6l4.9-9.2
		C359.1,337.1,360.5,332.2,359.3,328.5z"/>
	<path class="st7" d="M365.5,333l-0.6-4.7c-0.4-0.4-0.5-0.5-0.8-1V326c-0.3,0-0.6,0.3-0.6,0.6c0,0,0,0,0,0c0,0.6,0,1.2,0,1.2
		C364.3,329.2,364.9,331,365.5,333z"/>
</g>
</svg>
