<!DOCTYPE svg PUBLIC "-//W3C//DTD SVG 1.1//EN" "http://www.w3.org/Graphics/SVG/1.1/DTD/svg11.dtd">
<!-- Uploaded to: SVG Repo, www.svgrepo.com, Transformed by: SVG Repo Mixer Tools -->
<svg fill="#000000" width="125px" height="125px" viewBox="0 0 24 24" id="date-alt-favorite" data-name="Line Color" xmlns="http://www.w3.org/2000/svg" class="icon line-color">
<g id="SVGRepo_bgCarrier" stroke-width="0"/>
<g id="SVGRepo_tracerCarrier" stroke-linecap="round" stroke-linejoin="round"/>
<g id="SVGRepo_iconCarrier">
<path id="primary" d="M7.54,19H4a1,1,0,0,1-1-1V5A1,1,0,0,1,4,4H20a1,1,0,0,1,1,1V18a1,1,0,0,1-1,1H16.46" style="fill: none; stroke: #000000; stroke-linecap: round; stroke-linejoin: round; stroke-width: 2;"/>
<path id="primary-2" data-name="primary" d="M12,9a6,6,0,1,0,6,6A6,6,0,0,0,12,9ZM3,9H21" style="fill: none; stroke: #000000; stroke-linecap: round; stroke-linejoin: round; stroke-width: 2;"/>
<path id="secondary" d="M16,3V6M8,3V6" style="fill: none; stroke: #1c7b17; stroke-linecap: round; stroke-linejoin: round; stroke-width: 2;"/>
<path id="secondary-2" data-name="secondary" d="M14.06,14.91a1.23,1.23,0,0,0-1.89-1.55,1.18,1.18,0,0,0-.17.22,1.18,1.18,0,0,0-.17-.22,1.23,1.23,0,0,0-1.89,1.55c.05.06.09.12.15.18L12,17l1.91-1.91C14,15,14,15,14.06,14.91Z" style="fill: none; stroke: #1c7b17; stroke-linecap: round; stroke-linejoin: round; stroke-width: 2;"/>
</g>
</svg>