<?xml version="1.0" encoding="utf-8"?>
<!-- Generator: Adobe Illustrator 27.2.0, SVG Export Plug-In . SVG Version: 6.00 Build 0)  -->
<svg version="1.1" id="Layer_1" xmlns="http://www.w3.org/2000/svg" xmlns:xlink="http://www.w3.org/1999/xlink" x="0px" y="0px"
	 viewBox="0 0 500 500" style="enable-background:new 0 0 500 500;" xml:space="preserve">
<style type="text/css">
	.st0{fill:#98AF96;}
	.st1{opacity:0.7;fill:#FFFFFF;enable-background:new    ;}
	.st2{fill:none;stroke:#263238;stroke-linecap:round;stroke-linejoin:round;}
	.st3{fill:#BDC6BC;stroke:#263238;stroke-linecap:round;stroke-linejoin:round;}
	.st4{fill:#D1DBD0;stroke:#263238;stroke-miterlimit:10;}
	.st5{fill:#FFFFFF;stroke:#263238;stroke-linecap:round;stroke-linejoin:round;}
	.st6{fill:#263238;stroke:#263238;stroke-linecap:round;stroke-linejoin:round;}
	.st7{fill:#98AF96;stroke:#263238;stroke-linecap:round;stroke-linejoin:round;}
	.st8{fill:#636363;stroke:#263238;stroke-linecap:round;stroke-linejoin:round;}
</style>
<g id="freepik--background-simple--inject-33">
	<path class="st0" d="M283.6,19.1c0,0-83.2-10.6-149.4,49.7s-85.5,155.3-103.1,232s16.7,143.2,81.6,162.8S206.4,427,287.1,407
		s105-13.2,162.3-73.8s45.8-171.5-24.8-239.9S283.6,19.1,283.6,19.1z"/>
	<path class="st1" d="M283.6,19.1c0,0-83.2-10.6-149.4,49.7s-85.5,155.3-103.1,232s16.7,143.2,81.6,162.8S206.4,427,287.1,407
		s105-13.2,162.3-73.8s45.8-171.5-24.8-239.9S283.6,19.1,283.6,19.1z"/>
</g>
<g id="freepik--Landscape--inject-33">
	<line class="st2" x1="25.2" y1="207.3" x2="480" y2="207.3"/>
	<path class="st3" d="M48.8,207.3c0,0,64.2-40.9,73.6-40.9s69.8,40.5,69.8,40.5s125.6-47.5,136.8-46.9s41.1,15.8,42.8,16.4
		s26.4-6.4,34-3.5s60,34.5,60,34.5L48.8,207.3z"/>
	<path class="st4" d="M172.8,207.3c-6.8-4.6-19.4-13.4-20.8-16.3c-2-4-8,0-15-2s-14.6-22.6-14.6-22.6c-9.4,0-73.6,40.9-73.6,40.9
		L172.8,207.3z"/>
	<path class="st4" d="M335.4,181.3c-4.2-3.2-8.1-6.6-11.7-10.4l3.5-10.8c-18.7,2.8-135,46.8-135,46.8l-0.4-0.2l-1.1,0.4l275,0.3
		l-0.2-0.1c-8.2-1.6-20-4-21-4.2c-1.7-0.4-16.2-2.1-16.2-2.1s-14.6-4.6-17.5-6.2s-13.3-12.1-12.1-14.2s5.4-7.9,5.4-7.9l-1.1-0.3
		c-9.6-1-29.7,4.6-31.3,4.1l-17.2,5.3C354.6,181.7,342.9,187.1,335.4,181.3z"/>
	<polyline class="st2" points="486.7,349.6 255.9,207.3 13.9,356.4 	"/>
	<line class="st2" x1="155.4" y1="253.2" x2="49.3" y2="313.7"/>
	<line class="st2" x1="76.3" y1="289.5" x2="22.3" y2="318.3"/>
	<line class="st2" x1="345.3" y1="250.4" x2="397.5" y2="279.2"/>
	<line class="st2" x1="393.7" y1="269.9" x2="452.4" y2="300.6"/>
</g>
<g id="freepik--Arrows--inject-33">
	<polygon class="st0" points="419.3,466 463.4,447.4 400.8,388.6 411.8,388.6 353,356.8 351.5,388.6 362.5,388.6 	"/>
	<polygon class="st0" points="28.4,453.7 79.2,466 136,388.6 147,388.6 145.5,356.8 86.7,388.6 97.7,388.6 	"/>
	<polygon class="st0" points="192.1,466 302.4,466 276.5,355.8 293.4,355.8 247.2,317 201.1,355.8 218,355.8 	"/>
</g>
<g id="freepik--Clouds--inject-33">
	<line class="st2" x1="379.7" y1="119" x2="385.9" y2="119"/>
	<path class="st5" d="M434,119h41.4c0,0,3.3-10-8.9-16.7s-17.8-1.1-22.2-6.7s12.2-20-21.1-34.4c0,0-2.2-31.1-47.7-32.2
		S342.2,60.2,330,68s-15.5-4.4-27.8,3.3s-6.7,23.3-16.6,25.5s-23.3-10-35.5-2.2S237.9,109,232.4,109c-22.1-4.4-22.5-0.7-37.7,10
		h178.1"/>
	<path class="st2" d="M300.4,97.8c-1.6,0.9-3.2,1.7-5,2.3"/>
	<path class="st2" d="M306.5,90c-0.9-15.1,22.5-12.3,31-12.9c5.4-0.7,10.2-7.5,12.2-17.6c1.2-6,5.3-11,10.8-13.5"/>
	<path class="st5" d="M105,160.1c-2.4-1.3-3.6-0.2-4.5-1.3s2.4-4-4.2-6.9c0,0-0.4-6.3-9.6-6.5s-6.7,6.2-9.2,7.8s-3.1-0.9-5.6,0.7
		s-1.3,4.7-3.3,5.1s-4.7-2-7.2-0.4s-2.5,2.9-3.6,2.9c-3.5-1-5.4,0.2-7.6,2h56.5C106.8,163.4,107.4,161.4,105,160.1z"/>
	<path class="st2" d="M71.6,159.2c-0.3,0.2-0.7,0.3-1,0.5"/>
	<path class="st2" d="M83.6,148.7c-1.1,0.5-1.9,1.5-2.2,2.7c-0.4,6.5-7.9,1-8.7,6.1"/>
	<path class="st5" d="M441,121.2c-3.9-2.1-5.6-0.3-7-2.1s3.9-6.3-6.7-10.9c0,0-0.7-9.8-15.1-10.2s-10.5,9.8-14.4,12.3
		s-4.9-1.4-8.8,1.1s-2.1,7.4-5.2,8.1s-7.4-3.2-11.2-0.7s-3.9,4.6-5.6,4.6c-5.9-1.5-8.1,0.2-11.9,3.2h88.6
		C443.8,126.5,444.9,123.3,441,121.2z"/>
	<path class="st2" d="M388.6,119.8c-0.5,0.3-1,0.5-1.6,0.7"/>
	<path class="st2" d="M407.5,103.4c-4.1,1.2-3.5,9.6-7.3,9.8c-2.7,0.2-10.1-0.7-9.8,4.1"/>
</g>
<g id="freepik--Character--inject-33">
	<polygon class="st5" points="234.7,106.1 237.2,120.5 256,120 259.2,105.8 	"/>
	<path class="st5" d="M230.6,96c0,0-3-1.7-3,3s4.6,7.8,5.9,7.8s1.5-1.2,1.2-2.7S230.6,96,230.6,96z"/>
	<path class="st5" d="M260.9,96c0,0,2.9-2,3.3,2.8s-3.8,8.2-5.2,8.3s-1.6-1-1.4-2.6S260.9,96,260.9,96z"/>
	<path class="st6" d="M233.4,77.4c0,0-4.7,6.2-4.7,11.5s3.3,12.6,5.3,16.8s4.7,8.8,6.2,9.1s11.8,0.3,13.5-0.9s4.7-4.1,5.9-10.3
		s2.9-15.3,2.9-15.3s6.5-0.9,7.4-5s-5-6.5-6.8-9.1s3.2-5-1.8-8.2s-9.1-0.9-12.6,0.3s-3.2-3.8-7.4-1.8s-3.8,5.3-3.8,5.3
		s-2.9-0.3-2.9-1.8s-2.9-1.5-3.8,3.2S233.4,77.4,233.4,77.4z"/>
	<path class="st5" d="M259,117c0,0-13,0-18.6,0.5s-7.6,6.9-7.6,6.9c5.9-1,11.8-1.6,17.8-2c7.8-0.3,12.7-0.2,12.7-0.2L259,117z"/>
	<path class="st7" d="M296.1,129.2c0,0,16.7,66.1,16.5,68.3s-30.7,12-30.7,12l-3.1-10.6l13.1-9.5l-6.4-17.9
		C285.5,171.6,293.6,133.4,296.1,129.2z"/>
	<path class="st6" d="M311,196.9c-0.9-5.6-2.2-11.1-3.7-16.5l-20.7-14c-0.7,3.2,0.1,4.5,0.1,4.5l7.5,20.9l-15.4,7.2l3.1,9
		C281.9,208,310.7,199.1,311,196.9z"/>
	<path class="st6" d="M288.9,156l19.4,22.6c-0.7-2.8-1.4-5.8-2.2-8.9l-17.2-14L288.9,156z"/>
	<path class="st5" d="M180.4,243.1c0,0-4.3,13.8-4.7,16.6s-1.9,4.1-0.6,6.5s7.4,5,8.8,5.6s3.9-1.7,3.9-1.7s1.5,1.1,2.6-1.3
		s1.5-6.9,1.5-8.9s-3.7-7.4-4.1-9.1c-0.3-1.4-0.4-2.7-0.6-4.1L180.4,243.1z"/>
	<path class="st2" d="M187.1,253.4c0,0,0.2,6-0.2,6.7s-6.3,4.1-6.3,4.1"/>
	<line class="st2" x1="182.2" y1="263.2" x2="184.9" y2="267.2"/>
	<path class="st2" d="M186.9,260.1c0,0,2-0.4,2.2,1.3s-0.8,7.8-1.3,8.8"/>
	<path class="st6" d="M227.5,398c0,0,0.8,9.8,2.5,11.1s6.7,2.8,9.5,2c1.8-0.6,3.5-1.6,5-2.8l0.6-11.4
		C245,396.9,233.6,400.5,227.5,398z"/>
	<path class="st6" d="M214.7,250.8c0,0,5,43.8,5.3,51.6s-2.8,23.7-1.7,32.1s5,34,5,34l3.4,18.4c0,0-2.8,3.6-2,6.1l2,5.9
		c0,0,5.3,3.3,9.5,3.6s7.8-2,8.4-3.1s1.4-12.5,1.4-15.3s-1.7-10-1.9-15.6s1.9-30.1,1.9-37.9s0.8-30.4,1.1-31.2s1.7-37.6,1.7-37.6
		l0.6-5.6L214.7,250.8z"/>
	<path class="st6" d="M247,380.5c0,0-4.7,3.9-4.7,7.5c0,2.3,0.5,4.6,1.4,6.7l2.2,1.1c0,0-0.8,2.2-1.9,6.7s2.5,17,3.1,18.1
		s5.9,1.4,5.9,1.4c2.1-2.5,3.7-5.3,4.7-8.4c1.4-4.5,1.4-15.3,1.4-18.4c0.1-2.4,0.4-4.7,0.8-7C259.8,388.2,254.2,376.3,247,380.5z"/>
	<path class="st8" d="M250.1,385.2c-3.9-3.1-7,0.8-7,0.8l-0.6,0.3c-0.2,0.5-0.3,1.1-0.3,1.6c0,2.3,0.5,4.6,1.4,6.7l2.2,1.1
		c0,0-0.8,2.2-1.9,6.7s2.5,17,3.1,18.1s5.9,1.4,5.9,1.4c1.4-1.7,2.5-3.4,3.5-5.4c0.8-5.5,0.6-11-0.7-16.4
		C254,393.8,254,388.2,250.1,385.2z"/>
	<path class="st7" d="M247.8,256.4l12,59.1c0,0-7,19.2-7.5,27.3s-4.2,30.7-4.5,32.9s-0.8,4.7-0.8,4.7s5.6-0.6,8.4,2.5
		c2.8,3.1,5.9,10.3,5.9,10.3s8.1-22,10.9-28.2s11.7-30.4,12-38.8s2.8-53.5,2.8-59.7v-13.9C286.9,252.8,250.6,256.6,247.8,256.4z"/>
	<path class="st2" d="M279.9,320.8c-4.2-5.6-17.8-5.6-17.8-5.6c4.9-1.4,10-1.9,15-1.7"/>
	<path class="st6" d="M247.8,256.4l4.2,20.5c3-2.6,18.7-15.5,34.9-20.6v-3.5C286.9,252.7,250.6,256.6,247.8,256.4z"/>
	<rect x="180.4" y="262.6" class="st6" width="3.7" height="18.2"/>
	<rect x="175.2" y="278.3" class="st6" width="14.2" height="58.5"/>
	<path class="st7" d="M232.9,124.4l-1,0.6c-2.5,1.5-8.7,5.2-9.4,5.6c-0.8,0.6-21.5,7.5-21.5,10.3s-5.6,36.8-5.6,36.8
		s-10,20.9-11.4,25.9s-5.9,41.8-5.9,41.8l12,6.1c0,0,11.4-26.2,15.9-38.8s8.6-31.5,8.6-31.5l3.1,19.5l-13.9,48.2
		c0,0,20.4,8.4,33.5,9.5s32.3-0.5,38.8-2s20.4-3.3,20.4-3.3s-4.5-17-7.2-25.4s-5.6-27.6-5.6-27.6l-0.3-1.4l12.8-69.7l-29-4.5
		l-3.8-2.6C263.3,122.1,241,121.5,232.9,124.4z"/>
	<polygon class="st6" points="214.5,179.4 207.7,156.6 212.9,188.8 	"/>
	<path class="st2" d="M244.9,154.6c0.7,0.8,1.3,1.5,1.8,2"/>
	<path class="st2" d="M229.4,134.2c0,0,7.6,10.6,13.2,17.6"/>
	<path class="st2" d="M227.2,135.6c0,0,7.5,10.6,10.6,15.3"/>
	<path class="st2" d="M282,203.2c0,0-11.1,23.5-15.4,29.5"/>
	<path class="st2" d="M268.9,237.8c-0.9,1.8-1.8,3.5-2.7,5.2"/>
	<path class="st2" d="M280.3,212.1c0,0-4.2,10.5-9.1,21"/>
	<path class="st2" d="M233.9,225.2c0.6,0.8,1.3,1.6,1.9,2.3"/>
	<path class="st2" d="M220.1,202.3c-0.7,1.1,5.4,11.7,12,20.4"/>
	<path class="st2" d="M220.9,209.1c0,0,6,13.2,9,17.9"/>
</g>
<g id="freepik--Graphics--inject-33">
	<circle class="st2" cx="429.5" cy="153.5" r="3.5"/>
	<circle class="st2" cx="134.5" cy="329" r="3.5"/>
	<circle class="st2" cx="52" cy="236.5" r="3.5"/>
	<circle class="st2" cx="134" cy="133" r="4"/>
	<circle class="st2" cx="182.5" cy="58.5" r="3.5"/>
	<polygon class="st2" points="104.7,52.8 112.4,59.4 116.2,59.4 104.7,49.5 93.3,59.4 97.1,59.4 	"/>
	<polygon class="st2" points="104.7,60.3 112.4,67 116.2,67 104.7,57.1 93.3,67 97.1,67 	"/>
	<polygon class="st2" points="445.6,232.3 450.6,236.6 453,236.6 445.6,230.2 438.2,236.6 440.7,236.6 	"/>
	<polygon class="st2" points="445.6,237.2 450.6,241.4 453,241.4 445.6,235.1 438.2,241.4 440.7,241.4 	"/>
	<polygon class="st2" points="377,143.4 384.6,150 388.4,150 377,140.1 365.6,150 369.4,150 	"/>
	<polygon class="st2" points="377,150.9 384.6,157.6 388.4,157.6 377,147.7 365.6,157.6 369.4,157.6 	"/>
	<polygon class="st2" points="431,357.5 438.6,364.1 442.4,364.1 431,354.2 419.6,364.1 423.4,364.1 	"/>
	<polygon class="st2" points="431,365 438.6,371.6 442.4,371.6 431,361.7 419.6,371.6 423.4,371.6 	"/>
	<polygon class="st2" points="101.8,247.6 106.6,251.8 109,251.8 101.8,245.6 94.6,251.8 96.9,251.8 	"/>
	<polygon class="st2" points="101.8,252.4 106.6,256.5 109,256.5 101.8,250.3 94.6,256.5 96.9,256.5 	"/>
	<polygon class="st2" points="69.2,367.8 74,372 76.4,372 69.2,365.8 62,372 64.3,372 	"/>
	<polygon class="st2" points="69.2,372.6 74,376.8 76.4,376.8 69.2,370.5 62,376.8 64.3,376.8 	"/>
</g>
</svg>
