<?xml version="1.0" encoding="utf-8"?>
<!-- Generator: Adobe Illustrator 27.2.0, SVG Export Plug-In . SVG Version: 6.00 Build 0)  -->
<svg version="1.1" id="Layer_1" xmlns="http://www.w3.org/2000/svg" xmlns:xlink="http://www.w3.org/1999/xlink" x="0px" y="0px"
	 viewBox="0 0 500 500" style="enable-background:new 0 0 500 500;" xml:space="preserve">
<style type="text/css">
	.st0{fill:#98AF96;}
	.st1{opacity:0.7;fill:#FFFFFF;enable-background:new    ;}
	.st2{fill:#263238;}
	.st3{fill:#263238;stroke:#263238;stroke-linejoin:round;}
	.st4{fill:#FFFFFF;stroke:#263238;stroke-linejoin:round;}
	.st5{fill:#FFFFFF;stroke:#000000;stroke-miterlimit:10;}
	.st6{fill:#FFFFFF;}
	.st7{fill:none;stroke:#263238;stroke-linejoin:round;}
</style>
<g id="freepik--background-simple--inject-7">
	<path class="st0" d="M411.4,108.9c-17-17.6-36.5-32.3-57.2-42.5c-31.5-15.6-66.3-23.2-101-23.6C151.8,41.4,144,167.8,112.8,185.4
		S25,205,23.1,275.3c-1.2,44.2,8.5,89.7,35.9,124.1c25.1,31.5,61.9,47.5,98.2,59.3C198,472,241.2,485,284.1,476
		c44-9.2,74.9-46.1,111.1-71.1c22.8-15.7,43.2-32.2,57.2-57.5c1.7-3,3.2-6.1,4.8-9.2c18.8-39.2,22.5-84.4,12.1-126.7
		C459.9,173.6,438.9,137.3,411.4,108.9z"/>
	<path class="st1" d="M411.4,108.9c-17-17.6-36.5-32.3-57.2-42.5c-31.5-15.6-66.3-23.2-101-23.6C151.8,41.4,144,167.8,112.8,185.4
		S25,205,23.1,275.3c-1.2,44.2,8.5,89.7,35.9,124.1c25.1,31.5,61.9,47.5,98.2,59.3C198,472,241.2,485,284.1,476
		c44-9.2,74.9-46.1,111.1-71.1c22.8-15.7,43.2-32.2,57.2-57.5c1.7-3,3.2-6.1,4.8-9.2c18.8-39.2,22.5-84.4,12.1-126.7
		C459.9,173.6,438.9,137.3,411.4,108.9z"/>
</g>
<g id="freepik--Plant--inject-7">
	<path class="st2" d="M288.4,317.5c1.8,1.2,6.5,2.1,6.5,2.1s-0.4-3.3-0.5-3.5c-0.6-2.4-3.2-6.6-5.9-6.8c-1.8-0.1-3.3,1.3-3.4,3.1
		c0,0.1,0,0.2,0,0.4C285.2,314.7,286.9,316.5,288.4,317.5z"/>
	<path class="st2" d="M287.2,331.6c2,0.7,6.4,0.3,6.8,0.3c0.2,2.6,0.6,5.1,1.1,7.6c0.3,1.5,0.7,2.9,1.1,4.4
		c-0.3-0.6-0.5-1.2-0.6-1.3c-1.2-2.1-4.8-5.6-7.5-5c-1.8,0.4-2.8,2.2-2.4,3.9c0,0.1,0.1,0.2,0.1,0.3c0.6,1.9,2.6,3.1,4.4,3.7
		s5.6,0.4,6.6,0.3c0.1,0.6,0.3,1.1,0.5,1.7c0.7,2.7,1.5,5.4,2.1,8c0.2,0.9,0.4,1.9,0.6,2.8c-0.2-0.6-0.5-1-0.5-1.1
		c-1.2-2.1-4.8-5.6-7.5-5c-1.8,0.4-2.8,2.2-2.4,3.9c0,0.1,0.1,0.2,0.1,0.3c0.6,1.9,2.6,3.1,4.4,3.7s5.2,0.4,6.4,0.3
		c0.2,1,0.3,1.9,0.5,2.9c0.1,0.6,0.2,1.2,0.2,1.9s0.1,1.3,0.1,1.9c0,1.2,0.1,2.5,0.1,3.6c0,0.8,0,1.6,0,2.4
		c-0.2-0.9-0.7-2.8-0.7-2.9c-0.9-2.3-3.9-6.2-6.7-6.1c-1.8,0.1-3.1,1.7-3,3.5c0,0.1,0,0.2,0,0.4c0.3,1.9,2.1,3.5,3.7,4.4
		c1.8,1,6.1,1.3,6.6,1.3c0,1.3,0,2.6,0,3.8c0,2.4-0.1,4.6-0.3,6.5l1.8,0.4c0.1-2,0.1-4.3,0.1-6.9c0-1.3,0-2.8,0-4.2
		c1.4-0.3,2.7-0.6,4-1c1.1,1.8,4.3,4.2,4.7,4.5c-0.7,1.1-1.4,2.1-2.1,3.1c-1.3,1.9-2.5,3.5-3.6,5l1.9,0.4c0.9-1.3,2-2.8,3.1-4.5
		c0.7-1.1,1.5-2.3,2.3-3.5c0.5,0.2,4.5,1.9,6.5,1.8c1.8,0,4.2-0.6,5.3-2.2c1.1-1.4,0.8-3.5-0.6-4.6c-0.1-0.1-0.2-0.1-0.3-0.2
		c-2.4-1.4-6.9,0.8-8.7,2.4c-0.1,0.1-1.1,1.3-1.8,2l0.9-1.5c0.6-1,1.2-2.1,1.9-3.2l0.9-1.7c0.3-0.6,0.6-1.2,0.9-1.8
		c0.6-1.4,1.2-2.8,1.8-4.3c0.9,0.5,4.1,2.5,6,2.7s4.2,0,5.6-1.4c1.3-1.2,1.4-3.3,0.1-4.6c-0.1-0.1-0.2-0.2-0.3-0.3
		c-2.1-1.7-6.9-0.3-9,1.1c-0.1,0.1-1.5,1.2-2.2,1.9c0.3-0.9,0.6-1.8,1-2.7c0.9-2.6,1.7-5.3,2.5-8c0.2-0.8,0.5-1.6,0.8-2.4
		c0.3,0.2,4.1,2.5,6.2,2.8c1.8,0.2,4.2,0,5.6-1.4c1.3-1.2,1.3-3.3,0.1-4.6c-0.1-0.1-0.2-0.2-0.3-0.2c-2.2-1.7-6.9-0.3-9,1.1
		c-0.1,0.1-2.1,1.8-2.6,2.2c0.6-1.8,1.1-3.6,1.8-5.3c0.9-2.3,1.9-4.6,3-6.8c0.1,0.1,4.1,2.6,6.2,2.8c1.8,0.2,4.2,0,5.6-1.4
		c1.3-1.2,1.4-3.3,0.1-4.6c-0.1-0.1-0.2-0.2-0.3-0.2c-2.2-1.7-6.9-0.3-9,1.1c-0.2,0.1-2.3,1.9-2.6,2.2c0.1-0.1,0.1-0.3,0.2-0.4
		c1.2-2.2,2.6-4.3,4.2-6.2c0.9-1.1,1.7-2.1,2.6-3c0.7,0.5,3.9,3,5.7,3.4s4.2,0.5,5.7-0.8c1.4-1.1,1.7-3.1,0.6-4.6
		c-0.1-0.1-0.1-0.2-0.2-0.3c-2-2-6.9-1.1-9,0.1c-0.1,0.1-1.3,0.8-2.1,1.4c0.4-0.4,0.8-0.9,1.2-1.2c1.5-1.5,2.9-2.8,4.2-3.9
		c0.7-0.6,1.4-1.2,2.1-1.7c1,0.2,4.8,0.8,6.6,0.4s3.9-1.5,4.7-3.3c0.8-1.6,0.1-3.6-1.6-4.3c-0.1,0-0.2-0.1-0.3-0.1
		c-2.6-0.8-6.6,2.2-8,4.2c-0.1,0.2-1.7,3.1-1.7,3.1h0c-0.6,0.5-1.3,1-2,1.6c-1.3,1.1-2.8,2.3-4.3,3.8c-1.6,1.5-3.2,3.2-4.6,4.9
		c-1.6,1.9-3.1,4-4.4,6.2c0,0,0,0.1,0,0.1c0.2-0.8,0.6-3,0.6-3.2c0.2-2.5-1-7.3-3.5-8.3c-1.7-0.6-3.6,0.2-4.2,1.9
		c0,0.1-0.1,0.2-0.1,0.3c-0.5,1.9,0.5,4,1.6,5.5c1.2,1.7,5.2,3.8,5.5,4c-1.2,2.3-2.3,4.6-3.2,7c-0.5,1.4-1.1,2.8-1.5,4.3
		c0.1-0.7,0.2-1.3,0.2-1.4c0.2-2.5-1-7.3-3.5-8.3c-1.7-0.6-3.6,0.2-4.2,1.9c0,0.1-0.1,0.2-0.1,0.3c-0.5,1.9,0.5,4,1.6,5.5
		s4.5,3.4,5.3,3.9c-0.2,0.5-0.4,1.1-0.5,1.7c-0.9,2.6-1.7,5.3-2.6,7.9c-0.3,0.9-0.7,1.8-1,2.7c0.1-0.6,0.2-1.1,0.2-1.2
		c0.2-2.5-1-7.3-3.5-8.3c-1.7-0.6-3.6,0.3-4.2,2c0,0.1-0.1,0.2-0.1,0.3c-0.5,1.9,0.5,4,1.6,5.5s4.1,3.2,5.2,3.8
		c-0.4,0.9-0.8,1.8-1.2,2.6c-0.3,0.6-0.5,1.1-0.9,1.7l-0.9,1.7c-0.6,1-1.3,2.1-1.9,3.1l-1.3,2c0.3-0.9,0.9-2.7,1-2.8
		c0.4-2.1,0.2-4.3-0.5-6.4c0.1-0.2,0.1-0.5,0.1-0.7c0.1-1.8-1.2-3.4-3-3.5c-0.1,0-0.2,0-0.3,0c-2.8,0.2-5.3,4.4-5.9,6.8
		c0,0.1-0.2,1.7-0.4,2.7c0-0.6,0-1.2,0-1.8c0-1.2-0.1-2.4-0.2-3.7l-0.2-1.9c0-0.6-0.2-1.3-0.3-2c-0.2-1.5-0.5-3-0.9-4.6
		c1.1,0,4.8-0.2,6.5-1s3.5-2.3,3.9-4.2c0.4-1.8-0.7-3.5-2.4-3.9c-0.1,0-0.3-0.1-0.4-0.1c-2.8-0.2-5.9,3.6-6.9,5.8
		c-0.1,0.1-0.6,1.9-0.8,2.8c-0.2-0.9-0.4-1.8-0.7-2.8c-0.7-2.7-1.5-5.3-2.3-8l-0.7-2.5c0.4,0,4.9-0.1,6.7-1.1
		c1.6-0.8,3.5-2.3,3.9-4.2c0.4-1.8-0.7-3.5-2.4-3.9c-0.1,0-0.3-0.1-0.4-0.1c-2.8-0.2-5.9,3.6-6.9,5.9c-0.1,0.2-0.8,2.6-1,3.3
		c-0.5-1.8-1-3.6-1.5-5.4c-0.6-2.4-1-4.9-1.3-7.4c0.2,0,4.9-0.1,6.8-1.1c1.6-0.8,3.5-2.3,3.9-4.2c0.4-1.8-0.7-3.5-2.4-3.9
		c-0.1,0-0.2-0.1-0.4-0.1c-2.8-0.2-5.9,3.6-6.9,5.9c-0.1,0.2-0.9,2.8-1,3.3c0-0.1,0-0.3-0.1-0.4c-0.2-2.5-0.2-5,0.1-7.5
		c0.1-1.4,0.3-2.7,0.5-4c0.9,0.1,4.9,0.3,6.7-0.3s3.8-1.9,4.3-3.8c0.6-1.7-0.3-3.6-2-4.2c-0.1,0-0.2-0.1-0.3-0.1
		c-2.7-0.5-6.3,2.9-7.5,5c-0.1,0.1-0.6,1.4-1,2.3c0.1-0.6,0.2-1.2,0.3-1.7c0.4-2,0.9-3.9,1.4-5.5c0.3-0.9,0.5-1.8,0.8-2.5
		c0.9-0.4,4.5-2,5.7-3.4s2.5-3.4,2.1-5.3c-0.3-1.8-1.9-3-3.7-2.7c-0.1,0-0.2,0-0.3,0.1c-2.6,0.8-4.2,5.5-4.3,7.9
		c0,0.2,0.3,3.5,0.3,3.5h0c-0.2,0.7-0.5,1.5-0.8,2.4c-0.5,1.6-1,3.5-1.5,5.5c-0.5,2.2-0.9,4.4-1.2,6.7c-0.3,2.5-0.4,5-0.2,7.6
		c0,0,0,0.1,0,0.1c-0.3-0.8-1.2-2.8-1.3-3c-1.2-2.1-4.8-5.6-7.5-5c-1.8,0.4-2.8,2.2-2.4,3.9c0,0.1,0.1,0.2,0.1,0.3
		C283.5,329.7,285.5,331,287.2,331.6z"/>
	<path class="st2" d="M336.2,328.2c0,0,1.5-3,1.6-3.2c0.8-2.3,1-7.3-1.2-9c-1.5-1-3.5-0.7-4.5,0.8c-0.1,0.1-0.1,0.2-0.2,0.3
		c-1,1.7-0.6,4,0,5.7C332.7,324.8,336.2,328.1,336.2,328.2z"/>
	<path class="st2" d="M185.8,129.5c1.9,0.3,6-1,6-1s-1.6-2.5-1.8-2.6c-1.4-1.6-5.1-4-7.4-3c-1.4,0.7-2.1,2.4-1.4,3.8
		c0,0.1,0.1,0.2,0.1,0.3C182.2,128.5,184.1,129.3,185.8,129.5z"/>
	<path class="st2" d="M190.5,141.1c1.8-0.2,5.2-2.3,5.5-2.5c1.2,1.9,2.5,3.8,3.9,5.6c0.8,1,1.7,2.1,2.6,3.1c-0.5-0.4-0.9-0.8-1-0.8
		c-1.8-1.2-6-2.5-7.9-1c-1.2,1-1.4,2.9-0.3,4.1c0.1,0.1,0.1,0.1,0.2,0.2c1.2,1.2,3.3,1.4,4.9,1.2s4.6-1.9,5.3-2.4
		c0.3,0.4,0.7,0.8,1,1.1c1.6,1.8,3.3,3.6,4.9,5.5c0.6,0.6,1.1,1.3,1.6,2c-0.4-0.4-0.8-0.6-0.8-0.7c-1.8-1.2-6-2.5-7.9-1
		c-1.2,1-1.4,2.8-0.4,4.1c0.1,0.1,0.1,0.2,0.2,0.2c1.2,1.2,3.3,1.4,4.9,1.2s4.3-1.8,5.2-2.3c0.5,0.7,1,1.4,1.5,2.1
		c0.3,0.5,0.6,0.9,0.9,1.4l0.9,1.4c0.5,0.9,1.1,1.9,1.5,2.8c0.3,0.6,0.6,1.3,1,1.9c-0.6-0.6-1.6-1.9-1.7-2c-1.6-1.5-5.6-3.4-7.7-2.1
		c-1.4,0.8-1.8,2.6-1,4c0.1,0.1,0.1,0.2,0.2,0.3c1,1.4,3.1,1.9,4.7,2c1.8,0,5.3-1.4,5.8-1.6c0.5,1,1,2,1.5,3
		c0.9,1.9,1.7,3.7,2.4,5.2l1.5-0.4c-0.7-1.6-1.6-3.4-2.6-5.4c-0.5-1-1.1-2.2-1.7-3.3c1-0.7,1.9-1.5,2.8-2.4c1.8,0.8,3.6,1.4,5.5,1.7
		c-0.1,1.1-0.3,2.3-0.4,3.3c-0.3,2-0.6,3.8-0.9,5.4l1.6-0.5c0.2-1.4,0.4-3,0.6-4.7c0.1-1.2,0.3-2.4,0.4-3.7c0.5,0,4.3-0.3,5.9-1.1
		c1.4-0.8,3-2.1,3.3-3.8c0.3-1.6-0.7-3.1-2.3-3.4c-0.1,0-0.2,0-0.3,0c-2.4-0.1-5.1,3.3-5.9,5.4c-0.1,0.1-0.4,1.5-0.6,2.3
		c0-0.5,0.1-1,0.1-1.6c0.1-1.1,0.1-2.1,0.2-3.3v-1.7c0-0.6,0-1.2,0-1.7c0-1.4-0.2-2.7-0.3-4.1c0.9,0.1,4.2,0.3,5.8-0.2
		s3.3-1.7,3.9-3.3c0.5-1.5-0.2-3.1-1.7-3.7c-0.1,0-0.2-0.1-0.3-0.1c-2.4-0.5-5.6,2.5-6.7,4.4c-0.1,0.1-0.7,1.6-1,2.4
		c-0.1-0.8-0.2-1.6-0.3-2.5c-0.4-2.4-0.8-4.8-1.2-7.3c-0.1-0.7-0.2-1.5-0.4-2.2c0.3,0,4.3,0.4,6-0.2c1.5-0.5,3.3-1.7,3.9-3.3
		c0.5-1.5-0.2-3.1-1.7-3.7c-0.1,0-0.2-0.1-0.3-0.1c-2.4-0.5-5.6,2.5-6.6,4.4c-0.1,0.1-1,2.2-1.2,2.8c-0.3-1.6-0.5-3.3-0.7-4.9
		c-0.3-2.2-0.4-4.4-0.4-6.6c0.2,0,4.3,0.4,6-0.2c1.5-0.5,3.3-1.7,3.9-3.3c0.5-1.5-0.2-3.1-1.7-3.7c-0.1,0-0.2-0.1-0.3-0.1
		c-2.4-0.5-5.6,2.5-6.6,4.4c-0.1,0.2-1,2.4-1.2,2.8c0-0.1,0-0.3,0-0.4c0.1-2.2,0.4-4.4,0.8-6.6c0.2-1.2,0.6-2.3,0.9-3.4
		c0.8,0.2,4.2,0.8,5.9,0.4s3.5-1.3,4.2-2.8c0.7-1.4,0.1-3.2-1.3-3.9c-0.1,0-0.2-0.1-0.3-0.1c-2.3-0.8-5.8,1.9-7.1,3.7
		c-0.1,0.1-0.7,1.1-1.1,1.9c0.1-0.5,0.3-1,0.4-1.5c0.6-1.8,1.2-3.3,1.8-4.7c0.3-0.8,0.6-1.5,0.9-2.1c0.8-0.2,4.1-1.2,5.4-2.3
		s2.5-2.7,2.4-4.5c0-1.6-1.4-2.8-3-2.8c-0.1,0-0.2,0-0.3,0c-2.4,0.4-4.3,4.4-4.6,6.5c0,0.2-0.1,3.1-0.1,3.1h0.1
		c-0.3,0.6-0.6,1.3-1,2c-0.6,1.4-1.3,2.9-1.9,4.7c-0.7,1.9-1.3,3.8-1.7,5.7c-0.5,2.2-0.9,4.4-1,6.6v0.1c-0.2-0.7-0.7-2.6-0.8-2.8
		c-0.8-2-3.6-5.4-6.1-5.2c-1.6,0.2-2.7,1.6-2.5,3.2c0,0.1,0,0.2,0.1,0.3c0.3,1.7,2,3,3.4,3.7c1.6,0.8,5.6,1,5.9,1
		c-0.1,2.3,0,4.5,0.2,6.8c0.1,1.3,0.3,2.6,0.5,4c-0.2-0.6-0.3-1.1-0.4-1.2c-0.8-2-3.6-5.4-6.1-5.2c-1.6,0.2-2.7,1.6-2.5,3.2
		c0,0.1,0,0.2,0.1,0.3c0.3,1.7,2,3,3.4,3.7s4.9,0.9,5.8,0.9c0.1,0.5,0.1,1,0.2,1.5c0.4,2.4,0.8,4.9,1.1,7.2c0.1,0.8,0.2,1.7,0.2,2.5
		c-0.1-0.5-0.3-1-0.3-1c-0.8-2-3.6-5.4-6.1-5.2c-1.6,0.2-2.7,1.6-2.5,3.2c0,0.1,0,0.2,0.1,0.3c0.3,1.7,2,3,3.4,3.7s4.5,0.9,5.6,0.9
		c0.1,0.9,0.1,1.7,0.1,2.6c0,0.6,0,1.1,0,1.7s-0.1,1.1-0.1,1.7c-0.1,1.1-0.2,2.2-0.3,3.2c-0.1,0.7-0.1,1.4-0.2,2.1
		c-0.1-0.8-0.3-2.5-0.4-2.6c-0.5-1.8-1.5-3.5-2.9-4.9c-0.1-0.2-0.1-0.4-0.2-0.6c-0.6-1.5-2.3-2.2-3.8-1.6c-0.1,0-0.2,0.1-0.3,0.1
		c-2.1,1.2-2.4,5.6-2,7.7c0,0.1,0.5,1.4,0.8,2.3c-0.2-0.5-0.5-0.9-0.8-1.4c-0.5-0.9-1.1-1.9-1.6-2.9l-0.9-1.4
		c-0.3-0.5-0.6-0.9-1-1.4c-0.8-1.1-1.6-2.2-2.5-3.2c0.8-0.4,3.7-2.1,4.7-3.4s1.9-3.2,1.4-4.9c-0.4-1.5-2-2.5-3.5-2.1
		c-0.1,0-0.2,0.1-0.3,0.1c-2.3,0.9-3.3,5.2-3.1,7.3c0,0.1,0.3,1.7,0.5,2.5c-0.5-0.6-1.1-1.3-1.6-1.9c-1.6-1.8-3.3-3.6-5-5.4
		l-1.5-1.6c0.3-0.2,3.8-2,4.9-3.5c1-1.3,1.9-3.2,1.4-4.9c-0.4-1.5-2-2.5-3.5-2.1c-0.1,0-0.2,0.1-0.3,0.1c-2.3,0.9-3.3,5.2-3.1,7.3
		c0,0.2,0.4,2.4,0.5,2.9c-1.1-1.2-2.2-2.4-3.3-3.7c-1.4-1.7-2.7-3.4-3.9-5.3c0.1-0.1,3.8-2,4.9-3.5c1-1.3,1.9-3.2,1.4-4.9
		c-0.4-1.5-2-2.5-3.5-2.1c-0.1,0-0.2,0.1-0.3,0.1c-2.3,0.9-3.3,5.2-3.1,7.3c0,0.2,0.4,2.6,0.6,3l-0.2-0.3c-1.1-1.9-2.1-3.9-2.9-5.9
		c-0.4-1.1-0.8-2.2-1.1-3.3c0.7-0.3,4-1.7,5.1-2.9s2.2-3,1.9-4.7c-0.2-1.6-1.7-2.7-3.2-2.5c-0.1,0-0.2,0-0.3,0.1
		c-2.4,0.6-3.8,4.8-3.9,7c0,0.1,0.1,1.3,0.1,2.2c-0.1-0.5-0.3-1-0.4-1.5c-0.5-1.8-0.8-3.4-1.1-4.9c-0.2-0.8-0.3-1.6-0.4-2.3
		c0.6-0.7,2.7-3.3,3.2-4.9s0.6-3.7-0.4-5c-0.9-1.3-2.7-1.6-4-0.7c-0.1,0.1-0.2,0.1-0.3,0.2c-1.8,1.7-1.2,6-0.3,8
		c0.1,0.2,1.6,2.7,1.6,2.7l0,0c0.1,0.7,0.2,1.4,0.3,2.2c0.2,1.5,0.6,3.2,1,4.9c0.5,1.9,1,3.8,1.7,5.7c0.8,2.1,1.7,4.1,2.8,6.1
		c0,0,0,0,0,0.1c-0.5-0.5-2-1.8-2.2-1.9c-1.8-1.2-6-2.5-7.9-1c-1.2,1-1.4,2.8-0.4,4.1c0.1,0.1,0.1,0.2,0.2,0.2
		C186.8,141.1,188.9,141.3,190.5,141.1z"/>
	<path class="st2" d="M227.7,118.9c0,0,0-3,0-3.1c-0.3-2.2-2.1-6.2-4.5-6.6c-1.6-0.2-3.1,0.8-3.3,2.4c0,0.1,0,0.2,0,0.3
		c-0.1,1.7,1.1,3.4,2.3,4.5C223.6,117.7,227.7,118.9,227.7,118.9z"/>
	<path class="st2" d="M58.5,413.6c1.8-0.6,4.8-3.4,4.8-3.4s-2.5-1.5-2.7-1.5c-2-0.8-6.2-1.3-7.8,0.5c-1,1.2-0.8,3,0.4,4
		c0.1,0.1,0.2,0.1,0.2,0.2C55,414.3,57,414.1,58.5,413.6z"/>
	<path class="st2" d="M67.7,421.7c1.5-1,3.6-4.3,3.7-4.6c1.9,1.2,3.8,2.3,5.9,3.2c1.2,0.5,2.4,1.1,3.6,1.6l-1.2-0.3
		c-2.1-0.3-6.4,0.4-7.4,2.6c-0.6,1.4,0,3.1,1.5,3.7c0.1,0,0.2,0.1,0.3,0.1c1.6,0.6,3.5-0.2,4.9-1.1s3.2-3.7,3.7-4.4l1.4,0.6
		c2.2,0.9,4.5,1.8,6.7,2.7c0.8,0.3,1.5,0.7,2.3,1l-1-0.2c-2.1-0.3-6.4,0.4-7.4,2.6c-0.6,1.4,0,3.1,1.5,3.7c0.1,0,0.2,0.1,0.3,0.1
		c1.6,0.6,3.5-0.2,4.9-1.1s3-3.4,3.6-4.3c0.8,0.4,1.5,0.8,2.2,1.2c0.5,0.3,1,0.5,1.4,0.8l1.4,0.9c0.9,0.6,1.8,1.2,2.6,1.8
		c0.6,0.4,1.1,0.8,1.7,1.2c-0.8-0.3-2.3-1-2.4-1c-2.1-0.6-6.4-0.5-7.7,1.4c-0.8,1.3-0.5,3.1,0.9,3.9c0.1,0.1,0.2,0.1,0.3,0.2
		c1.5,0.8,3.5,0.4,5-0.3c1.6-0.7,4.1-3.6,4.4-3.9c0.9,0.7,1.8,1.4,2.6,2c1.7,1.3,3.1,2.5,4.4,3.6l1.2-1c-1.3-1.1-2.9-2.3-4.7-3.7
		c-0.9-0.7-1.9-1.4-2.9-2.2c0.5-1.1,1-2.2,1.4-3.3c1.9,0,3.8-0.3,5.6-0.9c0.4,1.1,0.7,2.1,1.1,3.1c0.6,1.9,1.1,3.6,1.6,5.1l1.2-1.1
		c-0.4-1.3-0.9-2.8-1.5-4.4c-0.4-1.1-0.8-2.2-1.2-3.4c0.4-0.2,3.6-2.1,4.7-3.5s1.8-3.2,1.2-4.8c-0.4-1.5-2-2.4-3.5-2
		c-0.1,0-0.2,0.1-0.3,0.1c-2.2,0.9-3.1,5.1-2.9,7.3c0,0.1,0.3,1.5,0.5,2.3l-0.6-1.4c-0.4-1-0.8-1.9-1.2-3c-0.2-0.5-0.5-1-0.7-1.5
		s-0.5-1-0.8-1.5c-0.6-1.2-1.3-2.3-2-3.5c0.8-0.3,3.9-1.6,5-2.7s2.2-2.9,2-4.6c-0.2-1.6-1.6-2.7-3.1-2.5c-0.1,0-0.2,0-0.3,0.1
		c-2.3,0.6-3.8,4.6-3.9,6.8c0,0.1,0.1,1.7,0.1,2.5c-0.4-0.7-0.9-1.4-1.3-2.1c-1.4-2-2.8-3.9-4.2-5.9c-0.4-0.6-0.9-1.2-1.3-1.8
		c0.3-0.1,3.9-1.5,5.2-2.8s2.2-2.9,2-4.6c-0.2-1.6-1.6-2.7-3.1-2.5c-0.1,0-0.2,0-0.3,0.1c-2.3,0.6-3.8,4.6-4,6.8
		c0,0.2,0.1,2.4,0.2,2.9c-1-1.3-1.9-2.6-2.7-4c-1.2-1.8-2.2-3.7-3.2-5.6c0.1-0.1,3.9-1.5,5.2-2.8c1.1-1.1,2.2-2.9,2-4.6
		c-0.1-1.6-1.5-2.7-3.1-2.6c-0.2,0-0.4,0.1-0.6,0.1c-2.3,0.6-3.8,4.6-3.9,6.8c0,0.2,0.1,2.5,0.2,3c0-0.1-0.1-0.2-0.2-0.3
		c-0.9-2-1.6-4-2.1-6.1c-0.3-1.2-0.5-2.3-0.7-3.4c0.7-0.2,4.1-1.1,5.4-2.2s2.5-2.6,2.4-4.3c0-1.6-1.3-2.8-2.9-2.8
		c-0.1,0-0.2,0-0.3,0c-2.4,0.3-4.3,4.2-4.7,6.3c0,0.1-0.1,1.3-0.1,2.2c-0.1-0.5-0.2-1-0.2-1.5c-0.3-1.8-0.4-3.5-0.5-4.9
		c0-0.8-0.1-1.6-0.1-2.3c0.6-0.6,3.1-2.9,3.7-4.4s1-3.5,0.2-5c-0.7-1.4-2.4-1.9-3.8-1.2c-0.1,0-0.2,0.1-0.3,0.2
		c-1.9,1.4-1.9,5.7-1.2,7.7c0.1,0.2,1.2,2.8,1.3,2.8l0,0c0,0.7,0,1.4,0,2.2c0.1,1.5,0.2,3.1,0.4,4.9c0.2,1.9,0.6,3.9,1,5.8
		c0.5,2.1,1.2,4.2,2,6.2c0,0,0,0,0,0.1c-0.5-0.5-1.8-2-1.9-2.1c-1.6-1.4-5.6-3.1-7.6-1.9c-1.3,0.8-1.7,2.6-0.8,3.9
		c0.1,0.1,0.1,0.2,0.2,0.2c1,1.4,3,1.8,4.6,1.8c1.8,0,5.3-1.6,5.6-1.7c0.9,2,2,4,3.1,5.9c0.7,1.1,1.4,2.2,2.1,3.3
		c-0.4-0.4-0.8-0.8-0.8-0.9c-1.6-1.4-5.6-3.1-7.6-1.9c-1.3,0.8-1.7,2.6-0.9,3.9c0.1,0.1,0.1,0.2,0.2,0.3c1,1.4,3,1.8,4.6,1.8
		s4.7-1.3,5.5-1.7l0.9,1.2c1.4,2,2.8,4,4.1,5.9c0.5,0.7,0.9,1.4,1.3,2.1c-0.4-0.4-0.7-0.7-0.7-0.8c-1.6-1.4-5.6-3.2-7.6-1.9
		c-1.3,0.8-1.7,2.6-0.9,3.9c0.1,0.1,0.1,0.2,0.2,0.3c1,1.4,3,1.8,4.6,1.8s4.4-1.2,5.3-1.6c0.4,0.7,0.8,1.5,1.2,2.2
		c0.2,0.5,0.5,1,0.7,1.5s0.4,1,0.7,1.5c0.4,1,0.8,2,1.1,2.9c0.3,0.7,0.5,1.3,0.7,2c-0.4-0.7-1.3-2-1.4-2.1c-1.3-1.4-2.9-2.4-4.7-3
		c-0.1-0.2-0.3-0.3-0.4-0.4c-1.2-1-3-0.8-4,0.4c0,0-0.1,0.1-0.1,0.1c-1.3,2,0.3,6,1.6,7.7c0.1,0.1,1.1,1.1,1.7,1.7l-1.3-0.9
		c-0.9-0.6-1.7-1.2-2.7-1.8l-1.4-0.9c-0.5-0.3-1-0.5-1.5-0.8c-1.2-0.6-2.4-1.2-3.6-1.8c0.5-0.8,2.3-3.5,2.7-5s0.2-3.6-0.9-4.9
		c-1-1.2-2.8-1.3-4-0.3c-0.1,0.1-0.2,0.1-0.2,0.2c-1.6,1.8-0.6,6,0.4,7.8c0.1,0.1,1,1.4,1.5,2c-0.8-0.3-1.5-0.7-2.3-1
		c-2.2-0.9-4.5-1.7-6.8-2.6l-2.1-0.8c0.2-0.3,2.4-3.4,2.8-5.2c0.3-1.6,0.2-3.6-0.9-4.9c-1-1.2-2.8-1.3-4-0.3
		c-0.1,0.1-0.1,0.1-0.2,0.2c-1.6,1.8-0.6,6,0.4,7.8c0.1,0.1,1.4,1.9,1.8,2.4c-1.5-0.6-3-1.2-4.5-1.8c-2-0.9-3.9-1.8-5.7-3
		c0.1-0.1,2.4-3.4,2.8-5.2c0.3-1.6,0.2-3.6-0.9-4.9c-1-1.2-2.8-1.4-4-0.3c-0.1,0.1-0.2,0.1-0.2,0.2c-1.6,1.8-0.6,6,0.4,7.8
		c0.1,0.1,1.5,2.1,1.8,2.4l-0.3-0.2c-1.8-1.2-3.5-2.5-5.1-4c-0.9-0.8-1.7-1.6-2.5-2.4c0.5-0.6,2.8-3.2,3.2-4.8s0.7-3.6-0.3-5
		c-0.9-1.3-2.6-1.6-3.9-0.8c-0.1,0.1-0.2,0.1-0.2,0.2c-1.8,1.6-1.3,5.9-0.4,7.8c0,0.1,0.6,1.1,1.1,1.9c-0.3-0.4-0.7-0.8-1-1.1
		c-1.2-1.4-2.2-2.7-3.1-3.8c-0.5-0.7-0.9-1.3-1.3-1.9c0.2-0.8,1-4.1,0.7-5.7s-1.1-3.5-2.6-4.2c-1.4-0.8-3.1-0.3-3.8,1.1
		c-0.1,0.1-0.1,0.2-0.2,0.3c-0.9,2.2,1.6,5.8,3.2,7.1c0.1,0.1,2.6,1.7,2.6,1.6v0c0.4,0.6,0.8,1.2,1.2,1.8c0.9,1.2,1.9,2.5,3,3.9
		c1.2,1.5,2.6,2.9,4,4.3c1.6,1.5,3.3,2.9,5.1,4.1h0.1c-0.7-0.2-2.6-0.7-2.7-0.7c-2.1-0.3-6.4,0.4-7.4,2.6c-0.6,1.4,0,3.1,1.5,3.7
		c0.1,0,0.2,0.1,0.3,0.1C64.4,423.4,66.4,422.6,67.7,421.7z"/>
	<path class="st2" d="M90.8,386.1c0.1,0-1.3-2.6-1.4-2.8c-1.2-1.8-4.5-4.5-6.8-3.9c-1.5,0.5-2.3,2-1.9,3.5c0,0.1,0.1,0.2,0.1,0.3
		c0.6,1.6,2.5,2.5,4,3C86.7,386.8,90.8,386.1,90.8,386.1z"/>
</g>
<g id="freepik--Factors--inject-7">
	<rect x="275.6" y="89.8" class="st3" width="102.4" height="93.4"/>
	<rect x="275.6" y="89.8" class="st4" width="68.1" height="93.4"/>
	<rect x="196.7" y="136.2" class="st3" width="102.4" height="93.4"/>
	<rect x="196.7" y="136.2" class="st4" width="68.1" height="93.4"/>
	<rect x="253.4" y="196.4" class="st3" width="102.4" height="93.4"/>
	<rect x="253.4" y="196.4" class="st4" width="68.1" height="93.4"/>
	<rect x="164.2" y="256.1" class="st3" width="102.4" height="93.4"/>
	<rect x="164.2" y="256.1" class="st4" width="68.1" height="93.4"/>
	<rect x="226.2" y="326.9" class="st3" width="102.4" height="93.4"/>
	<rect x="226.2" y="326.9" class="st4" width="68.1" height="93.4"/>
	<rect x="103.7" y="394.3" class="st3" width="102.4" height="93.4"/>
	<rect x="103.7" y="394.3" class="st4" width="68.1" height="93.4"/>
</g>
<g id="freepik--Clouds--inject-7">
	<path class="st5" d="M494.1,157.1c0.9-5,2.1-17.4-5.4-23.4c-9.5-7.7-16.3,6.2-24.6-4.6s-10.8-34.2-35.4-33.9s-26.5,14.2-26.5,18.8
		s-7.4,8-8.9,8s-10.2-4-13.2,4.9s-1,14.1-5.9,14.3s-11-6.5-17.6-3.1s-6.7,10.4-9.4,12.9s-7.4-1.8-13.6,0.6c-3.7,1.5-4.9,3.9-5.2,5.6
		L494.1,157.1z"/>
	<path class="st5" d="M203.7,64.5c0.5-3,1.3-10.5-3.3-14.2c-5.8-4.7-9.9,3.7-14.9-2.8S179,26.8,164.1,27s-16,8.6-16,11.4
		s-4.5,4.8-5.4,4.8s-6.1-2.4-8,3s-0.6,8.5-3.6,8.6s-6.6-3.9-10.7-1.9s-4,6.3-5.7,7.8s-4.5-1.1-8.2,0.4c-1.6,0.5-2.8,1.7-3.1,3.3
		L203.7,64.5z"/>
	<path class="st5" d="M124.5,104.5c0.3-1.8,0.8-6.3-2-8.5c-3.5-2.8-5.9,2.2-8.9-1.7s-3.9-12.4-12.8-12.3s-9.6,5.1-9.6,6.8
		s-2.7,2.9-3.2,2.9s-3.7-1.4-4.8,1.8s-0.4,5.1-2.1,5.2s-4-2.3-6.4-1.1s-2.4,3.8-3.4,4.7s-2.7-0.7-4.9,0.2c-0.9,0.3-1.7,1-1.9,2
		L124.5,104.5z"/>
	<path class="st5" d="M439.5,278.5c0.3-1.8,0.8-6.3-2-8.5c-3.5-2.8-5.9,2.2-8.9-1.7s-3.9-12.4-12.9-12.3s-9.6,5.1-9.6,6.8
		s-2.7,2.9-3.2,2.9s-3.7-1.5-4.8,1.8s-0.4,5.1-2.1,5.2s-4-2.4-6.4-1.1s-2.4,3.8-3.4,4.7s-2.7-0.7-4.9,0.2c-0.9,0.3-1.7,1-1.9,2
		L439.5,278.5z"/>
	<path class="st5" d="M423.6,110.6c0.3-1.6,0.7-5.5-1.7-7.4c-3-2.4-5.2,2-7.8-1.5s-3.4-10.8-11.2-10.7s-8.4,4.5-8.4,6
		s-2.3,2.5-2.8,2.5s-3.2-1.3-4.2,1.6s-0.3,4.5-1.9,4.5s-3.5-2.1-5.6-1s-2.1,3.3-3,4.1s-2.3-0.6-4.3,0.2c-0.8,0.2-1.4,0.9-1.6,1.8
		L423.6,110.6z"/>
</g>
<g>
	<g>
		<path class="st0" d="M158.9,433c-0.3,9.4-2.9,17.6-8.7,24.7c-3.1,3.8-7.1,6.5-11.6,8.3c-0.7,0.3-1.7,0.1-2.4-0.3
			c-8.9-4-14.4-11-17.5-20c-1.7-4.9-2.4-10-2-15.3c0-0.7,0.3-1,0.9-1.3c6.4-2.5,12.8-5,19.2-7.5c0.5-0.2,1.3-0.2,1.8,0
			c6.4,2.5,12.8,5,19.2,7.5c0.4,0.2,0.8,0.8,0.9,1.2C158.9,431.4,158.8,432.4,158.9,433z"/>
	</g>
	<path class="st6" d="M145.9,435.2c1.3,1.3,2.3,2.2,3.2,3.2c-4.7,4.8-9.4,9.5-14,14.1c-2.9-2.9-5.7-5.8-8.8-8.9
		c0.6-0.6,1.5-1.4,2.5-2.1c0.2-0.2,0.9,0,1.2,0.2c1.6,1.6,3.2,3.2,4.9,5C138.6,442.8,142.2,439,145.9,435.2z"/>
</g>
<g>
	<path class="st0" d="M272.6,393.4c-0.4,0-0.7,0-1.1,0c-7.8,0-15.6,0-23.3,0c-2.1,0-2.8-0.7-2.6-2.8c0.5-5.5,4.7-9.3,10.2-9.3
		c3.2,0,6.3-0.1,9.5,0c1.2,0,2.3,0.3,3.8,0.6c-1.7,1.9-1.4,4-1.3,6c0.1,1.7,1.5,3,3.2,3.2C272.7,391.3,272.7,391.3,272.6,393.4z"/>
	<path class="st0" d="M260.3,363.8c4.1,0,7.4,3.3,7.3,7.5c0,3.9-3.5,7.4-7.4,7.3c-4.1-0.1-7.3-3.4-7.3-7.4
		C252.9,367.1,256.2,363.8,260.3,363.8z"/>
	<path class="st0" d="M253.2,378.5c-0.4,0-0.7,0.1-1.1,0.1c-4.7,0-9.4,0-14.1,0c-2.2,0-2.7-0.7-2.4-2.8c0.7-4.2,4-7.1,8.3-7
		c1.9,0,3.8,0.2,5.6,0.4c0.5,0,0.9,0.3,0.8,1c-0.2,3.1,0.7,5.8,2.8,8C253.1,378.2,253.1,378.3,253.2,378.5z"/>
	<path class="st0" d="M275.2,388.5c-1.3,0-2.4,0-3.5,0c-1.1,0-1.4-0.4-1.4-1.4c0-0.7,0-1.4,0-2.2c0-0.8,0.4-1.2,1.2-1.2
		c1,0,1.9,0,2.9,0c0.6,0,0.8-0.2,0.8-0.8c0-0.8,0-1.7,0-2.5c0-0.1,0-0.3,0-0.4c0.1-1.2,0.6-1.4,3.2-1.3c1.3,0,1.6,0.4,1.7,1.5
		c0,0.8,0,1.7,0,2.5c-0.1,0.8,0.2,1.1,1,1.1c0.9-0.1,1.7,0,2.6,0c0.9,0,1.3,0.4,1.4,1.3c0,0.7,0,1.4,0,2.2c0,0.9-0.5,1.4-1.5,1.4
		c-0.9,0-1.8,0-2.7,0c-0.6,0-0.9,0.2-0.8,0.8c0,0.9,0,1.8,0,2.7c0,1.1-0.4,1.4-1.4,1.4c-0.7,0-1.3,0-2,0c-1,0-1.4-0.5-1.4-1.4
		C275.2,390.9,275.2,389.8,275.2,388.5z"/>
	<path class="st0" d="M252.7,360c0,3.3-2.8,6.1-6.1,6.1c-3.3,0-6.1-2.8-6.2-6.1c0-3.3,2.8-6.1,6.1-6.2
		C249.9,353.8,252.7,356.6,252.7,360z"/>
	<path class="st0" d="M267.2,378.5c0.5-0.7,0.9-1.1,1.2-1.6c1.4-2.1,2-4.3,1.8-6.8c0-0.3,0.3-0.8,0.5-0.9c0.5-0.2,1-0.4,1.6-0.4
		c2.2,0,4.4-0.2,6.5,0.2c3.6,0.6,6.1,3.9,6.2,7.6c0,1.3-0.6,2-2,1.9c-0.2,0-0.6-0.1-0.7-0.3c-1.4-2.5-3.7-2.3-6-2.2
		c-1.4,0.1-2.6,0.7-3.3,2c-0.1,0.2-0.3,0.5-0.5,0.5C270.9,378.6,269.1,378.5,267.2,378.5z"/>
	<path class="st0" d="M269.1,360c0-3.4,2.7-6.1,6-6.2c3.4,0,6.1,2.8,6.1,6.2c0,3.3-2.8,6.1-6.1,6.1
		C271.8,366.1,269.1,363.4,269.1,360z"/>
</g>
<path class="st0" d="M213.2,295.6c0.3,0.7,0,1.5-0.5,2l-2.5,2.3c-0.6,0.6-0.9,1.4-0.9,2.2c0,0.2,0,0.5,0,0.7c0,0.2,0,0.5,0,0.7
	c0,0.8,0.2,1.7,0.9,2.2l2.5,2.3c0.6,0.5,0.8,1.3,0.5,2c-0.4,1-0.8,1.9-1.3,2.8l-0.4,0.7c-0.5,0.9-1.1,1.7-1.8,2.5
	c-0.5,0.6-1.3,0.8-2,0.5l-3.2-1c-0.8-0.3-1.7-0.1-2.4,0.4c-0.4,0.2-0.8,0.5-1.2,0.7c-0.7,0.4-1.3,1.1-1.5,1.9l-0.7,3.3
	c-0.2,0.7-0.7,1.3-1.5,1.4c-1.1,0.2-2.2,0.3-3.4,0.3s-2.3-0.1-3.4-0.3c-0.7-0.1-1.3-0.7-1.5-1.4l-0.7-3.3c-0.2-0.8-0.8-1.5-1.5-1.9
	c-0.4-0.2-0.8-0.4-1.2-0.7c-0.7-0.5-1.6-0.6-2.4-0.4l-3.2,1c-0.7,0.2-1.5,0-2-0.5c-0.7-0.8-1.2-1.6-1.8-2.5l-0.4-0.7
	c-0.5-0.9-0.9-1.8-1.3-2.8c-0.3-0.7,0-1.5,0.5-2l2.5-2.3c0.6-0.6,0.9-1.4,0.9-2.2c0-0.2,0-0.5,0-0.7s0-0.5,0-0.7
	c0-0.8-0.2-1.7-0.9-2.2l-2.5-2.3c-0.6-0.5-0.8-1.3-0.5-2c0.4-1,0.8-1.9,1.3-2.8l0.4-0.7c0.5-0.9,1.1-1.7,1.8-2.5
	c0.5-0.6,1.3-0.8,2-0.5l3.2,1c0.8,0.3,1.7,0.1,2.4-0.4c0.4-0.2,0.8-0.5,1.2-0.7c0.7-0.4,1.3-1.1,1.5-1.9l0.7-3.3
	c0.2-0.7,0.7-1.3,1.5-1.4c1.1-0.2,2.2-0.3,3.4-0.3c1.2,0,2.3,0.1,3.4,0.3c0.7,0.1,1.3,0.7,1.5,1.4l0.7,3.3c0.2,0.8,0.8,1.5,1.5,1.9
	c0.4,0.2,0.8,0.4,1.2,0.7c0.7,0.5,1.6,0.6,2.4,0.4l3.2-1c0.7-0.2,1.5,0,2,0.5c0.7,0.8,1.2,1.6,1.8,2.5l0.4,0.7
	C212.5,293.7,212.9,294.6,213.2,295.6L213.2,295.6z M194,309.2c3.5,0,6.4-2.9,6.4-6.4c0-3.5-2.9-6.4-6.4-6.4s-6.4,2.9-6.4,6.4
	C187.6,306.3,190.4,309.2,194,309.2z"/>
<g id="freepik--Character--inject-7">
	<path class="st4" d="M178.2,183.9c0,0,3.3,3.8,2.8,5.1c-0.3,1.3-0.5,2.6-0.5,3.9c0,0,4.2,2.3,4.2,3.4c-0.2,1.1-0.5,2.1-1,3.1
		c0,0,1,6.5,0.3,8.2s-7.7,2.8-7.7,2.8l-2.6,8l-15-4.6l2.4-8c0,0-3.8-9.5-4.4-12.6s4.1-9.1,10-10.6
		C170.7,181.8,174.7,182.3,178.2,183.9z"/>
	<path class="st3" d="M173.2,198.8c0,0,2.6,0.2,2.3-1.1s-1.3-2-0.8-2.6s3.6-2.6,2.6-3.9s-3.9-2.3-2.6-3.8s8.8-4.7,8.8-4.7
		s-7.7-3.6-8.8-3.6s4.6-1.8,2.6-3.3s-14.5-1.5-19.6,5.2s-4.4,10.6-2.4,16.2s5.7,12.1,7.7,12.6s8.5,0.8,8.8-1.5
		S173.2,198.8,173.2,198.8z"/>
	<path class="st4" d="M175.3,200.3c0,0-4.6-5.7-4.9-3.5s1.4,10,4.4,8.1"/>
	<path class="st4" d="M149.7,216.9c0,0,3.6,1.1,12.2,2.9s16,3.6,16,3.6s-2.3-6.9-4.7-8.2s-15.5-3.9-17.1-3.8
		S149.7,216.9,149.7,216.9z"/>
	<path class="st4" d="M205,262.5c0,0,14.9-13.4,15.7-14.2s-1-7.2-1-8.2s3.4-2.6,3.4-2.6s0.5-2.6,2.1-2.6s4.4,2.1,4.4,2.1l0.3,1.8
		c0,0,2.3,5.1,2.3,5.9c-0.2,1.7-1,3.3-2.3,4.6c-1.6,1.6-5.4,5.1-5.4,5.1s-13.1,17.6-16,20.1s-6.9,5.1-8.3,2.1S205,262.5,205,262.5z"
		/>
	<polyline class="st7" points="223.1,237.5 223.6,238.8 222.3,239.8 	"/>
	<path class="st4" d="M111.1,243.4c0,0-5.7,5.9-5.4,8.3s13.6,29.7,13.6,29.7s1,4.1,1.6,4.4s2.1,2.8,2.1,2.8s0,2.1,2.4-0.2
		s5.9-4.9,5.7-7c-0.2-1.4-0.8-2.7-1.8-3.8c0,0-0.8-2-1.6-2.1s-4.6-0.2-4.6-0.2l-4.2-22.2L111.1,243.4z"/>
	<path class="st4" d="M124.5,279.3l2.1,1.1c0,0-2.6,3.9-1.6,4.7s3.9-5.1,4.2-5.9s-0.5-1.6-0.5-1.6"/>
	<line class="st7" x1="125.8" y1="280.8" x2="121.6" y2="284.5"/>
	<path class="st4" d="M132.8,363.1l-10.6,9.2c0.4,1.1,1.1,2,2.1,2.6c1.4,0.7,7.5,6.6,9.4,7.8c3.4,2.2,7.3,3.4,11.3,3.5
		c5,0,5.9-1.9,5.9-2.6s-9.6-7.1-9.6-7.1l-2.1-8.5L132.8,363.1z"/>
	<path class="st4" d="M124.3,370.5l-2.1,1.8c0.4,1.1,1.1,2,2.1,2.6c1.4,0.7,7.5,6.6,9.4,7.8c3.4,2.2,7.3,3.4,11.3,3.5
		c2.9,0,4.4-0.6,5.2-1.3c-2.1-0.5-4.3-0.9-6.5-1.1c-3.2,0-6.8-2.9-6.8-2.9L124.3,370.5z"/>
	<path class="st3" d="M129.4,271.5c0,0-2.3,12-0.2,15.8c1.7,2.9,3.5,5.6,5.5,8.3l29.3,37.6l-31.8,30.7l7.3,7.5c0,0,40-33,42.4-34.4
		s0-13.1-0.7-14.1s-14.5-31.2-14.5-31.2l1.3-13.4L129.4,271.5z"/>
	<path class="st4" d="M150.7,379.4c0,0,7.1,7.9,8.3,8.8s9.2,5.5,9.2,5.5s-0.2,1.1-0.8,1.3s-16.7,0.3-17.8,0.2s-10.6-5.1-11.7-5.7
		c-1.6-0.9-3.2-1.9-4.7-2.9l7.1-11.5L150.7,379.4z"/>
	<path class="st3" d="M138.6,293l6.8,4.9l9.7,31.8l-16.5,46.7l14.4,4l0.9-5.2l2.9-5.5c0,0,17.6-38.5,17.8-41.7s-7.8-36.5-7.8-36.5
		l-1.5-14.1l-25.3-2.4"/>
	<path class="st4" d="M167.4,395c0.6-0.2,0.8-1.3,0.8-1.3l-1.4-0.8c-6.2-0.5-16.5-1.3-17.2-1.3s-10.8-5.9-14.5-8.1l-1.9,3.1
		c1.5,1.1,3.1,2,4.7,2.9c1.1,0.5,10.5,5.5,11.7,5.7S166.7,395.1,167.4,395z"/>
	<path class="st4" d="M151.8,216.4c0,0-16.2,1.6-16.3,2.3s-21.6,23.8-21.6,23.8l5.7,10.9l13.7-5.9l-3.9,23.8c0,0-2.6,1,2.1,3.4
		s15.7,5.5,23.2,5.5s11.8,0,13.4-2.3c1.1-1.4,1.6-3.1,1.6-4.9c0.2-1.3,7.8-21.2,7.8-21.2s17.1,22,17.8,22.5s3.8,1,6.4-2.1
		s2.1-10.3,2.1-10.3s-9.6-17.5-10.1-19.9s-2-10-2.9-11.9s-2.3-2.1-4.9-3.4s-9.8-3.8-9.8-3.8L151.8,216.4z"/>
	<polyline class="st7" points="137.1,223.6 133.3,247.6 135,224.9 	"/>
	<line class="st7" x1="132.9" y1="247" x2="128.6" y2="236.5"/>
	<line class="st7" x1="122.3" y1="241" x2="119.8" y2="239.4"/>
	<line class="st7" x1="133.3" y1="247.6" x2="124.4" y2="242.3"/>
	<line class="st7" x1="185.2" y1="240.1" x2="189.3" y2="233.7"/>
	<line class="st7" x1="177.6" y1="252" x2="183.9" y2="242.2"/>
	<line class="st7" x1="189.9" y1="244.2" x2="191.8" y2="243"/>
	<line class="st7" x1="178.6" y1="251.1" x2="187.7" y2="245.5"/>
	<line class="st7" x1="177.8" y1="250.9" x2="193.8" y2="248.1"/>
	<line class="st7" x1="131.5" y1="272.1" x2="147.6" y2="268.2"/>
	<path class="st7" d="M158.5,262.7c1-0.4,2-0.9,3-1.4"/>
	<path class="st7" d="M138.2,268.2c6-1.1,11.9-2.7,17.8-4.5"/>
	<path class="st4" d="M203.7,261c-0.3,2.7-1.5,5.1-3.4,7c-1.9,2-4.3,3.4-7,3.9c0,0,1.5,5.6,3.3,5.6s4.9,1,7.7-2.8s3.4-10.1,2.6-11.8
		S205.5,260.5,203.7,261z"/>
	<path class="st4" d="M116.4,238.8c0,0,7.8,14.7,7.2,15s-3.4,2.8-4.4,2.9s-5.4-4.2-7-8s-2.1-5.2-1.6-5.9S115.4,238.8,116.4,238.8z"
		/>
</g>
<g>
	<path class="st0" d="M280,223.6c-1.3,0-1.7,0.4-1.7,1.7c0,14.7,0,29.3,0,44c0,0.5,0.1,1,0.1,1.4c4.5,0,8.9,0,13.2,0
		c0-15.7,0-31.3,0-47.1C287.6,223.6,283.8,223.7,280,223.6z"/>
	<path class="st0" d="M307.3,230.3c-3.4,0-6.8,0.1-10.3,0c-1.4,0-1.8,0.4-1.8,1.8c0.1,11.9,0,23.8,0,35.7c0,2.9,0,2.9,2.9,2.9
		c3.4,0,6.8,0,10.3,0c0.1-0.4,0.1-0.8,0.1-1.1c0-12.7,0-25.4,0-38.1C308.6,230.6,308.3,230.3,307.3,230.3z"/>
	<path class="st0" d="M261.6,256h5v14.7c2.7,0,5.4,0,8.1,0c0-9,0-17.9,0-26.8c-4.4,0-8.8,0-13.1,0C261.6,248,261.6,252,261.6,256z"
		/>
	<path class="st3" d="M261.6,256c0,4.9,0,9.8,0,14.7c1.7,0,3.3,0,5,0V256H261.6z"/>
</g>
<g>
	<path class="st0" d="M246.7,182.4c1.5-2.2,2.4-4.8,2.4-7.7c0-7.5-6.1-13.6-13.6-13.6s-13.6,6.1-13.6,13.6c0,2.9,0.9,5.5,2.4,7.7
		c0.4,0.6,0.9,1.2,1.4,1.9l0,0c1.4,1.9,3,4.1,4.2,6.3c1.1,2,1.7,4.1,1.9,6.1h-5.2c-0.2-1.3-0.6-2.5-1.3-3.7c-1-1.9-2.4-3.7-3.7-5.5
		l0,0l0,0c-0.6-0.8-1.1-1.5-1.6-2.3c-2.1-3-3.3-6.7-3.3-10.6c0-10.3,8.4-18.7,18.7-18.7s18.7,8.4,18.7,18.7c0,4-1.2,7.6-3.3,10.6
		c-0.5,0.8-1.1,1.5-1.6,2.3l0,0l0,0c-1.3,1.8-2.6,3.6-3.7,5.5c-0.6,1.1-1,2.4-1.3,3.7h-5.1c0.3-2,0.8-4.1,1.9-6.1
		c1.2-2.2,2.9-4.5,4.2-6.3l0,0l0,0l0,0C245.8,183.6,246.3,183,246.7,182.4L246.7,182.4z"/>
	<path class="st0" d="M235.5,210.3c-4.7,0-8.5-3.8-8.5-8.5v-1.7h17v1.7C244,206.5,240.2,210.3,235.5,210.3z"/>
	<path class="st0" d="M233.8,173.3c-2.6,1.4-3.8,4.3-3.3,7c0.8-1.2,1.9-2.1,3.2-2.9l2.9-1.6c0.3-0.2,0.7,0,0.8,0.2
		c0.2,0.3,0,0.7-0.2,0.8l-0.5,0.3l-2.4,1.3l0,0c-0.5,0.3-1,0.6-1.5,1c-0.7,0.7-1.3,1.4-1.8,2.3l0,0c-1.2,2.3-1.3,5.2,0.1,7.6
		l0.3,0.5c0.2,0.4,0.8,0.6,1.2,0.4c0.4-0.2,0.6-0.8,0.4-1.2l-0.3-0.5c-0.9-1.6-1-3.4-0.4-5c2,2.1,5.2,2.7,7.9,1.3l0,0
		c4.3-2.4,5.5-8.6,2.6-13.8c-0.8-1.4-1.7-2.6-2.8-3.5c-0.2-0.2-0.5,0-0.5,0.3c0,1.5-0.8,2.9-2.2,3.7L233.8,173.3z"/>
</g>
<path class="st0" d="M314.9,114.8c-1.5-0.4-3,0.4-3.4,1.9l-11.1,38.7c-0.4,1.5,0.4,3,1.9,3.4c1.5,0.4,3-0.4,3.4-1.9l11.1-38.7
	C317.3,116.7,316.4,115.2,314.9,114.8L314.9,114.8z M321.9,125.2c-1.1,1.1-1.1,2.8,0,3.9l7.7,7.7l-7.7,7.7c-1.1,1.1-1.1,2.8,0,3.9
	s2.8,1.1,3.9,0l9.7-9.7c1.1-1.1,1.1-2.8,0-3.9l-9.7-9.7C324.7,124.1,323,124.1,321.9,125.2L321.9,125.2z M295.4,125.2
	c-1.1-1.1-2.8-1.1-3.9,0l-9.7,9.7c-1.1,1.1-1.1,2.8,0,3.9l9.7,9.7c1.1,1.1,2.8,1.1,3.9,0s1.1-2.8,0-3.9l-7.7-7.7l7.7-7.7
	C296.5,128,296.5,126.2,295.4,125.2L295.4,125.2z"/>
<path class="st3" d="M276.6,136.2c0,8.8,0,17.5,0,26.3c7.6,0,15,0,22.5,0v-26.3H276.6z"/>
</svg>
