<?xml version="1.0" encoding="utf-8"?>
<!-- Generator: Adobe Illustrator 27.2.0, SVG Export Plug-In . SVG Version: 6.00 Build 0)  -->
<svg version="1.1" id="Layer_1" xmlns="http://www.w3.org/2000/svg" xmlns:xlink="http://www.w3.org/1999/xlink" x="0px" y="0px"
	 viewBox="0 0 500 500" style="enable-background:new 0 0 500 500;" xml:space="preserve">
<style type="text/css">
	.st0{fill:#98AF96;}
	.st1{opacity:0.7;fill:#FFFFFF;enable-background:new    ;}
	.st2{fill:none;stroke:#263238;stroke-linecap:round;stroke-linejoin:round;}
	.st3{fill:#263238;}
	.st4{fill:#F0F0F0;stroke:#263238;stroke-linecap:round;stroke-linejoin:round;}
	.st5{fill:#E3E3E3;stroke:#263238;stroke-linecap:round;stroke-linejoin:round;}
	.st6{fill:#FFFFFF;stroke:#263238;stroke-linecap:round;stroke-linejoin:round;}
	.st7{fill:#C7C7C7;stroke:#263238;stroke-linecap:round;stroke-linejoin:round;}
	.st8{fill:#263238;stroke:#263238;stroke-linecap:round;stroke-linejoin:round;}
	.st9{fill:#98AF96;stroke:#263238;stroke-linecap:round;stroke-linejoin:round;}
	.st10{fill:#FFFFFF;stroke:#000000;stroke-miterlimit:10;}
</style>
<g id="freepik--background-simple--inject-4">
	<path class="st0" d="M412.9,103.7c-16.3-16.1-35.2-29.3-55.8-39.2c-30.8-14.4-64.7-21.3-98.6-21.8
		C159.4,41.5,151.9,158,121.4,174.1S35.7,192.2,33.8,257c-1.2,40.7,8.3,82.6,35.1,114.3c24.5,29.1,60.5,43.8,95.9,54.7
		c39.8,12.2,82,24.2,123.9,16c43-8.5,73.1-42.5,108.4-65.5c22.2-14.5,42.1-29.7,55.9-52.9c1.6-2.8,3.2-5.6,4.6-8.5
		c18.4-36.1,22-77.7,11.8-116.8C460.3,163.3,439.8,129.9,412.9,103.7z"/>
	<path class="st1" d="M412.9,103.7c-16.3-16.1-35.2-29.3-55.8-39.2c-30.8-14.4-64.7-21.3-98.6-21.8
		C159.4,41.5,151.9,158,121.4,174.1S35.7,192.2,33.8,257c-1.2,40.7,8.3,82.6,35.1,114.3c24.5,29.1,60.5,43.8,95.9,54.7
		c39.8,12.2,82,24.2,123.9,16c43-8.5,73.1-42.5,108.4-65.5c22.2-14.5,42.1-29.7,55.9-52.9c1.6-2.8,3.2-5.6,4.6-8.5
		c18.4-36.1,22-77.7,11.8-116.8C460.3,163.3,439.8,129.9,412.9,103.7z"/>
</g>
<g id="freepik--Floor--inject-4">
	<line class="st2" x1="15.4" y1="463.2" x2="478.8" y2="463.2"/>
</g>
<g id="freepik--Plants--inject-4">
	<path class="st3" d="M411.6,392.6c2.2,1,7.7,0.9,7.7,0.9s-1.2-3.6-1.3-3.8c-1.2-2.5-5-6.6-8-6.2c-2,0.3-3.4,2.1-3.1,4.1
		c0,0.1,0,0.3,0.1,0.4C407.5,390.1,409.7,391.7,411.6,392.6z"/>
	<path class="st3" d="M413.5,408.3c2.3,0.3,7.2-1.1,7.6-1.2c0.8,2.8,1.8,5.5,3,8.2c0.7,1.5,1.4,3.1,2.1,4.6
		c-0.4-0.6-0.9-1.2-0.9-1.3c-1.8-2.1-6.5-5.1-9.4-3.9c-1.8,0.8-2.7,3-1.8,4.9c0.1,0.1,0.1,0.2,0.2,0.3c1,1.9,3.6,2.9,5.6,3.2
		s6.2-0.8,7.3-1.1l0.9,1.8c1.4,2.8,2.8,5.6,4.1,8.4c0.5,1,0.9,2,1.3,2.9c-0.4-0.6-0.7-1.1-0.8-1.1c-1.8-2.1-6.5-5.1-9.4-3.9
		c-1.8,0.8-2.7,3-1.8,4.9c0.1,0.1,0.1,0.2,0.2,0.3c1,1.9,3.6,2.9,5.6,3.2s5.8-0.7,7.1-1.1c0.4,1,0.8,2,1.1,3c0.2,0.7,0.5,1.3,0.7,2
		s0.4,1.4,0.6,2.1c0.3,1.3,0.6,2.7,0.9,4c0.2,0.9,0.4,1.8,0.5,2.6c-0.5-1-1.4-2.9-1.5-3c-1.5-2.4-5.7-6-8.7-5.2
		c-1.9,0.6-3.1,2.6-2.5,4.5c0,0.1,0.1,0.3,0.1,0.4c0.8,2.1,3.1,3.4,5.1,4c2.2,0.7,7,0,7.6,0c0.3,1.4,0.5,2.9,0.8,4.2
		c0.5,2.7,0.9,5.1,1.1,7.2h2c-0.4-2.2-0.8-4.7-1.4-7.6c-0.3-1.5-0.6-3-1-4.6c1.4-0.6,2.9-1.3,4.2-2c1.6,1.7,5.7,3.7,6.2,4
		c-0.5,1.4-1.1,2.7-1.6,3.9c-1,2.4-2,4.5-2.9,6.3h2.2c0.8-1.7,1.5-3.5,2.4-5.6c0.6-1.4,1.1-2.9,1.7-4.4c0.6,0.1,5.4,1.1,7.6,0.6
		c2-0.5,4.5-1.6,5.4-3.6c0.9-1.8,0.2-4-1.6-4.9c-0.1-0.1-0.2-0.1-0.4-0.2c-2.9-1-7.4,2.4-9.1,4.6c-0.1,0.1-1,1.7-1.5,2.7
		c0.2-0.6,0.5-1.2,0.7-1.9c0.5-1.3,0.9-2.6,1.4-4c0.2-0.7,0.4-1.4,0.6-2s0.4-1.4,0.6-2.1c0.4-1.7,0.7-3.4,1-5.1
		c1.1,0.4,5.1,1.8,7.2,1.7s4.6-0.9,5.9-2.7c1.2-1.7,0.8-3.9-0.9-5.1c-0.1-0.1-0.2-0.1-0.3-0.2c-2.8-1.4-7.7,1.2-9.7,3.1
		c-0.1,0.1-1.4,1.7-2,2.5c0.2-1,0.3-2.1,0.5-3.2c0.4-3.1,0.7-6.2,1-9.3l0.3-2.9c0.4,0.1,5.1,1.9,7.4,1.7c2.1-0.1,4.7-0.9,5.9-2.7
		c1.2-1.7,0.8-3.9-0.9-5.1c-0.1-0.1-0.2-0.1-0.3-0.2c-2.8-1.4-7.7,1.2-9.7,3.1c-0.1,0.1-1.9,2.4-2.4,3c0.2-2.1,0.5-4.2,0.8-6.2
		c0.4-2.8,1-5.5,1.8-8.2c0.2,0.1,5.1,1.9,7.5,1.8c2.1-0.1,4.7-0.9,5.9-2.7c1.2-1.7,0.8-3.9-0.9-5.1c-0.1-0.1-0.2-0.2-0.4-0.2
		c-2.8-1.4-7.7,1.2-9.7,3.1c-0.1,0.2-2.1,2.6-2.4,3c0-0.2,0.1-0.3,0.1-0.5c0.9-2.7,1.9-5.3,3.2-7.8c0.7-1.4,1.5-2.7,2.2-3.9
		c0.9,0.4,4.9,2.4,7.1,2.5s4.7-0.4,6.1-2.1c1.3-1.5,1.2-3.8-0.3-5.2c-0.1-0.1-0.2-0.2-0.3-0.3c-2.6-1.7-7.8,0.4-10,2.1
		c-0.1,0.1-1.2,1.2-2,2c0.4-0.5,0.7-1.1,1-1.6c1.3-2,2.6-3.7,3.8-5.2c0.7-0.9,1.3-1.6,1.9-2.3c1.1,0,5.5-0.1,7.4-1s4-2.5,4.5-4.7
		c0.5-2-0.7-4-2.7-4.4c-0.1,0-0.2,0-0.3-0.1c-3.1-0.3-6.8,3.9-7.9,6.4c-0.1,0.2-1.2,3.8-1.2,3.8h0c-0.6,0.7-1.2,1.4-1.9,2.2
		c-1.2,1.5-2.6,3.2-3.9,5.1c-1.5,2.1-2.8,4.2-4,6.4c-1.4,2.5-2.5,5.1-3.5,7.8c0,0,0,0.1,0,0.1c0-0.9,0-3.5,0-3.6
		c-0.4-2.7-2.7-7.8-5.7-8.4c-2-0.3-3.9,1.1-4.2,3.1c0,0.1,0,0.3,0,0.4c-0.2,2.2,1.4,4.4,3,5.8c1.7,1.6,6.6,3.1,7,3.2
		c-0.9,2.8-1.5,5.6-2,8.4c-0.3,1.7-0.5,3.3-0.8,5c0-0.8,0-1.5,0-1.6c-0.4-2.8-2.7-7.9-5.7-8.4c-2-0.3-3.9,1.1-4.2,3.1
		c0,0.1,0,0.3,0,0.4c-0.2,2.2,1.4,4.4,3,5.8s5.7,2.8,6.8,3.1c-0.1,0.6-0.2,1.3-0.2,2c-0.4,3.1-0.7,6.2-1.2,9.3
		c-0.2,1.1-0.4,2.1-0.5,3.2c0-0.7,0-1.3,0-1.4c-0.4-2.7-2.7-7.8-5.7-8.4c-2-0.3-3.9,1.1-4.2,3.1c0,0.1,0,0.3,0,0.4
		c-0.2,2.2,1.4,4.4,2.9,5.7s5.3,2.6,6.6,3c-0.2,1.1-0.5,2.1-0.7,3.2c-0.2,0.7-0.4,1.4-0.6,2.1s-0.4,1.4-0.7,2
		c-0.5,1.3-0.9,2.6-1.4,3.8c-0.3,0.9-0.7,1.7-1,2.5c0.2-1.1,0.5-3.2,0.5-3.3c0-2.4-0.7-4.8-1.9-6.9c0-0.3,0-0.5,0-0.8
		c-0.3-2-2.1-3.4-4.1-3.2c-0.1,0-0.3,0-0.4,0.1c-3,0.8-4.9,6.1-5,8.8c0,0.2,0.1,2,0.2,3.1c-0.1-0.6-0.3-1.3-0.5-2
		c-0.3-1.3-0.7-2.6-1-4c-0.2-0.7-0.4-1.4-0.6-2.1s-0.5-1.4-0.7-2.1c-0.6-1.6-1.3-3.2-2-4.9c1.2-0.3,5.3-1.3,6.9-2.6s3.4-3.3,3.4-5.5
		c0.1-2-1.5-3.7-3.5-3.8c-0.2,0-0.3,0-0.5,0c-3.1,0.3-5.8,5.2-6.3,8c0,0.2-0.2,2.2-0.3,3.3c-0.4-1-0.9-1.9-1.4-2.9
		c-1.4-2.8-2.9-5.5-4.3-8.3c-0.5-0.9-0.9-1.7-1.3-2.5c0.4-0.1,5.3-1.2,7.2-2.6c1.6-1.3,3.4-3.3,3.4-5.5c0.1-2-1.6-3.7-3.6-3.8
		c-0.1,0-0.3,0-0.4,0c-3.1,0.3-5.8,5.2-6.3,8c0,0.2-0.3,3.1-0.3,3.8c-1-1.9-1.9-3.7-2.8-5.6c-1.2-2.5-2.2-5.2-3-7.8
		c0.2,0,5.3-1.2,7.2-2.7c1.6-1.3,3.4-3.3,3.4-5.5c0.1-2-1.6-3.7-3.6-3.8c-0.1,0-0.3,0-0.4,0c-3.1,0.3-5.8,5.2-6.3,8
		c0,0.2-0.3,3.3-0.3,3.9c0-0.2-0.1-0.3-0.2-0.5c-0.8-2.7-1.3-5.5-1.6-8.3c-0.2-1.5-0.2-3-0.3-4.5c1-0.1,5.4-0.7,7.3-1.8
		s3.7-2.9,4-5.1c0.3-2-1.1-3.9-3.1-4.1c-0.1,0-0.3,0-0.4,0c-3.1,0-6.3,4.6-7.2,7.2c0,0.1-0.4,1.7-0.6,2.8c0-0.6,0-1.3,0-2
		c0-2.4,0.2-4.5,0.3-6.4c0.1-1.1,0.2-2,0.3-3c0.9-0.6,4.5-3.2,5.6-5s2-4.3,1.1-6.4c-0.7-1.9-2.8-2.9-4.7-2.2c-0.1,0-0.2,0.1-0.3,0.1
		c-2.8,1.4-3.5,7-3,9.7c0,0.2,1.1,3.9,1.1,3.8h0.1c-0.1,0.9-0.2,1.8-0.4,2.8c-0.2,1.9-0.4,4.1-0.4,6.4c-0.1,2.5,0,5.1,0.2,7.6
		c0.2,2.8,0.7,5.6,1.4,8.4v0.1c-0.5-0.8-1.9-2.9-2.1-3c-1.8-2.1-6.5-5.1-9.4-3.9c-1.8,0.8-2.7,3-1.8,4.9c0.1,0.1,0.1,0.2,0.2,0.3
		C408.9,407.1,411.5,408,413.5,408.3z"/>
	<path class="st3" d="M466.7,393.8c0,0,1-3.6,1-3.9c0.4-2.7-0.5-8.3-3.3-9.6c-1.9-0.8-4,0-4.9,1.9c-0.1,0.1-0.1,0.2-0.1,0.4
		c-0.8,2.1,0.2,4.6,1.3,6.3C462.1,390.9,466.7,393.8,466.7,393.8z"/>
	<path class="st3" d="M371,298c1.6,0.7,5.5,0.6,5.5,0.6s-0.8-2.5-0.9-2.7c-0.9-1.8-3.6-4.7-5.8-4.4c-1.4,0.2-2.4,1.6-2.2,3
		c0,0.1,0,0.2,0.1,0.3C368.1,296.2,369.7,297.4,371,298z"/>
	<path class="st3" d="M372.4,309.2c1.6,0.2,5.1-0.8,5.4-0.8c0.6,2,1.3,3.9,2.1,5.8c0.5,1.1,1,2.2,1.5,3.3c-0.3-0.5-0.6-0.9-0.6-0.9
		c-1.3-1.5-4.7-3.6-6.7-2.8c-1.3,0.6-1.9,2.2-1.3,3.5c0,0.1,0.1,0.2,0.1,0.2c0.8,1.4,2.6,2,4,2.3s4.5-0.6,5.2-0.8
		c0.2,0.4,0.4,0.8,0.6,1.2c1,2,2,4,3,6c0.3,0.7,0.6,1.4,0.9,2.1l-0.6-0.8c-1.3-1.5-4.7-3.6-6.7-2.8c-1.3,0.6-1.9,2.2-1.3,3.5
		c0,0.1,0.1,0.2,0.1,0.2c0.8,1.4,2.6,2,4,2.3c1.7,0,3.5-0.2,5.1-0.8c0.3,0.7,0.6,1.5,0.8,2.2c0.2,0.5,0.3,1,0.5,1.5s0.3,1,0.4,1.5
		c0.2,0.9,0.5,1.9,0.7,2.9c0.1,0.6,0.3,1.3,0.4,1.9c-0.3-0.7-1-2-1-2.2c-1-1.7-4.1-4.3-6.2-3.8c-1.4,0.4-2.2,1.9-1.8,3.2
		c0,0.1,0.1,0.2,0.1,0.3c0.5,1.5,2.2,2.4,3.6,2.9s5,0,5.4,0c0.2,1,0.4,2,0.6,3c0.3,1.9,0.6,3.7,0.8,5.2h1.5c-0.2-1.6-0.6-3.4-1-5.4
		c-0.2-1-0.4-2.2-0.7-3.3c1-0.4,2-0.9,3-1.4c1.3,1.1,2.8,2.1,4.4,2.9c-0.4,1-0.8,1.9-1.2,2.8c-0.7,1.7-1.4,3.2-2,4.5h1.6
		c0.5-1.2,1.1-2.5,1.7-4c0.4-1,0.8-2,1.2-3.1c0.4,0.1,3.8,0.8,5.4,0.4s3.2-1.1,3.8-2.6c0.6-1.3,0.1-2.9-1.2-3.5
		c-0.1,0-0.2-0.1-0.3-0.1c-2.1-0.7-5.3,1.7-6.5,3.3c-0.1,0.1-0.7,1.2-1.1,1.9c0.2-0.5,0.3-0.9,0.5-1.3c0.3-0.9,0.6-1.8,1-2.8
		c0.1-0.5,0.3-1,0.4-1.5s0.3-1,0.4-1.5c0.3-1.2,0.5-2.4,0.7-3.7c0.8,0.3,3.7,1.3,5.1,1.2s3.3-0.6,4.2-2c0.8-1.2,0.5-2.8-0.6-3.7
		c-0.1-0.1-0.2-0.1-0.2-0.1c-2-1-5.5,0.9-6.9,2.3c-0.1,0.1-1,1.2-1.5,1.8c0.1-0.8,0.2-1.5,0.3-2.3c0.3-2.2,0.5-4.4,0.7-6.7l0.2-2
		c0.3,0.1,3.7,1.4,5.3,1.2c1.5-0.1,3.3-0.6,4.2-2c0.8-1.2,0.5-2.8-0.6-3.6c-0.1-0.1-0.2-0.1-0.2-0.2c-2-1-5.5,0.9-6.9,2.2
		c-0.1,0.1-1.4,1.7-1.7,2.1c0.2-1.5,0.3-3,0.6-4.5c0.3-2,0.7-3.9,1.3-5.9c0.1,0,3.6,1.4,5.4,1.3c1.5-0.1,3.3-0.6,4.2-2
		c0.8-1.2,0.5-2.8-0.6-3.6c-0.1-0.1-0.2-0.1-0.2-0.2c-2-1-5.5,0.9-6.9,2.2c-0.1,0.1-1.5,1.8-1.7,2.2c0-0.1,0-0.2,0.1-0.3
		c0.6-1.9,1.4-3.8,2.3-5.5c0.5-1,1-1.9,1.6-2.8c0.6,0.3,3.5,1.7,5.1,1.8s3.4-0.3,4.4-1.5c1-1.1,0.8-2.7-0.2-3.7
		c-0.1-0.1-0.1-0.1-0.2-0.2c-1.8-1.2-5.6,0.2-7.1,1.5c-0.1,0.1-0.9,0.8-1.4,1.4c0.3-0.4,0.5-0.8,0.8-1.2c0.9-1.4,1.9-2.6,2.7-3.7
		c0.5-0.6,0.9-1.1,1.4-1.6c0.8,0,3.9-0.1,5.3-0.8s2.9-1.8,3.2-3.3c0.3-1.4-0.5-2.8-1.9-3.2c-0.1,0-0.2,0-0.3-0.1
		c-2.2-0.2-4.8,2.8-5.6,4.6c-0.1,0.1-0.9,2.7-0.8,2.7l0,0l-1.3,1.6c-0.9,1.1-1.8,2.3-2.8,3.6c-1.1,1.5-2,3-2.9,4.6
		c-1,1.8-1.8,3.6-2.5,5.6c0,0,0,0,0,0.1c0-0.6,0-2.5,0-2.6c-0.3-2-1.9-5.6-4.1-6c-1.4-0.2-2.8,0.8-3,2.2c0,0.1,0,0.2,0,0.2
		c-0.1,1.6,1,3.1,2.1,4.1s4.7,2.2,5,2.3c-0.6,2-1.1,4-1.5,6c-0.2,1.2-0.4,2.4-0.5,3.6c0-0.6,0-1.1,0-1.1c-0.2-2-1.9-5.6-4.1-6
		c-1.4-0.2-2.8,0.8-3,2.2c0,0.1,0,0.2,0,0.3c-0.1,1.6,1,3.1,2.1,4.1s4,2,4.8,2.2c0,0.5-0.1,0.9-0.2,1.4c-0.3,2.2-0.5,4.5-0.8,6.6
		c-0.1,0.8-0.2,1.5-0.4,2.3c0-0.5,0-0.9,0-1c-0.3-2-1.9-5.6-4.1-6c-1.4-0.2-2.8,0.8-3,2.2c0,0.1,0,0.2,0,0.2c-0.1,1.6,1,3.1,2.1,4.1
		c1.4,1,3,1.7,4.7,2.2c-0.2,0.8-0.3,1.5-0.5,2.3c-0.1,0.5-0.2,1-0.4,1.5s-0.3,1-0.5,1.5c-0.3,0.9-0.7,1.9-1,2.8
		c-0.2,0.6-0.5,1.2-0.7,1.8c0.1-0.8,0.3-2.2,0.3-2.4c0-1.8-0.5-3.5-1.4-5c0-0.2,0-0.4,0-0.6c-0.2-1.4-1.5-2.5-2.9-2.3
		c-0.1,0-0.2,0-0.3,0.1c-2.1,0.6-3.5,4.3-3.6,6.3c0,0.1,0.1,1.4,0.1,2.2c-0.1-0.5-0.2-0.9-0.3-1.4c-0.2-1-0.5-1.9-0.7-2.9
		c-0.2-0.5-0.3-1-0.5-1.5c-0.1-0.5-0.3-1-0.5-1.5c-0.4-1.2-0.9-2.3-1.4-3.5c0.8-0.2,3.8-0.9,4.9-1.9s2.4-2.4,2.4-3.9
		c0-1.4-1.1-2.6-2.5-2.7c-0.1,0-0.2,0-0.3,0c-2.2,0.2-4.1,3.8-4.5,5.7c0,0.1-0.2,1.5-0.2,2.3c-0.3-0.7-0.6-1.4-1-2.1
		c-1-2-2-4-3.1-5.9c-0.3-0.6-0.6-1.2-1-1.8c0.3-0.1,3.8-0.9,5.1-1.9s2.4-2.4,2.4-3.9c0-1.5-1.1-2.7-2.6-2.7c-0.1,0-0.2,0-0.3,0
		c-2.2,0.2-4.1,3.8-4.5,5.7c0,0.1-0.2,2.2-0.2,2.7c-0.7-1.3-1.4-2.7-2-4c-0.8-1.8-1.6-3.7-2.2-5.6c0.1,0,3.8-0.9,5.1-1.9
		c1.2-0.9,2.4-2.4,2.4-3.9c0-1.5-1.1-2.7-2.6-2.7c-0.1,0-0.2,0-0.3,0c-2.2,0.2-4.1,3.8-4.5,5.7c0,0.1-0.2,2.4-0.2,2.8
		c0-0.1-0.1-0.2-0.1-0.3c-0.6-1.9-0.9-3.9-1.1-5.9c-0.1-1.1-0.2-2.2-0.2-3.2c0.7-0.1,3.9-0.5,5.2-1.3s2.7-2.1,2.8-3.6
		c0.2-1.4-0.8-2.8-2.2-3c-0.1,0-0.2,0-0.3,0c-2.2,0-4.5,3.3-5.1,5.2c0,0.1-0.3,1.2-0.4,2c0-0.5,0-1,0-1.4c0-1.7,0.1-3.2,0.2-4.6
		c0.1-0.8,0.1-1.5,0.2-2.1c0.6-0.4,3.2-2.2,4-3.5s1.4-3.1,0.8-4.5c-0.5-1.4-2-2.1-3.3-1.6c-0.1,0-0.2,0.1-0.3,0.1
		c-2,1-2.5,5-2.2,6.9c0,0.2,0.8,2.8,0.8,2.7l0,0c-0.1,0.6-0.2,1.3-0.2,2c-0.1,1.4-0.3,2.9-0.3,4.6c-0.1,1.8,0,3.6,0.1,5.4
		c0.2,2,0.5,4,1,6c0,0,0,0,0,0.1c-0.4-0.5-1.4-2-1.5-2.1c-1.3-1.5-4.7-3.6-6.7-2.8c-1.3,0.6-1.9,2.2-1.3,3.5c0,0.1,0.1,0.2,0.1,0.2
		C369.1,308.3,370.9,309,372.4,309.2z"/>
	<path class="st3" d="M410.4,298.8c0,0,0.7-2.6,0.7-2.8c0.3-2-0.4-5.9-2.4-6.9c-1.3-0.6-2.9,0-3.5,1.3c0,0.1-0.1,0.2-0.1,0.3
		c-0.5,1.5,0.1,3.3,1,4.5C407.1,296.7,410.4,298.8,410.4,298.8z"/>
	<path class="st3" d="M93.2,392.6c-2.2,1-7.7,0.9-7.7,0.9s1.2-3.6,1.3-3.8c1.2-2.5,5-6.6,8-6.2c2,0.3,3.4,2.2,3.1,4.2
		c0,0.1-0.1,0.3-0.1,0.4C97.2,390.1,95.1,391.7,93.2,392.6z"/>
	<path class="st3" d="M91.3,408.3c-2.3,0.3-7.2-1.1-7.6-1.2c-0.8,2.8-1.8,5.5-3,8.2c-0.7,1.5-1.4,3.1-2.1,4.6
		c0.4-0.6,0.8-1.2,0.9-1.3c1.8-2.1,6.5-5.1,9.4-3.9c1.9,0.8,2.7,3,1.9,4.9c-0.1,0.1-0.1,0.3-0.2,0.4c-1.1,1.9-3.6,2.9-5.6,3.2
		s-6.2-0.8-7.3-1.1c-0.3,0.6-0.6,1.2-0.9,1.8c-1.4,2.8-2.8,5.6-4.1,8.4c-0.5,1-0.9,2-1.3,2.9c0.4-0.6,0.7-1.1,0.8-1.1
		c1.8-2.1,6.5-5.1,9.4-3.9c1.8,0.8,2.7,3,1.8,4.9c-0.1,0.1-0.1,0.2-0.2,0.3c-1.1,1.9-3.6,2.9-5.6,3.2s-5.8-0.7-7.2-1.1
		c-0.4,1-0.8,2-1.2,3c-0.2,0.7-0.5,1.3-0.7,2l-0.5,2.1c-0.3,1.3-0.7,2.7-0.9,4c-0.2,0.9-0.4,1.8-0.6,2.6c0.4-1,1.4-2.9,1.5-3
		c1.5-2.4,5.7-6,8.7-5.2c2,0.6,3.1,2.6,2.5,4.5c0,0.1-0.1,0.3-0.1,0.4c-0.8,2.1-3.1,3.4-5.1,4c-2.2,0.7-7,0-7.6,0
		c-0.3,1.4-0.6,2.9-0.8,4.2c-0.5,2.7-0.8,5.1-1.1,7.2h-2c0.3-2.2,0.8-4.7,1.3-7.6c0.3-1.5,0.6-3,1-4.6c-1.4-0.6-2.9-1.3-4.2-2
		c-1.6,1.7-5.7,3.7-6.2,4c0.6,1.4,1.1,2.7,1.7,3.9c1,2.4,2,4.5,2.9,6.3h-2.2c-0.7-1.7-1.5-3.5-2.4-5.6c-0.6-1.4-1.2-2.9-1.7-4.4
		c-0.6,0.1-5.4,1.1-7.6,0.6c-2-0.5-4.5-1.6-5.4-3.6c-0.9-1.8-0.2-4,1.7-4.9c0.1-0.1,0.2-0.1,0.3-0.2c2.9-1,7.4,2.4,9.1,4.6
		c0.1,0.1,1,1.7,1.5,2.7c-0.2-0.6-0.5-1.2-0.7-1.9c-0.5-1.3-0.9-2.6-1.4-4c-0.2-0.7-0.4-1.4-0.6-2s-0.4-1.4-0.5-2.1
		c-0.4-1.7-0.7-3.4-1-5.1c-1.1,0.4-5.1,1.8-7.2,1.7s-4.7-0.9-5.8-2.7c-1.2-1.7-0.8-3.9,0.9-5.1c0.1-0.1,0.2-0.1,0.3-0.2
		c2.8-1.4,7.7,1.2,9.7,3.1c0.1,0.1,1.4,1.7,2,2.5c-0.2-1-0.3-2.1-0.5-3.2c-0.4-3.1-0.7-6.2-1-9.3c-0.1-1-0.2-1.9-0.3-2.9
		c-0.4,0.1-5.1,1.9-7.4,1.7c-2.1-0.1-4.7-0.9-5.8-2.7c-1.2-1.7-0.8-3.9,0.9-5.1c0.1-0.1,0.2-0.1,0.3-0.2c2.8-1.4,7.7,1.2,9.7,3.1
		c0.2,0.1,2,2.4,2.4,3c-0.2-2.1-0.5-4.2-0.8-6.2c-0.4-2.8-1-5.5-1.8-8.2c-0.2,0.1-5.1,1.9-7.5,1.8c-2.1-0.1-4.6-0.9-5.9-2.7
		c-1.2-1.7-0.8-3.9,0.9-5.1c0.1-0.1,0.2-0.1,0.3-0.2c2.8-1.4,7.7,1.2,9.7,3.1c0.2,0.2,2.1,2.6,2.4,3c0-0.2-0.1-0.3-0.1-0.5
		c-0.8-2.7-1.9-5.3-3.2-7.8c-0.7-1.4-1.5-2.7-2.2-3.9c-0.9,0.4-4.9,2.4-7.1,2.5s-4.7-0.4-6.1-2.1c-1.3-1.5-1.2-3.9,0.3-5.2
		c0.1-0.1,0.2-0.2,0.3-0.2c2.6-1.7,7.8,0.4,10,2.1c0.1,0.1,1.2,1.2,2,2c-0.3-0.5-0.7-1.1-1-1.6c-1.3-2-2.6-3.7-3.8-5.2
		c-0.7-0.9-1.3-1.6-1.9-2.3c-1.1,0-5.5-0.1-7.4-1s-4-2.5-4.5-4.7c-0.5-2,0.7-4,2.6-4.5c0.1,0,0.3-0.1,0.4-0.1
		c3.1-0.3,6.8,3.9,7.9,6.4c0.1,0.2,1.2,3.8,1.2,3.8h-0.1c0.6,0.7,1.2,1.4,1.9,2.2c1.2,1.5,2.5,3.2,3.9,5.1c1.5,2.1,2.8,4.2,4,6.4
		c1.4,2.5,2.5,5.1,3.5,7.8v0.1c0-0.9,0-3.5,0-3.6c0.3-2.7,2.7-7.8,5.7-8.4c2-0.3,3.9,1,4.2,3c0,0.1,0,0.3,0,0.4
		c0.2,2.2-1.4,4.4-2.9,5.8c-1.7,1.6-6.6,3.1-7,3.2c0.9,2.8,1.5,5.6,2,8.4c0.3,1.7,0.5,3.3,0.8,5c0-0.8,0-1.5,0-1.6
		c0.4-2.8,2.7-7.9,5.7-8.4c2-0.5,3.9,0.8,4.4,2.7c0.1,0.3,0.1,0.5,0.1,0.8c0.2,2.2-1.4,4.4-2.9,5.8s-5.7,2.8-6.8,3.1
		c0.1,0.6,0.2,1.3,0.2,2c0.4,3.1,0.7,6.2,1.2,9.3c0.2,1.1,0.3,2.1,0.5,3.2c0-0.7,0-1.3,0-1.4c0.4-2.7,2.7-7.8,5.7-8.4
		c2-0.3,3.9,1.1,4.2,3.1c0,0.1,0,0.2,0,0.3c0.2,2.2-1.4,4.4-3,5.7s-5.3,2.6-6.5,3c0.2,1.1,0.5,2.1,0.7,3.2c0.2,0.7,0.3,1.4,0.6,2.1
		s0.4,1.4,0.7,2c0.5,1.3,0.9,2.6,1.4,3.8c0.3,0.9,0.7,1.7,1,2.5c-0.2-1.1-0.5-3.2-0.5-3.3c0-2.4,0.7-4.8,1.9-6.9c0-0.3,0-0.5,0-0.8
		c0.3-2,2.1-3.4,4.1-3.2c0.1,0,0.3,0,0.4,0.1c3,0.8,4.9,6.1,5,8.8c0,0.2-0.1,2-0.2,3.1c0.2-0.6,0.3-1.3,0.5-2c0.3-1.3,0.7-2.6,1-4
		c0.2-0.7,0.4-1.4,0.6-2.1s0.5-1.4,0.7-2.1c0.6-1.6,1.3-3.2,2-4.9c-1.2-0.3-5.3-1.3-6.9-2.6s-3.4-3.3-3.4-5.5
		c-0.1-2,1.5-3.7,3.6-3.8c0.1,0,0.3,0,0.4,0c3.1,0.3,5.8,5.2,6.3,8c0,0.2,0.2,2.2,0.3,3.3c0.4-1,0.9-1.9,1.3-2.9
		c1.4-2.8,2.9-5.5,4.3-8.3c0.4-0.9,0.9-1.7,1.3-2.5c-0.4-0.1-5.3-1.2-7.2-2.6c-1.7-1.3-3.4-3.3-3.4-5.5c-0.1-2,1.5-3.7,3.5-3.8
		c0.2,0,0.3,0,0.5,0c3.1,0.3,5.8,5.2,6.3,8c0,0.2,0.3,3.1,0.3,3.8c1-1.9,1.9-3.7,2.8-5.6c1.2-2.5,2.2-5.2,3-7.8
		c-0.2,0-5.3-1.2-7.2-2.7c-1.7-1.3-3.4-3.3-3.4-5.5c-0.1-2,1.5-3.7,3.6-3.8c0.1,0,0.3,0,0.4,0c3.1,0.3,5.8,5.2,6.3,8
		c0,0.2,0.3,3.3,0.3,3.9c0-0.2,0.1-0.3,0.2-0.5c0.8-2.7,1.3-5.5,1.6-8.3c0.2-1.5,0.2-3,0.3-4.5c-1-0.1-5.4-0.7-7.3-1.8
		s-3.7-2.9-4-5.1c-0.3-2,1.1-3.9,3.1-4.1c0.1,0,0.3,0,0.4,0c3.1,0,6.3,4.6,7.2,7.2c0,0.1,0.4,1.7,0.6,2.8c0-0.6,0-1.3,0-2
		c0-2.4-0.2-4.5-0.3-6.4c-0.1-1.1-0.2-2-0.3-3c-0.9-0.6-4.5-3.2-5.6-5s-2-4.3-1.2-6.4c0.7-1.9,2.8-2.9,4.7-2.2
		c0.1,0.1,0.3,0.1,0.4,0.2c2.8,1.4,3.5,7,3,9.7c0,0.2-1.1,3.9-1.1,3.8l0,0c0.1,0.9,0.2,1.8,0.3,2.8c0.2,1.9,0.4,4.1,0.4,6.4
		c0.1,2.5,0,5.1-0.2,7.6c-0.2,2.8-0.7,5.6-1.4,8.4v0.1c0.5-0.8,1.9-2.9,2.1-3c1.8-2.1,6.6-5.1,9.4-3.9c1.8,0.9,2.6,3,1.8,4.9
		c-0.1,0.1-0.1,0.2-0.2,0.3C95.8,407.1,93.3,408,91.3,408.3z"/>
	<path class="st3" d="M38.1,393.8c0,0-1-3.6-1-3.9c-0.4-2.7,0.5-8.3,3.3-9.6c1.9-0.8,4,0,4.9,1.9c0.1,0.1,0.1,0.2,0.1,0.4
		c0.7,2.1-0.2,4.6-1.3,6.3C42.7,390.9,38.1,393.8,38.1,393.8z"/>
	<path class="st3" d="M133.8,298c-1.6,0.7-5.5,0.6-5.5,0.6s0.8-2.5,0.9-2.7c0.9-1.8,3.6-4.7,5.8-4.4c1.4,0.2,2.4,1.6,2.2,3
		c0,0.1,0,0.2-0.1,0.3C136.7,296.2,135.1,297.4,133.8,298z"/>
	<path class="st3" d="M132.4,309.2c-1.6,0.2-5.1-0.8-5.4-0.8c-0.6,2-1.3,3.9-2.1,5.8c-0.5,1.1-1,2.2-1.5,3.3
		c0.3-0.5,0.6-0.9,0.7-0.9c1.3-1.5,4.7-3.6,6.7-2.8c1.3,0.6,1.9,2.2,1.3,3.5c0,0.1-0.1,0.2-0.1,0.2c-0.8,1.4-2.6,2-4,2.3
		s-4.5-0.6-5.2-0.8c-0.2,0.4-0.4,0.8-0.6,1.2c-1,2-2,4-3,6c-0.3,0.7-0.6,1.4-0.9,2.1l0.6-0.8c1.3-1.5,4.7-3.6,6.7-2.8
		c1.3,0.6,1.9,2.2,1.3,3.5c0,0.1-0.1,0.2-0.1,0.2c-0.8,1.4-2.6,2-4,2.3c-1.7,0-3.4-0.2-5.1-0.8c-0.3,0.7-0.6,1.5-0.8,2.2
		c-0.2,0.5-0.3,1-0.5,1.5l-0.4,1.5c-0.2,0.9-0.5,1.9-0.7,2.9c-0.1,0.6-0.3,1.3-0.4,1.9c0.3-0.7,1-2,1.1-2.2c1-1.7,4.1-4.3,6.2-3.8
		c1.4,0.4,2.2,1.8,1.8,3.2c0,0.1-0.1,0.2-0.1,0.3c-0.5,1.5-2.2,2.4-3.6,2.9c-1.6,0.5-5,0-5.4,0c-0.2,1-0.4,2-0.6,3
		c-0.3,1.9-0.6,3.7-0.8,5.2h-1.4c0.2-1.6,0.6-3.4,1-5.4c0.2-1,0.4-2.2,0.7-3.3c-1-0.4-2-0.9-3-1.4c-1.3,1.2-2.8,2.1-4.4,2.9
		c0.4,1,0.8,1.9,1.2,2.8c0.7,1.7,1.4,3.2,2.1,4.5h-1.6c-0.5-1.2-1.1-2.5-1.7-4c-0.4-1-0.8-2-1.2-3.1c-0.4,0.1-3.8,0.8-5.4,0.4
		c-1.4-0.3-3.2-1.1-3.8-2.6c-0.7-1.3-0.1-2.9,1.2-3.5c0.1-0.1,0.2-0.1,0.3-0.1c2.1-0.7,5.3,1.7,6.5,3.3c0.1,0.1,0.7,1.2,1.1,1.9
		c-0.2-0.5-0.3-0.9-0.5-1.3c-0.3-0.9-0.6-1.8-1-2.8c-0.1-0.5-0.3-1-0.4-1.5s-0.3-1-0.4-1.5c-0.3-1.2-0.5-2.4-0.7-3.7
		c-0.8,0.3-3.7,1.3-5.2,1.2s-3.3-0.6-4.2-2c-0.8-1.2-0.5-2.8,0.7-3.7c0.1,0,0.1-0.1,0.2-0.1c2-1,5.5,0.9,6.9,2.3
		c0.1,0.1,1,1.2,1.5,1.8c-0.1-0.8-0.2-1.5-0.3-2.3c-0.3-2.2-0.5-4.4-0.7-6.7c-0.1-0.7-0.1-1.4-0.2-2c-0.3,0.1-3.7,1.4-5.3,1.2
		c-1.5-0.1-3.3-0.6-4.2-2c-0.8-1.2-0.5-2.8,0.6-3.6c0.1-0.1,0.2-0.1,0.2-0.2c2-1,5.5,0.9,6.9,2.2c0.1,0.1,1.4,1.7,1.7,2.1
		c-0.2-1.5-0.3-3-0.6-4.5c-0.3-2-0.7-3.9-1.3-5.8c-0.1,0-3.7,1.4-5.3,1.3c-1.5-0.1-3.3-0.6-4.2-2c-0.8-1.2-0.5-2.8,0.6-3.6
		c0.1-0.1,0.2-0.1,0.2-0.2c2-1,5.5,0.9,6.9,2.2c0.1,0.1,1.5,1.8,1.7,2.2c0-0.1,0-0.2-0.1-0.3c-0.6-1.9-1.4-3.8-2.3-5.5
		c-0.5-1-1-1.9-1.6-2.8c-0.6,0.3-3.5,1.7-5.1,1.8s-3.4-0.3-4.4-1.5c-1-1.1-0.8-2.7,0.2-3.7c0.1-0.1,0.1-0.1,0.2-0.2
		c1.8-1.2,5.6,0.2,7.1,1.5c0.1,0.1,0.9,0.8,1.4,1.4c-0.2-0.4-0.5-0.8-0.8-1.2c-0.9-1.4-1.9-2.6-2.7-3.7c-0.5-0.6-0.9-1.1-1.3-1.6
		c-0.8,0-3.9-0.1-5.3-0.8s-2.9-1.8-3.2-3.3c-0.4-1.4,0.5-2.8,1.9-3.2c0.1,0,0.2,0,0.3-0.1c2.2-0.2,4.8,2.8,5.6,4.6
		c0.1,0.1,0.9,2.7,0.8,2.7h-0.1c0.4,0.5,0.9,1,1.3,1.6c0.9,1.1,1.8,2.3,2.8,3.6c1,1.5,2,3,2.9,4.6c1,1.8,1.8,3.6,2.5,5.6
		c0,0,0,0,0,0.1c0-0.6,0-2.5,0-2.6c0.2-2,1.9-5.6,4.1-6c1.4-0.2,2.8,0.8,3,2.2c0,0.1,0,0.2,0,0.3c0.1,1.6-1,3.1-2.1,4.1
		c-1.2,1.1-4.7,2.2-5,2.3c0.6,2,1.1,4,1.4,6c0.2,1.2,0.4,2.4,0.6,3.6c0-0.6,0-1.1,0-1.1c0.3-2,1.9-5.6,4.1-6c1.4-0.2,2.8,0.8,3,2.2
		c0,0.1,0,0.2,0,0.2c0.1,1.6-1,3.1-2.1,4.1s-4,2-4.8,2.2l0.2,1.4c0.3,2.2,0.5,4.5,0.8,6.6c0.1,0.8,0.2,1.5,0.4,2.3c0-0.5,0-0.9,0-1
		c0.2-2,1.9-5.6,4.1-6c1.4-0.2,2.8,0.8,3,2.2c0,0.1,0,0.2,0,0.3c0.1,1.6-1,3.1-2.1,4.1c-1.4,1-3,1.7-4.7,2.2
		c0.2,0.8,0.3,1.5,0.5,2.3c0.1,0.5,0.2,1,0.4,1.5s0.3,1,0.5,1.5c0.3,0.9,0.7,1.9,1,2.8c0.2,0.6,0.5,1.2,0.7,1.8
		c-0.1-0.8-0.3-2.2-0.3-2.4c0-1.8,0.5-3.5,1.4-5c0-0.2,0-0.4,0-0.6c0.2-1.4,1.5-2.4,2.9-2.3c0.1,0,0.2,0,0.3,0.1
		c2.1,0.6,3.5,4.3,3.6,6.3c0,0.1-0.1,1.4-0.1,2.2c0.1-0.5,0.2-0.9,0.3-1.4c0.2-1,0.5-1.9,0.8-2.9c0.1-0.5,0.3-1,0.4-1.5
		s0.3-1,0.5-1.5c0.4-1.2,0.9-2.3,1.4-3.5c-0.8-0.2-3.8-0.9-4.9-1.9s-2.4-2.4-2.4-3.9c0-1.4,1.1-2.7,2.5-2.7c0.1,0,0.2,0,0.3,0
		c2.2,0.2,4.1,3.8,4.5,5.7c0,0.1,0.2,1.5,0.2,2.3c0.3-0.7,0.6-1.4,1-2.1c1-2,2-4,3.1-5.9l1-1.8c-0.3-0.1-3.8-0.9-5.1-1.9
		s-2.4-2.4-2.4-3.9c0-1.4,1.1-2.7,2.5-2.7c0.1,0,0.2,0,0.3,0c2.2,0.2,4.1,3.8,4.5,5.7c0,0.1,0.2,2.2,0.2,2.7c0.7-1.3,1.4-2.7,2-4
		c0.8-1.8,1.6-3.7,2.2-5.6c-0.1,0-3.8-0.9-5.2-1.9c-1.2-0.9-2.4-2.4-2.4-3.9c0-1.4,1.1-2.7,2.5-2.7c0.1,0,0.2,0,0.3,0
		c2.2,0.2,4.1,3.8,4.5,5.7c0,0.1,0.2,2.4,0.2,2.8c0-0.1,0.1-0.2,0.1-0.3c0.5-1.9,0.9-3.9,1.1-5.9c0.1-1.1,0.2-2.2,0.2-3.2
		c-0.7-0.1-3.9-0.5-5.2-1.3s-2.7-2.1-2.8-3.6c-0.2-1.4,0.8-2.8,2.3-3c0.1,0,0.2,0,0.3,0c2.2,0,4.5,3.3,5.1,5.2c0,0.1,0.3,1.2,0.4,2
		c0-0.5,0-1,0-1.4c0-1.7-0.1-3.2-0.2-4.6c-0.1-0.8-0.1-1.5-0.2-2.1c-0.7-0.4-3.2-2.2-4-3.5s-1.4-3.1-0.8-4.5c0.5-1.4,2-2.1,3.3-1.6
		c0.1,0,0.2,0.1,0.3,0.1c2,1,2.5,5,2.2,6.9c0,0.2-0.8,2.8-0.8,2.7l0,0c0.1,0.6,0.2,1.3,0.2,2c0.1,1.4,0.3,2.9,0.3,4.6
		c0.1,1.8,0,3.6-0.1,5.4c-0.2,2-0.5,4-1,6c0,0,0,0,0,0.1c0.3-0.5,1.4-2,1.5-2.1c1.3-1.5,4.7-3.6,6.7-2.8c1.3,0.6,1.9,2.2,1.3,3.5
		c0,0.1-0.1,0.2-0.1,0.2C135.7,308.3,133.9,309,132.4,309.2z"/>
	<path class="st3" d="M94.4,298.8c0,0-0.7-2.6-0.7-2.8c-0.3-2,0.3-5.9,2.3-6.9c1.3-0.6,2.9,0,3.5,1.3c0,0.1,0.1,0.2,0.1,0.3
		c0.5,1.5-0.2,3.3-0.9,4.5C97.7,296.7,94.4,298.8,94.4,298.8z"/>
</g>
<g id="freepik--Stairs--inject-4">
	<polygon class="st4" points="286.2,110.3 218.3,110.3 207.4,159.6 297,159.6 	"/>
	<polygon class="st5" points="307.8,158.7 196.6,158.7 178.9,232.2 325.6,232.2 	"/>
	<rect x="218.4" y="158.8" class="st6" width="67.7" height="8.9"/>
	<rect x="216.5" y="166.9" class="st6" width="71.4" height="9.1"/>
	<rect x="214.7" y="175.5" class="st6" width="75" height="9.3"/>
	<rect x="212.9" y="184.3" class="st6" width="78.7" height="9.5"/>
	<rect x="211.1" y="193.3" class="st6" width="82.3" height="9.7"/>
	<rect x="209.2" y="202.6" class="st6" width="86" height="9.9"/>
	<rect x="207.4" y="212.3" class="st6" width="89.6" height="10.1"/>
	<rect x="205.6" y="221.8" class="st6" width="93.3" height="10.2"/>
	<rect x="236.4" y="110.4" class="st6" width="31.6" height="5.9"/>
	<rect x="235.6" y="115.8" class="st6" width="33.4" height="6"/>
	<rect x="234.7" y="121.4" class="st6" width="35.1" height="6.1"/>
	<rect x="233.8" y="127.2" class="st6" width="36.8" height="6.3"/>
	<rect x="233" y="133.2" class="st6" width="38.5" height="6.4"/>
	<rect x="232.1" y="139.3" class="st6" width="40.2" height="6.5"/>
	<rect x="231.3" y="145.8" class="st6" width="41.9" height="6.6"/>
	<rect x="230.4" y="152" class="st6" width="43.6" height="6.8"/>
	<polygon class="st7" points="345.9,231.7 158.5,231.7 128.6,342.1 375.9,342.1 	"/>
	<polygon class="st7" points="415.8,338.7 88.7,338.7 57.1,463.2 447.4,463.2 	"/>
	<polygon class="st6" points="375.3,351.1 129.1,351.1 130,338.9 374.5,338.9 	"/>
	<polygon class="st6" points="378.5,364 126,364 126.9,351.3 377.6,351.3 	"/>
	<polygon class="st6" points="381.6,377 122.8,377 123.7,363.9 380.7,363.9 	"/>
	<polygon class="st6" points="384.9,390.2 119.6,390.2 120.6,376.7 383.9,376.7 	"/>
	<polygon class="st6" points="388.1,403.6 116.3,403.6 117.3,389.6 387.1,389.6 	"/>
	<polygon class="st6" points="391.5,418.2 112.9,418.2 114,403.7 390.5,403.7 	"/>
	<polygon class="st6" points="395,432.9 109.5,432.9 110.6,418 393.8,418 	"/>
	<polygon class="st6" points="398.5,448 106,448 107.2,432.6 397.3,432.6 	"/>
	<polygon class="st6" points="402,463.2 102.4,463.2 103.7,447.3 400.8,447.3 	"/>
	<rect x="187.3" y="231.7" class="st6" width="129.9" height="13.1"/>
	<rect x="183.8" y="243.5" class="st6" width="136.9" height="13.3"/>
	<rect x="180.3" y="256" class="st6" width="143.9" height="13.6"/>
	<rect x="176.8" y="268.9" class="st6" width="150.9" height="13.9"/>
	<rect x="173.2" y="282.2" class="st6" width="158" height="14.1"/>
	<rect x="169.8" y="295.7" class="st6" width="165" height="14.4"/>
	<rect x="166.2" y="310" class="st6" width="172" height="14.7"/>
	<rect x="162.7" y="323.9" class="st6" width="179" height="15"/>
</g>
<g id="freepik--Shine--inject-4">
	<line class="st2" x1="155.8" y1="159.3" x2="146.8" y2="167.2"/>
	<line class="st2" x1="235.4" y1="89.3" x2="161.3" y2="154.5"/>
	<line class="st2" x1="227.6" y1="87.3" x2="177" y2="105.8"/>
	<line class="st2" x1="181.3" y1="79.8" x2="148.8" y2="82.5"/>
	<line class="st2" x1="218.9" y1="76.6" x2="184.9" y2="79.5"/>
	<line class="st2" x1="131.9" y1="33.5" x2="123.4" y2="30.9"/>
	<line class="st2" x1="204.5" y1="56.5" x2="134.3" y2="34.3"/>
	<line class="st2" x1="215.9" y1="60.1" x2="209.2" y2="57.9"/>
	<line class="st2" x1="352.1" y1="159.3" x2="361" y2="167.2"/>
	<line class="st2" x1="272.4" y1="89.3" x2="346.5" y2="154.5"/>
	<line class="st2" x1="280.2" y1="87.3" x2="330.8" y2="105.8"/>
	<line class="st2" x1="326.6" y1="79.8" x2="359.1" y2="82.5"/>
	<line class="st2" x1="289" y1="76.6" x2="322.9" y2="79.5"/>
	<line class="st2" x1="376" y1="33.5" x2="384.4" y2="30.9"/>
	<line class="st2" x1="303.4" y1="56.5" x2="373.5" y2="34.3"/>
	<line class="st2" x1="291.9" y1="60.1" x2="298.7" y2="57.9"/>
</g>
<g id="freepik--Character--inject-4">
	<path class="st6" d="M241.8,213.9c0,0-4-1.2-3.8,2.4s4.5,5.9,4.5,5.9L241.8,213.9z"/>
	<path class="st6" d="M266.3,213.9c0,0,3.3-1.6,3.3,1.4s-3.5,6.1-3.5,6.1L266.3,213.9z"/>
	<path class="st8" d="M241.4,204.3c0,0,0.2,16.7,1.2,19.8s3.8,7.1,6.4,7.1s11.3-0.7,13-1.6c2.6-1.9,4.1-4.8,4.2-8
		c0-3.8,0.5-13.2,0.5-13.2c1-0.8,1.8-1.9,2.4-3.1c0.9-2.1-2.4-5.2-3.1-5.4s-3.3-0.9-3.3-0.9s1.6-1.4,1.2-2.6s-5-1.9-6.8-1.9
		c-1.5,0.2-2.9,0.6-4.2,1.4c0,0-7.5-0.2-9.9,2.6C241.4,200,240.9,202.2,241.4,204.3z"/>
	<path class="st9" d="M267.8,234.4l-30.2,0.5c0,0,1.4-4.5,3.1-5s18.6-0.9,22.2-0.5S267.8,234.4,267.8,234.4z"/>
	<path class="st8" d="M257.2,433.5c0,0-1.3,13.7-0.2,14.1s4.4,2,12.2,0c2.1-0.5-1.7-14.6-1.7-14.6S262.4,436.1,257.2,433.5z"/>
	<path class="st9" d="M221,327.4l4,59.6c0,0-2.4,11-0.2,20.7s5.8,44.1,5.8,44.1s1.8-3.4,7.8-4s7.2,1.8,7.2,1.8s-0.4-25.9-0.4-28.9
		s2.4-21.9,2.2-27.7c-0.2-4.2-0.8-8.3-1.6-12.4l1.4-36.1l3.2-0.4c0,0-2.2,29.7-0.8,36.5s4.8,27.9,5,29.7s2.8,23.1,2.8,23.1
		s5.2,1.4,7.6,1.2c1.5-0.2,2.9-0.9,4-2c0,0,4.4-32.1,4-37.1s-5-17-5-18s-1.2-7.8-1.2-7.8s8.4-23.3,9.8-31.7S278,326,278,326
		s-23.7,3.8-35.5,3.8C235.3,329.8,228.1,328.9,221,327.4z"/>
	<path class="st2" d="M231.7,386.7c3.1-2.6,6.5-5,10-7.1"/>
	<path class="st2" d="M226.9,390.9c0,0,1-1,2.8-2.5"/>
	<line class="st2" x1="231.2" y1="382.8" x2="243.7" y2="374.4"/>
	<path class="st8" d="M278,326c0,0-23.7,3.8-35.5,3.8c-7.2,0-14.4-0.8-21.5-2.4l0.2,3.5c3.4,2.6,9.6,7.4,14.6,12
		c5.9,5.4,9.7,7.7,11,8.4l0.3-6.8l3.2-0.4c0,0-2.2,29.7-0.8,36.5c0.6,3.1,1.7,9.3,2.7,15.2c1.5-4.6,4.3-10.2,9.4-10.7
		c3.3-0.3,6.5,0.5,9.3,2.3c-1.4-4.6-3.1-9.2-3.1-9.8c0-1-1.2-7.8-1.2-7.8s8.4-23.3,9.8-31.7S278,326,278,326z"/>
	<path class="st6" d="M214,315.7c0,0,1.5,2.8,2.4,3.1s1.8,3.3,1.8,6.2s-1,3.3-1,3.3c0.9,1.1,1.2,2.6,0.8,3.9
		c-0.6,2.1-4.9,3.6-6.7,4.2s-4.6-2.3-5.7-3.8s-0.3-13.2-0.3-13.2S213.4,317.3,214,315.7z"/>
	<path class="st2" d="M217.3,328.3c0,0-3.3,1.3-3.8,1.6s-2.3-1.8-1.6-2.5c1-0.8,2-1.6,3.1-2.3"/>
	<path class="st2" d="M210.6,322.4c0,0,3.4,0.8,2.3,3.9"/>
	<path class="st2" d="M212.5,329.4c0,0-3.4,1.3-3.4,2.6s1.6,3,2.6,2.8s-0.2-1.5-0.2-1.5"/>
	<path class="st2" d="M294.3,322.4c-1.4,1.6-2.6,3.3-3.6,5.1c-0.8,1.8-2.5,3.4-2.1,4.6s0.5,2,0.5,2s-1.5,3.4,0,4.4
		c1,0.7,2.1,1.1,3.3,1.1c0.6,0,3.3,2.1,5.1,1.8s4.4-1.1,4.6-6.7s0.8-11.9,0.8-11.9S296.9,322.4,294.3,322.4z"/>
	<path class="st2" d="M289.1,334c0,0,4.4,2.8,5.7,2.8s2.3-2,1.3-3c-1.2-1-2.4-1.9-3.8-2.8"/>
	<path class="st2" d="M297.7,327.6c0,0-2.6,2.9-1.6,6.2"/>
	<path class="st2" d="M296.6,334.8c0,0,3.1,0.8,3.3,1.8s-0.2,2.6-0.8,2.6s-1-1.1-1-1.1"/>
	<path class="st9" d="M305.2,321.1c-0.8,1.8-2.2,3.3-4,4.2c-2.8,1.4-7.8-2.4-7.8-2.4l-5.2-30.4l-11.3-17l-1,24.8
		c0,0,4.5,27.3,3.8,27.8s-11.1,5.2-28.5,7.1s-32.8-6.4-32.8-6.4l7.3-28.3l-3.3-21l-8.1,12.7l1.1,21.9c0,0-1.9,5-5.2,5.7
		c-2.1,0.4-4.3,0.4-6.4,0c0,0,0-0.1,0-0.1c0-0.1-0.1-0.5-0.1-0.9c0-0.2-0.1-0.5-0.1-0.7c-0.1-0.4-0.1-0.9-0.2-1.5s-0.1-0.9-0.2-1.4
		s-0.2-1-0.2-1.5l0,0c-1.3-7.9-3.3-20.7-3.5-21.9v0c0-2.2,15.3-41.7,16.2-42.6s1-4,4.2-6.1s21-9.4,21-9.4c6.8-2.1,25.7,0.7,25.7,0.7
		s7.3,4.2,8.2,4.7s11.1,6.6,13.4,8s2.6,4,3.5,7.1s7.8,25.7,9.9,29.7S305.2,321.1,305.2,321.1z"/>
	<path class="st8" d="M214.4,292.4l1.1,21.9c0,0-1.9,5-5.2,5.7c-2.1,0.4-4.3,0.4-6.4,0c0,0,0-0.1,0-0.1c0-0.1-0.1-0.5-0.1-0.9
		c0-0.2-0.1-0.5-0.1-0.7c-0.1-0.4-0.1-0.9-0.2-1.5s-0.1-0.9-0.2-1.4s-0.2-1-0.2-1.5l0,0c-1.3-7.9-3.3-20.7-3.5-21.9v0
		c1.4,0.8,3.9,2,5.5,1.7c1.2-0.2,2.7-1.9,3.8-3.3c0.2-0.7,0.4-1.1,0.5-1.4c1.2-3.2,8.1-22.4,8.1-22.4l5.2,13.2L214.4,292.4z"/>
	<line class="st2" x1="218.3" y1="257.8" x2="222.5" y2="279.7"/>
	<polyline class="st2" points="280.3,260.5 277,275.7 284,260.6 	"/>
	<line class="st2" x1="281.7" y1="254.5" x2="281.1" y2="256.9"/>
	<path class="st2" d="M249.6,262.7c0,0,13.7,25,16.3,26.6"/>
	<line class="st2" x1="264.2" y1="291.5" x2="266.1" y2="293.1"/>
	<line class="st2" x1="253.6" y1="282" x2="262.3" y2="289.8"/>
	<path class="st8" d="M305.2,321.1c0,0-0.4-8.9-1-18.1c-4.1-1.4-8.8-3.4-10.5-5.5c-3.3-4-15.3-20.3-15.3-20.3v0.5l9.9,14.8l5.2,30.4
		c0,0,5,3.8,7.8,2.4C303,324.5,304.4,323,305.2,321.1z"/>
	<path class="st8" d="M230.5,451.8l-0.4,7.1c0,0-3.5,4.8-2.6,7.4s4.4,2.2,9.6,2.2s8.9-3.7,8.9-7s-0.5-11.9-0.5-11.9s-2.2-2-7.2-1.8
		C235.3,448,232.5,449.4,230.5,451.8z"/>
	<path class="st6" d="M244.7,464.9c-1.8-1.5-4.3-1.9-6.6-1.2c-3.8,1.3-6.1,3.6-8.9,4.3c1.7,0.6,4.4,0.5,7.8,0.5
		C240,468.5,242.8,467.2,244.7,464.9z"/>
</g>
<g id="freepik--Trophy--inject-4">
	<rect x="249.5" y="80.8" class="st9" width="5.4" height="22.8"/>
	<polygon class="st9" points="260.1,108.6 244.3,108.6 246.2,99.7 258.3,99.7 	"/>
	<polygon class="st9" points="269.7,112.3 234.8,112.3 238.5,104.1 266,104.1 	"/>
	<path class="st9" d="M234.5,56.7c-6.9-0.1-12.7,5.4-12.8,12.3c-0.1,6.9,5.4,12.7,12.3,12.8s12.7-5.4,12.8-12.3c0-0.1,0-0.1,0-0.2
		C246.9,62.4,241.4,56.8,234.5,56.7C234.5,56.7,234.5,56.7,234.5,56.7z M234.5,78.7c-5.2,0.1-9.5-4-9.5-9.2c-0.1-5.2,4-9.5,9.2-9.5
		s9.5,4,9.5,9.2c0,0.1,0,0.1,0,0.2C243.7,74.4,239.6,78.6,234.5,78.7L234.5,78.7z"/>
	<path class="st9" d="M271.8,56.7c-6.9-0.1-12.7,5.4-12.8,12.3c-0.1,6.9,5.4,12.7,12.3,12.8c6.9,0.1,12.7-5.4,12.8-12.3
		c0-0.1,0-0.2,0-0.2C284.2,62.4,278.6,56.8,271.8,56.7z M271.8,78.7c-5.2,0.1-9.4-4-9.5-9.2c-0.1-5.2,4-9.4,9.2-9.5
		c5.2-0.1,9.4,4,9.5,9.2c0,0,0,0.1,0,0.1C281,74.4,276.9,78.6,271.8,78.7C271.8,78.6,271.8,78.6,271.8,78.7L271.8,78.7z"/>
	<path class="st9" d="M252.2,87.1L252.2,87.1c-8.6,0-15.6-7-15.6-15.6l0,0V55.5h31.2v16.1C267.8,80.2,260.8,87.1,252.2,87.1z"/>
	<polygon class="st8" points="241.3,64 247.9,75.7 249.7,71.8 254,72.5 245,61.3 	"/>
	<polygon class="st8" points="241,62.7 238.7,75.9 242.5,73.9 245.4,77.2 245.6,62.8 	"/>
	<path class="st6" d="M250.8,59.2c0-3.7-3-6.7-6.7-6.7c-3.7,0-6.7,3-6.7,6.7c0,3.7,3,6.7,6.7,6.7l0,0
		C247.7,65.9,250.7,62.9,250.8,59.2C250.8,59.2,250.8,59.2,250.8,59.2z"/>
	<path class="st6" d="M249.2,59.2c0-2.9-2.3-5.2-5.2-5.2s-5.2,2.3-5.2,5.2s2.3,5.2,5.2,5.2l0,0C246.9,64.4,249.2,62.1,249.2,59.2
		C249.2,59.2,249.2,59.2,249.2,59.2z"/>
	<path class="st3" d="M242.5,56.6c0.5,0.1,1.1-0.3,1.2-0.8c0,0,0,0,0,0h0.7v6.7h-1v-5.1h-0.8L242.5,56.6z"/>
</g>
<g id="freepik--Clouds--inject-4">
	<path class="st10" d="M299.4,220.7c-0.8-4.5-2-15.8,4.9-21.4c8.7-7,14.9,5.6,22.5-4.2s9.8-31.2,32.3-30.9s24.2,12.9,24.2,17.1
		s6.7,7.3,8.1,7.3s9.3-3.6,12.1,4.5s0.9,12.9,5.4,13s10-5.9,16.1-2.9s6.1,9.5,8.6,11.8s6.7-1.7,12.4,0.6c3.4,1.4,4.4,3.6,4.7,5.1
		L299.4,220.7z"/>
	<path class="st10" d="M309.9,70.8c-0.3-1.5-0.6-5.2,1.6-7c2.9-2.3,4.9,1.8,7.4-1.4s3.2-10.2,10.6-10.2s7.9,4.2,7.9,5.6
		s2.2,2.4,2.7,2.4s3-1.2,4,1.5s0.3,4.2,1.8,4.3s3.3-2,5.3-1s2,3.1,2.8,3.9s2.2-0.6,4.1,0.2c0.8,0.2,1.4,0.9,1.5,1.7L309.9,70.8z"/>
	<path class="st10" d="M298,134.1c-0.5-2.8-1.2-9.7,3-13c5.3-4.3,9.1,3.4,13.7-2.6s6-19,19.7-18.8s14.7,7.9,14.7,10.4s4.1,4.5,5,4.5
		s5.6-2.2,7.4,2.7s0.6,7.8,3.3,8s6.1-3.6,9.8-1.8s3.7,5.8,5.2,7.2s4.1-1,7.5,0.3c1.4,0.4,2.5,1.6,2.9,3.1L298,134.1z"/>
	<path class="st10" d="M221.5,50.9c0.4-2,0.9-7-2.2-9.4c-3.8-3.1-6.6,2.5-9.9-1.9s-4.3-13.7-14.2-13.6s-10.6,5.7-10.6,7.5
		c0,1.9-3,3.2-3.6,3.2s-4.1-1.6-5.3,2s-0.4,5.7-2.4,5.7s-4.4-2.6-7.1-1.3s-2.7,4.2-3.8,5.2s-3-0.8-5.4,0.2c-1,0.3-1.8,1.2-2.1,2.2
		L221.5,50.9z"/>
	<path class="st10" d="M238.6,189.4c1-5.6,2.4-19.5-6-26.3c-10.7-8.6-18.3,6.9-27.7-5.2s-12.1-38.4-39.8-38s-29.8,15.9-29.8,21.1
		s-8.3,9-10,9s-11.4-4.5-14.9,5.5s-1.1,15.8-6.6,16S91.5,164.2,84,168s-7.5,11.7-10.6,14.5s-8.3-2.1-15.2,0.7
		c-4.2,1.7-5.5,4.4-5.8,6.2L238.6,189.4z"/>
	<path class="st10" d="M168.9,132.7c0.3-1.8,0.8-6.2-1.9-8.3c-3.4-2.7-5.8,2.2-8.8-1.7s-3.8-12.2-12.6-12s-9.4,5-9.4,6.7
		s-2.6,2.8-3.2,2.8s-3.6-1.4-4.7,1.8s-0.3,5-2.1,5.1s-3.9-2.3-6.3-1.1s-2.4,3.7-3.4,4.6s-2.6-0.7-4.8,0.2c-0.9,0.3-1.6,1-1.8,2
		L168.9,132.7z"/>
</g>
</svg>
