<?xml version="1.0" encoding="utf-8"?>
<!-- Generator: Adobe Illustrator 27.2.0, SVG Export Plug-In . SVG Version: 6.00 Build 0)  -->
<svg version="1.1" id="Layer_1" xmlns="http://www.w3.org/2000/svg" xmlns:xlink="http://www.w3.org/1999/xlink" x="0px" y="0px"
	 viewBox="0 0 500 500" style="enable-background:new 0 0 500 500;" xml:space="preserve">
<style type="text/css">
	.st0{fill:#98AF96;}
	.st1{opacity:0.8;fill:#FFFFFF;enable-background:new    ;}
	.st2{opacity:0.5;fill:#FFFFFF;enable-background:new    ;}
	.st3{clip-path:url(#SVGID_00000051354602176081282510000012084214893230348683_);}
	.st4{opacity:0.55;fill:#FFFFFF;enable-background:new    ;}
	.st5{fill:#FFFFFF;}
	.st6{opacity:0.1;enable-background:new    ;}
	.st7{fill:none;stroke:#263238;stroke-width:0.75;stroke-linecap:round;stroke-linejoin:round;stroke-dasharray:2;}
	.st8{clip-path:url(#SVGID_00000121262204344314083530000005375384469998059958_);}
	.st9{fill:none;stroke:#263238;stroke-linecap:round;stroke-linejoin:round;}
	.st10{fill:#263238;stroke:#263238;stroke-linecap:round;stroke-linejoin:round;}
	.st11{fill:#98AF96;stroke:#263238;stroke-linecap:round;stroke-linejoin:round;}
	.st12{fill:#FFFFFF;stroke:#263238;stroke-linecap:round;stroke-linejoin:round;}
	.st13{clip-path:url(#SVGID_00000026853635223617082080000000390502033730615950_);}
	.st14{opacity:0.21;enable-background:new    ;}
	.st15{fill:none;stroke:#FFFFFF;stroke-width:0.75;stroke-linecap:round;stroke-linejoin:round;}
	.st16{clip-path:url(#SVGID_00000054985674067340156550000012888770648777111965_);}
	.st17{opacity:0.2;enable-background:new    ;}
	.st18{clip-path:url(#SVGID_00000059298661750583925210000018019490058367852422_);}
	.st19{clip-path:url(#SVGID_00000007396941793682572350000009189897988875020690_);}
	.st20{clip-path:url(#SVGID_00000124844540927578196780000004899345413004215473_);}
	.st21{fill:#263238;}
	.st22{clip-path:url(#SVGID_00000047748432916191662770000011961625742505482166_);}
	.st23{clip-path:url(#SVGID_00000038391102780211609460000005910702433431610498_);}
	.st24{clip-path:url(#SVGID_00000067210099069604253710000004129245448790885513_);}
</style>
<g id="freepik--background-simple--inject-4">
	<path class="st0" d="M346.5,96.5c0,0-60.4-34.1-129.5-8.5S104,180.6,67,234S35.8,349.1,79.4,384.4s82.9,1.2,150.7,11
		s84.3,22.6,146.7-6s87.6-117.4,54.7-192S346.5,96.5,346.5,96.5z"/>
	<path class="st1" d="M346.5,96.5c0,0-60.4-34.1-129.5-8.5S104,180.6,67,234S35.8,349.1,79.4,384.4s82.9,1.2,150.7,11
		s84.3,22.6,146.7-6s87.6-117.4,54.7-192S346.5,96.5,346.5,96.5z"/>
</g>
<g id="freepik--Clouds--inject-4">
	<path class="st0" d="M387.2,145.4c-7.4-7.3-13.2-16.8-24-16.8c-8,0-10.3,8.8-17.1,11.1c-7.1,2.5-12.5-3.9-19-5.2
		c-10.9-2.3-10.6,5.4-15.3,11.9c-4.5,6.2-14.4-2.5-19.2,4.8c-4.2,6.4-10.7,10.5-14.2,9.9s-11.3-4.9-18.3-0.7s-9.9,7.8-16.9,7.8
		s-16.2,2.1-16.2,2.1h190.6c0,0-6.4-15.5-16.2-16.9C395.5,152.4,391.1,149.2,387.2,145.4z"/>
	<path class="st0" d="M167.9,173.8c-3.8-3.7-6.7-8.6-12.2-8.6c-4.1,0-5.2,4.5-8.7,5.6c-3.6,1.2-6.4-2-9.6-2.7
		c-5.5-1.1-5.4,2.7-7.8,6.1c-2.3,3.1-7.3-1.3-9.8,2.4c-2.2,3.2-5.4,5.4-7.2,5s-5.7-2.5-9.3-0.3s-5,3.9-8.6,3.9
		c-2.8,0.1-5.5,0.5-8.2,1.1h96.7c0,0-3-7.9-8-8.6C172.4,177.3,169.8,175.9,167.9,173.8z"/>
	<path class="st0" d="M266,94.6c-2.1-2.1-3.8-4.8-6.9-4.8c-2.3,0-3,2.5-4.9,3.2s-3.6-1.1-5.5-1.5c-3.1-0.7-3,1.6-4.4,3.4
		s-4.1-0.7-5.5,1.4c-1.2,1.8-3.1,3-4.1,2.8s-3.2-1.4-5.3-0.2s-2.9,2.2-4.9,2.2c-1.6,0.1-3.1,0.3-4.7,0.6h51.9c0,0,1.2-4.5-1.6-4.9
		C268.5,96.5,267.1,95.7,266,94.6z"/>
	<path class="st2" d="M387.2,145.4c-7.4-7.3-13.2-16.8-24-16.8c-8,0-10.3,8.8-17.1,11.1c-7.1,2.5-12.5-3.9-19-5.2
		c-10.9-2.3-10.6,5.4-15.3,11.9c-4.5,6.2-14.4-2.5-19.2,4.8c-4.2,6.4-10.7,10.5-14.2,9.9s-11.3-4.9-18.3-0.7s-9.9,7.8-16.9,7.8
		s-16.2,2.1-16.2,2.1h190.6c0,0-6.4-15.5-16.2-16.9C395.5,152.4,391.1,149.2,387.2,145.4z"/>
	<path class="st2" d="M167.9,173.8c-3.8-3.7-6.7-8.6-12.2-8.6c-4.1,0-5.2,4.5-8.7,5.6c-3.6,1.2-6.4-2-9.6-2.7
		c-5.5-1.1-5.4,2.7-7.8,6.1c-2.3,3.1-7.3-1.3-9.8,2.4c-2.2,3.2-5.4,5.4-7.2,5s-5.7-2.5-9.3-0.3s-5,3.9-8.6,3.9
		c-2.8,0.1-5.5,0.5-8.2,1.1h96.7c0,0-3-7.9-8-8.6C172.4,177.3,169.8,175.9,167.9,173.8z"/>
	<path class="st2" d="M266,94.6c-2.1-2.1-3.8-4.8-6.9-4.8c-2.3,0-3,2.5-4.9,3.2s-3.6-1.1-5.5-1.5c-3.1-0.7-3,1.6-4.4,3.4
		s-4.1-0.7-5.5,1.4c-1.2,1.8-3.1,3-4.1,2.8s-3.2-1.4-5.3-0.2s-2.9,2.2-4.9,2.2c-1.6,0.1-3.1,0.3-4.7,0.6h51.9c0,0,1.2-4.5-1.6-4.9
		C268.5,96.5,267.1,95.7,266,94.6z"/>
</g>
<g id="freepik--Mountains--inject-4">
	<g>
		<defs>
			<path id="SVGID_1_" d="M346.5,96.5c0,0-60.4-34.1-129.5-8.5S104,180.6,67,234S35.8,349.1,79.4,384.4s82.9,1.2,150.7,11
				s84.3,22.6,146.7-6s87.6-117.4,54.7-192S346.5,96.5,346.5,96.5z"/>
		</defs>
		<clipPath id="SVGID_00000120532470074948736750000004917458150466401424_">
			<use xlink:href="#SVGID_1_"  style="overflow:visible;"/>
		</clipPath>
		<g style="clip-path:url(#SVGID_00000120532470074948736750000004917458150466401424_);">
			<polygon class="st0" points="89.4,424.4 365.9,424.4 468,320.3 469.6,316.6 358.5,176.7 336.3,197.3 247.4,106 161.8,224.5 
				123.1,196.5 28.7,332.6 			"/>
			<polygon class="st4" points="89.4,424.4 365.9,424.4 468,320.3 469.6,316.6 358.5,176.7 336.3,197.3 247.4,106 161.8,224.5 
				123.1,196.5 28.7,332.6 			"/>
			<path class="st5" d="M374.9,208.8l-8.2-4.9l3.3,18.9l-33.7-25.5l22.2-20.6l19.1,24.1L374.9,208.8z M234.2,152.8l6.6,9.9
				l11.5-13.2l26.3,40.3l8.2-29.6l11.5,8.2l0.8-9.3L247.4,106l-36.6,50.7l0.4,12.7L234.2,152.8z M154.4,236l2.1-15.4l-33.4-24.2
				l-26.4,38.1l17.3-15.8l8.2,14l13.2-9.9L154.4,236z"/>
			<polygon class="st6" points="127.4,247.9 116.1,238.7 109.7,262 137.2,301.5 121.7,304.3 130.9,360.8 166.9,252.1 157.7,251.4 
				161.8,224.5 123.1,196.5 135.5,222.8 			"/>
			<polygon class="st6" points="281.1,222 291,329.8 272.9,358.1 361.3,424.4 365.9,424.4 468,320.3 469.6,316.6 358.5,176.7 
				376.6,216.2 358.5,207.2 351.1,209.6 336.3,197.3 247.4,106 307.5,241.8 			"/>
		</g>
	</g>
</g>
<g id="freepik--Wind--inject-4">
	<path class="st7" d="M105.2,173.8c0,0,6.8-2.7,19.2,0s24,11.7,42.5,14.4s30.2-3.4,32.2-13.7s-7.5-11.7-13.7-6.9s0,13,0,13"/>
	<path class="st7" d="M163.5,195.1c0,0,8.9,3.4,24,0s16.4-20.6,28.1-29.5s21.2,0.7,21.2,8.9s-6.2,9.6-12.3,9.6"/>
	<path class="st7" d="M332.9,279.3c0,0,8.9-4.1,20.6,6.9s25.4,23.3,43.9,21.9s26-17.8,41.8-21.2s23.3,6.2,23.3,12.3
		s-10.3,14.4-15.8,8.2"/>
	<path class="st7" d="M310.9,293c0,0,22.6-6.9,34.3,2.7s21.9,24,39.1,24"/>
</g>
<g id="freepik--Character--inject-4">
	<path class="st5" d="M267,237c0,0,21.7,0.2,25,4s0.2,17.2,0.2,17.2c3.6,6.5,6.1,13.5,7.6,20.8c2.1,11.6-2.8,23.1-2.8,23.1
		s-2.1,10.6-4.2,15.3s-17.5,4.5-26.7,2.8s-5.4-17.7-4.7-29.5s-2.1-44.1-2.1-47.2S261.4,239.4,267,237z"/>
	<g>
		<defs>
			<path id="SVGID_00000025400517739824066050000006211406682640263808_" d="M267,237c0,0,21.7,0.2,25,4s0.2,17.2,0.2,17.2
				c3.6,6.5,6.1,13.5,7.6,20.8c2.1,11.6-2.8,23.1-2.8,23.1s-2.1,10.6-4.2,15.3s-17.5,4.5-26.7,2.8s-5.4-17.7-4.7-29.5
				s-2.1-44.1-2.1-47.2S261.4,239.4,267,237z"/>
		</defs>
		<clipPath id="SVGID_00000064332717697872317870000008776300743417738425_">
			<use xlink:href="#SVGID_00000025400517739824066050000006211406682640263808_"  style="overflow:visible;"/>
		</clipPath>
		<g style="clip-path:url(#SVGID_00000064332717697872317870000008776300743417738425_);">
			<path class="st6" d="M267,237c0,0,21.7,0.2,25,4s0.2,17.2,0.2,17.2c3.6,6.5,6.1,13.5,7.6,20.8c2.1,11.6-2.8,23.1-2.8,23.1
				s-2.1,10.6-4.2,15.3s-17.5,4.5-26.7,2.8s-5.4-17.7-4.7-29.5s-2.1-44.1-2.1-47.2S261.4,239.4,267,237z"/>
		</g>
	</g>
	<path class="st9" d="M267,237c0,0,21.7,0.2,25,4s0.2,17.2,0.2,17.2c3.6,6.5,6.1,13.5,7.6,20.8c2.1,11.6-2.8,23.1-2.8,23.1
		s-2.1,10.6-4.2,15.3s-17.5,4.5-26.7,2.8s-5.4-17.7-4.7-29.5s-2.1-44.1-2.1-47.2S261.4,239.4,267,237z"/>
	<path class="st10" d="M292.3,258.3c0,0-12.5,4-21.7,5.2l-0.2-4.2c0,0,19.1-1.6,22.4-4.5L292.3,258.3z"/>
	<path class="st10" d="M297,302.1c0,0-14.6,3.3-19.8,2.8l-0.5,4c0,0,14.4-0.2,19.6-2.6L297,302.1z"/>
	<path class="st10" d="M237,316.5c0,0-32.6-2.8-40.4,0s-9,12.5-9,19.1s-5,36.1-5.4,37.3s-5.7,11.6-4,13.9s16.5,0,19.1-2.6
		s9.2-31.6,11.6-39.2c1.3-4.3,3.1-8.5,5.2-12.5c0,0,30.9,12.8,47.2,8.3s10.4-16,1.4-20.8S237,316.5,237,316.5z"/>
	<path class="st11" d="M180.2,371c0,0-8.5,2.6-12.7,2.6s-10.6-1.4-11.6,4.5s4.5,11.6,16.5,12.3s15.3,0.5,17.9-2.1s2.1-5.9-0.5-10.1
		S182.8,370.8,180.2,371z"/>
	<path class="st12" d="M187.3,379.3c0.9-0.4,1.7-0.9,2.4-1.5c-2.6-4.1-6.9-7-9.5-6.8c0,0-8.5,2.6-12.7,2.6h-0.7
		c-1.7,0.6-3.8,2.1-2.4,5.2C166.5,383.8,178.8,383.1,187.3,379.3z"/>
	<path class="st5" d="M364.9,407.6c0,0-36.8-60.9-39.2-61.4s-12.3-0.9-12.3-0.9s-26.9-14.6-31.6-14.6s-27.4,13.7-29.7,14.6
		s-15.1,2.4-15.1,4.2s-9,17-9,17l-18.4,6.6l-1.4,7.1l-5.7,31.6h168L364.9,407.6z"/>
	<g>
		<defs>
			<path id="SVGID_00000085941972473398763310000014255689418185268884_" d="M364.9,407.6c0,0-36.8-60.9-39.2-61.4
				s-12.3-0.9-12.3-0.9s-26.9-14.6-31.6-14.6s-27.4,13.7-29.7,14.6s-15.1,2.4-15.1,4.2s-9,17-9,17l-18.4,6.6l-1.4,7.1l-5.7,31.6h168
				L364.9,407.6z"/>
		</defs>
		<clipPath id="SVGID_00000121257883755447603190000017921066825869740196_">
			<use xlink:href="#SVGID_00000085941972473398763310000014255689418185268884_"  style="overflow:visible;"/>
		</clipPath>
		<g style="clip-path:url(#SVGID_00000121257883755447603190000017921066825869740196_);">
			<path class="st14" d="M374.7,412.9l-9.1-7.7l-38-60.6l-17.2-2.6c0,0-27-13.9-30-13.5s-33.2,17.9-34.3,17.9s-8.4-0.4-10.2,2.2
				s-9.5,15.7-9.5,15.7l-19,6.2l-1.8,13.1l15,0.7l30.3,30H378L374.7,412.9z"/>
			<ellipse class="st5" cx="304.5" cy="355.7" rx="8.5" ry="5.3"/>
			<path class="st5" d="M330,349.7c0,2.9-3.8,5.3-8.5,5.3s-8.5-2.4-8.5-5.3s3.8-5.3,8.5-5.3S330,346.8,330,349.7z"/>
			<path class="st5" d="M297,357.7c0,1.2-1.5,2.2-3.4,2.2s-3.4-1-3.4-2.2s1.5-2.2,3.4-2.2S297,356.5,297,357.7z"/>
			<ellipse class="st5" cx="315.7" cy="356" rx="5.8" ry="3.9"/>
			<path class="st5" d="M312.3,362.6c0,1.7-2.5,3-5.6,3s-5.6-1.4-5.6-3s2.5-3.1,5.6-3.1S312.3,360.9,312.3,362.6z"/>
			<path class="st5" d="M289.2,357.7c0,1-1.4,1.9-3,1.9s-3.1-0.8-3.1-1.9s1.4-1.9,3.1-1.9S289.2,356.7,289.2,357.7z"/>
			<path class="st5" d="M298.7,348.7c0,0.6-1.1,1-2.4,1s-2.4-0.5-2.4-1s1.1-1,2.4-1S298.7,348.1,298.7,348.7z"/>
			<path class="st5" d="M315.7,349.4c0,1.5-1.7,2.7-3.7,2.7s-3.7-1.2-3.7-2.7s1.7-2.7,3.7-2.7S315.7,347.9,315.7,349.4z"/>
			<path class="st5" d="M308.2,348.2c0,0.6-1.4,1.2-3.1,1.2s-3.1-0.5-3.1-1.2s1.4-1.2,3.1-1.2S308.2,347.5,308.2,348.2z"/>
			<path class="st5" d="M319.1,366.9c0,1.8-2.5,3.2-5.6,3.2s-5.6-1.4-5.6-3.2s2.5-3.2,5.6-3.2S319.1,365.1,319.1,366.9z"/>
			<ellipse class="st5" cx="322.5" cy="362" rx="7.8" ry="5.1"/>
			<path class="st5" d="M334.7,356.5c0,2.8-3.5,5.1-7.8,5.1s-7.8-2.3-7.8-5.1s3.5-5.1,7.8-5.1S334.7,353.7,334.7,356.5z"/>
			<path class="st5" d="M276,363c0,1.3-1.5,2.4-3.4,2.4s-3.4-1.1-3.4-2.4s1.5-2.4,3.4-2.4S276,361.6,276,363z"/>
			<path class="st5" d="M280.1,371.8c0,2.6-4.3,4.8-9.5,4.8s-9.5-2.1-9.5-4.8s4.3-4.8,9.5-4.8S280.1,369.2,280.1,371.8z"/>
			<path class="st5" d="M284.1,366.5c0,2-2.6,3.6-5.8,3.6s-5.8-1.6-5.8-3.6s2.6-3.6,5.8-3.6S284.1,364.6,284.1,366.5z"/>
			<path class="st5" d="M259.2,357.9c0,1.7-2.5,3.1-5.6,3.1s-5.6-1.4-5.6-3.1s2.5-3,5.6-3S259.2,356.2,259.2,357.9z"/>
			<path class="st5" d="M252.9,364c0,1.1-2.1,2-4.8,2s-4.8-0.9-4.8-2s2.1-2,4.8-2S252.9,362.9,252.9,364z"/>
			<ellipse class="st5" cx="255.1" cy="365.2" rx="3.2" ry="1.9"/>
			<path class="st5" d="M240,372.5c0,1.7-3,3.1-6.6,3.1s-6.6-1.4-6.6-3.1s3-3,6.6-3S240,370.8,240,372.5z"/>
			<ellipse class="st5" cx="241" cy="382.8" rx="7.1" ry="4.9"/>
			<path class="st5" d="M245.4,373.3c0,1-1.5,1.9-3.4,1.9s-3.4-0.8-3.4-1.9s1.5-1.9,3.4-1.9S245.4,372.3,245.4,373.3z"/>
			<ellipse class="st5" cx="230.7" cy="377.9" rx="3.9" ry="2"/>
			<path class="st5" d="M256.3,381.6c0,1.3-2,2.4-4.4,2.4s-4.4-1.1-4.4-2.4s2-2.4,4.4-2.4S256.3,380.3,256.3,381.6z"/>
			<polygon class="st6" points="325.8,346.3 327.2,375.5 282.7,363.8 283.7,397.7 259.9,380.8 257.8,392.4 238.2,396.6 219.1,377.4 
				210.7,397.2 170.4,403 136.5,413.8 255.9,413.8 255,411.7 370.6,411.9 364.9,407.6 			"/>
			<path class="st6" d="M323.5,356c0,1.7-7.2,3-16.1,3s-16.1-1.4-16.1-3s7.2-3.1,16.1-3.1C316.3,352.9,323.5,354.3,323.5,356z"/>
		</g>
	</g>
	<path class="st9" d="M364.9,407.6c0,0-36.8-60.9-39.2-61.4s-12.3-0.9-12.3-0.9s-26.9-14.6-31.6-14.6s-27.4,13.7-29.7,14.6
		s-15.1,2.4-15.1,4.2s-9,17-9,17l-18.4,6.6l-1.4,7.1l-5.7,31.6h168L364.9,407.6z"/>
	<path class="st6" d="M237,349.6c0,1.5-5.3,10.7-7.8,14.9l19.1-9l38.6-1.7l13.6-5.7h12.7l2.2-2.7l-2-0.1c0,0-26.9-14.6-31.6-14.6
		s-27.4,13.7-29.7,14.6S237,347.7,237,349.6z"/>
	<polyline class="st9" points="228.1,366.6 244.1,366.6 267.7,388.3 267.2,403.4 251.7,411.4 	"/>
	<polyline class="st9" points="252.4,373.5 272.9,358.1 303.6,376 317.3,412.3 	"/>
	<polyline class="st9" points="303.6,376 297.9,394.9 275.3,401 267.7,395.8 	"/>
	<line class="st9" x1="275.3" y1="401" x2="276.2" y2="411.9"/>
	<line class="st9" x1="297.9" y1="394.9" x2="305" y2="411.4"/>
	<path class="st10" d="M279.8,315.8c0,0,0.5,12-1.9,17.2s-5.9,7.8-19.6,8.7s-32.1-5.7-32.1-5.7s-9.9,16.8-13.9,24.1
		s-11.3,15.6-13.4,18.4s-4.5,7.1-7.3,8.5s-9.4-7.1-10.6-10.1s-2.1-5.2-1.9-6.6s5.4-3.8,5.4-3.8s8-15.1,11.8-21.2s6.6-18.6,9.9-23.1
		s10.9-7.1,20.3-6.6s24.8,2.4,28.8,2.4C259.2,318,279.8,315.8,279.8,315.8z"/>
	<path class="st15" d="M188,360.3c3.9-6.9,10.4-18.7,12.2-23.5c2.7-7,5.7-13,5.7-13"/>
	<path class="st15" d="M185.1,365.5c0,0,0.5-0.8,1.2-2.1"/>
	<path class="st0" d="M243,258.8c0,0-4.6,5.8-5.8,10.5s-5.8,21.4-6.8,22.6s-3.9,5.5-6.8,7.5s-12.2,5.8-15.7,8.8s-1.8,4.4-3.2,6.8
		s5,3.8,6.4,3.8s11.8-0.6,17.6-2.7s14.9-13.5,15.3-14.2s2-11,2.5-23S249,258.8,243,258.8z"/>
	<g>
		<defs>
			<path id="SVGID_00000054963702622218959520000017108074227300516026_" d="M243,258.8c0,0-4.6,5.8-5.8,10.5s-5.8,21.4-6.8,22.6
				s-3.9,5.5-6.8,7.5s-12.2,5.8-15.7,8.8s-1.8,4.4-3.2,6.8s5,3.8,6.4,3.8s11.8-0.6,17.6-2.7s14.9-13.5,15.3-14.2s2-11,2.5-23
				S249,258.8,243,258.8z"/>
		</defs>
		<clipPath id="SVGID_00000041284210471484536030000017794508025124392095_">
			<use xlink:href="#SVGID_00000054963702622218959520000017108074227300516026_"  style="overflow:visible;"/>
		</clipPath>
		<g style="clip-path:url(#SVGID_00000041284210471484536030000017794508025124392095_);">
			<path class="st17" d="M247.3,267.7c-0.1-0.8-0.2-1.3-0.2-1.3l-5.9,4.6c-1.8,3-2.6,6.5-2.4,10c0.3,6.2,1.8,10.3,0.9,10.3
				s-3.8-3.5-3.8,0s2.1,6.2,2.7,8.3s-7.4-6.8-6.5-3.8s4.7,6.5,4.4,8.3s-5-6.2-6.8-4.1s-0.3,5.6-2.1,6.2c-1.5,0.5-13.9,9.6-15.2,12.8
				c3.3-0.2,11.4-0.9,16.3-2.6c5.8-2,14.9-13.5,15.3-14.2s2-11,2.5-23C246.8,274.7,247.2,270.8,247.3,267.7z"/>
		</g>
	</g>
	<path class="st9" d="M243,258.8c0,0-4.6,5.8-5.8,10.5s-5.8,21.4-6.8,22.6s-3.9,5.5-6.8,7.5s-12.2,5.8-15.7,8.8s-1.8,4.4-3.2,6.8
		s5,3.8,6.4,3.8s11.8-0.6,17.6-2.7s14.9-13.5,15.3-14.2s2-11,2.5-23S249,258.8,243,258.8z"/>
	<path class="st9" d="M241.2,301.5c0,0-8.4-9.5-8.7-7.3s5.7,7.3,5.7,9.8s-8.7-7-9.5-4.3c-0.4,1.6,0.4,3.2,1.9,3.8"/>
	<path class="st10" d="M212.9,308.8c0,0-4.9-1.8-6.9,0s-9.7,8.2-6.6,10s8.6,1.9,10.5,0.3c1.1-0.9,2.3-1.7,3.6-2.3
		c0,0-0.8,2.8,1.8,1.3s4.9-6.7,3.3-7.9S212.9,308.8,212.9,308.8z"/>
	<path class="st11" d="M241.1,258c-0.7,6.2-1,12.4-0.9,18.6c0.3,8,1.7,23.8,0.1,28.8s-1.5,9.5,1.6,11.5s17,4.2,25.7,3
		s13.9-2.7,14.5-6s0.9-32.1-0.7-42.6s-4.8-20.3-8-23.5s-6.5-2-14.6,1.2S243.4,254.8,241.1,258z"/>
	<path class="st10" d="M258,273.1c0,0-7.6,4.7-18.2,0c0,0-0.5,5,0.2,5c3.3,1,6.7,1.5,10.1,1.4c6.8,0,9.4-1.6,9.4-1.6L258,273.1z"/>
	<path class="st10" d="M257.3,255.9c0,0-3.1,7.5-2.4,14.4s3.1,12.5,9.9,12.5s12.5-14.9,12.8-23.1s-2.6-11.8-9.2-11.8
		S257.3,255.9,257.3,255.9z"/>
	<path class="st0" d="M239.8,256.4c0,0,4,8,5,9.6s1.2,0.9,2.2,0.4s20.4-17.2,22.2-17.9s5.2,0.9,5.4-0.8s-7.2-12.5-9.3-14.2
		s-6.4,4.8-7.4,5.3s-1.5,0-3.3,0.4S243.3,251.5,239.8,256.4z"/>
	<g>
		<defs>
			<path id="SVGID_00000105391028080264172040000007041106231495365266_" d="M239.8,256.4c0,0,4,8,5,9.6s1.2,0.9,2.2,0.4
				s20.4-17.2,22.2-17.9s5.2,0.9,5.4-0.8s-7.2-12.5-9.3-14.2s-6.4,4.8-7.4,5.3s-1.5,0-3.3,0.4S243.3,251.5,239.8,256.4z"/>
		</defs>
		<clipPath id="SVGID_00000018929156064323884930000016094940736195102874_">
			<use xlink:href="#SVGID_00000105391028080264172040000007041106231495365266_"  style="overflow:visible;"/>
		</clipPath>
		<g style="clip-path:url(#SVGID_00000018929156064323884930000016094940736195102874_);">
			<path class="st17" d="M265.4,233.4c-2.1-1.7-6.4,4.8-7.4,5.3s-1.5,0-3.3,0.4c-1.1,0.2-4.8,4.4-8.4,8.8l2,11.3
				c0,0,9.2-4.2,11.8-5.6c-2.5,2.5-4.9,5.1-7.1,7.9c6.2-5.2,15-12.6,16.2-13.1c1.7-0.7,5.2,0.9,5.4-0.8S267.5,235.2,265.4,233.4z"/>
		</g>
	</g>
	<path class="st9" d="M239.8,256.4c0,0,4,8,5,9.6s1.2,0.9,2.2,0.4s20.4-17.2,22.2-17.9s5.2,0.9,5.4-0.8s-7.2-12.5-9.3-14.2
		s-6.4,4.8-7.4,5.3s-1.5,0-3.3,0.4S243.3,251.5,239.8,256.4z"/>
	<path class="st9" d="M254.4,249c0,0,12.8-8.9,8.4-8.9s-4.9,5.4-4.9,5.4"/>
	<path class="st5" d="M243.9,255.6l4.4,3.6c2.2-3.3,4.3-6.7,6.1-10.2l-2.2-7.4L243.9,255.6z"/>
	<g>
		<defs>
			<path id="SVGID_00000122703327431536357220000010486765602257654696_" d="M243.9,255.6l4.4,3.6c2.2-3.3,4.3-6.7,6.1-10.2
				l-2.2-7.4L243.9,255.6z"/>
		</defs>
		<clipPath id="SVGID_00000152241362934160616850000000164082760761893272_">
			<use xlink:href="#SVGID_00000122703327431536357220000010486765602257654696_"  style="overflow:visible;"/>
		</clipPath>
		<g style="clip-path:url(#SVGID_00000152241362934160616850000000164082760761893272_);">
			<path class="st0" d="M243.9,255.6l4.4,3.6c2.2-3.3,4.3-6.7,6.1-10.2l-2.2-7.4L243.9,255.6z"/>
			<path class="st2" d="M243.9,255.6l4.4,3.6c2.2-3.3,4.3-6.7,6.1-10.2l-2.2-7.4L243.9,255.6z"/>
		</g>
	</g>
	<path class="st9" d="M243.9,255.6l4.4,3.6c2.2-3.3,4.3-6.7,6.1-10.2l-2.2-7.4L243.9,255.6z"/>
	<path class="st5" d="M230,218.8c-2.2,2.9-3.5,6.4-3.5,10c0,6.6,2.9,16.6,4.9,20.7s7,9.8,9.4,10s8.4-9,9.6-11.3
		c0.7-1.2,1.2-2.5,1.5-3.9c0,0,3.4-1.6,3.1-8s-2.9-15.9-2.2-17.5s3.7-4.6,3.1-5.7s-2-0.3-3.4,0.5s-7-0.4-11.1,0
		c-2.8,0.3-5.4,1.1-7.9,2.4C232,216.8,230.9,217.7,230,218.8z"/>
	<g>
		<defs>
			<path id="SVGID_00000181058985396115333550000009199807743875117697_" d="M230,218.8c-2.2,2.9-3.5,6.4-3.5,10
				c0,6.6,2.9,16.6,4.9,20.7s7,9.8,9.4,10s8.4-9,9.6-11.3c0.7-1.2,1.2-2.5,1.5-3.9c0,0,3.4-1.6,3.1-8s-2.9-15.9-2.2-17.5
				s3.7-4.6,3.1-5.7s-2-0.3-3.4,0.5s-7-0.4-11.1,0c-2.8,0.3-5.4,1.1-7.9,2.4C232,216.8,230.9,217.7,230,218.8z"/>
		</defs>
		<clipPath id="SVGID_00000155836409437534951840000011263857865559531160_">
			<use xlink:href="#SVGID_00000181058985396115333550000009199807743875117697_"  style="overflow:visible;"/>
		</clipPath>
		<g style="clip-path:url(#SVGID_00000155836409437534951840000011263857865559531160_);">
			<path class="st0" d="M241.2,259.4c2.6-0.5,8.1-9.1,9.3-11.2c0.7-1.2,1.2-2.5,1.5-3.9c0,0,3.4-1.6,3.1-8s-2.9-15.9-2.2-17.5
				s3.7-4.6,3.1-5.7c-0.3-0.4-0.8-0.6-1.3-0.5c-3.6,2.7-6.9,5.8-9.9,9.3c-4.1,5.3-0.2,12.7-0.2,12.7s2.6,6.7,2.1,11.5
				C246.1,250,243.5,255.8,241.2,259.4z"/>
			<path class="st2" d="M241.2,259.4c2.6-0.5,8.1-9.1,9.3-11.2c0.7-1.2,1.2-2.5,1.5-3.9c0,0,3.4-1.6,3.1-8s-2.9-15.9-2.2-17.5
				s3.7-4.6,3.1-5.7c-0.3-0.4-0.8-0.6-1.3-0.5c-3.6,2.7-6.9,5.8-9.9,9.3c-4.1,5.3-0.2,12.7-0.2,12.7s2.6,6.7,2.1,11.5
				C246.1,250,243.5,255.8,241.2,259.4z"/>
		</g>
	</g>
	<path class="st9" d="M230,218.8c-2.2,2.9-3.5,6.4-3.5,10c0,6.6,2.9,16.6,4.9,20.7s7,9.8,9.4,10s8.4-9,9.6-11.3
		c0.7-1.2,1.2-2.5,1.5-3.9c0,0,3.4-1.6,3.1-8s-2.9-15.9-2.2-17.5s3.7-4.6,3.1-5.7s-2-0.3-3.4,0.5s-7-0.4-11.1,0
		c-2.8,0.3-5.4,1.1-7.9,2.4C232,216.8,230.9,217.7,230,218.8z"/>
	<path class="st9" d="M233.8,239.8c-0.1,1.2-0.5,2.4-1.2,3.4c-1.1,1.3-0.5,2.2,1.1,2.1c0.9-0.1,1.8-0.4,2.5-1.1"/>
	<path class="st10" d="M233.6,234.2c0,0-10.5,1.6-11.4,3.2s5.6,7.6,7.6,6.5s3.4-5.1,5-5s4.9,3.3,7.8,2.8s6.4-7.3,6.1-8.6
		S236.9,233.4,233.6,234.2z"/>
	<path class="st11" d="M239.6,236.6c-5.3-2.5-7.1,0-10.9,3.2c-1.1,0.9-2.4,1.6-3.8,2.1c1.8,1.5,3.8,2.7,4.8,2.2c2-1.1,3.4-5.1,5-5
		s4.9,3.3,7.8,2.8c1.6-0.3,3.4-2.4,4.6-4.6C244.6,237.7,242,237.5,239.6,236.6z"/>
	<path class="st9" d="M235,248.2c2.7,0.7,5.6-0.3,7.2-2.7"/>
	<path class="st11" d="M248.7,231.6c0,0,1.3,6.4,0.9,7.8s1.1,0.4,1.6-2.1c0.3-1.1,0.5-2.3,0.5-3.5
		C251,232.8,249.9,232.1,248.7,231.6z"/>
	<path class="st21" d="M255.7,213.1c-0.7-1.1-2-0.3-3.4,0.5s-7-0.4-11.1,0c-2.8,0.3-5.4,1.1-7.9,2.4c-1.3,0.7-2.4,1.6-3.3,2.7
		c-2.2,2.9-3.5,6.4-3.5,10c0,1.5,0.1,3,0.4,4.6c3.8-2.7,14.2-7.9,28.1,3.7c0-0.2,0-0.4,0-0.7c-0.4-6.4-2.9-15.9-2.2-17.5
		S256.4,214.2,255.7,213.1z"/>
	<g>
		<defs>
			<path id="SVGID_00000078010736651008543000000007777959883727378828_" d="M255.7,213.1c-0.7-1.1-2-0.3-3.4,0.5s-7-0.4-11.1,0
				c-2.8,0.3-5.4,1.1-7.9,2.4c-1.3,0.7-2.4,1.6-3.3,2.7c-2.2,2.9-3.5,6.4-3.5,10c0,1.5,0.1,3,0.4,4.6c3.8-2.7,14.2-7.9,28.1,3.7
				c0-0.2,0-0.4,0-0.7c-0.4-6.4-2.9-15.9-2.2-17.5S256.4,214.2,255.7,213.1z"/>
		</defs>
		<clipPath id="SVGID_00000160168798851617209660000014951304510781883801_">
			<use xlink:href="#SVGID_00000078010736651008543000000007777959883727378828_"  style="overflow:visible;"/>
		</clipPath>
		<g style="clip-path:url(#SVGID_00000160168798851617209660000014951304510781883801_);">
			<path class="st0" d="M239.1,215.8c3.7-0.7,5.1-0.2,5.6,0.1c0.2,0.2,0.4,0.4,0.4,0.7c0.3,2.5,2.8,2.5,5.6,2.5
				c0.7,0,1.4,0.3,1.9,0.8c0-0.3,0-0.7,0.1-1c0-0.1,0.1-0.1,0.1-0.2c-0.6-0.4-1.4-0.7-2.1-0.7c-2.9,0-4.3-0.1-4.5-1.6
				c-0.1-0.6-0.4-1.1-0.8-1.4c-1.1-0.8-3.2-0.9-6.4-0.3c-1.4,0.2-1.7,0.1-2.2-0.1c-0.5,0.2-1,0.3-1.5,0.5c0.3,0.1,0.7,0.2,1,0.4
				C237.1,216,238.2,216.1,239.1,215.8z"/>
			<path class="st0" d="M253.6,232.2c-1.6-3.6-2.6-3.8-4.5-3.2l-0.4,0.1c-1.6,0.5-3.4,0.7-5-1.6s-4.4-2.5-7.5-0.4
				c-1.6,1.1-2.1,0.9-3.5,0.4c-0.4-0.1-0.8-0.3-1.3-0.4c-1.7-0.5-3.6,0.9-4.8,2.1c0,0.5,0,1,0.1,1.5c1.1-1.3,3-3.1,4.4-2.6
				c0.5,0.1,0.9,0.3,1.3,0.4c1.4,0.8,3.2,0.6,4.5-0.5c1.9-1.2,4.4-2.2,6.1,0.1c1.9,2.7,4.2,2.5,6.1,2l0.5-0.1
				c1.3-0.4,1.8-0.6,3.2,2.6c0.5,1.2,1.2,2.2,2.2,3c0-0.5-0.1-1.1-0.2-1.7C254.3,233.4,253.9,232.8,253.6,232.2z"/>
			<path class="st0" d="M251.1,213.9c-0.4,0-0.9,0-1.3,0c1,1.5,2.6,2.4,4.3,2.7c0.2-0.3,0.5-0.6,0.7-1
				C253.4,215.5,252.1,214.9,251.1,213.9z"/>
			<path class="st0" d="M230.7,222.1c0.5,0,1,0.1,1.4,0.4c0.6,0.4,1.2,0.7,3.1,0.1c0.8-0.3,1.5-0.6,2.2-0.9c2.2-1,3.5-1.5,4.6-0.3
				c1.8,2.1,3,2.7,5.2,2.7h1.1c1.9-0.1,3.2-0.1,3.7,1c0.4,0.9,1,1.6,1.7,2.2c-0.1-0.6-0.2-1.3-0.3-1.9c-0.2-0.2-0.3-0.5-0.4-0.8
				c-0.8-1.8-2.9-1.7-4.7-1.6h-1.1c-1.8,0-2.6-0.3-4.4-2.3c-1.6-1.8-3.6-0.9-5.8,0c-0.7,0.3-1.4,0.6-2.1,0.8
				c-1.5,0.5-1.8,0.3-2.2,0.1c-0.6-0.4-1.3-0.6-2-0.6c-1,0.1-1.9,0.5-2.7,1.1c-0.3,0.7-0.6,1.4-0.8,2.1
				C228.3,223.2,229.6,222.1,230.7,222.1z"/>
		</g>
	</g>
	<path class="st9" d="M255.7,213.1c-0.7-1.1-2-0.3-3.4,0.5s-7-0.4-11.1,0c-2.8,0.3-5.4,1.1-7.9,2.4c-1.3,0.7-2.4,1.6-3.3,2.7
		c-2.2,2.9-3.5,6.4-3.5,10c0,1.5,0.1,3,0.4,4.6c3.8-2.7,14.2-7.9,28.1,3.7c0-0.2,0-0.4,0-0.7c-0.4-6.4-2.9-15.9-2.2-17.5
		S256.4,214.2,255.7,213.1z"/>
	<path class="st10" d="M230,307.6c-2.4-0.2-4.9-0.6-7.2-1.3c-3-0.9-4.6-1.6-6.3-0.3s-6,8-6.3,9.4s1,2.5,1.6,2s6-4.2,6-4.2
		c1.4,1.2,3.1,2,4.9,2.4c1.5,0.2,3-0.2,4.2-1.1l3,0.5L230,307.6z"/>
	<path class="st0" d="M274.8,253.1c0,0-3.9-3.9-11,1.9s-5,17.3-4.9,22s1.9,16.7,1.9,19.2v4.1c0,0-9.3,4.1-12.9,5.2
		s-10.7,1.3-12.3,1.6s-5.5-1.4-6.4,0.3s-2.8,8.3-0.3,9.4s15.1,1.3,23.9,1.3c8.8,0,22.3-2.2,25.5-4.1s2.5-12.7,2.5-20.1
		s-0.2-23.8-1.4-30.5S276,254.4,274.8,253.1z"/>
	<g>
		<defs>
			<path id="SVGID_00000125586679342139999390000006693425224822226310_" d="M274.8,253.1c0,0-3.9-3.9-11,1.9s-5,17.3-4.9,22
				s1.9,16.7,1.9,19.2v4.1c0,0-9.3,4.1-12.9,5.2s-10.7,1.3-12.3,1.6s-5.5-1.4-6.4,0.3s-2.8,8.3-0.3,9.4s15.1,1.3,23.9,1.3
				c8.8,0,22.3-2.2,25.5-4.1s2.5-12.7,2.5-20.1s-0.2-23.8-1.4-30.5S276,254.4,274.8,253.1z"/>
		</defs>
		<clipPath id="SVGID_00000118381263184403176160000014533817484867351198_">
			<use xlink:href="#SVGID_00000125586679342139999390000006693425224822226310_"  style="overflow:visible;"/>
		</clipPath>
		<g style="clip-path:url(#SVGID_00000118381263184403176160000014533817484867351198_);">
			<path class="st17" d="M279.4,263.4c-1.3-6.8-3.3-9-4.6-10.2c0,0-2.1-2.1-6.1-0.9l-0.3,0.4c0,0,6.2,0.9,5,3.5
				c-1.2,2.6-11.5,10.9-11.5,10.9s5.9-3.5,11.2-3.8s2.1,3.2-0.9,3.8s8.3,1.5,3.8,2.7s-8.9-0.6-6.8,2.4s10.3,3.8,8,6.8
				s-10,5.9-8.3,10.3s9.7,3.5,9.7,6.2s-2.1,3.8-5.9,4.4s6.9,1.1,4.3,5.1s-5.5-1.9-10.2,1.1s-7.1,8.3-13.9,8.9s-12.1,0-17.4,1.8
				c-1,0.3-1.9,0.6-2.8,0.9c5.1,0.5,13.5,0.6,20,0.6c8.8,0,22.3-2.2,25.5-4.1s2.5-12.7,2.5-20.1S280.6,270.1,279.4,263.4z"/>
		</g>
	</g>
	<path class="st9" d="M274.8,253.1c0,0-3.9-3.9-11,1.9s-5,17.3-4.9,22s1.9,16.7,1.9,19.2v4.1c0,0-9.3,4.1-12.9,5.2
		s-10.7,1.3-12.3,1.6s-5.5-1.4-6.4,0.3s-2.8,8.3-0.3,9.4s15.1,1.3,23.9,1.3c8.8,0,22.3-2.2,25.5-4.1s2.5-12.7,2.5-20.1
		s-0.2-23.8-1.4-30.5S276,254.4,274.8,253.1z"/>
	<path class="st9" d="M262.9,300.7c0,0,7.3,0.3,11.4,5.1"/>
	<path class="st9" d="M263.1,299.6c0,0,7-2.2,10.8-0.5s7.3-1.1,1.1-3.2s-11.2,0.4-12.7,2.4"/>
	<path class="st9" d="M275,260.4c0,0-2.2-2.4-9,3s-5.1,8.7-0.8,6.5s11.9-4.9,12.5-1.6s-7.6,1.6-6,3.5s5.4,1.9,5.4,1.9"/>
	<rect x="185.9" y="319.1" class="st12" width="48.1" height="2.2"/>
	<rect x="185.9" y="319.1" class="st12" width="26.3" height="2.2"/>
	<polygon class="st12" points="185.9,319.1 175.2,295.3 204,295.3 212.2,319.1 	"/>
	<path class="st5" d="M251.7,411.4c0,0-29.7-34-32.6-34s-69.4,12.7-71.7,16s-10.9,20.3-10.9,20.3h119.4L251.7,411.4z"/>
	<g>
		<defs>
			<path id="SVGID_00000130641435312744535770000015651783624838387879_" d="M251.7,411.4c0,0-29.7-34-32.6-34s-69.4,12.7-71.7,16
				s-10.9,20.3-10.9,20.3h119.4L251.7,411.4z"/>
		</defs>
		<clipPath id="SVGID_00000143607189817496904450000011106599005058902668_">
			<use xlink:href="#SVGID_00000130641435312744535770000015651783624838387879_"  style="overflow:visible;"/>
		</clipPath>
		<g style="clip-path:url(#SVGID_00000143607189817496904450000011106599005058902668_);">
			<path class="st14" d="M221.3,375.3l32.9,34.7l6.2,5.5l-127.9-0.7l14.6-23.8l69.4-16.1C216.5,374.9,218,374.2,221.3,375.3z"/>
			<path class="st5" d="M219,383.5c0,1.2-2,2.2-4.5,2.2s-4.5-1-4.5-2.2s2-2.2,4.5-2.2S219,382.3,219,383.5z"/>
			<path class="st5" d="M192.1,397.9c0,3.2-3.5,5.8-7.8,5.8s-7.8-2.6-7.8-5.8s3.5-5.8,7.8-5.8S192.1,394.8,192.1,397.9z"/>
			<path class="st5" d="M216.9,389.5c0,3.2-3.5,5.8-7.8,5.8s-7.8-2.6-7.8-5.8s3.5-5.8,7.8-5.8S216.9,386.3,216.9,389.5z"/>
			<path class="st5" d="M198.9,392.5c0,1.7-1.9,3.1-4.2,3.1s-4.2-1.4-4.2-3.1s1.9-3,4.2-3S198.9,390.8,198.9,392.5z"/>
			<ellipse class="st5" cx="199.6" cy="386.4" rx="4.2" ry="3.1"/>
			<ellipse class="st5" cx="193.3" cy="388.2" rx="4.2" ry="3.1"/>
			<path class="st5" d="M159.4,399.3c0,1.7-1.9,3.1-4.2,3.1s-4.2-1.4-4.2-3.1s1.9-3,4.2-3S159.4,397.6,159.4,399.3z"/>
			<path class="st5" d="M169.7,394.2c0,1.3-1.8,2.4-4.1,2.4s-4.1-1.1-4.1-2.4s1.8-2.4,4.1-2.4S169.7,392.9,169.7,394.2z"/>
			<path class="st6" d="M238.4,396.6l-0.2,0.1l-19.1-19.2l-8.4,19.8l-40.2,5.8l-33.9,10.8h119.4l-4.2-2.4
				C251.7,411.4,245.5,404.3,238.4,396.6z"/>
		</g>
	</g>
	<path class="st9" d="M251.7,411.4c0,0-29.7-34-32.6-34s-69.4,12.7-71.7,16s-10.9,20.3-10.9,20.3h119.4L251.7,411.4z"/>
</g>
<g id="freepik--Trophy--inject-7">
	<g>
		<rect x="305.9" y="331.9" class="st11" width="4.1" height="17.5"/>
		<polygon class="st11" points="314,353.1 301.8,353.1 303.3,346.3 312.6,346.3 		"/>
		<polygon class="st11" points="321.3,356 294.5,356 297.4,349.7 318.5,349.7 		"/>
		<path class="st11" d="M294.3,313.3c-5.3-0.1-9.7,4.1-9.8,9.5c-0.1,5.3,4.1,9.7,9.5,9.8s9.7-4.1,9.8-9.5c0-0.1,0-0.1,0-0.2
			C303.9,317.7,299.6,313.4,294.3,313.3C294.3,313.3,294.3,313.3,294.3,313.3z M294.3,330.2c-4,0.1-7.3-3.1-7.3-7.1s3.1-7.3,7.1-7.3
			c4-0.1,7.3,3.1,7.3,7.1c0,0,0,0.1,0,0.1C301.4,327,298.3,330.1,294.3,330.2L294.3,330.2z"/>
		<path class="st11" d="M322.9,313.3c-5.3-0.1-9.7,4.1-9.8,9.5c-0.1,5.3,4.1,9.7,9.5,9.8s9.7-4.1,9.8-9.5c0-0.1,0-0.1,0-0.2
			C332.5,317.7,328.2,313.4,322.9,313.3C322.9,313.3,322.9,313.3,322.9,313.3z M322.9,330.2c-4,0.1-7.3-3.1-7.3-7.1
			c-0.1-4,3.1-7.3,7.1-7.3c4-0.1,7.3,3.1,7.3,7.1c0,0,0,0.1,0,0.1C330,327,326.9,330.1,322.9,330.2L322.9,330.2z"/>
		<path class="st11" d="M307.9,336.7L307.9,336.7c-6.6,0-12-5.3-12-12c0,0,0,0,0,0v-12.3h23.9v12.3
			C319.9,331.3,314.5,336.7,307.9,336.7z"/>
	</g>
	<polygon class="st21" points="307.6,316.3 309.1,321.1 314.1,321.1 310.1,324 311.6,328.8 307.6,325.8 303.6,328.8 305.1,324 
		301.1,321.1 306.1,321.1 	"/>
</g>
</svg>
