<?xml version="1.0" encoding="utf-8"?>
<!-- Generator: Adobe Illustrator 27.2.0, SVG Export Plug-In . SVG Version: 6.00 Build 0)  -->
<svg version="1.1" id="Layer_1" xmlns="http://www.w3.org/2000/svg" xmlns:xlink="http://www.w3.org/1999/xlink" x="0px" y="0px"
	 viewBox="0 0 500 500" style="enable-background:new 0 0 500 500;" xml:space="preserve">
<style type="text/css">
	.st0{opacity:0.8;fill:#EAEFEA;enable-background:new    ;}
	.st1{enable-background:new    ;}
	.st2{fill:#CBD7CA;}
	.st3{opacity:0.5;fill:#CBD7CA;enable-background:new    ;}
	.st4{fill:none;stroke:#263238;stroke-linecap:round;stroke-linejoin:round;}
	.st5{fill:#BDC6BC;stroke:#263238;stroke-linecap:round;stroke-linejoin:round;}
	.st6{fill:#D1DBD0;stroke:#263238;stroke-miterlimit:10;}
	.st7{fill:#A8C2A6;}
	.st8{opacity:0.25;enable-background:new    ;}
	.st9{opacity:0.15;enable-background:new    ;}
	.st10{fill:#263238;}
	.st11{fill:#455A64;}
	.st12{opacity:0.4;enable-background:new    ;}
	.st13{fill:#263238;stroke:#263238;stroke-linecap:round;stroke-linejoin:round;}
</style>
<path class="st0" d="M63,135.9c-75.5,88.8-71.7,235.5-11.5,279.4c29.9,21.8,55.7,5.1,151.1,0c174.6-9.3,226.4,39.4,263.4,4.6
	c59-55.6,25.7-272.9-121.4-341.2C255.6,37.2,132.5,54.1,63,135.9z"/>
<g id="freepik--Clouds--inject-4_00000106841915998552409810000003493811464319938739_" class="st1">
	<path class="st2" d="M428,130c-10.6-10.4-18.8-23.9-34.1-23.9c-11.4,0-14.7,12.5-24.3,15.8c-10.1,3.5-17.8-5.5-27-7.5
		c-15.5-3.2-15,7.7-21.8,16.9c-6.4,8.8-20.4-3.6-27.4,6.8c-6,9-15.2,15-20.1,14c-5-1-16-7-26.1-1c-10,6-14.1,11.1-24.1,11.1
		c-10.1,0-23.1,3-23.1,3h271.2c0,0-9-22.1-23.1-24.1C439.8,140.1,433.6,135.5,428,130z"/>
	<path class="st2" d="M116,170.5c-5.4-5.3-9.6-12.2-17.4-12.2c-5.8,0-7.5,6.3-12.4,8c-5.1,1.8-9-2.8-13.7-3.8
		c-7.9-1.6-7.6,3.9-11.1,8.6c-3.2,4.5-10.4-1.8-13.9,3.5c-3.1,4.6-7.7,7.6-10.2,7.1c-2.5-0.5-8.2-3.6-13.3-0.5
		c-5.1,3.1-7.1,5.6-12.3,5.6c-4,0.1-7.9,0.7-11.7,1.5h137.6c0,0-4.3-11.2-11.4-12.3C122.3,175.5,118.7,173.5,116,170.5z"/>
	<path class="st2" d="M255.5,57.7c-3-3-5.4-6.9-9.8-6.9c-3.3,0-4.3,3.6-7,4.6s-5.1-1.6-7.8-2.1c-4.5-0.9-4.3,2.2-6.3,4.9
		c-2,2.7-5.9-1-7.9,2c-1.8,2.6-4.4,4.3-5.8,4c-1.4-0.2-4.6-2-7.5-0.3c-2.9,1.7-4.1,3.2-7,3.2c-2.2,0.1-4.5,0.4-6.6,0.9h73.8
		c0,0,1.7-6.4-2.3-6.9C259.1,60.6,257.1,59.4,255.5,57.7z"/>
	<path class="st3" d="M428,130c-10.6-10.4-18.8-23.9-34.1-23.9c-11.4,0-14.7,12.5-24.3,15.8c-10.1,3.5-17.8-5.5-27-7.5
		c-15.5-3.2-15,7.7-21.8,16.9c-6.4,8.8-20.4-3.6-27.4,6.8c-6,9-15.2,15-20.1,14c-5-1-16-7-26.1-1c-10,6-14.1,11.1-24.1,11.1
		c-10.1,0-23.1,3-23.1,3h271.2c0,0-9-22.1-23.1-24.1C439.8,140.1,433.6,135.5,428,130z"/>
	<path class="st3" d="M116,170.5c-5.4-5.3-9.6-12.2-17.4-12.2c-5.8,0-7.5,6.3-12.4,8c-5.1,1.8-9-2.8-13.7-3.8
		c-7.9-1.6-7.6,3.9-11.1,8.6c-3.2,4.5-10.4-1.8-13.9,3.5c-3.1,4.6-7.7,7.6-10.2,7.1c-2.5-0.5-8.2-3.6-13.3-0.5
		c-5.1,3.1-7.1,5.6-12.3,5.6c-4,0.1-7.9,0.7-11.7,1.5h137.6c0,0-4.3-11.2-11.4-12.3C122.3,175.5,118.7,173.5,116,170.5z"/>
	<path class="st3" d="M255.5,57.7c-3-3-5.4-6.9-9.8-6.9c-3.3,0-4.3,3.6-7,4.6s-5.1-1.6-7.8-2.1c-4.5-0.9-4.3,2.2-6.3,4.9
		c-2,2.7-5.9-1-7.9,2c-1.8,2.6-4.4,4.3-5.8,4c-1.4-0.2-4.6-2-7.5-0.3c-2.9,1.7-4.1,3.2-7,3.2c-2.2,0.1-4.5,0.4-6.6,0.9h73.8
		c0,0,1.7-6.4-2.3-6.9C259.1,60.6,257.1,59.4,255.5,57.7z"/>
</g>
<line class="st4" x1="19.5" y1="305" x2="474.3" y2="305"/>
<path class="st5" d="M41.5,306.7c0,0,64.2-40.9,73.6-40.9s69.8,40.5,69.8,40.5s125.6-47.5,136.8-46.9s41.1,15.8,42.8,16.4
	c1.7,0.6,26.4-6.4,34-3.5s60,34.5,60,34.5L41.5,306.7z"/>
<path class="st6" d="M162.3,307.7c-6.8-4.6-19.4-13.4-20.8-16.3c-2-4-8,0-15-2s-14.6-22.6-14.6-22.6c-9.4,0-73.6,40.9-73.6,40.9
	H162.3z"/>
<path class="st6" d="M328.1,280.7c-4.2-3.2-8.1-6.6-11.7-10.4l3.5-10.8c-18.7,2.8-135,46.8-135,46.8l-0.4-0.2l-1.1,0.4l275,0.3
	l-0.2-0.1c-8.2-1.6-20-4-21-4.2c-1.7-0.4-16.2-2.1-16.2-2.1s-14.6-4.6-17.5-6.2c-2.9-1.6-13.3-12.1-12.1-14.2
	c1.2-2.1,5.4-7.9,5.4-7.9l-1.1-0.3c-9.6-1-29.7,4.6-31.3,4.1l-17.2,5.3C347.3,281.1,335.6,286.5,328.1,280.7z"/>
<polyline class="st4" points="481,447.3 250.2,305 8.2,454.1 "/>
<line class="st4" x1="149.7" y1="350.9" x2="43.6" y2="411.4"/>
<line class="st4" x1="70.6" y1="387.2" x2="16.6" y2="416"/>
<line class="st4" x1="339.6" y1="348.1" x2="391.8" y2="376.9"/>
<line class="st4" x1="388" y1="367.6" x2="446.7" y2="398.3"/>
<g id="freepik--Plants--inject-18">
	<g id="freepik--Tree--inject-18">
		<g id="freepik--tree--inject-18">
			<path class="st7" d="M67.6,314.8c0.8-0.1,1.6,0.1,2.3,0.4c1.3,0.7,2.6,1.6,3.7,2.6c1.2,1,2.6,1.6,4.1,1.8c1.6,0.1,3-0.9,3.4-2.4
				c0-0.3,0.1-0.5,0.2-0.8c0.3-0.4,0.8-0.5,1.3-0.3c0.4,0.2,0.8,0.4,1.2,0.7c1.5,0.9,3.4,0.7,5.2,0.4c1.5-0.2,3.3-0.9,3.3-2.3
				c0-1-0.8-1.7-1.5-2.4s-1.2-1.8-0.6-2.6c0.2-0.2,0.5-0.4,0.8-0.5c1.8-0.6,4.1,0.2,5.6-0.9c1.1-1,1.5-2.5,0.8-3.9
				c-0.7-1.3-1.9-2.2-3.3-2.5c-1.2-0.3-2.8-0.5-3.2-1.6c-0.4-1,0.4-2.1,1.3-2.8c1-0.5,1.9-1.2,2.6-2c0.6-1,0.7-2.2,0.1-3.3
				c-0.6-1-1.6-1.7-2.8-1.9c-0.6,0-1.1-0.2-1.7-0.4c-0.5-0.2-0.8-0.9-0.6-1.4c0.2-0.3,0.5-0.5,0.7-0.7c0.3-0.6,0.1-1.4-0.5-1.7
				c-0.6-0.3-1.2-0.6-1.9-0.7c-1.3-0.4-1.4-1.7-1-3s1.1-1.9,1.7-3.2c0.4-1.3-0.2-2.6-1.4-3.3c-1.1-0.6-2.3-1.1-3.5-1.6
				c-1.2-0.5-2.1-1.5-2.3-2.8c-0.1-1.3,0.9-2.4,1.7-3.5s1.5-2.5,0.8-3.6c-0.7-1.1-2.2-1.1-3.4-1.5c-1.5-0.5-2.7-1.6-3.3-3
				c-0.3-0.7-0.5-1.6-0.9-2.3c-1.2-2.2-4.2-3.2-6.5-2.9c-1,0.1-1.8,0.6-2.2,1.5c-0.4,0.4-0.7,1-0.8,1.5c-0.2,0.9,0.3,2-0.2,2.8
				s-1.7,1.2-2.4,1.8c-0.8,0.8-1.2,1.9-1.2,3.1c0,0.5,0,0.9,0.1,1.4c0.2,0.7,0.4,1.3,0.5,2c0,0.8-0.5,1.6-1.2,2.1
				c-0.7,0.4-1.5,0.6-2.2,0.5c-1.3,0-2.4-0.1-3.4,0.9c-1.7,1.7-0.7,3.3,0.8,4.7c1.7,1.5,0.8,2.2,0.6,4.2c-0.1,0.9,0.1,1.2-0.7,1.9
				c-1.6,1.2-2.5,0.8-2.1,3.1c0.4,2.1-0.2,1.4-2.1,2.2c-1.6,0.7-2.7,2.5-4.1,3.6c-0.8,0.7-2.2,1.2-2.2,2.5c-0.2,2.4,2.8,1.9,4.2,2.4
				c2.3,0.9,1.6,3.9-0.2,5.1s-4.7,1.6-4.8,4.4c-0.1,2.1,1.1,2.5,2.7,3.2c1.3,0.6,1.1,0.7,1.1,2.3c0,3.1,1,4,4.1,3.5
				c1-0.3,2-0.4,3-0.2c1.2,0.4,0.8,0.6,0.8,1.6c0.1,2.5,3,1.8,4.3,0.7C63.9,316.4,65.7,315,67.6,314.8z"/>
			<path class="st8" d="M67.6,314.8c0.8-0.1,1.6,0.1,2.3,0.4c1.3,0.7,2.6,1.6,3.7,2.6c1.2,1,2.6,1.6,4.1,1.8c1.6,0.1,3-0.9,3.4-2.4
				c0-0.3,0.1-0.5,0.2-0.8c0.3-0.4,0.8-0.5,1.3-0.3c0.4,0.2,0.8,0.4,1.2,0.7c1.5,0.9,3.4,0.7,5.2,0.4c1.5-0.2,3.3-0.9,3.3-2.3
				c0-1-0.8-1.7-1.5-2.4s-1.2-1.8-0.6-2.6c0.2-0.2,0.5-0.4,0.8-0.5c1.8-0.6,4.1,0.2,5.6-0.9c1.1-1,1.5-2.5,0.8-3.9
				c-0.7-1.3-1.9-2.2-3.3-2.5c-1.2-0.3-2.8-0.5-3.2-1.6c-0.4-1,0.4-2.1,1.3-2.8c1-0.5,1.9-1.2,2.6-2c0.6-1,0.7-2.2,0.1-3.3
				c-0.6-1-1.6-1.7-2.8-1.9c-0.6,0-1.1-0.2-1.7-0.4c-0.5-0.2-0.8-0.9-0.6-1.4c0.2-0.3,0.5-0.5,0.7-0.7c0.3-0.6,0.1-1.4-0.5-1.7
				c-0.6-0.3-1.2-0.6-1.9-0.7c-1.3-0.4-1.4-1.7-1-3s1.1-1.9,1.7-3.2c0.4-1.3-0.2-2.6-1.4-3.3c-1.1-0.6-2.3-1.1-3.5-1.6
				c-1.2-0.5-2.1-1.5-2.3-2.8c-0.1-1.3,0.9-2.4,1.7-3.5s1.5-2.5,0.8-3.6c-0.7-1.1-2.2-1.1-3.4-1.5c-1.5-0.5-2.7-1.6-3.3-3
				c-0.3-0.7-0.5-1.6-0.9-2.3c-1.2-2.2-4.2-3.2-6.5-2.9c-1,0.1-1.8,0.6-2.2,1.5c-0.4,0.4-0.7,1-0.8,1.5c-0.2,0.9,0.3,2-0.2,2.8
				s-1.7,1.2-2.4,1.8c-0.8,0.8-1.2,1.9-1.2,3.1c0,0.5,0,0.9,0.1,1.4c0.2,0.7,0.4,1.3,0.5,2c0,0.8-0.5,1.6-1.2,2.1
				c-0.7,0.4-1.5,0.6-2.2,0.5c-1.3,0-2.4-0.1-3.4,0.9c-1.7,1.7-0.7,3.3,0.8,4.7c1.7,1.5,0.8,2.2,0.6,4.2c-0.1,0.9,0.1,1.2-0.7,1.9
				c-1.6,1.2-2.5,0.8-2.1,3.1c0.4,2.1-0.2,1.4-2.1,2.2c-1.6,0.7-2.7,2.5-4.1,3.6c-0.8,0.7-2.2,1.2-2.2,2.5c-0.2,2.4,2.8,1.9,4.2,2.4
				c2.3,0.9,1.6,3.9-0.2,5.1s-4.7,1.6-4.8,4.4c-0.1,2.1,1.1,2.5,2.7,3.2c1.3,0.6,1.1,0.7,1.1,2.3c0,3.1,1,4,4.1,3.5
				c1-0.3,2-0.4,3-0.2c1.2,0.4,0.8,0.6,0.8,1.6c0.1,2.5,3,1.8,4.3,0.7C63.9,316.4,65.7,315,67.6,314.8z"/>
			<path class="st9" d="M92.2,314.3c-0.1-0.3-0.3-0.6-0.6-0.9c-0.2-0.3-0.5-0.5-0.8-0.8c-0.3-0.4-0.6-0.8-0.8-1.3
				c-0.2-0.4-0.1-0.9,0.2-1.3c0.1-0.1,0.2-0.2,0.4-0.3c0.1-0.1,0.3-0.2,0.5-0.2c0.2-0.1,0.4-0.1,0.7-0.1h0.2c0.2,0,0.3,0,0.5-0.1
				h0.2c0.5,0,1.1,0,1.6,0h0.3c0.1,0,0.2,0,0.3,0h0.3l0.3,0l0,0c-0.8-0.2-1.6-0.3-2.5-0.4c-2-0.1-4,0.7-5.4,2.1
				c0.7,0.9,1.1,1.9,1.1,3c-3.5,1-6.9-3.7-10.2-2.3c0.2,1.7,0,4-1.6,4.3c-1,0.1-2-0.4-2.5-1.2c-0.6-0.8-1-1.7-1.6-2.5
				c-0.9-1.2-2.3-1.9-3.8-1.9c-0.6,0.1-1.2,0.1-1.8,0.1c-0.9-0.3-1.7-0.8-2.5-1.4c-0.8-0.4-1.7-1.1-1.5-2c0.1-0.9,1.1-1.2,1.6-1.8
				c0.6-0.7,0.7-1.6,0.4-2.4c-0.3-0.7-1-1.2-1.1-2c-0.1-1,0.9-1.9,1-2.9c-0.1-1-0.8-1.9-1.7-2.2c-0.9-0.3-1.8-0.8-2.6-1.3
				c-0.8-0.6-1-1.8-0.4-2.6c0.2-0.2,0.6-0.4,0.7-0.7c0-0.3,0-0.5-0.2-0.8c-0.8-1-1.7-1.8-2.8-2.5c-1-0.8-2.8-2.4-2.1-3.4
				c-0.3,0.3-0.4,0.8-0.2,1.9c0.4,2.1-0.2,1.4-2.1,2.2c-1.6,0.7-2.7,2.5-4.1,3.6l0,0c-0.2,0.2-0.5,0.3-0.7,0.5c-0.7,0.5-1.5,1-1.5,2
				c0,0.3,0,0.5,0.1,0.8c0.1,0.2,0.2,0.4,0.3,0.5c0.1,0.1,0.1,0.1,0.2,0.2c0.2,0.1,0.4,0.2,0.6,0.3c1,0.3,2.2,0.3,3,0.6
				c0.3,0.1,0.5,0.2,0.7,0.4c0.5,0.4,0.7,1,0.7,1.6c0,1.2-0.6,2.3-1.6,3c-0.2,0.1-0.5,0.3-0.8,0.4c-0.5,0.3-1.1,0.5-1.6,0.8
				c-0.4,0.2-0.8,0.4-1.1,0.7c-0.8,0.6-1.4,1.5-1.4,2.5c-0.2,1.3,0.6,2.5,1.8,2.9c0.3,0.1,0.5,0.2,0.9,0.4c0.8,0.4,1,0.5,1.1,1
				c0,0.2,0,0.5,0,0.7v0.5c0,0.7,0,1.3,0.2,1.9c0.1,0.7,0.6,1.2,1.2,1.5c0.5,0.2,1.1,0.2,1.6,0.2c0.3,0,0.7-0.1,1.1-0.1
				c0.7-0.2,1.5-0.3,2.3-0.3c0.2,0,0.5,0,0.7,0.1c0.3,0.1,0.6,0.2,0.8,0.4l0,0c0.2,0.3,0,0.6,0,1.2c0,0.5,0.2,1,0.5,1.3
				c0.1,0.1,0.2,0.1,0.2,0.2c0.3,0.1,0.6,0.2,0.9,0.2c0.1,0,0.2,0,0.3,0c0.6-0.1,1.2-0.3,1.7-0.6c0.2-0.1,0.4-0.2,0.5-0.4l0.8-0.7
				c0.7-0.6,1.4-1.1,2.2-1.5c0.7-0.3,1.4-0.6,2.1-0.7c0.4-0.1,0.7-0.1,1.1,0c0.4,0.1,0.8,0.2,1.1,0.4c0.3,0.2,0.7,0.3,1,0.6
				c0.3,0.2,0.6,0.4,0.9,0.7c0.6,0.5,1.2,1,1.8,1.4c0.7,0.6,1.6,1.1,2.4,1.4c0.5,0.2,1.1,0.3,1.7,0.3c1.2,0.1,2.3-0.5,3-1.4
				c0.2-0.3,0.4-0.6,0.4-1c0-0.1,0-0.3,0.1-0.4c0-0.1,0.1-0.3,0.1-0.4c0.1-0.1,0.1-0.2,0.2-0.2c0.2-0.1,0.4-0.2,0.7-0.2
				c0.1,0,0.2,0,0.4,0.1c0.4,0.2,0.8,0.4,1.2,0.7c0.6,0.3,1.2,0.5,1.9,0.6l0.7,0.1H87c0.7,0,1.3-0.1,2-0.2c1.1-0.1,2.2-0.6,3-1.4
				c0.2-0.3,0.3-0.6,0.3-1C92.3,314.7,92.3,314.5,92.2,314.3z"/>
			<path class="st10" d="M62.8,289.1l8.4,16.6v-7.6l0.9-32.6l1.2,32.6v5.1l9.2-16.1l-9.2,19.8v44.2c0,0.2-0.1,0.4-0.3,0.4
				c-0.5,0.2-1,0.2-1.5,0c-0.2-0.1-0.3-0.2-0.3-0.4V310L62.8,289.1z"/>
		</g>
		<g id="freepik--Bush--inject-18">
			<path id="freepik--bush--inject-18" class="st11" d="M63.2,353.1c4.1,0.6,7.8-0.5,8.4-4.9c0.5-3.6,0.5-7.4,0-11
				c-0.2-1.3-0.7-2.9-1.9-3.2c-1.1-0.2-2.2,0.4-2.7,1.5c-0.4,1-0.5,2.1-0.4,3.2c-0.7-1.4-1.6-3.1-3.2-3.1c-1.6,0-2.6,1.5-2.6,3
				c0.1,1.5,0.5,2.9,1.3,4.1c-1.1-0.3-2.3-0.1-3.2,0.5c-0.9,1-0.9,2.5-0.1,3.6c0.9,1,2,1.8,3.2,2.3c-0.7-0.3-1.6,0-1.9,0.7
				c0,0.1-0.1,0.1-0.1,0.2c-0.2,0.8,0.1,1.7,0.8,2.2C61.5,352.7,62.3,353.1,63.2,353.1z"/>
			<g id="freepik--bush--inject-18_00000181068052483975724220000016072053381193025417_">
				<path id="freepik--bush--inject-18_00000114766453678607138810000005950377611614100099_" class="st7" d="M70.3,354.9l9.8-5.7
					c0.8-0.5,1.6-1.2,2.1-2c0.6-0.7,1-1.6,1.2-2.5c0.1-0.3,0.1-0.7-0.1-1c-0.3-0.5-1.2-0.3-1.7,0.1c-0.5,0.4-0.9,0.9-1.3,1.3
					c0.2-1.1,0.3-2.3,0.2-3.4c0-0.4-0.1-0.8-0.4-1.1c-0.4-0.3-1-0.3-1.4,0c-1.3,0.7-1.8,2.2-2.3,3.6c0.2-1.4,0.2-2.9-0.1-4.3
					c-0.3-1.5-2.1-2.1-2.7-0.7c-0.3,0.8-0.5,1.6-0.5,2.5c-0.1,1.1,0,2.2,0.2,3.3c-0.6-1.3-1.5-2.6-2.6-3.5c-0.4-0.4-0.9-0.6-1.5-0.5
					c-0.6,0.2-0.7,1.1-0.7,1.7c0.1,1.4,0.6,2.8,1.3,4c-1-0.7-2.2-1.1-3.3-1.3c-0.4-0.1-0.8,0-1,0.3c-0.2,0.5-0.1,1,0.2,1.4
					c0.7,1,1.6,1.8,2.6,2.5c-1-0.3-2.1-0.4-3.2-0.3c-0.3,0-0.6,0.1-0.9,0.4c-0.3,0.4,0.1,1,0.4,1.3c0.7,0.6,1.5,1,2.3,1.4
					c-0.5,0-1,0.1-1.4,0.2c-0.5,0.2-0.7,0.7-0.7,1.2c0.2,0.5,0.5,0.8,1,0.9C67.9,354.9,68.4,355.1,70.3,354.9z"/>
			</g>
		</g>
	</g>
	<g id="freepik--tree--inject-18_00000109031059998643985970000003344509582507163792_">
		<g id="freepik--tree--inject-18_00000117643691363946922920000012354025646144464778_">
			<path class="st7" d="M29.9,324c0.9-0.1,1.8,0.1,2.6,0.5c1.5,0.9,3,1.9,4.3,3c1.3,1.1,3,1.8,4.8,2c1.8,0.2,3.5-1,4-2.8
				c0-0.3,0.1-0.6,0.2-0.9c0.4-0.4,1-0.6,1.5-0.4c0.5,0.2,1,0.5,1.4,0.8c1.8,1,4,0.8,6,0.5c1.7-0.2,3.8-1,3.8-2.7
				c0-1.1-1-1.9-1.8-2.8s-1.4-2.1-0.7-3c0.3-0.3,0.6-0.5,1-0.6c2.1-0.7,4.7,0.2,6.5-1.1c1.3-1.1,1.7-2.9,0.9-4.5
				c-0.8-1.4-2.2-2.5-3.8-2.8c-1.4-0.4-3.2-0.5-3.8-1.9c-0.5-1.2,0.5-2.5,1.5-3.2c1.1-0.7,2.3-1.2,3-2.3c0.7-1.1,0.8-2.6,0.1-3.8
				c-0.7-1.2-1.9-2-3.2-2.2c-0.7-0.1-1.3-0.2-1.9-0.4c-0.6-0.3-1-1-0.7-1.6c0.2-0.4,0.6-0.5,0.8-0.9c0.4-0.7,0.1-1.6-0.6-2
				c-0.7-0.4-1.4-0.7-2.2-0.8c-1.5-0.5-3-2-2.6-3.6c0.4-1.5,2.7-2.1,3.3-3.7c0.6-1.4-0.3-3-1.6-3.8c-1.3-0.7-2.7-1.3-4.1-1.8
				c-1.3-0.6-2.7-1.8-2.8-3.2s1-2.8,2-4s1.7-2.9,0.9-4.2c-0.8-1.3-2.5-1.3-3.9-1.8c-1.7-0.6-3.1-1.8-3.9-3.5c-0.4-0.9-0.5-1.8-1-2.6
				c-1.4-2.6-4.9-3.7-7.6-3.4c-1.1,0.1-2.1,0.7-2.6,1.8c-0.5,0.5-0.8,1.1-0.9,1.8c-0.2,1.2,0.5,2.8-0.7,3.8
				c-1.8,1.4-4.5-0.5-4.4,2.7c0,1.4,0.2,2.7,0.6,4c0.5,1.3,1.5,1.9,0.6,3.4c-1,2-1.7,2-3.8,1.9c-1.5,0-2.8-0.1-3.9,1.1
				c-2,2-0.8,3.8,0.9,5.4c2,1.8,0.9,2.6,0.7,4.8c-0.1,1.1,0.1,1.4-0.9,2.2c-1.9,1.4-2.9,0.9-2.4,3.6c0.5,2.5-0.3,1.6-2.4,2.5
				c-1.9,0.8-3.2,2.9-4.7,4.1c-1,0.8-2.5,1.5-2.6,2.9c-0.2,2.8,3.2,2.2,4.9,2.8c2.7,1.1,1.9,4.6-0.2,5.9s-5.4,1.9-5.6,5
				c-0.1,2.4,1.2,3,3.1,3.8c1.5,0.6,1.3,0.8,1.3,2.6c0,3.6,1.2,4.6,4.8,4.1c1.1-0.3,2.3-0.4,3.4-0.3c1.4,0.4,0.9,0.8,0.9,1.9
				c0.1,2.9,3.5,2.1,4.9,0.8C25.6,325.9,27.7,324.2,29.9,324z"/>
			<path class="st12" d="M29.9,324c0.9-0.1,1.8,0.1,2.6,0.5c1.5,0.9,3,1.9,4.3,3c1.3,1.1,3,1.8,4.8,2c1.8,0.2,3.5-1,4-2.8
				c0-0.3,0.1-0.6,0.2-0.9c0.4-0.4,1-0.6,1.5-0.4c0.5,0.2,1,0.5,1.4,0.8c1.8,1,4,0.8,6,0.5c1.7-0.2,3.8-1,3.8-2.7
				c0-1.1-1-1.9-1.8-2.8s-1.4-2.1-0.7-3c0.3-0.3,0.6-0.5,1-0.6c2.1-0.7,4.7,0.2,6.5-1.1c1.3-1.1,1.7-2.9,0.9-4.5
				c-0.8-1.4-2.2-2.5-3.8-2.8c-1.4-0.4-3.2-0.5-3.8-1.9c-0.5-1.2,0.5-2.5,1.5-3.2c1.1-0.7,2.3-1.2,3-2.3c0.7-1.1,0.8-2.6,0.1-3.8
				c-0.7-1.2-1.9-2-3.2-2.2c-0.7-0.1-1.3-0.2-1.9-0.4c-0.6-0.3-1-1-0.7-1.6c0.2-0.4,0.6-0.5,0.8-0.9c0.4-0.7,0.1-1.6-0.6-2
				c-0.7-0.4-1.4-0.7-2.2-0.8c-1.5-0.5-3-2-2.6-3.6c0.4-1.5,2.7-2.1,3.3-3.7c0.6-1.4-0.3-3-1.6-3.8c-1.3-0.7-2.7-1.3-4.1-1.8
				c-1.3-0.6-2.7-1.8-2.8-3.2s1-2.8,2-4s1.7-2.9,0.9-4.2c-0.8-1.3-2.5-1.3-3.9-1.8c-1.7-0.6-3.1-1.8-3.9-3.5c-0.4-0.9-0.5-1.8-1-2.6
				c-1.4-2.6-4.9-3.7-7.6-3.4c-1.1,0.1-2.1,0.7-2.6,1.8c-0.5,0.5-0.8,1.1-0.9,1.8c-0.2,1.2,0.5,2.8-0.7,3.8
				c-1.8,1.4-4.5-0.5-4.4,2.7c0,1.4,0.2,2.7,0.6,4c0.5,1.3,1.5,1.9,0.6,3.4c-1,2-1.7,2-3.8,1.9c-1.5,0-2.8-0.1-3.9,1.1
				c-2,2-0.8,3.8,0.9,5.4c2,1.8,0.9,2.6,0.7,4.8c-0.1,1.1,0.1,1.4-0.9,2.2c-1.9,1.4-2.9,0.9-2.4,3.6c0.5,2.5-0.3,1.6-2.4,2.5
				c-1.9,0.8-3.2,2.9-4.7,4.1c-1,0.8-2.5,1.5-2.6,2.9c-0.2,2.8,3.2,2.2,4.9,2.8c2.7,1.1,1.9,4.6-0.2,5.9s-5.4,1.9-5.6,5
				c-0.1,2.4,1.2,3,3.1,3.8c1.5,0.6,1.3,0.8,1.3,2.6c0,3.6,1.2,4.6,4.8,4.1c1.1-0.3,2.3-0.4,3.4-0.3c1.4,0.4,0.9,0.8,0.9,1.9
				c0.1,2.9,3.5,2.1,4.9,0.8C25.6,325.9,27.7,324.2,29.9,324z"/>
			<path class="st9" d="M57.1,317.8c1.6-0.5,3.5-0.1,5.1-0.5c-0.9-0.2-1.9-0.4-2.9-0.5c-2.3-0.1-4.6,0.8-6.2,2.5
				c0.9,1.1,1.3,2.4,1.2,3.8c-4,1.1-8-4.3-11.8-2.7c0.2,2,0,4.6-1.9,5c-1.2,0.1-2.3-0.5-2.9-1.4c-0.7-0.9-1.1-2-1.8-2.9
				c-2-2.4-5.6-3-8.2-1.2c-1,0.8-2.4,1.9-3.4,1.1s-0.4-3-1.7-3.6c-0.8-0.4-2,0.2-2.7-0.4c-0.3-0.3-0.4-0.6-0.5-1
				c-0.5-2.1-0.9-4.5,0.4-6.1c1.2-1.5,3.6-2.4,3.3-4.3c-0.2-1.6-2.2-2.1-3.9-2.3s-3.6-0.9-3.5-2.5c0.1-1.6,2.2-2.4,2.5-3.9
				c0.1-0.7-0.1-1.4,0.2-2c0.5-0.9,1.8-1,2.5-1.6c1.4-1.2,0.3-3.5,0.7-5.3c0.3-1.3,1.3-2.3,1.6-3.5c0.7-2.5-1.6-4.9-4-5.9
				c-0.9-0.3-1.8-0.7-2.7-1.2l-0.1-0.1c0.2,1.3,0.9,2.4,2,3.1c2,1.8,0.9,2.5,0.7,4.8c-0.1,1.1,0.1,1.4-0.9,2.2
				c-1.9,1.4-2.9,0.9-2.4,3.6c0.5,2.5-0.3,1.6-2.4,2.5c-1.9,0.8-3.2,2.9-4.7,4.1c-1,0.8-2.5,1.4-2.6,2.9c-0.2,2.8,3.2,2.2,4.9,2.8
				c2.7,1.1,1.9,4.6-0.2,5.9s-5.4,1.9-5.6,5c-0.1,2.4,1.2,3,3.1,3.8c1.5,0.6,1.3,0.8,1.3,2.6c0,3.6,1.2,4.6,4.8,4
				c1.1-0.3,2.3-0.4,3.4-0.3c1.4,0.4,0.9,0.8,0.9,1.9c0.1,2.9,3.5,2.1,4.9,0.8c1.7-1.4,3.7-3.1,6-3.3c0.9-0.1,1.8,0.1,2.6,0.5
				c1.5,0.9,3,1.9,4.3,3c1.3,1.1,3,1.8,4.8,2c1.8,0.2,3.5-1,4-2.8c0-0.3,0.1-0.6,0.2-0.9c0.4-0.4,1-0.6,1.5-0.4
				c0.5,0.2,1,0.5,1.4,0.8c1.8,1,4,0.8,6,0.5c1.7-0.2,3.8-1,3.8-2.7c0-1.1-1-1.9-1.8-2.8s-1.4-2.1-0.7-3
				C56.4,318.1,56.8,317.9,57.1,317.8z"/>
			<path class="st10" d="M24.4,294.2l9.7,19.3v-8.9l1-37.8l1.4,37.8v6L47.2,292l-10.7,22.9v58.5c0,0.2-0.2,0.4-0.3,0.5
				c-0.5,0.3-1.2,0.3-1.7,0c-0.2-0.1-0.3-0.3-0.4-0.5v-55L24.4,294.2z"/>
		</g>
		<g id="freepik--bush--inject-18_00000108298513021539192630000006545757518984073897_">
			<path id="freepik--bush--inject-18_00000171688455317828653220000004813504057517854879_" class="st11" d="M28.5,378
				c2.8,0.4,5.3-0.3,5.7-3.3c0.4-2.5,0.4-5,0-7.5c-0.1-0.9-0.4-2-1.3-2.2c-0.8-0.1-1.5,0.3-1.8,1c-0.3,0.7-0.4,1.4-0.3,2.2
				c-0.4-1-1.1-2.1-2.2-2.1c-1,0.1-1.8,1-1.8,2c0.1,1,0.4,2,0.9,2.8c-0.7-0.2-1.5-0.1-2.2,0.3c-0.6,0.7-0.7,1.7-0.1,2.5
				c0.6,0.7,1.3,1.2,2.2,1.6c-0.5-0.2-1.1,0.1-1.3,0.6c0,0,0,0.1,0,0.1c-0.1,0.6,0.1,1.1,0.6,1.5C27.4,377.7,28,377.9,28.5,378z"/>
			<g id="freepik--bush--inject-18_00000115497925388166952680000011342596583450406588_">
				<path id="freepik--bush--inject-18_00000165217402146082294590000009873422966368789137_" class="st7" d="M33.3,379.1l6.7-3.8
					c0.6-0.4,1-0.8,1.4-1.4c0.4-0.5,0.7-1.1,0.8-1.7c0.1-0.2,0-0.5-0.1-0.7c-0.2-0.4-0.8-0.2-1.1,0.1c-0.3,0.3-0.6,0.6-0.9,0.9
					c0.1-0.8,0.2-1.5,0.1-2.3c0-0.3-0.1-0.6-0.3-0.8c-0.3-0.2-0.6-0.2-0.9,0c-0.8,0.6-1.4,1.5-1.5,2.5c0.2-1,0.1-2-0.1-2.9
					c-0.2-1-1.4-1.5-1.8-0.5c-0.2,0.5-0.3,1.1-0.3,1.7c-0.1,0.7,0,1.5,0.2,2.2c-0.4-0.9-1-1.8-1.8-2.5c-0.2-0.3-0.6-0.4-1-0.4
					c-0.4,0.2-0.5,0.7-0.5,1.2c0.1,1,0.4,1.9,0.9,2.7c-0.7-0.4-1.4-0.7-2.2-0.9c-0.3-0.1-0.5,0-0.7,0.2c-0.1,0.3-0.1,0.7,0.2,0.9
					c0.5,0.7,1.1,1.2,1.8,1.7c-0.7-0.2-1.5-0.3-2.2-0.2c-0.2,0-0.4,0.1-0.6,0.2c-0.2,0.3,0,0.6,0.3,0.9c0.5,0.4,1,0.7,1.6,0.9
					c-0.3,0-0.7,0-1,0.2c-0.3,0.1-0.5,0.5-0.5,0.8c0.1,0.3,0.4,0.5,0.7,0.6C31.3,379.2,32.3,379.4,33.3,379.1z"/>
			</g>
		</g>
	</g>
	<g id="freepik--tree--inject-18_00000174578091481633971890000007628157885407440299_">
		<g id="freepik--tree--inject-18_00000129197892908821015040000017640846870149395606_">
			<path class="st7" d="M426.7,313.3c-0.8-0.1-1.6,0.1-2.3,0.4c-1.3,0.8-2.6,1.6-3.7,2.6c-1.2,1-2.6,1.6-4.1,1.8
				c-1.6,0.1-3-0.9-3.4-2.4c0-0.3-0.1-0.5-0.2-0.8c-0.3-0.4-0.8-0.5-1.3-0.3c-0.4,0.2-0.9,0.4-1.2,0.7c-1.5,0.9-3.5,0.7-5.2,0.4
				c-1.5-0.2-3.3-0.9-3.3-2.3c0-1,0.9-1.7,1.5-2.4c0.7-0.7,1.2-1.8,0.6-2.6c-0.2-0.3-0.5-0.4-0.9-0.5c-1.8-0.6-4.1,0.2-5.6-1
				c-1.1-1-1.4-2.5-0.8-3.9c0.7-1.3,1.9-2.2,3.3-2.5c1.2-0.3,2.8-0.5,3.2-1.6s-0.4-2.2-1.3-2.8c-1-0.5-1.9-1.2-2.6-2
				c-0.6-1-0.7-2.2-0.1-3.3c0.6-1,1.6-1.7,2.7-1.9c0.6,0,1.1-0.2,1.7-0.4c0.5-0.2,0.8-0.8,0.6-1.4c-0.2-0.3-0.5-0.5-0.7-0.7
				c-0.3-0.6-0.1-1.4,0.5-1.7c0.6-0.3,1.2-0.6,1.9-0.7c1.3-0.4,2.6-1.7,2.2-3.1s-2.3-1.9-2.9-3.2c-0.4-1.3,0.2-2.6,1.4-3.3
				c1.1-0.6,2.3-1.1,3.5-1.6c1.2-0.5,2.1-1.5,2.4-2.8c0.1-1.3-0.9-2.4-1.7-3.5c-0.8-1.1-1.5-2.5-0.8-3.6c0.7-1.1,2.2-1.1,3.4-1.5
				c1.5-0.5,2.7-1.6,3.3-3c0.3-0.7,0.5-1.5,0.9-2.3c1.2-2.2,4.2-3.2,6.5-2.9c1,0.1,1.8,0.6,2.2,1.5c0.4,0.4,0.7,1,0.8,1.5
				c0.2,1.1-0.4,2.4,0.6,3.2c1.5,1.2,3.9-0.4,3.8,2.4c0,1.2-0.2,2.3-0.5,3.4c-0.4,1.2-1.2,1.7-0.6,3c0.9,1.7,1.5,1.7,3.3,1.7
				c1.3,0,2.4-0.1,3.4,0.9c1.7,1.7,0.7,3.3-0.8,4.7c-1.7,1.5-0.8,2.2-0.6,4.2c0.1,1-0.1,1.2,0.7,1.9c1.6,1.2,2.5,0.8,2.1,3.1
				c-0.4,2.1,0.2,1.4,2.1,2.2c1.6,0.7,2.7,2.5,4.1,3.6c0.9,0.7,2.2,1.3,2.2,2.5c0.1,2.4-2.8,1.9-4.2,2.4c-2.3,0.9-1.6,4,0.2,5.1
				s4.7,1.6,4.8,4.4c0.1,2.1-1.1,2.6-2.7,3.3c-1.3,0.6-1.1,0.7-1.1,2.3c0,3.1-1,4-4.1,3.5c-1-0.3-2-0.4-3-0.2
				c-1.2,0.4-0.8,0.6-0.8,1.6c-0.1,2.5-3,1.8-4.3,0.7C430.4,315,428.6,313.5,426.7,313.3z"/>
			<path class="st8" d="M426.7,313.3c-0.8-0.1-1.6,0.1-2.3,0.4c-1.3,0.8-2.6,1.6-3.7,2.6c-1.2,1-2.6,1.6-4.1,1.8
				c-1.6,0.1-3-0.9-3.4-2.4c0-0.3-0.1-0.5-0.2-0.8c-0.3-0.4-0.8-0.5-1.3-0.3c-0.4,0.2-0.9,0.4-1.2,0.7c-1.5,0.9-3.5,0.7-5.2,0.4
				c-1.5-0.2-3.3-0.9-3.3-2.3c0-1,0.9-1.7,1.5-2.4c0.7-0.7,1.2-1.8,0.6-2.6c-0.2-0.3-0.5-0.4-0.9-0.5c-1.8-0.6-4.1,0.2-5.6-1
				c-1.1-1-1.4-2.5-0.8-3.9c0.7-1.3,1.9-2.2,3.3-2.5c1.2-0.3,2.8-0.5,3.2-1.6s-0.4-2.2-1.3-2.8c-1-0.5-1.9-1.2-2.6-2
				c-0.6-1-0.7-2.2-0.1-3.3c0.6-1,1.6-1.7,2.7-1.9c0.6,0,1.1-0.2,1.7-0.4c0.5-0.2,0.8-0.8,0.6-1.4c-0.2-0.3-0.5-0.5-0.7-0.7
				c-0.3-0.6-0.1-1.4,0.5-1.7c0.6-0.3,1.2-0.6,1.9-0.7c1.3-0.4,2.6-1.7,2.2-3.1s-2.3-1.9-2.9-3.2c-0.4-1.3,0.2-2.6,1.4-3.3
				c1.1-0.6,2.3-1.1,3.5-1.6c1.2-0.5,2.1-1.5,2.4-2.8c0.1-1.3-0.9-2.4-1.7-3.5c-0.8-1.1-1.5-2.5-0.8-3.6c0.7-1.1,2.2-1.1,3.4-1.5
				c1.5-0.5,2.7-1.6,3.3-3c0.3-0.7,0.5-1.5,0.9-2.3c1.2-2.2,4.2-3.2,6.5-2.9c1,0.1,1.8,0.6,2.2,1.5c0.4,0.4,0.7,1,0.8,1.5
				c0.2,1.1-0.4,2.4,0.6,3.2c1.5,1.2,3.9-0.4,3.8,2.4c0,1.2-0.2,2.3-0.5,3.4c-0.4,1.2-1.2,1.7-0.6,3c0.9,1.7,1.5,1.7,3.3,1.7
				c1.3,0,2.4-0.1,3.4,0.9c1.7,1.7,0.7,3.3-0.8,4.7c-1.7,1.5-0.8,2.2-0.6,4.2c0.1,1-0.1,1.2,0.7,1.9c1.6,1.2,2.5,0.8,2.1,3.1
				c-0.4,2.1,0.2,1.4,2.1,2.2c1.6,0.7,2.7,2.5,4.1,3.6c0.9,0.7,2.2,1.3,2.2,2.5c0.1,2.4-2.8,1.9-4.2,2.4c-2.3,0.9-1.6,4,0.2,5.1
				s4.7,1.6,4.8,4.4c0.1,2.1-1.1,2.6-2.7,3.3c-1.3,0.6-1.1,0.7-1.1,2.3c0,3.1-1,4-4.1,3.5c-1-0.3-2-0.4-3-0.2
				c-1.2,0.4-0.8,0.6-0.8,1.6c-0.1,2.5-3,1.8-4.3,0.7C430.4,315,428.6,313.5,426.7,313.3z"/>
			<path class="st9" d="M443,300.7c-1.8-1.1-2.5-4.1-0.2-5.1c1.4-0.6,4.4,0,4.2-2.4c-0.1-1.2-1.4-1.8-2.2-2.5
				c-1.3-1.1-2.4-2.9-4.1-3.6c-1.9-0.8-2.5-0.1-2.1-2.2c0.5-2.3-0.5-1.9-2.1-3.1c-0.8-0.6-0.7-0.9-0.7-1.7c-0.4,0.4-0.7,0.8-0.9,1.2
				c-0.6,1.3-0.1,2.9,0.6,4.2c0.5,1,1.1,2.3,0.3,3.1c-0.4,0.3-0.9,0.5-1.4,0.6c-0.9,0.4-1.5,1.2-1.7,2.2c-0.1,1,0.4,2.2,0,3.1
				c-0.4,0.6-0.9,1.1-1.5,1.5c-1.3,0.7-2.3,2-2.6,3.5c-0.2,2.1,1.6,3.8,3.3,5.1c0.5,0.5,1.1,1.4,0.5,1.7c-0.2,0.1-0.5,0.1-0.8,0.1
				c-0.9,0-1.8,0.4-2.4,1.1c-0.5,0.7-0.9,1.7-1.7,1.9c-0.3,0-0.7,0-1-0.1c-2.4-0.4-4.9,0.5-6.5,2.3c-0.9,1-2,2.5-3.2,1.9
				c-1.1-0.5-1.1-2.1-2-2.8c-0.1-0.1-0.2-0.1-0.3-0.2c-1.2-0.7-2.6-0.1-3.7,0.4c-0.7,0.3-1.4,0.7-2.1,1s-1.4,0.7-2.1,0.3
				c-0.5-0.3-0.7-0.9-0.5-1.4c0.1-0.4,0.3-0.8,0.4-1.1c0.2-0.4,0.2-0.8,0-1.2c-0.2-0.3-0.5-0.6-0.8-0.8c-0.6-0.4-1.3-0.6-2-0.7h-0.1
				c-0.8-0.1-1.6-0.1-2.4,0c-0.8,0.1-1.7,0-2.5-0.1c-0.8-0.2-1.6-0.7-2-1.4l0,0c0.1,0.6,0.5,1.2,1,1.5c1.5,1.1,3.8,0.4,5.6,1
				c0.3,0.1,0.6,0.3,0.9,0.5c0.6,0.8,0.1,1.9-0.6,2.6s-1.5,1.4-1.5,2.4c0,1.5,1.8,2.1,3.3,2.3c1.8,0.3,3.7,0.5,5.2-0.4
				c0.4-0.3,0.8-0.5,1.2-0.7c0.5-0.2,1-0.1,1.3,0.3c0.1,0.2,0.2,0.5,0.2,0.8c0.4,1.5,1.9,2.5,3.4,2.4c1.5-0.2,2.9-0.8,4.1-1.8
				c1.1-1,2.4-1.9,3.7-2.6c0.7-0.3,1.5-0.5,2.3-0.4c1.9,0.2,3.7,1.6,5.2,2.9c1.2,1.1,4.2,1.8,4.3-0.7c0-1-0.4-1.3,0.8-1.6
				c1-0.1,2,0,3,0.2c3.1,0.5,4.1-0.4,4.1-3.5c0-1.5-0.2-1.7,1.1-2.3c1.6-0.7,2.8-1.2,2.7-3.3C447.7,302.4,444.9,301.9,443,300.7z"/>
			<path class="st10" d="M431.5,287.6l-8.4,16.6v-7.7l-0.9-32.6l-1.2,32.6v5.1l-9.2-16.1l9.2,19.8v44.2c0,0.2,0.1,0.3,0.3,0.4
				c0.5,0.2,1,0.2,1.5,0c0.2-0.1,0.3-0.2,0.3-0.4v-41.2L431.5,287.6z"/>
		</g>
		<g id="freepik--bush--inject-18_00000042717864250946524160000010970114993744512423_">
			<path id="freepik--bush--inject-18_00000111175623527061262270000000644171370129942459_" class="st11" d="M431.1,351.6
				c-4.1,0.7-7.8-0.5-8.4-4.9c-0.5-3.6-0.5-7.4,0-11c0.2-1.3,0.7-2.9,2-3.2c1.1-0.2,2.2,0.4,2.6,1.5c0.4,1,0.5,2.1,0.5,3.2
				c0.6-1.4,1.6-3.1,3.2-3.1s2.6,1.5,2.6,3c-0.1,1.5-0.5,2.9-1.3,4.1c1.1-0.3,2.3-0.1,3.2,0.5c0.9,1,1,2.6,0.1,3.6
				c-0.9,1-2,1.8-3.2,2.3c0.7-0.3,1.6,0,1.9,0.8c0,0.1,0.1,0.2,0.1,0.2c0.2,0.8-0.2,1.7-0.8,2.2C432.8,351.3,432,351.6,431.1,351.6z
				"/>
			<g id="freepik--bush--inject-18_00000135677085051877197990000009671352399449832590_">
				<path id="freepik--bush--inject-18_00000022525458312931689340000014853136494604126885_" class="st7" d="M424,353.4l-9.8-5.7
					c-0.8-0.5-1.6-1.2-2.1-2c-0.6-0.7-1-1.6-1.2-2.5c-0.1-0.3-0.1-0.7,0.1-1c0.4-0.5,1.2-0.3,1.7,0.1c0.5,0.4,0.9,0.9,1.3,1.3
					c-0.2-1.1-0.3-2.3-0.2-3.4c0-0.4,0.1-0.8,0.4-1.1c0.4-0.3,1-0.3,1.4,0c1.3,0.7,1.8,2.2,2.3,3.6c-0.2-1.4-0.2-2.9,0.1-4.3
					c0.4-1.6,2.1-2.1,2.7-0.7c0.3,0.8,0.5,1.6,0.5,2.5c0.1,1.1,0,2.2-0.2,3.3c0.6-1.4,1.5-2.6,2.6-3.6c0.4-0.4,0.9-0.6,1.5-0.5
					c0.6,0.2,0.7,1.1,0.7,1.7c-0.1,1.4-0.6,2.7-1.3,3.9c1-0.7,2.1-1.1,3.3-1.3c0.4-0.1,0.8,0,1,0.3c0.2,0.5,0.1,1-0.2,1.4
					c-0.7,1-1.6,1.8-2.6,2.5c1-0.3,2.1-0.4,3.2-0.3c0.3,0,0.6,0.1,0.9,0.4c0.3,0.4,0,1-0.4,1.3c-0.7,0.6-1.5,1-2.3,1.4
					c0.5,0,1,0.1,1.4,0.2c0.5,0.2,0.7,0.7,0.7,1.2c-0.2,0.5-0.5,0.8-1,0.9C426.4,353.5,425.9,353.7,424,353.4z"/>
			</g>
		</g>
	</g>
	<g id="freepik--tree--inject-18_00000167375551997132367830000008434174342181343891_">
		<g id="freepik--tree--inject-18_00000022536474449121034520000015198833656113179020_">
			<path class="st7" d="M463.8,324c-0.9-0.1-1.8,0.1-2.6,0.5c-1.5,0.9-3,1.9-4.3,3c-1.3,1.1-3,1.8-4.8,2c-1.8,0.2-3.5-1-4-2.8
				c0-0.3-0.1-0.6-0.2-0.9c-0.4-0.4-1-0.6-1.5-0.4c-0.5,0.2-1,0.5-1.5,0.8c-1.8,1-4,0.8-6,0.5c-1.7-0.2-3.8-1-3.8-2.7
				c0-1.1,1-1.9,1.8-2.8s1.4-2.1,0.7-3c-0.3-0.3-0.6-0.5-1-0.6c-2.1-0.7-4.7,0.2-6.5-1.1c-1.3-1.1-1.7-2.9-0.9-4.5
				c0.8-1.5,2.2-2.6,3.8-2.9c1.4-0.4,3.2-0.5,3.8-1.9c0.5-1.2-0.5-2.5-1.5-3.2c-1-0.7-2.3-1.2-3.1-2.3c-0.7-1.1-0.8-2.6-0.1-3.8
				c0.7-1.2,1.9-2,3.2-2.2c0.7-0.1,1.3-0.2,1.9-0.4c0.6-0.3,0.9-1,0.7-1.6c-0.2-0.4-0.6-0.5-0.8-0.9c-0.4-0.7-0.1-1.6,0.6-2
				c0.7-0.4,1.4-0.7,2.2-0.8c1.5-0.5,3-2,2.6-3.6c-0.4-1.5-2.7-2.1-3.3-3.7c-0.6-1.4,0.3-3,1.6-3.8c1.3-0.7,2.7-1.3,4.1-1.8
				c1.4-0.6,2.6-1.8,2.8-3.2s-1-2.8-2-4s-1.7-2.9-0.9-4.2c0.8-1.3,2.5-1.3,3.9-1.8c1.7-0.6,3.1-1.8,3.9-3.5c0.4-0.9,0.5-1.8,1-2.6
				c1.4-2.6,4.9-3.7,7.6-3.4c1.1,0.1,2.1,0.7,2.6,1.8c0.5,0.5,0.8,1.1,0.9,1.8c0.2,1.2-0.4,2.8,0.7,3.8c1.8,1.4,4.5-0.5,4.4,2.7
				c0,1.4-0.2,2.7-0.6,4c-0.5,1.3-1.5,1.9-0.6,3.4c1,2,1.7,2,3.8,1.9c1.5,0,2.8-0.1,3.9,1.1c2,2,0.8,3.8-0.9,5.4
				c-2,1.8-0.9,2.6-0.7,4.8c0.1,1.1-0.1,1.4,0.9,2.2c1.9,1.4,2.9,0.9,2.4,3.6c-0.5,2.5,0.3,1.6,2.4,2.5c1.9,0.8,3.1,2.9,4.7,4.1
				c1,0.8,2.5,1.5,2.6,2.9c0.2,2.8-3.2,2.2-4.9,2.8c-2.7,1.1-1.9,4.6,0.2,5.9s5.4,1.9,5.6,5c0.1,2.4-1.2,3-3.1,3.8
				c-1.5,0.6-1.3,0.8-1.3,2.6c0,3.6-1.2,4.6-4.8,4.1c-1.1-0.3-2.3-0.4-3.4-0.3c-1.4,0.4-0.9,0.8-0.9,1.9c-0.1,2.9-3.5,2.1-4.9,0.8
				C468.2,325.9,466.1,324.2,463.8,324z"/>
			<path class="st12" d="M463.8,324c-0.9-0.1-1.8,0.1-2.6,0.5c-1.5,0.9-3,1.9-4.3,3c-1.3,1.1-3,1.8-4.8,2c-1.8,0.2-3.5-1-4-2.8
				c0-0.3-0.1-0.6-0.2-0.9c-0.4-0.4-1-0.6-1.5-0.4c-0.5,0.2-1,0.5-1.5,0.8c-1.8,1-4,0.8-6,0.5c-1.7-0.2-3.8-1-3.8-2.7
				c0-1.1,1-1.9,1.8-2.8s1.4-2.1,0.7-3c-0.3-0.3-0.6-0.5-1-0.6c-2.1-0.7-4.7,0.2-6.5-1.1c-1.3-1.1-1.7-2.9-0.9-4.5
				c0.8-1.5,2.2-2.6,3.8-2.9c1.4-0.4,3.2-0.5,3.8-1.9c0.5-1.2-0.5-2.5-1.5-3.2c-1-0.7-2.3-1.2-3.1-2.3c-0.7-1.1-0.8-2.6-0.1-3.8
				c0.7-1.2,1.9-2,3.2-2.2c0.7-0.1,1.3-0.2,1.9-0.4c0.6-0.3,0.9-1,0.7-1.6c-0.2-0.4-0.6-0.5-0.8-0.9c-0.4-0.7-0.1-1.6,0.6-2
				c0.7-0.4,1.4-0.7,2.2-0.8c1.5-0.5,3-2,2.6-3.6c-0.4-1.5-2.7-2.1-3.3-3.7c-0.6-1.4,0.3-3,1.6-3.8c1.3-0.7,2.7-1.3,4.1-1.8
				c1.4-0.6,2.6-1.8,2.8-3.2s-1-2.8-2-4s-1.7-2.9-0.9-4.2c0.8-1.3,2.5-1.3,3.9-1.8c1.7-0.6,3.1-1.8,3.9-3.5c0.4-0.9,0.5-1.8,1-2.6
				c1.4-2.6,4.9-3.7,7.6-3.4c1.1,0.1,2.1,0.7,2.6,1.8c0.5,0.5,0.8,1.1,0.9,1.8c0.2,1.2-0.4,2.8,0.7,3.8c1.8,1.4,4.5-0.5,4.4,2.7
				c0,1.4-0.2,2.7-0.6,4c-0.5,1.3-1.5,1.9-0.6,3.4c1,2,1.7,2,3.8,1.9c1.5,0,2.8-0.1,3.9,1.1c2,2,0.8,3.8-0.9,5.4
				c-2,1.8-0.9,2.6-0.7,4.8c0.1,1.1-0.1,1.4,0.9,2.2c1.9,1.4,2.9,0.9,2.4,3.6c-0.5,2.5,0.3,1.6,2.4,2.5c1.9,0.8,3.1,2.9,4.7,4.1
				c1,0.8,2.5,1.5,2.6,2.9c0.2,2.8-3.2,2.2-4.9,2.8c-2.7,1.1-1.9,4.6,0.2,5.9s5.4,1.9,5.6,5c0.1,2.4-1.2,3-3.1,3.8
				c-1.5,0.6-1.3,0.8-1.3,2.6c0,3.6-1.2,4.6-4.8,4.1c-1.1-0.3-2.3-0.4-3.4-0.3c-1.4,0.4-0.9,0.8-0.9,1.9c-0.1,2.9-3.5,2.1-4.9,0.8
				C468.2,325.9,466.1,324.2,463.8,324z"/>
			<path class="st9" d="M436.7,317.8c-1.6-0.5-3.5-0.1-5.1-0.5c0.9-0.2,1.9-0.4,2.9-0.5c2.3-0.1,4.6,0.8,6.2,2.5
				c-0.9,1.1-1.3,2.4-1.2,3.8c4,1.1,8-4.3,11.9-2.7c-0.2,2,0,4.6,1.9,5c1.2,0.1,2.3-0.4,2.9-1.4c0.7-0.9,1.1-2,1.8-2.9
				c2-2.5,5.6-3,8.2-1.2c1,0.8,2.3,1.9,3.4,1.1s0.4-3,1.7-3.6c0.8-0.4,2,0.2,2.7-0.4c0.3-0.3,0.4-0.6,0.5-1c0.5-2.1,0.9-4.4-0.4-6.1
				c-1.2-1.5-3.6-2.4-3.3-4.3c0.2-1.6,2.3-2.1,3.9-2.3s3.6-0.9,3.5-2.6c-0.1-1.6-2.2-2.4-2.5-3.9c-0.1-0.7,0.1-1.4-0.2-2
				c-0.5-0.9-1.8-1-2.5-1.6c-1.4-1.2-0.3-3.5-0.7-5.3c-0.3-1.3-1.3-2.3-1.6-3.5c-0.7-2.5,1.6-4.9,4-5.9c0.9-0.3,1.9-0.7,2.7-1.2
				l0.1-0.1c-0.2,1.3-0.9,2.4-2,3.1c-2,1.8-0.9,2.6-0.7,4.8c0.1,1.1-0.1,1.4,0.9,2.2c1.9,1.4,2.9,0.9,2.4,3.6
				c-0.5,2.5,0.3,1.6,2.4,2.5c1.9,0.8,3.1,2.9,4.7,4.1c1,0.8,2.5,1.5,2.6,2.9c0.2,2.8-3.2,2.2-4.9,2.8c-2.7,1.1-1.9,4.6,0.2,5.9
				s5.4,1.9,5.6,5c0.1,2.4-1.2,3-3.1,3.8c-1.5,0.6-1.3,0.8-1.3,2.6c0,3.6-1.2,4.6-4.8,4.1c-1.1-0.3-2.3-0.4-3.4-0.3
				c-1.4,0.4-0.9,0.8-0.9,1.9c-0.1,2.9-3.5,2.1-4.9,0.8c-1.7-1.4-3.7-3.1-6-3.3c-0.9-0.1-1.8,0.1-2.6,0.5c-1.5,0.9-3,1.9-4.3,3
				c-1.3,1.1-3,1.8-4.8,2c-1.8,0.2-3.5-1-4-2.8c0-0.3-0.1-0.6-0.2-0.9c-0.4-0.4-1-0.6-1.5-0.4c-0.5,0.2-1,0.5-1.5,0.8
				c-1.8,1-4,0.8-6,0.5c-1.7-0.2-3.8-1-3.8-2.7c0-1.1,1-1.9,1.8-2.8s1.4-2.1,0.7-3C437.4,318.1,437,317.9,436.7,317.8z"/>
			<path class="st10" d="M469.4,294.2l-9.7,19.3v-8.9l-1-37.8l-1.4,37.8v6L446.5,292l10.7,22.9v58.5c0,0.2,0.2,0.4,0.4,0.5
				c0.5,0.3,1.2,0.3,1.7,0c0.2-0.1,0.3-0.3,0.4-0.5v-55L469.4,294.2z"/>
		</g>
		<g id="freepik--bush--inject-18_00000097476913856061844160000012953389062070213018_">
			<path id="freepik--bush--inject-18_00000147208659992387131720000013684603704948348847_" class="st11" d="M465.3,378
				c-2.8,0.4-5.3-0.3-5.7-3.3c-0.4-2.5-0.4-5,0-7.5c0.1-0.9,0.4-2,1.3-2.2c0.8-0.1,1.5,0.3,1.8,1c0.3,0.7,0.4,1.4,0.3,2.2
				c0.4-1,1.1-2.1,2.2-2.1c1,0.1,1.8,1,1.8,2c-0.1,1-0.4,2-0.9,2.8c0.7-0.2,1.5-0.1,2.2,0.3c0.6,0.7,0.7,1.7,0.1,2.5
				c-0.6,0.7-1.3,1.2-2.2,1.6c0.5-0.2,1.1,0.1,1.3,0.6c0,0,0,0.1,0,0.1c0.1,0.6-0.1,1.1-0.6,1.5C466.4,377.7,465.8,377.9,465.3,378z
				"/>
			<g id="freepik--bush--inject-18_00000149370272716976204480000011993816834844144279_">
				<path id="freepik--bush--inject-18_00000132068874139177149070000004631273854988510365_" class="st7" d="M460.4,379.1l-6.7-3.8
					c-0.6-0.4-1.1-0.8-1.5-1.4c-0.4-0.5-0.7-1.1-0.8-1.7c-0.1-0.2,0-0.5,0.1-0.7c0.2-0.4,0.8-0.2,1.1,0.1c0.3,0.3,0.6,0.6,0.9,0.9
					c-0.1-0.8-0.2-1.5-0.1-2.3c0-0.3,0.1-0.6,0.3-0.8c0.3-0.2,0.6-0.2,0.9,0c0.8,0.6,1.4,1.5,1.5,2.5c-0.2-1-0.1-2,0.1-2.9
					c0.2-1,1.4-1.5,1.8-0.5c0.2,0.5,0.3,1.1,0.4,1.7c0.1,0.7,0,1.5-0.1,2.2c0.4-0.9,1-1.8,1.8-2.5c0.2-0.3,0.6-0.4,1-0.4
					c0.4,0.2,0.5,0.7,0.5,1.2c-0.1,0.9-0.4,1.9-0.9,2.7c0.7-0.5,1.4-0.8,2.2-0.9c0.3-0.1,0.5,0,0.7,0.2c0.1,0.3,0.1,0.7-0.2,0.9
					c-0.5,0.7-1.1,1.2-1.8,1.7c0.7-0.2,1.4-0.3,2.2-0.2c0.2,0,0.4,0.1,0.6,0.2c0.2,0.3,0,0.6-0.3,0.9c-0.5,0.4-1,0.7-1.5,0.9
					c0.3,0,0.7,0,1,0.2c0.3,0.1,0.5,0.5,0.5,0.8c-0.1,0.3-0.4,0.5-0.7,0.6C462.5,379.2,461.4,379.3,460.4,379.1z"/>
			</g>
		</g>
	</g>
</g>
<g>
	<path class="st13" d="M212.1,272.9c0-10.4,3-20.3,9-29.5c6-9.3,12.5-16.8,19.6-22.5c7.1-5.7,13.7-12.1,19.6-19.1c6-7,9-13.7,9-20
		c0-12.2-7.5-18.3-22.5-18.3c-15.5,0-27.7,10-36.6,30.1l-57.9-33.2c8.4-20.6,21.3-36.2,38.7-46.9c17.4-10.7,36.9-16,58.5-16
		c24.4,0,45.1,6.8,62.1,20.4c17,13.6,25.5,32.1,25.5,55.4c0,10.7-2.1,20.5-6.3,29.5c-4.2,9-9.2,16.6-15.1,22.7
		c-5.8,6.1-11.7,11.8-17.5,17c-5.8,5.2-10.9,10.4-15,15.4c-4.2,5.1-6.3,10-6.3,14.9H212.1z M272.5,364c-7.8,7.6-17.1,11.4-28,11.4
		c-10.9,0-20.3-3.8-28-11.4c-7.8-7.6-11.6-17-11.6-28.2c0-10.9,3.9-20.3,11.6-28c7.7-7.7,17.1-11.6,28-11.6c10.9,0,20.3,3.9,28,11.6
		c7.7,7.8,11.6,17.1,11.6,28C284.2,347,280.3,356.4,272.5,364z"/>
</g>
</svg>
