<?xml version="1.0" encoding="utf-8"?>
<!-- Generator: Adobe Illustrator 27.3.1, SVG Export Plug-In . SVG Version: 6.00 Build 0)  -->
<svg version="1.1" id="Layer_1" xmlns="http://www.w3.org/2000/svg" xmlns:xlink="http://www.w3.org/1999/xlink" x="0px" y="0px"
	 viewBox="0 0 500 500" style="enable-background:new 0 0 500 500;" xml:space="preserve">
<style type="text/css">
	.st0{fill:#F5F5F5;}
	.st1{fill:#E0E0E0;}
	.st2{fill:#EBEBEB;}
	.st3{opacity:0.15;fill:#9FAB9E;enable-background:new    ;}
	.st4{fill:#9FAB9E;}
	.st5{opacity:0.3;fill:#9FAB9E;enable-background:new    ;}
	.st6{fill:#37474F;}
	.st7{fill:#263238;}
	.st8{fill:#455A64;}
	.st9{opacity:0.3;enable-background:new    ;}
	.st10{opacity:0.6;fill:#FFFFFF;enable-background:new    ;}
	.st11{fill:#FAFAFA;}
	.st12{opacity:0.3;fill:#FFFFFF;enable-background:new    ;}
	.st13{opacity:0.1;fill:#FFFFFF;enable-background:new    ;}
	.st14{opacity:0.6;}
	.st15{fill:#FFFFFF;}
	.st16{opacity:0.5;fill:#9FAB9E;enable-background:new    ;}
	.st17{opacity:0.5;fill:#FFFFFF;enable-background:new    ;}
	.st18{fill:#B16668;}
	.st19{fill:#9A4A4D;}
	.st20{fill:#F0F0F0;}
	.st21{fill:#F28F8F;}
	.st22{opacity:0.2;enable-background:new    ;}
</style>
<g id="freepik--Floor--inject-2">
	<path id="freepik--floor--inject-2" class="st0" d="M89.9,450.5c-85.7-49.5-85.7-129.6,0-179.1s224.5-49.5,310.2,0
		s85.7,129.6,0,179.1S175.6,500,89.9,450.5z"/>
</g>
<g id="freepik--Shadows--inject-2">
	<ellipse id="freepik--Shadow--inject-2" class="st1" cx="410.4" cy="419.6" rx="59" ry="34.1"/>
	<path id="freepik--shadow--inject-2" class="st1" d="M246,458.5l-61.1-35.3c-0.6-0.2-0.9-0.8-0.7-1.4c0.1-0.3,0.4-0.6,0.7-0.7
		l86.7-51.5c1.1-0.6,2.5-0.6,3.6,0l61.1,36.8c0.6,0.2,0.9,0.8,0.7,1.4c-0.1,0.3-0.4,0.6-0.7,0.7l-86.7,50
		C248.5,459,247.1,459,246,458.5z"/>
</g>
<g id="freepik--Gears--inject-2">
	<g id="freepik--Gear--inject-2">
		<g id="freepik--gear--inject-2">
			<path class="st2" d="M262.8,97.1c-0.2,0-0.5-0.1-0.7-0.2l-4.1-2.3c-0.6-0.4-0.8-1.1-0.5-1.8l3.7-7.6c0.1-0.3,0.1-0.6-0.1-0.9
				c-0.5-0.9-1-1.9-1.3-2.9c0-0.1,0-0.1-0.1-0.1c0,0-0.1,0-0.1,0l-5.6,2.5c-0.3,0.2-0.7,0.2-1,0c-0.3-0.2-0.5-0.5-0.4-0.9v-7.3
				c0-0.7,0.3-1.3,0.9-1.7l5.8-4.1c0.3-0.2,0.5-0.6,0.6-0.9c0.4-1.7,0.9-3.4,1.5-5c0.1-0.2,0-0.5-0.2-0.7l-3.2-2.8
				c-0.5-0.5-0.7-1.2-0.3-1.8l4.6-8c0.4-0.6,1.1-0.9,1.8-0.7l4,1.4c0.2,0.1,0.5,0,0.7-0.2c1.1-1.3,2.3-2.6,3.5-3.8
				c0.3-0.3,0.4-0.6,0.5-1l0.6-7c0.1-0.6,0.4-1.2,1-1.6l6.3-3.6c0.3-0.2,0.7-0.2,1-0.1c0.3,0.2,0.5,0.5,0.5,0.8l0.6,6.1
				c0,0,0,0.1,0.1,0.1c0.1,0,0.1,0,0.2,0c1-0.2,2.1-0.3,3.2-0.3c0.3,0,0.6-0.2,0.8-0.4l4.7-7c0.4-0.6,1.2-0.8,1.8-0.4l4.1,2.3
				c0.6,0.4,0.8,1.1,0.5,1.8l-3.8,7.5c-0.1,0.3-0.1,0.6,0.1,0.9c0.6,0.9,1,1.9,1.3,2.9c0,0.1,0,0.1,0.1,0.1c0,0,0.1,0,0.1,0l5.6-2.5
				c0.5-0.2,1.1-0.1,1.3,0.4c0.1,0.2,0.1,0.3,0.1,0.5v7.3c0,0.7-0.3,1.3-0.9,1.7l-5.8,4.1c-0.3,0.2-0.5,0.6-0.6,0.9
				c-0.4,1.7-0.9,3.4-1.5,5c-0.1,0.2,0,0.5,0.2,0.7l3.2,2.8c0.5,0.5,0.7,1.2,0.3,1.8l-4.6,8c-0.4,0.6-1.1,0.9-1.8,0.7l-4-1.4
				c-0.2-0.1-0.5,0-0.7,0.2c-1.1,1.3-2.3,2.6-3.5,3.8c-0.3,0.3-0.4,0.6-0.5,1l-0.6,7c-0.1,0.6-0.4,1.2-1,1.6l-6.3,3.7
				c-0.3,0.2-0.7,0.2-1,0.1c-0.3-0.2-0.5-0.5-0.5-0.8l-0.6-6.1c0,0,0-0.1,0-0.1c-0.1,0-0.1,0-0.2,0c-1,0.2-2.1,0.3-3.2,0.3
				c-0.3,0-0.6,0.1-0.8,0.4l-4.7,7C263.7,96.9,263.3,97.1,262.8,97.1z M259.8,80.3c0.2,0,0.3,0,0.5,0.1c0.3,0.1,0.6,0.4,0.7,0.8
				c0.3,0.9,0.7,1.8,1.2,2.7c0.3,0.6,0.4,1.3,0.1,1.9l-3.7,7.6c-0.1,0.2,0,0.3,0.1,0.4l4,2.3c0.1,0.1,0.3,0,0.4-0.1l4.7-7
				c0.4-0.5,1-0.8,1.7-0.8c1,0,2-0.1,2.9-0.3c0.6-0.2,1.3,0.2,1.4,0.8c0,0.1,0,0.1,0,0.2l0.6,6.1l6.3-3.7c0.3-0.2,0.4-0.5,0.5-0.8
				l0.6-7c0.1-0.6,0.4-1.2,0.8-1.6c1.2-1.1,2.4-2.4,3.5-3.7c0.4-0.5,1.2-0.7,1.8-0.5l4,1.4c0.2,0.1,0.4,0,0.5-0.2l4.6-8
				c0.1-0.2,0.1-0.4-0.1-0.6l-3.2-2.8c-0.5-0.5-0.7-1.2-0.5-1.8c0.6-1.6,1.1-3.2,1.4-4.8c0.2-0.6,0.5-1.1,1-1.5l5.8-4.1
				c0.2-0.2,0.4-0.5,0.4-0.8v-7.3l-5.6,2.5c-0.3,0.1-0.7,0.1-1,0c-0.3-0.1-0.6-0.4-0.7-0.8c-0.3-0.9-0.7-1.8-1.2-2.7
				c-0.3-0.6-0.4-1.3-0.1-1.9l3.7-7.6c0.1-0.1,0-0.3-0.1-0.4l-4-2.3c-0.1-0.1-0.3,0-0.4,0.1l-4.7,7c-0.4,0.5-1,0.9-1.7,0.8
				c-1,0-2,0.1-2.9,0.3c-0.3,0.1-0.7,0-1-0.2c-0.3-0.2-0.4-0.5-0.5-0.8l-0.6-6.1l-6.3,3.7c-0.3,0.2-0.4,0.5-0.5,0.8l-0.6,7
				c-0.1,0.6-0.4,1.2-0.8,1.6c-1.2,1.1-2.4,2.4-3.5,3.7c-0.5,0.5-1.2,0.7-1.8,0.5l-4-1.4c-0.2-0.1-0.4,0-0.5,0.2l-4.6,8
				c-0.1,0.2-0.1,0.4,0.1,0.5l3.2,2.8c0.5,0.5,0.7,1.2,0.5,1.8c-0.6,1.6-1.1,3.2-1.5,4.8c-0.2,0.6-0.5,1.2-1,1.5l-5.8,4.1
				c-0.2,0.2-0.4,0.5-0.4,0.8V83l5.6-2.5C259.5,80.4,259.6,80.3,259.8,80.3L259.8,80.3z M273.1,79.3c-1.1,0-2.1-0.3-3-0.8
				c-2.2-1.3-3.4-3.9-3.4-7.3c0-7,4.9-15.5,10.9-18.9c3-1.7,5.9-2,8.1-0.7s3.3,3.9,3.3,7.4c0,6.9-4.9,15.4-10.9,18.9l0,0
				C276.6,78.8,274.8,79.3,273.1,79.3L273.1,79.3z M282.6,51.8c-1.6,0.1-3.1,0.5-4.5,1.4c-5.7,3.3-10.4,11.4-10.4,18
				c0,3.1,1,5.4,2.9,6.4s4.3,0.8,7-0.7l0,0c5.7-3.3,10.4-11.4,10.4-18c0-3.1-1-5.4-2.9-6.5C284.4,52,283.5,51.8,282.6,51.8
				L282.6,51.8z"/>
		</g>
		<path id="freepik--gear--inject-2_00000109707722782140310890000000348529847138946996_" class="st2" d="M336.1,42.8L335,40
			c-0.2-0.4-0.6-0.4-1,0l-3,3c-0.3,0.4-0.9,0.5-1.4,0.2c-0.2-0.2-0.5-0.3-0.7-0.4c-0.4-0.2-0.7-0.7-0.6-1.2l1.1-4.4
			c0.1-0.5-0.2-0.8-0.8-0.7l-2.5,0.4c-0.6,0.1-1.1,0.5-1.3,1l-1.7,4.6c-0.3,0.6-0.7,1.1-1.3,1.4c-0.5,0.3-1,0.6-1.5,1
			c-0.5,0.3-1,0.3-1.2,0l-1.2-2.1c-0.2-0.4-0.7-0.3-1.1,0.1l-3.3,3.8c-0.4,0.4-0.6,1-0.5,1.6l0.7,2.9c0.1,0.6-0.1,1.2-0.4,1.7
			c-0.5,0.8-1,1.7-1.4,2.5c-0.3,0.5-0.8,1-1.4,1.2l-2.4,0.7c-0.6,0.2-1,0.6-1.3,1.2l-1.6,5c-0.1,0.3,0,0.7,0.4,0.9
			c0.1,0,0.2,0.1,0.3,0h2c0.4,0,0.8,0.3,0.8,0.8c0,0,0,0.1,0,0.1c-0.1,0.7-0.1,1.4-0.1,2.2c0,0.6-0.2,1.2-0.6,1.7l-2.9,3.7
			c-0.3,0.4-0.5,1-0.3,1.6L306,77c0.2,0.4,0.6,0.4,1,0l3-3c0.3-0.4,0.9-0.5,1.4-0.2c0.2,0.2,0.5,0.3,0.7,0.4
			c0.4,0.2,0.7,0.7,0.6,1.2l-1.1,4.4c-0.1,0.5,0.2,0.8,0.8,0.7l2.5-0.4c0.6-0.1,1.1-0.5,1.3-1l1.8-4.5c0.3-0.6,0.7-1.1,1.3-1.4
			c0.5-0.3,1-0.6,1.5-1c0.5-0.3,1-0.3,1.2,0l1.2,2.1c0.2,0.4,0.7,0.3,1.1-0.1l3.3-3.8c0.4-0.4,0.6-1,0.5-1.6l-0.7-2.9
			c-0.1-0.6,0-1.2,0.4-1.7c0.5-0.8,1-1.7,1.4-2.5c0.3-0.5,0.8-1,1.4-1.2l2.4-0.7c0.6-0.2,1-0.6,1.2-1.2l1.6-5c0.1-0.3,0-0.7-0.3-0.9
			c-0.1,0-0.2-0.1-0.3,0h-2c-0.4,0-0.8-0.3-0.8-0.8c0,0,0-0.1,0-0.1c0.1-0.7,0.1-1.4,0.1-2.2c0-0.6,0.2-1.2,0.6-1.7l2.9-3.7
			C336.2,43.9,336.3,43.3,336.1,42.8z M322.8,64.5c-3.6,4.1-7.5,4.7-8.8,1.4s0.6-9.3,4.2-13.4s7.5-4.7,8.8-1.4
			S326.4,60.4,322.8,64.5z"/>
	</g>
	<g id="freepik--gear--inject-2_00000074412131930393191250000017931369879234911150_">
		<g id="freepik--gear--inject-2_00000162336185603956423670000003082167722702136468_">
			<path class="st2" d="M457.2,92.5l-4.2-6.3c-0.2-0.2-0.4-0.3-0.7-0.3c-1,0-1.9-0.1-2.8-0.3c0,0-0.1,0-0.1,0c0,0-0.1,0.1-0.1,0.1
				l-0.5,5.5c0,0.3-0.2,0.6-0.5,0.8c-0.3,0.2-0.6,0.2-0.9,0l-5.6-3.3c-0.5-0.3-0.8-0.8-0.9-1.4l-0.6-6.3c-0.1-0.3-0.2-0.6-0.4-0.9
				c-1.1-1-2.2-2.2-3.2-3.4c-0.2-0.2-0.4-0.2-0.6-0.2l-3.6,1.3c-0.6,0.2-1.2,0-1.6-0.6l-4.2-7.3c-0.3-0.5-0.2-1.2,0.3-1.7l2.9-2.5
				c0.2-0.2,0.2-0.4,0.1-0.6c-0.5-1.4-1-2.9-1.3-4.4c-0.1-0.3-0.3-0.6-0.5-0.8l-5.1-3.6c-0.5-0.4-0.7-0.9-0.8-1.5v-6.5
				c0-0.5,0.3-0.9,0.8-0.9c0.2,0,0.3,0,0.5,0.1l5,2.3c0,0,0.1,0,0.1,0c0,0,0.1-0.1,0.1-0.1c0.3-0.9,0.7-1.8,1.2-2.6
				c0.1-0.2,0.2-0.5,0.1-0.8l-3.4-6.8c-0.3-0.6-0.1-1.3,0.5-1.6l3.6-2.1c0.6-0.3,1.3-0.2,1.6,0.4l4.2,6.3c0.2,0.2,0.4,0.3,0.7,0.3
				c1,0,1.9,0.1,2.8,0.3c0,0,0.1,0,0.1,0c0,0,0.1-0.1,0-0.1l0.5-5.5c0-0.3,0.2-0.6,0.5-0.8c0.3-0.1,0.6-0.1,0.9,0.1l5.6,3.3
				c0.5,0.3,0.8,0.8,0.9,1.4l0.6,6.3c0.1,0.3,0.2,0.6,0.4,0.9c1.1,1.1,2.2,2.2,3.2,3.4c0.2,0.2,0.4,0.2,0.6,0.2l3.6-1.2
				c0.6-0.2,1.2,0,1.6,0.6l4.1,7.2c0.3,0.5,0.2,1.2-0.3,1.7l-2.9,2.5c-0.2,0.2-0.2,0.4-0.1,0.6c0.5,1.4,1,2.9,1.3,4.4
				c0.1,0.3,0.3,0.6,0.5,0.8l5.2,3.6c0.5,0.4,0.7,0.9,0.8,1.5v6.5c0,0.3-0.1,0.6-0.4,0.8c-0.3,0.2-0.6,0.2-0.9,0l-5-2.2
				c0,0-0.1,0-0.1,0c0,0-0.1,0.1-0.1,0.1c-0.3,0.9-0.7,1.8-1.2,2.6c-0.1,0.2-0.1,0.5,0,0.8l3.4,6.8c0.3,0.6,0.1,1.3-0.5,1.6
				l-3.6,2.1c-0.2,0.1-0.4,0.2-0.6,0.2C457.8,93.1,457.4,92.9,457.2,92.5z M461.4,78.1l5,2.3v-6.5c0-0.3-0.2-0.6-0.4-0.7l-5.2-3.6
				c-0.4-0.3-0.8-0.8-0.9-1.4c-0.3-1.5-0.8-2.9-1.3-4.3c-0.2-0.6,0-1.2,0.4-1.6l3-2.5c0.1-0.1,0.2-0.3,0.1-0.5l-4.2-7.2
				c-0.1-0.2-0.3-0.2-0.5-0.2l-3.6,1.3c-0.6,0.2-1.2,0-1.6-0.5c-1-1.2-2-2.3-3.1-3.3c-0.4-0.4-0.7-0.9-0.7-1.5l-0.6-6.3
				c-0.1-0.3-0.2-0.5-0.5-0.7l-5.6-3.3l-0.5,5.5c0,0.3-0.2,0.6-0.4,0.8c-0.3,0.2-0.6,0.2-0.9,0.2c-0.9-0.2-1.7-0.3-2.6-0.3
				c-0.6,0-1.1-0.3-1.5-0.8l-4.2-6.3c-0.1-0.1-0.2-0.2-0.4-0.1l-3.6,2.1c-0.1,0.1-0.2,0.2-0.1,0.4l3.4,6.8c0.2,0.5,0.2,1.2-0.1,1.7
				c-0.5,0.8-0.8,1.6-1.1,2.4c-0.1,0.3-0.3,0.5-0.6,0.7c-0.3,0.1-0.6,0.1-0.9,0l-5-2.3v6.5c0,0.3,0.2,0.6,0.4,0.7l5.2,3.6
				c0.4,0.3,0.8,0.8,0.9,1.4c0.3,1.5,0.7,2.9,1.3,4.3c0.2,0.6,0,1.2-0.4,1.6l-2.9,2.5c-0.1,0.1-0.2,0.3-0.1,0.5l4.1,7.2
				c0.1,0.2,0.3,0.2,0.5,0.2l3.6-1.3c0.6-0.2,1.2,0,1.6,0.4c1,1.2,2,2.3,3.1,3.3c0.4,0.4,0.7,0.9,0.7,1.5l0.6,6.3
				c0,0.3,0.2,0.5,0.4,0.7l5.6,3.3l0.6-5.5c0-0.3,0.2-0.6,0.4-0.8c0.3-0.2,0.6-0.2,0.9-0.2c0.9,0.2,1.7,0.3,2.6,0.3
				c0.6,0,1.1,0.3,1.5,0.8l4.2,6.2c0.1,0.1,0.3,0.2,0.4,0.1L462,90c0.1-0.1,0.2-0.2,0.1-0.4l-3.4-6.8c-0.2-0.5-0.2-1.2,0.1-1.7
				c0.5-0.8,0.8-1.6,1.1-2.4c0.1-0.3,0.3-0.5,0.6-0.7c0.1-0.1,0.3-0.1,0.4-0.1C461.1,78,461.2,78.1,461.4,78.1L461.4,78.1z
				 M444.5,75.8L444.5,75.8c-5.4-3.1-9.8-10.7-9.8-16.9c0-3.1,1.1-5.5,3-6.6s4.5-0.9,7.2,0.7c5.4,3.1,9.8,10.7,9.8,16.9
				c0,3.1-1.1,5.4-3,6.6c-0.8,0.5-1.8,0.7-2.7,0.7C447.4,77.1,445.9,76.6,444.5,75.8z M438.2,53.1c-1.6,1-2.6,3-2.6,5.8
				c0,5.9,4.2,13.1,9.3,16.1l0,0c2.4,1.4,4.6,1.6,6.3,0.7s2.6-3,2.6-5.8c0-5.9-4.2-13.2-9.3-16.1c-1.2-0.7-2.6-1.2-4-1.2
				C439.7,52.5,438.9,52.7,438.2,53.1L438.2,53.1z"/>
		</g>
		<path id="freepik--gear--inject-2_00000177467271064186527760000002918615806135395753_" class="st2" d="M412.8,85.2l3,3.8
			c0.4,0.5,0.6,1.1,0.6,1.7c0,0.8,0,1.5,0.1,2.2c0.1,0.5-0.3,0.9-0.7,0.9c0,0-0.1,0-0.1,0h-2.1c-0.4,0-0.7,0.3-0.7,0.6
			c0,0.1,0,0.2,0,0.3l1.6,5.2c0.2,0.6,0.7,1,1.3,1.2l2.5,0.8c0.6,0.2,1.1,0.7,1.5,1.2c0.4,0.9,0.9,1.8,1.5,2.6
			c0.3,0.5,0.4,1.1,0.4,1.7l-0.7,3c-0.1,0.6,0.1,1.2,0.5,1.6l3.4,3.9c0.4,0.4,0.9,0.5,1.1,0.1l1.2-2.1c0.2-0.4,0.8-0.4,1.3,0
			s1,0.7,1.5,1c0.6,0.3,1,0.8,1.3,1.4l1.8,4.7c0.3,0.6,0.8,1,1.4,1.1l2.6,0.4c0.5,0.1,0.9-0.2,0.8-0.8l-1.1-4.6
			c-0.1-0.5,0.1-1,0.6-1.2c0.3-0.1,0.5-0.3,0.8-0.5c0.5-0.3,1-0.2,1.4,0.2l3.1,3c0.4,0.4,0.9,0.4,1.1,0l1.1-2.9
			c0.1-0.6,0-1.2-0.4-1.6l-3-3.8c-0.4-0.5-0.6-1.1-0.6-1.7c0-0.7,0-1.5-0.1-2.2c-0.1-0.4,0.3-0.9,0.7-0.9c0,0,0.1,0,0.1,0h2.1
			c0.4,0,0.7-0.2,0.7-0.6c0-0.1,0-0.2,0-0.3l-1.6-5.2c-0.2-0.6-0.7-1-1.3-1.2l-2.5-0.8c-0.6-0.2-1.1-0.7-1.5-1.2
			c-0.5-0.9-0.9-1.8-1.5-2.6c-0.3-0.5-0.4-1.1-0.4-1.7l0.7-3c0.1-0.6-0.1-1.2-0.5-1.6l-3.4-3.9c-0.4-0.4-0.9-0.5-1.1-0.1l-1.2,2.1
			c-0.2,0.4-0.8,0.4-1.3,0c-0.5-0.4-1-0.7-1.5-1c-0.6-0.3-1-0.8-1.3-1.4l-1.8-4.7c-0.3-0.6-0.8-1-1.4-1.1l-2.6-0.4
			c-0.5-0.1-0.9,0.3-0.8,0.8l1.1,4.6c0.1,0.5-0.1,1-0.6,1.2c-0.3,0.1-0.5,0.3-0.8,0.4c-0.5,0.3-1,0.2-1.4-0.2l-3.1-3.1
			c-0.4-0.4-0.9-0.4-1.1,0l-1.1,2.9C412.3,84.2,412.4,84.8,412.8,85.2z M421.8,92.2c1.3-3.4,5.4-2.8,9.1,1.4s5.6,10.4,4.3,13.8
			s-5.4,2.8-9.1-1.4S420.5,95.7,421.8,92.2L421.8,92.2z"/>
	</g>
</g>
<g id="freepik--Code--inject-2">
	<g id="freepik--Binary--inject-2">
		<path class="st3" d="M76.4,95.3l1.5-1.2V82.8l-1.6,0.9v-1.3l2.9-2.6v13.6l1.5-0.6v1.3l-4.4,2.5V95.3z"/>
		<path class="st3" d="M81.6,109.2c0,1.7-0.2,3.4-0.8,4.9c-0.4,1.2-1.2,2.2-2.3,2.9c-1,0.6-1.7,0.5-2.3-0.2s-0.8-2-0.8-4v-3.6
			c0-1.7,0.2-3.4,0.8-4.9c0.4-1.2,1.2-2.2,2.3-2.9c1-0.6,1.7-0.5,2.3,0.2s0.8,2,0.8,4V109.2z M80.2,105.9c0.1-0.9-0.1-1.9-0.5-2.7
			c-0.3-0.5-0.8-0.6-1.3-0.2c-0.6,0.4-1.1,1-1.3,1.8c-0.3,1-0.5,2.1-0.5,3.2v4.4c-0.1,0.9,0.1,1.9,0.5,2.7c0.3,0.5,0.8,0.6,1.3,0.2
			c0.6-0.4,1.1-1,1.3-1.8c0.3-1,0.5-2.1,0.5-3.2L80.2,105.9z"/>
		<path class="st4" d="M76.4,138l1.5-1.2v-11.4l-1.6,0.9v-1.3l2.9-2.6V136l1.5-0.6v1.3l-4.4,2.5L76.4,138z"/>
		<path class="st5" d="M81.6,151.8c0,1.7-0.2,3.4-0.8,4.9c-0.4,1.2-1.2,2.2-2.3,2.9c-1,0.6-1.7,0.5-2.3-0.2s-0.8-2-0.8-4v-3.6
			c0-1.7,0.2-3.4,0.8-4.9c0.4-1.2,1.2-2.2,2.3-2.9c1-0.6,1.7-0.5,2.3,0.2s0.8,2,0.8,4V151.8z M80.2,148.6c0.1-0.9-0.1-1.9-0.5-2.7
			c-0.3-0.5-0.8-0.6-1.3-0.2c-0.6,0.4-1.1,1-1.3,1.8c-0.3,1-0.5,2.1-0.5,3.2v4.4c-0.1,0.9,0.1,1.9,0.5,2.7c0.3,0.5,0.8,0.6,1.3,0.2
			c0.6-0.4,1.1-1,1.3-1.8c0.3-1,0.5-2.1,0.5-3.2L80.2,148.6z"/>
		<path class="st5" d="M76.4,180.6l1.5-1.2v-11.4l-1.6,0.9v-1.3l2.9-2.6v13.6l1.5-0.6v1.3l-4.4,2.5L76.4,180.6z"/>
		<path class="st4" d="M76.4,201.9l1.5-1.2v-11.4l-1.6,0.9v-1.3l2.9-2.6V200l1.5-0.6v1.3l-4.4,2.5L76.4,201.9z"/>
		<path class="st3" d="M76.4,223.3l1.5-1.2v-11.4l-1.6,0.9v-1.3l2.9-2.6v13.6l1.5-0.6v1.3l-4.4,2.5L76.4,223.3z"/>
		<path class="st4" d="M81.6,237.1c0,1.7-0.2,3.4-0.8,4.9c-0.4,1.2-1.2,2.2-2.3,2.9c-1,0.6-1.7,0.5-2.3-0.2s-0.8-2-0.8-4v-3.6
			c0-1.7,0.2-3.4,0.8-4.9c0.4-1.2,1.2-2.2,2.3-2.9c1-0.6,1.7-0.5,2.3,0.2s0.8,2,0.8,4V237.1z M80.2,233.9c0.1-0.9-0.1-1.8-0.5-2.7
			c-0.3-0.5-0.8-0.6-1.3-0.2c-0.6,0.4-1.1,1-1.3,1.8c-0.3,1-0.5,2.1-0.5,3.2v4.4c-0.1,0.9,0.1,1.9,0.5,2.7c0.3,0.5,0.8,0.6,1.3,0.2
			c0.6-0.4,1.1-1,1.3-1.8c0.3-1,0.5-2.1,0.5-3.2L80.2,233.9z"/>
		<path class="st4" d="M76.4,265.9l1.5-1.2v-11.4l-1.6,0.9V253l2.9-2.6V264l1.5-0.6v1.3l-4.4,2.5L76.4,265.9z"/>
		<path class="st3" d="M81.6,279.8c0,1.7-0.2,3.4-0.8,4.9c-0.4,1.2-1.2,2.2-2.3,2.9c-1,0.6-1.7,0.5-2.3-0.2s-0.8-2-0.8-4v-3.6
			c0-1.7,0.2-3.4,0.8-4.9c0.4-1.2,1.2-2.2,2.3-2.8c1-0.6,1.7-0.5,2.3,0.2s0.8,2,0.8,4V279.8z M80.2,276.5c0.1-0.9-0.1-1.8-0.5-2.7
			c-0.3-0.5-0.8-0.6-1.3-0.2c-0.6,0.4-1.1,1-1.3,1.8c-0.3,1-0.5,2.1-0.5,3.2v4.5c-0.1,0.9,0.1,1.9,0.5,2.7c0.3,0.5,0.8,0.6,1.3,0.2
			c0.6-0.4,1.1-1,1.3-1.8c0.3-1,0.5-2.1,0.5-3.2L80.2,276.5z"/>
		<path class="st5" d="M76.4,308.6l1.5-1.2V296l-1.6,0.9v-1.3l2.9-2.6v13.5l1.5-0.6v1.3l-4.4,2.5L76.4,308.6z"/>
		<path class="st4" d="M81.6,322.4c0,1.7-0.2,3.4-0.8,4.9c-0.4,1.2-1.2,2.2-2.3,2.9c-1,0.6-1.7,0.5-2.3-0.2s-0.8-2-0.8-4v-3.6
			c0-1.7,0.2-3.4,0.8-4.9c0.4-1.2,1.2-2.2,2.3-2.9c1-0.6,1.7-0.5,2.3,0.2s0.8,2,0.8,4V322.4z M80.2,319.2c0.1-0.9-0.1-1.8-0.5-2.7
			c-0.3-0.5-0.8-0.6-1.3-0.2c-0.6,0.4-1.1,1-1.3,1.7c-0.3,1-0.5,2.1-0.5,3.2v4.5c-0.1,0.9,0.1,1.9,0.5,2.7c0.3,0.5,0.8,0.6,1.3,0.2
			c0.6-0.4,1.1-1,1.3-1.8c0.3-1,0.5-2.1,0.5-3.2L80.2,319.2z"/>
		<path class="st5" d="M76.4,351.2l1.5-1.2v-11.3l-1.6,0.9v-1.3l2.9-2.6v13.6l1.5-0.6v1.3l-4.4,2.5L76.4,351.2z"/>
		<path class="st4" d="M81.6,365.1c0,1.7-0.2,3.4-0.8,4.9c-0.4,1.2-1.2,2.2-2.3,2.9c-1,0.6-1.7,0.5-2.3-0.2s-0.8-2-0.8-4v-3.6
			c0-1.7,0.2-3.4,0.8-4.9c0.4-1.2,1.2-2.2,2.3-2.9c1-0.6,1.7-0.5,2.3,0.2s0.8,2,0.8,4V365.1z M80.2,361.8c0.1-0.9-0.1-1.8-0.5-2.7
			c-0.3-0.5-0.8-0.6-1.3-0.2c-0.6,0.4-1.1,1-1.3,1.8c-0.3,1-0.5,2.1-0.5,3.2v4.5c-0.1,0.9,0.1,1.9,0.5,2.7c0.3,0.5,0.8,0.6,1.3,0.2
			c0.6-0.4,1.1-1,1.3-1.8c0.3-1,0.5-2.1,0.5-3.2L80.2,361.8z"/>
		<path class="st5" d="M62.2,99.1c0,1.7-0.2,3.4-0.8,4.9c-0.4,1.2-1.2,2.2-2.3,2.9c-1,0.6-1.7,0.5-2.3-0.2s-0.8-2-0.8-3.9v-3.6
			c0-1.7,0.2-3.4,0.8-4.9c0.4-1.2,1.2-2.2,2.3-2.9c1-0.6,1.7-0.5,2.3,0.2s0.8,2,0.8,4L62.2,99.1z M60.8,95.8
			c0.1-0.9-0.1-1.9-0.5-2.7c-0.3-0.5-0.8-0.6-1.3-0.2c-0.6,0.4-1.1,1-1.3,1.8c-0.3,1-0.5,2.1-0.5,3.2v4.4c-0.1,0.9,0.1,1.9,0.5,2.7
			c0.3,0.5,0.8,0.6,1.3,0.2c0.6-0.4,1.1-1,1.3-1.8c0.3-1,0.5-2.1,0.5-3.2V95.8z"/>
		<path class="st4" d="M57,127.8l1.5-1.2v-11.4l-1.5,0.9V115l2.9-2.6v13.5l1.5-0.6v1.3l-4.4,2.5V127.8z"/>
		<path class="st3" d="M57,149.2l1.5-1.2v-11.4l-1.5,0.9v-1.3l2.9-2.6v13.6l1.5-0.6v1.4l-4.4,2.5V149.2z"/>
		<path class="st5" d="M57,170.5l1.5-1.2V158l-1.5,0.9v-1.3l2.8-2.6v13.6l1.5-0.6v1.3l-4.4,2.5V170.5z"/>
		<path class="st4" d="M62.2,184.4c0,1.7-0.2,3.4-0.8,4.9c-0.4,1.2-1.2,2.2-2.3,2.9c-1,0.6-1.7,0.5-2.3-0.2s-0.8-2-0.8-4v-3.6
			c0-1.7,0.2-3.4,0.8-4.9c0.4-1.2,1.2-2.2,2.3-2.8c1-0.6,1.7-0.5,2.3,0.2s0.8,2,0.8,4L62.2,184.4z M60.8,181.1
			c0.1-0.9-0.1-1.9-0.5-2.7c-0.3-0.5-0.8-0.5-1.3-0.2c-0.7,0.4-1.1,1.1-1.3,1.8c-0.3,1-0.5,2.1-0.5,3.2v4.4
			c-0.1,0.9,0.1,1.9,0.5,2.7c0.3,0.5,0.8,0.6,1.3,0.2c0.6-0.4,1.1-1,1.3-1.8c0.3-1,0.5-2.1,0.5-3.2V181.1z"/>
		<path class="st5" d="M62.2,205.7c0,1.7-0.2,3.4-0.8,4.9c-0.4,1.2-1.2,2.2-2.3,2.9c-1,0.6-1.7,0.5-2.3-0.2s-0.8-2-0.8-4v-3.6
			c0-1.7,0.2-3.4,0.8-4.9c0.4-1.2,1.2-2.2,2.3-2.8c1-0.6,1.7-0.5,2.3,0.2s0.8,2,0.8,4L62.2,205.7z M60.8,202.4
			c0.1-0.9-0.1-1.8-0.5-2.7c-0.3-0.5-0.8-0.6-1.3-0.2c-0.6,0.4-1.1,1-1.3,1.8c-0.3,1-0.5,2.1-0.5,3.2v4.5c-0.1,0.9,0.1,1.9,0.5,2.7
			c0.3,0.5,0.8,0.6,1.3,0.2c0.6-0.4,1.1-1,1.3-1.8c0.3-1,0.5-2.1,0.5-3.2V202.4z"/>
		<path class="st4" d="M57,234.5l1.5-1.2v-11.4l-1.5,0.9v-1.3l2.9-2.6v13.6l1.5-0.6v1.3l-4.4,2.5V234.5z"/>
		<path class="st3" d="M62.2,248.3c0,1.7-0.2,3.4-0.8,4.9c-0.4,1.2-1.2,2.2-2.3,2.9c-1,0.6-1.7,0.5-2.3-0.2s-0.8-2-0.8-4v-3.6
			c0-1.7,0.2-3.4,0.8-4.9c0.4-1.2,1.2-2.2,2.3-2.8c1-0.6,1.7-0.5,2.3,0.2s0.8,2,0.8,4L62.2,248.3z M60.8,245.1
			c0.1-0.9-0.1-1.8-0.5-2.7c-0.3-0.5-0.8-0.6-1.3-0.2c-0.6,0.4-1.1,1-1.3,1.8c-0.3,1-0.5,2.1-0.5,3.2v4.4c-0.1,0.9,0.1,1.9,0.5,2.7
			c0.3,0.5,0.8,0.6,1.3,0.2c0.6-0.4,1.1-1,1.3-1.8c0.3-1,0.5-2.1,0.5-3.2V245.1z"/>
		<path class="st5" d="M57,277.1l1.5-1.1v-11.4l-1.5,0.9v-1.3l2.9-2.6v13.6l1.5-0.6v1.3l-4.4,2.5V277.1z"/>
		<path class="st5" d="M62.2,291c0,1.7-0.2,3.4-0.8,4.9c-0.4,1.2-1.2,2.2-2.3,2.9c-1,0.6-1.7,0.5-2.3-0.2s-0.8-2-0.8-4V291
			c0-1.7,0.2-3.4,0.8-4.9c0.4-1.2,1.2-2.2,2.3-2.9c1-0.6,1.7-0.5,2.3,0.2s0.8,2,0.8,4L62.2,291z M60.8,287.7
			c0.1-0.9-0.1-1.9-0.5-2.7c-0.3-0.5-0.8-0.6-1.3-0.2c-0.6,0.4-1.1,1-1.3,1.8c-0.3,1-0.5,2.1-0.5,3.2v4.4c-0.1,0.9,0.1,1.9,0.5,2.7
			c0.3,0.5,0.8,0.6,1.3,0.2c0.6-0.4,1.1-1,1.3-1.8c0.3-1,0.5-2.1,0.5-3.2V287.7z"/>
		<path class="st4" d="M57,319.8l1.5-1.2v-11.4l-1.5,0.9v-1.3l2.9-2.6v13.6l1.5-0.6v1.3l-4.4,2.5V319.8z"/>
		<path class="st5" d="M62.2,333.6c0,1.7-0.2,3.4-0.8,4.9c-0.4,1.2-1.2,2.2-2.3,2.9c-1,0.6-1.7,0.5-2.3-0.2s-0.8-2-0.8-4v-3.6
			c0-1.7,0.2-3.4,0.8-4.9c0.4-1.2,1.2-2.2,2.3-2.8c1-0.6,1.7-0.5,2.3,0.2s0.8,2,0.8,4L62.2,333.6z M60.8,330.4
			c0.1-0.9-0.1-1.9-0.5-2.7c-0.3-0.5-0.8-0.6-1.3-0.2c-0.6,0.4-1.1,1-1.3,1.8c-0.3,1-0.5,2.1-0.5,3.2v4.4c-0.1,0.9,0.1,1.9,0.5,2.7
			c0.3,0.5,0.8,0.6,1.3,0.2c0.6-0.4,1.1-1,1.3-1.8c0.3-1,0.5-2.1,0.5-3.2V330.4z"/>
		<path class="st3" d="M62.2,355c0,1.7-0.2,3.4-0.8,4.9c-0.4,1.2-1.3,2.2-2.3,2.8c-1,0.6-1.7,0.5-2.3-0.2s-0.8-2-0.8-4V355
			c0-1.7,0.2-3.4,0.8-4.9c0.4-1.2,1.2-2.2,2.3-2.9c1-0.6,1.7-0.5,2.3,0.2s0.8,2,0.8,4L62.2,355z M60.8,351.7
			c0.1-0.9-0.1-1.8-0.5-2.7c-0.3-0.5-0.8-0.6-1.3-0.2c-0.6,0.4-1.1,1-1.3,1.8c-0.3,1-0.5,2.1-0.5,3.2v4.5c-0.1,0.9,0.1,1.9,0.5,2.7
			c0.3,0.5,0.8,0.6,1.3,0.2c0.6-0.4,1.1-1,1.3-1.8c0.3-1,0.5-2.1,0.5-3.2V351.7z"/>
		<path class="st5" d="M62.2,376.3c0,1.7-0.2,3.4-0.8,4.9c-0.4,1.2-1.2,2.2-2.3,2.9c-1,0.6-1.7,0.5-2.3-0.2s-0.8-2-0.8-4v-3.6
			c0-1.7,0.2-3.4,0.8-4.9c0.4-1.2,1.2-2.2,2.3-2.8c1-0.6,1.7-0.5,2.3,0.2s0.8,2,0.8,4L62.2,376.3z M60.8,373
			c0.1-0.9-0.1-1.9-0.5-2.7c-0.3-0.5-0.8-0.5-1.3-0.2c-0.6,0.4-1.1,1-1.3,1.8c-0.3,1-0.5,2.1-0.5,3.2v4.4c-0.1,0.9,0.1,1.9,0.5,2.7
			c0.3,0.5,0.8,0.6,1.3,0.2c0.6-0.4,1.1-1,1.3-1.8c0.3-1,0.5-2.1,0.5-3.2V373z"/>
		<path class="st4" d="M37.6,117.7l1.5-1.2v-11.4l-1.5,0.9v-1.3l2.9-2.6v13.6l1.5-0.6v1.3l-4.4,2.5V117.7z"/>
		<path class="st5" d="M37.6,139l1.5-1.2v-11.3l-1.5,0.9v-1.3l2.9-2.6v13.6l1.5-0.6v1.3l-4.4,2.5L37.6,139z"/>
		<path class="st4" d="M42.8,152.9c0,1.7-0.2,3.4-0.8,4.9c-0.4,1.2-1.2,2.2-2.3,2.9c-1,0.6-1.7,0.5-2.3-0.2s-0.8-2-0.8-4v-3.6
			c0-1.7,0.2-3.4,0.8-4.9c0.4-1.2,1.2-2.2,2.3-2.9c1-0.6,1.7-0.5,2.3,0.2s0.8,2,0.8,4V152.9z M41.4,149.7c0.1-0.9-0.1-1.8-0.4-2.7
			c-0.3-0.5-0.8-0.6-1.3-0.2c-0.6,0.4-1.1,1-1.3,1.8c-0.3,1-0.5,2.1-0.5,3.2v4.4c-0.1,0.9,0.1,1.9,0.5,2.7c0.3,0.5,0.8,0.6,1.3,0.2
			c0.6-0.4,1.1-1.1,1.3-1.8c0.3-1,0.5-2.1,0.5-3.2L41.4,149.7z"/>
		<path class="st5" d="M37.6,181.7l1.5-1.2v-11.4l-1.5,0.9v-1.3l2.9-2.6v13.6l1.5-0.6v1.3l-4.4,2.5V181.7z"/>
		<path class="st3" d="M42.8,195.6c0,1.7-0.2,3.4-0.8,4.9c-0.4,1.2-1.2,2.2-2.3,2.9c-1,0.6-1.7,0.5-2.3-0.2s-0.8-2-0.8-4v-3.6
			c0-1.7,0.2-3.4,0.8-4.9c0.4-1.2,1.2-2.2,2.3-2.9c1-0.6,1.7-0.5,2.3,0.2s0.8,2,0.8,4V195.6z M41.4,192.3c0.1-0.9-0.1-1.8-0.5-2.7
			c-0.3-0.5-0.8-0.6-1.3-0.2c-0.6,0.4-1.1,1-1.3,1.8c-0.3,1-0.5,2.1-0.5,3.2v4.4c-0.1,0.9,0.1,1.9,0.5,2.7c0.3,0.5,0.8,0.6,1.3,0.2
			c0.7-0.4,1.1-1,1.4-1.8c0.3-1,0.5-2.1,0.5-3.2L41.4,192.3z"/>
		<path class="st4" d="M42.8,216.9c0,1.7-0.2,3.4-0.8,4.9c-0.4,1.2-1.2,2.2-2.3,2.9c-1,0.6-1.7,0.5-2.3-0.2s-0.8-2-0.8-4v-3.6
			c0-1.7,0.2-3.4,0.8-4.9c0.4-1.2,1.2-2.2,2.3-2.9c1-0.6,1.7-0.5,2.3,0.2s0.8,2,0.8,4V216.9z M41.4,213.6c0.1-0.9-0.1-1.9-0.5-2.7
			c-0.3-0.5-0.8-0.6-1.3-0.2c-0.6,0.4-1.1,1-1.3,1.8c-0.3,1-0.5,2.1-0.5,3.2v4.4c-0.1,0.9,0.1,1.9,0.5,2.7c0.3,0.5,0.8,0.6,1.3,0.2
			c0.7-0.4,1.1-1,1.4-1.8c0.3-1,0.5-2.1,0.5-3.2L41.4,213.6z"/>
		<path class="st5" d="M37.6,245.7l1.5-1.2v-11.4l-1.5,0.9v-1.3l2.9-2.6v13.6l1.5-0.6v1.3l-4.4,2.5V245.7z"/>
		<path class="st5" d="M42.8,259.5c0,1.7-0.2,3.4-0.8,4.9c-0.4,1.2-1.2,2.2-2.3,2.9c-1,0.5-1.7,0.5-2.3-0.2s-0.8-2-0.8-4v-3.6
			c0-1.7,0.2-3.4,0.8-4.9c0.4-1.2,1.2-2.2,2.3-2.9c1-0.6,1.7-0.5,2.3,0.2s0.8,2,0.8,4V259.5z M41.4,256.3c0.1-0.9-0.1-1.8-0.5-2.7
			c-0.3-0.5-0.8-0.6-1.3-0.2c-0.6,0.4-1.1,1-1.3,1.8c-0.3,1-0.5,2.1-0.5,3.2v4.5c-0.1,0.9,0.1,1.9,0.5,2.7c0.3,0.5,0.8,0.6,1.3,0.2
			c0.7-0.4,1.1-1,1.4-1.7c0.3-1,0.5-2.1,0.5-3.2L41.4,256.3z"/>
		<path class="st4" d="M42.8,280.9c0,1.7-0.2,3.4-0.8,4.9c-0.4,1.2-1.2,2.2-2.3,2.9c-1,0.6-1.7,0.5-2.3-0.2s-0.8-2-0.8-4v-3.6
			c0-1.7,0.2-3.4,0.8-4.9c0.4-1.2,1.2-2.2,2.3-2.9c1-0.6,1.7-0.5,2.3,0.2s0.8,2,0.8,4V280.9z M41.4,277.6c0.1-0.9-0.1-1.9-0.5-2.7
			c-0.3-0.5-0.8-0.6-1.3-0.2c-0.6,0.4-1.1,1-1.3,1.8c-0.3,1-0.5,2.1-0.5,3.2v4.4c-0.1,0.9,0.1,1.9,0.5,2.7c0.3,0.5,0.8,0.6,1.3,0.2
			c0.7-0.4,1.2-1,1.4-1.8c0.3-1,0.5-2.1,0.5-3.2L41.4,277.6z"/>
		<path class="st5" d="M37.6,309.6l1.5-1.2v-11.4l-1.5,0.9v-1.3l2.9-2.6v13.6l1.5-0.6v1.3l-4.4,2.6V309.6z"/>
		<path class="st3" d="M37.6,331l1.5-1.2v-11.4l-1.5,0.9v-1.3l2.9-2.6V329l1.5-0.6v1.3l-4.4,2.5L37.6,331z"/>
		<path class="st5" d="M42.8,344.8c0,1.7-0.2,3.4-0.8,4.9c-0.4,1.2-1.2,2.2-2.3,2.9c-1,0.6-1.7,0.5-2.3-0.2s-0.8-2-0.8-4v-3.6
			c0-1.7,0.2-3.4,0.8-4.9c0.4-1.2,1.2-2.2,2.3-2.9c1-0.6,1.7-0.5,2.3,0.2s0.8,2,0.8,4V344.8z M41.4,341.6c0.1-0.9-0.1-1.8-0.5-2.7
			c-0.3-0.5-0.8-0.6-1.3-0.2c-0.6,0.4-1.1,1-1.3,1.8c-0.3,1-0.5,2.1-0.5,3.2v4.5c-0.1,0.9,0.1,1.9,0.5,2.7c0.3,0.5,0.8,0.6,1.3,0.2
			c0.7-0.4,1.1-1,1.4-1.8c0.3-1,0.5-2.1,0.5-3.2L41.4,341.6z"/>
		<path class="st4" d="M37.6,373.6l1.5-1.2v-11.4l-1.5,0.9v-1.3l2.9-2.6v13.6l1.6-0.6v1.3l-4.4,2.5L37.6,373.6z"/>
		<path class="st5" d="M42.8,387.5c0,1.7-0.2,3.4-0.8,4.9c-0.4,1.2-1.2,2.2-2.3,2.9c-1,0.6-1.7,0.5-2.3-0.2s-0.8-2-0.8-4v-3.6
			c0-1.7,0.2-3.4,0.8-4.9c0.4-1.2,1.2-2.2,2.3-2.9c1-0.6,1.7-0.5,2.3,0.2s0.8,2,0.8,4V387.5z M41.4,384.2c0.1-0.9-0.1-1.8-0.5-2.7
			c-0.3-0.5-0.8-0.6-1.3-0.2c-0.6,0.4-1.1,1-1.3,1.8c-0.3,1-0.5,2.1-0.5,3.2v4.4c-0.1,0.9,0.1,1.9,0.5,2.7c0.3,0.5,0.8,0.6,1.3,0.2
			c0.7-0.4,1.1-1,1.4-1.8c0.3-1,0.5-2.1,0.5-3.2L41.4,384.2z"/>
		<path class="st4" d="M133.8,62.2l1.5-1.2V49.7l-1.6,0.9v-1.3l2.9-2.6v13.6l1.5-0.6V61l-4.4,2.5V62.2z"/>
		<path class="st3" d="M138.9,76.1c0,1.7-0.2,3.4-0.8,4.9c-0.4,1.2-1.2,2.2-2.3,2.9c-1,0.6-1.7,0.5-2.3-0.2s-0.8-2-0.8-4v-3.6
			c0-1.7,0.2-3.4,0.8-4.9c0.4-1.2,1.2-2.2,2.3-2.9c1-0.6,1.7-0.5,2.3,0.2s0.9,2,0.9,4L138.9,76.1z M137.6,72.8
			c0.1-0.9-0.1-1.9-0.5-2.7c-0.3-0.5-0.8-0.6-1.4-0.2c-0.6,0.4-1.1,1-1.3,1.8c-0.3,1-0.5,2.1-0.5,3.2v4.4c-0.1,0.9,0.1,1.9,0.5,2.7
			c0.3,0.5,0.8,0.6,1.3,0.2c0.6-0.4,1.1-1,1.3-1.8c0.3-1,0.5-2.1,0.5-3.2L137.6,72.8z"/>
		<path class="st4" d="M133.8,104.8l1.5-1.2V92.3l-1.6,0.9V92l2.9-2.6v13.6l1.5-0.6v1.3l-4.4,2.5V104.8z"/>
		<path class="st5" d="M138.9,118.7c0,1.7-0.2,3.4-0.8,4.9c-0.4,1.2-1.2,2.2-2.3,2.9c-1,0.6-1.7,0.5-2.3-0.2s-0.8-2-0.8-4v-3.6
			c0-1.7,0.2-3.4,0.8-4.9c0.4-1.2,1.2-2.2,2.3-2.9c1-0.6,1.7-0.5,2.3,0.2s0.9,2,0.9,4L138.9,118.7z M137.6,115.5
			c0.1-0.9-0.1-1.9-0.5-2.7c-0.3-0.5-0.8-0.6-1.4-0.2c-0.6,0.4-1.1,1-1.3,1.8c-0.3,1-0.5,2.1-0.5,3.2v4.5c-0.1,0.9,0.1,1.9,0.5,2.7
			c0.3,0.5,0.8,0.6,1.3,0.2c0.6-0.4,1.1-1,1.3-1.8c0.3-1.1,0.5-2.1,0.5-3.2L137.6,115.5z"/>
		<path class="st5" d="M133.8,147.5l1.5-1.2V135l-1.6,0.9v-1.3l2.9-2.7v13.6l1.5-0.6v1.3l-4.4,2.5V147.5z"/>
		<path class="st4" d="M133.8,168.8l1.5-1.2v-11.4l-1.6,0.9V156l2.9-2.6v13.6l1.5-0.6v1.3l-4.4,2.5V168.8z"/>
		<path class="st3" d="M133.8,190.1l1.5-1.2v-11.4l-1.6,0.9v-1.3l2.9-2.6v13.6l1.5-0.6v1.3l-4.4,2.5V190.1z"/>
		<path class="st5" d="M138.9,204c0,1.7-0.2,3.4-0.8,4.9c-0.4,1.2-1.2,2.2-2.3,2.9c-1,0.6-1.7,0.5-2.3-0.2s-0.8-2-0.8-4V204
			c0-1.7,0.2-3.4,0.8-4.9c0.4-1.2,1.2-2.2,2.3-2.9c1-0.6,1.7-0.5,2.3,0.2s0.9,2,0.9,4L138.9,204z M137.6,200.7
			c0.1-0.9-0.1-1.8-0.5-2.7c-0.3-0.5-0.8-0.6-1.4-0.2c-0.6,0.4-1.1,1-1.3,1.8c-0.3,1-0.5,2.1-0.5,3.2v4.4c-0.1,0.9,0.1,1.9,0.5,2.7
			c0.3,0.5,0.8,0.6,1.3,0.2c0.6-0.4,1.1-1,1.3-1.8c0.3-1,0.5-2.1,0.5-3.2L137.6,200.7z"/>
		<path class="st4" d="M133.8,232.8l1.5-1.2v-11.4l-1.6,0.9v-1.3l2.9-2.6v13.6l1.5-0.6v1.3l-4.4,2.5V232.8z"/>
		<path class="st3" d="M138.9,246.7c0,1.7-0.2,3.4-0.8,4.9c-0.4,1.2-1.2,2.2-2.3,2.9c-1,0.6-1.7,0.5-2.3-0.2s-0.8-2-0.8-4v-3.6
			c0-1.7,0.2-3.4,0.8-4.9c0.4-1.2,1.2-2.2,2.3-2.9c1-0.6,1.7-0.5,2.3,0.2s0.9,2,0.9,4L138.9,246.7z M137.6,243.4
			c0.1-0.9-0.1-1.8-0.5-2.7c-0.3-0.5-0.8-0.6-1.4-0.2c-0.6,0.4-1.1,1-1.3,1.8c-0.3,1-0.5,2.1-0.5,3.2v4.4c-0.1,0.9,0.1,1.9,0.5,2.7
			c0.3,0.5,0.8,0.6,1.3,0.2c0.6-0.4,1.1-1,1.3-1.8c0.3-1,0.5-2.1,0.5-3.2L137.6,243.4z"/>
		<path class="st5" d="M133.8,275.5l1.5-1.2v-11.4l-1.6,0.9v-1.3l2.9-2.6v13.6l1.5-0.6v1.3l-4.4,2.5V275.5z"/>
		<path class="st4" d="M138.9,289.3c0,1.7-0.2,3.4-0.8,4.9c-0.4,1.2-1.2,2.2-2.3,2.9c-1,0.6-1.7,0.5-2.3-0.2s-0.8-2-0.8-4v-3.6
			c0-1.7,0.2-3.4,0.8-4.9c0.4-1.2,1.2-2.2,2.3-2.9c1-0.6,1.7-0.5,2.3,0.2s0.9,2,0.9,4L138.9,289.3z M137.6,286.1
			c0.1-0.9-0.1-1.8-0.5-2.7c-0.3-0.5-0.8-0.6-1.4-0.2c-0.6,0.4-1.1,1-1.3,1.8c-0.3,1-0.5,2.1-0.5,3.2v4.5c-0.1,0.9,0.1,1.9,0.5,2.7
			c0.3,0.5,0.8,0.6,1.3,0.2c0.6-0.4,1.1-1,1.3-1.8c0.3-1,0.5-2.1,0.5-3.2L137.6,286.1z"/>
		<path class="st5" d="M133.8,318.1l1.5-1.2v-11.4l-1.6,0.9v-1.3l2.9-2.6v13.6l1.5-0.6v1.3l-4.4,2.5V318.1z"/>
		<path class="st5" d="M138.9,332c0,1.7-0.2,3.4-0.8,4.9c-0.4,1.2-1.2,2.2-2.3,2.9c-1,0.6-1.7,0.5-2.3-0.2s-0.8-2-0.8-4V332
			c0-1.7,0.2-3.4,0.8-4.9c0.4-1.2,1.2-2.2,2.3-2.9c1-0.6,1.7-0.5,2.3,0.2s0.9,2,0.9,4L138.9,332z M137.6,328.7
			c0.1-0.9-0.1-1.8-0.5-2.7c-0.3-0.5-0.8-0.6-1.4-0.2c-0.6,0.4-1.1,1-1.3,1.8c-0.3,1-0.5,2.1-0.5,3.2v4.5c-0.1,0.9,0.1,1.9,0.5,2.7
			c0.3,0.5,0.8,0.6,1.3,0.2c0.6-0.4,1.1-1,1.3-1.8c0.3-1,0.5-2.1,0.5-3.2L137.6,328.7z"/>
		<path class="st3" d="M119.5,66c0,1.7-0.2,3.4-0.8,4.9c-0.4,1.2-1.2,2.2-2.3,2.9c-1,0.6-1.7,0.5-2.3-0.2s-0.8-2-0.8-4V66
			c0-1.7,0.2-3.4,0.8-4.9c0.4-1.2,1.2-2.2,2.3-2.9c1-0.6,1.7-0.5,2.3,0.2s0.8,2,0.8,4V66z M118.2,62.7c0.1-0.9-0.1-1.9-0.5-2.7
			c-0.3-0.5-0.8-0.6-1.3-0.2c-0.6,0.4-1.1,1-1.4,1.7c-0.3,1-0.5,2.1-0.5,3.2v4.4c-0.1,0.9,0.1,1.9,0.5,2.7c0.3,0.5,0.8,0.6,1.3,0.2
			c0.6-0.4,1.1-1,1.3-1.8c0.3-1,0.5-2.1,0.5-3.2L118.2,62.7z"/>
		<path class="st4" d="M114.3,94.7l1.5-1.2V82.2l-1.6,0.9v-1.3l2.9-2.6v13.6l1.5-0.6v1.3l-4.4,2.5V94.7z"/>
		<path class="st3" d="M114.3,116.1l1.5-1.2v-11.4l-1.6,0.9v-1.3l2.9-2.6v13.6l1.5-0.6v1.3l-4.4,2.5L114.3,116.1z"/>
		<path class="st5" d="M114.3,137.4l1.5-1.2v-11.4l-1.6,0.9v-1.3l2.9-2.6v13.6l1.5-0.6v1.3l-4.4,2.5L114.3,137.4z"/>
		<path class="st4" d="M119.5,151.2c0,1.7-0.2,3.4-0.8,4.9c-0.4,1.2-1.2,2.2-2.3,2.9c-1,0.6-1.7,0.5-2.3-0.2s-0.8-2-0.8-4v-3.6
			c0-1.7,0.2-3.4,0.8-4.9c0.4-1.2,1.2-2.2,2.3-2.9c1-0.6,1.7-0.5,2.3,0.2s0.8,2,0.8,4V151.2z M118.2,148c0.1-0.9-0.1-1.8-0.5-2.7
			c-0.3-0.5-0.8-0.6-1.3-0.2c-0.6,0.4-1.1,1-1.3,1.8c-0.3,1-0.5,2.1-0.5,3.2v4.4c-0.1,0.9,0.1,1.9,0.5,2.7c0.3,0.5,0.8,0.6,1.3,0.2
			c0.6-0.4,1.1-1,1.3-1.8c0.3-1,0.5-2.1,0.5-3.2V148z"/>
		<path class="st5" d="M119.5,172.6c0,1.7-0.2,3.4-0.8,4.9c-0.4,1.2-1.2,2.2-2.3,2.9c-1,0.6-1.7,0.5-2.3-0.2s-0.8-2-0.8-4v-3.5
			c0-1.7,0.2-3.4,0.8-4.9c0.4-1.2,1.2-2.2,2.3-2.9c1-0.6,1.7-0.5,2.3,0.2s0.8,2,0.8,4V172.6z M118.2,169.3c0.1-0.9-0.1-1.8-0.5-2.7
			c-0.3-0.5-0.8-0.6-1.3-0.2c-0.6,0.4-1.1,1-1.3,1.8c-0.3,1-0.5,2.1-0.5,3.2v4.4c-0.1,0.9,0.1,1.9,0.5,2.7c0.3,0.5,0.8,0.6,1.3,0.2
			c0.6-0.4,1.1-1,1.3-1.8c0.3-1,0.5-2.1,0.5-3.2V169.3z"/>
		<path class="st4" d="M114.3,201.4l1.5-1.2v-11.4l-1.6,0.9v-1.3l2.9-2.6v13.6l1.5-0.6v1.3l-4.4,2.5L114.3,201.4z"/>
		<path class="st4" d="M119.5,215.2c0,1.7-0.2,3.4-0.8,4.9c-0.4,1.2-1.2,2.2-2.3,2.9c-1,0.6-1.7,0.5-2.3-0.2s-0.8-2-0.8-4v-3.6
			c0-1.7,0.2-3.4,0.8-4.9c0.4-1.2,1.2-2.2,2.3-2.9c1-0.6,1.7-0.5,2.3,0.2s0.8,2,0.8,4V215.2z M118.2,212c0.1-0.9-0.1-1.8-0.5-2.7
			c-0.3-0.5-0.8-0.6-1.3-0.2c-0.6,0.4-1.1,1-1.3,1.8c-0.3,1-0.5,2.1-0.5,3.2v4.4c-0.1,0.9,0.1,1.9,0.5,2.7c0.3,0.5,0.8,0.6,1.3,0.2
			c0.6-0.4,1.1-1,1.3-1.8c0.3-1,0.5-2.1,0.5-3.2V212z"/>
		<path class="st5" d="M114.3,244l1.5-1.2v-11.4l-1.6,0.9v-1.3l2.9-2.6v13.6l1.5-0.6v1.3l-4.4,2.5L114.3,244z"/>
		<path class="st5" d="M119.5,257.9c0,1.7-0.2,3.4-0.8,4.9c-0.4,1.2-1.2,2.2-2.3,2.9c-1,0.6-1.7,0.5-2.3-0.2s-0.8-2-0.8-4v-3.6
			c0-1.7,0.2-3.4,0.8-4.9c0.4-1.2,1.2-2.2,2.3-2.9c1-0.6,1.7-0.5,2.3,0.2s0.8,2,0.8,4V257.9z M118.2,254.6c0.1-0.9-0.1-1.9-0.5-2.7
			c-0.3-0.5-0.8-0.6-1.3-0.2c-0.6,0.4-1.1,1-1.3,1.8c-0.3,1-0.5,2.1-0.5,3.2v4.4c-0.1,0.9,0.1,1.9,0.5,2.7c0.3,0.5,0.8,0.6,1.3,0.2
			c0.6-0.4,1.1-1,1.3-1.8c0.3-1,0.5-2.1,0.5-3.2V254.6z"/>
		<path class="st4" d="M114.3,286.7l1.5-1.2v-11.4l-1.6,0.9v-1.3l2.9-2.6v13.6l1.5-0.6v1.3l-4.4,2.5V286.7z"/>
		<path class="st5" d="M119.5,300.5c0,1.7-0.2,3.4-0.8,4.9c-0.4,1.2-1.2,2.2-2.3,2.9c-1,0.6-1.7,0.5-2.3-0.2s-0.8-2-0.8-4v-3.6
			c0-1.7,0.2-3.4,0.8-4.9c0.4-1.2,1.2-2.2,2.3-2.9c1-0.6,1.7-0.5,2.3,0.2s0.8,2,0.8,4V300.5z M118.2,297.3c0.1-0.9-0.1-1.9-0.5-2.7
			c-0.3-0.5-0.8-0.6-1.3-0.2c-0.6,0.4-1.1,1-1.3,1.8c-0.3,1-0.5,2.1-0.5,3.2v4.4c-0.1,0.9,0.1,1.9,0.5,2.7c0.3,0.5,0.8,0.6,1.3,0.2
			c0.6-0.4,1.1-1,1.3-1.8c0.3-1,0.5-2.1,0.5-3.2V297.3z"/>
		<path class="st3" d="M119.5,321.9c0,1.7-0.2,3.4-0.8,4.9c-0.4,1.2-1.2,2.2-2.3,2.9c-1,0.6-1.7,0.5-2.3-0.2s-0.8-2-0.8-4v-3.6
			c0-1.7,0.2-3.4,0.8-4.9c0.4-1.2,1.2-2.2,2.3-2.9c1-0.6,1.7-0.5,2.3,0.2s0.8,2,0.8,4V321.9z M118.2,318.6c0.1-0.9-0.1-1.8-0.5-2.7
			c-0.3-0.5-0.8-0.6-1.3-0.2c-0.6,0.4-1.1,1-1.3,1.8c-0.3,1-0.5,2.1-0.5,3.2v4.5c-0.1,0.9,0.1,1.9,0.5,2.7c0.3,0.5,0.8,0.6,1.3,0.2
			c0.6-0.4,1.1-1,1.3-1.8c0.3-1,0.5-2.1,0.5-3.2V318.6z"/>
		<path class="st4" d="M119.5,343.2c0,1.7-0.2,3.4-0.8,4.9c-0.4,1.2-1.2,2.2-2.3,2.9c-1,0.6-1.7,0.5-2.3-0.2s-0.8-2-0.8-4v-3.6
			c0-1.7,0.2-3.4,0.8-4.9c0.4-1.2,1.2-2.2,2.3-2.9c1-0.6,1.7-0.5,2.3,0.2s0.8,2,0.8,4V343.2z M118.2,339.9c0.1-0.9-0.1-1.9-0.5-2.7
			c-0.3-0.5-0.8-0.6-1.3-0.2c-0.6,0.4-1.1,1-1.3,1.8c-0.3,1-0.5,2.1-0.5,3.2v4.4c-0.1,0.9,0.1,1.9,0.5,2.7c0.3,0.5,0.8,0.6,1.3,0.2
			c0.6-0.4,1.1-1,1.3-1.8c0.3-1,0.5-2.1,0.5-3.2V339.9z"/>
		<path class="st4" d="M94.9,84.6l1.5-1.2V72.1L94.9,73v-1.3l2.9-2.6v13.6l1.5-0.6v1.3l-4.4,2.5L94.9,84.6z"/>
		<path class="st5" d="M94.9,105.9l1.5-1.2V93.4l-1.6,0.9v-1.3l2.9-2.6V104l1.5-0.6v1.3l-4.4,2.5L94.9,105.9z"/>
		<path class="st4" d="M100.1,119.8c0,1.7-0.2,3.4-0.8,4.9c-0.4,1.2-1.2,2.2-2.3,2.9c-1,0.6-1.7,0.5-2.3-0.2s-0.8-2-0.8-4v-3.6
			c0-1.7,0.2-3.4,0.8-4.9c0.4-1.2,1.3-2.2,2.3-2.9c1-0.6,1.7-0.5,2.3,0.2s0.8,2,0.8,4L100.1,119.8z M98.8,116.5
			c0.1-0.9-0.1-1.8-0.5-2.7c-0.3-0.5-0.8-0.6-1.3-0.2c-0.6,0.4-1.1,1-1.3,1.8c-0.3,1-0.5,2.1-0.5,3.2v4.4c-0.1,0.9,0.1,1.9,0.5,2.7
			c0.3,0.5,0.8,0.6,1.3,0.2c0.6-0.4,1.1-1,1.3-1.8c0.3-1,0.5-2.1,0.5-3.2L98.8,116.5z"/>
		<path class="st5" d="M94.9,148.6l1.5-1.2v-11.4l-1.5,0.9v-1.3l2.9-2.6v13.6l1.5-0.6v1.3l-4.4,2.5L94.9,148.6z"/>
		<path class="st3" d="M100.1,162.4c0,1.7-0.2,3.4-0.8,4.9c-0.4,1.2-1.2,2.2-2.3,2.9c-1,0.6-1.7,0.5-2.3-0.2s-0.8-2-0.8-4v-3.6
			c0-1.7,0.2-3.4,0.8-4.9c0.4-1.2,1.3-2.2,2.3-2.8c1-0.6,1.7-0.5,2.3,0.2s0.8,2,0.8,4L100.1,162.4z M98.8,159.2
			c0.1-0.9-0.1-1.8-0.5-2.7c-0.3-0.5-0.8-0.6-1.3-0.2c-0.6,0.4-1.1,1-1.3,1.8c-0.3,1-0.5,2.1-0.5,3.2v4.4c-0.1,0.9,0.1,1.9,0.5,2.7
			c0.3,0.5,0.8,0.6,1.3,0.2c0.6-0.4,1.1-1,1.3-1.8c0.3-1,0.5-2.1,0.5-3.2L98.8,159.2z"/>
		<path class="st4" d="M100.1,183.8c0,1.7-0.2,3.4-0.8,4.9c-0.4,1.2-1.2,2.2-2.3,2.9c-1,0.6-1.7,0.5-2.3-0.2s-0.8-2-0.8-4v-3.6
			c0-1.7,0.2-3.4,0.8-4.9c0.4-1.2,1.3-2.2,2.3-2.8c1-0.6,1.7-0.5,2.3,0.2s0.8,2,0.8,4L100.1,183.8z M98.8,180.5
			c0.1-0.9-0.1-1.8-0.5-2.7c-0.3-0.5-0.8-0.6-1.3-0.2c-0.6,0.4-1.1,1-1.3,1.8c-0.3,1-0.5,2.1-0.5,3.2v4.4c-0.1,0.9,0.1,1.9,0.5,2.7
			c0.3,0.5,0.8,0.6,1.3,0.2c0.6-0.4,1.1-1,1.3-1.8c0.3-1,0.5-2.1,0.5-3.2L98.8,180.5z"/>
		<path class="st5" d="M94.9,212.6l1.5-1.2V200l-1.5,1v-1.3l2.9-2.6v13.6l1.5-0.6v1.3l-4.4,2.5V212.6z"/>
		<path class="st5" d="M100.1,226.4c0,1.7-0.2,3.4-0.8,4.9c-0.4,1.2-1.2,2.2-2.3,2.9c-1,0.6-1.7,0.5-2.3-0.2s-0.8-2-0.8-4v-3.6
			c0-1.7,0.2-3.4,0.8-4.9c0.4-1.2,1.3-2.2,2.3-2.8c1-0.6,1.7-0.5,2.3,0.2s0.8,2,0.8,4L100.1,226.4z M98.8,223.2
			c0.1-0.9-0.1-1.8-0.5-2.7c-0.3-0.5-0.8-0.6-1.3-0.2c-0.6,0.4-1.1,1-1.3,1.7c-0.3,1-0.5,2.1-0.5,3.2v4.4c-0.1,0.9,0.1,1.9,0.5,2.7
			c0.3,0.5,0.8,0.6,1.3,0.2c0.6-0.4,1.1-1,1.3-1.8c0.3-1,0.5-2.1,0.5-3.2L98.8,223.2z"/>
		<path class="st4" d="M100.1,247.8c0,1.7-0.2,3.4-0.8,4.9c-0.4,1.2-1.2,2.2-2.3,2.9c-0.7,0.6-1.7,0.5-2.3-0.2c0,0,0,0,0,0
			c-0.6-0.7-0.8-2-0.8-4v-3.6c0-1.7,0.2-3.4,0.8-4.9c0.4-1.2,1.3-2.2,2.3-2.8c1-0.6,1.7-0.5,2.3,0.2s0.8,2,0.8,4L100.1,247.8z
			 M98.8,244.5c0.1-0.9-0.1-1.9-0.5-2.7c-0.3-0.5-0.8-0.6-1.3-0.2c-0.6,0.4-1.1,1-1.3,1.8c-0.3,1-0.5,2.1-0.5,3.2v4.4
			c-0.1,0.9,0.1,1.9,0.5,2.7c0.3,0.5,0.8,0.6,1.3,0.2c0.6-0.4,1.1-1,1.3-1.8c0.3-1,0.5-2.1,0.5-3.2L98.8,244.5z"/>
		<path class="st5" d="M94.9,276.5l1.5-1.2V264l-1.5,1v-1.3l2.9-2.7v13.6l1.5-0.6v1.3l-4.4,2.5V276.5z"/>
		<path class="st3" d="M94.9,297.9l1.5-1.2v-11.4l-1.6,0.9V285l2.9-2.6v13.6l1.5-0.6v1.3l-4.4,2.5L94.9,297.9z"/>
		<path class="st5" d="M100.1,311.7c0,1.7-0.2,3.4-0.8,4.9c-0.4,1.2-1.2,2.2-2.3,2.9c-1,0.6-1.7,0.5-2.3-0.2s-0.8-2-0.8-4v-3.6
			c0-1.7,0.2-3.4,0.8-4.9c0.4-1.2,1.3-2.1,2.3-2.8c1-0.6,1.7-0.5,2.3,0.2s0.8,2,0.8,4L100.1,311.7z M98.8,308.5
			c0.1-0.9-0.1-1.8-0.5-2.7c-0.3-0.5-0.8-0.6-1.3-0.2c-0.6,0.4-1.1,1-1.3,1.8c-0.3,1-0.5,2.1-0.5,3.2v4.5c-0.1,0.9,0.1,1.9,0.5,2.7
			c0.3,0.5,0.8,0.6,1.3,0.2c0.6-0.4,1.1-1,1.3-1.8c0.3-1,0.5-2.1,0.5-3.2L98.8,308.5z"/>
		<path class="st4" d="M94.9,340.5l1.5-1.2V328l-1.6,0.9v-1.3l2.9-2.7v13.6l1.5-0.6v1.3l-4.4,2.5V340.5z"/>
		<path class="st5" d="M100.1,354.4c0,1.7-0.2,3.4-0.8,4.9c-0.4,1.2-1.2,2.2-2.3,2.9c-1,0.6-1.7,0.5-2.3-0.2s-0.8-2-0.8-4v-3.6
			c0-1.7,0.2-3.4,0.8-4.9c0.4-1.2,1.3-2.2,2.3-2.9c1-0.6,1.7-0.5,2.3,0.2s0.8,2,0.8,4L100.1,354.4z M98.8,351.1
			c0.1-0.9-0.1-1.9-0.5-2.7c-0.3-0.5-0.8-0.6-1.3-0.2c-0.6,0.4-1.1,1-1.3,1.8c-0.3,1-0.5,2.1-0.5,3.2v4.4c-0.1,0.9,0.1,1.9,0.5,2.7
			c0.3,0.5,0.8,0.6,1.3,0.2c0.6-0.4,1.1-1,1.3-1.8c0.3-1,0.5-2.1,0.5-3.2L98.8,351.1z"/>
		<path class="st5" d="M153.1,51l1.5-1.2V38.5l-1.5,0.9v-1.3l2.9-2.6V49l1.5-0.6v1.3l-4.4,2.5L153.1,51z"/>
		<path class="st4" d="M158.3,64.9c0,1.7-0.2,3.4-0.8,4.9c-0.4,1.2-1.2,2.2-2.3,2.9c-1,0.6-1.7,0.5-2.3-0.2s-0.8-2-0.8-4v-3.5
			c0-1.7,0.2-3.4,0.8-4.9c0.4-1.2,1.2-2.2,2.3-2.9c1-0.6,1.7-0.5,2.3,0.2c0.7,1.2,1,2.6,0.9,4L158.3,64.9z M157,61.6
			c0.1-0.9-0.1-1.9-0.5-2.7c-0.3-0.5-0.8-0.6-1.4-0.2c-0.6,0.4-1.1,1-1.3,1.8c-0.3,1-0.5,2.1-0.5,3.2v4.5c-0.1,0.9,0.1,1.9,0.5,2.7
			c0.3,0.5,0.8,0.6,1.3,0.2c0.6-0.4,1.1-1,1.3-1.8c0.3-1.1,0.5-2.2,0.5-3.3V61.6z"/>
		<path class="st5" d="M153.1,93.6l1.5-1.2V81.1l-1.5,0.9v-1.3l2.9-2.6v13.6l1.5-0.6v1.3l-4.4,2.6V93.6z"/>
		<path class="st5" d="M158.3,107.5c0,1.7-0.2,3.4-0.8,4.9c-0.4,1.2-1.2,2.2-2.3,2.9c-1,0.6-1.7,0.5-2.3-0.2s-0.8-2-0.8-4v-3.6
			c0-1.7,0.2-3.4,0.8-4.9c0.4-1.2,1.2-2.2,2.3-2.9c1-0.6,1.7-0.5,2.3,0.2c0.7,1.2,1,2.6,0.9,4L158.3,107.5z M157,104.2
			c0.1-0.9-0.1-1.8-0.5-2.7c-0.3-0.5-0.8-0.6-1.4-0.2c-0.6,0.4-1.1,1-1.3,1.8c-0.3,1-0.5,2.1-0.5,3.2v4.4c-0.1,0.9,0.1,1.9,0.5,2.7
			c0.3,0.5,0.8,0.6,1.3,0.2c0.6-0.4,1.1-1,1.3-1.8c0.3-1,0.5-2.1,0.4-3.2L157,104.2z"/>
		<path class="st4" d="M153.1,136.3l1.5-1.2v-11.4l-1.5,0.9v-1.3l2.9-2.6v13.6l1.5-0.6v1.3l-4.4,2.5L153.1,136.3z"/>
		<path class="st5" d="M153.1,157.6l1.5-1.2v-11.4l-1.5,0.9v-1.3l2.9-2.6v13.6l1.5-0.6v1.3l-4.4,2.5L153.1,157.6z"/>
		<path class="st3" d="M153.1,178.9l1.5-1.2v-11.4l-1.5,0.9v-1.3l2.9-2.6V177l1.5-0.6v1.3l-4.4,2.5L153.1,178.9z"/>
		<path class="st4" d="M158.3,192.8c0,1.7-0.2,3.4-0.8,4.9c-0.4,1.2-1.2,2.2-2.3,2.9c-1,0.6-1.7,0.5-2.3-0.2s-0.8-2-0.8-4v-3.6
			c0-1.7,0.2-3.4,0.8-4.9c0.4-1.2,1.2-2.2,2.3-2.9c1-0.6,1.7-0.5,2.3,0.2s0.9,2,0.9,4L158.3,192.8z M157,189.6
			c0.1-0.9-0.1-1.8-0.5-2.7c-0.3-0.5-0.8-0.6-1.4-0.2c-0.6,0.4-1.1,1-1.3,1.8c-0.3,1-0.5,2.1-0.5,3.2v4.4c-0.1,0.9,0.1,1.9,0.5,2.7
			c0.3,0.5,0.8,0.6,1.3,0.2c0.6-0.4,1.1-1,1.3-1.8c0.3-1,0.5-2.1,0.5-3.2V189.6z"/>
		<path class="st3" d="M153.1,221.6l1.5-1.2v-11.3l-1.5,0.9v-1.3l2.9-2.6v13.6l1.5-0.6v1.3l-4.4,2.5L153.1,221.6z"/>
		<path class="st3" d="M158.3,235.5c0,1.7-0.2,3.4-0.8,4.9c-0.4,1.2-1.2,2.2-2.3,2.9c-1,0.6-1.7,0.5-2.3-0.2s-0.8-2-0.8-4v-3.6
			c0-1.7,0.2-3.4,0.8-4.9c0.4-1.2,1.2-2.2,2.3-2.9c1-0.6,1.7-0.5,2.3,0.2s0.9,2,0.9,4L158.3,235.5z M157,232.2
			c0.1-0.9-0.1-1.8-0.5-2.7c-0.3-0.5-0.8-0.6-1.4-0.2c-0.6,0.4-1.1,1-1.3,1.8c-0.3,1-0.5,2.1-0.5,3.2v4.4c-0.1,0.9,0.1,1.9,0.5,2.7
			c0.3,0.5,0.8,0.6,1.3,0.2c0.6-0.4,1.1-1,1.3-1.8c0.3-1,0.5-2.1,0.4-3.2L157,232.2z"/>
		<path class="st5" d="M153.1,264.2l1.5-1.2v-11.4l-1.5,0.9v-1.3l2.9-2.6v13.6l1.5-0.6v1.3l-4.4,2.5L153.1,264.2z"/>
		<path class="st5" d="M158.3,278.1c0,1.7-0.2,3.4-0.8,4.9c-0.4,1.2-1.2,2.2-2.3,2.9c-1,0.6-1.7,0.5-2.3-0.2s-0.8-2-0.8-4v-3.6
			c0-1.7,0.2-3.4,0.8-4.9c0.4-1.2,1.2-2.2,2.3-2.9c1-0.6,1.7-0.5,2.3,0.2s0.9,2,0.9,4L158.3,278.1z M157,274.9
			c0.1-0.9-0.1-1.8-0.5-2.7c-0.3-0.5-0.8-0.6-1.4-0.2c-0.6,0.4-1.1,1-1.3,1.8c-0.3,1-0.5,2.1-0.5,3.2v4.5c-0.1,0.9,0.1,1.9,0.5,2.7
			c0.3,0.5,0.8,0.6,1.3,0.2c0.6-0.4,1.1-1,1.3-1.8c0.3-1,0.5-2.1,0.4-3.2L157,274.9z"/>
		<path class="st5" d="M153.1,306.9l1.5-1.2v-11.4l-1.5,0.9V294l2.9-2.6V305l1.5-0.6v1.3l-4.4,2.5L153.1,306.9z"/>
		<path class="st4" d="M158.3,320.8c0,1.7-0.2,3.4-0.8,4.9c-0.4,1.2-1.2,2.2-2.3,2.9c-1,0.6-1.7,0.5-2.3-0.2s-0.8-2-0.8-4v-3.6
			c0-1.7,0.2-3.4,0.8-4.9c0.4-1.2,1.2-2.2,2.3-2.9c1-0.6,1.7-0.5,2.3,0.2s0.9,2,0.9,4L158.3,320.8z M157,317.5
			c0.1-0.9-0.1-1.8-0.5-2.7c-0.3-0.5-0.8-0.6-1.4-0.2c-0.6,0.4-1.1,1-1.3,1.8c-0.3,1-0.5,2.1-0.5,3.2v4.4c-0.1,0.9,0.1,1.9,0.5,2.7
			c0.3,0.5,0.8,0.6,1.3,0.2c0.6-0.4,1.1-1,1.3-1.8c0.3-1,0.5-2.1,0.5-3.2V317.5z"/>
	</g>
</g>
<g id="freepik--Device--inject-2">
	<g id="freepik--Mobile--inject-2">
		<path class="st6" d="M215.9,346.7v-286c0-7.3-3.6-9.4-6.9-11.3s-8.6-3-13.2-0.3L77.7,117.3c-4.6,2.7-8.3,9.1-8.3,14.5v286
			c0,5.3,3.3,8.5,6.6,10.3s8.9,3.9,13.5,1.3l118.1-68.2C212.9,358.4,216.1,352.7,215.9,346.7z"/>
		<path class="st7" d="M208.4,349.4L87,419.5V132.3l-15.2-8.8c-1.5,2.5-2.3,5.3-2.4,8.2v286c0,5.3,3.3,8.5,6.6,10.3
			s8.9,3.9,13.5,1.3l118.1-68.2c3.3-1.8,5.8-4.6,7.2-8.1l-0.5-0.3L208.4,349.4z"/>
		<path class="st8" d="M207.3,58.2L88.9,126.6c-3.5,2.3-5.6,6-5.9,10.1v283.6c0,5.7,4.1,8.1,9,5.2L207.3,359
			c3.9-2.6,6.4-6.8,6.6-11.5V62.1C214,57.9,211,56.1,207.3,58.2z"/>
		<path d="M208.2,75.6v265.1c-0.2,4.4-2.6,8.5-6.3,10.9L95.1,413.4c-3.5,2-6.3,0.4-6.3-3.6V142.6c0.2-3.6,1.8-7,4.4-9.5l0.6-0.5
			c0.4-0.3,0.8-0.6,1.3-0.9l30-17.3l2-1.1c1.1-0.6,2-0.1,2,1.1s0.9,1.7,2.1,1l35-20.2c1.2-0.8,2-2,2.1-3.5c0.1-1.3,0.7-2.4,1.7-3.2
			l0.2-0.1l29.4-17l0.6-0.4C204.6,68.5,208.2,70.6,208.2,75.6z"/>
		<path class="st7" d="M192.7,344.6c3.7-2.4,6.1-6.5,6.3-10.9v-262l-28.8,16.7l-0.2,0.1c-1,0.8-1.7,2-1.8,3.3
			c-0.1,1.4-0.9,2.7-2.1,3.5l-35,20.2c-1.2,0.7-2.1,0.2-2.1-1s-0.9-1.8-2-1.1l-2,1.1l-30,17.3c-0.4,0.3-0.9,0.6-1.3,0.9l-0.6,0.5
			c-2.6,2.5-4.2,5.9-4.4,9.5v262L192.7,344.6z"/>
		<path class="st7" d="M136.5,104.8l16-9.3c1-0.6,1.7-0.2,1.7,0.9c-0.1,1.2-0.7,2.3-1.7,2.9l-16,9.3c-1,0.6-1.7,0.2-1.7-0.9
			C134.8,106.4,135.5,105.4,136.5,104.8z"/>
		<path class="st7" d="M160.7,90c1.1-0.6,2-0.1,2,1.1c-0.1,1.4-0.8,2.6-2,3.4c-1.1,0.6-1.9,0.1-1.9-1.1
			C158.9,92,159.6,90.8,160.7,90z"/>
		<path class="st8" d="M80.3,166.1c-0.1-2.2-1.2-4.3-3.1-5.6c-0.6-0.4-1.4-0.5-2.1-0.2c-0.4,0.2-1.9,1.1-2.3,1.3
			c-0.7,0.5-1.1,1.3-1,2.2v23.3c0.1,2.2,1.2,4.3,3.1,5.6c0.6,0.4,1.3,0.5,2,0.2c0.4-0.2,2-1.1,2.4-1.4c0.7-0.5,1.1-1.3,1-2.2
			L80.3,166.1z"/>
		<path class="st6" d="M78,167.4v23.3c0,2.1-1.4,3-3.1,2c-1.9-1.3-3-3.3-3.1-5.6v-23.3c0-2.1,1.4-3,3.1-2
			C76.8,163.1,77.9,165.1,78,167.4z"/>
		<path class="st8" d="M80.3,206.8c-0.1-2.2-1.2-4.3-3.1-5.6c-0.6-0.4-1.4-0.5-2.1-0.2c-0.4,0.2-1.9,1.1-2.3,1.3
			c-0.7,0.5-1.1,1.3-1,2.2v23.3c0.1,2.2,1.2,4.3,3.1,5.6c0.6,0.4,1.3,0.5,2,0.2c0.4-0.2,2-1.1,2.4-1.4c0.7-0.5,1.1-1.3,1-2.2
			L80.3,206.8z"/>
		<path class="st6" d="M78,208.2v23.3c0,2.1-1.4,3-3.1,2c-1.9-1.3-3-3.3-3.1-5.6v-23.3c0-2.1,1.4-3,3.1-2
			C76.8,203.9,77.9,205.9,78,208.2z"/>
	</g>
</g>
<g id="freepik--Screen--inject-2">
	<g id="freepik--screen--inject-2">
		<path class="st9" d="M229.7,93.9V359c-0.2,4.4-2.6,8.5-6.3,10.9l-106.8,61.6c-3.5,2-6.3,0.4-6.3-3.6V160.9c0.2-3.6,1.8-7,4.4-9.5
			c0.2-0.2,0.4-0.4,0.6-0.5c0.4-0.3,0.8-0.6,1.3-0.9l30-17.3l2-1.1c1.1-0.6,2-0.1,2,1.1s0.9,1.7,2.1,1l35-20.2c1.2-0.8,2-2,2.1-3.5
			c0.1-1.3,0.7-2.5,1.8-3.3c0.1,0,0.1-0.1,0.2-0.1l29.4-17l0.6-0.4C226.1,86.7,229.7,88.8,229.7,93.9z"/>
		<path class="st4" d="M113.8,432.9c-0.7,0-1.3-0.2-1.9-0.5c-1.4-0.8-2.1-2.4-2.1-4.5V160.9c0.2-3.8,1.8-7.3,4.6-9.9l0.2-0.2
			l0.4-0.4c0.4-0.3,0.9-0.7,1.4-0.9l30-17.3l0,0l2-1.1c0.7-0.6,1.8-0.4,2.4,0.3c0.3,0.4,0.4,0.8,0.3,1.3c0,0.3,0.1,0.6,0.3,0.8
			c0.3,0.1,0.7,0,1-0.2l35-20.2c1-0.7,1.7-1.8,1.8-3c0.1-1.5,0.8-2.8,2-3.7l0.2-0.2l30-17.3c2.3-1.3,4.5-1.5,6.1-0.6s2.6,3,2.6,5.6
			V359c-0.3,4.6-2.7,8.8-6.6,11.4L116.9,432C115.9,432.6,114.9,432.9,113.8,432.9z M149.5,131.7c-0.2,0-0.4,0.1-0.6,0.2l-2,1.1
			l-30,17.3c-0.4,0.3-0.8,0.5-1.2,0.8c-0.1,0.1-0.2,0.2-0.4,0.3l-0.2,0.2c-2.5,2.4-4.1,5.7-4.3,9.1v267.1c0,1.8,0.6,3.1,1.6,3.6
			s2.4,0.4,4-0.5l106.8-61.6c3.6-2.3,5.8-6.2,6.1-10.5V93.9c0-2.3-0.8-4-2.1-4.7s-3.2-0.6-5.1,0.6l-0.6,0.4L192,107l-0.2,0.1
			c-0.9,0.7-1.5,1.7-1.6,2.9c-0.1,1.6-1,3-2.3,3.9l-35,20.2c-0.6,0.4-1.4,0.5-2,0.2c-0.6-0.4-0.9-1-0.8-1.7c0-0.3-0.1-0.6-0.3-0.8
			C149.7,131.7,149.6,131.7,149.5,131.7z"/>
	</g>
</g>
<g id="freepik--Eye--inject-2">
	<g id="freepik--eye--inject-2_00000159470401644545679170000002439647250270158223_">
		<g id="freepik--Box--inject-2">
			<path class="st4" d="M331.6,400.6c-0.1,0.4-0.3,0.7-0.7,0.9l-81.5,47c-1,0.5-2.2,0.5-3.3,0L191,416.7c-0.4-0.2-0.6-0.5-0.7-0.9
				c0,0.3,0,4.7,0,5c0,0.4,0.3,0.8,0.7,0.9l55.1,31.8c1,0.5,2.2,0.5,3.3,0l81.5-47c0.4-0.2,0.7-0.6,0.7-1
				C331.6,405.2,331.6,401.2,331.6,400.6z"/>
			<path class="st10" d="M331.6,400.6c-0.1,0.4-0.3,0.7-0.7,0.9l-81.5,47c-1,0.5-2.2,0.5-3.3,0L191,416.7c-0.4-0.2-0.6-0.5-0.7-0.9
				c0,0.3,0,4.7,0,5c0,0.4,0.3,0.8,0.7,0.9l55.1,31.8c1,0.5,2.2,0.5,3.3,0l81.5-47c0.4-0.2,0.7-0.6,0.7-1
				C331.6,405.2,331.6,401.2,331.6,400.6z"/>
			<path class="st11" d="M249.4,448.5l81.5-47c0.9-0.5,0.9-1.4,0-1.9l-55.1-31.8c-1-0.5-2.2-0.5-3.3,0l-81.5,47
				c-0.5,0.2-0.8,0.8-0.6,1.3c0.1,0.3,0.3,0.5,0.6,0.6l55.1,31.8C247.1,449,248.3,449,249.4,448.5z"/>
			<path class="st5" d="M331.6,400.6c0,0.7,0,4.6,0,5c0,0.4-0.3,0.8-0.7,1l-81.5,47c-0.5,0.3-1.1,0.4-1.6,0.4v-5
				c0.6,0,1.1-0.1,1.6-0.4l81.5-47C331.2,401.3,331.5,400.9,331.6,400.6z"/>
			<path class="st1" d="M330.8,400.5c-0.1,0.1-0.2,0.2-0.3,0.2L249,447.8c-0.8,0.4-1.7,0.4-2.5,0L191.4,416c0,0-0.4-0.2-0.3-0.3
				c0.1-0.1,0.2-0.2,0.3-0.2l81.5-47c0.8-0.4,1.7-0.4,2.5,0l55.1,31.8C330.5,400.2,330.9,400.4,330.8,400.5 M331.4,400.9
				c0.3-0.5,0.1-1-0.6-1.4l-55.1-31.8c-1-0.5-2.2-0.5-3.3,0l-81.5,47c-0.2,0.1-0.4,0.3-0.6,0.5c-0.3,0.5-0.1,1,0.6,1.4l55.1,31.8
				c1,0.5,2.2,0.5,3.3,0l81.5-47C331.1,401.3,331.3,401.1,331.4,400.9L331.4,400.9z"/>
		</g>
		<g id="freepik--eye--inject-2">
			<path class="st4" d="M269.3,402.9c-4.6-2.6-12-2.6-16.5,0s-4.6,6.9,0,9.5c4.6,2.6,12,2.6,16.5,0S273.8,405.5,269.3,402.9z
				 M258.3,409.2c-1.7,0.8-3.7,0.8-5.4,0c-1.5-0.9-1.5-2.2,0-3.1c1.7-0.9,3.7-0.9,5.4,0C259.8,407,259.8,408.4,258.3,409.2
				L258.3,409.2z M296.5,388c-0.1-0.4-0.6-0.7-1.3-0.8c-20-0.8-38.3,2.9-51.5,10.5s-19.6,18.2-18.2,29.7c0,0.4,0.6,0.7,1.3,0.8
				c20,0.8,38.3-2.9,51.5-10.5S297.9,399.5,296.5,388z M228.3,426.6c-0.9-9.4,3.7-18.1,13.1-24.9c-4.4,4.9-3.1,11,4,15.1
				s17.7,4.8,26.1,2.3C259.6,424.5,244.6,427.1,228.3,426.6L228.3,426.6z M274.7,415.6c-7.6,4.4-19.9,4.4-27.4,0s-7.6-11.5,0-15.8
				s19.9-4.4,27.4,0S282.3,411.2,274.7,415.6L274.7,415.6z M280.7,413.7c4.4-4.9,3.1-11-4-15.1s-17.7-4.8-26.1-2.3
				c11.7-5.4,26.8-8.1,43.1-7.5C294.6,398.2,290,406.9,280.7,413.7L280.7,413.7z"/>
			<path class="st12" d="M269.3,402.9c-4.6-2.6-12-2.6-16.5,0s-4.6,6.9,0,9.5c4.6,2.6,12,2.6,16.5,0S273.8,405.5,269.3,402.9z
				 M258.3,409.2c-1.7,0.8-3.7,0.8-5.4,0c-1.5-0.9-1.5-2.2,0-3.1c1.7-0.9,3.7-0.9,5.4,0C259.8,407,259.8,408.4,258.3,409.2
				L258.3,409.2z M296.5,388c-0.1-0.4-0.6-0.7-1.3-0.8c-20-0.8-38.3,2.9-51.5,10.5s-19.6,18.2-18.2,29.7c0,0.4,0.6,0.7,1.3,0.8
				c20,0.8,38.3-2.9,51.5-10.5S297.9,399.5,296.5,388z M228.3,426.6c-0.9-9.4,3.7-18.1,13.1-24.9c-4.4,4.9-3.1,11,4,15.1
				s17.7,4.8,26.1,2.3C259.6,424.5,244.6,427.1,228.3,426.6L228.3,426.6z M274.7,415.6c-7.6,4.4-19.9,4.4-27.4,0s-7.6-11.5,0-15.8
				s19.9-4.4,27.4,0S282.3,411.2,274.7,415.6L274.7,415.6z M280.7,413.7c4.4-4.9,3.1-11-4-15.1s-17.7-4.8-26.1-2.3
				c11.7-5.4,26.8-8.1,43.1-7.5C294.6,398.2,290,406.9,280.7,413.7L280.7,413.7z"/>
		</g>
	</g>
</g>
<g id="freepik--Lines--inject-2">
	<g id="freepik--lines--inject-2">
		<path class="st8" d="M241.8,318.1c1-0.6,1.8-0.1,1.8,1.1c-0.1,1.3-0.7,2.5-1.8,3.1c-1,0.6-1.8,0.1-1.8-1
			C240,320,240.7,318.8,241.8,318.1z"/>
		<path class="st8" d="M297.9,114.3c1-0.6,1.8-0.1,1.8,1.1c-0.1,1.3-0.7,2.5-1.8,3.2c-1,0.6-1.8,0.1-1.8-1
			C296.1,116.2,296.8,115,297.9,114.3z"/>
		<path class="st8" d="M242,320.6l-0.4-0.8l24-13.9c1.6-1,2.7-2.7,2.7-4.6V136.6c0-2.2,1.2-4.3,3.1-5.4l26.3-15.2l0.5,0.8L271.8,132
			c-1.6,1-2.7,2.7-2.7,4.6v164.7c0,2.2-1.2,4.3-3.1,5.4L242,320.6z"/>
		<path class="st8" d="M241.8,335.2c1-0.6,1.8-0.1,1.8,1.1c-0.1,1.3-0.7,2.5-1.8,3.1c-1,0.6-1.8,0.1-1.8-1
			C240,337.1,240.7,335.9,241.8,335.2z"/>
		<path class="st8" d="M297.9,189.4c1-0.6,1.8-0.1,1.8,1.1c-0.1,1.3-0.7,2.5-1.8,3.2c-1,0.6-1.8,0.1-1.8-1.1
			C296.1,191.3,296.8,190.1,297.9,189.4z"/>
		<path class="st8" d="M242,337.7l-0.4-0.8l36.2-20.9c1.6-1,2.7-2.7,2.7-4.6V204.5c0-2.2,1.2-4.3,3.1-5.4l14.1-8.1l0.5,0.8
			l-14.1,8.1c-1.6,1-2.7,2.7-2.7,4.6v106.9c0,2.2-1.2,4.3-3.1,5.4L242,337.7z"/>
		<path class="st8" d="M241.8,352.3c1-0.6,1.8-0.1,1.8,1c-0.1,1.3-0.7,2.5-1.8,3.2c-1,0.6-1.8,0.1-1.8-1
			C240,354.2,240.7,353,241.8,352.3z"/>
		<path class="st8" d="M297.9,288c1-0.6,1.8-0.1,1.8,1c-0.1,1.3-0.7,2.5-1.8,3.2c-1,0.6-1.8,0.1-1.8-1
			C296.1,289.9,296.8,288.7,297.9,288z"/>
		<path class="st8" d="M242,354.8l-0.4-0.8l44-25.4c1.6-1,2.6-2.7,2.7-4.6v-25.4c0-2.2,1.2-4.3,3.1-5.4l6.3-3.6l0.5,0.8l-6.3,3.7
			c-1.6,1-2.7,2.7-2.7,4.6V324c0,2.2-1.2,4.3-3.1,5.4L242,354.8z"/>
	</g>
</g>
<g id="freepik--Keypad--inject-2">
	<g id="freepik--keypad--inject-2">
		<g id="freepik--Account--inject-2">
			<g id="freepik--code--inject-2">
				<path class="st4" d="M312,231l78.4-45.2c1.2-0.7,2.2-0.1,2.2,1.3v97.4c-0.1,1.6-0.9,3-2.2,3.8L312,333.5
					c-1.2,0.7-2.2,0.1-2.2-1.3v-97.4C309.9,233.3,310.7,231.8,312,231z"/>
				<path class="st10" d="M312,231l78.4-45.2c1.2-0.7,2.2-0.1,2.2,1.3v97.4c-0.1,1.6-0.9,3-2.2,3.8L312,333.5
					c-1.2,0.7-2.2,0.1-2.2-1.3v-97.4C309.9,233.3,310.7,231.8,312,231z"/>
				<path class="st4" d="M310.4,232.6l-5.6-3.3c-0.4,0.7-0.6,1.4-0.6,2.2V329c-0.1,0.6,0.2,1.1,0.6,1.4c0.4,0.2,5.2,3,5.6,3.2
					c-0.4-0.3-0.7-0.9-0.6-1.4v-97.4C309.8,234.1,310,233.3,310.4,232.6z"/>
				<path class="st13" d="M310.4,232.6l-5.6-3.3c-0.4,0.7-0.6,1.4-0.6,2.2V329c-0.1,0.6,0.2,1.1,0.6,1.4c0.4,0.2,5.2,3,5.6,3.2
					c-0.4-0.3-0.7-0.9-0.6-1.4v-97.4C309.8,234.1,310,233.3,310.4,232.6z"/>
				<path class="st4" d="M391.8,185.6c-0.8-0.5-5.2-3-5.5-3.2c-0.5-0.2-1.1-0.2-1.6,0.1l-78.3,45.2c-0.7,0.4-1.2,1-1.6,1.6l5.6,3.3
					c0.4-0.7,0.9-1.2,1.6-1.6l78.4-45.2C390.8,185.5,391.3,185.4,391.8,185.6z"/>
				<path class="st12" d="M391.8,185.6c-0.8-0.5-5.2-3-5.5-3.2c-0.5-0.2-1.1-0.2-1.6,0.1l-78.3,45.2c-0.7,0.4-1.2,1-1.6,1.6l5.6,3.3
					c0.4-0.7,0.9-1.2,1.6-1.6l78.4-45.2C390.8,185.5,391.3,185.4,391.8,185.6z"/>
			</g>
		</g>
		<g class="st14">
			<path class="st15" d="M325.6,233c4-2.3,7.3-0.4,7.3,4.2c-0.3,5.1-3,9.8-7.3,12.6c-4,2.3-7.3,0.4-7.3-4.2
				C318.6,240.5,321.3,235.8,325.6,233z"/>
			<path class="st15" d="M351.2,218.3c4-2.3,7.3-0.4,7.3,4.2c-0.3,5.1-3,9.8-7.3,12.6c-4,2.3-7.3,0.4-7.3-4.2
				C344.2,225.8,346.9,221.1,351.2,218.3z"/>
			<path class="st15" d="M376.7,203.5c4-2.3,7.3-0.4,7.3,4.2c-0.3,5.1-3,9.8-7.3,12.6c-4,2.3-7.3,0.4-7.3-4.2
				C369.7,211,372.4,206.3,376.7,203.5z"/>
		</g>
		<g class="st14">
			<path class="st15" d="M325.6,265.8c4-2.3,7.3-0.4,7.3,4.2c-0.3,5.1-3,9.8-7.3,12.6c-4,2.3-7.3,0.4-7.3-4.2
				C318.6,273.3,321.3,268.6,325.6,265.8z"/>
			<path class="st15" d="M351.2,251.1c4-2.3,7.3-0.4,7.3,4.2c-0.3,5.1-3,9.8-7.3,12.6c-4,2.3-7.3,0.4-7.3-4.2
				C344.2,258.6,346.9,253.9,351.2,251.1z"/>
			<path class="st15" d="M376.7,236.3c4-2.3,7.3-0.4,7.3,4.2c-0.3,5.1-3,9.8-7.3,12.6c-4,2.3-7.3,0.4-7.3-4.2
				C369.7,243.8,372.4,239.1,376.7,236.3z"/>
		</g>
		<g class="st14">
			<path class="st15" d="M325.6,298.6c4-2.3,7.3-0.4,7.3,4.2c-0.3,5.1-3,9.8-7.3,12.6c-4,2.3-7.3,0.4-7.3-4.2
				C318.6,306.1,321.3,301.4,325.6,298.6z"/>
			<path class="st15" d="M351.2,283.9c4-2.3,7.3-0.4,7.3,4.2c-0.3,5.1-3,9.8-7.3,12.6c-4,2.3-7.3,0.4-7.3-4.2
				C344.2,291.3,346.9,286.7,351.2,283.9z"/>
			<path class="st15" d="M376.7,269.1c4-2.3,7.3-0.4,7.3,4.2c-0.3,5.1-3,9.9-7.3,12.7c-4,2.3-7.3,0.4-7.3-4.2
				C369.7,276.6,372.4,271.9,376.7,269.1z"/>
		</g>
		<path class="st4" d="M325.6,238.3c1.5-0.9,2.7-0.2,2.7,1.6c-0.1,1.9-1.1,3.6-2.7,4.7c-1.5,0.9-2.7,0.2-2.7-1.6
			C323,241.1,324.1,239.4,325.6,238.3z"/>
		<path class="st4" d="M351.2,223.6c1.5-0.9,2.7-0.2,2.7,1.6c-0.1,1.9-1.1,3.6-2.7,4.7c-1.5,0.9-2.7,0.2-2.7-1.6
			C348.6,226.4,349.6,224.6,351.2,223.6z"/>
		<path class="st4" d="M325.6,303.9c1.5-0.9,2.7-0.2,2.7,1.6c-0.1,1.9-1.1,3.6-2.7,4.7c-1.5,0.9-2.7,0.2-2.7-1.6
			C323,306.7,324.1,304.9,325.6,303.9z"/>
		<path class="st4" d="M376.7,274.4c1.5-0.9,2.7-0.2,2.7,1.6c-0.1,1.9-1.1,3.6-2.7,4.7c-1.5,0.9-2.7,0.2-2.7-1.6
			C374.1,277.2,375.1,275.5,376.7,274.4z"/>
		<path class="st4" d="M351.2,256.4c1.5-0.9,2.7-0.2,2.7,1.6c-0.1,1.9-1.1,3.6-2.7,4.7c-1.5,0.9-2.7,0.2-2.7-1.6
			C348.6,259.2,349.6,257.4,351.2,256.4z"/>
		<path class="st4" d="M351.2,289.1c1.5-0.9,2.7-0.2,2.7,1.6c-0.1,1.9-1.1,3.6-2.7,4.7c-1.5,0.9-2.7,0.2-2.7-1.6
			C348.6,291.9,349.6,290.2,351.2,289.1z"/>
		<path class="st16" d="M325.7,307.5c-0.1,0-0.3,0-0.4-0.1c-0.2-0.2-0.2-0.4-0.1-0.6l25.4-47.4v-32l-24.8,14.5
			c-0.2,0.1-0.5,0.1-0.7-0.2c-0.1-0.2-0.1-0.5,0.2-0.7c0,0,0,0,0,0l25.5-14.9c0.2-0.1,0.3-0.1,0.5,0c0.2,0.1,0.3,0.3,0.2,0.4v33
			c0,0.1,0,0.2-0.1,0.2l-24.6,46l49.5-28.6c0.2-0.1,0.5-0.1,0.7,0.2c0.1,0.2,0.1,0.5-0.2,0.7l-51,29.5
			C325.9,307.5,325.8,307.5,325.7,307.5z"/>
	</g>
</g>
<g id="freepik--Fingerprint--inject-2">
	<g id="freepik--fingerprint--inject-2">
		<path class="st6" d="M304.1,144.8v65.8c0,1,0.6,1.9,1.4,2.4l2.4,1.4c0.9,0.4,1.9,0.4,2.8,0l46.6-26.8c0.8-0.5,1.3-1.4,1.4-2.4
			v-65.8c-0.1-1-0.6-1.9-1.4-2.4l-2.4-1.4c-0.9-0.4-1.9-0.4-2.8,0l-46.6,26.8C304.7,142.9,304.2,143.8,304.1,144.8z"/>
		<path class="st8" d="M358.7,119.1c-0.1-0.7-0.7-1-1.4-0.6l-46.6,26.8c-0.4,0.2-0.8,0.6-1,1l-5.2-3c0.2-0.4,0.6-0.8,1-1l46.6-26.8
			c0.9-0.5,1.9-0.5,2.8,0l2.4,1.4C358.1,117.5,358.6,118.2,358.7,119.1z"/>
		<path class="st7" d="M310.5,214.5C310.5,214.5,310.4,214.5,310.5,214.5l-0.2,0.1l0,0l-0.3,0.1c-0.6,0.1-1.1,0.1-1.7-0.1l-0.3-0.1
			l-2.4-1.4c-0.8-0.5-1.3-1.4-1.4-2.4v-65.8c0-0.5,0.2-1,0.4-1.4l5.2,3c-0.2,0.4-0.4,0.9-0.4,1.4v65.8c0,0.3,0.1,0.5,0.2,0.7
			c0.2,0.2,0.5,0.3,0.7,0.2L310.5,214.5z"/>
		<path class="st4" d="M345,171.7c-1.5,0-3-0.4-4.2-1.2c-0.2-0.1-0.3-0.4-0.2-0.6c0.1-0.2,0.4-0.3,0.6-0.2c0,0,0.1,0,0.1,0.1
			c1.5,1,3.5,1.3,6.1,0.9c0.2,0,0.5,0.1,0.5,0.3c0,0,0,0,0,0c0,0.2-0.1,0.5-0.4,0.5C346.7,171.7,345.9,171.7,345,171.7z"/>
		<path class="st4" d="M340.3,169.4c-0.1,0-0.2-0.1-0.3-0.1c-1.5-1.8-1.6-4.5-1.7-7.3c0-0.5,0-1-0.1-1.4c0.1-1-0.3-1.9-0.9-2.6
			c-0.5-0.3-1.2-0.4-1.7-0.1c-0.2,0.1-0.5-0.1-0.5-0.3c0,0,0,0,0,0c-0.1-0.2,0.1-0.5,0.3-0.6c0.8-0.3,1.7-0.2,2.5,0.3
			c0.8,0.6,1.2,1.7,1.3,3.3c0,0.5,0,1,0.1,1.5c0.1,2.8,0.2,5.2,1.5,6.7c0.2,0.2,0.1,0.5,0,0.6c0,0,0,0,0,0
			C340.5,169.3,340.4,169.4,340.3,169.4z"/>
		<path class="st4" d="M332,175.8c-0.2,0-0.3-0.1-0.4-0.3c-1.5-3.7-2.2-14.8,2.2-17.8c0.2-0.1,0.5-0.1,0.6,0.1c0,0,0,0,0,0
			c0.1,0.2,0.1,0.5-0.1,0.6c-3.9,2.6-3.3,13.2-1.9,16.8c0.1,0.2,0,0.5-0.2,0.6C332.1,175.8,332.1,175.8,332,175.8z"/>
		<path class="st4" d="M342.1,182.7c-4.2,0.1-8-2.2-10-5.9c-0.1-0.2,0-0.5,0.2-0.6c0.2-0.1,0.5,0,0.6,0.2c2.1,3.9,6,5.8,11.1,5.3
			c0.2,0,0.5,0.2,0.5,0.4c0,0.2-0.1,0.5-0.4,0.5c0,0,0,0,0,0C343.5,182.7,342.8,182.7,342.1,182.7z"/>
		<path class="st4" d="M343.2,180.1c-2.6,0.1-5.2-0.9-7.1-2.7c-2.7-2.7-3.8-7.4-3.1-14.1c0.1-1.4,0.8-2.7,2-3.4
			c0.5-0.3,1.2-0.3,1.7,0c0.6,0.4,0.9,1.1,0.8,1.8c-0.2,5.3,0.7,8.8,2.7,10.6c1.6,1.4,3.8,1.9,6.9,1.4c0.2,0,0.5,0.1,0.5,0.4
			c0,0,0,0,0,0c0,0.2-0.1,0.5-0.4,0.5c-3.4,0.5-5.9,0-7.6-1.6c-2.2-2-3.2-5.7-3-11.3c0.1-0.4-0.1-0.8-0.4-1c-0.2-0.1-0.5-0.1-0.8,0
			c-0.9,0.6-1.5,1.6-1.6,2.8c-0.6,6.3,0.5,10.8,3,13.4c1.9,1.9,4.7,2.7,8.4,2.4c0.2,0,0.4,0.2,0.4,0.5c0,0.2-0.2,0.4-0.4,0.4
			C344.5,180.1,343.9,180.1,343.2,180.1z"/>
		<path class="st4" d="M341.4,185.6c-3.2,0.2-6.4-1-8.8-3.2c-3.2-3.2-4.7-8.7-4.2-16.2c0.2-4.2,1.8-9.4,5.4-11.5l0.1-0.1
			c1.3-0.9,2.9-1,4.3-0.3c1.5,0.8,2.4,2.7,2.6,5.3v0.4c0.2,2.6,0.4,5.3,2.1,6.7c1.1,0.9,2.7,1.1,5,0.7c0.2-0.1,0.5,0.1,0.5,0.3
			c0,0,0,0,0,0c0,0.2-0.1,0.5-0.4,0.5c-2.5,0.4-4.4,0.1-5.7-0.9c-2-1.6-2.2-4.6-2.4-7.3v-0.4c-0.2-2.3-1-3.9-2.2-4.6
			c-1.1-0.5-2.4-0.4-3.5,0.3l-0.1,0.1c-3.3,1.9-4.8,7-5,10.8c-0.4,7.3,0.9,12.5,4,15.6c2.2,2.2,5.4,3.2,9.4,3c0.2,0,0.5,0.2,0.5,0.4
			c0,0,0,0,0,0c0,0.2-0.2,0.5-0.4,0.5C342.2,185.6,341.8,185.6,341.4,185.6z"/>
		<path class="st4" d="M340.6,188.8L340.6,188.8c-1.6,0-3.1-0.3-4.6-0.8c-0.2-0.1-0.4-0.3-0.3-0.6c0,0,0,0,0,0
			c0.1-0.2,0.3-0.4,0.6-0.3c1.4,0.5,2.9,0.8,4.4,0.8c0.2,0,0.4,0.2,0.4,0.4c0,0,0,0,0,0C341.1,188.6,340.8,188.8,340.6,188.8
			C340.6,188.8,340.6,188.8,340.6,188.8z"/>
		<path class="st4" d="M334.5,187.5c-0.1,0-0.1,0-0.2,0c-2.6-1.1-4.7-3-6-5.6c-0.1-0.2,0-0.5,0.2-0.6c0.2-0.1,0.5,0,0.6,0.2
			c1.2,2.3,3.1,4.1,5.5,5.1c0.2,0.1,0.3,0.4,0.2,0.6C334.8,187.4,334.7,187.5,334.5,187.5z"/>
		<path class="st4" d="M328,180.2c-0.2,0-0.4-0.1-0.4-0.3c-1.7-5-2.8-15.2,1.4-22.9c0.1-0.2,0.4-0.3,0.6-0.2
			c0.2,0.1,0.3,0.4,0.2,0.6l0,0c-4,7.5-3,17.4-1.3,22.2c0.1,0.2,0,0.5-0.3,0.6L328,180.2z"/>
		<path class="st4" d="M342.5,159.4c-0.2,0-0.4-0.2-0.4-0.4c-0.4-4.5-1.6-6.6-4.1-7.2s-5.2,1.1-7.4,4.1c-0.1,0.2-0.4,0.3-0.6,0.2
			s-0.3-0.4-0.2-0.6c0,0,0-0.1,0.1-0.1c2.4-3.4,5.6-5.1,8.3-4.5c3.6,0.8,4.4,4.5,4.8,8C343,159.2,342.8,159.4,342.5,159.4
			L342.5,159.4z"/>
		<path class="st4" d="M346.4,165.7c-0.7,0-1.4-0.2-2.1-0.6c-1.2-0.8-1.9-2.2-1.9-3.6c0-0.2,0.1-0.5,0.4-0.5c0.2,0,0.5,0.1,0.5,0.4
			c0,1.2,0.6,2.2,1.5,2.9c1.1,0.5,2.3,0.6,3.4,0.1c0.2-0.1,0.5,0,0.6,0.3c0,0,0,0,0,0c0.1,0.2,0,0.5-0.3,0.6
			C347.8,165.5,347.1,165.7,346.4,165.7z"/>
		<path class="st4" d="M338.8,191.2L338.8,191.2c-1.6-0.2-3.1-0.6-4.6-1.2c-7.8-3.2-10.9-9.6-10.4-21.5c0.3-6.9,3.8-15.7,10-19.3
			c2.6-1.5,4.8-1.8,6.7-0.9c2.2,1.1,3.7,3.9,4.2,8c0.6,4.6,1.8,5.4,3.9,5.3l0,0c0.2,0,0.4,0.2,0.4,0.4c0,0.2-0.2,0.4-0.4,0.5
			c-3,0.1-4.2-1.4-4.8-6c-0.5-3.8-1.8-6.4-3.8-7.3c-1.6-0.8-3.5-0.5-5.8,0.8c-5.9,3.4-9.3,11.9-9.5,18.5
			c-0.6,14.4,4.7,18.5,9.8,20.7c1.4,0.6,2.9,0.9,4.4,1.1c0.2,0,0.4,0.3,0.4,0.5C339.2,191.1,339.1,191.2,338.8,191.2L338.8,191.2z"
			/>
		<path class="st4" d="M348.5,159.4c-2.5,0-3-3.2-3.5-5.8c-0.1-0.4-0.1-0.7-0.2-1.1c0-0.2,0.1-0.5,0.4-0.5c0.2,0,0.5,0.1,0.5,0.3
			c0,0,0,0,0,0c0.1,0.4,0.1,0.7,0.2,1.1c0.4,2.4,0.9,5.1,2.6,5.1c0.2,0,0.4,0.2,0.5,0.4c0,0,0,0,0,0
			C349,159.2,348.9,159.4,348.5,159.4L348.5,159.4z"/>
		<path class="st4" d="M344.9,151.3c-0.2,0-0.4-0.1-0.4-0.3c-0.9-2.9-2.6-4.7-4.8-5.1c-0.2-0.1-0.4-0.3-0.3-0.6
			c0.1-0.2,0.3-0.3,0.5-0.3c2.5,0.5,4.5,2.6,5.5,5.8c0.1,0.2,0,0.5-0.3,0.6c0,0,0,0,0,0L344.9,151.3z"/>
		<path class="st4" d="M330.1,150c-0.1,0-0.2,0-0.3-0.1c-0.2-0.2-0.2-0.5,0-0.6c2.6-2.6,5.6-4.2,8.4-4.3c0.2,0,0.5,0.1,0.5,0.4
			c0,0.2-0.1,0.5-0.4,0.5c0,0-0.1,0-0.1,0c-2.5,0.1-5.4,1.6-7.8,4.1C330.3,149.9,330.2,150,330.1,150z"/>
		<path class="st4" d="M322.7,162.7h-0.1c-0.2-0.1-0.4-0.3-0.3-0.5c0,0,0,0,0,0c1.1-4.2,3.1-8.1,5.9-11.5c0.2-0.2,0.4-0.2,0.6-0.1
			c0.2,0.2,0.2,0.4,0.1,0.6c0,0,0,0,0,0c-2.7,3.2-4.7,7-5.8,11.1C323.1,162.5,322.9,162.7,322.7,162.7z"/>
		<path class="st4" d="M321.8,175.8c-0.2,0-0.4-0.2-0.4-0.4c-0.4-3.8-0.3-7.7,0.4-11.4c0-0.2,0.3-0.4,0.5-0.4c0,0,0,0,0,0
			c0.2,0,0.4,0.3,0.4,0.5c0,0,0,0,0,0c-0.7,3.7-0.8,7.4-0.4,11.1C322.3,175.6,322.1,175.8,321.8,175.8L321.8,175.8z"/>
		<path class="st4" d="M325.2,186.6c-0.2,0-0.3-0.1-0.4-0.2c-1.5-2.7-2.5-5.7-3-8.7c-0.1-0.2,0.1-0.5,0.3-0.6
			c0.2-0.1,0.5,0.1,0.6,0.3c0,0,0,0.1,0,0.1c0.5,3,1.5,5.8,2.9,8.4c0.1,0.2,0.1,0.5-0.1,0.6c0,0,0,0,0,0
			C325.4,186.6,325.3,186.6,325.2,186.6z"/>
		<path class="st4" d="M335,194c-0.1,0-0.1,0-0.2,0c-4.1-1.7-6.9-3.6-8.7-6c-0.2-0.2-0.2-0.5,0-0.6s0.5-0.2,0.6,0
			c0,0,0.1,0.1,0.1,0.1c1.7,2.3,4.4,4.2,8.3,5.8c0.2,0.1,0.3,0.4,0.2,0.6C335.3,193.9,335.2,194,335,194z"/>
		<path class="st4" d="M331.4,195.5c-0.1,0-0.1,0-0.2,0c-8.1-3.3-12.4-11.9-12.4-24.6c0-9.9,4.5-22.4,14.6-28c3.1-1.8,6.8-1.8,9.9,0
			c3.5,2.1,5.5,6.2,5.5,11.5c0,0.2-0.1,0.5-0.4,0.5c-0.2,0-0.5-0.1-0.5-0.4c0,0,0-0.1,0-0.1c0-5-1.8-8.8-5-10.7
			c-2.8-1.6-6.2-1.6-9,0c-9.8,5.4-14.2,17.5-14.2,27.2c0,8.6,2.1,19.8,11.9,23.8c0.2,0.1,0.3,0.4,0.2,0.6
			C331.7,195.4,331.6,195.5,331.4,195.5L331.4,195.5z"/>
		<path class="st4" d="M343.9,177.4c-0.3,0-0.6,0-0.9,0c-0.2,0-0.5-0.2-0.5-0.4c0-0.2,0.2-0.5,0.4-0.5c0,0,0.1,0,0.1,0
			c1.1,0.1,2.2,0.1,3.3-0.1c0.2,0,0.5,0.2,0.5,0.4c0,0.2-0.2,0.5-0.4,0.5C345.6,177.4,344.7,177.4,343.9,177.4z"/>
		<path class="st4" d="M341.4,177.2L341.4,177.2c-2.2-0.4-3.9-1.8-4.9-3.6c-0.1-0.2,0-0.5,0.2-0.6c0.2-0.1,0.5,0,0.6,0.2
			c0,0,0,0,0,0c0.8,1.6,2.4,2.8,4.2,3.1c0.2,0.1,0.4,0.3,0.3,0.5C341.7,177,341.6,177.2,341.4,177.2z"/>
		<path class="st4" d="M336.3,172.1c-0.2,0-0.3-0.1-0.4-0.2c-1.1-2.8-1.5-5.9-1.2-8.9c0-0.2,0.2-0.4,0.4-0.4c0,0,0,0,0,0
			c0.2,0,0.4,0.2,0.4,0.4c-0.3,2.9,0.1,5.8,1.1,8.5c0.1,0.2,0,0.4-0.2,0.5C336.4,172.1,336.4,172.1,336.3,172.1z"/>
		<path class="st4" d="M345.3,140.8c-0.1,0-0.2,0-0.3-0.1c-2.1-1.3-4.6-1.8-7.1-1.3c-0.2,0-0.5-0.1-0.5-0.4c0-0.2,0.1-0.4,0.3-0.5
			c2.7-0.6,5.5,0,7.8,1.4c0.2,0.1,0.2,0.4,0.1,0.6c0,0,0,0,0,0C345.6,140.8,345.5,140.8,345.3,140.8z"/>
		<path class="st4" d="M326.5,146.3c-0.1,0-0.2,0-0.3-0.1c-0.2-0.2-0.2-0.5,0-0.6c2.6-2.8,5.8-5,9.4-6.4c0.2-0.1,0.5,0,0.6,0.3
			c0.1,0.2,0,0.5-0.3,0.6c-3.4,1.3-6.5,3.4-9,6.1C326.8,146.3,326.7,146.3,326.5,146.3z"/>
		<path class="st4" d="M326.8,197c-0.1,0-0.1,0-0.2-0.1c-1.4-0.7-2.6-1.7-3.6-2.9c-0.2-0.2-0.1-0.5,0.1-0.6s0.5-0.1,0.6,0.1l0,0
			c0.9,1.1,2,2,3.3,2.6c0.2,0.1,0.3,0.4,0.2,0.6C327.1,196.9,327,197,326.8,197L326.8,197z"/>
		<path class="st4" d="M322.2,192.6c-0.1,0-0.3-0.1-0.4-0.2c-1.3-1.7-2.4-3.6-3.1-5.6c-0.1-0.2,0-0.5,0.3-0.6c0.2-0.1,0.5,0,0.6,0.3
			c0.7,1.9,1.7,3.8,3,5.4c0.2,0.2,0.1,0.5-0.1,0.6C322.4,192.6,322.3,192.6,322.2,192.6z"/>
	</g>
</g>
<g id="freepik--Password--inject-2">
	<g id="freepik--password--inject-2">
		<g id="freepik--code--inject-2_00000038372406526531501460000007271983917539222920_">
			<path class="st4" d="M312,100.1l78.4-45.2c1.2-0.7,2.2-0.1,2.2,1.3v22.7c-0.1,1.6-0.9,3-2.2,3.8L312,127.9
				c-1.2,0.7-2.2,0.1-2.2-1.3v-22.7C309.9,102.4,310.7,100.9,312,100.1z"/>
			<path class="st4" d="M310.4,101.7l-5.6-3.3c-0.4,0.7-0.6,1.4-0.6,2.2v22.7c-0.1,0.6,0.2,1.1,0.6,1.4c0.4,0.2,5.2,3,5.6,3.3
				c-0.4-0.3-0.7-0.9-0.6-1.4v-22.7C309.8,103.2,310,102.4,310.4,101.7z"/>
			<path class="st9" d="M310.4,101.7l-5.6-3.3c-0.4,0.7-0.6,1.4-0.6,2.2v22.7c-0.1,0.6,0.2,1.1,0.6,1.4c0.4,0.2,5.2,3,5.6,3.3
				c-0.4-0.3-0.7-0.9-0.6-1.4v-22.7C309.8,103.2,310,102.4,310.4,101.7z"/>
			<path class="st4" d="M391.8,54.7c-0.8-0.5-5.2-3-5.5-3.2c-0.5-0.2-1.1-0.2-1.6,0.1l-78.3,45.2c-0.7,0.4-1.2,1-1.6,1.7l5.6,3.3
				c0.4-0.7,0.9-1.2,1.6-1.7l78.4-45.2C390.8,54.6,391.3,54.5,391.8,54.7z"/>
			<path class="st12" d="M391.8,54.7c-0.8-0.5-5.2-3-5.5-3.2c-0.5-0.2-1.1-0.2-1.6,0.1l-78.3,45.2c-0.7,0.4-1.2,1-1.6,1.7l5.6,3.3
				c0.4-0.7,0.9-1.2,1.6-1.7l78.4-45.2C390.8,54.6,391.3,54.5,391.8,54.7z"/>
		</g>
		<path class="st17" d="M319.7,109.7c0,3.2,2.4,4.4,5.3,2.7l50-28.9c3.1-1.9,5.1-5.2,5.3-8.8c0-3.2-2.4-4.4-5.3-2.7l-50,28.9
			C322,102.8,320,106.1,319.7,109.7z"/>
		<path class="st8" d="M328.7,103.6l0.9-1.4c0,0,0-0.1,0.1-0.1c0-0.1,0.1-0.1,0.2-0.1c0.1,0,0.1,0.1,0.1,0.2l0.3,1.2
			c0,0.1,0,0.2,0,0.3c0,0.1-0.1,0.2-0.1,0.3c0,0-0.1,0-0.1,0.1l-1.1,0.8l0.8,0.6c0,0.1,0.1,0.1,0.1,0.1c0,0.1,0,0.2,0,0.3
			c0,0.1,0,0.2-0.1,0.3l-0.8,1.3c0,0.1-0.1,0.1-0.2,0.2c-0.1,0-0.1,0-0.2,0c0,0,0-0.1,0-0.1l-0.4-1.3l-0.4,1.8c0,0.1,0,0.2,0,0.2
			c0,0.1-0.1,0.2-0.2,0.2c-0.1,0-0.1,0-0.2,0l-0.8-0.4c-0.1,0-0.1-0.1-0.1-0.2c0-0.1,0-0.2,0-0.3l0.1-0.2l0.8-1.5l-1.1,0.5
			c0,0-0.1,0-0.1,0c-0.1,0-0.1,0-0.1-0.1c0-0.1,0-0.2,0-0.3l0.3-1.6c0-0.1,0.1-0.2,0.1-0.3c0-0.1,0.1-0.1,0.2-0.1c0,0,0,0,0.1,0
			l0.9,0.4l-0.3-1.5c0,0,0-0.1,0-0.1c0-0.1,0-0.2,0.1-0.3c0-0.1,0.1-0.2,0.2-0.2l1-0.6c0.1,0,0.1,0,0.2,0c0.1,0.1,0.1,0.2,0.1,0.2
			c0,0,0,0.1,0,0.2L328.7,103.6z"/>
		<path class="st8" d="M334.9,100l0.9-1.4c0-0.1,0.1-0.1,0.1-0.1c0-0.1,0.1-0.1,0.2-0.1c0.1,0,0.1,0.1,0.1,0.2l0.3,1.2
			c0,0.1,0,0.2,0,0.3c0,0.1-0.1,0.2-0.1,0.3l-0.1,0.1l-1.1,0.8l0.8,0.6c0,0.1,0.1,0.1,0.1,0.1c0,0.1,0,0.2,0,0.3
			c0,0.1,0,0.2-0.1,0.3l-0.8,1.3c0,0.1-0.1,0.1-0.2,0.2c-0.1,0-0.1,0-0.2,0c0,0,0-0.1,0-0.1l-0.4-1.3l-0.4,1.8c0,0.1,0,0.2,0,0.2
			c0,0.1-0.1,0.2-0.2,0.2c-0.1,0-0.1,0-0.2,0l-0.8-0.4c-0.1,0-0.1-0.1-0.1-0.2c0-0.1,0-0.2,0-0.3c0,0,0,0,0.1-0.1l0.8-1.5l-1.1,0.5
			h-0.1c-0.1,0-0.1,0-0.1-0.1c0-0.1,0-0.2,0-0.3l0.3-1.6c0-0.1,0.1-0.2,0.1-0.3c0-0.1,0.1-0.1,0.2-0.1h0.1l0.9,0.4l-0.3-1.5
			c0,0,0-0.1,0-0.1c0-0.1,0-0.2,0.1-0.3c0-0.1,0.1-0.2,0.2-0.2l1-0.6c0-0.1,0.1-0.1,0.2,0c0,0,0,0,0,0c0.1,0.1,0.1,0.1,0.1,0.2
			c0,0,0,0.1,0,0.2L334.9,100z"/>
		<path class="st8" d="M341.2,96.4l0.9-1.4l0.1-0.1c0-0.1,0.1-0.1,0.2-0.1c0.1,0,0.1,0.1,0.1,0.2l0.3,1.2c0,0.1,0,0.2,0,0.3
			c0,0.1-0.1,0.2-0.1,0.3l-0.1,0.1l-1.1,0.8l0.8,0.6c0,0.1,0,0.1,0,0.1c0,0.1,0,0.2,0,0.3c0,0.1,0,0.2-0.1,0.3l-0.8,1.3
			c0,0.1-0.1,0.1-0.2,0.2c-0.1,0-0.1,0-0.2,0c0,0,0-0.1,0-0.1l-0.4-1.3l-0.4,1.8c0,0.1,0,0.2,0,0.2c0,0.1-0.1,0.2-0.2,0.2
			c-0.1,0.1-0.1,0.1-0.2,0.1l-0.8-0.4c-0.1,0-0.1-0.1-0.1-0.2c0-0.1,0-0.2,0-0.3c0,0,0-0.1,0-0.2l0.8-1.5l-1.1,0.5h-0.1
			c-0.1,0-0.1-0.1-0.1-0.1c0-0.1,0-0.2,0-0.3l0.3-1.6c0-0.1,0.1-0.2,0.1-0.3c0-0.1,0.1-0.1,0.2-0.1h0.1l0.9,0.4l-0.3-1.5
			c0,0,0-0.1,0-0.1c0-0.1,0-0.2,0.1-0.3c0-0.1,0.1-0.2,0.2-0.2l1-0.6c0.1,0,0.1,0,0.2,0c0.1,0.1,0.1,0.1,0.1,0.2c0,0.1,0,0.1,0,0.2
			L341.2,96.4z"/>
		<path class="st8" d="M347.4,92.8l0.9-1.4c0-0.1,0.1-0.1,0.1-0.1c0-0.1,0.1-0.1,0.2-0.1c0.1,0,0.1,0.1,0.1,0.2l0.3,1.2
			c0,0.1,0,0.2,0,0.3c0,0.1-0.1,0.2-0.1,0.3l-0.1,0.1l-1.1,0.8l0.8,0.6l0.1,0.1c0,0.1,0.1,0.2,0,0.3c0,0.1,0,0.2-0.1,0.3l-0.8,1.3
			c0,0.1-0.1,0.1-0.2,0.2c-0.1,0-0.1,0-0.2,0c0,0,0-0.1,0-0.1l-0.4-1.3l-0.4,1.8c0,0.1,0,0.1,0,0.2c0,0.1-0.1,0.2-0.2,0.2
			c-0.1,0-0.1,0-0.2,0l-0.8-0.4c-0.1,0-0.1-0.1-0.1-0.2c0-0.1,0-0.2,0-0.3c0,0,0,0,0.1-0.1l0.8-1.6l-1.1,0.5H345
			c-0.1,0-0.1,0-0.1-0.1c0-0.1,0-0.2,0-0.3l0.3-1.6c0-0.1,0.1-0.2,0.1-0.3c0-0.1,0.1-0.1,0.2-0.1c0,0,0,0,0.1,0l0.9,0.4l-0.3-1.5
			c0-0.1,0-0.1,0-0.1c0-0.1,0-0.2,0.1-0.3c0-0.1,0.1-0.2,0.2-0.2l1-0.6c0.1,0,0.1,0,0.2,0c0.1,0.1,0.1,0.1,0.1,0.2c0,0,0,0.1,0,0.2
			L347.4,92.8z"/>
		<path class="st8" d="M353.6,89.2l0.9-1.4l0.1-0.1c0.1-0.1,0.1-0.1,0.2-0.1c0.1,0,0.1,0.1,0.1,0.2l0.3,1.2c0,0.2,0,0.4-0.2,0.6
			l-0.1,0.1l-1.1,0.8l0.8,0.6c0,0.1,0.1,0.1,0.1,0.1c0,0.1,0.1,0.2,0,0.3c0,0.1,0,0.2-0.1,0.3l-0.8,1.3c0,0.1-0.1,0.1-0.2,0.2
			c0,0-0.1,0-0.2,0l0-0.1l-0.4-1.3l-0.4,1.8c0,0.1,0,0.1,0,0.2c0,0.1-0.1,0.2-0.2,0.2c-0.1,0-0.1,0-0.2,0l-0.8-0.4
			c-0.1,0-0.1-0.1-0.1-0.2c0-0.1,0-0.2,0-0.3c0,0,0,0,0.1-0.1l0.8-1.5l-1.1,0.5h-0.1c-0.1,0-0.1,0-0.1-0.1c0-0.1,0-0.2,0-0.3
			l0.3-1.6c0-0.1,0.1-0.2,0.1-0.3c0-0.1,0.1-0.1,0.2-0.1h0.1l0.9,0.4l-0.3-1.5c0-0.1,0-0.1,0-0.1c0-0.1,0-0.2,0.1-0.3
			c0-0.1,0.1-0.2,0.2-0.2l1-0.6c0.1,0,0.1,0,0.2,0c0.1,0.1,0.1,0.1,0.1,0.2c0,0,0,0.1,0,0.2L353.6,89.2z"/>
		<path class="st8" d="M359.9,85.6l0.9-1.4c0,0,0.1-0.1,0.1-0.1c0-0.1,0.1-0.1,0.2-0.1c0.1,0,0.1,0.1,0.1,0.2l0.3,1.2
			c0,0.1,0,0.2,0,0.3c0,0.1-0.1,0.2-0.1,0.3c0,0-0.1,0-0.1,0.1l-1.1,0.8l0.8,0.6c0,0.1,0.1,0.1,0.1,0.1c0,0.1,0,0.2,0,0.3
			c0,0.1,0,0.2-0.1,0.3l-0.8,1.3c-0.1,0.1-0.1,0.1-0.2,0.2c0,0-0.1,0-0.2,0c0,0,0-0.1,0-0.1l-0.4-1.3l-0.4,1.8c0,0.1,0,0.1,0,0.2
			c0,0.1-0.1,0.2-0.2,0.2c-0.1,0.1-0.1,0.1-0.2,0.1l-0.8-0.4c-0.1,0-0.1-0.1-0.1-0.2c0-0.1,0-0.2,0-0.3c0,0,0-0.1,0.1-0.2l0.8-1.5
			l-1.1,0.5h-0.1c-0.1,0-0.1-0.1-0.1-0.1c0-0.1,0-0.2,0-0.3l0.3-1.6c0-0.1,0.1-0.2,0.1-0.3c0.1-0.1,0.1-0.1,0.2-0.1h0l0.9,0.4
			l-0.3-1.5c0,0,0-0.1,0-0.1c0-0.1,0-0.2,0.1-0.3c0-0.1,0.1-0.2,0.2-0.2l1-0.6c0.1,0,0.1,0,0.2,0c0,0.1,0.1,0.1,0.1,0.2
			c0,0.1,0,0.1,0,0.2L359.9,85.6z"/>
		<path class="st8" d="M366.1,82l0.9-1.4l0.1-0.1c0-0.1,0.1-0.1,0.2-0.1c0.1,0,0.1,0.1,0.1,0.2l0.3,1.2c0,0.1,0,0.2,0,0.3
			c0,0.1-0.1,0.2-0.1,0.3l-0.1,0.1l-1.1,0.8l0.8,0.6c0,0.1,0.1,0.1,0.1,0.1c0,0.1,0.1,0.2,0,0.3c0,0.1,0,0.2-0.1,0.3l-0.8,1.3
			c0,0.1-0.1,0.1-0.2,0.2c-0.1,0-0.1,0-0.2,0c0,0,0-0.1,0-0.1l-0.4-1.3l-0.4,1.8c0,0.1,0,0.1,0,0.2c0,0.1-0.1,0.2-0.2,0.2
			c-0.1,0-0.1,0-0.2,0l-0.8-0.4c-0.1,0-0.1-0.1-0.1-0.2c0-0.1,0-0.2,0-0.3c0,0,0,0,0.1-0.1l0.8-1.6l-1.1,0.5h-0.1
			c-0.1,0-0.1,0-0.1-0.1c0-0.1,0-0.2,0-0.3l0.3-1.6c0-0.1,0.1-0.2,0.1-0.3c0.1-0.1,0.1-0.1,0.2-0.1s0,0,0.1,0l0.9,0.4l-0.4-1.5
			c0,0,0-0.1,0-0.1c0-0.1,0-0.2,0.1-0.3c0-0.1,0.1-0.2,0.2-0.2l1-0.6c0.1,0,0.1,0,0.2,0c0.1,0.1,0.1,0.1,0.1,0.2c0,0,0,0.1,0,0.2
			L366.1,82z"/>
		<path class="st8" d="M372.3,78.4l0.9-1.4c0-0.1,0.1-0.1,0.1-0.1s0.1-0.1,0.2-0.1s0.1,0.1,0.1,0.2l0.3,1.2c0,0.1,0,0.2,0,0.3
			c0,0.1-0.1,0.2-0.1,0.3l-0.1,0.1l-1.1,0.8l0.8,0.6c0,0.1,0.1,0.1,0.1,0.1c0,0.1,0.1,0.2,0,0.3c0,0.1,0,0.2-0.1,0.3l-0.8,1.3
			c0,0.1-0.1,0.1-0.2,0.2c-0.1,0-0.1,0-0.2,0c0,0,0-0.1,0-0.1l-0.4-1.3l-0.4,1.8c0,0.1,0,0.1,0,0.2c0,0.1-0.1,0.2-0.2,0.2
			c-0.1,0.1-0.1,0.1-0.2,0.1l-0.8-0.4c-0.1,0-0.1-0.1-0.1-0.2c0-0.1,0-0.2,0-0.3c0,0,0-0.1,0.1-0.2l0.8-1.5L370,81h-0.1
			c-0.1,0-0.1,0-0.1-0.1c0-0.1,0-0.2,0-0.3L370,79c0-0.1,0.1-0.2,0.1-0.3c0.1-0.1,0.1-0.1,0.2-0.1h0.1l0.9,0.4l-0.3-1.5
			c0,0,0-0.1,0-0.1c0-0.1,0-0.2,0.1-0.3c0-0.1,0.1-0.2,0.2-0.2l1-0.6c0.1,0,0.1,0,0.2,0c0.1,0.1,0.1,0.1,0.1,0.2c0,0.1,0,0.1,0,0.2
			L372.3,78.4z"/>
	</g>
</g>
<g id="freepik--Character--inject-2">
	<g id="freepik--character--inject-2">
		<g id="freepik--Bottom--inject-2">
			<path class="st18" d="M453.8,394.8c-1-13.1,0.5-23.1-0.6-43.6l0,0c-0.1-5.2-0.3-10.9-0.6-15.9c-1.2-16.8-3.8-22.5-4-25.8
				c0,0-0.4-26.1-1.5-62.9c-0.5-17.3-5.5-22.5-9.5-31.7h-47.6c-5.3,22.6-6.8,72-6.7,95.4c0.1,11.9,1,73.1,1.1,77.2
				c0.1,5.2-0.1,10-2.2,12.2c-4.3,4.6-11.1,10.6-17.6,14.2c0.8,2,10.6,2.3,13.8,0.7c5.1-2.5,13.2-8.8,15-10
				c8.7-5.8,6.4-13.4,6.4-13.4v-0.6c0.1-2.9,9.9-45.4,10.5-55.2c0.5-8.5-0.5-22.9-0.5-22.9l5.5-36c0,0,3.4,21.3,6.8,35.8
				c2.8,11.8,7.4,32,10.5,46.5l0,0c3,16.8,7.4,28.7,8.2,37.1c0.2,2,2.5,21.7,3.4,26.2s10.8,4.6,11.4-3.1
				C455.8,413.9,454,397.2,453.8,394.8z"/>
			<path class="st19" d="M415.1,276.6l-4-25.9c0,0-15.5-1.8-21.1-7.3c0,0,7.1,10,17.6,11.7l4.4,21.5l-2.3,35.7L415.1,276.6z"/>
			<path class="st7" d="M357.8,419.9c-0.3,0-0.5,3.2,1.1,4.5c1.9,1.5,7.3,3.8,14.2,2.5s10.5-3.7,13.2-6.2s6.4-6.1,9.5-7
				c2.9-0.8,6-2.4,6.9-3.3s0.5-5,0.5-5L357.8,419.9z"/>
			<path class="st6" d="M399.7,390.7c0.5,0,1,0.4,1.1,0.9c0.3,1.1,0.5,3.4,1,5.2c0.9,3.2,1.3,6.5,1.2,9.9c-0.3,2.1-5,3.8-7.9,5.2
				c-3.5,1.8-6.7,4.1-9.5,6.9c-3.1,2.9-9.8,6.1-14.4,6.4c-6.9,0.5-11.5-1.2-13-3.6c-1.9-3-0.6-4.9,7.1-9.1c1.5-0.8,6.6-4.3,8.3-5.5
				c1.8-1.3,3.6-2.8,5.2-4.4c0.8-0.8,1.6-1.7,2.3-2.6c0.7-0.8,1.4-1.7,1.9-2.7c0.1-0.2,0.1-0.5,0.2-0.7c0.2-0.6,0.3-1.3,0.4-1.9
				c0.1-0.7,0.1-1.7,0.7-2.1c0.9-0.4,1.9-0.6,2.8-0.5c1,0,2.1,0.1,3.1,0.3c1.2,0.2,2.5,0.2,3.3,1.3c0.5,0.9,0.8,1.9,0.8,2.9
				c0,0.5,0.1,1,0.1,1.4c0,0.2,0,0.6,0.2,0.5s0.5-0.8,0.6-1.1c0.2-0.5,0.3-1.1,0.5-1.6c0.2-0.6,0.5-1.2,0.9-1.8
				c0.3-0.5,0.7-1,1.2-1.4c0.4-0.4,1.1-0.7,1.8-1.2V390.7z"/>
			<path class="st11" d="M364.1,413.1c10,0.1,13.5,6.2,14.2,10.1c-2.2,1-4.6,1.6-7,1.9c-6.9,0.5-11.8-1.1-13.3-3.6
				C356.2,418.7,357.2,416.2,364.1,413.1z"/>
			<path class="st20" d="M379.1,412.4c0.1,0,0.2-0.1,0.3-0.1c0.2-0.2,0.2-0.5,0-0.7c-2.5-2.3-5.9-3.5-9.2-3.1
				c-0.3,0.1-0.4,0.3-0.4,0.6c0,0.3,0.3,0.4,0.5,0.4c0,0,0,0,0,0c3.1-0.3,6.1,0.7,8.4,2.8C378.8,412.3,379,412.4,379.1,412.4z"/>
			<path class="st20" d="M383.3,409.6c0.1,0,0.2-0.1,0.3-0.1c0.2-0.2,0.2-0.5,0-0.7c-2.5-2.3-5.9-3.5-9.2-3.1
				c-0.3,0.1-0.4,0.3-0.4,0.6c0,0.3,0.3,0.4,0.5,0.4c0,0,0,0,0,0c3.1-0.3,6.1,0.7,8.4,2.8C383,409.5,383.1,409.6,383.3,409.6z"/>
			<path class="st20" d="M387.1,406.4c0.1,0,0.2,0,0.3-0.1c0.2-0.2,0.2-0.5,0-0.7c0,0,0,0,0,0c-2.5-2.3-5.9-3.5-9.2-3.1
				c-0.3,0-0.5,0.3-0.4,0.6c0,0.3,0.3,0.5,0.6,0.4c3.1-0.3,6.1,0.7,8.4,2.8C386.8,406.4,387,406.5,387.1,406.4z"/>
			<path class="st20" d="M390.9,403.3c0.1,0,0.2,0,0.3-0.1c0.2-0.2,0.2-0.5,0-0.7c-2-2.4-6.5-3.7-10.1-3.1c-0.3,0-0.4,0.3-0.4,0.6
				c0,0,0,0,0,0c0,0.3,0.3,0.4,0.5,0.4c0,0,0,0,0,0c3.2-0.5,7.4,0.7,9.2,2.8C390.5,403.3,390.7,403.3,390.9,403.3z"/>
			<path class="st7" d="M440.9,425.7c0.3,4.5,1,7.5,2.5,10.1s4.6,3.5,7.6,2.7s6.9-2.8,7.8-6.7s1.4-6.5,0.7-10.7L440.9,425.7z"/>
			<path class="st6" d="M453.7,393.2c1.3,0.1,1.6,6.1,2.4,12.2c0.8,6.5,2.7,9.1,3.4,14.4c0.8,6.1-0.2,8.8-2.3,12.4s-9.6,7.3-13.3,2
				c-3-4.3-3.1-9-2.9-15.1c0.2-5.1,0-10.2-0.4-15.3c-0.2-4.5-1.2-9.1-0.2-9.6c0.1,0.7,0.2,1.5,0.2,2.2c0,0.8,0.2,1.6,0.4,2.4
				c0.1,0.3,0.4,0.7,0.5,0.1c0.1-0.4,0.1-0.8,0-1.1c-0.2-1.7,0.7-1.8,1.1-1.9c1.9-0.4,3.9-0.7,5.8-0.8c1-0.1,4.3-0.2,4.7,0.3
				c0.3,0.5,0.4,1.1,0.4,1.8c0.1,0.9,0.3,1.6,0.4,1.3c0.1-0.6-0.1-2.4-0.1-2.8s-0.1-0.9-0.1-1.3S453.7,393.5,453.7,393.2z"/>
			<path class="st11" d="M459.8,423.3c0.2,3.2-0.6,6.5-2.4,9.2c-2.1,3.7-10.2,7.3-13.9,2c-1.9-2.6-2.3-5.7-2.6-8.8
				C443.1,421.6,456.3,419.8,459.8,423.3z"/>
			<path class="st20" d="M443.6,419.1h0.1c0,0,5.9-2.4,11.5-1.1c0.3,0.1,0.5-0.1,0.6-0.4c0.1-0.3-0.1-0.5-0.4-0.6
				c-4.1-0.8-8.3-0.3-12.1,1.2c-0.2,0.1-0.3,0.4-0.2,0.6c0,0,0,0,0,0C443.3,419,443.5,419.1,443.6,419.1z"/>
			<path class="st20" d="M455,413.4c0.2,0,0.3-0.1,0.4-0.3c0.1-0.2,0-0.5-0.3-0.6c-5.6-1.9-11.9,1-12.1,1.1
				c-0.2,0.1-0.3,0.4-0.2,0.6c0,0,0,0,0,0c0.1,0.2,0.4,0.3,0.6,0.2c0.1,0,6.1-2.8,11.4-1C454.9,413.4,454.9,413.4,455,413.4z"/>
			<path class="st20" d="M454.8,409.1c0.2,0,0.3-0.1,0.4-0.3c0.1-0.2,0-0.5-0.3-0.6c0,0,0,0,0,0c-6.2-2.2-12.1,0.9-12.3,1
				c-0.2,0.1-0.3,0.4-0.2,0.6c0,0,0,0,0,0c0.1,0.2,0.4,0.3,0.6,0.2c0,0,0,0,0,0c0,0,5.8-3,11.5-1L454.8,409.1z"/>
			<path class="st2" d="M454.5,405c0.3,0,0.4-0.3,0.4-0.5c0-0.2-0.1-0.3-0.3-0.4c-5.8-2.2-12.2,1-12.4,1.2c-0.2,0.1-0.3,0.4-0.2,0.6
				c0.1,0.2,0.4,0.3,0.6,0.2l0,0c0.1,0,6.2-3.1,11.6-1.1C454.4,405,454.4,405,454.5,405z"/>
			<path class="st6" d="M438.8,215.1c5.6,10.3,9.8,18.7,10.4,49.2s0.5,39.1,0.6,42.8s2.3,10.3,4.1,28.4s-0.4,39.8-0.4,39.8
				s-1.3,2.9-8.2,3.5c-6.4,0.6-9.6-1.8-9.6-1.8s-8.8-35.4-11.2-46.3s-9.5-46.9-9.5-46.9l-3,29.5c0,0,0.8,9.7-1.2,25.6
				s-8.2,37.8-8.2,37.8c-3.1,0.8-6.2,1.2-9.4,1.2c-3.2,0-6.4-0.8-9.3-2.3c0,0-1-52.5-1-70.6s1.9-62.2,3.6-89.7L438.8,215.1z"/>
			<path class="st7" d="M415.1,283.9l-5.7-34.7c0,0-12.1-0.9-18.8-7.9c2.7,7.4,12.6,12.7,17,13.7l5.1,28.5l-0.6,29.8L415.1,283.9z"
				/>
			<path class="st7" d="M427.2,220.2c1.6,2.6,2.9,5.4,3.9,8.3c1,2.9,1.9,5.8,2.6,8.8c0.7,3,1.3,6,1.6,9c0.4,3,0.6,6.1,0.6,9.1
				c-0.7-3-1.4-5.9-2.1-8.9s-1.3-5.9-2-8.8s-1.4-5.9-2.2-8.8S428.1,223.1,427.2,220.2z"/>
			<path class="st7" d="M431.2,221.3c1.5,1.4,2.9,3,4.1,4.6c1.2,1.7,2.4,3.4,3.4,5.2c1,1.8,1.9,3.7,2.5,5.7c0.7,2,1.2,4,1.4,6.1
				l-2.8-5.5c-0.9-1.8-1.9-3.6-2.9-5.3s-2-3.5-2.9-5.3S432.1,223.1,431.2,221.3z"/>
			<path class="st7" d="M424.6,257.8c1.3,9.5,2.5,18.9,3.7,28.4s2.5,18.9,4.2,28.3s3.6,18.8,5.2,28.1s3.3,18.8,4.7,28.3
				c-2.2-9.3-4.2-18.7-6.2-28c-2-9.4-3.8-18.7-5.6-28.1s-2.9-18.9-3.8-28.4S425.1,267.3,424.6,257.8z"/>
			<path class="st7" d="M392.8,258.6l-1.5,24.9c-0.2,4.1-0.5,8.3-0.7,12.4s-0.4,8.3-0.4,12.4s-0.3,34.5-1,51.6
				c-0.6-13.7-0.7-43.2-1-51.6c0-8.4,0.7-16.7,1.5-25S391.6,266.8,392.8,258.6z"/>
		</g>
		<g id="freepik--Top--inject-2">
			<path class="st19" d="M399.3,162.7c-6.5,1.3-10.9,3.5-14.7,10S367.2,208,367.2,208l17.8,7.9l12.9-24.1L399.3,162.7z"/>
			<path class="st7" d="M446.3,231.9c-2.1-9.4-4.6-20-4.9-22c-1.6-12,0.5-18,1.3-23.3c1.7-11.4-1.6-21-4.2-23.2c0,0-2.8-0.6-6.1-1.4
				c-1.9-0.4-3.8-0.8-5.7-1c-5-0.7-10.2-0.8-15.2-0.4c-1.2,0.1-7.1,1.1-7.1,1.1c-1.8,0.4-5,1-5,1c-3.2,2.9-5.8,6.3-7.8,10.1
				c-2.9,5.2-4.5,9.5-5,20.6c-0.7,14.1-1.5,28.7-1.5,38.6C396.6,239.1,431.2,240.7,446.3,231.9z"/>
			<g id="freepik--Tablet--inject-2">
				<path class="st8" d="M361.6,193.9L361.6,193.9l1.1-1l0,0c0.3-0.3,0.8-0.3,1.2-0.2l13.9,3.2c1.3,0.4,2.4,1.3,3,2.6l10.2,26
					c0.3,0.4,0.2,1-0.1,1.4l0,0l-1.2,1.1l0,0c-0.3,0.3-0.8,0.3-1.2,0.2l-13.9-3.2c-1.3-0.4-2.4-1.3-3-2.6l-10.2-26
					C361.2,194.6,361.3,194.2,361.6,193.9z"/>
				<path class="st8" d="M378.1,197.6c0.7,0.5,1.2,1.1,1.6,1.9l10.2,26c0.2,0.4,0.2,0.9-0.1,1.3l1.1-1l0,0c0.3-0.4,0.4-0.9,0.1-1.4
					l-10.2-26c-0.3-0.7-0.8-1.3-1.4-1.8L378.1,197.6z"/>
				<path class="st7" d="M389.8,225.5l-10.2-26c-0.6-1.3-1.7-2.2-3-2.6l-13.9-3.2c-1.2-0.3-1.8,0.4-1.4,1.6l10.2,26
					c0.6,1.3,1.7,2.2,3,2.6l13.9,3.2C389.7,227.3,390.3,226.6,389.8,225.5z"/>
				<path class="st8" d="M379.9,205l-1.9-4.9c-0.1-0.2-0.3-0.4-0.5-0.5l-2.4-0.6c-0.2-0.1-0.3,0.1-0.3,0.3c0.4,0.9,1.5,3.9,1.9,4.9
					c0.1,0.2,0.3,0.4,0.5,0.5l2.4,0.6C379.8,205.4,379.9,205.2,379.9,205z"/>
				<path class="st7" d="M377.9,201.4c-0.3-0.6-0.8-1-1.4-1.2c-0.6-0.1-0.9,0.2-0.7,0.7c0.3,0.6,0.8,1,1.4,1.2
					C377.8,202.2,378.1,201.9,377.9,201.4z"/>
				<path class="st7" d="M378.8,203.8c-0.3-0.6-0.8-1-1.4-1.2c-0.6-0.1-0.9,0.2-0.7,0.7c0.3,0.6,0.8,1,1.4,1.2
					C378.7,204.6,379,204.3,378.8,203.8z"/>
				<path class="st18" d="M364.7,210.2c-1.5-1.6-1.4-1.9-0.8-2.9c0.9-1.6,2.5-2.6,4.3-2.8c1.3-0.2,2.7-0.2,4,0
					c0.8,0.3,0.3,2.1-1.6,2.8c-3.1,1.1-3,1.9-3,1.9c1.3-0.5,2.6-0.9,4-1.2c1.6-0.1,3.2,0,4.8,0.2c1.4,0.1,1.8,1.8-0.4,2.6l2.5,0.1
					c1.8,0.1,2.5,0.9,1.2,2.2c-0.4,0.4-0.9,0.7-1.5,0.8c0,0,1.8-0.2,1.9,0.4c0.3,1.7-0.8,2.3-4.4,3.8c-3.4,1.4-4,3.4-3.1,4.6
					c0,0-1.5-0.7-2.9-1.4c-1-0.6-1.9-1.2-1.6-2.7c0,0-2,0.3-2.3-1c-0.1-0.9-0.1-1.9,0.2-2.7c-0.8-0.3-1.3-1.1-1.4-2
					c-0.1-0.8,0.1-1.6,0.5-2.3L364.7,210.2z"/>
				<path class="st19" d="M376,210.9c-0.8-0.1-1.5-0.1-2.3,0c-0.7,0.2-1.4,0.5-2.1,0.9c-1.3,0.7-2.5,1.6-3.6,2.5
					c1.4-0.6,2.7-1.2,4-2c0.6-0.4,1.2-0.7,1.9-1C374.5,211.2,375.3,211.1,376,210.9z"/>
				<path class="st19" d="M378.2,213.9c-0.8-0.1-1.6-0.1-2.4,0.2c-0.8,0.3-1.5,0.6-2.2,1c-1.4,0.8-2.8,1.7-4,2.7
					c1.5-0.6,2.9-1.4,4.3-2.1C375.2,214.8,376.7,214.2,378.2,213.9z"/>
			</g>
			<g id="freepik--Head--inject-2">
				<path class="st7" d="M426.2,150.6c-0.3,0.9-1.2-0.1-2,0.5c-0.7,0.3-1.5,0.3-2.3,0.1c-0.4-0.1-0.8-0.2-1.2-0.3
					c-2.1-0.8-4.1-1.9-5.8-3.4c-2.6-2.1-5-4.6-7.4-6.9c-2.4-2.2-4.8-4.5-6.9-7c-1-1.2-5.1-5-6.6-7.6c-1.2-2.3-0.7-4.5,0.4-5.3
					c-3,0.8-4.8-1.1-4.9-2.7c0-1.7,1.1-3.1,2.7-3.6c-0.3,0.7,0,1.5,0.7,1.8c0.7,0.3,1.5,0.1,2-0.4c0.5-0.5,0.8-1.2,0.8-1.9
					c0-0.9-0.1-1.8-0.6-2.6c-0.6-1.4-0.2-3,0.9-4c0.8-0.6,2-1.4,7.3-0.7c0.7,0.1,1.3-0.2,1.7-0.7c0.2-0.4,0.3-0.8,0.4-1.2
					c0.5-1.3,1.7-2.2,3.1-2.3c1.4-0.1,2.7,0.1,4,0.6c0.9,0.5,1.9,0.7,3,0.8c1.4,0,2.7-0.9,4.1-0.9c2.6,0,3.2,2.8,5.8,3.6
					c1.2,0.4,2.7-0.5,4.6,1.6c0.8,0.9,0.4,2.3,1,3.4c0.5,0.7,1,1.3,1.7,1.8c1.5,1.4,1.6,3.8,0.1,5.4c-0.1,0.2-0.3,0.3-0.5,0.4
					c2.3,0.7,4.5,3.4,4.7,7.9c0,3.1-0.6,6.1-1.8,9C434.1,138.3,427.1,148.3,426.2,150.6z"/>
				<path class="st18" d="M426.1,157.5c0-1.9,0.2-11.2,0.2-11.2c0.1,0.7,3.5,2.6,6.5-1s3.2-7.5,1.4-9.9c-2-2.7-6.5-2.5-8.3,1.9
					c-2.6-0.1-3.4-1.2-2.4-5.5c-0.3-3-3.7-3.9-3.6-10.5c-8.6-5.7-17.3-5.3-22.6-0.8c-1.6,5.3-2.3,10.9-2.1,16.5
					c0.4,9.9,3,14.8,6.2,16.4c2.1,1.1,4.1,1.4,7.8,1.1l-0.2,3.1l0,0c-0.1,1.6,0.1,2.7-1.4,3.2c-1,0.3-3.5,0.8-3.5,0.8
					s-3.5,6.1,6.2,6.7c15.6,0.9,21.8-6.4,21.8-6.4s-1-0.3-3.5-1.1S426.1,159.4,426.1,157.5z"/>
				<path class="st19" d="M412.5,142.7l-5.9,1.9c0.4,1.6,2,2.6,3.7,2.2c0.1,0,0.1,0,0.2-0.1C412.1,146.2,413,144.4,412.5,142.7z"/>
				<path class="st21" d="M412.1,144.1c-1.6,0-3,1.1-3.4,2.6c0.6,0.2,1.2,0.2,1.7,0c1.1-0.4,2-1.4,2.1-2.6
					C412.4,144.1,412.3,144.1,412.1,144.1z"/>
				<path class="st7" d="M398.2,128.9l3.8-1.8c-0.4-1-1.6-1.5-2.6-1.1c0,0-0.1,0-0.1,0.1C398.2,126.6,397.8,127.8,398.2,128.9z"/>
				<path class="st7" d="M416.7,129.4l-3.7-2.2c0.5-1,1.8-1.4,2.8-0.9c0,0,0.1,0,0.1,0.1C416.9,127.1,417.3,128.4,416.7,129.4z"/>
				<path class="st7" d="M402.5,132c0.1,1-0.6,1.8-1.6,1.9c-0.9,0.1-1.8-0.5-1.9-1.5c0,0,0-0.1,0-0.1c-0.1-1,0.6-1.8,1.6-1.9
					C401.6,130.3,402.4,131,402.5,132C402.5,132,402.5,132,402.5,132z"/>
				<path class="st7" d="M415.3,132.3c0.1,1-0.6,1.8-1.6,1.9c-0.9,0.1-1.8-0.6-1.9-1.5c0,0,0,0,0-0.1c-0.1-1,0.6-1.8,1.6-1.9
					C414.3,130.6,415.1,131.3,415.3,132.3C415.3,132.2,415.3,132.3,415.3,132.3z"/>
				<polygon class="st19" points="401.4,138.6 406.9,141.2 408,130.5 				"/>
				<path class="st19" d="M409.4,154.5c6.7-0.7,13.1-2.9,14.6-5.9c0,2-1,3.8-2.7,4.9c-3.8,2.2-12,3.4-12,3.4L409.4,154.5z"/>
			</g>
			<path class="st18" d="M427.6,212.7l4.4-27.5c0,0,0.2-16.4,6.4-21.8c7.1,2,9.2,6.1,11,10.6c2.4,5.7,2.2,11.2,0.1,25.8
				c-1.8,12.4-4,20.3-5.8,24.8c-2.2,5.6-7.2,6.1-15.8,5.6s-14-1.2-25.9-2.8c-5.7-0.8-8.7-2-13.5-3.5c-1.8-0.5-3.5-1.3-5.1-2.3
				c-1.5-0.9-2.7-2.2-3.5-3.7c-0.1-0.3-0.3-0.6-0.5-0.8c-0.2-0.2-0.5-0.4-0.7-0.6c-0.5-0.3-0.9-0.7-1.3-1.2
				c-0.3-0.5-0.6-1.1-0.8-1.7c-0.1-0.3-0.2-0.5-0.4-0.8c-0.2-0.2-0.4-0.5-0.6-0.7c-0.6-0.5-1.1-1.1-1.4-1.8
				c-0.2-0.4-0.1-0.8,0.1-1.2c0,0-0.8-0.6-1.1-0.9c-0.4-0.3-0.7-0.7-1-1.1c-0.1-0.1-0.2-0.3-0.2-0.5c0-0.1,0.1-0.2,0.2-0.3
				c1.3-1.2,3-0.7,4.5-0.2c3.8,1.5,5.9,3.2,9.9,4.2c2.2,0.6,2.7,0.7,3.5,0.4c1-0.6-2.9-4.3-3.2-7.4c-0.1-1.5,1.2-3.4,2.5-1.7
				c2.6,3.7,4.8,4.6,6.7,6.7s3.7,3.4,7.8,4.7C408.3,214.9,427.6,212.7,427.6,212.7z"/>
			<path class="st19" d="M427.6,212.7c4.4-1.1,9.9,0.4,9.9,0.4c-3-1.5-6.3-2.2-9.7-1.9L427.6,212.7z"/>
			<path class="st19" d="M374.5,209.4c0.8,0.7,1.6,1.2,2.5,1.8s1.7,1.1,2.5,1.7c0.4,0.3,0.8,0.6,1.3,0.9s0.9,0.5,1.4,0.8
				c0.9,0.5,1.8,0.9,2.8,1.3l-1.3-0.8l-1.3-0.8c-0.4-0.3-0.9-0.5-1.3-0.8s-0.8-0.6-1.3-0.9c-0.9-0.6-1.7-1.1-2.6-1.6L374.5,209.4z"
				/>
			<path class="st19" d="M376.2,212.9c0.5,0.6,1.1,1.2,1.7,1.7c0.6,0.5,1.2,1,1.9,1.4s1.3,0.9,2,1.3c0.7,0.4,1.4,0.8,2.1,1.1
				c-0.6-0.4-1.3-0.9-1.9-1.4l-1.9-1.4l-1.9-1.4C377.4,213.9,376.8,213.4,376.2,212.9z"/>
		</g>
	</g>
</g>
<g id="freepik--speech-bubbles--inject-94_00000121253587302521569560000002345251631096365225_">
	<g id="freepik--speech-bubbles--inject-94">
		<g id="freepik--speech-bubble--inject-94_00000051370024002171073810000006779216346013035193_">
			<g id="freepik--speech-bubble--inject-94">
				<path class="st6" d="M168.1,167.6c-7.5-4.4-17.9-3.8-29.3,2.8c-23,13.3-41.7,45.9-41.7,72.8c0,13.5,4.7,23,12.4,27.4
					c1.8,1,8.7,5,8.7,5c-0.7,6.2-4.3,11.6-9.7,14.7c-0.4,0.2-0.2,0.7,0.2,0.9l10.6,6.1c0.1,0.1,0.3,0.1,0.5,0.1
					c10.4,0,22.5-7,25.8-21.5c1.3-0.6,2.5-1.2,3.8-2c23-13.3,41.7-45.9,41.7-72.7c0-13.5-4.7-23-12.4-27.5L168.1,167.6z"/>
				<path class="st8" d="M149.4,176.5c-23,13.3-41.7,45.9-41.7,72.8c0,18.2,8.6,29.2,21.3,30.2c-0.5,5.8-2.2,12.3-10,16.9
					c-0.6,0.4,0.2,1.1,0.7,1.1c10.4,0,22.5-7,25.8-21.5c1.3-0.6,2.5-1.2,3.8-2c23-13.3,41.7-45.9,41.7-72.7S172.4,163.2,149.4,176.5
					z"/>
				<path class="st7" d="M119,296.3c-0.4,0.2-0.2,0.6,0.1,0.8l-10.4-6c-0.4-0.2-0.7-0.6-0.2-0.9c5.4-3,9.1-8.5,9.7-14.7l1.1,0.7
					l1.1,0.6c2.6,1.5,5.6,2.3,8.6,2.5C128.5,285.2,126.8,291.7,119,296.3z"/>
			</g>
			<path class="st11" d="M145,253.5c-1.1-0.8-1.7-2.2-1.7-4.3c0-2.1,0.6-4.2,1.6-6.1c1-1.9,2.4-3.4,4.2-4.5c1.7-1,3.1-1.1,4.2-0.4
				c1.1,0.7,1.6,2.1,1.6,4.2c0,2.2-0.6,4.3-1.7,6.2c-0.9,1.9-2.4,3.5-4.2,4.6C147.5,254.2,146.1,254.2,145,253.5z M143.5,199.1
				l11.3-6.5l-1.9,38.1l-7.5,4.4L143.5,199.1z"/>
		</g>
		<path class="st22" d="M154.9,270.2c12.3-9,22.9-23.3,29.4-38.6C172,240.6,161.4,254.9,154.9,270.2z"/>
		<g id="freepik--speech-bubble--inject-94_00000176032757380260447170000008655831204658231192_">
			<g id="freepik--speech-bubble--inject-94_00000088119446647959301850000005314711422955592363_">
				<path class="st1" d="M233.4,322.3c-4.3,0-7.4-2.9-9.4-6.7c12.8-15.7,21.4-36.6,21.4-54.9c0-13.5-4.8-23.1-12.4-27.5l-10.5-6.1
					c-7.5-4.4-17.9-3.8-29.3,2.8c-23,13.3-41.7,45.9-41.7,72.8c0,13.5,4.7,23,12.4,27.5c1.8,1,8.8,5.1,10.5,6.1
					c7.5,4.4,17.9,3.8,29.4-2.8c3.1-1.8,6-3.8,8.7-6.1c7.7,6.1,17.2-0.5,20.9-3.8C233.8,323.3,233.9,322.3,233.4,322.3z"/>
				<path class="st11" d="M185.3,338.6c-13.9,0-22.6-11.4-22.6-29.6c0-26.6,18.6-59,41.4-72.2c6.4-3.7,12.5-5.6,18.1-5.6
					c13.9,0,22.6,11.3,22.6,29.6c0,17.5-8.1,38.3-21.2,54.4l-0.3,0.3l0.2,0.4c2.4,4.4,5.8,6.9,9.6,7c0,0.1-0.1,0.2-0.1,0.2
					c-2.7,2.3-7.9,6.1-13.4,6.1l0,0c-2.4,0-4.8-0.8-6.7-2.4l-0.4-0.3L212,327c-2.7,2.2-5.6,4.2-8.6,6
					C197,336.6,190.9,338.6,185.3,338.6z"/>
				<path class="st4" d="M222.2,230.6v1.3c13.5,0,21.9,11.1,21.9,28.9c0,17.3-8.1,38.1-21.1,54l-0.5,0.7l0.4,0.8
					c2.2,4.1,5.2,6.6,8.7,7.2c-2.8,2.2-7.4,5.2-12,5.2c-2.3,0-4.5-0.8-6.3-2.2l-0.8-0.6l-0.8,0.7c-2.7,2.2-5.5,4.2-8.5,6
					c-6.3,3.6-12.3,5.5-17.8,5.5c-13.5,0-21.9-11.1-21.9-29c0-26.4,18.4-58.6,41-71.6c6.3-3.6,12.3-5.5,17.8-5.5L222.2,230.6
					 M222.1,230.6c-5.6,0-11.8,1.8-18.5,5.6c-23,13.3-41.7,45.9-41.7,72.8c0,19.1,9.5,30.3,23.2,30.3c5.6,0,11.8-1.8,18.5-5.6
					c3.1-1.8,6-3.8,8.7-6.1c2,1.6,4.5,2.5,7.1,2.5c5.7,0,11.2-4,13.8-6.2c0.5-0.4,0.6-1.4,0.1-1.4h-0.1c-4.2,0-7.3-3-9.3-6.7
					c12.8-15.7,21.4-36.6,21.4-54.9C245.4,241.7,235.9,230.6,222.1,230.6L222.1,230.6z"/>
			</g>
			<path class="st8" d="M201.6,289.4c1.2-2.9,2.6-5.7,4.2-8.5c1.1-1.9,2.1-3.8,2.9-5.8c0.6-1.4,0.9-2.8,1-4.3c0-2-0.6-3.2-1.8-3.7
				s-2.8-0.1-4.8,1c-2,1.2-3.7,2.7-5.1,4.5c-1.5,2-2.8,4.2-3.7,6.6l-7.4-1.5c1.6-4.3,4-8.4,6.9-12c2.9-3.5,6.4-6.5,10.3-8.8
				c4.7-2.7,8.4-3.5,11.2-2.5c2.8,1,4.2,3.9,4.2,8.6c0,2.1-0.3,4.3-0.8,6.3c-0.5,1.9-1.2,3.7-2,5.4c-0.8,1.6-1.8,3.5-3.1,5.8
				c-1.2,2.1-2.3,4.2-3.3,6.4c-0.7,1.6-1,3.3-1,5l-9.2,5.3C200.2,294.5,200.6,291.9,201.6,289.4z M200.6,315.1
				c-1.1-0.8-1.7-2.2-1.7-4.3c0-2.1,0.6-4.2,1.6-6.1c1-1.9,2.4-3.4,4.2-4.5c1.7-1,3.1-1.1,4.2-0.4s1.6,2.1,1.6,4.2
				c0,2.2-0.6,4.3-1.7,6.2c-0.9,1.9-2.4,3.5-4.2,4.5C203.1,315.8,201.7,315.9,200.6,315.1L200.6,315.1z"/>
		</g>
	</g>
</g>
</svg>
