<?xml version="1.0" encoding="utf-8"?>
<!-- Generator: Adobe Illustrator 27.3.1, SVG Export Plug-In . SVG Version: 6.00 Build 0)  -->
<svg version="1.1" id="Layer_1" xmlns="http://www.w3.org/2000/svg" xmlns:xlink="http://www.w3.org/1999/xlink" x="0px" y="0px"
	 viewBox="0 0 500 500" style="enable-background:new 0 0 500 500;" xml:space="preserve">
<style type="text/css">
	.st0{fill:#FAFAFA;}
	.st1{fill:#E0E0E0;}
	.st2{fill:#FFFFFF;}
	.st3{fill:#F0F0F0;}
	.st4{fill:#B3C6B0;}
	.st5{opacity:0.7;fill:#FFFFFF;enable-background:new    ;}
	.st6{opacity:0.1;enable-background:new    ;}
	.st7{opacity:0.3;fill:#FFFFFF;enable-background:new    ;}
	.st8{opacity:0.5;fill:#FFFFFF;enable-background:new    ;}
	.st9{opacity:0.4;fill:#FFFFFF;enable-background:new    ;}
	.st10{opacity:0.2;fill:#B3C6B0;enable-background:new    ;}
	.st11{opacity:0.2;}
	.st12{fill:#EBEBEB;}
	.st13{fill:#F5F5F5;}
	.st14{fill:#455A64;}
	.st15{fill:#263238;}
	.st16{fill:#37474F;}
	.st17{opacity:0.6;fill:#FFFFFF;enable-background:new    ;}
	.st18{opacity:0.15;enable-background:new    ;}
	.st19{opacity:0.25;enable-background:new    ;}
	.st20{fill:#E6E6E6;}
	.st21{fill:#FFBDA7;}
	.st22{fill:#F0997A;}
	.st23{fill:#B16668;}
	.st24{fill:#FFC4C3;}
	.st25{fill:#FFA8A7;}
	.st26{opacity:0.35;enable-background:new    ;}
	.st27{opacity:0.1;}
	.st28{opacity:0.5;}
	.st29{opacity:0.3;}
	.st30{fill:#7E8B7C;}
</style>
<g id="freepik--Floor--inject-24">
	<path id="freepik--floor--inject-24" class="st0" d="M77.7,245.9c-95.2,55-95.2,144,0,199s249.5,55,344.7,0s95.2-144,0-199
		S172.8,191,77.7,245.9z"/>
</g>
<g id="freepik--Plants--inject-24">
	<g id="freepik--plants--inject-24">
		<path class="st1" d="M473.2,336.8c-4.5,11.8-13.9,19.8-17.2,43.9c-0.5,3.9-0.2,9.7-0.1,13.6l-11.1-6.4
			c-1.1-10.5-1.5-23.5,0.5-35.4c3-18,12.7-27.9,19.3-29.9C472.2,320.4,477.9,324.4,473.2,336.8z"/>
		<path class="st2" d="M467,329.4c-9.5,10.1-19.1,34.5-15.2,62.6l-1.1-0.6c-3.5-28,6.1-52.5,15.6-62.6c0.2-0.2,0.5-0.2,0.7,0
			C467.1,328.9,467.1,329.2,467,329.4L467,329.4z"/>
		<path class="st3" d="M480.7,362.7c-2.4,4.1-6.8,7.7-10.7,13.5c-4.2,6.4-7.6,10.3-10.9,20l-6.3-3.6c0.9-19.7,8.6-31.2,12.5-35.5
			c4.5-5,11-9.7,15.9-5.3C484.4,354.5,482.8,359,480.7,362.7z"/>
		<path class="st2" d="M475.9,357.2c-6.5,4.2-16.9,22-19.6,37.3l-0.9-0.5c2.8-15.6,13.2-33.3,19.9-37.6c0.2-0.1,0.5-0.1,0.7,0.2
			C476.1,356.8,476.1,357.1,475.9,357.2L475.9,357.2z"/>
	</g>
	<g id="freepik--plants--inject-24_00000111153616659572739030000016241753551410509745_">
		<path class="st3" d="M47.5,393.4l7-4c0,0,4.2-17.3,2.5-32.9c-2.3-21.9-16.8-30.1-22.2-28.2s-7.1,8.3,2,21.3
			C42.1,357.2,48.7,373.2,47.5,393.4z"/>
		<path class="st2" d="M50.3,384.9L50.3,384.9c-0.3-0.1-0.5-0.3-0.5-0.6c3.8-20.2-3.2-42.9-12-52.3c-0.2-0.2-0.2-0.5,0-0.7
			s0.5-0.2,0.7,0l0,0c8.9,9.6,16.1,32.7,12.2,53.2C50.7,384.7,50.6,384.9,50.3,384.9z"/>
		<path class="st1" d="M29.8,403.6c-1,0.5-3.8-1.9-4.6-2.4c-1.3-1-2.3-2.3-3-3.9c-0.7-1.7-0.9-3.7-0.5-5.5c0.2-1,0.5-1.9,0.8-2.9
			c0.3-0.9,0.6-1.9,1-2.8s0.5-1.9,0.5-2.8c-0.1-1.9-1.8-3.4-3.3-4.6s-3.4-3.2-3.2-5.5c0.2-1.8,1-3.5,2.3-4.8c1.2-1.4,2.5-2.5,3.6-4
			c0.8-1,1.3-2.2,1.4-3.5c-0.1-0.8-0.3-1.6-0.7-2.3c-0.9-1.5-1.6-3.1-2.2-4.7c-0.5-1.6-0.3-3.7,1-4.8c1.2-0.8,2.6-1.1,4-0.8
			c1.3,0.2,2.6,0.8,3.7,1.6c3.6,2.2,5.5,6.7,9.3,8.5c1.5,0.6,3.1,1,4.7,1.4c1.6,0.4,3,1.4,3.8,2.9c1.3,2.9-1.5,6.3-0.7,9.4
			c0.8,2.7,3.3,3.9,4.7,6.4c0.5,1.1,0.7,2.3,0.5,3.5c-0.2,2.1-0.8,4.1-1.8,5.9c-1.1,1.9-2.2,3.7-3.5,5.4L29.8,403.6z"/>
		<path class="st2" d="M40,398.3L40,398.3c-0.3,0-0.4-0.2-0.4-0.5c1.7-18.2-5.9-38.7-11.8-44.9c-0.2-0.2-0.2-0.5,0-0.6
			c0.2-0.2,0.5-0.2,0.6,0c6.1,6.3,13.8,27.1,12.1,45.6C40.5,398.1,40.3,398.3,40,398.3z"/>
		<path class="st2" d="M38.2,375.9L38.2,375.9c-4.4-1.4-8.7-2.3-13.2-2.8c-0.3,0-0.4-0.2-0.4-0.5c0-0.2,0.2-0.4,0.5-0.4l0,0
			c4.5,0.5,9,1.4,13.3,2.8c0.2,0.1,0.4,0.4,0.3,0.6C38.5,375.8,38.4,375.9,38.2,375.9z"/>
	</g>
</g>
<g id="freepik--Shadows--inject-24">
	<ellipse id="freepik--Shadow--inject-24" class="st1" cx="88.2" cy="415.3" rx="62.6" ry="36.1"/>
	<ellipse id="freepik--shadow--inject-24" class="st1" cx="401.8" cy="414.2" rx="64.1" ry="37"/>
	
		<ellipse id="freepik--shadow--inject-24_00000070814573406152913560000006691596033814557604_" class="st1" cx="346.7" cy="394.2" rx="64.1" ry="37"/>
	<path id="freepik--shadow--inject-24_00000081649825992207934720000012515146811858371752_" class="st1" d="M245.2,319l-19.8-11.5
		c-2-1.2-2-3.1,0-4.2l73.7-42.7c2.3-1.2,5-1.2,7.3,0l19.8,11.5c2,1.2,2,3,0,4.2L252.5,319C250.2,320.2,247.5,320.2,245.2,319z"/>
</g>
<g id="freepik--Tubes--inject-24">
	<g id="freepik--test-tubes--inject-24">
		<path class="st0" d="M252.1,233.2L252.1,233.2l1.1-0.6v1.9c0,0.7-0.2,1.3-0.6,1.9c-0.1,0.2-0.3,0.4-0.5,0.6v8.1
			c-0.4-0.4-0.9-0.8-1.4-1.1c-3.9-1.9-8.4-1.9-12.3,0c-0.6,0.3-1.1,0.7-1.5,1.2V242L252.1,233.2z"/>
		<path class="st1" d="M270.3,234.6c-3.9-2-8.4-2-12.3,0c-1.1,0.5-1.9,1.4-2.4,2.6c-0.6-1.6,0.2-3.3,2.4-4.6c3.9-2,8.4-2,12.3,0
			c2.1,1.2,2.9,3,2.4,4.6C272.2,236.1,271.4,235.2,270.3,234.6z"/>
		<path class="st1" d="M290,223.3c-3.9-2-8.4-2-12.3,0c-1.1,0.5-1.9,1.4-2.4,2.5c-0.6-1.6,0.2-3.3,2.4-4.5c3.9-2,8.4-2,12.3,0
			c2.1,1.2,2.9,2.9,2.4,4.5C291.9,224.7,291.1,223.8,290,223.3z"/>
		<path class="st1" d="M309.6,211.9c-3.9-1.9-8.4-1.9-12.3,0c-1.1,0.5-1.9,1.4-2.4,2.6c-0.6-1.6,0.2-3.3,2.4-4.6c3.9-2,8.4-2,12.3,0
			c2.1,1.2,2.9,3,2.4,4.6C311.5,213.4,310.7,212.5,309.6,211.9z"/>
		<path class="st1" d="M250.6,246c-3.9-1.9-8.4-1.9-12.3,0c-1.1,0.5-1.9,1.4-2.4,2.6c-0.6-1.6,0.2-3.3,2.4-4.6c3.9-2,8.4-2,12.3,0
			c2.1,1.2,2.9,3,2.4,4.6C252.6,247.4,251.7,246.5,250.6,246z"/>
		<path class="st0" d="M309.6,209.9c-3.9-2-8.4-2-12.3,0c-0.5,0.3-1,0.7-1.5,1.1v-3.1l11.3-6.5l4,2.3v7.4
			C310.7,210.6,310.2,210.2,309.6,209.9z"/>
		<path class="st0" d="M291.3,210.6L291.3,210.6l0.1-0.1l0,0l1.1-0.6v1.9c0,0.7-0.2,1.3-0.6,1.9c-0.1,0.2-0.3,0.4-0.5,0.6v8.2
			c-0.4-0.5-0.9-0.8-1.5-1.1c-3.9-1.9-8.4-1.9-12.3,0c-0.5,0.3-1,0.7-1.5,1.1v-3.1L291.3,210.6z"/>
		<path class="st0" d="M271.5,222L271.5,222l1.3-0.8v1.9c0,0.7-0.2,1.3-0.6,1.9c-0.1,0.2-0.3,0.4-0.5,0.6l0,0v8.2
			c-0.4-0.4-0.9-0.8-1.5-1.1c-3.9-2-8.4-2-12.3,0c-0.6,0.3-1.1,0.7-1.5,1.2v-3.1L271.5,222z"/>
		<path class="st1" d="M311.2,215.7L311.2,215.7L311.2,215.7z"/>
		<path class="st1" d="M311.2,215.8c-0.1,0.1-0.3,0.3-0.4,0.4C310.9,216,311.1,215.9,311.2,215.8z"/>
		<path class="st1" d="M270.3,280c-3.9-2-8.4-2-12.3,0c-1.1,0.5-1.9,1.4-2.4,2.5c-0.6-1.6,0.2-3.3,2.4-4.5c3.9-2,8.4-2,12.3,0
			c2.1,1.2,2.9,3,2.4,4.5C272.2,281.4,271.4,280.5,270.3,280z"/>
		<path class="st1" d="M290,268.7c-3.9-2-8.4-2-12.3,0c-1.1,0.5-1.9,1.4-2.4,2.5c-0.6-1.6,0.2-3.3,2.4-4.5c3.9-2,8.4-2,12.3,0
			c2.1,1.2,2.9,3,2.4,4.5C291.9,270.1,291.1,269.2,290,268.7z"/>
		<path class="st1" d="M309.6,257.3c-3.9-2-8.4-2-12.3,0c-1.1,0.5-1.9,1.4-2.4,2.5c-0.6-1.6,0.2-3.3,2.4-4.6c3.9-2,8.4-2,12.3,0
			c2.1,1.2,2.9,3,2.4,4.6C311.5,258.7,310.7,257.8,309.6,257.3z"/>
		<path class="st1" d="M250.6,291.3c-3.9-2-8.4-2-12.3,0c-1.1,0.5-1.9,1.4-2.4,2.5c-0.6-1.6,0.2-3.3,2.4-4.5c3.9-2,8.4-2,12.3,0
			c2.1,1.2,2.9,3,2.4,4.5C252.6,292.8,251.7,291.9,250.6,291.3z"/>
		<path class="st0" d="M309.6,255.3c-3.9-2-8.4-2-12.3,0c-0.5,0.3-1,0.7-1.5,1.1v-3.1l11.3-6.5l4,2.3v7.4
			C310.7,256,310.2,255.6,309.6,255.3z"/>
		<path class="st0" d="M290,266.6c-3.9-2-8.4-2-12.3,0c-0.5,0.3-1,0.7-1.5,1.1v-3.1l15.2-8.8v11.9C291,267.3,290.5,267,290,266.6z"
			/>
		<path class="st0" d="M270.3,278c-3.9-2-8.4-2-12.3,0c-0.6,0.3-1.1,0.7-1.5,1.2V276l15.2-8.8v11.9
			C271.3,278.7,270.8,278.3,270.3,278z"/>
		<path class="st0" d="M250.6,289.3c-3.9-2-8.4-2-12.3,0c-0.6,0.3-1.1,0.7-1.5,1.2v-3.1l15.2-8.8v11.9
			C251.7,290,251.2,289.6,250.6,289.3z"/>
		<g id="freepik--test-tube--inject-24">
			<path class="st4" d="M236.9,235.3c0.1-1.4,1-2.6,2.2-3.1c3.4-1.7,7.4-1.7,10.8,0c1.3,0.6,2.1,1.7,2.2,3.1v68l0,0
				c0,4.2-3.4,7.6-7.6,7.6c-4.2,0-7.6-3.4-7.6-7.6l0,0L236.9,235.3z"/>
			<path class="st5" d="M236.9,235.3c0.1-1.4,1-2.6,2.2-3.1c3.4-1.7,7.4-1.7,10.8,0c1.3,0.6,2.1,1.7,2.2,3.1v68l0,0
				c0,4.2-3.4,7.6-7.6,7.6c-4.2,0-7.6-3.4-7.6-7.6l0,0L236.9,235.3z"/>
			<path class="st4" d="M239.1,248.1c0.1-1,0.7-1.8,1.6-2.2c2.4-1.2,5.2-1.2,7.5,0c0.9,0.4,1.5,1.2,1.6,2.2V303l0,0
				c0.1,2.9-2.2,5.4-5.1,5.6c-2.9,0.1-5.4-2.2-5.6-5.1c0-0.2,0-0.3,0-0.5l0,0V248.1z"/>
			<path class="st6" d="M244.5,308.4c-2.8,0-5.2-2.2-5.3-5.1c0.6,2,2.6,3.1,4.6,2.5c1.6-0.5,2.7-1.9,2.7-3.5l0,0v-57
				c0.6,0.1,1.2,0.4,1.8,0.7c0.9,0.4,1.5,1.2,1.6,2.2V303l0,0C249.8,305.9,247.5,308.4,244.5,308.4L244.5,308.4z"/>
			<path class="st4" d="M239.1,248.1c0,1.7,2.4,3.1,5.3,3.1s5.3-1.4,5.3-3.1s-2.4-3.1-5.3-3.1S239.1,246.4,239.1,248.1z"/>
			<path class="st7" d="M239.1,248.1c0,1.7,2.4,3.1,5.3,3.1s5.3-1.4,5.3-3.1s-2.4-3.1-5.3-3.1S239.1,246.4,239.1,248.1z"/>
			<path class="st8" d="M239.1,248.1c0.1-0.9,0.7-1.8,1.6-2.2c-0.1,0.1-2.3,2.6,1.1,4c3.6,1.5,6.9,0,7.8-1c-0.6,1.3-2.7,2.3-5.1,2.3
				C241.5,251.2,239.1,249.8,239.1,248.1z"/>
			<path class="st9" d="M239.8,305.4c0,0.8-0.4,1.1-1,0.8c-0.6-0.5-0.9-1.3-0.9-2v-71c0.4-0.4,0.8-0.7,1.2-0.9
				c0.2-0.1,0.5-0.2,0.7-0.4V305.4z"/>
			<path class="st9" d="M241.2,307.3L241.2,307.3c-0.4-0.1-0.6-0.4-0.6-0.7v-75.1c0.4-0.1,0.7-0.2,1.1-0.3v75.7
				c0,0.2-0.2,0.4-0.4,0.4C241.3,307.3,241.3,307.3,241.2,307.3z"/>
			<path class="st10" d="M238.8,239.6c-0.8-0.4-1.4-1-1.9-1.8v-2.5c0-0.3,0-0.6,0.1-0.8c0.5-0.6,1.1-1.2,1.8-1.5
				c3.4-1.7,7.3-1.8,10.7-0.4V232h0.1c0.1,0,0.2,0.1,0.3,0.1c0.6,0.3,1.1,0.7,1.5,1.2c0.2,0.3,0.4,0.6,0.6,1
				c0.1,0.3,0.1,0.6,0.1,0.8v3l0,0v8.8l0,0v56.2l0,0c0,4.2-3.4,7.6-7.6,7.6c-3,0-5.8-1.8-7-4.6c1.3,2.6,4.9,3.7,8,2.9l0,0
				c1.8-0.5,3.1-2.2,3.1-4.2V240C245.4,241.3,241.8,241.1,238.8,239.6z"/>
			<path class="st6" d="M245.2,310.9L245.2,310.9c4.7-0.9,5.6-4.7,5.6-7v-71l0.1,0.1c0.3,0.3,0.6,0.7,0.9,1.1v0.1
				c0,0.1,0.1,0.1,0.1,0.2v0.1c0.1,0.2,0.1,0.4,0.1,0.6l0,0c0,0.1,0,0.2,0,0.3v3l0,0v8.8l0,0v56.2l0,0
				C252,307.2,249.1,310.4,245.2,310.9z"/>
			<path class="st1" d="M235.8,224.9c0-1.3,0.9-2.6,2.6-3.6c3.9-2,8.5-2,12.3,0c1.7,1,2.6,2.3,2.6,3.6l0,0v9.6l0,0
				c0,1.3-0.9,2.6-2.6,3.6c-3.9,2-8.5,2-12.3,0c-1.7-1-2.6-2.3-2.6-3.6l0,0V224.9z"/>
			<path class="st6" d="M242.4,239.3c4.3,0,6.6-1.4,7.3-2.5c0.5-0.9,0.6-8.2,0.6-9.8c0,0,0.5-3.6,0.4-3.6s1-0.2,1.9-0.4
				c0.4,0.6,0.6,1.2,0.6,1.9l0,0v9.6l0,0c0,1.3-0.9,2.6-2.6,3.6C248.1,239.3,245.2,239.8,242.4,239.3z"/>
			<g class="st11">
				<path d="M245.3,239.5c0.1,0,0.3,0,0.4,0v-10.8h-0.4V239.5z"/>
				<path d="M247.3,239.2l0.4-0.1v-10.8h-0.4V239.2z"/>
				<path d="M249.1,238.7l0.4-0.2v-10.7h-0.4V238.7z"/>
				<path d="M250.7,238l0.4-0.3v-10.6h-0.4V238z"/>
				<path d="M253,235.5c0.1-0.3,0.2-0.7,0.2-1.1l0,0v-9.6l0,0c0-0.2,0-0.5-0.1-0.7H253V235.5z"/>
				<path d="M252.4,236.5V226H252v11C252.1,236.9,252.3,236.7,252.4,236.5z"/>
				<path d="M243.4,239.4h0.4v-10.8h-0.4V239.4z"/>
				<path d="M236.5,236.5c0.1,0.2,0.3,0.3,0.4,0.5v-10.8h-0.4V236.5z"/>
				<path d="M238,237.8c0.1,0.1,0.2,0.2,0.3,0.2h0.1v-10.8H238V237.8z"/>
				<path d="M235.8,234.5c0,0.4,0.1,0.7,0.2,1.1v-11h-0.1c0,0.1,0,0.2-0.1,0.4L235.8,234.5z"/>
				<path d="M239.6,238.6l0.4,0.1V228h-0.4V238.6z"/>
				<path d="M241.4,239.2l0.4,0.1v-10.8h-0.4V239.2z"/>
			</g>
			<path class="st12" d="M250.6,228.4c-3.9,2-8.5,2-12.3,0c-3.4-2-3.4-5.2,0-7.1c3.9-2,8.5-2,12.3,0
				C254.1,223.3,254.1,226.5,250.6,228.4z"/>
			<path class="st13" d="M237.8,228.1c-2.9-2-2.8-4.9,0.5-6.8c1.8-1,3.9-1.5,6-1.5c1.1,0.2,2.2,0.5,3.2,1.1c2.9,1.7,2.9,5,0,6.7
				C244.5,229.2,241,229.3,237.8,228.1z"/>
			<ellipse class="st14" cx="244.5" cy="224.9" rx="3.8" ry="2.2"/>
			<path class="st2" d="M252.5,226.8c0,0-2.8,2.9-8.3,2.7s-7.7-3.1-8-4.1c-0.3-1.1,0-2.3,0.7-3.2c-0.8,0.7-1.2,1.6-1.2,2.6v9.6
				c0,0.3-0.2,1.4,1.6,2.9c-0.6-0.7-0.9-1.5-1-2.3v-8.4c0,0,1.9,3.2,7.9,3.2S252.2,227.3,252.5,226.8z"/>
			<g id="freepik--Label--inject-24">
				<path class="st6" d="M244.1,265.3c2.1,0.1,4.2-0.5,6-1.6v29c-1.8,1.1-3.9,1.7-6,1.6c-1.1,0-2.2-0.1-3.3-0.4v-29
					C241.9,265.1,243,265.3,244.1,265.3z"/>
				<path class="st0" d="M244.5,264.7c2.1,0.1,4.2-0.5,5.9-1.6v29c-1.8,1.1-3.8,1.7-5.9,1.6c-1.1,0-2.2-0.1-3.2-0.4v-29
					C242.3,264.6,243.4,264.7,244.5,264.7z"/>
				<path class="st1" d="M249.3,291.5c0.2,0,0.3-0.1,0.3-0.3v-25.8c0-0.2-0.2-0.3-0.4-0.2c-0.1,0-0.2,0.1-0.2,0.2v25.8
					C249,291.4,249.1,291.5,249.3,291.5L249.3,291.5z"/>
				<path class="st1" d="M246.6,292.3c0.1,0,0.2-0.1,0.3-0.2v-25.8c0-0.3-0.1-0.4-0.3-0.4s-0.3,0.1-0.3,0.3l0,0V292
					C246.3,292.2,246.5,292.3,246.6,292.3z"/>
				<path class="st1" d="M243.6,292.3c0.1,0,0.2-0.1,0.3-0.2v-25.8c0-0.3-0.1-0.4-0.3-0.4s-0.3,0.1-0.3,0.3l0,0V292
					C243.3,292.2,243.5,292.3,243.6,292.3z"/>
			</g>
		</g>
		<g id="freepik--test-tube--inject-24_00000074434131604359972920000013117017033206259623_">
			<path class="st4" d="M256.5,224c0.1-1.4,1-2.5,2.2-3.1c3.4-1.7,7.4-1.7,10.8,0c1.3,0.6,2.1,1.7,2.2,3.1v68l0,0
				c0,4.2-3.4,7.6-7.6,7.6s-7.6-3.4-7.6-7.6l0,0V224z"/>
			<path class="st5" d="M256.5,224c0.1-1.4,1-2.5,2.2-3.1c3.4-1.7,7.4-1.7,10.8,0c1.3,0.6,2.1,1.7,2.2,3.1v68l0,0
				c0,4.2-3.4,7.6-7.6,7.6s-7.6-3.4-7.6-7.6l0,0V224z"/>
			<path class="st4" d="M258.8,236.8c0.1-1,0.7-1.8,1.6-2.2c2.4-1.2,5.2-1.2,7.5,0c0.9,0.4,1.5,1.2,1.6,2.2v54.9l0,0
				c0.1,2.9-2.2,5.4-5.1,5.6s-5.4-2.2-5.6-5.1c0-0.2,0-0.3,0-0.5l0,0V236.8z"/>
			<path class="st6" d="M264.1,297c-2.8,0-5.2-2.2-5.3-5.1c0.6,2,2.6,3.1,4.6,2.5c1.6-0.5,2.7-1.9,2.7-3.5l0,0v-57
				c0.6,0.1,1.2,0.4,1.8,0.7c0.9,0.4,1.5,1.2,1.6,2.2v54.9l0,0C269.4,294.6,267.1,297,264.1,297z"/>
			<path class="st4" d="M258.8,236.8c0,1.7,2.4,3.1,5.3,3.1s5.3-1.4,5.3-3.1s-2.4-3.1-5.3-3.1S258.8,235.1,258.8,236.8z"/>
			<path class="st7" d="M258.8,236.8c0,1.7,2.4,3.1,5.3,3.1s5.3-1.4,5.3-3.1s-2.4-3.1-5.3-3.1S258.8,235.1,258.8,236.8z"/>
			<path class="st8" d="M258.8,236.8c0.1-1,0.7-1.8,1.5-2.2c-0.1,0.1-2.3,2.6,1.1,4c3.6,1.5,6.9,0,7.8-1c-0.6,1.3-2.7,2.3-5.1,2.3
				C261.2,239.8,258.8,238.5,258.8,236.8z"/>
			<path class="st9" d="M259.5,294.1c0,0.8-0.5,1.1-1,0.8c-0.6-0.5-0.9-1.2-0.9-2v-71c0.4-0.4,0.8-0.7,1.2-0.9l0.7-0.4L259.5,294.1z
				"/>
			<path class="st9" d="M260.9,296L260.9,296c-0.3-0.1-0.5-0.4-0.5-0.7v-75.2c0.4-0.1,0.7-0.2,1.1-0.3v75.7c0.1,0.2-0.1,0.4-0.3,0.5
				C261.1,296,261,296,260.9,296z"/>
			<path class="st10" d="M258.4,228.2c-0.8-0.4-1.4-1-1.9-1.8V224c0-0.3,0.1-0.5,0.1-0.8c0.5-0.6,1.1-1.2,1.8-1.5
				c3.4-1.7,7.3-1.8,10.7-0.4v-0.6h0.1l0.3,0.1c0.6,0.3,1.1,0.8,1.5,1.3c0.2,0.3,0.4,0.6,0.6,1c0.1,0.3,0.1,0.6,0.1,0.8v3l0,0v8.8
				l0,0V292c0,4.2-3.5,7.6-7.7,7.5c-3,0-5.7-1.8-6.9-4.5c1.3,2.6,4.9,3.7,8,2.9l0,0c1.8-0.5,3.1-2.2,3.1-4.2v-64.8
				C265,230,261.5,229.7,258.4,228.2z"/>
			<path class="st6" d="M264.9,299.5L264.9,299.5c4.7-0.9,5.5-4.7,5.5-7v-71l0.1,0.1c0.3,0.3,0.6,0.7,0.9,1.1c0,0,0,0,0,0.1
				s0.1,0.1,0.1,0.2v0.1c0.1,0.2,0.1,0.4,0.1,0.6c0,0,0,0,0,0.1s0,0.2,0,0.3v3l0,0v8.8l0,0V292l0,0
				C271.6,295.9,268.8,299.1,264.9,299.5z"/>
			<path class="st1" d="M255.4,213.5c0-1.3,0.8-2.6,2.6-3.6c3.9-2,8.5-2,12.3,0c1.7,1,2.5,2.3,2.5,3.6l0,0v9.6l0,0
				c0,1.3-0.9,2.6-2.5,3.6c-3.9,2-8.5,2-12.3,0c-1.7-1-2.6-2.3-2.6-3.6l0,0V213.5z"/>
			<path class="st6" d="M262,228c4.3,0,6.6-1.4,7.3-2.5c0.5-0.9,0.6-8.2,0.6-9.8c0,0,0.5-3.6,0.4-3.6s1-0.2,1.9-0.4
				c0.4,0.5,0.6,1.2,0.6,1.9l0,0v9.6l0,0c0,1.3-0.9,2.6-2.5,3.6C267.8,228,264.9,228.4,262,228z"/>
			<g class="st11">
				<path d="M265,228.1c0.1,0,0.3,0,0.4,0v-10.8H265V228.1z"/>
				<path d="M266.9,227.9l0.4-0.1V217h-0.4V227.9z"/>
				<path d="M268.7,227.4l0.4-0.2v-10.7h-0.4V227.4z"/>
				<path d="M270.4,226.6c0.1-0.1,0.3-0.2,0.4-0.3v-10.6h-0.4V226.6z"/>
				<path d="M272.6,224.2c0.1-0.3,0.2-0.7,0.2-1.1l0,0v-9.6l0,0c0-0.2,0-0.5-0.1-0.7h-0.1V224.2z"/>
				<path d="M272.1,225.2v-10.6h-0.4v11C271.8,225.5,271.9,225.3,272.1,225.2z"/>
				<path d="M263,228.1h0.4v-10.8H263V228.1z"/>
				<path d="M256.2,225.1c0.1,0.2,0.3,0.3,0.4,0.5v-10.8h-0.4V225.1z"/>
				<path d="M257.6,226.4c0.1,0.1,0.2,0.2,0.3,0.2h0.1v-10.8h-0.4V226.4z"/>
				<path d="M255.4,223.1c0,0.4,0.1,0.7,0.2,1.1v-11h-0.1c0,0.1,0,0.2-0.1,0.4L255.4,223.1z"/>
				<path d="M259.3,227.3l0.4,0.1v-10.8h-0.4V227.3z"/>
				<path d="M261.1,227.8l0.4,0.1v-10.8h-0.4V227.8z"/>
			</g>
			<path class="st12" d="M270.3,217.1c-3.9,2-8.5,2-12.3,0c-3.4-2-3.4-5.2,0-7.1c3.9-2,8.5-2,12.3,0
				C273.7,211.9,273.7,215.1,270.3,217.1z"/>
			<path class="st13" d="M257.5,216.8c-2.9-2-2.8-5,0.5-6.8c1.8-1,3.9-1.5,6-1.5c1.1,0.2,2.2,0.5,3.2,1.1c2.9,1.7,2.9,5,0,6.7
				C264.2,217.8,260.7,218,257.5,216.8z"/>
			<ellipse class="st14" cx="264.1" cy="213.5" rx="3.8" ry="2.2"/>
			<path class="st2" d="M272.2,215.5c0,0-2.8,2.9-8.3,2.7s-7.7-3.1-8-4.1c-0.3-1.1,0-2.3,0.7-3.1c-0.8,0.7-1.2,1.6-1.2,2.6v9.6
				c0,0.3-0.2,1.4,1.6,2.9c-0.6-0.7-0.9-1.5-1-2.3v-8.4c0,0,1.9,3.2,7.9,3.2S271.9,215.9,272.2,215.5z"/>
			<g id="freepik--label--inject-24">
				<path class="st6" d="M263.8,253.9c2.1,0.1,4.2-0.5,6-1.6v29c-1.8,1.1-3.9,1.7-6,1.6c-1.1,0-2.2-0.1-3.3-0.4v-29
					C261.6,253.8,262.7,253.9,263.8,253.9z"/>
				<path class="st0" d="M264.1,253.4c2.1,0.1,4.2-0.5,5.9-1.6v29c-1.8,1.1-3.8,1.7-5.9,1.6c-1.1,0-2.2-0.1-3.2-0.4v-29
					C262,253.3,263,253.4,264.1,253.4z"/>
				<path class="st1" d="M269,280.2c0.2,0,0.3-0.1,0.3-0.3v-25.8c0-0.2-0.2-0.3-0.4-0.2c-0.1,0-0.2,0.1-0.2,0.2v25.8
					C268.7,280,268.8,280.2,269,280.2L269,280.2z"/>
				<path class="st1" d="M266.3,280.8c0.2,0,0.3-0.1,0.3-0.3l0,0v-25.8c0-0.2-0.1-0.3-0.3-0.3c-0.2,0-0.3,0.1-0.3,0.3v25.8
					C266,280.7,266.1,280.8,266.3,280.8L266.3,280.8z"/>
				<path class="st1" d="M263.4,281c0.2,0,0.3-0.1,0.3-0.3v-25.8c0-0.2-0.2-0.3-0.4-0.2c-0.1,0-0.2,0.1-0.2,0.2v25.8
					C263.1,280.9,263.2,281,263.4,281z"/>
			</g>
		</g>
		<g id="freepik--test-tube--inject-24_00000016066999540041200230000006577474182942556298_">
			<path class="st4" d="M276.2,212.6c0.1-1.4,1-2.6,2.2-3.1c3.4-1.7,7.4-1.7,10.8,0c1.3,0.6,2.1,1.7,2.2,3.1v68l0,0
				c-0.2,4.2-3.7,7.5-7.9,7.3c-4-0.1-7.2-3.3-7.3-7.3l0,0L276.2,212.6L276.2,212.6z"/>
			<path class="st5" d="M276.2,212.6c0.1-1.4,1-2.6,2.2-3.1c3.4-1.7,7.4-1.7,10.8,0c1.3,0.6,2.1,1.7,2.2,3.1v68l0,0
				c-0.2,4.2-3.7,7.5-7.9,7.3c-4-0.1-7.2-3.3-7.3-7.3l0,0L276.2,212.6L276.2,212.6z"/>
			<path class="st4" d="M278.5,225.4c0.1-1,0.7-1.8,1.6-2.2c2.4-1.2,5.2-1.2,7.5,0c0.9,0.4,1.5,1.2,1.6,2.2v54.9l0,0
				c-0.1,2.9-2.6,5.2-5.6,5.1c-2.8-0.1-5-2.3-5.1-5.1l0,0V225.4z"/>
			<path class="st6" d="M283.8,285.7c-2.8,0-5.2-2.2-5.3-5.1c0.6,2,2.6,3.1,4.6,2.5c1.6-0.5,2.7-1.9,2.7-3.5l0,0v-57
				c0.6,0.1,1.2,0.4,1.8,0.7c0.9,0.4,1.5,1.2,1.6,2.2v54.9l0,0C289.1,283.3,286.7,285.7,283.8,285.7z"/>
			<path class="st4" d="M278.5,225.4c0,1.7,2.4,3.1,5.3,3.1s5.3-1.4,5.3-3.1s-2.4-3.1-5.3-3.1S278.5,223.7,278.5,225.4z"/>
			<path class="st7" d="M278.5,225.4c0,1.7,2.4,3.1,5.3,3.1s5.3-1.4,5.3-3.1s-2.4-3.1-5.3-3.1S278.5,223.7,278.5,225.4z"/>
			<path class="st8" d="M278.5,225.4c0.1-1,0.7-1.8,1.6-2.2c-0.1,0.1-2.3,2.6,1.1,4c3.6,1.5,6.9,0,7.8-1c-0.6,1.3-2.7,2.3-5.1,2.3
				C280.9,228.5,278.5,227.1,278.5,225.4z"/>
			<path class="st9" d="M279.1,282.7c0,0.8-0.5,1.1-1,0.8c-0.6-0.5-0.9-1.3-0.9-2v-71c0.4-0.4,0.8-0.7,1.2-0.9
				c0.2-0.1,0.5-0.3,0.7-0.4L279.1,282.7z"/>
			<path class="st9" d="M280.6,284.6L280.6,284.6c-0.3-0.1-0.5-0.4-0.5-0.7v-75.1c0.4-0.1,0.7-0.2,1.1-0.3v75.7
				c0,0.2-0.1,0.4-0.4,0.5C280.7,284.6,280.7,284.6,280.6,284.6z"/>
			<path class="st10" d="M278.1,216.8c-0.8-0.4-1.4-1-1.9-1.8v-2.5c0-0.3,0-0.6,0.1-0.8c0.5-0.6,1.1-1.2,1.8-1.5
				c3.4-1.7,7.3-1.8,10.7-0.4v-0.6h0.1c0.1,0,0.2,0.1,0.3,0.1c0.6,0.3,1.1,0.7,1.5,1.2c0.2,0.3,0.4,0.6,0.6,1
				c0.1,0.3,0.1,0.6,0.1,0.8v3l0,0v8.8l0,0v56.2l0,0c0,4.2-3.4,7.6-7.6,7.6c-3,0-5.8-1.8-7-4.6c1.3,2.6,4.9,3.7,8,2.9l0,0
				c1.8-0.5,3.1-2.2,3.1-4.2v-64.9C284.7,218.6,281.2,218.4,278.1,216.8z"/>
			<path class="st6" d="M284.6,288.2L284.6,288.2c4.7-0.9,5.5-4.8,5.5-7v-71l0.1,0.1c0.3,0.3,0.6,0.7,0.9,1.1v0.1
				c0,0.1,0.1,0.2,0.1,0.2v0.1c0.1,0.2,0.1,0.4,0.1,0.6c0,0,0,0,0,0.1s0,0.2,0,0.3v3l0,0v8.8l0,0v56.2l0,0
				C291.3,284.5,288.4,287.7,284.6,288.2z"/>
			<path class="st1" d="M275.1,202.2c0-1.3,0.9-2.6,2.6-3.6c3.9-2,8.5-2,12.3,0c1.7,1,2.6,2.3,2.6,3.6l0,0v9.6l0,0
				c0,1.3-0.9,2.6-2.6,3.6c-3.9,2-8.5,2-12.3,0c-1.7-1-2.6-2.3-2.6-3.6l0,0V202.2z"/>
			<path class="st6" d="M281.7,216.6c4.3,0,6.6-1.4,7.3-2.5c0.5-0.9,0.6-8.2,0.6-9.8c0,0,0.5-3.6,0.4-3.6s1-0.2,1.9-0.4
				c0.4,0.6,0.6,1.2,0.6,1.9l0,0v9.6l0,0c0,1.3-0.9,2.6-2.6,3.6C287.4,216.6,284.6,217.1,281.7,216.6z"/>
			<g class="st11">
				<path d="M284.7,216.7h0.4v-10.8h-0.4V216.7z"/>
				<path d="M286.6,216.5l0.4-0.1v-10.8h-0.4V216.5z"/>
				<path d="M288.4,216l0.4-0.2v-10.7h-0.4V216z"/>
				<path d="M290,215.3c0.2-0.1,0.3-0.2,0.4-0.3v-10.6H290V215.3z"/>
				<path d="M292.3,212.8c0.1-0.3,0.2-0.7,0.2-1.1l0,0v-9.6l0,0c0-0.2-0.1-0.5-0.1-0.7h-0.1V212.8z"/>
				<path d="M291.7,213.8v-10.6h-0.4v11C291.5,214.1,291.6,214,291.7,213.8z"/>
				<path d="M282.7,216.7h0.4v-10.8h-0.4V216.7z"/>
				<path d="M275.9,213.8c0.1,0.2,0.3,0.3,0.4,0.5v-10.8h-0.4V213.8z"/>
				<path d="M277.3,215.1c0.1,0.1,0.2,0.2,0.4,0.2h0.1v-10.8h-0.4v10.6H277.3z"/>
				<path d="M275.1,211.7c0,0.4,0.1,0.7,0.2,1.1v-11h-0.1c0,0.1-0.1,0.2-0.1,0.4V211.7z"/>
				<path d="M279,215.9l0.4,0.1v-10.8H279V215.9z"/>
				<path d="M280.8,216.5l0.4,0.1v-10.8h-0.4V216.5z"/>
			</g>
			<path class="st12" d="M290,205.7c-3.9,2-8.5,2-12.3,0c-3.4-2-3.4-5.2,0-7.1c3.9-2,8.5-2,12.3,0
				C293.4,200.6,293.4,203.8,290,205.7z"/>
			<path class="st13" d="M277.2,205.4c-2.9-2-2.8-4.9,0.5-6.8c1.8-1,3.9-1.5,6-1.5c1.1,0.2,2.2,0.5,3.2,1.1c3,1.7,3,5,0,6.7
				C283.8,206.4,280.3,206.6,277.2,205.4z"/>
			<path class="st14" d="M286.5,203.7c-1.7,0.9-3.7,0.9-5.4,0c-1.5-0.9-1.5-2.2,0-3.1c1.7-0.8,3.7-0.8,5.4,0
				C288,201.5,288,202.9,286.5,203.7z"/>
			<path class="st2" d="M291.9,204.1c0,0-2.9,2.9-8.3,2.7s-7.7-3.1-8-4.1c-0.3-1.1,0-2.3,0.7-3.2c-0.7,0.7-1.2,1.6-1.2,2.6v9.6
				c0,0.3-0.2,1.4,1.6,2.9c-0.6-0.7-0.9-1.5-1-2.3V204c0,0,1.9,3.2,7.9,3.2S291.6,204.6,291.9,204.1z"/>
			<g id="freepik--label--inject-24_00000103965198836204949630000018131391981342206880_">
				<path class="st6" d="M283.5,242.6c2.1,0.1,4.2-0.5,6-1.6v29c-1.8,1.1-3.9,1.7-6,1.6c-1.1,0-2.2-0.1-3.3-0.4v-29
					C281.2,242.4,282.3,242.6,283.5,242.6z"/>
				<path class="st0" d="M283.8,242c2.1,0.1,4.2-0.5,5.9-1.6v29c-1.8,1.1-3.8,1.7-5.9,1.6c-1.1,0-2.2-0.1-3.2-0.4v-29
					C281.6,241.9,282.7,242,283.8,242z"/>
				<path class="st1" d="M288.7,268.8c0.2,0,0.3-0.1,0.3-0.3l0,0v-25.8c0-0.2-0.1-0.3-0.3-0.3c-0.2,0-0.3,0.1-0.3,0.3v25.8
					C288.4,268.7,288.5,268.8,288.7,268.8C288.6,268.8,288.7,268.8,288.7,268.8z"/>
				<path class="st1" d="M285.9,269.4c0.2,0,0.3-0.1,0.3-0.3v-25.8c0-0.2-0.1-0.3-0.2-0.4c-0.2,0-0.3,0.1-0.4,0.2v0.1V269
					C285.6,269.3,285.7,269.4,285.9,269.4z"/>
				<path class="st1" d="M282.9,269.4c0.2,0,0.3-0.1,0.3-0.3v-25.8c0-0.2-0.1-0.3-0.3-0.3c-0.2,0-0.3,0.1-0.3,0.3l0,0v25.8
					C282.6,269.3,282.8,269.4,282.9,269.4L282.9,269.4z"/>
			</g>
		</g>
		<g id="freepik--test-tube--inject-24_00000011754332481778406190000003402847809062439336_">
			<path class="st4" d="M295.9,201.2c0.1-1.4,1-2.5,2.2-3.1c3.4-1.7,7.4-1.7,10.8,0c1.3,0.6,2.1,1.7,2.2,3.1v68l0,0
				c0,4.2-3.4,7.6-7.6,7.6s-7.6-3.4-7.6-7.6l0,0V201.2z"/>
			<path class="st5" d="M295.9,201.2c0.1-1.4,1-2.5,2.2-3.1c3.4-1.7,7.4-1.7,10.8,0c1.3,0.6,2.1,1.7,2.2,3.1v68l0,0
				c0,4.2-3.4,7.6-7.6,7.6s-7.6-3.4-7.6-7.6l0,0V201.2z"/>
			<path class="st4" d="M298.2,214c0.1-1,0.7-1.8,1.6-2.2c2.4-1.2,5.2-1.2,7.5,0c0.9,0.4,1.5,1.2,1.6,2.2v55l0,0
				c0.1,2.9-2.2,5.4-5.1,5.6s-5.4-2.2-5.6-5.1c0-0.2,0-0.3,0-0.5l0,0V214z"/>
			<path class="st6" d="M303.5,274.3c-2.8,0-5.2-2.2-5.3-5.1c0.6,2,2.6,3.1,4.6,2.5c1.6-0.5,2.7-1.9,2.7-3.5l0,0v-57
				c0.6,0.1,1.2,0.4,1.8,0.7c0.9,0.4,1.5,1.2,1.6,2.2V269l0,0C308.8,271.9,306.4,274.3,303.5,274.3z"/>
			<path class="st4" d="M298.2,214c0,1.7,2.4,3.1,5.3,3.1s5.3-1.4,5.3-3.1s-2.4-3.1-5.3-3.1S298.2,212.3,298.2,214z"/>
			<path class="st7" d="M298.2,214c0,1.7,2.4,3.1,5.3,3.1s5.3-1.4,5.3-3.1s-2.4-3.1-5.3-3.1S298.2,212.3,298.2,214z"/>
			<path class="st8" d="M298.2,214c0.1-1,0.7-1.8,1.5-2.2c-0.1,0.1-2.3,2.6,1.1,4c3.6,1.5,6.9,0,7.8-1c-0.6,1.3-2.7,2.3-5.1,2.3
				C300.5,217.1,298.2,215.7,298.2,214z"/>
			<path class="st9" d="M298.8,271.3c0,0.8-0.5,1.1-1,0.8c-0.6-0.5-0.9-1.2-0.9-2v-71c0.4-0.4,0.8-0.7,1.2-0.9
				c0.2-0.1,0.5-0.2,0.7-0.4L298.8,271.3z"/>
			<path class="st9" d="M300.3,273.2L300.3,273.2c-0.3-0.1-0.5-0.4-0.5-0.7v-75.1c0.4-0.1,0.7-0.2,1.1-0.3v75.7
				c0,0.2-0.1,0.4-0.4,0.5C300.4,273.3,300.3,273.3,300.3,273.2z"/>
			<path class="st10" d="M297.8,205.5c-0.8-0.4-1.4-1-1.9-1.8v-2.5c0-0.3,0.1-0.5,0.1-0.8c0.5-0.6,1.1-1.2,1.8-1.5
				c3.4-1.7,7.3-1.8,10.7-0.4V198h0.1l0.3,0.1c0.6,0.3,1.1,0.8,1.5,1.3c0.2,0.3,0.4,0.6,0.6,1c0.1,0.3,0.1,0.6,0.1,0.8v3l0,0v8.8
				l0,0v56.2c0,4.2-3.4,7.6-7.6,7.6c-3,0-5.7-1.8-7-4.5c1.3,2.6,4.9,3.7,8,2.9l0,0c1.8-0.5,3.1-2.2,3.1-4.2v-64.8
				C304.4,207.3,300.8,207,297.8,205.5z"/>
			<path class="st6" d="M304.3,276.8L304.3,276.8c4.7-0.9,5.5-4.7,5.5-7v-71l0.1,0.1c0.3,0.3,0.6,0.7,0.9,1.1c0,0,0,0,0,0.1
				s0.1,0.1,0.1,0.2v0.1c0.1,0.2,0.1,0.4,0.1,0.6c0,0,0,0,0,0.1s0,0.2,0,0.3v3l0,0v8.7l0,0v56.2l0,0
				C311,273.1,308.1,276.4,304.3,276.8z"/>
			<path class="st1" d="M294.8,190.8c0-1.3,0.9-2.6,2.5-3.6c3.9-2,8.5-2,12.3,0c1.7,1,2.5,2.3,2.5,3.6l0,0v9.6l0,0
				c0,1.3-0.9,2.6-2.5,3.6c-3.9,2-8.5,2-12.3,0c-1.7-1-2.5-2.3-2.5-3.6l0,0V190.8z"/>
			<path class="st6" d="M301.4,205.3c4.3,0,6.6-1.4,7.3-2.5c0.5-0.9,0.6-8.2,0.6-9.8c0,0,0.5-3.6,0.4-3.6s1-0.2,1.9-0.4
				c0.4,0.5,0.6,1.2,0.6,1.9l0,0v9.6l0,0c0,1.3-0.9,2.6-2.5,3.6C307.1,205.3,304.2,205.7,301.4,205.3z"/>
			<g class="st11">
				<path d="M304.4,205.4c0.1,0,0.3,0,0.4,0v-10.8h-0.4V205.4z"/>
				<path d="M306.3,205.1l0.4-0.1v-10.7h-0.4V205.1z"/>
				<path d="M308.1,204.7l0.4-0.2v-10.7h-0.4V204.7z"/>
				<path d="M309.7,203.9c0.1-0.1,0.3-0.2,0.4-0.3V193h-0.4V203.9z"/>
				<path d="M312,201.5c0.1-0.3,0.2-0.7,0.2-1.1l0,0v-9.6l0,0c0-0.2,0-0.5-0.1-0.7H312V201.5z"/>
				<path d="M311.4,202.5v-10.6H311v11C311.1,202.8,311.3,202.6,311.4,202.5z"/>
				<path d="M302.4,205.4h0.4v-10.8h-0.4V205.4z"/>
				<path d="M295.5,202.4c0.1,0.2,0.3,0.3,0.4,0.5v-10.8h-0.4V202.4z"/>
				<path d="M297,203.7c0.1,0.1,0.2,0.2,0.3,0.2h0.1v-10.8H297V203.7z"/>
				<path d="M294.8,200.4c0,0.4,0.1,0.7,0.2,1.1v-11h-0.1c0,0.1,0,0.2-0.1,0.4V200.4z"/>
				<path d="M298.6,204.6l0.4,0.1v-10.8h-0.4V204.6z"/>
				<path d="M300.5,205.1l0.4,0.1v-10.8h-0.4V205.1z"/>
			</g>
			<path class="st12" d="M309.7,194.4c-3.9,2-8.5,2-12.3,0c-3.4-2-3.4-5.2,0-7.1c3.9-2,8.5-2,12.3,0
				C313.1,189.2,313.1,192.4,309.7,194.4z"/>
			<path class="st13" d="M296.9,194.1c-2.9-2-2.8-5,0.5-6.8c1.8-1,3.9-1.5,6-1.5c1.1,0.2,2.2,0.5,3.2,1.1c2.9,1.7,2.9,5,0,6.7
				C303.5,195.1,300,195.3,296.9,194.1z"/>
			<path class="st14" d="M306.2,192.4c-1.7,0.9-3.7,0.9-5.4,0c-1.5-0.9-1.5-2.2,0-3.1c1.7-0.9,3.7-0.9,5.4,0
				C307.6,190.1,307.6,191.5,306.2,192.4z"/>
			<path class="st2" d="M311.5,192.7c0,0-2.8,2.9-8.3,2.7s-7.7-3.1-8-4.1c-0.3-1.1,0-2.3,0.7-3.2c-0.8,0.7-1.2,1.6-1.2,2.6v9.6
				c0,0.3-0.2,1.4,1.6,2.9c-0.6-0.7-0.9-1.5-1-2.3v-8.4c0,0,1.9,3.2,7.9,3.2S311.2,193.2,311.5,192.7z"/>
			<g id="freepik--label--inject-24_00000038399611766358317710000001267099242663486362_">
				<path class="st6" d="M303.1,231.2c2.1,0.1,4.2-0.5,6-1.6v29c-1.8,1.1-3.9,1.7-6,1.6c-1.1,0-2.2-0.1-3.3-0.4v-29
					C300.9,231.1,302,231.2,303.1,231.2z"/>
				<path class="st0" d="M303.5,230.7c2.1,0.1,4.2-0.5,5.9-1.6v29c-1.8,1.1-3.8,1.7-5.9,1.6c-1.1,0-2.2-0.1-3.2-0.4v-29
					C301.3,230.5,302.4,230.6,303.5,230.7z"/>
				<path class="st1" d="M307.7,257.5c0.2,0,0.3-0.1,0.3-0.3v-25.8c0-0.2-0.1-0.3-0.3-0.3c-0.2,0-0.3,0.1-0.3,0.3l0,0v25.8
					C307.4,257.4,307.5,257.5,307.7,257.5L307.7,257.5z"/>
				<path class="st1" d="M305.1,258.1c0.2,0,0.3-0.1,0.3-0.3l0,0V232c0-0.2-0.1-0.3-0.3-0.3c-0.2,0-0.3,0.1-0.3,0.3l0,0v25.8
					C304.8,258,304.9,258.1,305.1,258.1z"/>
				<path class="st1" d="M302.4,258.2c0.2,0,0.3-0.1,0.3-0.3v-25.8c0-0.2-0.1-0.3-0.3-0.3c-0.2,0-0.3,0.1-0.3,0.3l0,0v25.8
					C302.1,258.1,302.2,258.2,302.4,258.2L302.4,258.2z"/>
			</g>
		</g>
		<polygon class="st1" points="240.8,259.6 324.3,211.4 324.3,213.4 240.8,261.6 223.6,251.6 223.6,249.6 		"/>
		<path class="st0" d="M223.6,249.6l17.2,9.9l83.5-48.2l-13.2-7.6l0,0v7.4c1.8,1.9,1.3,4.3-1.5,5.9c-3.9,2-8.4,2-12.3,0
			c-2.8-1.6-3.3-4.1-1.5-6v-3.1l-3.3,1.9v1.9c0,0.7-0.2,1.3-0.6,1.9c-0.1,0.2-0.3,0.4-0.5,0.6v8.2c1.8,1.9,1.3,4.3-1.5,5.9
			c-3.9,2-8.4,2-12.3,0c-2.8-1.6-3.3-4-1.5-6v-3.1l-3.3,1.9v1.9c0,0.7-0.2,1.3-0.6,1.9c-0.1,0.2-0.3,0.4-0.5,0.6v8.2
			c1.8,1.9,1.4,4.4-1.5,6c-3.9,2-8.4,2-12.3,0c-2.8-1.6-3.3-4-1.5-5.9v-3.1l-3.3,1.9v1.9c0,0.7-0.2,1.3-0.6,1.9
			c-0.1,0.2-0.3,0.4-0.5,0.6v8.1c1.9,1.9,1.4,4.4-1.4,6c-3.9,2-8.4,2-12.3,0c-2.8-1.6-3.3-4-1.5-5.9V242L223.6,249.6z"/>
		<polygon class="st1" points="240.8,304.9 324.3,256.7 324.3,258.7 240.8,306.9 223.6,297 223.6,295 		"/>
		<path class="st0" d="M236.9,287.4v3.1c-1.8,1.9-1.2,4.3,1.5,5.9c3.9,2,8.4,2,12.3,0c2.8-1.6,3.3-4.1,1.4-6v-11.8l4.4-2.6v3.1
			c-1.8,1.9-1.3,4.3,1.5,5.9c3.9,2,8.4,2,12.3,0c2.8-1.6,3.3-4.1,1.5-6v-11.9l4.4-2.6v3.1c-1.8,1.9-1.3,4.3,1.5,6
			c3.9,2,8.4,2,12.3,0c2.8-1.6,3.3-4,1.5-5.9v-12l4.4-2.6v3.1c-1.8,1.9-1.4,4.4,1.5,6c3.9,2,8.4,2,12.3,0c2.8-1.6,3.3-4,1.5-5.9
			v-7.4l0,0l13.2,7.6L240.8,305l-17.2-10L236.9,287.4z"/>
	</g>
</g>
<g id="freepik--Microscope--inject-24">
	<g id="freepik--microscope--inject-24_00000098927943043307232210000006662370773147407264_">
		<path id="freepik--shadow--inject-24_00000165926862823002097590000012709350833744998589_" class="st1" d="M196.4,382.9l73-42.2
			c0.6-0.2,0.9-0.9,0.7-1.5c-0.1-0.3-0.4-0.6-0.7-0.7l-114.4-66c-1.2-0.6-2.6-0.6-3.8,0l-73,42.2c-0.6,0.2-0.9,0.9-0.7,1.5
			c0.1,0.3,0.4,0.6,0.7,0.7l114.4,66C193.8,383.5,195.2,383.5,196.4,382.9z"/>
		<g id="freepik--microscope--inject-24">
			<path class="st15" d="M88.6,304.3v7.5l106.2,61.3v-7.5c0-4.1-4.1-9.9-9.3-12.9l-87.7-50.6c-3.1-1.8-5.8-2.1-7.5-1.2
				C89.1,301.6,88.4,302.9,88.6,304.3z"/>
			<path class="st14" d="M150.9,265.9l0.1-0.1l0,0c1.7-1,4.4-0.6,7.6,1.2l87.7,50.6c5.1,3,9.3,8.7,9.3,12.9v7.5l-60.8,35.1v-7.5
				c0-4.1-4.1-9.9-9.3-12.9l-87.6-50.6c-3.1-1.8-5.8-2.1-7.5-1.2L150.9,265.9z"/>
			<path class="st16" d="M219.5,308.3c-7.4-4.2-17.4-6-27-5.4l-36.8-21.2l-28.3,16.4l36.8,21.2c-1.2,5.5,1.9,11.3,9.3,15.6
				c12.7,7.3,33.3,7.3,46.1,0S232.2,315.7,219.5,308.3z"/>
			<path class="st4" d="M120.6,281.6v12.5l21.7,12.5v-12.5c0-6.9-4.9-15.3-10.9-18.8c-3-1.8-5.8-1.9-7.7-0.7
				S120.6,278.2,120.6,281.6z"/>
			<path class="st17" d="M120.6,281.6v12.5l21.7,12.5v-12.5c0-6.9-4.9-15.3-10.9-18.8c-3-1.8-5.8-1.9-7.7-0.7
				S120.6,278.2,120.6,281.6z"/>
			<path class="st4" d="M149.7,259.7l0.2-0.1c2-1.1,4.7-0.9,7.6,0.8c6,3.5,10.9,11.9,10.9,18.8v12.5l-26.1,15v-12.5
				c0-6.9-4.9-15.3-10.9-18.8c-2.9-1.6-5.5-1.9-7.4-0.9L149.7,259.7z"/>
			<path class="st5" d="M149.7,259.7l0.2-0.1c2-1.1,4.7-0.9,7.6,0.8c6,3.5,10.9,11.9,10.9,18.8v12.5l-26.1,15v-12.5
				c0-6.9-4.9-15.3-10.9-18.8c-2.9-1.6-5.5-1.9-7.4-0.9L149.7,259.7z"/>
			<path class="st14" d="M131.5,286.4c-1.6-0.9-2.9-0.2-2.9,1.7c0.1,2,1.2,3.9,2.9,5c1.6,0.9,2.9,0.2,2.9-1.7
				C134.3,289.3,133.2,287.5,131.5,286.4z"/>
			<path class="st16" d="M115.1,233.4c5.8,19,9.9,27,20.8,41.5l20.2-11.7c-10-15.7-15.5-27.5-18-43.1c-4.4-27.1,5.6-50.9,16.1-60.7
				l-7.9-10.9c-4.7,2.8-20.2,11.7-20.2,11.7l6.6,11C113.8,181.6,109.2,214.4,115.1,233.4z"/>
			<path class="st15" d="M126.1,160.2c-10.7,6.4-27,25.1-24.6,60.5c1.2,17.3,8.2,38.2,20.5,55.5c0.4-0.7,1-1.2,1.7-1.6
				c0.8-0.5,1.9-1.1,2.8-1.6c2-1.2,4.7-1,7.7,0.7c0.6,0.3,1.1,0.7,1.6,1.1c-8.8-16.1-17.9-30.3-20.2-45.9c-4.9-34,10-53.5,17-57.6
				L126.1,160.2z"/>
			<path class="st15" d="M126.1,160.2c5.5-3.1,11.6-4.9,17.9-5l2.1,11.9c0,0-5.3-0.9-13.4,4.1L126.1,160.2z"/>
			<polygon class="st4" points="177,307.5 177,297.5 205.4,281.1 205.4,291.1 			"/>
			<polygon class="st18" points="177,307.5 177,297.5 205.4,281.1 205.4,291.1 			"/>
			<polygon class="st4" points="177,307.5 127.4,278.8 127.4,268.8 177,297.5 			"/>
			<polygon class="st19" points="177,307.5 127.4,278.8 127.4,268.8 177,297.5 			"/>
			<polygon class="st4" points="205.4,281.1 155.8,252.5 127.4,268.8 177,297.5 			"/>
			<path class="st4" d="M229.1,301.5v-9.2c0-4.8-3.2-9.6-9.5-13.3c-12.7-7.3-33.3-7.3-46.1,0c-6.4,3.7-9.5,8.5-9.5,13.3l0,0v9.2l0,0
				c-0.1,4.9,3.1,9.8,9.5,13.5c12.7,7.3,33.3,7.3,46.1,0C226,311.3,229.1,306.4,229.1,301.5L229.1,301.5z"/>
			<path class="st19" d="M229.1,301.5v-9.2c0-4.8-3.2-9.6-9.5-13.3c-12.7-7.3-33.3-7.3-46.1,0c-6.4,3.7-9.5,8.5-9.5,13.3l0,0v9.2
				l0,0c-0.1,4.9,3.1,9.8,9.5,13.5c12.7,7.3,33.3,7.3,46.1,0C226,311.3,229.1,306.4,229.1,301.5L229.1,301.5z"/>
			<path class="st4" d="M173.5,279c12.7-7.3,33.3-7.3,46.1,0s12.7,19.2,0,26.6s-33.3,7.3-46.1,0S160.8,286.4,173.5,279z"/>
			<path class="st1" d="M220.9,291.8v-6.9c0-3.6-2.4-7.2-7.1-10c-9.5-5.5-25-5.5-34.5,0c-4.8,2.8-7.1,6.4-7.1,10l0,0v6.9l0,0
				c-0.1,3.7,2.3,7.3,7.1,10.1c9.5,5.5,25,5.5,34.5,0C218.6,299.1,221,295.5,220.9,291.8L220.9,291.8z"/>
			<path class="st0" d="M179.2,275c9.5-5.5,25-5.5,34.5,0s9.5,14.4,0,19.9s-25,5.5-34.5,0S169.7,280.5,179.2,275z"/>
			<path class="st20" d="M180.2,275.5c9-5.2,23.6-5.2,32.6,0s9,13.6,0,18.8s-23.6,5.2-32.6,0S171.2,280.7,180.2,275.5z"/>
			<path class="st3" d="M212.8,281.9c-9-5.2-23.6-5.2-32.6,0c-2.6,1.4-4.8,3.5-6.1,6.2c1.3,2.7,3.4,4.9,6.1,6.2
				c9,5.2,23.6,5.2,32.6,0c2.6-1.4,4.8-3.5,6.1-6.2C217.6,285.4,215.4,283.3,212.8,281.9z"/>
			<path class="st4" d="M192.4,285.7c2.6-1.3,5.7-1.3,8.3,0c2.3,1.3,2.3,3.5,0,4.8c-2.6,1.3-5.7,1.3-8.3,0
				C190.1,289.2,190.1,287.1,192.4,285.7z"/>
			<path class="st4" d="M202.8,290.6c0.8-0.4,1.8-0.4,2.6,0c0.4,0.1,0.6,0.6,0.5,1c-0.1,0.2-0.3,0.4-0.5,0.5c-0.8,0.4-1.8,0.4-2.6,0
				c-0.4-0.1-0.6-0.6-0.5-1C202.4,290.8,202.6,290.6,202.8,290.6z"/>
			<path class="st17" d="M200.5,287c0,0.6-0.9,1.1-2,1.1s-2-0.5-2-1.1s0.9-1.1,2-1.1S200.5,286.4,200.5,287z"/>
			<path class="st17" d="M205.2,291c0,0.2-0.3,0.4-0.6,0.4s-0.6-0.2-0.6-0.4s0.3-0.4,0.6-0.4S205.2,290.8,205.2,291z"/>
			<path class="st15" d="M207.1,235.5V210l17.7,0.1v25.5l0,0c0,1.3-0.9,2.6-2.6,3.6c-3.9,2-8.6,2-12.5,0
				C208,238.1,207.1,236.8,207.1,235.5z"/>
			<path class="st4" d="M224.8,230.2c0,1.3-0.9,2.6-2.6,3.6c-3.9,2-8.6,2-12.5,0c-1.7-1-2.6-2.3-2.6-3.6v5.3c0,1.3,0.9,2.6,2.6,3.6
				c3.9,2,8.6,2,12.5,0c1.7-1,2.6-2.3,2.6-3.6l0,0V230.2z"/>
			<path class="st17" d="M224.8,230.2c0,1.3-0.9,2.6-2.6,3.6c-3.9,2-8.6,2-12.5,0c-1.7-1-2.6-2.3-2.6-3.6v5.3c0,1.3,0.9,2.6,2.6,3.6
				c3.9,2,8.6,2,12.5,0c1.7-1,2.6-2.3,2.6-3.6l0,0V230.2z"/>
			<path class="st15" d="M185.9,235.5V210l-17.7,0.1v25.5l0,0c0,1.3,0.9,2.6,2.6,3.6c3.9,2,8.6,2,12.5,0
				C185.1,238.1,185.9,236.8,185.9,235.5z"/>
			<path class="st4" d="M168.2,230.2c0,1.3,0.9,2.6,2.6,3.6c3.9,2,8.6,2,12.5,0c1.7-1,2.6-2.3,2.6-3.6v5.3c0,1.3-0.9,2.6-2.6,3.6
				c-3.9,2-8.6,2-12.5,0c-1.7-1-2.6-2.3-2.6-3.6l0,0V230.2z"/>
			<path class="st19" d="M168.2,230.2c0,1.3,0.9,2.6,2.6,3.6c3.9,2,8.6,2,12.5,0c1.7-1,2.6-2.3,2.6-3.6v5.3c0,1.3-0.9,2.6-2.6,3.6
				c-3.9,2-8.6,2-12.5,0c-1.7-1-2.6-2.3-2.6-3.6l0,0V230.2z"/>
			<path class="st16" d="M187.6,246.7v-25.4l17.7,0.1v25.5l0,0c0,1.3-0.9,2.6-2.6,3.6c-3.9,2-8.6,2-12.5,0
				C188.5,249.3,187.6,248,187.6,246.7z"/>
			<path class="st4" d="M205.4,241.4c0,1.3-0.9,2.6-2.6,3.6c-3.9,2-8.6,2-12.5,0c-1.7-1-2.6-2.3-2.6-3.6v5.3c0,1.3,0.9,2.6,2.6,3.6
				c3.9,2,8.6,2,12.5,0c1.7-1,2.6-2.3,2.6-3.6l0,0V241.4L205.4,241.4z"/>
			<path class="st16" d="M226.6,187.8c0-3.6-1.9-7.2-5.9-10.2c-2.3-1.8-4.4-3.9-6.2-6.2l-8.5-10.3c-10.2-12.6-26.9-17.8-42.4-13.3
				c-2.4,0.7-4.8,1.7-7,3c-6.2,3.6-9.1,8.4-8.4,13.1l-0.1,29.6c-0.4,4.5,2.5,9.1,8.4,12.6L177,218c11.3,6.6,29.7,6.6,41,0.1
				c5.7-3.2,8.5-7.5,8.5-11.8S226.6,192.1,226.6,187.8z"/>
			<polygon class="st4" points="155.8,197.6 162.9,201.7 162.9,197.6 155.8,193.5 			"/>
			<path class="st14" d="M168.6,189.3c10.2,12.5,26.9,17.8,42.4,13.3c2.4-0.7,4.8-1.7,7-3c10.4-6,11.3-15.4,2.7-22
				c-2.3-1.8-4.4-3.9-6.2-6.1l-8.4-10.2c-10.2-12.6-26.9-17.8-42.4-13.3c-2.4,0.7-4.8,1.7-7,3c-10.4,6-11.3,15.4-2.7,22
				c2.3,1.8,4.4,3.9,6.2,6.1L168.6,189.3z"/>
			<path class="st4" d="M218.1,214.6c-11.4,6.5-29.7,6.4-41-0.1l-20.5-11.8c-5.7-3.3-8.5-7.6-8.5-11.9v3.5c0,4.3,2.8,8.6,8.5,11.9
				L177,218c11.3,6.6,29.7,6.6,41,0.1c5.7-3.2,8.5-7.5,8.5-11.8v-3.5C226.6,207.1,223.7,211.4,218.1,214.6z"/>
			<path class="st16" d="M148.1,162.7v-20.1l58.1,0.2v20.1l0,0c0,4.3-2.9,8.6-8.5,11.8c-11.4,6.5-29.7,6.5-41-0.1
				C150.9,171.3,148,167,148.1,162.7z"/>
			<path class="st4" d="M206.1,142.8l-58.1-0.2c0,0,0,0.2,0,4.5s2.8,8.6,8.5,11.9c11.3,6.6,29.7,6.6,41.1,0.1
				c5.7-3.2,8.5-7.5,8.5-11.8S206.1,142.8,206.1,142.8z"/>
			<path class="st4" d="M197.7,130.9c-11.3-6.6-29.7-6.6-41.1-0.1c-11.4,6.5-11.4,17.1-0.1,23.7s29.7,6.6,41.1,0.1
				S209,137.5,197.7,130.9z"/>
			<path class="st8" d="M197.7,130.9c-11.3-6.6-29.7-6.6-41.1-0.1c-11.4,6.5-11.4,17.1-0.1,23.7s29.7,6.6,41.1,0.1
				S209,137.5,197.7,130.9z"/>
			<path class="st16" d="M164.5,141v-36.1l25.1,0.1v36l0,0c0,1.9-1.2,3.7-3.7,5.1c-4.9,2.8-12.9,2.8-17.7-0.1
				C165.7,144.7,164.5,142.8,164.5,141z"/>
			<path class="st4" d="M189.6,105l-25.1-0.1c0,0,0,3.4,0,5.3s1.2,3.7,3.7,5.1c4.9,2.8,12.8,2.9,17.7,0.1c2.5-1.4,3.7-3.2,3.7-5.1
				S189.6,105,189.6,105z"/>
			<path class="st4" d="M186,99.8c-4.9-2.8-12.8-2.9-17.7,0s-4.9,7.4,0,10.2s12.8,2.9,17.7,0.1S190.9,102.7,186,99.8z"/>
			<path class="st19" d="M186,99.8c-4.9-2.8-12.8-2.9-17.7,0s-4.9,7.4,0,10.2s12.8,2.9,17.7,0.1S190.9,102.7,186,99.8z"/>
			<path class="st15" d="M183.5,101.3c-4-2-8.8-2-12.8,0c-3.5,2-3.5,5.3,0,7.4c4,2,8.8,2,12.8,0C187,106.6,187,103.3,183.5,101.3z"
				/>
			<path class="st14" d="M170.7,106.4c-0.5,0.3-1,0.7-1.4,1.1c0.4,0.4,0.9,0.8,1.4,1.1c4,2,8.8,2,12.8,0c0.5-0.3,1-0.7,1.4-1.1
				c-0.4-0.4-0.9-0.8-1.4-1.1C179.5,104.4,174.7,104.4,170.7,106.4z"/>
			<path class="st0" d="M174.2,106.9c0.1,0.5-0.4,1-1,1.2s-1.3-0.1-1.4-0.6s0.4-1,1-1.2C173.4,106.1,174,106.4,174.2,106.9z"/>
			<path class="st0" d="M175.8,106.4c0,0.3-0.1,0.5-0.4,0.6c-0.3,0.1-0.5-0.1-0.6-0.4s0.1-0.5,0.4-0.6
				C175.5,105.9,175.8,106.1,175.8,106.4L175.8,106.4z"/>
			<path class="st4" d="M141,147.7c1.7-1.1,4.2-1,6.9,0.6c1.5,0.9,2.9,2.1,4.1,3.4c0.3,0.3,0.6,0.7,0.9,1c0,0,0,0,0,0.1
				c1.6,2,2.8,4.3,3.6,6.7c0.6,1.7,0.9,3.5,0.9,5.3c0,3-1,5.1-2.7,6.1l-3.2,1.8c0.5-0.3,0.9-0.7,1.3-1.2c1-1.4,1.5-3.2,1.4-4.9
				c0-6.1-4.3-13.5-9.5-16.5c-1.5-1-3.2-1.4-5-1.2c-0.6,0.1-1.3,0.3-1.8,0.6l0,0L141,147.7z"/>
			<path class="st5" d="M141,147.7c1.7-1.1,4.2-1,6.9,0.6c1.5,0.9,2.9,2.1,4.1,3.4c0.3,0.3,0.6,0.7,0.9,1c0,0,0,0,0,0.1
				c1.6,2,2.8,4.3,3.6,6.7c0.6,1.7,0.9,3.5,0.9,5.3c0,3-1,5.1-2.7,6.1l-3.2,1.8c0.5-0.3,0.9-0.7,1.3-1.2c1-1.4,1.5-3.2,1.4-4.9
				c0-6.1-4.3-13.5-9.5-16.5c-1.5-1-3.2-1.4-5-1.2c-0.6,0.1-1.3,0.3-1.8,0.6l0,0L141,147.7z"/>
			<path class="st4" d="M137.8,149.5c0.6-0.3,1.2-0.6,1.8-0.6c1.8-0.1,3.5,0.3,5,1.2c5.2,3,9.5,10.4,9.5,16.5
				c0.1,1.7-0.4,3.5-1.4,4.9c-0.3,0.5-0.8,0.9-1.3,1.2l-0.1,0.1c-0.8,0.4-1.7,0.7-2.6,0.6c-1.4-0.1-2.8-0.5-4.1-1.3
				c-5.3-3-9.5-10.4-9.5-16.5C135.1,152.7,136.1,150.6,137.8,149.5z"/>
			<path class="st17" d="M137.8,149.5c0.6-0.3,1.2-0.6,1.8-0.6c1.8-0.1,3.5,0.3,5,1.2c5.2,3,9.5,10.4,9.5,16.5
				c0.1,1.7-0.4,3.5-1.4,4.9c-0.3,0.5-0.8,0.9-1.3,1.2l-0.1,0.1c-0.8,0.4-1.7,0.7-2.6,0.6c-1.4-0.1-2.8-0.5-4.1-1.3
				c-5.3-3-9.5-10.4-9.5-16.5C135.1,152.7,136.1,150.6,137.8,149.5z"/>
			<path class="st14" d="M144.6,156.7c-2.1-1.2-3.8-0.2-3.8,2.2c0.1,2.7,1.6,5.2,3.8,6.6c2.1,1.2,3.8,0.2,3.8-2.2
				C148.3,160.7,146.9,158.2,144.6,156.7z"/>
		</g>
	</g>
</g>
<g id="freepik--speech-bubble--inject-24">
	<path class="st2" d="M330,99.1c-3.7,33.7-34,58.1-67.7,54.4s-58.1-34-54.4-67.7c3.7-33.7,34-58.1,67.7-54.4S333.6,65.4,330,99.1z"
		/>
	<path class="st14" d="M226.1,43.1c-27.8,22.3-32.2,62.9-10,90.7c15.8,19.7,41.7,28.4,66.3,22.1c0.1-0.1,0.1,0,0.1,0l8.8,9.8
		c0.9,1.1,2.5,1.1,3.5,0.2c0.5-0.5,0.8-1.1,0.8-1.8l0.1-13.2l0,0c31.7-16.2,44.3-55.1,28.1-86.8C307.7,32.4,268.8,19.7,237,36
		C233.2,37.9,229.5,40.3,226.1,43.1z M305,141.2c-26.4,21.2-65.1,17-86.3-9.4s-17-65.1,9.4-86.3c26.4-21.2,65.1-17,86.3,9.4
		C335.6,81.4,331.4,120,305,141.2z"/>
</g>
<g id="freepik--character-3--inject-24">
	<g id="freepik--Character--inject-24">
		<g id="freepik--Bottom--inject-24">
			<path class="st21" d="M444.1,390.3c-1-12.9,0-18.4-1.2-38.5l0,0c-0.1-5.2-0.4-10.7-0.7-15.6c-1.3-16.6-4-22.2-4.2-25.4
				c0,0,0.1-19.9-1.2-56.1c-0.6-17.1-5.8-22.2-9.9-31.2l-51.2,0.2c-2.8,22.6-2.9,64.5-2.6,87.5c0.1,11.7,4.9,68.8,5,70.2
				c0.4,5.1-0.1,7.1-2.1,9.3c-4.3,4.5-10.5,8.9-15.9,12.8c0.8,2,7.7,3.2,10.9,1.7c4.2-2.2,8.2-4.7,12-7.5
				c4.4-3.2,10.1-5.8,10.1-10.7c0-0.3,0.1-0.6,0.1-0.9c0.1-2.9,6.7-40.4,7.2-50.2c0.4-8.4-0.7-22.6-0.7-22.6l4.8-28.9
				c0,0,2.8,15.1,6.4,29.4c2.9,11.6,8,27,11.3,41.4l0,0c3.1,16.5,7.7,28.3,8.5,36.5c0.2,2,2.7,21.4,3.6,25.8s10.9,4.5,11.5-3.1
				C446.2,409.1,444.3,392.7,444.1,390.3z"/>
			<path class="st15" d="M351.1,409.8c-0.3,0-0.7,3,0.8,4.2c1.7,1.5,6.8,3.9,13.5,3.1s10.3-2.8,13-5s6.5-5.2,9.5-5.9
				c2.8-0.6,5.9-1.8,6.8-2.6s0.8-4.6,0.8-4.6L351.1,409.8z"/>
			<path class="st16" d="M393.3,384.5c0,0,0.5,0,0.7,0.9c0.2,1,0.4,4.1,0.9,5.8c0.7,3,0.9,6.1,0.6,9.1c-0.4,1.9-5,3.2-7.9,4.3
				c-3.4,1.4-6.7,3.4-9.5,5.8c-4.2,2.9-9.1,4.7-14.2,5c-6.7,0-11-1.7-12.3-4.1c-1.6-2.9-0.7-5.9,7-9.3c1.5-0.6,6.6-3.5,8.3-4.6
				c1.8-1.1,3.6-2.4,5.2-3.7c0.8-0.7,1.6-1.4,2.4-2.2c0.8-0.7,1.4-1.5,2-2.4c0.1-0.2,0.1-0.4,0.2-0.6c0.2-0.6,0.4-1.2,0.5-1.8
				c0.1-0.6,0.2-1.5,0.8-1.9c1.1-0.6,2.6,0.1,3.7,0.4s2,0.6,3,1s1.9,0.5,2.5,1.4c0.4,0.8,0.7,1.8,0.6,2.7c0,0.4,0,0.9,0,1.3
				c0,0.2-0.1,0.5,0.2,0.4s0.5-0.7,0.6-0.9c0.2-0.5,0.4-1,0.6-1.5c0.3-0.6,0.6-1.1,1-1.6c0.4-0.4,0.8-0.8,1.2-1.2
				c0.5-0.2,0.9-0.5,1.3-0.8C393,385.6,393.2,385.1,393.3,384.5z"/>
			<path class="st0" d="M357.2,402.6c9.6,0.7,13,7.8,13.5,11.4c-2.2,0.8-4.5,1.3-6.9,1.4c-6.7,0-11.2-1.7-12.6-4.1
				C349.7,408.6,350.4,405.1,357.2,402.6z"/>
			<path class="st3" d="M372.1,404.1c0.1,0,0.2,0,0.3-0.1c0.2-0.2,0.2-0.4,0.1-0.6l0,0c-1.3-1.6-5.6-5.1-9.1-4.7
				c-0.3,0-0.4,0.2-0.4,0.5s0.3,0.4,0.5,0.4l0,0c3.3-0.3,7.2,3.1,8.3,4.4C371.8,404.1,371.9,404.1,372.1,404.1z"/>
			<path class="st3" d="M376.2,401.8c0.1,0,0.2,0,0.3-0.1c0.2-0.2,0.2-0.4,0.1-0.6l0,0c-1.3-1.6-5.6-5.1-9.1-4.7
				c-0.3,0-0.4,0.2-0.4,0.5s0.3,0.4,0.5,0.4l0,0c3.3-0.3,7.2,3.1,8.3,4.4C376,401.7,376.1,401.8,376.2,401.8z"/>
			<path class="st3" d="M380.1,399.1c0.1,0,0.2,0,0.3-0.1c0.2-0.2,0.2-0.4,0.1-0.6l0,0c-1.3-1.6-5.6-5.1-9.1-4.7
				c-0.3,0-0.4,0.3-0.4,0.5s0.3,0.4,0.5,0.4c3.3-0.3,7.2,3.1,8.3,4.4C379.8,399.1,380,399.1,380.1,399.1z"/>
			<path class="st3" d="M383.9,396.5c0.1,0,0.2,0,0.3-0.1c0.2-0.1,0.2-0.4,0.1-0.6l0,0c-1.8-2.3-6.4-5.1-9.9-4.8
				c-0.3,0-0.4,0.2-0.4,0.5l0,0c0,0.3,0.3,0.4,0.5,0.4c3.2-0.3,7.4,2.4,9.1,4.4C383.6,396.4,383.8,396.5,383.9,396.5z"/>
			<path class="st15" d="M431.2,420.8c0.3,4.4,1,7.4,2.6,10s4.7,3.4,7.8,2.6s7-2.8,7.9-6.6s1.4-6.4,0.6-10.5L431.2,420.8z"/>
			<path class="st16" d="M444,388.7c1.3,0.1,1.7,6,2.5,12c0.8,6.4,2.8,9,3.5,14.2c0.8,6-0.2,8.6-2.3,12.3s-9.7,7.2-13.5,2
				c-3.1-4.2-3.2-8.9-3-14.9c0.1-5,0-10.1-0.5-15.1c-0.3-4.5-1.3-9-0.2-9.5c0.1,0.7,0.2,1.5,0.3,2.1c0.1,0.8,0.2,1.6,0.4,2.4
				c0.1,0.3,0.4,0.7,0.5,0.1c0.1-0.4,0.1-0.7,0-1.1c-0.2-1.6,0.7-1.8,1.1-1.9c1.9-0.4,3.9-0.7,5.9-0.8c1-0.1,4.3-0.2,4.8,0.3
				c0.3,0.5,0.4,1.1,0.4,1.7c0.1,0.9,0.3,1.6,0.4,1.3c0.1-0.6-0.1-2.3-0.1-2.7s-0.1-0.9-0.1-1.3S444,389.1,444,388.7z"/>
			<path class="st0" d="M450.3,418.4c0.3,3.2-0.6,6.4-2.3,9.1c-2.1,3.6-10.4,7.2-14.1,2c-1.9-2.6-2.4-5.6-2.7-8.7
				C433.4,416.8,446.8,415,450.3,418.4z"/>
			<path class="st3" d="M433.9,414.3h0.2c0,0,5.9-2.4,11.7-1.2c0.2,0.1,0.5-0.1,0.6-0.3l0,0c0.1-0.2-0.1-0.5-0.3-0.5l0,0
				c-4.1-0.7-8.4-0.3-12.3,1.2c-0.2,0.1-0.3,0.4-0.2,0.6l0,0C433.5,414.2,433.7,414.3,433.9,414.3z"/>
			<path class="st3" d="M445.4,408.6c0.3,0,0.4-0.3,0.4-0.5s-0.1-0.3-0.3-0.4c-5.7-1.9-12,1-12.3,1.1c-0.2,0.1-0.3,0.4-0.2,0.6l0,0
				c0.1,0.2,0.4,0.3,0.6,0.2l0,0c0,0,6.2-2.8,11.5-1C445.3,408.6,445.4,408.6,445.4,408.6z"/>
			<path class="st3" d="M445.2,404.4c0.3,0,0.4-0.3,0.4-0.5s-0.1-0.3-0.3-0.4c-6.3-2.2-12.3,1-12.5,1.1s-0.3,0.4-0.2,0.6l0,0
				c0.1,0.2,0.4,0.3,0.6,0.2c0,0,5.8-3,11.7-1C445.1,404.4,445.1,404.4,445.2,404.4z"/>
			<path class="st12" d="M444.9,400.3c0.2,0,0.3-0.1,0.4-0.3c0.1-0.2,0-0.5-0.3-0.6c-5.9-2.1-12.3,1.1-12.6,1.2
				c-0.2,0.1-0.3,0.4-0.2,0.6l0,0c0.1,0.2,0.4,0.3,0.6,0.2c0.1,0,6.3-3.1,11.8-1.1C444.7,400.3,444.8,400.3,444.9,400.3z"/>
			<path class="st16" d="M430.4,223.5c5.8,10.1,7.8,18.4,8.6,48.6s0,32.7,0.1,36.3s2.4,10.1,4.4,28c1.2,11.6,1.3,23.2,0.2,34.8
				c0,0-1.3,2.9-8.3,3.5c-6.5,0.6-9.7-1.8-9.7-1.8s-9.5-30.3-12-41.1s-9.2-40.3-9.2-40.3l-3.5,22.1c0,0,2,9.9,0.2,25.6
				c-1.1,9.1-2.7,18.2-4.8,27.1c-3.4,1.2-6.9,1.8-10.5,1.9c-3.4,0-6.7-0.9-9.7-2.6c0,0-4.8-41.9-4.9-59.7s1.6-60.7,3.2-82
				L430.4,223.5z"/>
			<path class="st15" d="M437.6,322.2c-0.2-1-0.5-2-0.7-3c-1.8-8.3-1.1-13.3-1.2-27.1c0-4.2,0-8.5-0.1-13.1
				c-0.3-18-1.8-38.1-11.2-51l-0.7,0.5c6.3,8.7,9,20.7,10.2,33.2c-9.3-1.2-11.4-10.1-14.2-22.3c-0.4-1.7-0.8-3.4-1.2-5.2l-0.9,0.2
				c0.4,1.8,0.8,3.5,1.2,5.2c2.8,12.2,5.1,21.9,15.2,23c0.5,5.5,0.7,11,0.8,16.4c0.1,4.6,0.1,8.9,0.1,13c0.1,13.9-0.6,18.9,1.2,27.3
				c0.2,0.9,0.4,1.9,0.7,3c2.5,10.8,6.5,22.4,4.9,50.6c0.3-0.2,0.7-0.4,1-0.6C444.1,344.5,440,333,437.6,322.2z M382.3,253.4
				c1.3,5.9,8.4,9.2,12.9,10.2l0.9,3.8c-0.2,3.2-0.4,6.6-0.6,10c-1.2,19.1-1.9,32.3-0.9,36.8c2.7,11.8,2,19.2,0.6,32.8
				c-0.1,1.4-0.3,2.8-0.4,4.4c-0.8,7.9-1.7,11.1-2.2,16.1l1-0.2c0.6-5,1.5-8.1,2.2-15.8c0.1-1.5,0.3-3,0.4-4.4
				c1.4-13.6,2.1-21.1-0.7-33c-1-4.3-0.3-18.3,0.9-36.5c0.1-2.2,0.3-4.4,0.4-6.5l4.1,21.2l0.2,21.3l3.5-22.1l-6-31.5
				C392.4,260,386.7,257.6,382.3,253.4L382.3,253.4z"/>
		</g>
		<g id="freepik--Top--inject-24">
			<path class="st21" d="M341.3,186c-0.8-0.5-7.8-5.3-11.3-7.2c-5.3-2.8-11.2-4.4-17.2-4.8l-2.8-0.1c-0.5,0-0.9-0.1-1.4-0.1
				c-0.7,0-0.9,0-1,0.4s-0.1,0.8,0,1.1c0.4,1.2,2.2,2,3.4,2.4s2.6,0.7,3.9,1c1,0.3,0.1,0.9-0.4,1.2c-2.3,1.3-7.5,1.6-10.1,1.5
				c-1.7-0.2-3.4-0.3-5.1-0.2c-1.1,0.1-2.1,0.5-2.9,1.2c-0.5,0.5-0.9,1.1-0.2,1.7c0.5,0.3,1,0.5,1.5,0.6c1.1,0.1,2.1,0.7,2.7,1.7
				c0.3,0.7,0.7,1.4,1.2,2c0.7,0.7,1.7,0.9,2.5,1.6s0.9,1.4,1.5,2c0.8,0.6,1.8,1,2.7,1.2c2,0.6,4,0.9,6.1,1c2.3,0.2,4.7,0.1,7-0.4
				c1.7-0.3,3.8-1.2,6.2,0.4c2.1,1.5,4.2,3.2,6.1,4.9C338.7,196.5,341.9,192.4,341.3,186z"/>
			<path class="st22" d="M317.1,182.1c2.4,2.1,5.4,3.5,8.6,3.9c-1.6,0.6-3.3,0.6-4.9,0C319.1,185.3,317.8,183.9,317.1,182.1z"/>
			<path class="st16" d="M382.1,159.9c-4,0.9-6.3,1-12.6,10.7c-5.2,8-14.7,22.6-14.7,22.6l-15.2-8.6c0,0-0.3,9.7-7.7,13.1
				c4.4,4.5,9,8.7,13.9,12.7c7.4,5.9,10,7.5,13.3,7.2c4.1-0.4,23.5-23.8,23.5-23.8L382.1,159.9z"/>
			<g id="freepik--top--inject-24">
				<path id="freepik--Chest--inject-24" class="st14" d="M415.5,157l16.5,2.9c0,0,3.9,10.9,3.7,36.5c0,3.8-1.5,15.9-1.5,23.8
					c0,4.5,1.5,11.4,2.5,18.6c0,0-10.7,9.3-36.7,8.6c-20.4-0.6-26.8-9.2-26.8-9.2s0.3-28.5,0.1-43.5c-0.2-19.7,4.4-31.1,8.7-34.7
					l13.3-2.8h20.2V157z"/>
				<g id="freepik--Head--inject-24">
					<path class="st15" d="M423,119.3c-0.9-1.7-2.4-3.1-4.2-3.8l0,0c-0.9-4.4-6.6-9.5-17.4-9.8c-8.9-0.2-13.7,3.1-16.9,8.2
						c-3.3,5.3-0.7,11.9-0.7,11.9l26.3-2.4c-0.2,1.4-0.3,2.9-0.1,4.4c0.5,3.9,5,7.8,5,7.8l-0.1,5.5v7.9c1.2-0.4,2.3-1.3,2.9-2.4
						c2.1-3.5,3.6-7.4,4.6-11.4C424.9,124.8,424.1,121.2,423,119.3z"/>
					<path class="st21" d="M422.1,143.1c-4,2.1-6-1.1-6-1.1l0.5,16.2c-7.5,10.7-29.2,7.4-20.8-0.6l-0.1-3.7c-1.2,0-2.4-0.1-3.5-0.2
						c-3.6-0.5-6.2-2.8-7.4-6.6c-1.7-5.7-1.6-18.2-0.8-25.1c0.2-2.1,1.4-4,3.2-5.1c4.3-2.2,8.3,0.7,14.4,2.9
						c2.5,0.9,8.6,1.2,10.1,0.4c-2,2.4-1.8,9.7,1.4,12.6c0.4,0.8,0.9,1.4,1.6,2c1.4,1.1,2.3-1.9,3.4-3.1c1.9-1.7,4.7-1.5,6.4,0.4
						c0.3,0.3,0.5,0.7,0.7,1C427.1,136.7,425.7,141.2,422.1,143.1C422.2,143.1,422.2,143.1,422.1,143.1z"/>
					<path class="st23" d="M395.4,142.6c0.4,0.1,0.7,0.2,1.1,0.3c0.3,0.1,0.7,0.1,1,0.1c0.4,0,0.7-0.1,1.1-0.1
						c0.3-0.1,0.8-0.1,1-0.4c0-0.1,0-0.2-0.1-0.2c-0.2,0-0.4,0-0.6,0s-0.4,0.1-0.5,0.1c-0.3,0-0.7,0.1-1,0.1s-0.7,0-1-0.1
						c-0.4-0.1-0.7-0.2-1-0.2S395.3,142.5,395.4,142.6z"/>
					<path class="st22" d="M395.8,153.9c4.7-0.2,8.9-0.9,11.6-2.1s5.1-5.1,5.8-8.8c0.1,3-1.1,8.4-5.2,10.7s-9.1,2.6-12.2,2.7
						L395.8,153.9z"/>
					<path class="st15" d="M402.7,125.5l-4.2-1c-0.3,1.2,0.5,2.4,1.7,2.7C401.3,127.4,402.4,126.7,402.7,125.5L402.7,125.5z"/>
					<path class="st15" d="M390,124.1l-4,1.9c0.4,1.1,1.6,1.6,2.7,1.2h0.1C390,126.6,390.5,125.3,390,124.1z"/>
					<path class="st15" d="M403,131c0,1-0.9,1.7-1.9,1.7s-1.7-0.9-1.7-1.9s0.9-1.7,1.9-1.7l0,0C402.3,129.2,403,130,403,131z"/>
					<path class="st15" d="M389.9,131.1c0,1-0.9,1.7-1.8,1.7c-1,0-1.7-0.9-1.7-1.8s0.9-1.7,1.8-1.7l0,0
						C389.2,129.3,389.9,130.1,389.9,131.1z"/>
					<path class="st22" d="M395.7,128.7l-0.4,11.3l-6.5-1.9C390.3,134.5,392.7,131.3,395.7,128.7z"/>
				</g>
			</g>
			<path class="st21" d="M406.5,265.3c0.5-1.2,1.3-2.2,2.2-3.1c0,0-2,1.7-2.8,0.8s-0.7-1.9,0.7-3.5c1.8-1.8,3.3-3.8,4.7-5.9
				c0.6-0.9,1-1.9,1.6-2.8c0.6-1,1.2-2,1.6-3c0.1-0.2,0.1-0.4,0-0.6c-0.4-0.4-2.3,1-2.7,1.1c-1,0.6-2.1,0.8-3.2,0.9
				c-0.5,0-1-0.1-1.4-0.4c-0.4-0.3-0.7-0.6-0.9-1.1c-0.4-1,1.1-1.8,1.9-2.2c3.3-1.9,5.8-4.4,9.6-5.4c1.2-0.3,3.2-0.9,3.9-1.9
				c4.3-6.1,14.4-26.9,16.4-31.9l-6.6-21.2c0,0-2.6-17.9,1-24.6c15.5,1.6,18.2,21.5,24.2,42.8c1.1,4,1.4,8.1-2.3,13.6
				c-6,9.1-12.9,17.7-19.3,26.3c-1.9,2.4-3.4,5-4.7,7.7c-2.8,6.4-7.4,11.8-13.3,15.7c-3.2,2.2-3.9,0.6-3.9,0.6
				c-1.9,1.6-3.7,0.7-4.1,0.1c-0.4,0.2-0.8,0.5-1.3,0.6C406.8,268.2,406.2,266.7,406.5,265.3z"/>
			<path class="st22" d="M408.8,262c3.1-2.1,5.6-4.8,7.5-8C413.9,256.9,411.4,259.5,408.8,262z M409.2,267.2
				c4.5-2.9,8.9-6.6,11.3-11.5C417.5,260.2,413.3,263.7,409.2,267.2L409.2,267.2z M422.3,258.6c-2.6,3.2-5.7,6.1-9,8.5
				C417,265.2,420.1,262.2,422.3,258.6L422.3,258.6z"/>
			<path class="st16" d="M432,159.9c9.6,2.2,13.2,2.2,17.9,16.2c3.9,11.6,8,25.6,8.3,28.8c0.6,6.4,0,6.7-2,10.3
				c-3.3,5.8-17.3,23-17.3,23s-0.7-2.7-5.5-5.3s-7.9-1.8-7.9-1.8l12.2-24.5c0,0-5.1-14.4-7-20.8C429,177.4,429.1,164.1,432,159.9z"
				/>
		</g>
	</g>
</g>
<g id="freepik--character-2--inject-24">
	<g id="freepik--character--inject-24">
		<g id="freepik--bottom--inject-24">
			<path class="st15" d="M359.6,353.6c2.6,0.5,4.9,1.8,6.6,3.8c2.4,3.1,7.8,12.3,8.8,13.3c-0.6,1-1.4,1.9-2.4,2.5l-2.9-3.2
				c-0.7-0.6-1-1.2-1,0.7s0.3,3.9,0.3,6.7c0,2.2,0.4,6.5-3.4,10.8c-3.6,4-7.5,6-10.2,6.4c-1.6,0.2-4.4-0.1-4.3-3.4
				c0.1-1.7,0.9-7.3,1.1-10.4S359.6,353.6,359.6,353.6z"/>
			<path class="st21" d="M360.2,354.5c-0.5-0.7-2.2-3.6-3.1-4.9c-3.2-6.3-6-12.7-8.5-19.3c-5.5-14-14.6-24.3-17.4-29.6
				c-3.2-5.7-5.8-11.7-8-17.9l-11.3,7.6l-15-0.3c-0.2,2.2,0.8,5.2,2.4,8.6l0,0v0.1c0.1,0.3,0.3,0.6,0.5,1c3.3,6.5,9,14.5,15.4,22.5
				l0.1,0.2l0.2,0.3c6.1,7.7,12.8,15.6,18.7,22.4V345c6.3,7.3,11.4,13.2,13.2,16.2c5.3,8.7,4.7,17.2,4.7,21.9c0,2.9,2.3,3.5,5.3,0.9
				c3.9-3.1,6.1-7.8,5.9-12.8C364.2,361.3,363.4,358.5,360.2,354.5z"/>
			<path class="st22" d="M323,290.6l-26-0.5c0,0.3,0,0.6,0,0.9v0.4c0,0.2,0,0.4,0.1,0.6s0,0.3,0.1,0.5s0.1,0.4,0.1,0.5
				s0.1,0.4,0.1,0.6s0.1,0.3,0.1,0.5c0,0.1,0,0.1,0,0.1c0.1,0.1,6.6,4.5,18.7,6.6c0,0,0.4,19.4,3.6,27.2l0,0l0,0
				c1.2,1.5,2.4,2.9,3.6,4.4C324.1,320.8,323,290.6,323,290.6z"/>
			<path class="st15" d="M341.2,374.4c1.9,2,3.2,4.5,3.5,7.3c0.4,4.2-0.1,15.7,0.2,17.2c-1,0.6-2.2,0.9-3.4,0.9l-0.6-4.6
				c-0.3-1-0.2-1.7-1.2,0s-1.9,3.7-3.4,6.2c-1.3,2-3.2,6.1-8.8,7.8c-5.2,1.5-9.5,1-12-0.2c-1.5-0.7-3.6-2.7-1.8-5.5
				c1-1.5,4.7-6.1,6.6-8.7S341.2,374.4,341.2,374.4z"/>
			<path class="st21" d="M327,374.2c0.3-11-10.1-61.1-7.3-84.7l29.4-0.4c-1.6,6.8-2.6,13.8-3,20.8c-0.5,6.4,1.6,21.1-1.4,36.9
				c-1.5,7.4-2.6,14.9-3.3,22.4c0,1.7-0.2,5.3-0.1,6.2c0.5,5.4-0.4,8.5-6.3,17.1c-1.1,1.7-3.9,7-11.9,8.1c-3.9,0.5-5.5-1.3-4-4
				C321.6,392.5,326.7,385.2,327,374.2z"/>
			<path class="st22" d="M346.1,310c-0.1,2.5,0.1,5,0.2,7.5s0.2,5,0.3,7.5c0.1,5,0,10-0.5,15c-0.3,2.5-0.7,5-1.1,7.4l-1.4,7.3
				c-0.4,2.4-0.9,4.9-1.2,7.3c-0.4,2.5-0.8,4.9-1,7.4c0.3-5,0.8-10,1.6-14.9c0.7-4.9,1.9-9.8,2.3-14.7c0.3-2.5,0.5-4.9,0.6-7.4
				s0.1-5,0.1-7.5s0-5-0.1-7.5S345.9,312.5,346.1,310z"/>
			<path class="st22" d="M319.3,302.6c-0.2-4.4,0-8.8,0.4-13.1l29.4-0.4c-0.8,3.3-1.4,6.6-1.9,9.9l0,0
				C347.2,299.1,335.9,304.8,319.3,302.6z"/>
			<path class="st14" d="M297.5,241.6c0.7-6.8,1.7-13.5,3.2-20.1c1.2-5.1,2.3-9.5,3-13.4c8.6,5.7,29.8,6.2,39.6-0.2
				c1.6,2.6,9,8.7,11.4,18.3c2.1,8.4,3.8,12.7,3.6,22.6c-0.1,9-4.2,35.6-7.9,47c-10,5.5-45.6,3.3-55.5-6.6
				C295,289.2,296.3,251,297.5,241.6z"/>
		</g>
		<g id="freepik--top--inject-24_00000121960934320372776260000007941716416843324050_">
			<path class="st21" d="M314.5,164.6c-4.6,0.5-10.6,1.4-14.8,10.1c-5.4,11.1-12.8,26.1-13.8,38.9c-0.5,6.7,10.8-1.7,10.8-1.7
				l9.7-16L314.5,164.6z"/>
			<path class="st22" d="M294.3,198.1c1.8-1.9,3.4-4,4.7-6.2c-2.5-6,1.9-12.6,7.1-17l3.8,7.7l-3.4,13.3l-9.7,16
				c0,0-10.4,7.6-10.8,2.4c0-0.2,0-0.5,0-0.8c0.1-1.1,0.2-2.3,0.4-3.4C287.3,204.4,292,200.3,294.3,198.1z"/>
			<g id="freepik--chest--inject-24">
				<path class="st4" d="M303.8,197.3c0.2,2.4-0.9,12.1-0.9,12.1c-1.6,6.5-2.8,13.1-3.7,19.7c10.7,10.5,46.9,9.7,56.2-1
					c-2.3-9.9-3-13.4-3.1-16.2s3-18.6,3-18.6s-8.4-12.5-7.5-26.8c0,0-9.4-3.2-18.1-3.2c-5.1,0-10.1,0.4-15.1,1.1
					c-2.4,2.2-5.7,6.3-9.7,12.1C300,183.7,298,190.8,303.8,197.3z"/>
			</g>
			<path class="st21" d="M317.5,174.7c-1.2,1-2.4,1.8-3.7,2.5c-1.1,0.5-2.1,1.1-3,1.9c-2.1,1.7-3.7,3.8-4.8,6.3
				c-2.4,5.6-5.6,8.9-8.9,12.2s-8.8,6.6-10.5,12.8c-1.1,4.2-0.9,8.6,1.6,10.6c1.1,0.9,6.6-0.6,10.5-4.1c5-4.5,10.5-16.4,12.2-19.3
				c1.3-2.3,3.8-3.6,5.3-5.7c1.5-2.1,2.4-4.6,2.6-7.2c0.1-1.4,0-2.8,0.1-4.2c0.3-1.6,0.5-3.3,0.4-4.9c0-0.3-0.1-0.6-0.2-0.9
				c-0.2-0.3-0.5-0.4-0.8-0.4c-0.2,0-0.3,0.1-0.4,0.2L317.5,174.7z"/>
			<path class="st22" d="M307.9,188c0.3-1.8,0.8-3.6,1.6-5.3c0.4-0.8,1.1-1,1.7-1.6s0.6-1.1,1.1-1.6c0.6-0.4,1.3-0.7,2-0.9
				s1.3-0.7,1.7-1.2c0.4-0.5,1-1,1.6-0.9c0.4,0.1,0.7,0.5,0.8,0.9c0.1,0.4,0.1,0.8,0.1,1.3c-0.2,2.4-0.2,4.9-0.1,7.3
				c0,0.2,0,0.4,0,0.6c-0.4,1.9-1.2,3.8-2.3,5.4c-1.5,2.1-3.9,3.4-5.3,5.7c-0.2,0.4-0.5,1-0.9,1.8c-0.7-1.9-1.2-3.8-1.6-5.7
				C307.9,191.8,307.7,189.9,307.9,188z"/>
			<path class="st21" d="M347.7,166.7c5.6,1.6,11.3,5.2,9.7,16.3c-1.5,10.4-9.3,36-10.9,39.4c-2.6,5.5-6,8.9-9.5,9.7
				c-2.1,0.4-4.2-0.1-5.9-1.4c-7.2-5-13.9-19.9-16.8-26c-1.8-3.6-3.2-7.5-4-11.5c-0.4-1.8-0.6-3.6-0.4-5.4c0.2-1.8,0.8-3.5,1.5-5.1
				c0.4-0.8,1.1-1,1.6-1.5s0.6-1.1,1.1-1.5s1.2-0.7,1.9-0.8c0.6-0.2,1.2-0.6,1.6-1.2c0.4-0.4,1-1,1.5-0.8c0.4,0.1,0.7,0.4,0.8,0.8
				c0.1,0.4,0.1,0.8,0.1,1.2c-0.2,2.3-0.2,4.7-0.1,7c0,1.5,0.3,2.9,1,4.3c0.1,0.3,0.3,0.5,0.6,0.6c0.2,0,0.4,0,0.6-0.1
				s0.3-0.3,0.4-0.5c0.4-0.8,0.8-1.6,1.2-2.4c0.5-1,1.2-1.8,2.2-2.4c0.3-0.2,0.7-0.3,1.1-0.3s0.8,0.2,1,0.6c0.1,0.5,0,1.1-0.3,1.5
				c-0.9,2.2-1.5,4.6-1.9,7c-0.2,1.2-1,2.7-1.3,3.9c-0.4,1.5,1.1,4.2,2,5.6c1.9,3.1,4.1,5.9,6.8,8.3l5.2-20.3c0,0-1-10.8,2.9-18.8
				C343.9,167.5,347.7,166.7,347.7,166.7z"/>
			<path class="st22" d="M333.1,211.8c3.5,1.6,6.4,4.8,7,6.6c0,0,0.4-5.8-6.4-8.9L333.1,211.8z"/>
			<path class="st15" d="M310.8,157.7c-0.5,0.7-0.6,1.6-0.5,2.5c-4-1.1-6.8-4.8-6.7-8.9c0.1-3.2,2-6.1,2.8-9.2
				c0.8-2.7,0.5-5.6-0.8-8.1c-1.2-2.7-3.4-5.5-2.4-8.7c1.7-5.3,7.2-9,12.2-10.9c3.2-1.2,6.6-1.7,10-1.6c6.2,0.1,14.6,2.7,16.8,9.1
				c1.7,0.4,3.2,1.3,4.4,2.5c3.1,3,3,7,3.2,9.4c0.2,3.2,0.1,4.6,0.4,7.7c0.3,1.6,0.7,3.3,1.2,4.8c0.5,1.9,1.5,3.6,1.9,5.5
				c1,5.4-3.5,9.3-8.6,9.7c0.8-1,1.3-2.1,1.5-3.3c-0.5,1-1.2,1.9-2.1,2.6c-0.9,0.7-1.9,1.2-3,1.6c-3.7,1.6-7.8,2.4-11.8,2.3
				c-5.4,0.1-7.8-0.2-11.5-1.3c-1.6-0.5-3.2-1.2-4.5-2.1C311.8,160.4,311,159.1,310.8,157.7z"/>
			<g id="freepik--head--inject-24">
				<path class="st21" d="M337.5,160.1c0-5.7,0.1-8.4,0.1-8.4c0.6,1,4.2,2.7,7.6-0.4c2.7-2.5,3-6.6,0.9-9.5
					c-2.1-2.6-5.6-2.4-7.7,1.1c-0.1,0.2-1.1,0-1.3-0.1c-0.4-0.1-0.7-0.4-0.9-0.7c-0.2-0.4-0.4-0.9-0.4-1.4s0-1.1,0.1-1.6
					c-4-1.4-7.8-3.5-11.1-6.1c-4.3-3.8-6.8-9.6-6.6-10.3c-1.6,0.6-3.1,1.3-4.5,2.3c-1.6,1.3-2.8,2.9-3.6,4.8
					c-0.8,2.1-0.3,3.9-0.4,5.9c-0.1,1.2-0.7,3.7-0.8,5c-0.4,9.2,0.6,13.6,3.9,16.3c2.1,1.6,4.7,2.4,7.3,2.5c0,0,0,0.8,0,2.7
					c0,1.5-0.6,1.5-2.3,1.8c-1.8,2-4.6,9,4.2,10.6c9.2,1.6,17.7-5.3,19.1-9.8C339,164.4,337.5,163.9,337.5,160.1z"/>
				<path class="st23" d="M319.9,149.1c0.3,0.2,0.6,0.4,1,0.4c0.4,0.1,0.8,0.1,1.2,0.1c0.4,0,0.8,0,1.2-0.1c0.4,0,0.8-0.1,1.2-0.3
					c0.2-0.1,0-0.4-0.2-0.4c-0.4,0-0.8,0.1-1.2,0.1c-0.4,0-0.8,0-1.2,0c-0.4,0-0.8,0-1.2-0.1c-0.3-0.1-0.6-0.1-0.9,0
					C319.7,148.9,319.8,149.1,319.9,149.1z"/>
				<path class="st22" d="M320.2,159.5c6.5,0.1,11.7-1.8,14.8-6.1c0,0-0.6,3.4-3.1,5.1c-3.5,2.2-7.6,3.3-11.7,3.2L320.2,159.5z"/>
				<polygon class="st22" points="321.8,134.4 320.8,146.4 315.1,144.1 				"/>
				<path class="st15" d="M312.6,138c0.1,0.9,0.9,1.5,1.8,1.3c0.8-0.1,1.4-0.8,1.3-1.6c-0.1-0.9-0.9-1.5-1.7-1.4
					C313.2,136.4,312.5,137.1,312.6,138L312.6,138z"/>
				<path class="st15" d="M324.5,138.2c0.1,0.9,0.9,1.5,1.7,1.4c0.9-0.1,1.5-0.9,1.4-1.7c-0.1-0.9-0.9-1.5-1.7-1.4
					C325,136.6,324.4,137.3,324.5,138.2z"/>
				<path class="st15" d="M316.2,130.1l-3.9,2c0.5,1.1,1.7,1.5,2.8,1h0.1C316.3,132.5,316.8,131.2,316.2,130.1z"/>
				<path class="st15" d="M325.6,131l4.1,1.6c-0.4,1.1-1.6,1.7-2.7,1.3h-0.1C325.8,133.4,325.2,132.2,325.6,131z"/>
			</g>
		</g>
	</g>
</g>
<g id="freepik--character-1--inject-24">
	<g id="freepik--character--inject-24_00000139264353078315148570000017799847643155848836_">
		<g id="freepik--bottom--inject-24_00000091713518564238779700000004716268141798372496_">
			<g id="freepik--bottom--inject-24_00000112630956610471925800000003909415945334920338_">
				<polygon class="st15" points="101.3,405.4 104.9,403.7 101.3,402.7 				"/>
				<path class="st15" d="M136.8,412.2c0,0-42.2-19.1-42.7-16.3c-0.1,0.6-0.1,1.1,0,1.7l-0.1-0.1l0.8,5.3c1.9,1.5,4.2,2.5,6.6,2.8
					c0-0.3,0-1.8,0.1-2.7c1.3,0.5,2.5,1.2,3.7,2c2.7,1.8,4.4,4.9,7.3,8.5c2.1,2.6,5.8,3.9,11.3,4.7c6,0.9,11.2-0.2,12.7-1.8
					C137.6,414.8,137,412.5,136.8,412.2z"/>
				<path class="st24" d="M135.6,411.2c-1.2-1.4-2.6-2.7-3.9-3.9c-1.9-1.8-4-3.6-6.1-5.2c-1.1-0.7-2.1-1.6-3-2.5
					c-0.7-0.8-1.4-1.6-2.1-2.5c-2-2.7-3.7-5.5-5-8.6c-0.8-1.4-1.4-2.9-1.8-4.5c-0.3-1.6-0.5-3.3-0.5-5c0-7.5,0.2-8.7,0.2-14.5
					L95.5,365c0.6,3.2,1.4,7.5,1.7,11.1c0.4,5.5,0.6,6.7-1.6,12.2c-0.8,1.6-1.7,3.2-1.8,4.9c-0.2,2.8,2.1,5.3,4.6,6.6
					c2.1,1.1,4.4,1.7,6.4,2.9c2,1.4,3.8,3.1,5.2,5.1c1.4,1.8,2.5,3.9,4.5,5.2c2.1,1.2,4.5,2.1,6.9,2.4c3,0.6,6.2,0.7,9.2,0.5
					C135.3,415.8,138.6,414.3,135.6,411.2z"/>
				<path class="st16" d="M133.2,408.1c-1.8-1.5-4.4-3.7-7.5-6.2c-2.2-0.8-4.6-0.6-6.6,0.5c-6.3,3.2-7.4,7.8-7.4,7.8
					c1.1,2.1,2.9,3.7,5.1,4.5c7.2,3.2,20.2,2.3,20.4-1C137.3,411.6,135.4,409.9,133.2,408.1z M96.1,387.2c0,0-0.4,1.1-1.6,3.2
					c-1.2,1.9-1.2,4.4,0,6.4c1.4,2.2,3.7,3.8,6.3,4.3C103,394.9,98.6,388.6,96.1,387.2z"/>
				<path class="st15" d="M61.7,392.9c1.2,1.9-0.3,9,0,14.1c0.3,4.6,1.5,12.6,0.1,17.2c-1.6,5.4-5,11.6-11.3,6.5
					c-3.9-3.1-6.2-7.2-6.7-13.8c-0.4-4.6,1.4-11,3-16.6c1.8-6.6,2.5-10.1,2.5-10.1L61.7,392.9z"/>
				<path class="st24" d="M49,358.8c-0.5,10.8,0.8,18.3,0.9,25.2c0,3.1-0.4,6.2-1,9.3c-0.9,4.4-2.5,10.5-3.1,13.4
					c-0.9,4-1.6,6.5-0.2,10.9c0.1,0.3,0.3,0.7,0.5,1c2,3.7,6.9,6.5,8.5,6c0.7,0.8,1.8,1.2,2.8,1c0.2,0,0.4-0.1,0.5-0.1
					c0.2-0.1,0.4-0.1,0.5-0.2c1.3-0.7,2.3-1.9,2.7-3.4c0.1-0.3,0.2-0.7,0.3-1c0.7-3.8,0.9-7.6,0.5-11.4c0-3,0-5.9,0.2-9.9
					s0.9-16.4,2.3-22.4c1.1-4.2,2.4-9.5,3.8-15.2L49,358.8z"/>
				<path class="st16" d="M44.8,411.8c3.9-1.7,15.3-1.9,17.1,3.5c0,5.1,0.1,8.6-3.2,13c-4.4,5.9-10.1-0.4-12.3-4.3
					S44.3,414.5,44.8,411.8z"/>
				<path class="st14" d="M63.9,218.4c-5.5,9.7-10,18-11.5,43.7c-1.6,29.1-1.4,40.1-1.5,43.6s-2.5,9.9-4.4,27.2s0.1,59.1,0.1,59.1
					s1.4,2.8,8.1,3.5c6.2,0.6,9.8-1.5,9.8-1.5s9.9-55,12.3-65.4s9.5-44.6,9.5-44.6l2.3,32.6c0,0-2,9.5-0.2,24.7s6.3,43.8,6.3,43.8
					s2.6,2.6,10.8,2.5c8.6-0.2,10.4-2.5,10.4-2.5s1.9-61.7,2.1-78.8s1.1-61.8-4.1-87.3L63.9,218.4z"/>
				<path class="st16" d="M92.2,251l-5.8,33l2.3,32.6v-33l5.2-27.1c4.2-1,13.9-5.9,16.6-12.9C103.9,250.3,92.2,251,92.2,251z
					 M72.6,231.6c0.8-2.8,1.6-5.5,2.5-8.3c-1.6,2.5-2.9,5.1-3.9,7.9c-1,2.7-1.9,5.5-2.6,8.3s-1.2,5.7-1.6,8.5
					c-0.4,2.9-0.7,5.8-0.7,8.7c0.7-2.8,1.4-5.6,2.1-8.4s1.3-5.6,2-8.4S71.8,234.4,72.6,231.6z M68.4,229.5c1-1.7,1.9-3.4,2.8-5.2
					c-1.5,1.3-2.8,2.8-4,4.4c-1.2,1.6-2.3,3.2-3.3,4.9c-1,1.7-1.8,3.5-2.5,5.4c-0.7,1.8-1.2,3.8-1.4,5.8l2.7-5.2
					c0.9-1.7,1.8-3.4,2.8-5.1S67.4,231.2,68.4,229.5z M64.1,339.7c-1.7,8.9-3.3,17.9-4.8,26.9c2.2-8.8,4.2-17.7,6.2-26.6
					s3.8-17.8,5.7-26.7s2.9-18,3.9-27s1.7-18.1,2.3-27.2c-1.3,9-2.6,18-3.8,27s-2.5,18-4.3,26.9S65.7,330.8,64.1,339.7z
					 M110.3,295.5c0.2,3.9,0.4,7.9,0.3,11.8s0.1,11.4-0.2,15.4c0,0-0.2,23.2,0.5,32c1-7.9,1.2-39.4,1.6-47.4c0-8-0.6-15.9-1.3-23.8
					s-1.6-15.8-2.8-23.6l1.3,23.7C109.9,287.6,110.2,291.5,110.3,295.5z"/>
			</g>
		</g>
		<g id="freepik--top--inject-24_00000002358934208588093360000011649663646928223150_">
			<path class="st22" d="M69.2,127.7c-0.6,0.5-1.3,1-2,1.3c-1,0.3-2.1-0.3-3.2-0.4c-1.9-0.3-3.8,0.8-4.5,2.6c-0.3,0.8-0.6,3-2,2.7
				c-0.5-0.1-0.9-0.7-0.7-1.2c0-0.1,0-0.2,0.1-0.2c-1,0.9-1.3,2.3-0.7,3.5c-1-1-2.7-1-3.7,0c-0.3,0.3-0.5,0.7-0.7,1.1
				c0.6-0.1,1.2,0.3,1.5,0.9c0.4,1.2-0.5,1.8-1.2,2.5c-1.3,1.4-1.3,3.4-0.2,4.9c0.3,0.3,0.6,0.6,0.8,1c0.4,0.9-0.1,1.9-0.4,2.8
				c-0.6,1.2-0.8,2.5-0.6,3.9c0.2,1.3,1.2,2.4,2.4,2.9c1,0.3,2.2,0,3.1,0.6c0.8,0.6,1,1.7,0.4,2.5c-0.4,0.6-1.2,0.9-2,0.7
				c0.2,1.2,1.3,2,2.5,1.8c0.8-0.1,1.5-0.7,1.7-1.5c0.3,0.9,0.8,1.7,1.5,2.3c0.7,0.7,1.8,0.9,2.6,0.4c0.6-0.4,1.2-0.7,1.9-0.8
				c1-0.2,1.5,0.4,2.3,0.9c0.3,0.3,0.6,0.5,1,0.7c1.1,0.5,2.3,0.2,3.2-0.6c-0.8-0.1-1.4-0.7-1.7-1.4c1,0.3,2,0.1,2.8-0.5
				c1.2-0.9,1.5-2.4,2.7-3.4c0.4-0.4,1-0.6,1.5-0.9c1.4-0.8,2.2-2.3,2.3-3.9c0-1.6-1-3-1-4.6c0-1.9,1.1-3.6,1.1-5.5
				c0-3.1-3.1-5.6-2.7-8.6c0.4-2.7-0.3-3.4-2.3-4.9C73.2,127.9,71.6,126.1,69.2,127.7z"/>
			<path class="st22" d="M67.4,121.1c-0.1,0.4-1.2,1.1-1.5,1.5c-0.7,0.7-1.3,1.4-1.8,2.2c-1,1.7-1.5,3.7-1.5,5.7
				c0,3.1,0.9,6.1,2.5,8.8s3.3,5.2,5.3,7.5l5,6.2c0.3,0.5,0.8,0.9,1.3,1.1c0.5,0.1,1,0.1,1.5,0c2.6-0.4,5.2-0.8,7.8-1.3
				c2.4-0.4,4.7-1,7-1.8c3.8-1.5,7-4.1,9.2-7.5c1-1.5,2.4-3.7,2.6-5.6c0.1-0.9-0.3-1.6-0.1-2.4c0.3-1.1,1.1-2,1.6-3.1
				c1.2-2.4,1.7-5.1,1.6-7.7c-0.5-5.5-3.9-12.6-14-14.7C85.6,108.4,69.5,110.2,67.4,121.1z"/>
			<path class="st24" d="M193.4,175.7c-0.9-0.5-2-0.7-3-0.6c-1.6,0.3-3.2,0.7-4.8,1.1c-1.6,0.4-3.3,0.7-5,0.9
				c-1.6,0.1-3.1,0-4.6-0.3c-0.1,0-0.3-0.1-0.4-0.1c-0.1-0.1-0.2-0.2-0.1-0.4c0.1-0.4,1.5-0.9,1.9-1.1c0.7-0.3,1.4-0.7,2.1-1.2
				c1-0.7,1.7-1.8,1.9-3c0-0.4,0-1.1-0.6-1.1c-0.7,0-1.3,0.1-2,0.2l-2.7,0.7c-5.2,1.4-10.4,3.1-14.3,6.9c-2.3,1.8-4.5,3.8-6.6,5.9
				c-3,2.7-21.2,12.1-21.2,12.1s-9.9-14.2-13.3-19c-3.9-5.9-10-10.1-17-11.6l7.5,29.8c0,0,11.9,13.5,13.9,15.9c3,3.6,7.6,3.8,12,1.4
				c5.5-2.9,10.7-6.4,15.5-10.4c7.7-6.1,10-7.8,12.2-9.4s5.6-1.6,7.2-1.7c2.3,0,4.5-0.3,6.7-0.9c1.9-0.5,3.8-1.2,5.5-2.1
				c0.9-0.4,1.7-0.9,2.4-1.6c0.3-0.7,0.6-1.4,1-2.1c0.6-0.7,1.5-1.1,2-1.9c0.3-0.6,0.6-1.3,0.7-2c0.4-1.1,1.2-1.6,2.2-2.1
				c0.5-0.2,1-0.5,1.3-0.9C194.4,176.5,194,176,193.4,175.7z"/>
			<path class="st12" d="M101.6,163.6c6.1,1.9,10.1,1.6,15.4,7.7s18.3,23,18.3,23l16.5-8.7c0,0-0.3,2.8,2.5,7.3c2.2,3.6,4.7,4,4.7,4
				s-13.2,12-18.6,15s-9.2,3.4-11.2,2.8s-4-2.6-10.6-9.4c-6.1-6.3-14.6-16.8-14.6-16.8L101.6,163.6z"/>
			<path class="st25" d="M174.3,177.6c-1.6,2.7-4.3,4.6-7.4,5.3c1.6,0.2,3.3-0.1,4.6-0.9C173,181,174,179.4,174.3,177.6z"/>
			<path id="freepik--chest--inject-24_00000183240136181183501780000005788193854373415869_" class="st4" d="M57.6,231.7
				c-3.2-2.6-0.5-6.2,0.6-22.2c0.3-4.1-1.1-14.3-1.1-14.3s6.1-8.9,3.6-28.8l13.9-4l19.2,0.1l7.5,2.2c2.5,2.2,7.2,5.8,10.9,11.1
				c5.3,7.8,6.2,16.2,0.4,22.3c-0.1,1.2,1.2,15.4,1.8,20.2c0.7,6.6,3.3,9.8-0.6,13.1C102.6,241,72.9,241.7,57.6,231.7z"/>
			<path id="freepik--chest--inject-24_00000009556363902619895350000013787971857514594486_" class="st17" d="M57.6,231.7
				c-3.2-2.6-0.5-6.2,0.6-22.2c0.3-4.1-1.1-14.3-1.1-14.3s6.1-8.9,3.6-28.8l13.9-4l19.2,0.1l7.5,2.2c2.5,2.2,7.2,5.8,10.9,11.1
				c5.3,7.8,6.2,16.2,0.4,22.3c-0.1,1.2,1.2,15.4,1.8,20.2c0.7,6.6,3.3,9.8-0.6,13.1C102.6,241,72.9,241.7,57.6,231.7z"/>
			<g id="freepik--head--inject-24_00000056403297603819272120000001712338872829655222_">
				<g id="freepik--head--inject-24_00000147185358583776240560000008313721862122325170_">
					<g id="freepik--head--inject-24_00000160897008416526490810000011048515576073208995_">
						<path class="st24" d="M72.2,149.4c-2.1,0.3-4.2-0.5-5.7-2.1c-3-3.2-3.3-6.5-1.9-8.7c1.1-1.8,4-2.9,5.9-1.7s2.2,2.4,3,3.8
							s2.8,0.3,2.2-5.6c4.1-1.9,3.4-8.6,5.7-11.4c3.5-4.3,9.2-3.2,11-2.2c2.3-1.6,5.3-1.8,7.8-0.5c2.8,1.4,4.6,4.5,5.6,14.9
							c1,10.7-0.9,17.8-3.4,20c-1.7,1.6-4.9,2.6-8.8,2.4v4c0,0,11,11.3-3,10.3c-6.4-0.5-12.2-3.8-16-8.9l-0.1-16.2
							C74.5,147.6,74.3,149,72.2,149.4z"/>
						<path class="st23" d="M99.4,126.9l3.8,2c-0.5,1-1.7,1.4-2.8,0.9h-0.1C99.2,129.2,98.8,127.9,99.4,126.9z"/>
						<path class="st23" d="M84.6,129.3l4.1-2c0.6,1,0.2,2.3-0.8,2.9l-0.1,0.1C86.6,130.8,85.2,130.4,84.6,129.3z"/>
						<path class="st15" d="M86.1,135.8c0,0.9,0.7,1.7,1.7,1.7s1.7-0.7,1.7-1.7c0-0.9-0.7-1.7-1.7-1.7l0,0
							C86.8,134.1,86,134.8,86.1,135.8C86,135.8,86,135.8,86.1,135.8z"/>
						<circle class="st15" cx="101.1" cy="135.3" r="1.7"/>
						<path class="st16" d="M107.8,130.4H107c-2.7-0.2-5.4,0-8,0.6c-2.5,0.9-3.3,1.7-4.8,1.8s-2.5-0.8-5.3-1.4
							c-2.8-0.4-5.7-0.3-8.6,0.1l-0.9,0.1c-0.6,0.2-0.9,0.8-0.8,1.4c0.2,0.6,0.5,1.1,0.9,1.5c0.1,0.2,0.3,0.4,0.3,0.6
							c0.3,1.5,0.8,2.9,1.3,4.3c0.3,0.6,0.7,1.1,1.2,1.5c0.2,0.2,0.4,0.3,0.6,0.4l0.3,0.2c0.3,0.2,0.7,0.3,1,0.4h0.2
							c0.1,0,0.2,0,0.3,0.1H85c0.3,0.1,0.6,0.1,0.8,0.1h0.4h0.4c3.5-0.1,4.9-1.8,5.6-3.5s0.4-4,2-4.1h0.2h0.2c1.3,0.4,1.3,2.5,2.1,4
							c0.3,0.6,0.8,1.1,1.3,1.6l0.3,0.2l0.2,0.1l0.2,0.1l0.2,0.1l0.2,0.1l0.1,0.1h0.1c0.5,0.2,0.9,0.4,1.4,0.5h0.1
							c0.6,0.1,1.1,0.1,1.7,0.1c3.3-0.2,4.3-2,4.7-3.2c0.4-1.4,0.6-2.9,0.7-4.4c0-0.2,0.1-0.4,0.3-0.6c0.4-0.5,0.6-1,0.6-1.6
							C108.8,131.1,108.4,130.6,107.8,130.4z M91.4,137.3c-0.1,0.9-0.5,1.7-1.1,2.4l0,0c-1,1-2.3,1.5-3.7,1.5
							c-1.4,0.1-2.8-0.4-3.8-1.5c0,0-0.1-0.1-0.1-0.2l-0.1-0.1l-0.1-0.1l-0.1-0.1l-0.1-0.1V139l-0.1-0.2l0,0
							c-0.1-0.2-0.2-0.3-0.2-0.5l0,0c0-0.1-0.1-0.2-0.1-0.3s-0.1-0.3-0.2-0.5v-0.1v-0.1c-0.3-1.1-0.8-3.4-0.3-3.9s2.1-1.1,4.8-1h0.3
							c0.4,0,0.8,0.1,1.2,0.1l0.5,0.1c0.4,0.1,0.8,0.2,1.2,0.3c0.1,0,0.2,0.1,0.4,0.1l0.4,0.2h0.1c0,0,0.1,0,0.1,0.1
							c0.3,0.1,0.6,0.3,0.8,0.6C91.7,134.5,91.6,136,91.4,137.3z M106.6,136.1c-0.1,0.9-0.4,2.9-2.2,3.8c-0.6,0.3-1.3,0.5-1.9,0.5
							c-1.5,0.2-3-0.4-4-1.6l0,0l-0.1-0.1l-0.1-0.1c0,0,0,0,0-0.1l-0.1-0.2l-0.1-0.2V138v0v-0.1v-0.1c-0.1-0.3-0.2-0.6-0.3-0.9
							c-0.4-1.3-0.6-2.7-0.2-3.5s2.3-1.6,4.2-1.9c0.4-0.1,0.8-0.1,1.2-0.1h1.1h0.3l0.6,0.1h0.1l0,0h0.1h0.2l0.2,0.1l0.3,0.1h0.1
							c0.2,0.1,0.5,0.2,0.7,0.4C107,132.7,106.8,135,106.6,136.1z"/>
						<path class="st25" d="M100.2,142.1l-6,2.5l-1.3-7.5c0.2-1.1,0.4-2.3,1.4-2.4L100.2,142.1z"/>
						<path class="st23" d="M89,146.8c0.1,0.2,0.3,0.4,0.5,0.6c0.3,0.2,0.6,0.4,0.9,0.6c0.4,0.2,0.9,0.4,1.4,0.6
							c0.5,0.2,1,0.3,1.5,0.3c0.2,0,0.5,0,0.7,0.1c0.2,0,0.5,0,0.7-0.1c0.1,0,0.1-0.2,0-0.3c-1-0.1-2-0.4-3-0.7
							c-0.5-0.2-0.9-0.4-1.3-0.6c-0.2-0.1-0.4-0.2-0.6-0.3c-0.3-0.2-0.5-0.3-0.8-0.4C88.9,146.5,89,146.7,89,146.8z"/>
						<path class="st16" d="M79.8,132.5l-9.2,4.3c0.5,0.3,1,0.7,1.4,1.1l8-3.6L79.8,132.5z"/>
					</g>
				</g>
				<path class="st25" d="M93.6,158.4c-5.5-0.2-12.9-2.1-14.9-5.6c1.1,3.8,5,5.7,8.1,6.6c2.2,0.6,4.5,1,6.8,1.1V158.4z"/>
			</g>
			<path class="st13" d="M74.6,160.8c0,0,4.3,11.1,4.1,28.9s-2.3,71.6-3.4,98.6c-18.4-1.1-27.1-8.6-27.1-8.6s1.6-19.2,2.8-35.7
				c1.3-17,4.6-25.6,3.8-36.8c-2.3-32.1,5.9-40.7,5.9-40.7L74.6,160.8z"/>
			<path class="st13" d="M93.6,160.5l0.1,1.9c0,0,12.7,9,15.3,21.9s5.1,102.8,5.1,102.8s5.3-1.2,8.5-3.8c-2.3-33.2-7-85.7-7-85.7
				c1.9-3,2.9-6.6,2.8-10.2c-0.2-5.9-5.5-15.2-16.7-23.7L93.6,160.5z"/>
			<path class="st20" d="M111.2,213.9c1.9-11,3.1-23.9,3.1-23.9l-2.2-3.3h2.7c0,0-4.2-11.6-9.3-18.3c-3.2-4.1-7.3-7.3-12-9.4v3.9
				c0,0,10.4,8.3,13.5,17.6S111.2,213.9,111.2,213.9z"/>
			<path class="st20" d="M74.6,158.4c-1.3,1.3-2.8,2.5-4.4,3.5c-2.6,1.5-4.6,2.5-4.6,2.5l6.4,25l2.6-0.8l-2,5.1l5.6,18
				c0,0,1.4-19.3,0.9-30.7c-0.3-7-1.8-13.9-4.4-20.3L74.6,158.4z"/>
			<path class="st1" d="M135.3,194.3c-3.5,2-6,5.4-6.8,9.4c-0.5-8.2,5.6-10.9,5.6-10.9L135.3,194.3z"/>
			<polygon class="st4" points="145.8,204.8 106,215 91.3,260 92.1,261 130,250.5 146.6,205.8 			"/>
			<polygon class="st26" points="106.8,216 92.1,261 91.3,260 106,215 			"/>
			<polygon class="st19" points="146.6,205.8 106.8,216 92.1,261 130,250.5 			"/>
			<g class="st27">
				<path d="M134.1,214.2c0,0,0.2-0.7,0.5-1.5s-2.1-0.6-5.1,0.6l-7.1,1.5c-3.1,1.1-6,1.9-6.2,2.8l-0.5,1.5L134.1,214.2z"/>
			</g>
			<path class="st16" d="M137,207.5c0.2-0.5-0.7-0.5-2-0.3l-2.3,0.6c0,0,1.1-2.1-4.3-1.2c-5.9,1.1-6.3,3.9-6.3,3.9
				c-0.9,0.3-1.9,0.6-2.9,0.8c-2,0.4-2.2,0.8-2.4,1.3l-0.4,1l20.3-5.2C136.7,208.4,136.9,208,137,207.5z"/>
			<path class="st16" d="M134.7,210.2c-1.9,0.7-2.7,1-3.1,2.3c-0.4,1.5-0.6,2.1-0.6,2.1l-10.6,3.1c0,0,0.8-2.1,1-2.9s-1.2-0.8-3-0.2
				l0.6-1.8l16.4-4.5L134.7,210.2z"/>
			<path class="st16" d="M134.6,214.3l0.4-1.5c0.2-0.8-2-0.6-5.1,0.6l-7.2,1.5c-3.1,1.1-6,1.9-6.2,2.8l-0.4,1.5L134.6,214.3z"/>
			<path class="st24" d="M45.9,186.7c3.6-14.5,6.5-17.8,14.8-19.3c7.3,11.7,4.3,30,4.3,30l-5,22.2c1.3,1.2,21.7,14.2,25.3,15.5
				c1.3,0.4,3.8,0,5.1-0.4c3.5-1.1,6-0.7,9.4-0.5l-1.6,4.8c1.4,0.5,2.9,0.9,4.4,1.1c2.4,0.4,4.8,0.4,7.1,0.1
				c2.2-0.2,4.5-0.6,6.3,0.6c0.4,0.3,0.8,0.8,0.7,1.2s-0.4,0.5-0.7,0.7c-0.7,0.5-1.3,1.2-1.6,2.1c-0.5,1.6-1.5,3-2.9,3.9
				c-1.1,0.9-2.3,1.7-3.6,2.4c-2.3,1-4.7,1.7-7.2,2c-0.9,0.2-1.8,0.3-2.7,0.3c-3.5-0.1-6.8-1.3-10.2-2.3c-4.1-1.2-6.4-2.3-9.8-3.4
				c-2.2-0.7-6.5-2.3-8.7-3.1c-12.7-4.8-30.1-11-31-17.1S42.1,201.6,45.9,186.7z"/>
			<path class="st12" d="M40.2,207.5c0.9-4.8,4.9-22.3,7.5-29.5c2.7-7.4,3.6-8.8,13-11.6c4.9,3.4,6.4,24.9,4.9,31.4l-4.9,21.5
				L80,231.7c-3.4,0.9-6.1,3.4-7.3,6.6c-1.9,5.4-1,7.6-1,7.6s-19.6-7-25-9.6s-10-4.9-9.3-12C38,218.7,39,213.1,40.2,207.5z"/>
			<path class="st1" d="M60.7,219.2c-4.5-1.9-11.8-0.5-14.2,2.6c2.4-7.3,13.2-5.9,14.8-5.1L60.7,219.2z"/>
		</g>
	</g>
</g>
<g id="freepik--speech-bubble--inject-24_00000081606646816825708240000014366574496433981103_">
	<g id="freepik--speech-bubble--inject-24_00000039835527294229847440000013782153033195219595_">
		<g id="freepik--speech-bubble--inject-24_00000129893652454850755910000006388703437343106214_">
			<path class="st2" d="M133.5,77.7c-2.9,6.4-8,11.4-14.5,14.1l-3,1c-14.6,4.1-29.8-4.5-33.8-19.1c-3.5-12.7,2.5-26.2,14.3-32
				l2.9-1.2c14.4-4.9,30,2.7,35,17C136.7,64.1,136.4,71.4,133.5,77.7z"/>
			<path class="st14" d="M120.6,39.2c-15.1-6.7-32.7,0-39.4,15.1c-5.9,13.3-1.4,29,10.8,37l-0.5,9.3c-0.1,1,0.6,1.8,1.6,1.9
				c0.5,0,1.1-0.2,1.4-0.6l6.6-6.5c16,4.1,32.2-5.5,36.4-21.5C141,59.8,133.9,45.2,120.6,39.2L120.6,39.2z M133.6,77.7
				c-2.8,6.4-8,11.4-14.4,14.1l-3,1c-14.6,4.2-29.8-4.3-34-18.9c-3.6-12.8,2.4-26.4,14.4-32.2l2.9-1.2c14.3-5,30,2.6,35,17
				C136.7,64.1,136.4,71.3,133.6,77.7L133.6,77.7z"/>
		</g>
	</g>
</g>
<path class="st4" d="M125.8,55.5c-1.4-1.4-3.6-1.4-5,0l-3.9,3.9l0,0l-11.7,11.7l-3.3,3.3l-1.6-1.6l0,0L98.5,71l-3.2-3.2
	c-1.4-1.4-3.6-1.4-5,0s-1.4,3.6,0,5l0.7,0.7l0,0l8.2,8.2c0.2,0.2,0.4,0.4,0.6,0.5c1.4,1,3.3,0.9,4.6-0.3l5.5-5.5l7.6-7.7l0,0
	l8.2-8.2C127.1,59.1,127.1,56.8,125.8,55.5z"/>
<g>
	<g id="freepik--background-complete--inject-5">
		<path class="st13" d="M286.9,64.1c0.6,4.3-2.3,8.2-6.6,8.8s-8.2-2.3-8.8-6.6s2.3-8.2,6.6-8.8l0,0
			C282.3,56.9,286.3,59.8,286.9,64.1L286.9,64.1z"/>
		<path class="st12" d="M285.1,64.4c0.5,3.2-1.8,6.3-5,6.7s-6.3-1.8-6.7-5c-0.5-3.2,1.8-6.3,5-6.7l0,0
			C281.6,58.9,284.6,61.1,285.1,64.4z"/>
		<path class="st1" d="M285,64.2c0,0-0.1-0.2-0.3-0.7c-0.2-0.6-0.5-1.2-0.9-1.7c-0.3-0.4-0.6-0.7-0.9-1c-0.4-0.3-0.8-0.6-1.3-0.8
			c-0.3-0.1-0.5-0.2-0.8-0.3c-0.6-0.2-1.1-0.2-1.7-0.2s-1.2,0.1-1.8,0.3c-0.3,0.1-0.6,0.2-0.8,0.4c-0.3,0.1-0.5,0.3-0.7,0.5
			s-0.4,0.3-0.6,0.5c-0.7,0.7-1.2,1.5-1.5,2.4c-0.2,0.6-0.3,1.3-0.3,1.9c0,0.5,0,0.7,0,0.7s-0.1-0.2-0.2-0.7c-0.1-0.7,0-1.4,0.2-2
			c0.1-0.5,0.3-0.9,0.5-1.3c0.3-0.5,0.6-0.9,1-1.3c0.2-0.2,0.4-0.4,0.7-0.6c0.2-0.2,0.5-0.4,0.8-0.5c0.3-0.2,0.6-0.3,0.9-0.4
			c0.3-0.1,0.6-0.2,1-0.3c0.3-0.1,0.7-0.1,1-0.1s0.6,0,1,0.1c0.3,0,0.6,0.1,0.9,0.2c0.3,0.1,0.6,0.2,0.8,0.3
			c0.9,0.4,1.7,1.1,2.3,1.9c0.4,0.6,0.7,1.2,0.8,1.8C285.1,63.9,285.1,64.2,285,64.2z"/>
		<path class="st1" d="M261.7,110.2l-35.3-11c-0.9-0.3-1.4-1.2-1.1-2.2l6.8-21.8c0.3-0.9,1.2-1.4,2.2-1.1l0,0l35.3,11
			c0.9,0.3,1.4,1.2,1.1,2.2l-6.8,21.8C263.5,109.9,262.6,110.5,261.7,110.2z"/>
		<path class="st2" d="M263.6,89.6c-0.5,1.5-2,2.3-3.5,1.8s-2.3-2-1.8-3.5s2-2.3,3.5-1.8C263.2,86.6,264.1,88.2,263.6,89.6
			L263.6,89.6z"/>
		<path class="st2" d="M263.8,92.7c-0.2,0-0.3-0.1-0.5-0.1c-1.5-0.5-2.4-2.1-1.9-3.6s2.1-2.4,3.6-1.9s2.4,2.1,1.9,3.6
			C266.5,92,265.2,92.9,263.8,92.7z M264.5,87.1c-1.5-0.2-2.8,0.9-3,2.3c-0.2,1.5,0.9,2.8,2.3,3c1.3,0.2,2.5-0.6,2.9-1.9l0,0
			c0.4-1.4-0.3-2.9-1.8-3.4C264.8,87.2,264.6,87.2,264.5,87.1L264.5,87.1z"/>
		<path class="st2" d="M230.9,90.7l-0.7,2.1l-0.2-0.1l0.6-1.9l-0.5-0.2l0.1-0.2L230.9,90.7z"/>
		<path class="st2" d="M232.5,93.3l-0.1,0.2l-1.5-0.5l0.1-0.2l1.2-0.6c0.3-0.2,0.4-0.3,0.5-0.4c0.1-0.2-0.1-0.5-0.4-0.6
			c-0.2-0.1-0.5-0.1-0.7,0.1l-0.1-0.2c0.3-0.1,0.6-0.2,0.9-0.1c0.4,0.1,0.6,0.4,0.5,0.8c-0.1,0.2-0.2,0.4-0.6,0.6l-1,0.5L232.5,93.3
			z"/>
		<path class="st2" d="M234.9,93.6l-0.4-0.1l-0.2,0.6L234,94l0.2-0.6L233,93v-0.2l1.6-1.1l0.2,0.1l-1.5,1l0.9,0.3l0.2-0.5l0.2,0.1
			l-0.2,0.5l0.4,0.1L234.9,93.6z"/>
		<path class="st2" d="M238.2,94.7l-0.4-0.1l-0.2,0.6l-0.2-0.1l0.2-0.6l-1.2-0.4l0.1-0.2l1.6-1.1l0.2,0.1l-1.5,1l0.9,0.3l0.2-0.5
			l0.2,0.1l-0.2,0.5l0.4,0.1L238.2,94.7z"/>
		<path class="st2" d="M240.1,95.2c-0.1,0.4-0.5,0.6-1,0.4c-0.3-0.1-0.5-0.3-0.7-0.5l0.2-0.1c0.1,0.2,0.3,0.4,0.6,0.5
			c0.4,0.1,0.6,0,0.7-0.3s0-0.5-0.6-0.7l-0.5-0.1l0.4-1l1.2,0.4l-0.1,0.2l-1-0.3l-0.3,0.7l0.3,0.1C240,94.5,240.2,94.8,240.1,95.2z"
			/>
		<path class="st2" d="M242.2,95.8c-0.1,0.4-0.5,0.6-0.9,0.4c-0.6-0.2-0.8-0.7-0.5-1.3c0.2-0.7,0.7-1,1.3-0.8c0.2,0,0.3,0.1,0.5,0.3
			l-0.1,0.2c-0.1-0.1-0.2-0.2-0.4-0.2c-0.5-0.1-0.9,0.1-1,0.6c0,0.1,0,0.1,0,0.2c0.2-0.2,0.5-0.3,0.8-0.2
			C242.1,95.1,242.3,95.4,242.2,95.8z M242,95.8c0.1-0.3-0.1-0.5-0.4-0.6c-0.3-0.1-0.6,0-0.7,0.3c-0.1,0.2,0.1,0.5,0.4,0.6
			C241.5,96.2,241.8,96.1,242,95.8C241.9,95.8,242,95.8,242,95.8z"/>
		<path class="st2" d="M245.1,96.8c-0.1,0.4-0.5,0.6-1,0.4c-0.3-0.1-0.5-0.3-0.7-0.5l0.2-0.1c0.1,0.2,0.3,0.4,0.6,0.5
			c0.4,0.1,0.6,0,0.7-0.3s0-0.5-0.4-0.6h-0.2l0.1-0.2l0.8-0.6l-1.1-0.3l0.1-0.2l1.4,0.4l-0.1,0.2l-0.8,0.6
			C245.1,96.1,245.2,96.4,245.1,96.8z"/>
		<path class="st2" d="M247.3,97.4c-0.1,0.4-0.5,0.6-0.9,0.4c-0.6-0.2-0.8-0.7-0.5-1.3c0.2-0.7,0.7-1,1.3-0.8c0.2,0,0.3,0.1,0.5,0.3
			l-0.1,0.2c-0.1-0.1-0.2-0.2-0.4-0.2c-0.5-0.1-0.9,0.1-1,0.6c0,0.1,0,0.1,0,0.2c0.2-0.2,0.5-0.3,0.8-0.2
			C247.2,96.7,247.4,97,247.3,97.4z M247,97.4c0.1-0.3-0.1-0.5-0.4-0.6c-0.3-0.1-0.6,0-0.7,0.3c-0.1,0.2,0.1,0.5,0.4,0.6
			C246.6,97.8,246.9,97.7,247,97.4L247,97.4L247,97.4z"/>
		<path class="st2" d="M249.7,96.5l-0.1,0.2l-1.5,1.7l-0.2-0.1l1.5-1.7l-1.1-0.3l-0.1,0.4l-0.2-0.1l0.2-0.6L249.7,96.5z"/>
		<path class="st2" d="M252.8,97.5v0.2l-1.5,1.7l-0.2-0.1l1.5-1.7l-1.1-0.3l-0.1,0.4l-0.2-0.1l0.2-0.6L252.8,97.5z"/>
		<path class="st2" d="M254.4,99.7c-0.1,0.4-0.5,0.5-1,0.4c-0.5-0.2-0.8-0.5-0.6-0.9c0.1-0.3,0.3-0.4,0.6-0.4
			c-0.2-0.1-0.3-0.4-0.2-0.6c0.1-0.3,0.5-0.5,0.9-0.3c0.5,0.1,0.7,0.5,0.6,0.8c-0.1,0.2-0.3,0.4-0.5,0.4
			C254.4,99.2,254.5,99.4,254.4,99.7z M254.2,99.6c0.1-0.3-0.1-0.5-0.5-0.6s-0.7,0-0.7,0.2c-0.1,0.3,0.1,0.5,0.5,0.6
			C253.8,100,254.1,99.9,254.2,99.6z M253.8,98.8c0.3,0.1,0.6,0,0.7-0.2c0.1-0.2-0.1-0.5-0.4-0.6c-0.3-0.1-0.6,0-0.6,0.2
			C253.3,98.5,253.4,98.7,253.8,98.8z"/>
		<path class="st2" d="M256.6,99.9c-0.2,0.7-0.7,1-1.3,0.8c-0.2,0-0.3-0.1-0.5-0.3l0.1-0.2c0.1,0.1,0.2,0.2,0.4,0.2
			c0.5,0.1,0.9-0.1,1-0.6c0-0.1,0-0.1,0-0.2c-0.2,0.2-0.5,0.3-0.8,0.2c-0.4-0.1-0.6-0.5-0.5-0.9s0.5-0.6,0.9-0.4
			C256.7,98.7,256.8,99.2,256.6,99.9z M256.5,99.3c0.1-0.2-0.1-0.5-0.4-0.6c-0.2-0.1-0.5,0-0.7,0.3c0,0,0,0,0,0.1
			c-0.1,0.3,0.1,0.5,0.4,0.6C256.1,99.7,256.4,99.6,256.5,99.3L256.5,99.3z"/>
		<path class="st2" d="M259.1,99.5l-0.7,2.1l-0.2-0.1l0.6-1.9l-0.5-0.2l0.1-0.2L259.1,99.5z"/>
		<path class="st2" d="M260.7,102.1l-0.1,0.2l-1.5-0.5v-0.2l1.2-0.6c0.3-0.2,0.4-0.3,0.5-0.4c0.1-0.2-0.1-0.5-0.4-0.6
			c-0.2-0.1-0.5-0.1-0.7,0.1l-0.1-0.2c0.3-0.1,0.6-0.2,0.9-0.1c0.4,0.1,0.6,0.4,0.5,0.8c-0.1,0.2-0.2,0.4-0.6,0.6l-1,0.5
			L260.7,102.1z"/>
		<path class="st2" d="M262.8,102.3c-0.1,0.4-0.5,0.6-1,0.4c-0.3-0.1-0.5-0.3-0.7-0.5l0.2-0.1c0.1,0.2,0.3,0.4,0.6,0.5
			c0.4,0.1,0.6,0,0.7-0.3s0-0.5-0.4-0.6H262l0.1-0.2l0.8-0.6l-1.1-0.3l0.1-0.2l1.4,0.4v0.2l-0.8,0.6
			C262.7,101.6,262.9,101.9,262.8,102.3z"/>
		<rect x="253.6" y="93.5" transform="matrix(0.2972 -0.9548 0.9548 0.2972 80.7162 314.6277)" class="st2" width="1" height="18"/>
		<rect x="257.1" y="101" transform="matrix(0.2972 -0.9548 0.9548 0.2972 80.1987 320.2249)" class="st2" width="1" height="9.2"/>
		<g class="st28">
			<path class="st12" d="M232.7,83.3l5.5,1.7c0.5,0.2,0.8,0.7,0.6,1.2l-1.1,3.6c-0.2,0.5-0.7,0.8-1.2,0.6l-5.5-1.7
				c-0.5-0.2-0.8-0.7-0.6-1.2l1.1-3.6C231.7,83.4,232.2,83.2,232.7,83.3z"/>
		</g>
		<path class="st1" d="M230.6,86.9l0.1-0.3l3.7,1.2c0.4,0.1,0.9-0.1,1-0.5s-0.1-0.9-0.5-1l0,0l-3.7-1.2l0.1-0.3L235,86
			c0.6,0.2,1,0.8,0.8,1.4s-0.8,1-1.4,0.8c0,0,0,0-0.1,0L230.6,86.9z"/>
		
			<rect x="236.7" y="86.5" transform="matrix(0.3011 -0.9536 0.9536 0.3011 81.7302 287.2901)" class="st1" width="0.4" height="2.7"/>
		
			<rect x="242.2" y="72.8" transform="matrix(0.2972 -0.9548 0.9548 0.2972 92.0646 290.0524)" class="st2" width="1.7" height="19.4"/>
		<path class="st13" d="M239.8,120.5c0.4,2.7-1.5,5.2-4.2,5.6s-5.2-1.5-5.6-4.2c-0.4-2.7,1.5-5.2,4.2-5.6l0,0
			C236.9,116,239.4,117.8,239.8,120.5L239.8,120.5z"/>
		<path class="st12" d="M238.7,120.7c0.3,2.1-1.1,4-3.2,4.3s-4-1.1-4.3-3.2s1.1-4,3.2-4.3l0,0C236.5,117.2,238.4,118.7,238.7,120.7z
			"/>
		<path class="st1" d="M238.7,120.6c-0.1-0.1-0.1-0.3-0.2-0.4c-0.1-0.4-0.3-0.7-0.6-1.1c-0.5-0.6-1.1-1.1-1.9-1.3
			c-0.2-0.1-0.4-0.1-0.5-0.1c-0.2,0-0.4,0-0.6,0c-0.2,0-0.4,0-0.6,0.1c-0.2,0-0.4,0.1-0.6,0.1c-0.2,0.1-0.3,0.1-0.5,0.2
			c-0.3,0.2-0.6,0.4-0.9,0.6c-0.2,0.2-0.4,0.5-0.6,0.8c-0.1,0.2-0.3,0.5-0.3,0.8c-0.1,0.4-0.2,0.8-0.2,1.2c0,0.2,0,0.3,0,0.5
			c-0.1-0.1-0.1-0.3-0.1-0.5c0-0.4,0-0.9,0.1-1.3c0.1-0.3,0.2-0.6,0.3-0.8c0.2-0.3,0.4-0.6,0.6-0.8c0.1-0.1,0.3-0.3,0.4-0.4
			c0.2-0.1,0.3-0.2,0.5-0.3c0.2-0.1,0.4-0.2,0.6-0.2c0.2-0.1,0.4-0.1,0.6-0.2c0.2,0,0.4-0.1,0.6-0.1c0.2,0,0.4,0,0.6,0
			c0.2,0,0.4,0.1,0.6,0.1c0.2,0.1,0.4,0.1,0.5,0.2c0.6,0.3,1.1,0.7,1.5,1.2c0.2,0.4,0.4,0.7,0.5,1.2
			C238.7,120.3,238.7,120.4,238.7,120.6z"/>
	</g>
	<g id="freepik--credit-card--inject-5">
		<path class="st4" d="M273.1,112.6l-28.7-30.4c-0.3-0.3-0.3-0.8,0-1.1l18.8-17.8c0.3-0.3,0.8-0.3,1.1,0l0,0L293,93.7
			c0.3,0.3,0.3,0.8,0,1.1l-18.8,17.8C273.9,112.9,273.4,112.9,273.1,112.6L273.1,112.6z"/>
		<g class="st29">
			<path d="M273.1,112.6l-28.7-30.4c-0.3-0.3-0.3-0.8,0-1.1l18.8-17.8c0.3-0.3,0.8-0.3,1.1,0l0,0L293,93.7c0.3,0.3,0.3,0.8,0,1.1
				l-18.8,17.8C273.9,112.9,273.4,112.9,273.1,112.6L273.1,112.6z"/>
		</g>
		<path class="st4" d="M292.9,93.4l-28.3-29.9c-0.4-0.4-1.1-0.5-1.6,0l0,0l-5.4,5.1c-0.1,0.1-0.2,0.2-0.1,0.4c0.5,3,2.7,5.7,5.2,7.4
			c3.1,2.1,6.7,3.3,10.2,4.7s7,3.3,9,6.4c2,3,2.4,6.6,3.4,10c0.3,0.9,0.6,1.8,1,2.7c0.1,0.2,0.4,0.3,0.6,0.2c0,0,0.1,0,0.1-0.1
			l5.7-5.4C293.3,94.6,293.3,93.9,292.9,93.4L292.9,93.4z"/>
		<path class="st2" d="M257.7,77.8l-0.2-0.3l-0.4,0.3l-0.1-0.1l0.4-0.3l-0.7-0.8l0.1-0.1l1.6-0.1l0.1,0.2l-1.5,0.1l0.6,0.6l0.3-0.3
			l0.1,0.1l-0.3,0.3l0.3,0.3L257.7,77.8z"/>
		<path class="st2" d="M258.7,78.7c-0.2,0.2-0.6,0.2-0.9-0.1c-0.2-0.2-0.3-0.4-0.3-0.7h0.2c0,0.2,0.1,0.4,0.2,0.6
			c0.2,0.2,0.4,0.3,0.6,0.1c0.2-0.2,0.2-0.4-0.1-0.6l-0.1-0.1l0.1-0.1l0.8-0.1l-0.7-0.7l0.1-0.1l0.8,0.9l-0.1,0.1l-0.8,0.1
			C259,78.2,258.9,78.5,258.7,78.7z"/>
		<path class="st2" d="M259.8,79.8c-0.2,0.2-0.6,0.2-0.9-0.1c-0.2-0.2-0.3-0.4-0.3-0.7h0.2c0,0.2,0.1,0.4,0.2,0.6
			c0.2,0.2,0.4,0.2,0.6,0.1c0.2-0.2,0.2-0.4-0.1-0.7l-0.3-0.3l0.7-0.6l0.7,0.7l-0.1,0.1l-0.6-0.6l-0.5,0.4l0.2,0.2
			C260,79.3,260,79.6,259.8,79.8z"/>
		<path class="st2" d="M260.9,81c-0.2,0.2-0.6,0.2-0.8,0l0,0c-0.3-0.4-0.3-0.8,0.2-1.2c0.5-0.4,0.9-0.4,1.3,0
			c0.1,0.1,0.2,0.2,0.2,0.4l-0.2,0.1c0-0.1-0.1-0.2-0.2-0.3c-0.3-0.3-0.6-0.3-1,0l-0.1,0.1c0.2-0.1,0.5,0,0.6,0.2
			C261.1,80.4,261.2,80.8,260.9,81z M260.8,80.9c0.2-0.2,0.2-0.4,0-0.6c-0.1-0.2-0.4-0.2-0.6-0.1l0,0c-0.2,0.1-0.2,0.4,0,0.6
			C260.3,81,260.6,81,260.8,80.9L260.8,80.9z"/>
		<path class="st2" d="M263.3,84.3l0.1-0.7l-0.7,0.1l-0.1-0.2l0.9-0.1l0.1-0.9l0.1,0.2l-0.1,0.7l0.7-0.1l0.1,0.2l-0.9,0.1l-0.1,0.9
			L263.3,84.3z"/>
		<path class="st2" d="M264.3,85.4l0.1-0.7l-0.7,0.1l-0.1-0.2l0.9-0.1l0.1-0.9l0.1,0.2l-0.1,0.7l0.7-0.1l0.1,0.2l-0.9,0.1l-0.1,0.9
			L264.3,85.4z"/>
		<path class="st2" d="M265.2,86.4l0.1-0.7l-0.7,0.1l-0.1-0.2l0.9-0.1l0.1-0.9l0.1,0.2l-0.1,0.7l0.7-0.1l0.1,0.2l-0.9,0.1l-0.1,0.9
			L265.2,86.4z"/>
		<path class="st2" d="M266.2,87.4l0.1-0.7l-0.7,0.1l-0.1-0.2l0.9-0.1l0.1-0.9l0.1,0.2l-0.1,0.7l0.7-0.1l0.1,0.2l-0.9,0.1l-0.1,0.9
			L266.2,87.4z"/>
		<path class="st2" d="M269.6,91l0.1-0.7l-0.7,0.1l-0.1-0.2l0.9-0.1l0.1-0.9l0.1,0.2l-0.1,0.7l0.7-0.1l0.1,0.2l-0.9,0.1l-0.1,0.9
			L269.6,91z"/>
		<path class="st2" d="M270.6,92l0.1-0.7l-0.7,0.1l-0.1-0.2l0.9-0.1l0.1-0.9l0.1,0.2l-0.1,0.7l0.7-0.1l0.1,0.2l-0.9,0.1l-0.1,0.9
			L270.6,92z"/>
		<path class="st2" d="M271.6,93.1l0.1-0.7l-0.7,0.1l-0.1-0.2l0.9-0.1l0.1-0.9l0.1,0.2l-0.1,0.7l0.7-0.1l0.1,0.2l-0.9,0.1l-0.1,0.9
			L271.6,93.1z"/>
		<path class="st2" d="M272.5,94.1l0.1-0.7l-0.7,0.1l-0.1-0.2l0.9-0.1l0.1-0.9l0.1,0.2l-0.1,0.7l0.7-0.1l0.1,0.2l-0.9,0.1l-0.1,0.9
			L272.5,94.1z"/>
		<path class="st2" d="M276.9,96l-1.4,1.3l-0.1-0.1l1.2-1.2l-0.3-0.3l0.1-0.1L276.9,96z"/>
		<path class="st2" d="M277.1,98.2c-0.2,0.2-0.6,0.2-0.9-0.1c-0.2-0.2-0.3-0.4-0.3-0.7h0.2c0,0.2,0.1,0.4,0.2,0.6
			c0.2,0.2,0.4,0.3,0.6,0.1c0.2-0.2,0.2-0.4-0.1-0.6l-0.1-0.1l0.1-0.1l0.8-0.1l-0.7-0.7l0.1-0.1l0.8,0.9l-0.1,0.1l-0.8,0.1
			C277.4,97.7,277.3,98,277.1,98.2z"/>
		<path class="st2" d="M278.4,99.6l-0.3-0.3l-0.4,0.3l-0.1-0.1l0.4-0.3l-0.7-0.8l0.1-0.1l1.6-0.1l0.1,0.2l-1.5,0.1l0.6,0.6l0.3-0.3
			l0.1,0.1l-0.3,0.3l0.3,0.3L278.4,99.6z"/>
		<path class="st2" d="M279.1,100.8L279,101l-0.9-1l0.1-0.1h1.1c0.3,0,0.4,0,0.5-0.1c0.2-0.2,0.2-0.4,0-0.6
			c-0.1-0.1-0.3-0.2-0.5-0.2v-0.2c0.2,0,0.5,0.1,0.6,0.3c0.3,0.3,0.3,0.6,0.1,0.8c-0.1,0.1-0.3,0.2-0.6,0.2h-0.9L279.1,100.8z"/>
		<path class="st2" d="M269.3,100.6c0.4-0.4,0.9-0.4,1.2-0.1c0.3,0.3,0.3,0.8-0.1,1.1s-0.9,0.4-1.2,0.1
			C268.9,101.4,268.9,101,269.3,100.6z M270.1,101.4c0.3-0.3,0.3-0.5,0.2-0.6s-0.3-0.1-0.6,0.1c-0.3,0.3-0.3,0.5-0.2,0.6
			C269.6,101.7,269.8,101.7,270.1,101.4L270.1,101.4z"/>
		<path class="st2" d="M271.2,103.1c-0.3,0.2-0.6,0.2-0.9-0.1c-0.3-0.3-0.3-0.8,0.1-1.1c0.4-0.4,0.9-0.4,1.3,0
			c0.1,0.1,0.2,0.3,0.2,0.4l-0.3,0.1c0-0.1-0.1-0.2-0.2-0.3c-0.2-0.2-0.4-0.2-0.6-0.1c0,0,0,0-0.1,0c0.2,0,0.3,0.1,0.4,0.2
			C271.4,102.5,271.4,102.8,271.2,103.1L271.2,103.1z M270.9,102.8c0.1-0.1,0.1-0.3,0-0.4l0,0c-0.1-0.1-0.3-0.1-0.4-0.1l0,0
			c-0.1,0.1-0.1,0.3,0,0.4l0,0C270.6,102.9,270.8,102.9,270.9,102.8L270.9,102.8L270.9,102.8z"/>
		<path class="st2" d="M272.9,102.6l0.2,0.2l-2.2,1l-0.2-0.2L272.9,102.6z"/>
		<path class="st2" d="M272.7,105l-0.2,0.2l-0.9-0.9l0.2-0.2l0.9,0.1c0.1,0,0.3,0,0.4-0.1s0.1-0.2,0-0.3c-0.1-0.1-0.2-0.2-0.4-0.1
			l-0.1-0.3c0.3,0,0.5,0.1,0.7,0.3c0.3,0.3,0.3,0.6,0.1,0.8c-0.1,0.1-0.3,0.2-0.6,0.2h-0.5L272.7,105z"/>
		<path class="st2" d="M273.9,106.2l-0.2-0.2l-0.3,0.2l-0.3-0.3l0.3-0.2l-0.6-0.7l0.2-0.2l1.3-0.2l0.3,0.3l-1.3,0.2l0.3,0.3l0.2-0.2
			l0.3,0.3l-0.2,0.2l0.2,0.2L273.9,106.2z"/>
		<path class="st4" d="M279.8,90.7c0.7-1.1,0.4-2.5-0.5-3.4c-0.3-0.3-0.6-0.5-1-0.6c-0.9-0.4-2.1-0.1-2.6,0.8
			c-0.4,0.7-0.2,1.6,0,2.3c0.3,0.8,0.7,1.6,1.5,1.9s1.7,0,2.2-0.6C279.6,91,279.7,90.9,279.8,90.7z"/>
	</g>
	<g id="freepik--Wallet--inject-5">
		<path class="st4" d="M249.6,91.2H297c1.8,0,3.2,1.4,3.2,3.2V127c0,1.8-1.4,3.2-3.2,3.2h-47.4c-1.8,0-3.2-1.4-3.2-3.2V94.4
			C246.3,92.6,247.8,91.2,249.6,91.2z"/>
		<path class="st15" d="M298.3,93.6c0.4-0.1,0.7-0.1,1.1,0C299.1,93.7,298.7,93.7,298.3,93.6z"/>
		<path class="st15" d="M293.8,93.6c0.8-0.1,1.5-0.1,2.3,0C295.3,93.7,294.6,93.7,293.8,93.6z"/>
		<path class="st15" d="M289.3,93.6c0.8-0.1,1.5-0.1,2.3,0C290.8,93.7,290,93.7,289.3,93.6z"/>
		<path class="st15" d="M284.7,93.6c0.8-0.1,1.5-0.1,2.3,0C286.2,93.7,285.5,93.7,284.7,93.6z"/>
		<path class="st15" d="M280.2,93.6c0.8-0.1,1.5-0.1,2.3,0C281.7,93.7,280.9,93.7,280.2,93.6z"/>
		<path class="st15" d="M275.6,93.6c0.8-0.1,1.5-0.1,2.3,0C277.2,93.7,276.4,93.7,275.6,93.6z"/>
		<path class="st15" d="M271.1,93.6c0.8-0.1,1.5-0.1,2.3,0C272.6,93.7,271.9,93.7,271.1,93.6z"/>
		<path class="st15" d="M266.6,93.6c0.8-0.1,1.5-0.1,2.3,0C268.1,93.7,267.3,93.7,266.6,93.6z"/>
		<path class="st15" d="M262,93.6c0.8-0.1,1.5-0.1,2.3,0C263.5,93.7,262.8,93.7,262,93.6z"/>
		<path class="st15" d="M257.5,93.6c0.4,0,0.8-0.1,1.1,0c0.4,0,0.8,0,1.1,0c-0.4,0-0.8,0.1-1.1,0C258.2,93.7,257.9,93.6,257.5,93.6z
			"/>
		<path class="st15" d="M252.9,93.6c0.4,0,0.8-0.1,1.1,0c0.4,0,0.8,0,1.1,0c-0.4,0-0.8,0.1-1.1,0C253.7,93.7,253.3,93.6,252.9,93.6z
			"/>
		<path class="st15" d="M249.6,94.7c0-0.4-0.1-0.7,0-1.1l0,0h0.4h0.4c0.1,0,0.2,0,0.3,0c-0.1,0-0.2,0-0.3,0H250h-0.2h-0.2l0,0
			C249.6,94,249.6,94.3,249.6,94.7z"/>
		<path class="st15" d="M249.6,98.9c0-0.3-0.1-0.7,0-1c0-0.3,0-0.7,0-1c0,0.3,0.1,0.7,0,1C249.6,98.2,249.6,98.5,249.6,98.9z"/>
		<path class="st15" d="M249.6,103c-0.1-0.7-0.1-1.4,0-2.1C249.6,101.6,249.6,102.3,249.6,103z"/>
		<path class="st15" d="M249.6,107.2c-0.1-0.7-0.1-1.4,0-2.1C249.6,105.8,249.6,106.5,249.6,107.2z"/>
		<path class="st15" d="M249.6,111.4c-0.1-0.7-0.1-1.4,0-2.1C249.6,110,249.6,110.7,249.6,111.4z"/>
		<path class="st15" d="M249.6,115.5c-0.1-0.7-0.1-1.4,0-2.1C249.6,114.1,249.6,114.8,249.6,115.5z"/>
		<path class="st15" d="M249.6,119.7c-0.1-0.7-0.1-1.4,0-2.1C249.6,118.3,249.6,119,249.6,119.7z"/>
		<path class="st15" d="M249.6,123.8c-0.1-0.7-0.1-1.4,0-2.1C249.6,122.4,249.6,123.1,249.6,123.8z"/>
		<path class="st15" d="M250.7,127c-0.4,0-0.7,0.1-1.1,0c-0.1-0.1,0,0,0-0.1l0,0v-0.2c0-0.1,0-0.1,0-0.2s0-0.2,0-0.4
			c0-0.1,0-0.2,0-0.3c0,0.1,0,0.2,0,0.3c0,0.1,0,0.2,0,0.4c0,0.1,0,0.1,0,0.2v0.1v0.1l0,0c0,0,0,0.1,0,0
			C249.9,127,250.3,127,250.7,127z"/>
		<path class="st15" d="M255.1,127c-0.4,0-0.7,0.1-1.1,0c-0.4,0-0.7,0-1.1,0c0.4,0,0.7-0.1,1.1,0C254.4,127,254.8,127,255.1,127z"/>
		<path class="st15" d="M259.6,127c-0.4,0-0.7,0.1-1.1,0c-0.4,0-0.7,0-1.1,0c0.4,0,0.7-0.1,1.1,0C258.9,127,259.3,127,259.6,127z"/>
		<path class="st15" d="M264.1,127c-0.7,0.1-1.5,0.1-2.2,0C262.6,127,263.3,127,264.1,127z"/>
		<path class="st15" d="M268.6,127c-0.7,0.1-1.5,0.1-2.2,0C267.1,127,267.8,127,268.6,127z"/>
		<path class="st15" d="M273,127c-0.7,0.1-1.5,0.1-2.2,0C271.5,127,272.3,127,273,127z"/>
		<path class="st15" d="M277.5,127c-0.7,0.1-1.5,0.1-2.2,0C276,127,276.8,127,277.5,127z"/>
		<path class="st15" d="M282,127c-0.7,0.1-1.5,0.1-2.2,0C280.5,127,281.2,127,282,127z"/>
		<path class="st15" d="M286.5,127c-0.7,0.1-1.5,0.1-2.2,0C285,127,285.7,127,286.5,127z"/>
		<path class="st15" d="M290.9,127c-0.7,0.1-1.5,0.1-2.2,0C289.4,127,290.2,127,290.9,127z"/>
		<path class="st15" d="M295.4,127c-0.7,0.1-1.5,0.1-2.2,0C293.9,127,294.7,127,295.4,127z"/>
		<path class="st15" d="M298.8,127c-0.4,0.1-0.7,0.1-1.1,0C298,127,298.4,127,298.8,127z"/>
		<g class="st29">
			<path d="M264.9,112.9c0,0,0,1.9-0.6,3s-0.7,1.6-1.9,2s-16.1,2.1-16.1,2.1v-5L264.9,112.9z"/>
		</g>
		<g class="st29">
			<path d="M264.7,105.9c0,0,0.2-1.9-4.6-2.6c-5.4-0.8-13.8-1.8-13.8-1.8v3.6L264.7,105.9z"/>
		</g>
		<path class="st4" d="M246.8,104.2h15.5c1.5,0,2.7,1.2,2.7,2.7v6.9c0,1.5-1.2,2.7-2.7,2.7h-15.5c-1.5,0-2.7-1.2-2.7-2.7v-6.9
			C244.2,105.4,245.4,104.2,246.8,104.2z"/>
		<path class="st15" d="M246.8,116.4c0,0-0.1,0-0.2,0c-0.2,0-0.3,0-0.5-0.1s-0.5-0.1-0.7-0.3c-0.3-0.2-0.6-0.4-0.8-0.7
			c-0.3-0.3-0.5-0.7-0.5-1.2c0-0.2-0.1-0.5,0-0.7c0-0.3,0-0.5,0-0.8c0-1.1,0-2.4,0-3.7c0-0.7,0-1.4,0-2.2c0-0.8,0.4-1.6,1.1-2.1
			c0.3-0.3,0.7-0.4,1.1-0.5c0.2,0,0.4-0.1,0.6,0h3.3h12c0.8,0,1.6,0.4,2.1,1c0.3,0.4,0.5,0.9,0.6,1.4c0,0.3,0,0.5,0,0.8
			c0,0.5,0,1,0,1.5v2.9c0,0.5,0,1,0,1.4c0,0.2,0,0.5,0,0.7c0,0.1,0,0.2,0,0.4c0,0.1-0.1,0.2-0.1,0.3c-0.3,0.9-1,1.5-2,1.7
			c-0.1,0-0.2,0-0.3,0.1c-0.1,0-0.2,0-0.3,0h-1.9h-4.5h-6.6h-1.8H247L246.8,116.4c0,0,0.1,0,0.2,0h0.5h1.8h6.6h4.5h1.2
			c0.4,0,0.9,0,1.3-0.1c0.9-0.2,1.6-0.9,1.9-1.7c0.2-0.4,0.1-0.9,0.1-1.4v-1.4c0-1,0-1.9,0-2.9v-1.5c0-0.3,0-0.5,0-0.8
			c0-0.5-0.2-1-0.6-1.4c-0.2-0.2-0.3-0.4-0.6-0.5c-0.2-0.1-0.4-0.3-0.7-0.3c-0.2-0.1-0.5-0.1-0.8-0.1h-12H247c-0.2,0-0.4,0-0.6,0
			c-0.4,0.1-0.8,0.2-1.1,0.5c-0.6,0.5-1,1.2-1,2s0,1.5,0,2.2c0,1.4,0,2.6,0,3.7c0,0.3,0,0.5,0,0.8c0,0.2,0,0.5,0,0.7
			c0.2,1,1,1.9,2,2.1C246.5,116.3,246.6,116.4,246.8,116.4L246.8,116.4z"/>
		<circle class="st30" cx="258.7" cy="110.7" r="4.4"/>
		<path class="st0" d="M259.8,114.4c0.4-0.1,0.7-0.3,1.1-0.6c0.3-0.3,0.7-0.6,0.9-0.9c0.6-0.9,0.8-2,0.5-3c-0.1-0.4-0.3-0.8-0.6-1.2
			c-0.2-0.3-0.5-0.6-0.8-0.9c0,0,0,0,0.1,0s0.1,0.1,0.2,0.1c0.2,0.2,0.4,0.4,0.6,0.6c0.3,0.4,0.5,0.8,0.6,1.2
			c0.3,1.1,0.2,2.2-0.5,3.1c-0.3,0.4-0.6,0.7-0.9,0.9c-0.2,0.2-0.5,0.3-0.8,0.4C260.1,114.3,260,114.3,259.8,114.4
			C259.9,114.4,259.8,114.4,259.8,114.4z"/>
	</g>
	<g>
		<path class="st4" d="M307.1,80.4c0.4,4.5-2.9,8.5-7.4,8.9s-8.5-2.9-8.9-7.4s2.9-8.5,7.4-8.9l0,0C302.7,72.6,306.7,75.9,307.1,80.4
			z"/>
		<g class="st29">
			<path d="M305.1,80.4c0,0-0.1-0.3-0.2-0.7c-0.2-0.7-0.5-1.3-0.9-1.8c-0.3-0.4-0.6-0.7-0.9-1.1c-0.4-0.4-0.8-0.7-1.3-0.9
				c-0.3-0.1-0.5-0.3-0.8-0.3c-0.3-0.1-0.6-0.2-0.9-0.2c-0.3-0.1-0.6-0.1-0.9-0.1s-0.6,0-1,0c-0.3,0-0.6,0.1-0.9,0.2
				s-0.6,0.2-0.9,0.3c-0.5,0.2-1,0.6-1.5,1c-0.4,0.4-0.8,0.8-1.1,1.2c-0.3,0.4-0.5,0.8-0.6,1.3c-0.2,0.6-0.4,1.3-0.4,2
				c0,0.5,0,0.8-0.1,0.8c0,0-0.1-0.3-0.1-0.8c0-0.7,0.1-1.4,0.3-2.1c0.3-1,0.9-1.9,1.7-2.7c0.5-0.4,1-0.8,1.6-1.1
				c0.3-0.1,0.6-0.3,0.9-0.4s0.7-0.2,1-0.2s0.7-0.1,1,0c0.3,0,0.7,0.1,1,0.1c0.6,0.1,1.2,0.3,1.8,0.7c0.9,0.5,1.7,1.3,2.3,2.2
				c0.4,0.6,0.6,1.3,0.8,2C305.1,80.1,305.1,80.4,305.1,80.4z"/>
		</g>
		<path class="st15" d="M292.7,81.7L292.7,81.7c0,0.1,0,0.1,0,0.2s0,0.1,0,0.2s0,0.2,0.1,0.3c0.3,1.2,0.9,2.2,1.7,3.1l0.3,0.3
			c0.1,0,0.1,0.1,0.2,0.1l0.2,0.1c0.1,0.1,0.2,0.2,0.3,0.2l0.4,0.2c0.5,0.3,1.1,0.5,1.7,0.7c1.3,0.3,2.6,0.2,3.8-0.4
			c0.6-0.2,1.1-0.6,1.5-1l0.3-0.3c0.1-0.1,0.2-0.2,0.3-0.3c0-0.1,0.1-0.1,0.1-0.2s0.1-0.1,0.1-0.2c0.1-0.1,0.2-0.2,0.2-0.3
			c0.3-0.4,0.5-0.8,0.7-1.3c0.3-0.7,0.4-1.3,0.4-2c0-0.1,0-0.2,0-0.3c0-0.1,0-0.2,0-0.2v-0.1c0,0,0,0,0-0.1c0,0,0,0,0,0.1v0.1
			c0,0.1,0,0.1,0,0.2s0,0.2,0,0.3c0,0.7-0.2,1.4-0.4,2.1c-0.2,0.5-0.4,0.9-0.7,1.3l-0.2,0.3c0,0.1-0.1,0.1-0.1,0.2l-0.1,0.2
			c-0.1,0.1-0.2,0.2-0.3,0.3l-0.3,0.3c-0.5,0.4-1,0.7-1.6,1c-1.2,0.5-2.6,0.7-3.9,0.4c-0.6-0.1-1.2-0.4-1.7-0.7l-0.4-0.2
			c-0.1-0.1-0.2-0.2-0.3-0.3l-0.2-0.1c-0.1,0-0.1-0.1-0.2-0.1l-0.3-0.3c-0.3-0.3-0.6-0.7-0.9-1.1c-0.4-0.6-0.6-1.3-0.8-2
			c0-0.1,0-0.2-0.1-0.3c0-0.1,0-0.2,0-0.2C292.7,81.8,292.7,81.8,292.7,81.7L292.7,81.7z"/>
	</g>
	<path class="st4" d="M316.7,106.5c-1.1,2.4-4,3.4-6.4,2.2c-2.4-1.1-3.4-4-2.2-6.4s4-3.4,6.4-2.2l0,0
		C316.8,101.2,317.8,104.1,316.7,106.5L316.7,106.5z"/>
	<g class="st29">
		<path d="M315.7,105.9c0-0.1,0.1-0.3,0.1-0.4c0.1-0.4,0.1-0.8,0.1-1.2c0-0.3-0.1-0.5-0.1-0.8c-0.1-0.3-0.2-0.6-0.4-0.9
			c-0.1-0.1-0.2-0.3-0.3-0.4c-0.4-0.4-0.8-0.8-1.3-1c-0.2-0.1-0.3-0.1-0.5-0.2c-0.2,0-0.4-0.1-0.5-0.1c-0.2,0-0.3,0-0.5,0
			s-0.3,0-0.5,0.1c-0.3,0.1-0.6,0.2-0.9,0.3c-0.2,0.1-0.5,0.3-0.7,0.4c-0.3,0.2-0.6,0.5-0.8,0.9c-0.1,0.1-0.2,0.3-0.3,0.4
			c0-0.2,0.1-0.3,0.2-0.4c0.2-0.4,0.5-0.7,0.8-1c0.2-0.2,0.5-0.4,0.7-0.5c0.3-0.2,0.6-0.3,0.9-0.3c0.4-0.1,0.7-0.1,1.1-0.1
			c0.2,0,0.4,0.1,0.6,0.1c0.2,0.1,0.4,0.1,0.6,0.2s0.4,0.2,0.5,0.3c0.2,0.1,0.3,0.2,0.5,0.4c0.1,0.1,0.3,0.3,0.4,0.4
			s0.2,0.3,0.3,0.4c0.2,0.3,0.3,0.6,0.4,0.9s0.1,0.6,0.1,0.9c0,0.4-0.1,0.8-0.2,1.2C315.9,105.6,315.8,105.8,315.7,105.9z"/>
	</g>
	<path class="st15" d="M309.1,102.8c0,0-0.1,0.2-0.1,0.4c-0.1,0.4-0.2,0.8-0.2,1.2c0,0.3,0,0.6,0.1,0.8c0.1,0.3,0.2,0.6,0.4,0.9
		c0.2,0.3,0.4,0.6,0.6,0.8c0.6,0.5,1.3,0.9,2,1c0.3,0,0.7,0,1.1,0c0.6-0.1,1.2-0.3,1.6-0.7c0.3-0.2,0.6-0.5,0.8-0.9
		c0.2-0.2,0.2-0.4,0.2-0.4v0.1c0,0.1-0.1,0.2-0.2,0.3c-0.2,0.4-0.5,0.7-0.8,0.9c-0.5,0.4-1,0.6-1.7,0.7c-0.4,0.1-0.7,0.1-1.1,0
		s-0.8-0.2-1.1-0.3c-0.3-0.2-0.7-0.4-1-0.7c-0.3-0.3-0.5-0.5-0.7-0.9c-0.2-0.3-0.3-0.6-0.4-0.9s-0.1-0.6-0.1-0.8
		c0-0.4,0.1-0.8,0.2-1.2c0-0.1,0.1-0.2,0.1-0.3C309,102.9,309.1,102.9,309.1,102.8z"/>
	<path class="st4" d="M237.9,105.8c0.6,4.3-2.3,8.2-6.6,8.8c-4.3,0.6-8.2-2.3-8.8-6.6s2.3-8.2,6.6-8.8l0,0
		C233.3,98.6,237.3,101.5,237.9,105.8L237.9,105.8z"/>
	<g class="st29">
		<path d="M236.1,105.9c0,0-0.1-0.2-0.3-0.7c-0.2-0.6-0.5-1.2-0.9-1.7c-0.3-0.4-0.6-0.7-0.9-1c-0.4-0.3-0.8-0.6-1.3-0.8
			c-0.3-0.1-0.5-0.2-0.8-0.3c-0.3-0.1-0.6-0.1-0.8-0.2c-0.3,0-0.6-0.1-0.9-0.1c-0.3,0-0.6,0-0.9,0.1c-0.3,0.1-0.6,0.1-0.9,0.2
			c-0.3,0.1-0.6,0.2-0.8,0.4c-0.3,0.1-0.5,0.3-0.7,0.5s-0.4,0.3-0.6,0.5c-0.7,0.7-1.2,1.5-1.5,2.4c-0.2,0.6-0.3,1.3-0.3,1.9
			c0,0.5,0,0.7,0,0.7s-0.1-0.2-0.2-0.7c-0.1-0.7,0-1.4,0.2-2c0.1-0.5,0.3-0.9,0.5-1.3c0.3-0.5,0.6-0.9,1-1.3
			c0.2-0.2,0.4-0.4,0.7-0.6c0.2-0.2,0.5-0.4,0.8-0.5c0.3-0.2,0.6-0.3,0.9-0.4c0.6-0.2,1.3-0.3,1.9-0.3c0.3,0,0.6,0,1,0.1
			c0.3,0,0.6,0.1,0.9,0.2c0.3,0.1,0.6,0.2,0.8,0.3c0.9,0.4,1.7,1.1,2.3,1.9c0.4,0.6,0.7,1.2,0.8,1.8
			C236.1,105.6,236.1,105.9,236.1,105.9z"/>
	</g>
	<path class="st15" d="M224.3,107.8C224.4,107.8,224.4,107.8,224.3,107.8c0,0.1,0,0.1,0,0.2v0.2c0,0.1,0,0.2,0.1,0.3
		c0.2,0.6,0.5,1.2,0.9,1.8c0.3,0.4,0.6,0.7,0.9,1l0.3,0.2c0.1,0,0.1,0.1,0.2,0.1l0.2,0.1c0.1,0.1,0.2,0.2,0.3,0.2l0.4,0.2
		c0.5,0.3,1.1,0.4,1.6,0.5c0.6,0.1,1.2,0.1,1.9,0c0.6-0.1,1.2-0.3,1.8-0.6c0.5-0.3,1-0.6,1.4-1l0.3-0.3c0.1-0.1,0.2-0.2,0.3-0.3
		l0.1-0.2c0-0.1,0.1-0.1,0.1-0.2c0.1-0.1,0.1-0.2,0.2-0.3c0.2-0.4,0.4-0.8,0.6-1.2c0.2-0.6,0.3-1.3,0.3-2c0-0.1,0-0.2,0-0.3
		c0-0.1,0-0.2,0-0.2v-0.1l0,0l0,0v0.1c0,0.1,0,0.1,0,0.2s0,0.2,0,0.3c0,0.7-0.1,1.3-0.3,2c-0.1,0.4-0.3,0.9-0.6,1.3l-0.2,0.3
		c0,0.1-0.1,0.1-0.1,0.2l-0.1,0.2c-0.1,0.1-0.2,0.2-0.3,0.3s-0.2,0.2-0.3,0.3c-0.4,0.4-0.9,0.7-1.4,1c-1.1,0.6-2.4,0.8-3.7,0.5
		c-0.6-0.1-1.1-0.3-1.7-0.6l-0.4-0.2c-0.1-0.1-0.2-0.1-0.3-0.2l-0.2-0.1c-0.1,0-0.1-0.1-0.2-0.1l-0.3-0.2c-0.3-0.3-0.6-0.7-0.9-1
		c-0.4-0.6-0.7-1.2-0.8-1.8c0-0.1-0.1-0.2-0.1-0.3c0-0.1,0-0.2,0-0.2V107.8L224.3,107.8z"/>
</g>
</svg>
