<?xml version="1.0" encoding="utf-8"?>
<!-- Generator: Adobe Illustrator 27.3.1, SVG Export Plug-In . SVG Version: 6.00 Build 0)  -->
<svg version="1.1" id="Layer_1" xmlns="http://www.w3.org/2000/svg" xmlns:xlink="http://www.w3.org/1999/xlink" x="0px" y="0px"
	 viewBox="0 0 500 500" style="enable-background:new 0 0 500 500;" xml:space="preserve">
<style type="text/css">
	.st0{fill:#E0E0E0;}
	.st1{fill:#A8C2A6;}
	.st2{opacity:0.15;fill:#FFFFFF;enable-background:new    ;}
	.st3{fill:#F0F0F0;}
	.st4{opacity:0.3;fill:#FFFFFF;enable-background:new    ;}
	.st5{fill:#37474F;}
	.st6{opacity:0.45;fill:#FFFFFF;enable-background:new    ;}
	.st7{opacity:0.8;fill:#FFFFFF;enable-background:new    ;}
	.st8{fill:#455A64;}
	.st9{opacity:0.6;fill:#A8C2A6;enable-background:new    ;}
	.st10{opacity:0.2;fill:#FFFFFF;enable-background:new    ;}
	.st11{opacity:0.1;enable-background:new    ;}
	.st12{opacity:0.3;enable-background:new    ;}
	.st13{opacity:0.35;enable-background:new    ;}
	.st14{opacity:0.5;}
	.st15{opacity:0.25;}
	.st16{opacity:0.45;}
	.st17{opacity:0.4;}
	.st18{fill:#FFBDA7;}
	.st19{opacity:0.25;enable-background:new    ;}
	.st20{opacity:0.15;enable-background:new    ;}
	.st21{fill:#263238;}
	.st22{opacity:0.4;enable-background:new    ;}
	.st23{fill:#FAFAFA;}
	.st24{opacity:0.2;enable-background:new    ;}
	.st25{opacity:0.1;fill:#FFFFFF;enable-background:new    ;}
	.st26{opacity:0.5;fill:#FFFFFF;enable-background:new    ;}
	.st27{fill:#F0997A;}
	.st28{opacity:0.18;enable-background:new    ;}
	.st29{fill:#B1C8AF;}
	.st30{opacity:0.3;fill:#B1C8AF;enable-background:new    ;}
</style>
<g id="freepik--Floor--inject-18">
	<g id="freepik--Mountains--inject-18">
		<g id="freepik--mountains--inject-18">
			<path class="st0" d="M463.8,199.1c0,0-87-69-93.8-68.7c-5.2,0.3-14.9,8.1-14.9,8.1s-31.7-32-37.9-32.8s-95.3,89.6-95.3,89.6
				v126.6h241.9V199.1z"/>
			<path class="st1" d="M463.8,199.1c0,0-87-69-93.8-68.7c-5.2,0.3-14.9,8.1-14.9,8.1s-31.7-32-37.9-32.8s-95.3,89.6-95.3,89.6
				v126.6h241.9V199.1z"/>
			<path class="st2" d="M463.8,199.1c0,0-87-69-93.8-68.7c-5.2,0.3-14.9,8.1-14.9,8.1s-31.7-32-37.9-32.8s-95.3,89.6-95.3,89.6
				v126.6h241.9V199.1z"/>
			<path class="st3" d="M355.1,138.5l-12,9c3.6-2.7,6.9,1.7,12,1.5s7.9-4.5,12.8-3.2c4,1.1,5.6,2.9,8.4,3.3c5.2,0.8,3.7-2,6.7-2.6
				c2-0.4,12.1,1.1,16.2,2.8c-14.7-10.8-26.8-19.1-29.2-19c-0.6,0-1.2,0.2-1.8,0.4c-1.2,0.4-2.4,0.8-3.5,1.4l-1,0.5
				c-2.1,1.2-4.2,2.5-6.2,4C356,137.6,355.1,138.5,355.1,138.5L355.1,138.5z"/>
			<path class="st3" d="M314.7,125.2c3.9,0.3,10.3,4.1,12.9,1.7c2.6-2.4,8.6-6.6,11.2-4.2c-8.8-8.2-18.5-16.7-21.7-17.1
				c-2.1-0.2-13.4,9.7-27.6,23c6-3.5,10,0.8,13.6,1.7S310.8,124.9,314.7,125.2z"/>
			<path class="st4" d="M324.2,118.3c4.2,5.2-4.1,1.2-8,2.3s14.7,14,11.4,17.1c-1.8,1.7-13.8-2.9-11.5,1.3c0.7,1.3,13,10.9,7.3,11.7
				c-3.4,0.4-8.1-1.3-6.1,3.5c1.3,3.2,3.3,6.1,5.7,8.6l32.2-24.3c0,0-30.3-30.6-37.4-32.7l-0.5-0.1
				C315.9,106.1,320,113.1,324.2,118.3z"/>
			<path class="st4" d="M370,130.4c-0.2,0-0.4,0.1-0.6,0.1c-2.1,0.9,3.3,7.3,4.4,9.6c1.2,2.5-10.3,0-10.8,1.7s15.6,13.3,15.8,15.4
				s-14.4-1.9-14.9-0.1s16.6,15.1,16.9,19c0.1,2.1-6.2,0.5-11-1.2c-3.4-1.2-9,0-4.1,5.8c2.9,3.4,98.1,75.8,98.1,75.8l-0.1-57.4
				C460.4,196.3,376.7,130,370,130.4z"/>
			<path class="st0" d="M269.4,184.6c0,0-60.4-53.6-66.2-53.3c-4.4,0.2-29.8,19.1-29.8,19.1s-29.6-26.6-34.9-27.2
				s-98.3,71.5-98.3,71.5l0.1,127.2h229.2L269.4,184.6z"/>
			<path class="st1" d="M269.4,184.6c0,0-60.4-53.6-66.2-53.3c-4.4,0.2-29.8,19.1-29.8,19.1s-29.6-26.6-34.9-27.2
				s-98.3,71.5-98.3,71.5l0.1,127.2h229.2L269.4,184.6z"/>
			<path class="st3" d="M203.2,131.4c-2.8,0.1-13.8,7.6-21.6,13.1c2.2,0.4,6,2.8,8.9,2.7c4.3-0.2,7.6-4.1,10.7-2.4s6.7,6,10.6,6.6
				c6.4,1.1,7.3-1.6,10.8-0.8c2.9,0.6,5.8,1,8.7,1.2C218,140.8,205.6,131.2,203.2,131.4z"/>
			<path class="st3" d="M136.4,139.8c3.3,0.3,8.7,3.5,11,1.4s5.1-3.6,7.9-2.8s6.8,2.1,6.8,2.1l0,0c-9-7.6-20.5-17-23.6-17.4
				c-1.7-0.2-12.8,7.3-26.9,17.6c7.1-1.4,8.6,4.5,13.2,3.5C129.6,143.3,133.1,139.6,136.4,139.8z"/>
			<path class="st4" d="M144.4,133.9c3.6,4.4-3.5,1-6.8,2s11.8,9.7,9,12.3c-1.6,1.4-9.1-2-7.2,1.5s14.2,14.1,14.2,14.1l19.8-13.5
				c0,0-28.4-25.3-34.5-27.1l-0.4-0.1C137.4,123.6,140.9,129.5,144.4,133.9z"/>
			<path class="st4" d="M205.2,141.1c1,2.1-7.5-1.4-7.9,0s11.6,13.6,11.7,15.4s-10.6-4-10.9-2.4s14.1,12.8,14.4,16.1
				c0.1,1.8-5.2,0.4-9.4-1c-2.9-1-7.6,0-3.4,4.9c2.4,2.9,69,58.6,69.9,59.3v-48.7c0,0-60.4-53.6-66.2-53.3c-0.2,0-0.4,0.1-0.6,0.1
				C201,132.4,204.2,139.1,205.2,141.1z"/>
		</g>
	</g>
	<g id="freepik--floor--inject-18_00000132776630595017246210000004756655758750645426_">
		<path id="freepik--Buildings--inject-18" class="st5" d="M454.6,240.7l-7.8,4.5v-18.6l-3.9-2.3l-7.8,4.5v3.5l-7.8,4.5v-19.4
			l-7.8-4.5l-7.8,4.5v2l-7.8,4.5v-24.6l-7.8-4.5l-7.8,4.5v-12.8l-7.8-4.5l-11.7,6.8v4.5l-7.8,4.5v3.7l-7.8-4.5v-15.8
			c0,0-7.7-4.3-7.8-4.3s-7.8,4.3-7.8,4.3v6.7l-7.8-4.5l-7.8,4.5v9l-7.8,4.5v-22.9l-3.9-2.3l-3.9,2.3v9l-3.9-2.2l-7.9,4.5v-6.9
			l-3.9-2.3l-7.8,4.5v11.4l-3.9-2.3V190l-7.8-4.5l-7.8,4.5v-4.5l-11.7-6.8l-7.8,4.5v-9l-7.8-4.5l-7.8,4.5v12.6l-3.9,2.2v-9l-7.8-4.5
			L208,180v13.6l-11.8-6.8v-9l-7.8-4.5l-7.8,4.5v13.6l-3.9-2.3l-7.8,4.5v5.5l-7.8,4.5v-4.5l-7.8-4.5l-11.8,6.8v-10.2l-7.8-4.5
			l-11.7,6.8v23.3l-11.8-6.8l-15.7,9v-2l-7.8-4.5l-7.8,4.6v10.4l-7.8,4.5v10.6l-11.7,6.8v-4.9l-7.8-4.5l-11.2,6.4v86.1h423.6V246
			L454.6,240.7z"/>
		<g id="freepik--floor--inject-18">
			<ellipse id="freepik--Grass--inject-18" class="st1" cx="252" cy="338" rx="233.1" ry="134"/>
			<ellipse id="freepik--grass--inject-18" class="st6" cx="252" cy="338" rx="233.1" ry="134"/>
		</g>
		<path id="freepik--Way--inject-18" class="st7" d="M347.5,460.2c106.9-62.7,43.3-109.9-14.2-132.5c-25.6-10.1-57.9-17.1-66.3-22.7
			c-12-8-5.7-18.7,29.6-26.5c37.7-8.3,77-25.2,64.6-42c-14.2-19.2-52.4-27-73.2-30.9c-6.2-0.6-12.4-1-18.6-1.2
			c18.6,5.1,38.4,14.8,48.9,24.8c27.1,25.9-55.8,28.3-104.7,47c-30.7,11.7-34.8,42.2,38.4,65.7c11.8,3.8,41.6,14.6,24.5,39.8
			c-18.4,27-85.5,55.9-91.9,64.4c-10.9,5.4-15.4,11.4-15.5,17.2C226.6,475.8,291.1,474.8,347.5,460.2z"/>
	</g>
</g>
<g id="freepik--Flag--inject-18">
	<g id="freepik--flag--inject-18">
		<path class="st1" d="M317.2,91.9c2.9,0,5.4-0.2,6.5,1s-0.9,2.1,1.1,2.1s5-0.2,4.7,1.1c-0.1,0.7-0.5,1.4-0.1,1.6
			c0.7,0.6,1.9,0.8,4,0.7c-1.6,0.8-6,0.6-5.5-0.3c0.4-0.6-0.7-0.5-3.2-0.5s-2.9-0.8-2.5-1.7s-5-0.5-5-0.5V91.9z"/>
		<path class="st8" d="M317.2,107.6c-0.2,0-0.5-0.2-0.5-0.4v0V90.5c0-0.3,0.1-0.5,0.4-0.5c0.3,0,0.5,0.1,0.5,0.4c0,0,0,0.1,0,0.1
			v16.7C317.6,107.4,317.4,107.6,317.2,107.6C317.2,107.6,317.2,107.6,317.2,107.6z"/>
	</g>
</g>
<g id="freepik--rocks-2--inject-18">
	<g id="freepik--Rocks--inject-18">
		<g id="freepik--grass--inject-18_00000098187944381343240660000016121145607797957282_">
			<path class="st1" d="M424.9,285.3c-0.2,12.2,5.5,26.7,5.5,26.7l-2.8-1C422.8,294.7,424.9,285.3,424.9,285.3z"/>
			<path class="st2" d="M424.9,285.3c-0.2,12.2,5.5,26.7,5.5,26.7l-2.8-1C422.8,294.7,424.9,285.3,424.9,285.3z"/>
			<path class="st9" d="M428.9,311.3c0,0,0,0.1,0,0.1l-1.4-0.5c-4.8-16.2-2.8-25.7-2.8-25.7C423.9,291.4,426.5,305.1,428.9,311.3z"
				/>
			<path class="st1" d="M430.4,312c-0.5-7,0.1-14,1.5-20.8c2.4-10,6.7-15,6.7-15s-5.7,4-9,14.8c-2,6.4-3,13-2.9,19.7L430.4,312z"/>
			<path class="st10" d="M430.4,312c-0.5-7,0.1-14,1.5-20.8c2.4-10,6.7-15,6.7-15s-5.7,4-9,14.8c-2,6.4-3,13-2.9,19.7L430.4,312z"/>
			<path class="st9" d="M428.5,311.3L428.5,311.3l-1.8-0.6c-0.1-6.7,0.9-13.3,2.9-19.7c3.3-10.8,9-14.8,9-14.8
				C433.3,281.1,427.5,295.4,428.5,311.3z"/>
			<path class="st1" d="M430.4,312c0,0,0.2-9.1,9.8-18.4c-6.1,4.1-10.6,10.3-12.6,17.4L430.4,312z"/>
			<path class="st10" d="M430.4,312c0,0,0.2-9.1,9.8-18.4c-6.1,4.1-10.6,10.3-12.6,17.4L430.4,312z"/>
			<path class="st9" d="M428.9,311.3c0,0,0,0.1,0,0.1l-1.3-0.4c2-7.1,6.5-13.3,12.6-17.4C435.6,297.4,430.4,303.5,428.9,311.3z"/>
		</g>
		<g id="freepik--rocks--inject-18_00000062887727116597255530000012826488334125116054_">
			<polygon id="freepik--Shadow--inject-18" class="st11" points="383.8,314 387.8,316.4 391,320.9 394.1,320.2 398.1,322.1 
				402.8,318.3 407.9,317.6 413.8,318.1 416.2,320.7 420.5,321.9 426.8,318.7 432.9,311.7 424.2,311.1 410.6,313.4 415.9,311.3 
				419.1,307.8 417.9,305.9 413.4,299.8 405.6,300.1 383.4,303.6 			"/>
			<g id="freepik--rocks--inject-18">
				<g id="freepik--Rock--inject-18">
					<polygon class="st1" points="397.2,290.9 387.7,297.3 384.5,301.9 390.7,302.7 398.6,306.3 400.7,301.3 397,296.4 					"/>
					<polygon class="st12" points="397.2,290.9 387.7,297.3 384.5,301.9 390.7,302.7 398.6,306.3 400.7,301.3 397,296.4 					"/>
					<polygon class="st1" points="397.2,290.9 403,291.1 404.3,297 400.7,301.3 397,296.4 					"/>
					<polygon class="st13" points="397.2,290.9 403,291.1 404.3,297 400.7,301.3 397,296.4 					"/>
					<polygon class="st1" points="411.5,297.4 412.3,302 408.1,300.6 403.1,303.3 400.8,306.1 399.1,311.7 397.4,319.5 394.9,312.8 
						398.6,306.3 402.3,302.1 407.8,300.1 					"/>
					<polygon class="st1" points="406.3,315 413.4,308.9 410.3,303.5 					"/>
					<g class="st14">
						<polygon points="411.5,297.4 412.3,302 408.1,300.6 403.1,303.3 400.8,306.1 399.1,311.7 397.4,319.5 394.9,312.8 
							398.6,306.3 402.3,302.1 407.8,300.1 						"/>
						<polygon points="406.3,315 413.4,308.9 410.3,303.5 						"/>
					</g>
					<polygon class="st1" points="391.6,294.6 388.2,298.7 387.4,300.9 390.9,301.1 398.6,306.3 390.7,302.7 384.5,301.9 
						387.7,297.3 					"/>
					<polygon class="st1" points="403,291.1 402.9,296.7 399.7,300.1 400.7,301.3 404.3,297 					"/>
					<polygon class="st1" points="394.9,312.8 390.4,312.1 381.4,309.3 375.7,305.2 377.7,302.1 381.1,301.5 378.3,302.8 378,304.9 
						381.1,307.3 394.4,311.6 398.6,306.3 					"/>
					<g class="st15">
						<polygon points="391.6,294.6 388.2,298.7 387.4,300.9 390.9,301.1 398.6,306.3 390.7,302.7 384.5,301.9 387.7,297.3 						"/>
						<polygon points="403,291.1 402.9,296.7 399.7,300.1 400.7,301.3 404.3,297 						"/>
						<polygon points="394.9,312.8 390.4,312.1 381.4,309.3 375.7,305.2 377.7,302.1 381.1,301.5 378.3,302.8 378,304.9 
							381.1,307.3 394.4,311.6 398.6,306.3 						"/>
					</g>
					<polygon class="st1" points="387.7,297.3 381.1,301.5 378.3,302.8 378,304.9 381.1,307.3 394.4,311.6 395.6,310.1 390.9,305.9 
						387.5,306.3 384.5,301.9 					"/>
					<polygon class="st13" points="387.7,297.3 381.1,301.5 378.3,302.8 378,304.9 381.1,307.3 394.4,311.6 395.6,310.1 
						390.9,305.9 387.5,306.3 384.5,301.9 					"/>
					<polygon class="st1" points="403,291.1 411.5,297.4 407.8,300.1 402.3,302.1 398.6,306.3 400.7,301.3 404.3,297 					"/>
					<polygon class="st1" points="408.1,300.6 403.1,303.3 400.8,306.1 399.1,311.7 400.7,316.8 406.3,315 410.3,303.5 					"/>
					<polygon class="st1" points="384.5,301.9 387.5,306.3 390.9,305.9 390.7,302.7 					"/>
					<polygon class="st1" points="380.1,312.6 383,313.2 384.3,311.6 390.4,312.1 381.4,309.3 					"/>
					<g class="st16">
						<polygon points="403,291.1 411.5,297.4 407.8,300.1 402.3,302.1 398.6,306.3 400.7,301.3 404.3,297 						"/>
						<polygon points="408.1,300.6 403.1,303.3 400.8,306.1 399.1,311.7 400.7,316.8 406.3,315 410.3,303.5 						"/>
						<polygon points="384.5,301.9 387.5,306.3 390.9,305.9 390.7,302.7 						"/>
						<polygon points="380.1,312.6 383,313.2 384.3,311.6 390.4,312.1 381.4,309.3 						"/>
					</g>
					<polygon class="st1" points="393,312.5 390.4,312.1 388,315 390.5,318.3 					"/>
					<polygon class="st13" points="393,312.5 390.4,312.1 388,315 390.5,318.3 					"/>
					<polygon class="st1" points="412.3,302 415.7,306.4 413.4,308.9 410.3,303.5 408.1,300.6 					"/>
					<polygon class="st1" points="397.4,319.5 400.7,316.8 399.1,311.7 					"/>
					<polygon class="st1" points="398.6,306.3 395.6,310.1 390.9,305.9 390.7,302.7 					"/>
					<polygon class="st1" points="375.7,305.2 374.3,309.1 380.1,312.6 381.4,309.3 					"/>
					<polygon class="st1" points="397.4,319.5 390.5,318.3 393,312.5 394.9,312.8 					"/>
					<polygon class="st1" points="383,313.2 388,315 390.4,312.1 384.3,311.6 					"/>
					<g class="st17">
						<polygon points="412.3,302 415.7,306.4 413.4,308.9 410.3,303.5 408.1,300.6 						"/>
						<polygon points="397.4,319.5 400.7,316.8 399.1,311.7 						"/>
						<polygon points="398.6,306.3 395.6,310.1 390.9,305.9 390.7,302.7 						"/>
						<polygon points="375.7,305.2 374.3,309.1 380.1,312.6 381.4,309.3 						"/>
						<polygon points="397.4,319.5 390.5,318.3 393,312.5 394.9,312.8 						"/>
						<polygon points="383,313.2 388,315 390.4,312.1 384.3,311.6 						"/>
					</g>
				</g>
				<g id="freepik--rock--inject-18">
					<polygon class="st1" points="420.2,303.4 415,306.9 413.2,309.5 416.6,310 421,311.9 422.1,309.2 420.1,306.5 					"/>
					<polygon class="st12" points="420.2,303.4 415,306.9 413.2,309.5 416.6,310 421,311.9 422.1,309.2 420.1,306.5 					"/>
					<polygon class="st1" points="420.2,303.4 423.4,303.5 424.1,306.8 422.1,309.2 420.1,306.5 					"/>
					<polygon class="st13" points="420.2,303.4 423.4,303.5 424.1,306.8 422.1,309.2 420.1,306.5 					"/>
					<polygon class="st1" points="428.1,307 428.5,309.5 426.2,308.8 423.4,310.3 422.2,311.8 421.3,314.9 420.3,319.2 418.9,315.5 
						421,311.9 423,309.6 426,308.5 					"/>
					<polygon class="st1" points="425.2,316.7 429.1,313.4 427.4,310.4 					"/>
					<g class="st14">
						<polygon points="428.1,307 428.5,309.5 426.2,308.8 423.4,310.3 422.2,311.8 421.3,314.9 420.3,319.2 418.9,315.5 421,311.9 
							423,309.6 426,308.5 						"/>
						<polygon points="425.2,316.7 429.1,313.4 427.4,310.4 						"/>
					</g>
					<polygon class="st1" points="417.1,305.5 415.2,307.7 414.8,309 416.7,309 421,311.9 416.6,310 413.2,309.5 415,306.9 					"/>
					<polygon class="st1" points="423.4,303.5 423.4,306.6 421.6,308.5 422.1,309.2 424.1,306.8 					"/>
					<polygon class="st1" points="418.9,315.5 416.5,315.1 411.5,313.6 408.3,311.3 409.5,309.6 411.3,309.3 409.8,310 409.6,311.2 
						411.3,312.4 418.6,314.8 421,311.9 					"/>
					<g class="st15">
						<polygon points="417.1,305.5 415.2,307.7 414.8,309 416.7,309 421,311.9 416.6,310 413.2,309.5 415,306.9 						"/>
						<polygon points="423.4,303.5 423.4,306.6 421.6,308.5 422.1,309.2 424.1,306.8 						"/>
						<polygon points="418.9,315.5 416.5,315.1 411.5,313.6 408.3,311.3 409.5,309.6 411.3,309.3 409.8,310 409.6,311.2 
							411.3,312.4 418.6,314.8 421,311.9 						"/>
					</g>
					<polygon class="st1" points="415,306.9 411.3,309.3 409.8,310 409.6,311.2 411.3,312.4 418.6,314.8 419.3,314 416.7,311.7 
						414.9,311.9 413.2,309.5 					"/>
					<polygon class="st13" points="415,306.9 411.3,309.3 409.8,310 409.6,311.2 411.3,312.4 418.6,314.8 419.3,314 416.7,311.7 
						414.9,311.9 413.2,309.5 					"/>
					<polygon class="st1" points="423.4,303.5 428.1,307 426,308.5 423,309.6 421,311.9 422.1,309.2 424.1,306.8 					"/>
					<polygon class="st1" points="426.2,308.8 423.4,310.3 422.2,311.8 421.3,314.9 422.1,317.7 425.2,316.7 427.4,310.4 					"/>
					<polygon class="st1" points="413.2,309.5 414.9,311.9 416.7,311.7 416.6,310 					"/>
					<polygon class="st1" points="410.8,315.4 412.4,315.7 413.1,314.9 416.5,315.1 411.5,313.6 					"/>
					<g class="st16">
						<polygon points="423.4,303.5 428.1,307 426,308.5 423,309.6 421,311.9 422.1,309.2 424.1,306.8 						"/>
						<polygon points="426.2,308.8 423.4,310.3 422.2,311.8 421.3,314.9 422.1,317.7 425.2,316.7 427.4,310.4 						"/>
						<polygon points="413.2,309.5 414.9,311.9 416.7,311.7 416.6,310 						"/>
						<polygon points="410.8,315.4 412.4,315.7 413.1,314.9 416.5,315.1 411.5,313.6 						"/>
					</g>
					<polygon class="st1" points="417.9,315.3 416.5,315.1 415.1,316.7 416.5,318.5 					"/>
					<polygon class="st13" points="417.9,315.3 416.5,315.1 415.1,316.7 416.5,318.5 					"/>
					<polygon class="st1" points="428.5,309.5 430.4,312 429.1,313.4 427.4,310.4 426.2,308.8 					"/>
					<polygon class="st1" points="420.3,319.2 422.1,317.7 421.3,314.9 					"/>
					<polygon class="st1" points="421,311.9 419.3,314 416.7,311.7 416.6,310 					"/>
					<polygon class="st1" points="408.3,311.3 407.6,313.4 410.8,315.4 411.5,313.6 					"/>
					<polygon class="st1" points="420.3,319.2 416.5,318.5 417.9,315.3 418.9,315.5 					"/>
					<polygon class="st1" points="412.4,315.7 415.1,316.7 416.5,315.1 413.1,314.9 					"/>
					<g class="st17">
						<polygon points="428.5,309.5 430.4,312 429.1,313.4 427.4,310.4 426.2,308.8 						"/>
						<polygon points="420.3,319.2 422.1,317.7 421.3,314.9 						"/>
						<polygon points="421,311.9 419.3,314 416.7,311.7 416.6,310 						"/>
						<polygon points="408.3,311.3 407.6,313.4 410.8,315.4 411.5,313.6 						"/>
						<polygon points="420.3,319.2 416.5,318.5 417.9,315.3 418.9,315.5 						"/>
						<polygon points="412.4,315.7 415.1,316.7 416.5,315.1 413.1,314.9 						"/>
					</g>
				</g>
			</g>
		</g>
	</g>
</g>
<g id="freepik--Clouds--inject-18">
	<path id="freepik--Cloud--inject-18" class="st3" d="M144.5,27.7c-1.6,1.2-3.9,1.2-5.9,1c-2.4-0.2-5.1-0.5-6.9,1.1
		c-0.8,0.9-1.5,1.9-2.2,2.9c-2,2.6-6.2,1-7.9,4.5c-0.2,0.5-0.2,2.1-0.8,2.3s-2.1-0.8-2.8-0.9c-2.3-0.1-4.5,0.1-6.7,0.6
		c-2,0.4-3.8,1.6-5,3.3c-0.6,0.9-1,1.9-2,2.2c-0.6,0.1-1.2,0.1-1.7-0.1c-1.9-0.7-4-1.1-6-1.1c-2.1,0.1-4.2,1.1-5,2.9
		c-0.1,0.3-0.2,0.6-0.5,0.7s-0.6-0.1-0.8-0.3c-1.6-1.2-3.6-1.6-5.5-1.1c-0.6,0.2-1.2,0.5-1.6,1c-0.5,0.7-0.5,1.7-1,2.5
		c-0.9,1.3-2.9,1-4.5,0.7c-2.1-0.4-4.5-0.7-6.1,0.6c-0.4,0.4-0.8,0.8-1.3,1.1c-1.2,0.9-3,0.7-4.5,0.7c-1,0-13,1-12.7,2
		s3.2,0.6,3.9,0.7c1,0,2,0.2,3,0.2c1-0.2,2-0.2,3,0c0.6,0.2,1.1,0.8,1.8,0.9c1.6,0.3,3.3,0.1,4.8-0.6c1.8-0.7,3.6-1.8,5.6-1.8
		c0.9,0.1,1.8,0.4,2.7,0.8c1.8,0.5,3.6,0.4,5.4-0.2c1-0.3,2.6-1.1,3.7-0.9c0.6,0.1,1.3,0.7,2,0.9c0.9,0.3,1.8,0.4,2.7,0.5
		c3.2,0.3,6.3-1.6,9.2-2.5c3.8-1.2,6-0.4,9,1.7c2.6,1.8,5.9,2.1,8.7,0.9c0.8-0.4,1.7-0.8,2.6-1.1c2.2-0.7,4.6-0.7,6.7,0.2
		c1.2,0.7,2.5,1.3,3.9,1.7c4.6,0.8,8.7-4.7,13.2-3.6c0.9,0.3,1.8,0.7,2.6,1.1c2.5,1.1,5.2,2,7.9,2.6c0.5,0.2,1,0.2,1.5,0.2
		c0.7-0.1,1.4-0.4,1.9-0.8c1.1-0.8,2.3-1.5,3.5-2c1.3-0.6,2.7-0.6,3.9,0c0.6,0.4,1.2,0.8,1.8,1.1c1.8,0.5,3.3-1.7,5.1-2
		s3.5,1.1,5.3,0.8s3.7-1.3,5.8-1.5c4.5-0.5,9.2,0.5,13.6-0.8c1.6-0.6,3.4-1,5.1-1.3c3.2-0.2,6.5,1.8,9.6,0.9c0.1,0,0.2-0.1,0.3-0.2
		c0.3-0.3,0.1-0.9-0.2-1.1c-0.4-0.2-0.8-0.2-1.3-0.1c-1.3,0.1-2.7,0-3.9-0.4c-1.3-0.5-2.6-1-3.9-1.3c-4.2-0.8-8.7,2.4-12.7,0.7
		c-1-0.6-2.1-1.1-3.1-1.5c-2.3-0.6-4.7,0.8-7,0.3c-1.9-0.3-3.3-1.8-4.5-3.2c-1.1-1.5-2.4-2.9-4-3.9c-1.7-0.9-4-0.8-5.1,0.7
		c-0.4-1.5-1-2.9-1.8-4.2c-0.8-1.3-2.2-2.2-3.8-2.3c-0.7,0.1-1.4,0-2-0.3c-0.5-0.5-0.8-1.2-0.8-1.9c-0.5-2.4-2-4.6-4.2-5.8
		c-1.5-0.8-3-1.4-4.7-1.8c-1.1-0.3-2.3,0-3.2,0.8c-0.5,0.6-1,1.3-1.4,2C145,27.2,144.7,27.5,144.5,27.7z"/>
	<path id="freepik--cloud--inject-18" class="st3" d="M241.9,62.9l-0.3,0.2c-1.8,0.8-3.9,0.1-6,0.2c-1.9,0-3.8,0.7-5.3,2
		c-0.9,0.8-1.6,1.7-2.4,2.5c-2.2,2.1-5.2,3-8.1,2.7c-0.9-0.2-1.8-0.3-2.7-0.4c-2.4,0-4.4,1.5-6.7,2.2c-5,1.5-10.4-1.2-15.4-0.3
		c-2.9,0.5-5.4,2.2-8.3,2.6c-1.8,0.2-3.6-0.1-5.4,0.4c0,1,3.8,1.3,4.6,1.3c1.9,0.1,3.9-0.2,5.7-0.8c1.1-0.5,2.3-0.9,3.4-1.3
		c2.9-0.7,5.8,0.4,8.4,1.7c1.1,0.4,2.2,0.7,3.4,0.9c1.5,0.4,2.9,1.2,4.4,1.6c2.8,1,5.9,1.1,8.8,0.2c1.7-0.6,3.2-1.7,4.9-2.1
		c2.9-0.8,6,0.3,8.7,1.8c1.6,0.9,3.4,1.9,5.2,1.7c2.6-0.3,4.2-3,6.6-4.1c3.1-1.4,7-0.2,10,1c1.7,0.8,3.4,1.4,5.2,1.8
		c1.8,0.5,3.7,0.5,5.5,0c1.3-0.5,2.6-1,4-1.3c1.6-0.2,3.3,0.3,5,0.1c0.6-0.1,1.1-0.2,1.7-0.4c1.4-0.5,2.8-0.7,4.3-0.7
		c0.1,0,0.3,0,0.4-0.1c0.1-0.1,0.1-0.2,0.1-0.3c-0.1-0.3-0.3-0.6-0.7-0.7c-0.3-0.1-0.7-0.1-1-0.1c-2.1,0-4.3,0.2-6.5,0.3
		c-1.9,0.1-3.9-0.2-5.7-0.8c-1.4-0.4-2.6-1-4-1.2c-1.3-0.4-2.3-1.2-3-2.3c-1.1-1.4-2.3-3.3-4.4-3.4c-0.4,0-0.8,0-1.1-0.2
		c-0.5-0.3-0.7-0.9-0.8-1.5c-0.9-2.5-2.6-4.5-4.9-5.8c-1.6-0.9-3.6-0.7-4.9,0.6C243.7,61.5,242.8,62.2,241.9,62.9z"/>
</g>
<g id="freepik--Sun--inject-18">
	<circle id="freepik--sun--inject-18" class="st18" cx="417.8" cy="65.4" r="14.1"/>
</g>
<g id="freepik--Plants--inject-18">
	<g id="freepik--Tree--inject-18">
		<g id="freepik--tree--inject-18">
			<path class="st1" d="M72.9,225.7c0.8-0.1,1.6,0.1,2.3,0.4c1.3,0.7,2.6,1.6,3.7,2.6c1.2,1,2.6,1.6,4.1,1.8c1.6,0.1,3-0.9,3.4-2.4
				c0-0.3,0.1-0.5,0.2-0.8c0.3-0.4,0.8-0.5,1.3-0.3c0.4,0.2,0.8,0.4,1.2,0.7c1.5,0.9,3.4,0.7,5.2,0.4c1.5-0.2,3.3-0.9,3.3-2.3
				c0-1-0.8-1.7-1.5-2.4s-1.2-1.8-0.6-2.6c0.2-0.2,0.5-0.4,0.8-0.5c1.8-0.6,4.1,0.2,5.6-0.9c1.1-1,1.5-2.5,0.8-3.9
				c-0.7-1.3-1.9-2.2-3.3-2.5c-1.2-0.3-2.8-0.5-3.2-1.6c-0.4-1,0.4-2.1,1.3-2.8c1-0.5,1.9-1.2,2.6-2c0.6-1,0.7-2.2,0.1-3.3
				c-0.6-1-1.6-1.7-2.8-1.9c-0.6,0-1.1-0.2-1.7-0.4c-0.5-0.2-0.8-0.9-0.6-1.4c0.2-0.3,0.5-0.5,0.7-0.7c0.3-0.6,0.1-1.4-0.5-1.7
				c-0.6-0.3-1.2-0.6-1.9-0.7c-1.3-0.4-1.4-1.7-1-3s1.1-1.9,1.7-3.2c0.4-1.3-0.2-2.6-1.4-3.3c-1.1-0.6-2.3-1.1-3.5-1.6
				c-1.2-0.5-2.1-1.5-2.3-2.8c-0.1-1.3,0.9-2.4,1.7-3.5s1.5-2.5,0.8-3.6s-2.2-1.1-3.4-1.5c-1.5-0.5-2.7-1.6-3.3-3
				c-0.3-0.7-0.5-1.6-0.9-2.3c-1.2-2.2-4.2-3.2-6.5-2.9c-1,0.1-1.8,0.6-2.2,1.5c-0.4,0.4-0.7,1-0.8,1.5c-0.2,0.9,0.3,2-0.2,2.8
				s-1.7,1.2-2.4,1.8c-0.8,0.8-1.2,1.9-1.2,3.1c0,0.5,0,0.9,0.1,1.4c0.2,0.7,0.4,1.3,0.5,2c0,0.8-0.5,1.6-1.2,2.1
				c-0.7,0.4-1.5,0.6-2.2,0.5c-1.3,0-2.4-0.1-3.4,0.9c-1.7,1.7-0.7,3.3,0.8,4.7c1.7,1.5,0.8,2.2,0.6,4.2c-0.1,0.9,0.1,1.2-0.7,1.9
				c-1.6,1.2-2.5,0.8-2.1,3.1c0.4,2.1-0.2,1.4-2.1,2.2c-1.6,0.7-2.7,2.5-4.1,3.6c-0.8,0.7-2.2,1.2-2.2,2.5c-0.2,2.4,2.8,1.9,4.2,2.4
				c2.3,0.9,1.6,3.9-0.2,5.1s-4.7,1.6-4.8,4.4c-0.1,2.1,1.1,2.6,2.7,3.2c1.3,0.6,1.1,0.7,1.1,2.3c0,3.1,1,4,4.1,3.5
				c1-0.3,2-0.4,3-0.2c1.2,0.4,0.8,0.6,0.8,1.6c0.1,2.5,3,1.8,4.3,0.7C69.1,227.3,70.9,225.9,72.9,225.7z"/>
			<path class="st19" d="M72.9,225.7c0.8-0.1,1.6,0.1,2.3,0.4c1.3,0.7,2.6,1.6,3.7,2.6c1.2,1,2.6,1.6,4.1,1.8c1.6,0.1,3-0.9,3.4-2.4
				c0-0.3,0.1-0.5,0.2-0.8c0.3-0.4,0.8-0.5,1.3-0.3c0.4,0.2,0.8,0.4,1.2,0.7c1.5,0.9,3.4,0.7,5.2,0.4c1.5-0.2,3.3-0.9,3.3-2.3
				c0-1-0.8-1.7-1.5-2.4s-1.2-1.8-0.6-2.6c0.2-0.2,0.5-0.4,0.8-0.5c1.8-0.6,4.1,0.2,5.6-0.9c1.1-1,1.5-2.5,0.8-3.9
				c-0.7-1.3-1.9-2.2-3.3-2.5c-1.2-0.3-2.8-0.5-3.2-1.6c-0.4-1,0.4-2.1,1.3-2.8c1-0.5,1.9-1.2,2.6-2c0.6-1,0.7-2.2,0.1-3.3
				c-0.6-1-1.6-1.7-2.8-1.9c-0.6,0-1.1-0.2-1.7-0.4c-0.5-0.2-0.8-0.9-0.6-1.4c0.2-0.3,0.5-0.5,0.7-0.7c0.3-0.6,0.1-1.4-0.5-1.7
				c-0.6-0.3-1.2-0.6-1.9-0.7c-1.3-0.4-1.4-1.7-1-3s1.1-1.9,1.7-3.2c0.4-1.3-0.2-2.6-1.4-3.3c-1.1-0.6-2.3-1.1-3.5-1.6
				c-1.2-0.5-2.1-1.5-2.3-2.8c-0.1-1.3,0.9-2.4,1.7-3.5s1.5-2.5,0.8-3.6s-2.2-1.1-3.4-1.5c-1.5-0.5-2.7-1.6-3.3-3
				c-0.3-0.7-0.5-1.6-0.9-2.3c-1.2-2.2-4.2-3.2-6.5-2.9c-1,0.1-1.8,0.6-2.2,1.5c-0.4,0.4-0.7,1-0.8,1.5c-0.2,0.9,0.3,2-0.2,2.8
				s-1.7,1.2-2.4,1.8c-0.8,0.8-1.2,1.9-1.2,3.1c0,0.5,0,0.9,0.1,1.4c0.2,0.7,0.4,1.3,0.5,2c0,0.8-0.5,1.6-1.2,2.1
				c-0.7,0.4-1.5,0.6-2.2,0.5c-1.3,0-2.4-0.1-3.4,0.9c-1.7,1.7-0.7,3.3,0.8,4.7c1.7,1.5,0.8,2.2,0.6,4.2c-0.1,0.9,0.1,1.2-0.7,1.9
				c-1.6,1.2-2.5,0.8-2.1,3.1c0.4,2.1-0.2,1.4-2.1,2.2c-1.6,0.7-2.7,2.5-4.1,3.6c-0.8,0.7-2.2,1.2-2.2,2.5c-0.2,2.4,2.8,1.9,4.2,2.4
				c2.3,0.9,1.6,3.9-0.2,5.1s-4.7,1.6-4.8,4.4c-0.1,2.1,1.1,2.6,2.7,3.2c1.3,0.6,1.1,0.7,1.1,2.3c0,3.1,1,4,4.1,3.5
				c1-0.3,2-0.4,3-0.2c1.2,0.4,0.8,0.6,0.8,1.6c0.1,2.5,3,1.8,4.3,0.7C69.1,227.3,70.9,225.9,72.9,225.7z"/>
			<path class="st20" d="M97.4,225.1c-0.1-0.3-0.3-0.6-0.6-0.9c-0.2-0.3-0.5-0.5-0.8-0.8c-0.3-0.4-0.6-0.8-0.8-1.3
				c-0.2-0.4-0.1-0.9,0.2-1.3c0.1-0.1,0.2-0.2,0.4-0.3c0.1-0.1,0.3-0.2,0.5-0.2c0.2-0.1,0.4-0.1,0.7-0.1h0.2c0.2,0,0.3,0,0.5-0.1
				h0.2c0.5,0,1.1,0,1.6,0h0.3c0.1,0,0.2,0,0.3,0h0.3l0.3-0.1l0,0c-0.8-0.2-1.6-0.3-2.5-0.4c-2-0.1-4,0.7-5.4,2.1
				c0.7,0.9,1.1,1.9,1.1,3c-3.5,1-6.9-3.7-10.2-2.3c0.2,1.7,0,3.9-1.6,4.3c-1,0.1-2-0.4-2.5-1.2c-0.6-0.8-1-1.7-1.6-2.5
				c-0.9-1.2-2.3-1.9-3.8-1.9c-0.6,0.1-1.2,0.1-1.8,0.1c-0.9-0.3-1.7-0.8-2.5-1.4c-0.8-0.4-1.7-1.1-1.5-1.9s1.1-1.2,1.6-1.8
				c0.6-0.7,0.7-1.6,0.4-2.4c-0.3-0.7-1-1.2-1.1-2c-0.1-1,0.9-1.9,1-2.9c-0.1-1-0.8-1.9-1.7-2.2c-0.9-0.3-1.8-0.8-2.6-1.3
				c-0.8-0.6-1-1.8-0.4-2.6c0.2-0.2,0.6-0.4,0.7-0.7c0-0.3,0-0.5-0.2-0.8c-0.8-1-1.7-1.8-2.8-2.5c-1-0.8-2.8-2.4-2.1-3.4
				c-0.3,0.3-0.4,0.8-0.2,1.9c0.4,2.1-0.2,1.4-2.1,2.2c-1.6,0.7-2.7,2.5-4.1,3.6l0,0c-0.2,0.2-0.5,0.3-0.7,0.5c-0.7,0.5-1.5,1-1.5,2
				c0,0.3,0,0.5,0.1,0.8c0.1,0.2,0.2,0.4,0.3,0.5c0.1,0.1,0.1,0.1,0.2,0.2c0.2,0.1,0.4,0.2,0.6,0.3c1,0.3,2.2,0.3,3,0.6
				c0.3,0.1,0.5,0.2,0.7,0.4c0.5,0.4,0.7,1,0.7,1.6c0,1.2-0.6,2.3-1.6,3c-0.2,0.1-0.5,0.3-0.8,0.4c-0.5,0.3-1.1,0.5-1.6,0.8
				c-0.4,0.2-0.8,0.4-1.1,0.7c-0.8,0.6-1.4,1.5-1.4,2.5c-0.2,1.3,0.6,2.5,1.8,2.9c0.3,0.1,0.5,0.2,0.9,0.4c0.8,0.4,1,0.6,1.1,1
				c0,0.2,0,0.5,0,0.7v0.5c0,0.7,0,1.3,0.2,1.9c0.1,0.7,0.6,1.2,1.2,1.5c0.5,0.2,1.1,0.2,1.6,0.2c0.3,0,0.7-0.1,1.1-0.1
				c0.7-0.2,1.5-0.3,2.3-0.3c0.2,0,0.5,0,0.7,0.1c0.3,0.1,0.6,0.2,0.8,0.4l0,0c0.2,0.3,0,0.6,0,1.2c0,0.5,0.2,1,0.5,1.3
				c0.1,0.1,0.2,0.1,0.2,0.2c0.3,0.1,0.6,0.2,0.9,0.2c0.1,0,0.2,0,0.3,0c0.6-0.1,1.2-0.3,1.7-0.6c0.2-0.1,0.4-0.2,0.5-0.4l0.8-0.7
				c0.7-0.6,1.4-1.1,2.2-1.5c0.7-0.3,1.4-0.6,2.1-0.7c0.4-0.1,0.7-0.1,1.1,0c0.4,0.1,0.8,0.2,1.1,0.4c0.3,0.2,0.7,0.3,1,0.6
				c0.3,0.2,0.6,0.4,0.9,0.7c0.6,0.5,1.2,1,1.8,1.4c0.7,0.6,1.6,1.1,2.4,1.4c0.5,0.2,1.1,0.3,1.7,0.3c1.2,0.1,2.3-0.5,3-1.4
				c0.2-0.3,0.4-0.6,0.4-1c0-0.1,0-0.3,0.1-0.4c0-0.1,0.1-0.3,0.1-0.4c0.1-0.1,0.1-0.2,0.2-0.2c0.2-0.1,0.4-0.2,0.7-0.2
				c0.1,0,0.2,0,0.4,0.1c0.4,0.2,0.8,0.4,1.2,0.7c0.6,0.3,1.2,0.5,1.9,0.6l0.7,0.1h0.7c0.7,0,1.3-0.1,2-0.2c1.1-0.1,2.2-0.6,3-1.4
				c0.2-0.3,0.3-0.6,0.3-1C97.6,225.6,97.5,225.3,97.4,225.1z"/>
			<path class="st21" d="M68.1,200l8.4,16.6V209l0.9-32.6l1.2,32.6v5.1l9.2-16.1l-9.2,19.8V262c0,0.2-0.1,0.4-0.3,0.4
				c-0.5,0.2-1,0.2-1.5,0c-0.2-0.1-0.3-0.2-0.3-0.4v-41.1L68.1,200z"/>
		</g>
		<g id="freepik--Bush--inject-18">
			<path id="freepik--bush--inject-18" class="st8" d="M68.4,264c4.1,0.6,7.8-0.5,8.4-4.9c0.5-3.6,0.5-7.4,0-11
				c-0.2-1.3-0.7-2.9-1.9-3.2c-1.1-0.2-2.2,0.4-2.7,1.5c-0.4,1-0.5,2.1-0.4,3.2c-0.7-1.4-1.6-3.1-3.2-3.1s-2.6,1.5-2.6,3
				c0.1,1.5,0.5,2.9,1.3,4.1c-1.1-0.3-2.3-0.1-3.2,0.5c-0.9,1-0.9,2.5-0.1,3.6c0.9,1,2,1.8,3.2,2.3c-0.7-0.3-1.6,0-1.9,0.7
				c0,0.1-0.1,0.1-0.1,0.2c-0.2,0.8,0.1,1.7,0.8,2.2C66.7,263.6,67.6,263.9,68.4,264z"/>
			<g id="freepik--bush--inject-18_00000133519603662107322380000005978870529204696452_">
				<path id="freepik--bush--inject-18_00000049191355135081457380000015794712194504593038_" class="st1" d="M75.6,265.7l9.8-5.7
					c0.8-0.5,1.6-1.2,2.1-2c0.6-0.7,1-1.6,1.2-2.5c0.1-0.3,0.1-0.7-0.1-1c-0.3-0.5-1.2-0.3-1.7,0.1c-0.5,0.4-0.9,0.9-1.3,1.3
					c0.2-1.1,0.3-2.3,0.2-3.4c0-0.4-0.1-0.8-0.4-1.1c-0.4-0.3-1-0.3-1.4,0c-1.3,0.7-1.8,2.2-2.3,3.6c0.2-1.4,0.2-2.9-0.1-4.3
					c-0.3-1.5-2.1-2.1-2.7-0.7c-0.3,0.8-0.5,1.6-0.5,2.5c-0.1,1.1,0,2.2,0.2,3.3c-0.6-1.3-1.5-2.6-2.6-3.5c-0.4-0.4-0.9-0.6-1.5-0.5
					c-0.6,0.2-0.7,1.1-0.7,1.7c0.1,1.4,0.6,2.8,1.3,4c-1-0.7-2.2-1.1-3.3-1.3c-0.4-0.1-0.8,0-1,0.3c-0.2,0.5-0.1,1,0.2,1.4
					c0.7,1,1.6,1.8,2.6,2.5c-1-0.3-2.1-0.4-3.2-0.3c-0.3,0-0.6,0.1-0.9,0.4c-0.3,0.4,0.1,1,0.4,1.3c0.7,0.6,1.5,1,2.3,1.4
					c-0.5,0-1,0.1-1.4,0.2c-0.5,0.2-0.7,0.7-0.7,1.2c0.2,0.5,0.5,0.8,1,0.9C73.1,265.8,73.7,266,75.6,265.7z"/>
			</g>
		</g>
	</g>
	<g id="freepik--tree--inject-18_00000076602947017333230630000000741640379241937077_">
		<g id="freepik--tree--inject-18_00000167359870619747317620000017366152830582699936_">
			<path class="st1" d="M35.2,234.9c0.9-0.1,1.8,0.1,2.6,0.5c1.5,0.9,3,1.9,4.3,3c1.3,1.1,3,1.8,4.8,2c1.8,0.2,3.5-1,4-2.8
				c0-0.3,0.1-0.6,0.2-0.9c0.4-0.4,1-0.6,1.5-0.4c0.5,0.2,1,0.5,1.4,0.8c1.8,1,4,0.8,6,0.5c1.7-0.2,3.8-1,3.8-2.7
				c0-1.1-1-1.9-1.8-2.8s-1.4-2.1-0.7-3c0.3-0.3,0.6-0.5,1-0.6c2.1-0.7,4.7,0.2,6.5-1.1c1.3-1.1,1.7-2.9,0.9-4.5
				c-0.8-1.4-2.2-2.5-3.8-2.8c-1.4-0.4-3.2-0.5-3.8-1.9c-0.5-1.2,0.5-2.5,1.5-3.2s2.3-1.2,3-2.3c0.7-1.1,0.8-2.6,0.1-3.8
				c-0.7-1.2-1.9-2-3.2-2.2c-0.7-0.1-1.3-0.2-1.9-0.4c-0.6-0.3-1-1-0.7-1.6c0.2-0.4,0.6-0.5,0.8-0.9c0.4-0.7,0.1-1.6-0.6-2
				c-0.7-0.4-1.4-0.7-2.2-0.8c-1.5-0.5-3-2-2.6-3.6s2.7-2.1,3.3-3.7c0.6-1.4-0.3-3-1.6-3.8c-1.3-0.7-2.7-1.3-4.1-1.8
				c-1.3-0.6-2.7-1.8-2.8-3.2s1-2.8,2-4s1.7-2.9,0.9-4.2s-2.5-1.3-3.9-1.8c-1.7-0.6-3.1-1.8-3.9-3.5c-0.4-0.9-0.5-1.8-1-2.6
				c-1.4-2.6-4.9-3.7-7.6-3.4c-1.1,0.1-2.1,0.7-2.6,1.8c-0.5,0.5-0.8,1.1-0.9,1.8c-0.2,1.2,0.5,2.8-0.7,3.8
				c-1.8,1.4-4.5-0.5-4.4,2.7c0,1.4,0.2,2.7,0.6,4c0.5,1.3,1.5,1.9,0.6,3.4c-1,2-1.7,2-3.8,1.9c-1.5,0-2.8-0.1-3.9,1.1
				c-2,2-0.8,3.8,0.9,5.4c2,1.8,0.9,2.6,0.7,4.8c-0.1,1.1,0.1,1.4-0.9,2.2c-1.9,1.4-2.9,0.9-2.4,3.6c0.5,2.5-0.3,1.6-2.4,2.5
				c-1.9,0.8-3.2,2.9-4.7,4.1c-1,0.8-2.5,1.4-2.6,2.9c-0.2,2.8,3.2,2.2,4.9,2.8c2.7,1.1,1.9,4.6-0.2,5.9s-5.4,1.9-5.6,5
				c-0.1,2.4,1.2,3,3.1,3.8c1.5,0.6,1.3,0.8,1.3,2.6c0,3.6,1.2,4.6,4.8,4.1c1.1-0.3,2.3-0.4,3.4-0.3c1.4,0.4,0.9,0.8,0.9,1.9
				c0.1,2.9,3.5,2.1,4.9,0.8C30.9,236.8,32.9,235.1,35.2,234.9z"/>
			<path class="st22" d="M35.2,234.9c0.9-0.1,1.8,0.1,2.6,0.5c1.5,0.9,3,1.9,4.3,3c1.3,1.1,3,1.8,4.8,2c1.8,0.2,3.5-1,4-2.8
				c0-0.3,0.1-0.6,0.2-0.9c0.4-0.4,1-0.6,1.5-0.4c0.5,0.2,1,0.5,1.4,0.8c1.8,1,4,0.8,6,0.5c1.7-0.2,3.8-1,3.8-2.7
				c0-1.1-1-1.9-1.8-2.8s-1.4-2.1-0.7-3c0.3-0.3,0.6-0.5,1-0.6c2.1-0.7,4.7,0.2,6.5-1.1c1.3-1.1,1.7-2.9,0.9-4.5
				c-0.8-1.4-2.2-2.5-3.8-2.8c-1.4-0.4-3.2-0.5-3.8-1.9c-0.5-1.2,0.5-2.5,1.5-3.2s2.3-1.2,3-2.3c0.7-1.1,0.8-2.6,0.1-3.8
				c-0.7-1.2-1.9-2-3.2-2.2c-0.7-0.1-1.3-0.2-1.9-0.4c-0.6-0.3-1-1-0.7-1.6c0.2-0.4,0.6-0.5,0.8-0.9c0.4-0.7,0.1-1.6-0.6-2
				c-0.7-0.4-1.4-0.7-2.2-0.8c-1.5-0.5-3-2-2.6-3.6s2.7-2.1,3.3-3.7c0.6-1.4-0.3-3-1.6-3.8c-1.3-0.7-2.7-1.3-4.1-1.8
				c-1.3-0.6-2.7-1.8-2.8-3.2s1-2.8,2-4s1.7-2.9,0.9-4.2s-2.5-1.3-3.9-1.8c-1.7-0.6-3.1-1.8-3.9-3.5c-0.4-0.9-0.5-1.8-1-2.6
				c-1.4-2.6-4.9-3.7-7.6-3.4c-1.1,0.1-2.1,0.7-2.6,1.8c-0.5,0.5-0.8,1.1-0.9,1.8c-0.2,1.2,0.5,2.8-0.7,3.8
				c-1.8,1.4-4.5-0.5-4.4,2.7c0,1.4,0.2,2.7,0.6,4c0.5,1.3,1.5,1.9,0.6,3.4c-1,2-1.7,2-3.8,1.9c-1.5,0-2.8-0.1-3.9,1.1
				c-2,2-0.8,3.8,0.9,5.4c2,1.8,0.9,2.6,0.7,4.8c-0.1,1.1,0.1,1.4-0.9,2.2c-1.9,1.4-2.9,0.9-2.4,3.6c0.5,2.5-0.3,1.6-2.4,2.5
				c-1.9,0.8-3.2,2.9-4.7,4.1c-1,0.8-2.5,1.4-2.6,2.9c-0.2,2.8,3.2,2.2,4.9,2.8c2.7,1.1,1.9,4.6-0.2,5.9s-5.4,1.9-5.6,5
				c-0.1,2.4,1.2,3,3.1,3.8c1.5,0.6,1.3,0.8,1.3,2.6c0,3.6,1.2,4.6,4.8,4.1c1.1-0.3,2.3-0.4,3.4-0.3c1.4,0.4,0.9,0.8,0.9,1.9
				c0.1,2.9,3.5,2.1,4.9,0.8C30.9,236.8,32.9,235.1,35.2,234.9z"/>
			<path class="st20" d="M62.3,228.7c1.6-0.5,3.5-0.1,5.1-0.5c-0.9-0.2-1.9-0.4-2.9-0.4c-2.3-0.1-4.6,0.8-6.2,2.5
				c0.9,1.1,1.3,2.4,1.2,3.8c-4,1.1-8-4.3-11.8-2.7c0.2,1.9,0,4.6-1.9,5c-1.2,0.1-2.3-0.5-2.9-1.4c-0.7-0.9-1.1-2-1.8-2.9
				c-2-2.4-5.6-3-8.2-1.2c-1,0.8-2.4,1.9-3.4,1.1s-0.4-3-1.7-3.6c-0.8-0.4-2,0.2-2.7-0.4c-0.3-0.3-0.4-0.6-0.5-1
				c-0.5-2.1-0.9-4.4,0.4-6.1c1.2-1.5,3.6-2.4,3.3-4.3c-0.2-1.6-2.2-2.1-3.9-2.3s-3.6-0.9-3.5-2.6s2.2-2.4,2.5-3.9
				c0.1-0.7-0.1-1.4,0.2-2c0.5-0.9,1.8-1,2.5-1.6c1.4-1.2,0.3-3.5,0.7-5.3c0.3-1.3,1.3-2.3,1.6-3.5c0.7-2.5-1.6-4.9-4-5.9
				c-0.9-0.3-1.8-0.7-2.7-1.2l-0.1-0.1c0.2,1.3,0.9,2.4,2,3.1c2,1.8,0.9,2.6,0.7,4.8c-0.1,1.1,0.1,1.4-0.9,2.2
				c-1.9,1.4-2.9,0.9-2.4,3.6c0.5,2.5-0.3,1.6-2.4,2.5c-1.9,0.8-3.2,2.9-4.7,4.1c-1,0.8-2.5,1.4-2.6,2.9c-0.2,2.8,3.2,2.2,4.9,2.8
				c2.7,1.1,1.9,4.6-0.2,5.9s-5.4,1.9-5.6,5c-0.1,2.4,1.2,3,3.1,3.8c1.5,0.6,1.3,0.8,1.3,2.6c0,3.6,1.2,4.6,4.8,4.1
				c1.1-0.3,2.3-0.4,3.4-0.3c1.4,0.4,0.9,0.8,0.9,1.9c0.1,2.9,3.5,2.1,4.9,0.8c1.7-1.4,3.7-3.1,6-3.3c0.9-0.1,1.8,0.1,2.6,0.5
				c1.5,0.9,3,1.9,4.3,3c1.3,1.1,3,1.8,4.8,2c1.8,0.2,3.5-1,4-2.8c0-0.3,0.1-0.6,0.2-0.9c0.4-0.4,1-0.6,1.5-0.4
				c0.5,0.2,1,0.5,1.4,0.8c1.8,1,4,0.8,6,0.5c1.7-0.2,3.8-1,3.8-2.7c0-1.1-1-1.9-1.8-2.8s-1.4-2.1-0.7-3
				C61.7,228.9,62,228.8,62.3,228.7z"/>
			<path class="st21" d="M29.6,205.1l9.7,19.3v-8.9l1-37.8l1.4,37.8v6l10.7-18.7l-10.7,22.9v58.5c0,0.2-0.2,0.4-0.3,0.5
				c-0.5,0.3-1.2,0.3-1.7,0c-0.2-0.1-0.3-0.3-0.4-0.5v-55L29.6,205.1z"/>
		</g>
		<g id="freepik--bush--inject-18_00000038397499220332720240000010902539831121573259_">
			<path id="freepik--bush--inject-18_00000155852923440678284310000000152979969947847869_" class="st8" d="M33.8,288.8
				c2.8,0.4,5.3-0.3,5.7-3.3c0.4-2.5,0.4-5,0-7.5c-0.1-0.9-0.4-2-1.3-2.2c-0.8-0.1-1.5,0.3-1.8,1c-0.3,0.7-0.4,1.4-0.3,2.2
				c-0.4-1-1.1-2.1-2.2-2.1c-1,0.1-1.8,1-1.8,2c0.1,1,0.4,2,0.9,2.8c-0.7-0.2-1.5-0.1-2.2,0.3c-0.6,0.7-0.7,1.7-0.1,2.5
				c0.6,0.7,1.3,1.2,2.2,1.6c-0.5-0.2-1.1,0.1-1.3,0.6c0,0,0,0.1,0,0.1c-0.1,0.6,0.1,1.1,0.6,1.5C32.6,288.6,33.2,288.8,33.8,288.8z
				"/>
			<g id="freepik--bush--inject-18_00000111160900553848189170000009979383224410990988_">
				<path id="freepik--bush--inject-18_00000137123353439602919610000009334823759177477007_" class="st1" d="M38.6,290l6.7-3.8
					c0.6-0.4,1-0.8,1.4-1.4c0.4-0.5,0.7-1.1,0.8-1.7c0.1-0.2,0-0.5-0.1-0.7c-0.2-0.4-0.8-0.2-1.1,0.1c-0.3,0.3-0.6,0.6-0.9,0.9
					c0.1-0.8,0.2-1.5,0.1-2.3c0-0.3-0.1-0.6-0.3-0.8c-0.3-0.2-0.6-0.2-0.9,0c-0.8,0.6-1.4,1.5-1.5,2.5c0.2-1,0.1-2-0.1-2.9
					c-0.2-1-1.4-1.5-1.8-0.5c-0.2,0.5-0.3,1.1-0.3,1.7c-0.1,0.7,0,1.5,0.2,2.2c-0.4-0.9-1-1.8-1.8-2.5c-0.2-0.3-0.6-0.4-1-0.4
					c-0.4,0.2-0.5,0.7-0.5,1.2c0.1,1,0.4,1.9,0.9,2.7c-0.7-0.4-1.4-0.7-2.2-0.9c-0.3-0.1-0.5,0-0.7,0.2c-0.1,0.3-0.1,0.7,0.2,0.9
					c0.5,0.7,1.1,1.2,1.8,1.7c-0.7-0.2-1.5-0.3-2.2-0.2c-0.2,0-0.4,0.1-0.6,0.2c-0.2,0.3,0,0.6,0.3,0.9c0.5,0.4,1,0.7,1.6,0.9
					c-0.3,0-0.7,0-1,0.2c-0.3,0.1-0.5,0.5-0.5,0.8c0.1,0.3,0.4,0.5,0.7,0.6C36.5,290.1,37.6,290.2,38.6,290z"/>
			</g>
		</g>
	</g>
	<g id="freepik--tree--inject-18_00000111176669568378571470000008103088996692308641_">
		<g id="freepik--tree--inject-18_00000059274602148309344640000013410994578704326320_">
			<path class="st1" d="M431.9,224.2c-0.8-0.1-1.6,0.1-2.3,0.4c-1.3,0.8-2.6,1.6-3.7,2.6c-1.2,1-2.6,1.6-4.1,1.8
				c-1.6,0.1-3-0.9-3.4-2.4c0-0.3-0.1-0.5-0.2-0.8c-0.3-0.4-0.8-0.5-1.3-0.3c-0.4,0.2-0.9,0.4-1.2,0.7c-1.5,0.9-3.5,0.7-5.2,0.4
				c-1.5-0.2-3.3-0.9-3.3-2.3c0-1,0.9-1.7,1.5-2.4s1.2-1.8,0.6-2.6c-0.2-0.3-0.5-0.4-0.9-0.5c-1.8-0.6-4.1,0.2-5.6-0.9
				c-1.1-1-1.4-2.5-0.8-3.9c0.7-1.3,1.9-2.2,3.3-2.5c1.2-0.3,2.8-0.5,3.2-1.6s-0.4-2.2-1.3-2.8c-1-0.5-1.9-1.2-2.6-2
				c-0.6-1-0.7-2.2-0.1-3.3c0.6-1,1.6-1.7,2.7-1.9c0.6,0,1.1-0.2,1.7-0.4c0.5-0.2,0.8-0.8,0.6-1.4c-0.2-0.3-0.5-0.5-0.7-0.7
				c-0.3-0.6-0.1-1.4,0.5-1.7c0.6-0.3,1.2-0.6,1.9-0.7c1.3-0.4,2.6-1.7,2.2-3.1s-2.3-1.9-2.9-3.2c-0.4-1.3,0.2-2.6,1.4-3.3
				c1.1-0.6,2.3-1.1,3.5-1.6c1.2-0.5,2.1-1.5,2.4-2.8c0.1-1.3-0.9-2.4-1.7-3.5s-1.5-2.5-0.8-3.6s2.2-1.1,3.4-1.5
				c1.5-0.5,2.7-1.6,3.3-3c0.3-0.7,0.5-1.6,0.9-2.3c1.2-2.2,4.2-3.2,6.5-2.9c1,0.1,1.8,0.6,2.2,1.5c0.4,0.4,0.7,1,0.8,1.5
				c0.2,1.1-0.4,2.4,0.6,3.2c1.5,1.2,3.9-0.4,3.8,2.4c0,1.2-0.2,2.3-0.5,3.4c-0.4,1.2-1.2,1.7-0.6,3c0.9,1.7,1.5,1.7,3.3,1.7
				c1.3,0,2.4-0.1,3.4,0.9c1.7,1.7,0.7,3.3-0.8,4.7c-1.7,1.5-0.8,2.2-0.6,4.2c0.1,0.9-0.1,1.2,0.7,1.9c1.6,1.2,2.5,0.8,2.1,3.1
				c-0.4,2.1,0.2,1.4,2.1,2.2c1.6,0.7,2.7,2.5,4.1,3.6c0.9,0.7,2.2,1.3,2.2,2.5c0.1,2.4-2.8,1.9-4.2,2.4c-2.3,0.9-1.6,3.9,0.2,5.1
				s4.7,1.6,4.8,4.4c0.1,2.1-1.1,2.6-2.7,3.3c-1.3,0.6-1.1,0.7-1.1,2.3c0,3.1-1,4-4.1,3.5c-1-0.3-2-0.4-3-0.2
				c-1.2,0.4-0.8,0.6-0.8,1.6c-0.1,2.5-3,1.8-4.3,0.7C435.7,225.8,433.9,224.4,431.9,224.2z"/>
			<path class="st19" d="M431.9,224.2c-0.8-0.1-1.6,0.1-2.3,0.4c-1.3,0.8-2.6,1.6-3.7,2.6c-1.2,1-2.6,1.6-4.1,1.8
				c-1.6,0.1-3-0.9-3.4-2.4c0-0.3-0.1-0.5-0.2-0.8c-0.3-0.4-0.8-0.5-1.3-0.3c-0.4,0.2-0.9,0.4-1.2,0.7c-1.5,0.9-3.5,0.7-5.2,0.4
				c-1.5-0.2-3.3-0.9-3.3-2.3c0-1,0.9-1.7,1.5-2.4s1.2-1.8,0.6-2.6c-0.2-0.3-0.5-0.4-0.9-0.5c-1.8-0.6-4.1,0.2-5.6-0.9
				c-1.1-1-1.4-2.5-0.8-3.9c0.7-1.3,1.9-2.2,3.3-2.5c1.2-0.3,2.8-0.5,3.2-1.6s-0.4-2.2-1.3-2.8c-1-0.5-1.9-1.2-2.6-2
				c-0.6-1-0.7-2.2-0.1-3.3c0.6-1,1.6-1.7,2.7-1.9c0.6,0,1.1-0.2,1.7-0.4c0.5-0.2,0.8-0.8,0.6-1.4c-0.2-0.3-0.5-0.5-0.7-0.7
				c-0.3-0.6-0.1-1.4,0.5-1.7c0.6-0.3,1.2-0.6,1.9-0.7c1.3-0.4,2.6-1.7,2.2-3.1s-2.3-1.9-2.9-3.2c-0.4-1.3,0.2-2.6,1.4-3.3
				c1.1-0.6,2.3-1.1,3.5-1.6c1.2-0.5,2.1-1.5,2.4-2.8c0.1-1.3-0.9-2.4-1.7-3.5s-1.5-2.5-0.8-3.6s2.2-1.1,3.4-1.5
				c1.5-0.5,2.7-1.6,3.3-3c0.3-0.7,0.5-1.6,0.9-2.3c1.2-2.2,4.2-3.2,6.5-2.9c1,0.1,1.8,0.6,2.2,1.5c0.4,0.4,0.7,1,0.8,1.5
				c0.2,1.1-0.4,2.4,0.6,3.2c1.5,1.2,3.9-0.4,3.8,2.4c0,1.2-0.2,2.3-0.5,3.4c-0.4,1.2-1.2,1.7-0.6,3c0.9,1.7,1.5,1.7,3.3,1.7
				c1.3,0,2.4-0.1,3.4,0.9c1.7,1.7,0.7,3.3-0.8,4.7c-1.7,1.5-0.8,2.2-0.6,4.2c0.1,0.9-0.1,1.2,0.7,1.9c1.6,1.2,2.5,0.8,2.1,3.1
				c-0.4,2.1,0.2,1.4,2.1,2.2c1.6,0.7,2.7,2.5,4.1,3.6c0.9,0.7,2.2,1.3,2.2,2.5c0.1,2.4-2.8,1.9-4.2,2.4c-2.3,0.9-1.6,3.9,0.2,5.1
				s4.7,1.6,4.8,4.4c0.1,2.1-1.1,2.6-2.7,3.3c-1.3,0.6-1.1,0.7-1.1,2.3c0,3.1-1,4-4.1,3.5c-1-0.3-2-0.4-3-0.2
				c-1.2,0.4-0.8,0.6-0.8,1.6c-0.1,2.5-3,1.8-4.3,0.7C435.7,225.8,433.9,224.4,431.9,224.2z"/>
			<path class="st20" d="M448.2,211.6c-1.8-1.1-2.5-4.1-0.2-5.1c1.4-0.6,4.4-0.1,4.2-2.4c-0.1-1.2-1.4-1.8-2.2-2.5
				c-1.3-1.1-2.4-2.9-4.1-3.6c-1.9-0.8-2.5-0.1-2.1-2.2c0.5-2.3-0.5-1.9-2.1-3.1c-0.8-0.6-0.7-0.9-0.7-1.7c-0.4,0.4-0.7,0.8-0.9,1.2
				c-0.6,1.3-0.1,2.9,0.6,4.2c0.5,1,1.1,2.3,0.3,3.1c-0.4,0.3-0.9,0.5-1.4,0.6c-0.9,0.4-1.5,1.2-1.7,2.2c-0.1,1,0.4,2.2,0,3.1
				c-0.4,0.6-0.9,1.1-1.5,1.5c-1.3,0.7-2.3,2-2.6,3.5c-0.2,2.1,1.6,3.8,3.3,5.1c0.5,0.4,1.1,1.4,0.5,1.7c-0.2,0.1-0.5,0.1-0.8,0.1
				c-0.9,0-1.8,0.4-2.4,1.1c-0.5,0.7-0.9,1.7-1.7,1.9c-0.3,0-0.7,0-1-0.1c-2.4-0.4-4.9,0.5-6.5,2.3c-0.9,1-2,2.5-3.2,1.9
				c-1.1-0.5-1.1-2.1-2-2.8c-0.1-0.1-0.2-0.1-0.3-0.2c-1.2-0.7-2.6-0.1-3.7,0.4c-0.7,0.3-1.4,0.7-2.1,1s-1.4,0.7-2.1,0.3
				c-0.5-0.3-0.7-0.9-0.5-1.4c0.1-0.4,0.3-0.8,0.4-1.1c0.2-0.4,0.2-0.8,0-1.2c-0.2-0.3-0.5-0.6-0.8-0.8c-0.6-0.4-1.3-0.6-2-0.7h-0.1
				c-0.8-0.1-1.6-0.1-2.4,0c-0.8,0.1-1.7,0-2.5-0.1c-0.8-0.2-1.6-0.7-2-1.4l0,0c0.1,0.6,0.5,1.2,1,1.6c1.5,1.1,3.8,0.4,5.6,0.9
				c0.3,0.1,0.6,0.3,0.9,0.5c0.6,0.8,0.1,1.9-0.6,2.6s-1.5,1.4-1.5,2.4c0,1.5,1.8,2.1,3.3,2.3c1.8,0.3,3.7,0.5,5.2-0.4
				c0.4-0.3,0.8-0.5,1.2-0.7c0.5-0.2,1-0.1,1.3,0.3c0.1,0.2,0.2,0.5,0.2,0.8c0.4,1.5,1.9,2.5,3.4,2.4c1.5-0.2,2.9-0.8,4.1-1.8
				c1.1-1,2.4-1.9,3.7-2.6c0.7-0.3,1.5-0.5,2.3-0.4c1.9,0.2,3.7,1.6,5.2,2.9c1.2,1.1,4.2,1.8,4.3-0.7c0-1-0.4-1.3,0.8-1.6
				c1-0.1,2,0,3,0.2c3.1,0.5,4.1-0.4,4.1-3.5c0-1.6-0.2-1.7,1.1-2.3c1.6-0.7,2.8-1.2,2.7-3.3C452.9,213.2,450.1,212.8,448.2,211.6z"
				/>
			<path class="st21" d="M436.7,198.5l-8.4,16.6v-7.7l-0.9-32.6l-1.2,32.6v5.1l-9.2-16.1l9.2,19.8v44.2c0,0.2,0.1,0.3,0.3,0.4
				c0.5,0.2,1,0.2,1.5,0c0.2-0.1,0.3-0.2,0.3-0.4v-41.2L436.7,198.5z"/>
		</g>
		<g id="freepik--bush--inject-18_00000173158450486175810780000011872168823942772380_">
			<path id="freepik--bush--inject-18_00000074438233006582905730000013383422120805178792_" class="st8" d="M436.4,262.5
				c-4.1,0.7-7.8-0.5-8.4-4.9c-0.5-3.6-0.5-7.4,0-11c0.2-1.3,0.7-2.9,2-3.2c1.1-0.2,2.2,0.4,2.6,1.5c0.4,1,0.5,2.1,0.5,3.2
				c0.6-1.4,1.6-3.1,3.2-3.1s2.6,1.5,2.6,3c-0.1,1.5-0.5,2.9-1.3,4.1c1.1-0.3,2.3-0.1,3.2,0.5c0.9,1,1,2.6,0.1,3.6
				c-0.9,1-2,1.8-3.2,2.3c0.7-0.3,1.6,0,1.9,0.8c0,0.1,0.1,0.2,0.1,0.2c0.2,0.8-0.2,1.7-0.8,2.2C438,262.2,437.2,262.4,436.4,262.5z
				"/>
			<g id="freepik--bush--inject-18_00000052821497419872730840000012965722456997849790_">
				<path id="freepik--bush--inject-18_00000104694647480089866310000011824267075900742532_" class="st1" d="M429.2,264.2l-9.8-5.7
					c-0.8-0.5-1.6-1.2-2.1-2c-0.6-0.7-1-1.6-1.2-2.5c-0.1-0.3-0.1-0.7,0.1-1c0.4-0.5,1.2-0.3,1.7,0.1c0.5,0.4,0.9,0.9,1.3,1.3
					c-0.2-1.1-0.3-2.3-0.2-3.4c0-0.4,0.1-0.8,0.4-1.1c0.4-0.3,1-0.3,1.4,0c1.3,0.7,1.8,2.2,2.3,3.6c-0.2-1.4-0.2-2.9,0.1-4.3
					c0.4-1.6,2.1-2.1,2.7-0.7c0.3,0.8,0.5,1.6,0.5,2.5c0.1,1.1,0,2.2-0.2,3.3c0.6-1.4,1.5-2.6,2.6-3.6c0.4-0.4,0.9-0.6,1.5-0.5
					c0.6,0.2,0.7,1.1,0.7,1.7c-0.1,1.4-0.6,2.7-1.3,3.9c1-0.7,2.1-1.1,3.3-1.3c0.4-0.1,0.8,0,1,0.3c0.2,0.5,0.1,1-0.2,1.4
					c-0.7,1-1.6,1.8-2.6,2.5c1-0.3,2.1-0.4,3.2-0.3c0.3,0,0.6,0.1,0.9,0.4c0.3,0.4,0,1-0.4,1.3c-0.7,0.6-1.5,1-2.3,1.4
					c0.5,0,1,0.1,1.4,0.2c0.5,0.2,0.7,0.7,0.7,1.2c-0.2,0.5-0.5,0.8-1,0.9C431.7,264.3,431.1,264.5,429.2,264.2z"/>
			</g>
		</g>
	</g>
	<g id="freepik--tree--inject-18_00000171701741714784164780000002806312456004753582_">
		<g id="freepik--tree--inject-18_00000026165828756941579130000010524320355869674414_">
			<path class="st1" d="M469.1,234.9c-0.9-0.1-1.8,0.1-2.6,0.5c-1.5,0.9-3,1.9-4.3,3c-1.3,1.1-3,1.8-4.8,2c-1.8,0.2-3.5-1-4-2.8
				c0-0.3-0.1-0.6-0.2-0.9c-0.4-0.4-1-0.6-1.5-0.4c-0.5,0.2-1,0.5-1.5,0.8c-1.8,1-4,0.8-6,0.5c-1.7-0.2-3.8-1-3.8-2.7
				c0-1.1,1-1.9,1.8-2.8s1.4-2.1,0.7-3c-0.3-0.3-0.6-0.5-1-0.6c-2.1-0.7-4.7,0.2-6.5-1.1c-1.3-1.1-1.7-2.9-0.9-4.5
				c0.8-1.5,2.2-2.6,3.8-2.9c1.4-0.4,3.2-0.5,3.8-1.9c0.5-1.2-0.5-2.5-1.5-3.2s-2.3-1.2-3.1-2.3c-0.7-1.1-0.8-2.6-0.1-3.8
				c0.7-1.2,1.9-2,3.2-2.2c0.7-0.1,1.3-0.2,1.9-0.4c0.6-0.3,0.9-1,0.7-1.6c-0.2-0.4-0.6-0.5-0.8-0.9c-0.4-0.7-0.1-1.6,0.6-2
				c0.7-0.4,1.4-0.7,2.2-0.8c1.5-0.5,3-2,2.6-3.6s-2.7-2.1-3.3-3.7c-0.6-1.4,0.3-3,1.6-3.8c1.3-0.7,2.7-1.3,4.1-1.8
				c1.4-0.6,2.6-1.8,2.8-3.2s-1-2.8-2-4s-1.7-2.9-0.9-4.2s2.5-1.3,3.9-1.8c1.7-0.6,3.1-1.8,3.9-3.5c0.4-0.9,0.5-1.8,1-2.6
				c1.4-2.6,4.9-3.7,7.6-3.4c1.1,0.1,2.1,0.7,2.6,1.8c0.5,0.5,0.8,1.1,0.9,1.8c0.2,1.2-0.4,2.8,0.7,3.8c1.8,1.4,4.5-0.5,4.4,2.7
				c0,1.4-0.2,2.7-0.6,4c-0.5,1.3-1.5,1.9-0.6,3.4c1,2,1.7,2,3.8,1.9c1.5,0,2.8-0.1,3.9,1.1c2,2,0.8,3.8-0.9,5.4
				c-2,1.8-0.9,2.6-0.7,4.8c0.1,1.1-0.1,1.4,0.9,2.2c1.9,1.4,2.9,0.9,2.4,3.6c-0.5,2.5,0.3,1.6,2.4,2.5c1.9,0.8,3.1,2.9,4.7,4.1
				c1,0.8,2.5,1.4,2.6,2.9c0.2,2.8-3.2,2.2-4.9,2.8c-2.7,1.1-1.9,4.6,0.2,5.9s5.4,1.9,5.6,5c0.1,2.4-1.2,3-3.1,3.8
				c-1.5,0.6-1.3,0.8-1.3,2.6c0,3.6-1.2,4.6-4.8,4.1c-1.1-0.3-2.3-0.4-3.4-0.3c-1.4,0.4-0.9,0.8-0.9,1.9c-0.1,2.9-3.5,2.1-4.9,0.8
				C473.4,236.8,471.3,235.1,469.1,234.9z"/>
			<path class="st22" d="M469.1,234.9c-0.9-0.1-1.8,0.1-2.6,0.5c-1.5,0.9-3,1.9-4.3,3c-1.3,1.1-3,1.8-4.8,2c-1.8,0.2-3.5-1-4-2.8
				c0-0.3-0.1-0.6-0.2-0.9c-0.4-0.4-1-0.6-1.5-0.4c-0.5,0.2-1,0.5-1.5,0.8c-1.8,1-4,0.8-6,0.5c-1.7-0.2-3.8-1-3.8-2.7
				c0-1.1,1-1.9,1.8-2.8s1.4-2.1,0.7-3c-0.3-0.3-0.6-0.5-1-0.6c-2.1-0.7-4.7,0.2-6.5-1.1c-1.3-1.1-1.7-2.9-0.9-4.5
				c0.8-1.5,2.2-2.6,3.8-2.9c1.4-0.4,3.2-0.5,3.8-1.9c0.5-1.2-0.5-2.5-1.5-3.2s-2.3-1.2-3.1-2.3c-0.7-1.1-0.8-2.6-0.1-3.8
				c0.7-1.2,1.9-2,3.2-2.2c0.7-0.1,1.3-0.2,1.9-0.4c0.6-0.3,0.9-1,0.7-1.6c-0.2-0.4-0.6-0.5-0.8-0.9c-0.4-0.7-0.1-1.6,0.6-2
				c0.7-0.4,1.4-0.7,2.2-0.8c1.5-0.5,3-2,2.6-3.6s-2.7-2.1-3.3-3.7c-0.6-1.4,0.3-3,1.6-3.8c1.3-0.7,2.7-1.3,4.1-1.8
				c1.4-0.6,2.6-1.8,2.8-3.2s-1-2.8-2-4s-1.7-2.9-0.9-4.2s2.5-1.3,3.9-1.8c1.7-0.6,3.1-1.8,3.9-3.5c0.4-0.9,0.5-1.8,1-2.6
				c1.4-2.6,4.9-3.7,7.6-3.4c1.1,0.1,2.1,0.7,2.6,1.8c0.5,0.5,0.8,1.1,0.9,1.8c0.2,1.2-0.4,2.8,0.7,3.8c1.8,1.4,4.5-0.5,4.4,2.7
				c0,1.4-0.2,2.7-0.6,4c-0.5,1.3-1.5,1.9-0.6,3.4c1,2,1.7,2,3.8,1.9c1.5,0,2.8-0.1,3.9,1.1c2,2,0.8,3.8-0.9,5.4
				c-2,1.8-0.9,2.6-0.7,4.8c0.1,1.1-0.1,1.4,0.9,2.2c1.9,1.4,2.9,0.9,2.4,3.6c-0.5,2.5,0.3,1.6,2.4,2.5c1.9,0.8,3.1,2.9,4.7,4.1
				c1,0.8,2.5,1.4,2.6,2.9c0.2,2.8-3.2,2.2-4.9,2.8c-2.7,1.1-1.9,4.6,0.2,5.9s5.4,1.9,5.6,5c0.1,2.4-1.2,3-3.1,3.8
				c-1.5,0.6-1.3,0.8-1.3,2.6c0,3.6-1.2,4.6-4.8,4.1c-1.1-0.3-2.3-0.4-3.4-0.3c-1.4,0.4-0.9,0.8-0.9,1.9c-0.1,2.9-3.5,2.1-4.9,0.8
				C473.4,236.8,471.3,235.1,469.1,234.9z"/>
			<path class="st20" d="M441.9,228.7c-1.6-0.5-3.5-0.1-5.1-0.5c0.9-0.2,1.9-0.4,2.9-0.4c2.3-0.1,4.6,0.8,6.2,2.5
				c-0.9,1.1-1.3,2.4-1.2,3.8c4,1.1,8-4.3,11.9-2.7c-0.2,1.9,0,4.6,1.9,5c1.2,0.1,2.3-0.4,2.9-1.4c0.7-0.9,1.1-2,1.8-2.9
				c2-2.5,5.6-3,8.2-1.2c1,0.8,2.3,1.9,3.4,1.1s0.4-3,1.7-3.6c0.8-0.4,2,0.2,2.7-0.4c0.3-0.3,0.4-0.6,0.5-1c0.5-2.1,0.9-4.4-0.4-6.1
				c-1.2-1.5-3.6-2.4-3.3-4.3c0.2-1.6,2.3-2.1,3.9-2.3s3.6-0.9,3.5-2.6s-2.2-2.4-2.5-3.9c-0.1-0.7,0.1-1.4-0.2-2
				c-0.5-0.9-1.8-1-2.5-1.6c-1.4-1.2-0.3-3.5-0.7-5.3c-0.3-1.3-1.3-2.3-1.6-3.5c-0.7-2.5,1.6-4.9,4-5.9c0.9-0.3,1.9-0.7,2.7-1.2
				l0.1-0.1c-0.2,1.3-0.9,2.4-2,3.1c-2,1.8-0.9,2.6-0.7,4.8c0.1,1.1-0.1,1.4,0.9,2.2c1.9,1.4,2.9,0.9,2.4,3.6
				c-0.5,2.5,0.3,1.6,2.4,2.5c1.9,0.8,3.1,2.9,4.7,4.1c1,0.8,2.5,1.4,2.6,2.9c0.2,2.8-3.2,2.2-4.9,2.8c-2.7,1.1-1.9,4.6,0.2,5.9
				s5.4,1.9,5.6,5c0.1,2.4-1.2,3-3.1,3.8c-1.5,0.6-1.3,0.8-1.3,2.6c0,3.6-1.2,4.6-4.8,4.1c-1.1-0.3-2.3-0.4-3.4-0.3
				c-1.4,0.4-0.9,0.8-0.9,1.9c-0.1,2.9-3.5,2.1-4.9,0.8c-1.7-1.4-3.7-3.1-6-3.3c-0.9-0.1-1.8,0.1-2.6,0.5c-1.5,0.9-3,1.9-4.3,3
				c-1.3,1.1-3,1.8-4.8,2c-1.8,0.2-3.5-1-4-2.8c0-0.3-0.1-0.6-0.2-0.9c-0.4-0.4-1-0.6-1.5-0.4c-0.5,0.2-1,0.5-1.5,0.8
				c-1.8,1-4,0.8-6,0.5c-1.7-0.2-3.8-1-3.8-2.7c0-1.1,1-1.9,1.8-2.8s1.4-2.1,0.7-3C442.6,228.9,442.3,228.8,441.9,228.7z"/>
			<path class="st21" d="M474.6,205.1l-9.7,19.3v-8.9l-1-37.8l-1.4,37.8v6l-10.7-18.7l10.7,22.9v58.5c0,0.2,0.2,0.4,0.4,0.5
				c0.5,0.3,1.2,0.3,1.7,0c0.2-0.1,0.3-0.3,0.4-0.5v-55L474.6,205.1z"/>
		</g>
		<g id="freepik--bush--inject-18_00000088845419684734854860000017497541804700476073_">
			<path id="freepik--bush--inject-18_00000132060059195959240530000008406149018726442159_" class="st8" d="M470.5,288.8
				c-2.8,0.4-5.3-0.3-5.7-3.3c-0.4-2.5-0.4-5,0-7.5c0.1-0.9,0.4-2,1.3-2.2c0.8-0.1,1.5,0.3,1.8,1c0.3,0.7,0.4,1.4,0.3,2.2
				c0.4-1,1.1-2.1,2.2-2.1c1,0.1,1.8,1,1.8,2c-0.1,1-0.4,2-0.9,2.8c0.7-0.2,1.5-0.1,2.2,0.3c0.6,0.7,0.7,1.7,0.1,2.5
				c-0.6,0.7-1.3,1.2-2.2,1.6c0.5-0.2,1.1,0.1,1.3,0.6c0,0,0,0.1,0,0.1c0.1,0.6-0.1,1.1-0.6,1.5
				C471.6,288.6,471.1,288.8,470.5,288.8z"/>
			<g id="freepik--bush--inject-18_00000068664195123266236260000007474196535789789851_">
				<path id="freepik--bush--inject-18_00000134232288419063758400000017588335875304136861_" class="st1" d="M465.7,290l-6.7-3.8
					c-0.6-0.4-1.1-0.8-1.5-1.4c-0.4-0.5-0.7-1.1-0.8-1.7c-0.1-0.2,0-0.5,0.1-0.7c0.2-0.4,0.8-0.2,1.1,0.1c0.3,0.3,0.6,0.6,0.9,0.9
					c-0.1-0.8-0.2-1.5-0.1-2.3c0-0.3,0.1-0.6,0.3-0.8c0.3-0.2,0.6-0.2,0.9,0c0.8,0.6,1.4,1.5,1.5,2.5c-0.2-1-0.1-2,0.1-2.9
					c0.2-1,1.4-1.5,1.8-0.5c0.2,0.5,0.3,1.1,0.4,1.7c0.1,0.7,0,1.5-0.1,2.2c0.4-0.9,1-1.8,1.8-2.5c0.2-0.3,0.6-0.4,1-0.4
					c0.4,0.2,0.5,0.7,0.5,1.2c-0.1,0.9-0.4,1.9-0.9,2.7c0.7-0.5,1.4-0.8,2.2-0.9c0.3-0.1,0.5,0,0.7,0.2c0.1,0.3,0.1,0.7-0.2,0.9
					c-0.5,0.7-1.1,1.2-1.8,1.7c0.7-0.2,1.4-0.3,2.2-0.2c0.2,0,0.4,0.1,0.6,0.2c0.2,0.3,0,0.6-0.3,0.9c-0.5,0.4-1,0.7-1.5,0.9
					c0.3,0,0.7,0,1,0.2c0.3,0.1,0.5,0.5,0.5,0.8c-0.1,0.3-0.4,0.5-0.7,0.6C467.7,290.1,466.7,290.2,465.7,290z"/>
			</g>
		</g>
	</g>
</g>
<g id="freepik--Locators--inject-18">
	<g id="freepik--Lines--inject-18">
		<path class="st3" d="M353.9,131.8c-0.2,0-0.3-0.1-0.4-0.2c-0.2-0.2-0.1-0.5,0.1-0.7c0,0,0,0,0,0l1.2-0.9c0.2-0.2,0.5-0.1,0.7,0.1
			c0.2,0.2,0.1,0.5-0.1,0.7l-1.2,0.9C354.1,131.8,354,131.8,353.9,131.8z"/>
		<path class="st3" d="M282.6,181.8c-0.2,0-0.3-0.1-0.4-0.2c-0.1-0.2-0.1-0.5,0.1-0.7l2.5-1.6c0.2-0.2,0.5-0.1,0.7,0.1
			s0.1,0.5-0.1,0.7c0,0,0,0,0,0l-2.5,1.6C282.8,181.7,282.7,181.8,282.6,181.8z M289.3,177.5c-0.2,0-0.3-0.1-0.4-0.2
			c-0.1-0.2-0.1-0.5,0.1-0.7l2.5-1.6c0.2-0.1,0.5-0.1,0.7,0.1c0.2,0.2,0.1,0.5-0.1,0.7c0,0,0,0,0,0l-2.5,1.6
			C289.5,177.5,289.4,177.5,289.3,177.5z M295.9,173.2c-0.2,0-0.3-0.1-0.4-0.2c-0.2-0.2-0.1-0.5,0.1-0.7l2.5-1.6
			c0.2-0.2,0.5-0.1,0.7,0.1c0.2,0.2,0.1,0.5-0.1,0.7l-2.5,1.6C296.1,173.1,296,173.1,295.9,173.2z M302.5,168.8
			c-0.2,0-0.3-0.1-0.4-0.2c-0.2-0.2-0.1-0.5,0.1-0.7l2.5-1.6c0.2-0.2,0.5-0.2,0.7,0c0.2,0.2,0.2,0.5,0,0.7c0,0-0.1,0-0.1,0.1
			l-2.5,1.7C302.7,168.7,302.6,168.8,302.5,168.8L302.5,168.8z M309.1,164.3c-0.3,0-0.5-0.2-0.5-0.5c0-0.2,0.1-0.3,0.2-0.4l2.5-1.7
			c0.2-0.2,0.5-0.1,0.7,0.1c0.2,0.2,0.1,0.5-0.1,0.7l0,0l-2.5,1.7C309.3,164.3,309.2,164.3,309.1,164.3z M315.6,159.9
			c-0.2,0-0.3-0.1-0.4-0.2c-0.2-0.2-0.1-0.5,0.1-0.7l2.4-1.7c0.2-0.1,0.5-0.1,0.7,0.2c0.1,0.2,0.1,0.5-0.1,0.7l-2.4,1.7
			C315.8,159.8,315.7,159.9,315.6,159.9z M322.1,155.3c-0.2,0-0.3-0.1-0.4-0.2c-0.2-0.2-0.1-0.5,0.1-0.7c0.8-0.6,1.6-1.1,2.4-1.7
			c0.2-0.1,0.5-0.1,0.7,0.1c0.2,0.2,0.1,0.5-0.1,0.7c0,0,0,0,0,0l-2.4,1.7C322.3,155.3,322.2,155.3,322.1,155.3z M328.5,150.8
			c-0.2,0-0.3-0.1-0.4-0.2c-0.2-0.2-0.1-0.5,0.1-0.7c0,0,0,0,0,0c0.8-0.6,1.6-1.1,2.4-1.7c0.2-0.2,0.5-0.1,0.7,0.1c0,0,0,0,0,0
			c0.2,0.2,0.1,0.5-0.1,0.7l-2.4,1.7C328.7,150.7,328.6,150.7,328.5,150.8L328.5,150.8z M334.9,146.1c-0.2,0-0.3-0.1-0.4-0.2
			c-0.2-0.2-0.1-0.5,0.1-0.7c0,0,0,0,0,0l2.4-1.8c0.2-0.2,0.5-0.1,0.7,0.1v0c0.2,0.2,0.1,0.5-0.1,0.7l-2.4,1.7
			C335.2,146.1,335.1,146.1,334.9,146.1L334.9,146.1z M341.3,141.4c-0.2,0-0.3-0.1-0.4-0.2c-0.2-0.2-0.1-0.5,0.1-0.7l2.4-1.8
			c0.2-0.2,0.5-0.1,0.7,0.1c0.2,0.2,0.1,0.5-0.1,0.7l-2.4,1.8C341.5,141.4,341.4,141.4,341.3,141.4L341.3,141.4z M347.6,136.6
			c-0.2,0-0.3-0.1-0.4-0.2c-0.2-0.2-0.1-0.5,0.1-0.7l2.4-1.8c0.2-0.2,0.5-0.2,0.7,0c0.2,0.2,0.2,0.5,0,0.7c0,0,0,0,0,0
			c-0.8,0.6-1.6,1.2-2.4,1.8C347.9,136.6,347.8,136.6,347.6,136.6L347.6,136.6z"/>
		<path class="st3" d="M277.2,185.2c-0.3,0-0.5-0.2-0.5-0.5c0-0.2,0.1-0.3,0.2-0.4l1.3-0.8c0.2-0.1,0.5-0.1,0.7,0.2s0.1,0.5-0.2,0.7
			l-1.3,0.8C277.4,185.1,277.3,185.2,277.2,185.2z"/>
		<path class="st0" d="M322.4,79.3c-0.1,0-0.2,0-0.2-0.1c-0.5-0.3-0.9-0.5-1.3-0.7c-0.3-0.1-0.4-0.4-0.3-0.6
			c0.1-0.3,0.4-0.4,0.6-0.3c0,0,0,0,0.1,0c0.4,0.2,0.9,0.4,1.4,0.7c0.2,0.1,0.3,0.4,0.2,0.7c0,0,0,0,0,0
			C322.7,79.2,322.6,79.3,322.4,79.3z"/>
		<path class="st0" d="M358.5,109.3c-0.2,0-0.3-0.1-0.4-0.2c-0.5-0.8-1.1-1.6-1.7-2.4c-0.2-0.2-0.1-0.5,0.1-0.7
			c0.2-0.2,0.5-0.1,0.7,0.1c0,0,0,0,0,0c0.6,0.8,1.2,1.7,1.7,2.5c0.1,0.2,0.1,0.5-0.1,0.7C358.6,109.3,358.6,109.3,358.5,109.3z
			 M353.6,103.1c-0.1,0-0.3-0.1-0.4-0.2c-0.6-0.7-1.3-1.4-2-2.1c-0.2-0.2-0.2-0.5,0-0.7c0.2-0.2,0.5-0.2,0.7,0c0,0,0,0,0.1,0.1
			c0.7,0.7,1.4,1.4,2,2.2c0.2,0.2,0.2,0.5,0,0.7c0,0,0,0,0,0C353.9,103,353.8,103.1,353.6,103.1L353.6,103.1z M348.1,97.5
			c-0.1,0-0.2,0-0.3-0.1c-0.7-0.7-1.5-1.3-2.2-2c-0.2-0.2-0.2-0.5,0-0.7c0.2-0.2,0.5-0.2,0.7,0c0.8,0.7,1.5,1.3,2.2,2
			c0.2,0.2,0.2,0.5,0,0.7c0,0,0,0,0,0C348.3,97.5,348.2,97.5,348.1,97.5z M342.1,92.4c-0.1,0-0.2,0-0.3-0.1
			c-0.8-0.6-1.5-1.2-2.3-1.8c-0.2-0.2-0.3-0.5-0.1-0.7s0.5-0.3,0.7-0.1c0.8,0.6,1.6,1.2,2.4,1.8c0.2,0.2,0.3,0.5,0.1,0.7
			C342.4,92.3,342.2,92.4,342.1,92.4L342.1,92.4z M335.7,87.7c-0.1,0-0.2,0-0.3-0.1c-0.8-0.6-1.6-1.1-2.4-1.7
			c-0.2-0.1-0.3-0.4-0.2-0.7s0.4-0.3,0.7-0.2c0,0,0.1,0,0.1,0.1c0.8,0.5,1.6,1.1,2.4,1.7c0.2,0.2,0.3,0.5,0.1,0.7c0,0,0,0,0,0
			C336.1,87.6,335.9,87.7,335.7,87.7L335.7,87.7z M329.2,83.3c-0.1,0-0.2,0-0.3-0.1c-0.9-0.6-1.7-1.1-2.5-1.6
			c-0.2-0.1-0.3-0.4-0.2-0.7c0.1-0.2,0.4-0.3,0.7-0.2c0,0,0,0,0.1,0c0.8,0.5,1.6,1,2.5,1.6c0.2,0.1,0.3,0.5,0.1,0.7
			C329.5,83.2,329.4,83.3,329.2,83.3L329.2,83.3z"/>
		<path class="st0" d="M361.2,115.1c-0.2,0-0.4-0.1-0.5-0.3c-0.1-0.4-0.3-0.9-0.5-1.4c-0.1-0.2,0-0.5,0.2-0.7s0.5,0,0.7,0.2
			c0,0,0,0.1,0,0.1c0.2,0.5,0.4,1,0.5,1.4c0.1,0.3-0.1,0.5-0.3,0.6L361.2,115.1z"/>
	</g>
	<path id="freepik--Pin--inject-18" class="st1" d="M327.1,59.4c0.2-5.6-4.2-10.3-9.8-10.5c-5.6-0.2-10.3,4.2-10.5,9.8
		c0,0.2,0,0.4,0,0.6v1.3c0,4.4,6.2,12.8,8.8,16c0.6,0.7,1.7,0.8,2.4,0.2c0.1,0,0.1-0.1,0.1-0.1c2.9-3.3,9-11.3,9-16.1L327.1,59.4z
		 M317,63.7c-2.7-0.1-4.8-2.4-4.7-5.1c0.1-2.7,2.4-4.8,5.1-4.7c2.6,0.1,4.7,2.3,4.7,4.9C322,61.5,319.8,63.7,317,63.7z"/>
	<path id="freepik--pin--inject-18" class="st5" d="M362.9,115.6c0.1-3.7-2.8-6.9-6.5-7s-6.9,2.8-7,6.5c0,0.2,0,0.3,0,0.5v0.9
		c0,3,4,8.3,5.8,10.6c0.4,0.5,1.1,0.6,1.6,0.2c0.1,0,0.1-0.1,0.2-0.2c1.9-2.3,5.9-7.5,5.9-10.7V115.6z M356.1,118.4
		c-1.8-0.1-3.2-1.6-3.1-3.4c0.1-1.8,1.6-3.2,3.4-3.1c1.8,0.1,3.1,1.5,3.1,3.3C359.5,117,358,118.5,356.1,118.4z"/>
	<path id="freepik--pin--inject-18_00000160165896389566191910000017450929134752060332_" class="st5" d="M319.9,145.1
		c0-3.1-2.5-5.6-5.6-5.6c-3.1,0-5.6,2.5-5.6,5.6c0,0,0,0,0,0v0.7c0,2.4,3.5,7.4,4.8,8.8c0.3,0.4,0.8,0.5,1.2,0.2
		c0.1,0,0.1-0.1,0.2-0.2c1.4-1.6,4.9-6.1,4.9-8.8V145.1z M314.3,147.4c-1.5,0-2.6-1.3-2.6-2.8c0-1.5,1.3-2.6,2.8-2.6
		c1.4,0,2.6,1.2,2.6,2.7C317,146.3,315.8,147.5,314.3,147.4z"/>
	<path id="freepik--pin--inject-18_00000090280626558730544000000008245915620748688031_" class="st5" d="M281.3,171.8
		c0-2.2-1.8-4.1-4.1-4.1s-4.1,1.8-4.1,4.1c0,0,0,0,0,0v0.5c0,1.8,2.4,5,3.5,6.4c0.2,0.3,0.5,0.4,0.8,0.2c0.1-0.1,0.2-0.1,0.2-0.2
		c1-1.2,3.6-4.5,3.6-6.4L281.3,171.8z M277.2,173.5c-1.1,0-2-0.9-2-2s0.9-2,2-2s2,0.9,2,2S278.3,173.5,277.2,173.5z"/>
	<path id="freepik--pin--inject-18_00000015328211686195944420000007334041057854505360_" class="st23" d="M336.3,198.5
		c0.1-2.2-1.6-4.2-3.9-4.3c-2.2-0.1-4.2,1.6-4.3,3.9c0,0.1,0,0.3,0,0.4v0.5c0,1.8,2.4,5,3.5,6.4c0.3,0.3,0.7,0.5,0.9,0.3
		c1-1.2,3.7-4.8,3.7-6.7L336.3,198.5z M332.3,200.2c-1.1,0-2-0.9-2-2s0.9-2,2-2s2,0.9,2,2S333.4,200.2,332.3,200.2z"/>
</g>
<g id="freepik--rocks-1--inject-18">
	<path id="freepik--shadow--inject-18" class="st20" d="M265.1,444.6l7.2,5.4L244,475.2l-43.9,3.6l-44.2-7.4l-39.4,8.8l-27.2-24.8
		l-40.6-3.4L19,429.2l23.4-28.6c0,0,96.2-4,96.3-3.7s59,27.7,59,27.7l52.1,9.2L265.1,444.6z"/>
	<g id="freepik--Boulder--inject-18">
		<g id="freepik--grass--inject-18_00000096055145444599089390000017016238752298850703_">
			<path class="st1" d="M46.6,362.8c2,10-0.6,22.8-0.6,22.8l2.2-1.2C49.7,370.3,46.6,362.8,46.6,362.8z"/>
			<path class="st20" d="M46.6,362.8c2,10-0.6,22.8-0.6,22.8l2.2-1.2C49.7,370.3,46.6,362.8,46.6,362.8z"/>
			<path class="st20" d="M47.1,384.9c0,0,0,0.1,0,0.1l1.1-0.6c1.5-14.1-1.5-21.5-1.5-21.5C48.3,367.7,48.2,379.4,47.1,384.9z"/>
			<path class="st1" d="M46,385.6c-0.7-5.8-2.1-11.5-4.3-16.9c-3.4-7.8-7.7-11.3-7.7-11.3s5.3,2.4,9.6,10.8c2.6,5,4.4,10.3,5.3,15.8
				L46,385.6z"/>
			<path class="st24" d="M46,385.6c-0.7-5.8-2.1-11.5-4.3-16.9c-3.4-7.8-7.7-11.3-7.7-11.3s5.3,2.4,9.6,10.8
				c2.6,5,4.4,10.3,5.3,15.8L46,385.6z"/>
			<path class="st11" d="M47.5,384.7L47.5,384.7l1.3-0.8c-0.9-5.5-2.7-10.8-5.3-15.8c-4.3-8.4-9.6-10.8-9.6-10.8
				C39.1,360.6,45.9,371.5,47.5,384.7z"/>
			<path class="st1" d="M46,385.6c0,0-1.5-7.5-10.8-13.7c5.7,2.5,10.2,6.9,12.9,12.5L46,385.6z"/>
			<path class="st11" d="M47.1,384.9L47.1,384.9l1-0.5c-2.7-5.6-7.3-10-12.9-12.5C39.5,374.4,44.8,378.6,47.1,384.9z"/>
		</g>
		<g id="freepik--grass--inject-18_00000026880201380293285770000002794522765824665248_">
			<path class="st1" d="M241.9,406.3c-1.6,8.1,0.5,18.4,0.5,18.4l-1.7-1C239.4,412.3,241.9,406.3,241.9,406.3z"/>
			<path class="st20" d="M241.9,406.3c-1.6,8.1,0.5,18.4,0.5,18.4l-1.7-1C239.4,412.3,241.9,406.3,241.9,406.3z"/>
			<path class="st20" d="M241.4,424.1C241.4,424.1,241.4,424.1,241.4,424.1l-0.9-0.4c-1.2-11.3,1.2-17.4,1.2-17.4
				C240.5,410.2,240.6,419.7,241.4,424.1z"/>
			<path class="st1" d="M242.4,424.7c0.5-4.7,1.7-9.3,3.5-13.7c2.8-6.3,6.2-9.1,6.2-9.1s-4.3,1.9-7.7,8.7c-2.1,4-3.5,8.3-4.3,12.7
				L242.4,424.7z"/>
			<path class="st24" d="M242.4,424.7c0.5-4.7,1.7-9.3,3.5-13.7c2.8-6.3,6.2-9.1,6.2-9.1s-4.3,1.9-7.7,8.7c-2.1,4-3.5,8.3-4.3,12.7
				L242.4,424.7z"/>
			<path class="st11" d="M241.1,424L241.1,424l-1.1-0.6c0.8-4.4,2.2-8.7,4.3-12.7c3.5-6.8,7.7-8.7,7.7-8.7
				C247.9,404.6,242.4,413.3,241.1,424z"/>
			<path class="st1" d="M242.4,424.7c0,0,1.2-6,8.7-11c-4.6,2-8.2,5.5-10.4,10L242.4,424.7z"/>
			<path class="st11" d="M241.4,424.1L241.4,424.1l-0.8-0.4c2.2-4.5,5.9-8,10.4-10C247.6,415.6,243.3,419.1,241.4,424.1z"/>
		</g>
		<path class="st8" d="M263.4,438.2l0.9,11L237,471.6l-39.2,2.1l-44.2-7.8l-27.8,8.8c0,0-30.8-22.7-31.8-23.3s-43.3-9.9-43.3-9.9
			L28,424.7l12.5-36.9L263.4,438.2z"/>
		<polygon class="st21" points="153.6,465.9 149.9,447.7 130.9,444.9 125.8,474.7 		"/>
		<polygon class="st5" points="125.8,474.7 130.9,444.9 106.3,404.1 94,451.4 		"/>
		<polygon class="st5" points="237,471.6 197.8,473.7 195.9,424.7 225.6,431.5 		"/>
		<polygon class="st5" points="197.8,473.7 152.3,459.8 153.6,465.9 		"/>
		<polygon class="st5" points="263.4,438.2 237,471.6 264.3,449.2 		"/>
		<polygon class="st5" points="50.8,441.5 63.5,394.3 78.8,397.8 85.2,449.2 		"/>
		<polygon class="st21" points="50.8,441.5 63.5,394.3 40.6,387.8 28.1,424.7 		"/>
		<path class="st1" d="M265.3,437.9c-3.4-6-6.2-8.1-10.5-11.5c0,0-24.7-7.2-25.5-7.6S172.4,408,172.4,408l-64.9-31.8H59.1
			c-9.8,2.4-18.9,7.6-20.4,9.5l-0.4,2.5l5.5,9l17.3,6.7l18.9,10l21.2,10.3l28.4,27.4h20l47,8.9l38.1-4.2c12.7-5.7,25.8-11.4,30.1-16
			L265.3,437.9z"/>
		<path class="st24" d="M265.3,437.9c-3.4-6-6.2-8.1-10.5-11.5c0,0-24.7-7.2-25.5-7.6S172.4,408,172.4,408l-64.9-31.8H59.1
			c-9.8,2.4-18.9,7.6-20.4,9.5l-0.4,2.5l5.5,9l17.3,6.7l18.9,10l21.2,10.3l28.4,27.4h20l47,8.9l38.1-4.2c12.7-5.7,25.8-11.4,30.1-16
			L265.3,437.9z"/>
		<polygon class="st11" points="61,403.8 61.6,401.4 80.5,411.4 80.9,414.4 		"/>
		<polygon class="st24" points="61.6,401.4 44.3,394.6 38.8,385.6 38.4,388.2 44,397.2 61,403.8 		"/>
		<polygon class="st11" points="44,397.2 44.3,394.6 38.8,385.6 38.4,388.2 		"/>
		<polygon class="st11" points="101.7,421.8 101.3,424.3 129.8,451.7 130.1,449.2 		"/>
		<polygon class="st24" points="149.8,451.7 150.2,449.2 130.1,449.2 129.8,451.7 		"/>
		<polygon class="st24" points="196.8,460.7 197.2,458.1 235.3,453.9 234.9,456.4 		"/>
		<path class="st1" d="M59.1,376.2c-9.8,2.4-18.9,7.6-20.4,9.5l5.5,9l17.3,6.7l18.9,10.1l21.2,10.3l28.4,27.4h20l47,8.9l38.1-4.2
			c12.7-5.7,25.8-11.4,30-16c-3.4-6-6.2-8.1-10.5-11.5c0,0-24.7-7.2-25.5-7.6S172.4,408,172.4,408l-64.9-31.8L59.1,376.2z"/>
		<path class="st25" d="M59.1,376.2c-9.8,2.4-18.9,7.6-20.4,9.5l5.5,9l17.3,6.7l18.9,10.1l21.2,10.3l28.4,27.4h20l47,8.9l38.1-4.2
			c12.7-5.7,25.8-11.4,30-16c-3.4-6-6.2-8.1-10.5-11.5c0,0-24.7-7.2-25.5-7.6S172.4,408,172.4,408l-64.9-31.8L59.1,376.2z"/>
		<polygon class="st8" points="251.2,431.1 236.7,441.5 211.4,441.5 180,447.7 144.4,439.4 122.5,421 152.6,404.7 205.4,360.8 
			212.4,378.4 221.1,378.8 223.1,392.9 234.6,405.2 237,418.8 		"/>
		<polygon class="st21" points="205.4,360.8 212.4,378.4 193.9,370.3 		"/>
		<polygon class="st5" points="236.7,441.5 237,418.8 234.6,405.2 211.4,441.5 		"/>
		<polygon class="st5" points="223.1,392.9 223.1,406.3 213.9,420.2 211.4,441.5 205,413.9 218.8,403.8 		"/>
		<polygon class="st21" points="205,413.9 193.7,435.7 180,447.7 211.4,441.5 		"/>
		<polygon class="st5" points="193.7,435.7 175.1,426 144.4,439.4 180,447.7 		"/>
		<polygon class="st5" points="205,413.9 211.4,399.4 208.2,392.2 185.8,403.1 193.7,435.7 		"/>
		<polygon class="st21" points="144.4,439.4 150.2,406 122.5,421 		"/>
		<polygon class="st5" points="175.1,426 171,404.8 150.2,406 144.4,439.4 		"/>
		<polygon class="st21" points="175.1,426 159.7,443 144.4,439.4 		"/>
		<path class="st1" d="M224.2,378.8c0,0-7.7-6.5-21.7-10.2l6.4-4.3l-0.7-2.4c0,0-6.5-3.9-21.7-7.1L175.1,371l-26.1,7.4l-14.3,13
			l-22.2-0.9l10,30.4l0,0l27.6-8.3h22.6l16,1.9l28.1-17.8l8.1-15.6L224.2,378.8z"/>
		<path class="st24" d="M224.2,378.8c0,0-7.7-6.5-21.7-10.2l6.4-4.3l-0.7-2.4c0,0-6.5-3.9-21.7-7.1L175.1,371l-26.1,7.4l-14.3,13
			l-22.2-0.9l1.2,3.8l8.8,26.7l0,0l27.7-8.3h22.6l16,1.9l28.1-17.8l8.1-15.6L224.2,378.8z"/>
		<polygon class="st24" points="208.2,361.8 208.9,364.3 202.5,368.6 199.3,367.8 		"/>
		<path class="st1" d="M199.3,367.8l8.9-5.9c0,0-6.5-3.9-21.7-7.1L175.1,371l-26.1,7.4l-14.3,13l-21,2.9l8.8,26.7l26.9-10.7H172
			l16,1.8l28.1-17.8l8.1-15.6C224.2,378.8,215.3,371.3,199.3,367.8z"/>
		<path class="st25" d="M199.3,367.8l8.9-5.9c0,0-6.5-3.9-21.7-7.1L175.1,371l-26.1,7.4l-14.3,13l-21,2.9l8.8,26.7l26.9-10.7H172
			l16,1.8l28.1-17.8l8.1-15.6C224.2,378.8,215.3,371.3,199.3,367.8z"/>
		<polygon class="st24" points="216.1,394.3 216.8,396.7 188.7,414.5 188,412.1 		"/>
		<polygon class="st24" points="150.1,412.7 149.4,410.3 122.5,421 		"/>
		<path class="st24" d="M118.7,401.2l23.9-1.5l-7.5-8.5l-27.5-13.5H59.1c-2,0.5-3.9,1.1-5.7,1.7l-3,11.3l15.2,8.9l22.6,8.5
			L118.7,401.2z"/>
		<polygon class="st8" points="200.6,358.5 200.6,358.6 187.7,376.8 158.5,385.1 142.6,399.6 117.7,398.7 88.8,404.3 54.1,388.3 
			63.3,335.1 180.6,324.3 185.4,343.9 195.1,346.1 		"/>
		<polygon class="st5" points="142.6,399.6 121.8,371.5 120.2,350.8 111.8,380 117.7,398.7 		"/>
		<polygon class="st5" points="94.2,385.5 88.8,404.3 67,395.6 65.5,370.3 75.3,352.7 101.7,366.1 		"/>
		<polygon class="st21" points="54.1,388.3 67,395.6 65.5,370.3 75.3,353.7 63.3,335.1 		"/>
		<polygon class="st21" points="117.7,398.7 111.8,380 120.2,350.8 101.7,366.1 94.2,385.5 88.8,404.3 		"/>
		<polygon class="st5" points="172.7,357.9 181.8,351.2 185.4,343.9 180.6,324.3 170.6,337.1 		"/>
		<polygon class="st21" points="158.5,385.1 172.7,357.9 170.6,337.1 159.9,343.7 		"/>
		<polygon class="st5" points="172.7,357.9 178,367.7 200.6,358.5 195.1,346.1 		"/>
		<polygon class="st21" points="187.8,376.8 178,367.7 200.6,358.5 		"/>
		<g id="freepik--grass--inject-18_00000007417095670786230500000008247232297972381587_">
			<path class="st1" d="M124.3,379.9c-0.7,9.2,2.9,19.2,2.9,19.2h-2.1C122.3,386.6,124.3,379.9,124.3,379.9z"/>
			<path class="st20" d="M124.3,379.9c-0.7,9.2,2.9,19.2,2.9,19.2h-2.1C122.3,386.6,124.3,379.9,124.3,379.9z"/>
			<path class="st20" d="M126.1,399L126.1,399h-1c-2.8-12.5-0.8-19.2-0.8-19.2C123.3,384.4,124.6,394.2,126.1,399z"/>
			<path class="st1" d="M127.2,399c0-4.9,0.7-9.8,2.1-14.4c2.3-7.4,5.8-11,5.8-11s-4.5,2.7-7.5,10.7c-1.8,4.7-2.8,9.7-3.1,14.7
				H127.2z"/>
			<path class="st26" d="M127.2,399c0-4.9,0.7-9.8,2.1-14.4c2.3-7.4,5.8-11,5.8-11s-4.5,2.7-7.5,10.7c-1.8,4.7-2.8,9.7-3.1,14.7
				H127.2z"/>
			<path class="st11" d="M125.8,399h-1.3c0.3-5,1.3-10,3.1-14.7c3-8,7.5-10.7,7.5-10.7C130.8,377.1,125.8,387,125.8,399z"/>
			<path class="st1" d="M127.2,399c0,0,0.6-5.7,8.2-12.2c-4.8,2.6-8.5,7-10.3,12.2H127.2z"/>
			<path class="st11" d="M126.1,399L126.1,399h-1c1.8-5.2,5.5-9.6,10.3-12.2C131.8,389.5,127.5,393.2,126.1,399z"/>
		</g>
		<path class="st1" d="M185.3,323.2c-6.4-3.7-13-7.1-19.8-10l-31.4-6.2l-51.6,6.8c0,0-14.4,9.2-21.6,21.1v2.9l10.9,17.5l29.9,10.8
			l32.8-11.6l24.9-1.2l19.4-10.6v-2.9l-1.4-5.1l7.9-8.5L185.3,323.2z"/>
		<path class="st11" d="M185.3,323.2c-6.4-3.7-13-7.1-19.8-10l-31.4-6.2l-51.6,6.8c0,0-14.4,9.2-21.6,21.1v2.9l10.9,17.5l29.9,10.8
			l32.8-11.6l24.9-1.2l19.4-10.6v-2.9l-1.4-5.1l7.9-8.5L185.3,323.2z"/>
		<path class="st1" d="M60.9,334.9l10.9,17.5l29.9,10.8l32.8-11.6l24.9-1.2l19.4-10.6l-2.1-7.5l8.6-9c-6.4-3.7-13-7.1-19.8-10
			l-31.4-6.3l-51.6,6.8C82.5,313.8,68.1,323,60.9,334.9z"/>
		<path class="st10" d="M60.9,334.9l10.9,17.5l29.9,10.8l32.8-11.6l24.9-1.2l19.4-10.6l-2.1-7.5l8.6-9c-6.4-3.7-13-7.1-19.8-10
			l-31.4-6.3l-51.6,6.8C82.5,313.8,68.1,323,60.9,334.9z"/>
		<polygon class="st24" points="185.3,323.2 176.7,332.3 177.4,334.7 185.3,326.2 		"/>
		<polygon class="st24" points="159.4,353.3 159.4,350.4 134.5,351.6 134.5,354.5 		"/>
		<polygon class="st11" points="134.5,351.6 101.7,363.2 101.7,366.1 134.5,354.5 		"/>
		<polygon class="st12" points="71.8,355.3 71.8,352.4 60.9,334.9 60.9,337.8 		"/>
		<polygon class="st1" points="197.8,347.5 192.8,343.7 185.4,343.9 181.8,351.2 172.7,357.9 199.1,352.5 		"/>
		<polygon class="st24" points="197.8,347.5 199.1,352.5 172.7,357.9 189.2,351 		"/>
		<polygon class="st1" points="185.4,343.9 181.8,351.2 172.7,357.9 193.3,350.8 197.8,347.5 192.8,343.7 		"/>
		<polygon class="st25" points="185.4,343.9 181.8,351.2 172.7,357.9 193.3,350.8 197.8,347.5 192.8,343.7 		"/>
	</g>
</g>
<g id="freepik--Character--inject-18">
	<path id="freepik--shadow--inject-18_00000042700138630166607560000004977622056966045355_" class="st20" d="M80.2,323.6
		c-13.8,6.7-15.3,13.4-3,19.4s39.2,4.4,52.5,3.9c13.5-0.5,21.6-1.3,27.5-2.3c6.6-1.1,22.3-6.8,14.8-11.1c-8.6-4.9-29.2-1.2-43.2-3.9
		s-13.7-7.2-23.1-9.2C97.1,318.6,88.2,319.7,80.2,323.6z"/>
	<g id="freepik--character--inject-18">
		<g id="freepik--Bottom--inject-18">
			<path d="M150.5,313.3c-2.2-1.6-4-2.2-4.3-1s0.3,4.8,0.3,4.8l1.2,3.2l0.2,2.9c0,0,0.7,1.8,0.8,1.9s2.2-4.8,2.2-4.8
				S153.6,314.8,150.5,313.3z"/>
			<path class="st8" d="M93.6,309.3c0,0,13-21.3,19.6-34c4.8-9.4,5.2-11.2,6.3-17.2c2.2-13,2.7-16,2.7-16l5.3,25.8
				c-0.5,2.9-1.6,8.5-1.5,11.8c0.3,6.4,1.1,12.8,2.5,19.1c1.3,7.1,3,14.1,5,21c1.1,0.7,4.1,0.7,6.7,0.5c2.5-0.3,5-0.8,7.4-1.7
				c0,0,0.8-30.7,0.9-39.1c0.1-10.1,0.2-14.1,0.3-19.7c0.1-8.9,0.8-21.7-0.3-37.9c-2.1-32.3-10.1-46.7-10.1-46.7l-37.5-3.4
				c-2.6,11-9,12.6-9,27.4c0,3.4,2.1,10,2.4,15.2c1,17,3.7,43.6,3.7,43.6c-3.9,3.9-6.8,7.3-9.2,16c-1.5,5.3-6.2,22.1-7.5,26.9
				C86.7,302,93.6,309.3,93.6,309.3z"/>
			<path class="st5" d="M126.9,194.2l-1-0.1c-0.6,5.9-1.7,12.6-2.5,13.1c-1.3,1-6.4,1.9-7.5,1.7s-2.2-1.1-4.3-3.7
				c-1.5-1.8-1.4-3-1.2-5.6c0.1-1,0.2-2.1,0.2-3.4h-1c0,1.4-0.1,2.4-0.2,3.4c-0.2,2.6-0.4,4.2,1.4,6.3c2.3,2.8,3.5,3.8,4.9,4
				c0.2,0,0.4,0,0.6,0c2,0,6.3-1,7.7-1.9C125.4,207,126.6,197.2,126.9,194.2z"/>
			<path class="st5" d="M142.8,194.8l-1,0.3c3.3,9.8,2.3,16.8-2.6,19.7c-1.3-7-2.9-14-4.9-20.9l-1,0.3c6.8,23.6,8.3,42.3,8.6,65
				c0.2,17.2,0.4,46.8,0.5,60.6l1-0.2c-0.1-13.8-0.3-43.2-0.5-60.4c-0.2-15.3-0.9-28.9-3.5-43.3
				C145.1,212.8,146.3,205.3,142.8,194.8z"/>
			<path class="st5" d="M92.3,203.8c0.6,0.6,1.4,1,2.2,1.2l0,0c1.6,0,4.1-2.3,4.8-4c0.3-1,0.5-2,0.5-3c0.1-1.5,0.3-3,0.6-4.5l-1-0.2
				c-0.4,1.5-0.6,3.1-0.7,4.6c0,0.9-0.2,1.8-0.4,2.7c-0.5,1.3-2.7,3.3-3.8,3.3l0,0c-1-0.4-1.8-1.1-2.6-1.8
				C92.1,202.7,92.2,203.3,92.3,203.8z"/>
			<path class="st5" d="M111.8,215c0.5,13.3-1.1,38.2-2.3,45.6c-1,6.4-16.1,35.1-21,44.1l0.8,0.6c4.8-9,20.1-38,21.2-44.6
				c1.2-7.5,2.8-32.5,2.4-45.8L111.8,215z"/>
			<path class="st5" d="M105.4,191.3c-2.4,4.1-3.6,11,0,18.4l0.9-0.4c-3.4-7.1-2.3-13.7-0.1-17.5L105.4,191.3z"/>
			<path class="st5" d="M122.1,242.1l-5.3-27.1c0,0-10.6-1-12.4-10.5c0,5.7,2.6,10.5,9.2,12.9l6.3,24.9l-0.5,15.8L122.1,242.1z"/>
			<path class="st21" d="M172.1,333.2c0.6-0.1,0.7,2.2,0.5,3s-2.5,3.5-7,4.7s-11.4,0.6-14.1,0.7s-5.2,1.5-8.9,2.1
				c-3.3,0.6-7.8,0-9.5-1.4c-0.6-0.7-0.9-1.5-0.8-2.4c-0.1-1.7,0.1-2.1,0.3-2.1L172.1,333.2z"/>
			<path class="st5" d="M132.3,334c-0.2,1.7-0.1,3.4,0.2,5c0.6,1.2,2.4,1.9,3.6,2.1c3.2,0.7,5.6,0.4,9.1-0.5
				c2.2-0.7,4.5-1.1,6.8-1.1c2.8,0,6.6,0.2,9.3-0.2c2.3-0.3,4.6-0.9,6.8-1.9c1.8-0.9,3.5-2,3.9-3.9c0-2.6-1.5-4.9-3.9-5.8
				c-2.1-1-4.7-0.9-7-0.9c-2.9-0.1-3.9,0.2-6.9-0.4c-1.5-0.3-3.7,0.4-4.5-1.2c-0.9-1.9-0.4-5.7-0.9-7.8c0-0.3-0.2-0.7-0.5-0.9
				c-0.4-0.2-1,0.1-1.4,0.4c-1.9,1.3-4,2.2-6.2,2.5c-6.2,1.1-8-1-8-1l-0.4-1.3c0,0-1.3,0.3-0.7,3.2c0.6,2.4,0.9,4.8,1,7.3
				C132.9,329.7,132.8,331.9,132.3,334z"/>
			<path class="st21" d="M160.1,326.8c2.2,0.9,1.8,4.8,1.8,4.8c-2.4,0.5-4.8,0.6-7.3,0.2c-4.2-0.8-6-3.5-6.1-6.9s2.1-7.5,2.7-8.9
				c0.5-1,0.2-2.2-0.7-2.8c2,1.2,2.1,2.6,1.6,4.2s-1.5,5-1.1,6.3S154.8,326.6,160.1,326.8z"/>
			<path class="st21" d="M93.9,308c1.2,1.8,2.6,3-0.9,5.3c-2.7,1.8-2.9,3.2-3.8,5.1s-0.7,5.8-0.7,5.8s-4.6-7.1-3.2-11.6
				S93.9,308,93.9,308z"/>
			<path class="st5" d="M79,303.8c-0.9,1.3-2.9,2.3-4.6,3.4c-1.2,0.7-2.4,1.4-2.8,2.8c0,0.1,0.7,1,0.7,1.1c-0.1,0.7,0,1.3,0.1,2
				c0.2,2.3,1.5,4,1.7,6.3c0.1,0.9,0.2,1.8,0.5,2.7c0.2,1.1,0.3,2.2,0.2,3.3c0.1,1.1,0.1,2.3,0.2,3.4c0.1,0.5,0,1,0,1.4
				c-0.1,0.5,7.6,4.4,10.7,6c0.2,0.1,0.4,0.2,0.6,0.2c1.9,0.5,3.9,0.3,5.7-0.5c6.2-2.2,5.9-4.5,5.9-4.5s0.2-2.6-2.9-4.4
				c-0.4-0.2-0.8-0.4-1.2-0.5h-0.1c-1.5-0.6-3.2-0.7-4.8-0.3c-0.3-0.9-0.4-1.9-0.4-2.9c-0.1-1.5-0.1-2.9,0-4.4
				c0.3-1.7,0.9-3.2,1.9-4.6c1.3-1.8,2.8-4.1,3.7-5.4c1-1.1,1.2-4.4-4-8.1c-4.9-3.6-8.6-2.9-9.3-1.4C80.3,301,79.8,302.4,79,303.8z"
				/>
			<path class="st21" d="M92.2,328.5c-0.4-1.1-1.2-1.9-2.2-2.5c-0.4,0-0.7,0.1-1.1,0.2C89.5,326.8,91.8,327.7,92.2,328.5z"/>
			<path class="st1" d="M70.9,311.3c-1.4,0.6,0,4.3,1.1,7.9s1.5,4.8,1.2,7.8s-0.6,4.4,0.7,5.4s11.5,5.3,11.5,5.3
				c-1.5-3.6-2.4-7.4-2.6-11.2c-0.5-6.6-1.1-10.9-4.4-13.8C76.2,311,73.4,310.5,70.9,311.3z"/>
			<path class="st22" d="M70.9,311.3c-1.4,0.6,0,4.3,1.1,7.9s1.5,4.8,1.2,7.8s-0.6,4.4,0.7,5.4s11.5,5.3,11.5,5.3
				c-1.5-3.6-2.4-7.4-2.6-11.2c-0.5-6.6-1.1-10.9-4.4-13.8C76.2,311,73.4,310.5,70.9,311.3z"/>
			<path class="st21" d="M97.9,331.4c-0.2,1.3-3.9,3.9-8.3,3.8s-4.7-1-5.4-6.1s-1.1-12.3-3.3-15.3s-5.1-4.9-9.4-3.8
				c-0.5,0.2-1.8,1.5-1.3,2.8c0,0,0-1,1.8-1.5c1.5-0.4,3.3-0.4,5.8,1.8c2.9,2.5,3.5,8.5,3.8,13.6s0.7,11,4.9,11.5
				c4.1,0.3,8.2-1.1,11.3-3.7C98.1,333.4,98.1,332.4,97.9,331.4z"/>
		</g>
		<g id="freepik--Top--inject-18">
			<path class="st18" d="M106,121.6c-5.8,0-11.9,1.7-18.3,11.4c-4.8,7.3-8.8,15.2-11.8,23.4c-1.3,3.9-4.5,10.6-1.8,13.1
				s16.3,1.4,21.5-3.4s7.5-25.4,7.5-25.4L106,121.6z"/>
			<path class="st18" d="M179.4,137.2c5.2-2.8,0.2-11.1-3.8-19c-6.5-12.8-12.5-22.1-16.1-26.1c-1.8-2-6.3-4.7-9.9-6.3
				c-1.9-0.8-2.9-1.5-4.8-1.5c-2.2,0-4.6-0.2-7.6-0.3c-2.4-0.2-4.7-0.2-7.1,0c-0.4,0-0.7,0.2-1,0.4c-0.2,0.3-0.2,0.7,0,1
				c0.2,0.3,0.4,0.6,0.7,0.8c0.6,0.4,1.2,0.8,1.9,1c-0.6,0.3-1,0.9-1,1.6c0,0.9,1,1.4,1.8,1.8c0.1,0,0.2,0.1,0.2,0.2
				c0,0.1,0,0.3,0,0.4c-0.2,0.7,0.1,1.4,0.6,1.8c0.5,0.4,1.1,0.7,1.8,0.9c2.4,0.8,5.4,0.6,7.6,1.9c1.1,0.8,2,1.8,2.9,2.8
				c1.1,1.1,2.4,2,3.8,2.6c3.5,1.2,4-0.4,5.8,3.4s7.3,23.8,7.3,23.8L179.4,137.2z"/>
			<path class="st27" d="M150.7,89.5c0.1,0.3-0.3,0.6-0.6,0.6c-0.3,0-0.6,0-0.9,0c-0.6,0-1.3-0.2-1.9-0.3c-1.2-0.3-2.4-0.8-3.5-1
				c-0.6-0.1-1.2-0.2-1.7-0.2c-0.3,0-0.5,0-0.8,0.1c-0.2,0.1-0.4,0.2-0.6,0.3c-0.3,0.3-0.1,0.7,0.2,1.1c0.4,0.4,0.8,0.8,1.3,1.1
				c1,0.6,2.1,1,3.3,1.3c0.6,0.2,1.2,0.4,1.8,0.8c0.5,0.4,1,0.9,1.3,1.5c0.3,0.6,0.4,1.2,0.7,1.8c0.2,0.5,0.5,1.1,0.9,1.5
				c0.8,0.9,1.9,1.6,3,2c-1.2-0.3-2.4-0.9-3.3-1.7c-0.5-0.4-0.8-1-1.1-1.5c-0.3-0.6-0.5-1.2-0.8-1.7c-0.3-0.5-0.6-0.9-1.1-1.2
				c-0.5-0.3-1-0.5-1.6-0.6c-1.3-0.3-2.5-0.7-3.6-1.4c-0.6-0.4-1.1-0.8-1.5-1.3c-0.2-0.3-0.4-0.6-0.5-1c-0.1-0.4,0.1-0.9,0.4-1.2
				c0.5-0.5,1.3-0.7,2-0.7c0.7,0,1.3,0.1,1.9,0.3c1.2,0.3,2.4,0.9,3.5,1.3c0.6,0.2,1.2,0.4,1.8,0.5c0.3,0.1,0.6,0.1,0.9,0.1
				C150.3,90.1,150.6,89.9,150.7,89.5C150.7,89.5,150.7,89.5,150.7,89.5z"/>
			<path class="st21" d="M139.1,88.4c1.1-1.7,1.3-3.9,0.4-5.7c-0.8-1.8-2.4-3.7-6.9-5.8c-5.3-2.5-19.8-3.9-26.5,5.8
				c-1,1.4,14.2,27.4,13.7,33c3.5-4,15.1-18,15.1-18c2.8-1.3,4.5-2.4,5-5.2C140.1,91,139.8,89.6,139.1,88.4z"/>
			<path class="st27" d="M137.2,96c0,0,4.1,6.2,3.7,6.7c-0.9,0.7-1.8,1.4-2.8,2L137.2,96z"/>
			<path class="st18" d="M132,84.6c2.6,1.1,5,3,6,8.7c0.3,1.5-0.8,3.6-0.2,5.5c2.6,8.4,0.2,15.6-1.4,17.2c-1.1,1.1-6.9,1.8-10,1.1
				c-3.9-0.9-12.3-4.4-16.5-10.2c-4.9-6.8-6.4-16.3-1.3-20.3C115.6,81,129.2,83.4,132,84.6z"/>
			<path class="st18" d="M112.6,111.6l-0.9,10.2l0,0c-2.3,0.7-1.9,3.9-0.5,5.9l-0.3,3l14.9,1.3l2.2-17.1L112.6,111.6z"/>
			<path class="st27" d="M136.1,116.3c-1.3,0.8-4.3,1.5-8.4,1.1l0.2-2.1c1.3,0.5,2.6,0.8,3.9,1C133.2,116.4,134.6,116.5,136.1,116.3
				z"/>
			<path class="st21" d="M135.9,87.5c0.3,3.7-2,4.9-3.6,5.7c0.7,1.3,1,2.8,0.8,4.3c-0.3,1.9-0.9,3.4-2.8,4.1
				c-1.1,0.4-1.5-0.1-1.9-0.9c-0.6-1.2-1.4-3.2-4.1-2.7c-3.1,0.5-3.7,5.3-1.8,8.3c0.8,1.3,2.1,2.1,3.6,2.2c0.8,0,1.6-0.4,2.1-1.1
				c0,0,0,4.1-5.2,6.7c0,0-5.2,3.2-10.7,1.8c-2.6-2.6-5-5.4-7.3-8.3c-6.1-8.1-7.8-23.2,1.9-26.3c0.5-0.2,9.3-1.7,13.6-1
				C134,82.9,135.9,86.9,135.9,87.5z"/>
			<path class="st21" d="M128.3,107.5c0,4.6-1.9,9.2-5.9,11.7c-2.3,1.5-5,2.1-7.8,1.7c-2.9-0.4-5.8-1.6-8.8-1.7
				c-6.2-0.2-11.7,4.5-17.8,4.1c-3.3-0.3-6.4-1.8-8.8-4.1c-2-1.9-3.7-4.3-6.1-5.6s-5.5-1.3-8.2-1.9c-3.7-0.9-7-2.9-9.5-5.8
				c-1.8-1.9-2.8-4.4-3.1-7c-0.1-2.6,1.3-5,3.5-6.3c1.9-1.2,4.8-1.6,6.6-2.8c2.1-1.3,2.4-3.8,4.2-5.4c1.9-1.5,4.3-2.4,6.7-2.6
				c3.2-0.3,6.4,0.1,9.4,1.1c3.4,1.2,6.7,3.3,10.3,3c3.3-0.3,6.1-2.5,8.7-4.5c3.4-2.7,6.5-3.8,9-3.5c0.1,0-0.3,27.9,8.2,31.1
				S128.3,107.5,128.3,107.5z"/>
			<path class="st21" d="M96.1,129.1c1.7-4.7,12.9-7.6,12.2-7.7c1.5,0.1,3.3,0.3,3.3,0.3c-0.9,1.8,0.4,3.2,2.8,3.8
				c3.1,0.9,7.9,1.2,11.3-0.8l1-0.7c2.9,0.4,5.8,1,8.7,1.7c5.3,2,6.6,3.8,12.1,18c2.3,6.1,0.9,12.4-5.4,15.8c-0.5,3.8-1,9.6-1,9.6
				c1.7,8.1,3,16.2,3.8,24.4c0,0-3.3,7.5-26.3,6.3c-17.8-1-26.1-10-26.1-10c0.4-4.4,3.2-11.3,8.9-24.5
				C94.7,146.6,93.7,135.8,96.1,129.1z"/>
			<path class="st1" d="M111.6,121.8c0,0-7.4,3.3-8.9,8.1l-7-0.9c0,0,4.8-5.7,10.7-7.5C110.3,121.1,111.6,121.8,111.6,121.8z"/>
			<path class="st13" d="M111.6,121.8c0,0-7.4,3.3-8.9,8.1l-7-0.9c0,0,4.8-5.7,10.7-7.5C110.1,121.1,111.6,121.8,111.6,121.8z"/>
			<path class="st1" d="M127.8,136.6c0,0,3.3-9.6,7.7-10.7c-2.7-0.9-5.4-1.4-8.2-1.6c-2.9,2.1-5.2,4.9-6.7,8.2L127.8,136.6z"/>
			<path class="st13" d="M127.8,136.6c0,0,3.3-9.6,7.7-10.7c-2.7-0.9-5.4-1.4-8.2-1.6c-2.9,2.1-5.2,4.9-6.7,8.2L127.8,136.6z"/>
			<g id="freepik--Backpack--inject-18">
				<path class="st1" d="M99.9,124.1c-4.3-0.3-10.8,3.9-12.4,7.1c-1.7,3.4-8.4,50-4.9,54.6c4.4,5.8,26.5,17.9,36.4,18.2
					c5.6,0.2,11-2.6,14.1-7.3c2.1-3.4,0.7-51.9-1.8-56.1C127.3,133.7,105.3,124.5,99.9,124.1z"/>
				<path class="st10" d="M99.9,124.1c-4.3-0.3-10.8,3.9-12.4,7.1c-1.7,3.4-8.4,50-4.9,54.6c4.4,5.8,26.5,17.9,36.4,18.2
					c5.6,0.2,11-2.6,14.1-7.3c2.1-3.4,0.7-51.9-1.8-56.1C127.3,133.7,105.3,124.5,99.9,124.1z"/>
				<path class="st11" d="M133.8,165.2c-0.1-2-0.2-4-0.3-6c0-0.8-0.1-1.5-0.1-2.3c-0.1-1.5-0.2-3-0.3-4.3c0-0.7-0.1-1.4-0.2-2
					c-0.1-1-0.2-1.9-0.3-2.8s-0.2-1.7-0.3-2.4c0-0.2-0.1-0.5-0.1-0.7c-0.1-1.4-0.5-2.8-1-4.2c-0.1-0.2-0.2-0.4-0.4-0.6
					c0-0.1-0.1-0.1-0.1-0.2l-0.3-0.4l-0.2-0.2c-0.1-0.1-0.2-0.2-0.4-0.4l-0.2-0.2l-0.6-0.5l-0.4-0.4l-0.3-0.2L128,137l-0.2-0.2
					l-0.5-0.4c-3.9,1.4-4.3,1.1-4.4,1.2s-4.2,2.2-4.1,8.2l-0.5,24l-0.1,2.3c0,3.2-3.5,32.4,5.6,31.2h0.4c6.1-1.8,8-5,9.1-6.6
					c0.2-0.5,0.4-1,0.4-1.6c0-0.3,0.1-0.7,0.1-1c0-0.2,0-0.4,0.1-0.6c0.1-0.6,0.1-1.3,0.1-2.1c0-0.3,0-0.5,0-0.8
					c0.2-4,0.2-9.6,0.1-15.6c0-1.2,0-2.4-0.1-3.6c0-0.8,0-1.6-0.1-2.4c0-0.4,0-0.8,0-1.2C133.8,166.8,133.8,166,133.8,165.2z"/>
				<path class="st22" d="M132,143.3c-0.1-0.9-0.4-1.9-0.8-2.7c-4-6.8-26-16-31.4-16.4c-4.3-0.3-10.8,3.9-12.4,7.1
					c-0.5,1.4-0.8,2.8-1.1,4.3c8.4,5,30.1,16.3,32.4,15.6C121.6,150.2,131.8,143.6,132,143.3L132,143.3z"/>
				<path class="st1" d="M108.3,177.6c-4.5-2.4-14.4-8.6-17.1-10.1c-0.9-0.6-2.1-0.7-3.1-0.2c-0.4,0.3-1.8,1.2-2.2,1.4
					c-0.6,0.3-1,1-1,1.7c-0.2,5.1-0.3,7.1-0.2,9.6c0.1,1.7,0.4,3.2,2.8,5.1s12.9,8.1,16,9.8c2.9,1.6,6,2.8,7.3,1.9
					c0.3-0.2,1.9-1.1,2.3-1.4c0.4-0.3,0.7-0.9,0.6-1.4c0-2.6,0.2-8.1,0.3-10C114.1,181.7,113,180.1,108.3,177.6z"/>
				<path class="st12" d="M108.3,177.6c-4.5-2.4-14.4-8.6-17.1-10.1c-0.9-0.6-2.1-0.7-3.1-0.2c-0.4,0.3-1.8,1.2-2.2,1.4
					c-0.6,0.3-1,1-1,1.7c-0.2,5.1-0.3,7.1-0.2,9.6c0.1,1.7,0.4,3.2,2.8,5.1s12.9,8.1,16,9.8c2.9,1.6,6,2.8,7.3,1.9
					c0.3-0.2,1.9-1.1,2.3-1.4c0.4-0.3,0.7-0.9,0.6-1.4c0-2.6,0.2-8.1,0.3-10C114.1,181.7,113,180.1,108.3,177.6z"/>
				<path class="st22" d="M111.4,183.3l2.3-1.3c-0.6-1.4-2.1-2.7-5.4-4.4c-4.5-2.4-14.4-8.6-17.1-10.1c-0.9-0.6-2.1-0.7-3.1-0.2
					c-0.4,0.3-1.8,1.2-2.2,1.4c-0.4,0.3-0.8,0.7-0.9,1.2L111.4,183.3z"/>
				<path class="st1" d="M85,170.3c-0.2,5.1-0.3,7.1-0.2,9.6c0.1,1.7,0.4,3.2,2.8,5.1s12.9,8.1,16,9.8c3.8,2.1,8,3.5,8,0.6
					c0-2.6,0.2-8.1,0.3-10c0.1-2.3-1-3.9-5.7-6.4c-4.5-2.4-14.4-8.6-17.1-10.1C86.6,167.7,85,168.8,85,170.3z"/>
				<path class="st28" d="M85,170.3c-0.2,5.1-0.3,7.1-0.2,9.6c0.1,1.7,0.4,3.2,2.8,5.1s12.9,8.1,16,9.8c3.8,2.1,8,3.5,8,0.6
					c0-2.6,0.2-8.1,0.3-10c0.1-2.3-1-3.9-5.7-6.4c-4.5-2.4-14.4-8.6-17.1-10.1C86.6,167.7,85,168.8,85,170.3z"/>
				<path class="st1" d="M113.7,182c-0.5-1.3-2.7-0.5-3.2,1.3s-0.4,4.1-0.6,4.9s-24.7-13.5-25.4-14.4c-0.3-0.4-0.1-4.6,0.8-5.4
					s2.8-2.1,4.2-1.8s16.2,9.1,19.1,10.6S113.8,180.3,113.7,182z"/>
				<path class="st11" d="M113.7,182c-0.5-1.3-2.7-0.5-3.2,1.3s-0.4,4.1-0.6,4.9s-24.7-13.5-25.4-14.4c-0.3-0.4-0.1-4.6,0.8-5.4
					s2.8-2.1,4.2-1.8s16.2,9.1,19.1,10.6S113.8,180.3,113.7,182z"/>
				<path class="st1" d="M85.3,168.4c-0.7,0.6-1.1,3.2-1.1,5.5s7.9,10.4,10.5,11.7s15.3,4.2,15.4,2.8s0.1-4.8,0.7-5.7
					c0.1-0.2-8.6-4.7-13.6-7.3S86,167.9,85.3,168.4z"/>
				<path class="st5" d="M95.8,180.7c0.6,0.4,1,1.1,1,1.9c0,0.4-0.3,0.8-0.7,0.9c-0.2,0-0.3,0-0.5-0.1c-0.7-0.4-1-1.1-1-1.9
					C94.6,180.7,95.2,180.4,95.8,180.7z"/>
				<path class="st20" d="M83.2,157c0.4-3.7,0.7-6.2,1.2-9.3c1.2-0.9,2.8-1.9,2.8-1.9l10.5,3.6l9.8,3.4l2.2,0.8
					c0.7,0.2,1.4,0.7,2.1,0.9c1.8,0.5,4.4-1,5.7-2s2.1-2,3.8-2.4c-0.1,3.3-0.3,6.7-0.5,10.1c-0.2,3.1-0.1,6.3-1.1,9.3
					c-0.5,1.5-1.7,2.7-3.3,3.1c-1.9,0.4-3.8,0.4-5.7,0c0,0-0.2,2.8-0.4,4.2c-0.5,1-1.4,1.8-2.4,2.2c-1.6-0.4-1.9-8.1-1.9-8.1
					l-12.5-6.7c0,1.1,0,2.1-0.3,3.2c-0.7,1.1-1.9,2.2-2.4,2.1c-2.1-0.5-1.9-7.9-1.9-7.9C86.8,160.5,84.8,158.9,83.2,157z"/>
				<path class="st1" d="M99.4,124.1c-4.8-0.1-9.4,2.1-12.4,6c-2.5,3.5-5.3,21.3-3.7,24.5S98,165.3,105.8,169
					c6.2,3,9.4,2.3,11.8,1.1c1.8-0.9,1.8-3.9,1.9-6.1c0.4-5.7,0.9-16,4.5-19.2s7-4.1,8-1.5c0,0,1.1-3.8-6-7.9
					C114.3,128.5,105.2,124.4,99.4,124.1z"/>
				<path class="st11" d="M99.4,124.1c-4.8-0.1-9.4,2.1-12.4,6c-2.5,3.5-5.3,21.3-3.7,24.5S98,165.3,105.8,169
					c6.2,3,9.4,2.3,11.8,1.1c1.8-0.9,1.8-3.9,1.9-6.1c0.4-5.7,0.9-16,4.5-19.2s7-4.1,8-1.5c0,0,1.1-3.8-6-7.9
					C114.3,128.5,105.2,124.4,99.4,124.1z"/>
				<path class="st1" d="M86.4,131.3c-2.3,5.3-4.5,20.4-3,23.3c1.6,3.2,14.6,10.7,22.4,14.4c6.2,3,9.4,2.3,11.8,1.1
					c1.8-0.9,1.8-3.9,1.9-6.1c0.3-4.2,0.7-10.9,2.2-15.4C114.3,144.9,94.5,135.2,86.4,131.3z"/>
				<path class="st8" d="M106.6,155.8l4.1,1.8c0,0-1.3,13.5-1.4,18.5c0,0-1,2.1-2,2.4s-2-2.2-2.2-4S106.1,160.1,106.6,155.8z"/>
				<path class="st5" d="M106.5,156.8l4.2,1.7c0.3,0.2,0.8,0,0.9-0.3c0-0.1,0.1-0.2,0.1-0.3l0.2-2c0-0.5-0.2-0.9-0.7-1.1l-4.2-1.8
					c-0.3-0.2-0.7-0.1-0.9,0.3c0,0.1-0.1,0.2-0.1,0.3l-0.2,2.1C105.8,156.2,106.1,156.6,106.5,156.8z"/>
				<path class="st0" d="M107.3,172.6c0.7,0.4,1.1,1.1,1.1,1.8c0.1,0.4-0.3,0.8-0.7,0.9c-0.2,0-0.3,0-0.5-0.1
					c-0.7-0.4-1.1-1.1-1.1-1.8C106.1,172.6,106.7,172.3,107.3,172.6z"/>
				<path class="st8" d="M89.8,146.5l4,2.1c0,0-1.1,13.4-1.5,18.3c0,0-1.1,2-2.1,2.3s-1.9-2.3-2-4.1
					C88.4,158.9,88.9,152.7,89.8,146.5z"/>
				<path class="st5" d="M89.6,147.5l4.1,1.9c0.3,0.2,0.8,0,0.9-0.3c0-0.1,0.1-0.1,0.1-0.2l0.3-2c0.1-0.5-0.2-0.9-0.6-1.1l-4.1-2
					c-0.3-0.2-0.7-0.1-0.9,0.3c0,0.1-0.1,0.2-0.1,0.3l-0.3,2.1C88.9,146.8,89.2,147.3,89.6,147.5z"/>
				<path class="st0" d="M90.4,163.2c0.6,0.4,1,1.1,1,1.9c0,0.4-0.3,0.8-0.8,0.8c-0.2,0-0.3,0-0.5-0.1c-0.7-0.4-1-1.1-1-1.9
					C89.2,163.2,89.8,162.9,90.4,163.2z"/>
				<path class="st1" d="M137.4,176.1c-0.2-0.1-3.9-3.1-4.4-3.4c-0.8-0.4-12,6.4-13,7.7c-0.7,0.8,0.1,14.5,0.5,15.5
					c0.2,0.4,4.2,3,4.4,3.4c0.4,1,12.2-6,13-7.8S138.5,176.7,137.4,176.1z"/>
				<path class="st28" d="M137.4,176.1c-0.2-0.1-3.9-3.1-4.4-3.4c-0.8-0.4-12,6.4-13,7.7c-0.7,0.8,0.1,14.5,0.5,15.5
					c0.2,0.4,4.2,3,4.4,3.4c0.4,1,12.2-6,13-7.8S138.5,176.7,137.4,176.1z"/>
				<path class="st1" d="M124.4,183.7c-0.7,0.9,0.1,14.5,0.5,15.5s12.2-6,13-7.8s0.6-14.8-0.5-15.4
					C136.6,175.6,125.4,182.5,124.4,183.7z"/>
				<path class="st22" d="M133,172.7c0.4,0.2,4.1,3.2,4.4,3.4c-0.8-0.4-11.9,6.4-13,7.7l-4.4-3.4C121.1,179.1,132.3,172.3,133,172.7
					z"/>
				<path class="st12" d="M124.4,183.7c-0.7,0.9,0.1,14.5,0.5,15.5s12.2-6,13-7.8s0.6-14.8-0.5-15.4
					C136.6,175.6,125.4,182.5,124.4,183.7z"/>
				<path class="st1" d="M120,180.4c0.8-0.5,3.3,1,4.3,1.9s2.1,5.3,4.8,6.1s6.7-2.6,7.5-4.9s1.9-7.1,0.6-8.9s-3.6-2.9-5.6-1.9
					S120.3,178.2,120,180.4z"/>
				<path class="st24" d="M120,180.4c0.8-0.5,3.3,1,4.3,1.9s2.1,5.3,4.8,6.1s6.7-2.6,7.5-4.9s1.9-7.1,0.6-8.9s-3.6-2.9-5.6-1.9
					S120.3,178.2,120,180.4z"/>
				<path class="st5" d="M132.4,182.9c-0.7,0.4-1,1.1-1,1.8c0,0.5,0.3,0.9,0.8,0.9c0.2,0,0.3,0,0.4-0.1c0.7-0.4,1.1-1.1,1-1.8
					C133.5,182.9,133,182.6,132.4,182.9z"/>
			</g>
			<path class="st18" d="M136.1,126.1c4.1-0.1,5.7,0.9,8.8,1.6c4.2,0.8,20.2-2.4,20.2-2.4s6.5-0.2,10.7,1.7c4.7,2.2,5.9,4.6,5.8,6.5
				c-0.1,2.7-2.1,4.2-7.1,6c-3.9,1.4-23.1,6.6-30.1,7.5C134.1,148.3,129,131.6,136.1,126.1z"/>
			<path class="st27" d="M161.8,125.9c5.4-0.6,10.4-1,14.1,2.1c-1.2-2.9-4.8-5-14.6-4L161.8,125.9z"/>
		</g>
	</g>
</g>
<g id="freepik--Luggage--inject-5">
	<g id="freepik--luggage--inject-5">
		<polygon class="st8" points="300.2,372.5 300.2,320.6 303.6,318.6 303.6,370.5 		"/>
		<polygon class="st21" points="296.7,318.5 296.7,374.4 300.2,372.5 300.2,320.5 		"/>
		<polygon class="st5" points="279.5,384.4 276,382.4 296.8,370.5 300.2,372.5 		"/>
		<polygon class="st8" points="276,386.4 276,334.5 279.5,332.5 279.5,384.4 		"/>
		<polygon class="st5" points="272.6,332.5 272.6,388.4 276,386.4 276,334.5 		"/>
		<path class="st29" d="M299.3,314.4c-0.9-0.4-1.9-0.3-2.7,0.3l-20.3,11.7c-2.1,1.3-3.5,3.6-3.7,6.1v4l3.5,2l27.6-16v-4
			c0.1-0.8-0.3-1.6-0.9-2.1C302.1,316,299.9,314.8,299.3,314.4z"/>
		<path class="st29" d="M276,334.5c0.2-2.5,1.6-4.8,3.7-6.1l20.3-11.7c2-1.2,3.7-0.4,3.6,1.9v4l-27.6,16L276,334.5z"/>
		<path class="st24" d="M276,334.5c0.2-2.5,1.6-4.8,3.7-6.1l20.3-11.7c2-1.2,3.7-0.4,3.6,1.9v4l-27.6,16L276,334.5z"/>
		<path class="st22" d="M277.1,331.1c-0.6,1-1,2.2-1,3.4v4l-3.5-2v-4c0-1.2,0.4-2.4,1-3.4L277.1,331.1z"/>
		<path class="st29" d="M333.1,376.9L314.3,366c-0.8-0.6-1.8-0.6-2.6-0.2l0,0l-45.2,26.1l25.7,102.6l45-26c0.8-0.5,1.2-1.4,1.1-2.4
			v-80.1C338.1,382.2,336.2,378.9,333.1,376.9z"/>
		<path class="st24" d="M333.1,376.9L314.3,366c-0.8-0.6-1.8-0.6-2.6-0.2l0,0l-45.2,26.1l25.7,102.6l45-26c0.8-0.5,1.2-1.4,1.1-2.4
			v-80.1C338.1,382.2,336.2,378.9,333.1,376.9z"/>
		<path class="st29" d="M269.3,482.5l20.3,11.8c2,1.2,3.7,0.2,3.7-2.1v-80.2c-0.2-3.7-2.2-7-5.2-9L269.3,392c-2-1.2-3.7-0.2-3.7,2.1
			v81.9C265.8,478.7,267.2,481,269.3,482.5z"/>
		<path class="st22" d="M269.3,482.5l20.3,11.8c2,1.2,3.7,0.2,3.7-2.1v-80.2c-0.2-3.7-2.2-7-5.2-9L269.3,392c-2-1.2-3.7-0.2-3.7,2.1
			v81.9C265.8,478.7,267.2,481,269.3,482.5z"/>
		<path class="st8" d="M283.5,486.2c-0.3-4.6-2.7-8.9-6.6-11.4c-1.9-1.1-3.6-1.1-4.8-0.3l0,0l-4.5,2.5l9.5,16.1l4.4-2.5l0,0
			C282.7,489.9,283.5,488.4,283.5,486.2z"/>
		<path class="st5" d="M272.2,477.4c3.9,2.5,6.4,6.8,6.6,11.4c0,4.2-3,5.9-6.6,3.8c-3.9-2.5-6.3-6.8-6.6-11.4
			C265.6,477,268.6,475.3,272.2,477.4z"/>
		<path class="st21" d="M272.2,482.2c1.5,1,2.4,2.6,2.5,4.4c0,1.6-1.1,2.2-2.5,1.5c-1.5-1-2.4-2.6-2.5-4.4
			C269.7,482,270.9,481.4,272.2,482.2z"/>
		<path class="st5" d="M286.4,492.3l3.6,2.1c0.7,0.4,1.6,0.4,2.3,0l5.8-3.3V487c0-0.5-0.4-0.8-0.8-0.8c-0.1,0-0.3,0-0.4,0.1l-3.5,2
			l-5.7-3.3c-0.4-0.2-0.9-0.1-1.1,0.3c-0.1,0.1-0.1,0.3-0.1,0.4L286.4,492.3z"/>
		<path class="st21" d="M293.3,492v-3.7l0,0l-5.7-3.3c-0.4-0.2-0.9-0.1-1.1,0.3c-0.1,0.1-0.1,0.3-0.1,0.4v6.6l0,0l3.2,1.9
			c0.7,0.4,1.5,0.6,2.2,0.4c0.1,0,0.3-0.1,0.4-0.2C293,493.9,293.4,493,293.3,492z"/>
		<path class="st5" d="M337.2,468.5c0.8-0.5,1.2-1.4,1.1-2.4v-3.7l0,0l-3.7,2.1c-0.6,0.4-1,1.1-1,1.8v4.3L337.2,468.5z"/>
		<path class="st29" d="M293.3,436.4c19-22.2,33.6-29.5,45-26v-4c-11.4-3.6-25.9,3.8-45,26V436.4z"/>
		<path class="st30" d="M336.1,379.7l-45,26c-0.8-1.2-1.8-2.1-3-2.8L269.4,392c-0.7-0.5-1.6-0.6-2.4-0.3l44.8-25.9
			c0.8-0.4,1.8-0.3,2.6,0.2l18.8,10.8C334.3,377.6,335.3,378.6,336.1,379.7z"/>
		<path class="st21" d="M317.5,375.6c-1.4-0.7-3-0.7-4.3,0l-2.2,1.2v0.7l4.3,2.5l2.2-1.2c0.5-0.2,0.8-0.7,0.9-1.2v-0.7
			C318.3,376.3,318,375.8,317.5,375.6z"/>
		<path class="st8" d="M311,376.9l2.2-1.2c1.4-0.7,3-0.7,4.3,0c0.7,0.2,1.1,1,0.8,1.7c-0.1,0.4-0.4,0.7-0.8,0.8l-2.2,1.2L311,376.9z
			"/>
		<polygon class="st5" points="315.3,376 315.3,379.4 311,376.9 311,373.5 		"/>
		<polygon class="st8" points="293.7,388.5 315.3,376 311,373.5 289.4,386 		"/>
		<polygon class="st5" points="289.4,389.4 289.4,386 293.7,388.5 293.7,391.9 		"/>
		<path class="st21" d="M293.7,391.9l-4.3-2.5l-2.2,1.2c-0.5,0.2-0.8,0.7-0.9,1.2v0.7c0,0.5,0.4,1,0.9,1.2c1.4,0.7,3,0.7,4.3,0
			l2.2-1.2V391.9z"/>
		<path class="st8" d="M289.4,389.4l-2.2,1.2c-0.7,0.2-1.1,1-0.8,1.7c0.1,0.4,0.4,0.7,0.8,0.8c1.4,0.7,3,0.7,4.3,0l2.2-1.2
			L289.4,389.4z"/>
		<polygon class="st21" points="294.4,388.1 294.4,392.2 293.7,392.6 293.7,388.5 		"/>
		<polygon class="st21" points="315.3,376 315.3,380.1 314.6,380.5 314.6,376.4 		"/>
		<polygon class="st21" points="293.7,389.4 315.3,376.8 315.3,376 293.7,388.5 		"/>
		<polygon class="st5" points="314.6,380.5 314.6,377.2 311.8,378.9 		"/>
	</g>
</g>
</svg>
