<?xml version="1.0" encoding="utf-8"?>
<!-- Generator: Adobe Illustrator 27.2.0, SVG Export Plug-In . SVG Version: 6.00 Build 0)  -->
<svg version="1.1" id="Layer_1" xmlns="http://www.w3.org/2000/svg" xmlns:xlink="http://www.w3.org/1999/xlink" x="0px" y="0px"
	 viewBox="0 0 500 500" style="enable-background:new 0 0 500 500;" xml:space="preserve">
<style type="text/css">
	.st0{fill:#F5F5F5;}
	.st1{fill:#FFFFFF;}
	.st2{fill:#8A9688;}
	.st3{opacity:0.6;fill:#FFFFFF;enable-background:new    ;}
	.st4{fill:#FFBDA7;}
	.st5{opacity:0.5;enable-background:new    ;}
	.st6{opacity:0.4;fill:#CFDECE;enable-background:new    ;}
	.st7{fill:#263238;}
	.st8{fill:#CFDECE;}
	.st9{opacity:0.35;enable-background:new    ;}
	.st10{opacity:0.1;enable-background:new    ;}
	.st11{opacity:0.3;enable-background:new    ;}
	.st12{opacity:0.2;}
	.st13{opacity:0.3;fill:#8A9688;enable-background:new    ;}
	.st14{fill:#EBEBEB;}
	.st15{fill:#455A64;}
	.st16{fill:#FAFAFA;}
	.st17{fill:#E0E0E0;}
	.st18{opacity:0.8;fill:#FFFFFF;enable-background:new    ;}
	.st19{fill:#37474F;}
	.st20{opacity:0.3;fill:#FFFFFF;enable-background:new    ;}
	.st21{opacity:0.2;fill:#8A9688;enable-background:new    ;}
</style>
<g id="freepik--Floor--inject-4">
	<path id="freepik--floor--inject-4" class="st0" d="M77.7,244.9c-95.2,54.9-95.2,144.1,0,199s249.5,55,344.7,0s95.2-144,0-199
		S172.8,189.9,77.7,244.9z"/>
	<g id="freepik--Flowers--inject-4">
		<g id="freepik--flowers--inject-4">
			<path class="st1" d="M451.8,334.3c0,0-0.1-1.6-1.4-1.8c0,0-1-0.2-1.6,1.4c-1-0.4-2.1-0.2-3,0.4c-0.1,0.9,0.5,1.8,1.4,2.1
				c-0.7,0.7-0.9,1.7-0.5,2.5c0,0,2.6,0.9,3.2-0.8c0,0,0.2,1.4,2.8,1.4c0.6-0.9,0.6-2,0-2.9c0,0,1.8-0.1,2.1-1.4
				C454.7,335.4,453.5,333.3,451.8,334.3z"/>
			<path class="st2" d="M450.2,334.6c-0.8-0.1-1.6,0.4-1.9,1.2c0,0,0,0.9,1.6,1.1s1.9-0.8,1.9-0.8
				C451.7,335.2,451.1,334.6,450.2,334.6z"/>
			<path class="st3" d="M450.2,334.6c-0.8-0.1-1.6,0.4-1.9,1.2c0,0,0,0.9,1.6,1.1s1.9-0.8,1.9-0.8
				C451.7,335.2,451.1,334.6,450.2,334.6z"/>
			<path class="st1" d="M459.8,331c0,0-0.6-1.1-1.5-1.3c-0.5,0.4-0.8,1-0.9,1.6c-0.7-0.1-1.4,0-2,0.5c0.2,0.7,0.6,1.2,1.3,1.5
				c-0.2,0.7-0.2,1.4,0.1,2.1c1,0.1,2-0.5,2.4-1.4c0.6,0.7,1.6,0.9,2.5,0.6c0.3-0.8,0-1.7-0.7-2.2c0.6-0.4,1-1,1-1.7
				C461.3,330.6,460.5,330.7,459.8,331z"/>
			<path class="st2" d="M458.8,331.7c-0.6,0-1.2,0.5-1.3,1.1c0,0,0.1,0.7,1.3,0.6s1.3-0.8,1.3-0.8
				C459.9,332,459.4,331.6,458.8,331.7z"/>
			<path class="st3" d="M458.8,331.7c-0.6,0-1.2,0.5-1.3,1.1c0,0,0.1,0.7,1.3,0.6s1.3-0.8,1.3-0.8
				C459.9,332,459.4,331.6,458.8,331.7z"/>
			<path class="st1" d="M451.2,329.2c0,0-0.4-1-1-0.7s-0.4,1,0.1,1.1c0,0-1.2,0.4-0.9,1.1s1.4,0,1.7-0.4c0,0,0.2,1,1.1,0.7
				s0-1.2,0-1.2s1.3-0.5,0.6-1.1S451.2,329.2,451.2,329.2z"/>
			<path class="st1" d="M457.6,344c0,0,0.1-1.1-0.7-1s-0.8,0.7-0.3,1.1c0,0-1.3-0.1-1.3,0.6s1.3,0.6,1.7,0.3c0,0-0.2,1,0.7,1.1
				s0.5-1.1,0.5-1.1s1.4,0.1,1-0.8S457.6,344,457.6,344z"/>
			<path class="st1" d="M438.6,339.8c0,0-0.9-1.1-0.2-1.4s0.9,0.7,0.9,0.7s0.7-0.8,1-0.2s-0.5,1.1-0.5,1.1s0.9,0.5,0.4,1
				s-1.1-0.3-1.1-0.3s-0.4,0.9-0.9,0.6S437.9,340.1,438.6,339.8z"/>
		</g>
		<g id="freepik--flowers--inject-4_00000067211691999848814950000016899336388248110723_">
			<path class="st1" d="M392.9,399.9c0,0-0.6-1.7-2-1.5c0,0-1.2,0.1-1.3,2c-1.2-0.1-2.4,0.4-3.1,1.3c0.1,1.1,1,1.9,2.1,1.8
				c-0.5,0.9-0.4,2.1,0.2,2.9c0,0,3.1,0.2,3.3-1.8c0,0,0.7,1.5,3.4,0.7c0.4-1.1,0.1-2.4-0.9-3.1c0,0,1.9-0.6,1.8-2.1
				C396.4,400.2,394.5,398.4,392.9,399.9z"/>
			<path class="st2" d="M391.3,400.7c-0.9,0.1-1.7,0.9-1.7,1.9c0,0,0.3,1,2.1,0.7s1.8-1.4,1.8-1.4
				C393.1,400.9,392.2,400.4,391.3,400.7z"/>
			<path class="st3" d="M391.3,400.7c-0.9,0.1-1.7,0.9-1.7,1.9c0,0,0.3,1,2.1,0.7s1.8-1.4,1.8-1.4
				C393.1,400.9,392.2,400.4,391.3,400.7z"/>
			<path class="st1" d="M407.5,389.3c0,0-0.6-1.3-1.7-1.4c-0.6,0.5-0.9,1.1-1,1.9c-0.8-0.2-1.7,0-2.3,0.6c0.2,0.8,0.7,1.4,1.5,1.7
				c-0.3,0.8-0.2,1.6,0.1,2.4c1.1,0.1,2.2-0.5,2.7-1.5c0,0,0.8,1.1,2.8,0.7c0.3-0.9,0-1.9-0.7-2.4c0.7-0.4,1.1-1.1,1.1-2
				C409.1,388.9,408.2,389,407.5,389.3z"/>
			<path class="st2" d="M406.3,390.1c-0.7,0-1.3,0.5-1.4,1.2c0,0,0.1,0.8,1.5,0.7s1.4-0.9,1.4-0.9C407.6,390.4,407,390,406.3,390.1z
				"/>
			<path class="st3" d="M406.3,390.1c-0.7,0-1.3,0.5-1.4,1.2c0,0,0.1,0.8,1.5,0.7s1.4-0.9,1.4-0.9C407.6,390.4,407,390,406.3,390.1z
				"/>
			<path class="st1" d="M393.8,390.4c0,0-0.4-1.1-1.1-0.8s-0.5,1.1,0.2,1.3c0,0-1.4,0.5-1,1.2s1.6,0,1.9-0.4c0,0,0.3,1.2,1.2,0.7
				s0-1.4,0-1.4s1.5-0.6,0.7-1.3S393.8,390.4,393.8,390.4z"/>
			<path class="st1" d="M414.7,398.3c0,0,0.1-1.2-0.7-1.2s-0.9,0.8-0.4,1.2c0,0-1.5-0.2-1.4,0.7s1.5,0.6,1.9,0.4
				c0,0-0.2,1.2,0.8,1.2s0.6-1.3,0.6-1.3s1.6,0.1,1.2-0.9S414.7,398.3,414.7,398.3z"/>
			<path class="st1" d="M377.6,399.2c0,0,1.3-0.9,1.6-0.1s-0.9,1-0.9,1s0.8,0.8,0.2,1.1s-1.3-0.6-1.3-0.6s-0.6,1-1.1,0.4
				s0.4-1.3,0.4-1.3s-1-0.5-0.6-1.1S377.4,398.4,377.6,399.2z"/>
		</g>
		<g id="freepik--flowers--inject-4_00000105420713914000670260000011125913057947006623_">
			<path class="st1" d="M290.9,455.1c0,0-0.1-1.7-1.5-1.9c0,0-1.1-0.2-1.7,1.5c-1.1-0.4-2.2-0.3-3.2,0.4c-0.1,1,0.5,1.9,1.5,2.2
				c-0.7,0.7-0.9,1.8-0.5,2.7c0,0,2.7,0.9,3.4-0.8c0,0,0.2,1.5,2.9,1.5c0.7-0.9,0.7-2.1,0-3c0,0,1.9-0.1,2.2-1.5
				C294,456.2,292.7,454.1,290.9,455.1z"/>
			<path class="st2" d="M289.2,455.4c-0.9-0.1-1.7,0.4-2,1.3c0,0,0,1,1.7,1.1s2-0.9,2-0.9C290.9,456.1,290.1,455.4,289.2,455.4z"/>
			<path class="st3" d="M289.2,455.4c-0.9-0.1-1.7,0.4-2,1.3c0,0,0,1,1.7,1.1s2-0.9,2-0.9C290.9,456.1,290.1,455.4,289.2,455.4z"/>
			<path class="st1" d="M307,450.9c0,0-0.6-1.2-1.6-1.4c-0.5,0.4-0.9,1.1-1,1.7c-0.8-0.2-1.6,0-2.1,0.5c0.2,0.7,0.7,1.3,1.4,1.6
				c-0.3,0.7-0.2,1.5,0.1,2.2c1.1,0.1,2.1-0.5,2.6-1.4c0,0,0.7,1,2.6,0.7c0.3-0.8,0-1.8-0.7-2.3c0.7-0.4,1.1-1.1,1-1.8
				C308.5,450.5,307.7,450.6,307,450.9z"/>
			<path class="st2" d="M306,451.6c-0.7,0-1.2,0.5-1.4,1.1c0,0,0.1,0.7,1.4,0.6s1.4-0.9,1.4-0.9C307.2,452,306.6,451.6,306,451.6z"
				/>
			<path class="st3" d="M306,451.6c-0.7,0-1.2,0.5-1.4,1.1c0,0,0.1,0.7,1.4,0.6s1.4-0.9,1.4-0.9C307.2,452,306.6,451.6,306,451.6z"
				/>
			<path class="st1" d="M292.6,447.1c0,0-0.4-1.1-1.1-0.7s-0.5,1,0.1,1.2c0,0-1.3,0.4-1,1.1s1.5,0,1.8-0.4c0,0,0.2,1.1,1.2,0.7
				s0-1.3,0-1.3s1.4-0.5,0.6-1.2S292.6,447.1,292.6,447.1z"/>
			<path class="st1" d="M270.6,464.8c0,0,0.1-1.1-0.7-1.1s-0.9,0.8-0.4,1.2c0,0-1.4-0.2-1.4,0.6s1.4,0.6,1.8,0.4
				c0,0-0.2,1.1,0.8,1.1s0.5-1.2,0.5-1.2s1.5,0.1,1.1-0.8S270.6,464.8,270.6,464.8z"/>
			<path class="st1" d="M276.5,451c0,0-0.9-1.2-0.2-1.5s1,0.8,1,0.8s0.7-0.8,1-0.2s-0.5,1.2-0.5,1.2s1,0.5,0.4,1s-1.2-0.3-1.2-0.3
				s-0.4,0.9-1,0.7S275.8,451.2,276.5,451z"/>
		</g>
		<g id="freepik--flowers--inject-4_00000057123391923441504160000018408108327545178767_">
			<path class="st1" d="M119.1,426.7c0,0-0.1-1.6-1.4-1.8c0,0-1-0.2-1.6,1.4c-1-0.4-2.1-0.2-3,0.4c-0.1,0.9,0.5,1.8,1.4,2.1
				c-0.7,0.7-0.9,1.7-0.5,2.5c0,0,2.6,0.9,3.2-0.8c0,0,0.2,1.4,2.8,1.4c0.6-0.9,0.6-2,0-2.9c0,0,1.8,0,2.1-1.4
				C122.1,427.8,120.8,425.8,119.1,426.7z"/>
			<path class="st2" d="M117.6,427c-0.8-0.1-1.6,0.4-1.9,1.2c0,0,0,0.9,1.6,1.1s1.9-0.8,1.9-0.8C119,427.6,118.4,427,117.6,427z"/>
			<path class="st3" d="M117.6,427c-0.8-0.1-1.6,0.4-1.9,1.2c0,0,0,0.9,1.6,1.1s1.9-0.8,1.9-0.8C119,427.6,118.4,427,117.6,427z"/>
			<path class="st1" d="M131.9,424.8c0,0-0.6-1.1-1.5-1.3c-0.5,0.4-0.8,1-0.9,1.6c-0.7-0.2-1.4,0-2,0.5c0.2,0.7,0.7,1.2,1.3,1.5
				c-0.3,0.7-0.2,1.4,0.1,2.1c1,0.1,2-0.5,2.4-1.4c0.6,0.7,1.6,0.9,2.5,0.6c0.3-0.8,0-1.7-0.7-2.2c0.6-0.4,1-1,1-1.7
				C133.4,424.4,132.6,424.4,131.9,424.8z"/>
			<path class="st2" d="M130.9,425.5c-0.6,0-1.2,0.5-1.3,1.1c0,0,0.1,0.7,1.3,0.6s1.3-0.8,1.3-0.8
				C132,425.8,131.5,425.4,130.9,425.5z"/>
			<path class="st3" d="M130.9,425.5c-0.6,0-1.2,0.5-1.3,1.1c0,0,0.1,0.7,1.3,0.6s1.3-0.8,1.3-0.8
				C132,425.8,131.5,425.4,130.9,425.5z"/>
			<path class="st1" d="M120.4,420.6c0,0-0.3-1-1-0.7s-0.4,1,0.2,1.1c0,0-1.3,0.4-0.9,1.1s1.4,0,1.7-0.4c0,0,0.2,1,1.1,0.7
				s0-1.2,0-1.2s1.3-0.5,0.6-1.1S120.4,420.6,120.4,420.6z"/>
			<path class="st1" d="M129,433.3c0,0,0.1-1.1-0.6-1s-0.8,0.7-0.3,1.1c0,0-1.3-0.1-1.3,0.6s1.3,0.6,1.7,0.4c0,0-0.2,1,0.7,1.1
				s0.5-1.1,0.5-1.1s1.4,0.1,1-0.8S129,433.3,129,433.3z"/>
			<path class="st1" d="M105.2,424.3c0,0-0.9-1.1-0.2-1.4s0.9,0.7,0.9,0.7s0.7-0.8,1-0.2s-0.5,1.1-0.5,1.1s0.9,0.5,0.4,1
				s-1.2-0.3-1.2-0.3s-0.4,0.9-0.9,0.6S104.6,424.6,105.2,424.3z"/>
		</g>
		<g id="freepik--flowers--inject-4_00000138550624565320716610000004685540666500677813_">
			<path class="st1" d="M53.2,338.7c0,0,0.1-1.7,1.5-1.9c0,0,1.1-0.2,1.8,1.6c1.1-0.4,2.3-0.3,3.2,0.4c0.2,1-0.5,2-1.5,2.3
				c0.7,0.7,0.9,1.8,0.6,2.7c0,0-2.8,0.9-3.5-0.8c0,0-0.2,1.6-3,1.6c-0.7-0.9-0.7-2.2,0-3.1c0,0-1.9-0.1-2.2-1.5
				C50,339.8,51.3,337.7,53.2,338.7z"/>
			<path class="st2" d="M54.9,339c0.9-0.1,1.8,0.4,2.1,1.3c0,0,0,1-1.7,1.2s-2-0.9-2-0.9C53.3,339.7,54,339,54.9,339z"/>
			<path class="st3" d="M54.9,339c0.9-0.1,1.8,0.4,2.1,1.3c0,0,0,1-1.7,1.2s-2-0.9-2-0.9C53.3,339.7,54,339,54.9,339z"/>
			<path class="st1" d="M39.4,336.6c0,0,0.6-1.2,1.6-1.4c0.5,0.4,0.9,1.1,1,1.8c0.8-0.2,1.6,0,2.2,0.5c-0.2,0.7-0.7,1.3-1.4,1.6
				c0.3,0.7,0.2,1.6-0.1,2.3c-1.1,0.1-2.1-0.5-2.6-1.4c0,0-0.7,1.1-2.7,0.7c-0.3-0.9,0-1.8,0.7-2.3c-0.7-0.4-1.1-1.1-1.1-1.9
				C37.8,336.2,38.7,336.3,39.4,336.6z"/>
			<path class="st2" d="M40.5,337.3c0.7,0,1.3,0.5,1.4,1.2c0,0-0.1,0.7-1.4,0.7s-1.4-0.9-1.4-0.9C39.2,337.7,39.8,337.2,40.5,337.3z
				"/>
			<path class="st3" d="M40.5,337.3c0.7,0,1.3,0.5,1.4,1.2c0,0-0.1,0.7-1.4,0.7s-1.4-0.9-1.4-0.9C39.2,337.7,39.8,337.2,40.5,337.3z
				"/>
			<path class="st1" d="M51.8,332.1c0,0,0.4-1.1,1.1-0.7s0.5,1.1-0.2,1.2c0,0,1.4,0.4,1,1.2s-1.5,0-1.8-0.4c0,0-0.2,1.1-1.2,0.7
				s0-1.4,0-1.4s-1.5-0.6-0.7-1.2S51.8,332.1,51.8,332.1z"/>
			<path class="st1" d="M42.5,345.8c0,0-0.1-1.2,0.7-1.1s0.9,0.8,0.4,1.2c0,0,1.4-0.2,1.4,0.7s-1.4,0.6-1.8,0.4c0,0,0.2,1.1-0.8,1.1
				s-0.6-1.2-0.6-1.2s-1.6,0.1-1.1-0.8S42.5,345.8,42.5,345.8z"/>
			<path class="st1" d="M68.2,336.1c0,0,0.9-1.2,0.2-1.5s-1,0.8-1,0.8s-0.7-0.8-1.1-0.2s0.5,1.2,0.5,1.2s-1,0.5-0.4,1
				s1.2-0.3,1.2-0.3s0.4,0.9,1,0.7S68.9,336.4,68.2,336.1z"/>
			<path class="st1" d="M62.1,376.2c0,0-1.3-0.8-1.5,0s0.9,0.9,0.9,0.9s-0.8,0.8-0.1,1.1s1.2-0.7,1.2-0.7s0.7,0.9,1.1,0.3
				s-0.5-1.2-0.5-1.2s0.9-0.5,0.5-1.1S62.3,375.4,62.1,376.2z"/>
			<path class="st1" d="M95.5,364.5c0,0-1.3-0.8-1.6,0s0.9,0.9,0.9,0.9s-0.8,0.8-0.1,1.1s1.2-0.7,1.2-0.7s0.7,0.9,1.1,0.3
				s-0.4-1.2-0.4-1.2s0.9-0.5,0.5-1.1S95.7,363.7,95.5,364.5z"/>
			<path class="st1" d="M79.7,403.6c0,0-1.3-0.8-1.6,0s0.9,0.9,0.9,0.9s-0.8,0.8-0.1,1.1s1.2-0.7,1.2-0.7s0.6,0.9,1.1,0.3
				s-0.5-1.2-0.5-1.2s0.9-0.5,0.6-1.1S80,402.8,79.7,403.6z"/>
			<path class="st1" d="M188,458.7c0,0-1.4-0.8-1.6,0s0.9,0.9,0.9,0.9s-0.8,0.8-0.1,1.1s1.2-0.7,1.2-0.7s0.6,0.9,1.1,0.3
				s-0.4-1.2-0.4-1.2s0.9-0.5,0.5-1.1S188.2,458,188,458.7z"/>
			<path class="st1" d="M449.3,377.7c0,0-1.4-0.8-1.6,0s0.9,0.9,0.9,0.9s-0.7,0.8-0.1,1.1s1.2-0.7,1.2-0.7s0.6,0.9,1.1,0.3
				s-0.5-1.2-0.5-1.2s0.9-0.5,0.5-1.1S449.5,377,449.3,377.7z"/>
		</g>
	</g>
</g>
<g id="freepik--Sun--inject-4">
	<circle id="freepik--sun--inject-4" class="st4" cx="185.8" cy="102.8" r="13.5"/>
</g>
<g id="freepik--plants-2--inject-4">
	<path class="st2" d="M353.2,401.8c0.2-0.1,0.4-0.2,0.6-0.3c0.4-0.2,0.8-0.3,1.2-0.5c0.4-0.2,0.7-0.3,1.1-0.6
		c-0.2,0.5-0.4,1-0.7,1.5c-0.2,0.4-0.6,0.7-0.9,0.9c-0.4,0.3-0.9,0.4-1.3,0.5c-0.4,0.1-0.7,0.2-1,0.4c0-0.1,0-0.2,0-0.2
		c0-0.1,0-0.2,0.1-0.3c0.1-0.2,0.1-0.4,0.2-0.5c0.2-0.3,0.4-0.6,0.7-0.8C353.1,401.8,353.1,401.8,353.2,401.8z"/>
	<path class="st2" d="M352.8,404.7c0.1,0,0.1-0.1,0.2-0.1c0.3-0.2,0.5-0.3,0.9-0.4c0.3-0.1,0.6-0.1,0.9-0.3c0.2-0.1,0.4-0.2,0.6-0.4
		c0,0.1,0,0.2-0.1,0.3c-0.1,0.4-0.4,0.8-0.7,1.2c-0.2,0.3-0.5,0.5-0.9,0.6c-0.4,0.1-0.8,0.1-1.2,0c-0.2,0-0.3-0.1-0.5,0
		C352.2,405.3,352.5,404.9,352.8,404.7z"/>
	<path class="st2" d="M351.1,402.6c0-0.3,0-0.5,0.1-0.8c-1,0.9-1.3,2.7,0,3.4C351.5,404.4,351.2,403.5,351.1,402.6z"/>
	<path class="st2" d="M352.1,407.1c0.6-0.4,1.4-0.2,2-0.5c-0.7,1.2-1.4,1.2-2.6,1.2C351.7,407.6,351.8,407.2,352.1,407.1z"/>
	<path class="st2" d="M352.1,405.6c-0.1,0-0.3,0.1-0.4,0.1c-0.1,0.6-0.2,1.3-0.3,1.9c0,0.1,0,0.1,0,0.2c0,0,0.1-0.1,0.1-0.1
		c0.1-0.1,0.2-0.1,0.3-0.2c0.1,0,0.1,0,0.2,0c0.1,0,0.1,0,0.2,0c0,0,0,0.1,0,0.1c-0.1,0-0.2,0.1-0.3,0.1c-0.1,0-0.2,0.1-0.3,0.1
		c-0.1,0-0.1,0.1-0.2,0.2c-0.1,0.4-0.1,0.8-0.2,1.2c-0.1,0.4-0.2,0.8-0.2,1.3c0,0,0,0.1-0.1,0.1c-0.2,0.1-0.4,0.1-0.5,0c0,0,0,0,0,0
		c0,0,0,0,0,0c0.2-0.3,0.3-0.7,0.4-1.1c0.1-0.5,0.2-0.9,0.3-1.4c0-0.1,0-0.2-0.1-0.3c0-0.1-0.1-0.2-0.1-0.3c0-0.1-0.1-0.1-0.1-0.2
		c0-0.1-0.1-0.2-0.1-0.2c0,0,0,0,0,0c0.1,0,0.2,0.2,0.3,0.3c0.1,0.1,0.1,0.2,0.2,0.3c0.1-0.5,0.2-1.1,0.3-1.6c0-0.1,0-0.2-0.1-0.3
		c-0.1-0.2-0.2-0.3-0.2-0.5c-0.1-0.2-0.1-0.4-0.2-0.5c0-0.2-0.1-0.4-0.1-0.5c0,0,0,0,0,0c0,0.2,0.1,0.4,0.2,0.5
		c0.1,0.1,0.2,0.3,0.3,0.4c0,0.1,0.1,0.1,0.1,0.2c0.1-0.5,0.2-1.1,0.4-1.5c0.1-0.3,0.3-0.5,0.5-0.7c0.1-0.1,0.3-0.2,0.4-0.3
		c0.2-0.1,0.3-0.2,0.5-0.2c0,0,0,0,0,0c-0.1,0.1-0.3,0.2-0.4,0.3c-0.1,0.1-0.3,0.2-0.4,0.3c-0.2,0.2-0.4,0.4-0.5,0.7
		c-0.2,0.5-0.3,1.1-0.3,1.6c0.2-0.1,0.5-0.1,0.8-0.2c0.3,0,0.6-0.1,0.8-0.3c0,0,0.1,0.1,0,0.1c-0.2,0.2-0.5,0.3-0.8,0.3
		C352.4,405.5,352.3,405.6,352.1,405.6z"/>
	<path class="st5" d="M352.1,405.6c-0.1,0-0.3,0.1-0.4,0.1c-0.1,0.6-0.2,1.3-0.3,1.9c0,0.1,0,0.1,0,0.2c0,0,0.1-0.1,0.1-0.1
		c0.1-0.1,0.2-0.1,0.3-0.2c0.1,0,0.1,0,0.2,0c0.1,0,0.1,0,0.2,0c0,0,0,0.1,0,0.1c-0.1,0-0.2,0.1-0.3,0.1c-0.1,0-0.2,0.1-0.3,0.1
		c-0.1,0-0.1,0.1-0.2,0.2c-0.1,0.4-0.1,0.8-0.2,1.2c-0.1,0.4-0.2,0.8-0.2,1.3c0,0,0,0.1-0.1,0.1c-0.2,0.1-0.4,0.1-0.5,0c0,0,0,0,0,0
		c0,0,0,0,0,0c0.2-0.3,0.3-0.7,0.4-1.1c0.1-0.5,0.2-0.9,0.3-1.4c0-0.1,0-0.2-0.1-0.3c0-0.1-0.1-0.2-0.1-0.3c0-0.1-0.1-0.1-0.1-0.2
		c0-0.1-0.1-0.2-0.1-0.2c0,0,0,0,0,0c0.1,0,0.2,0.2,0.3,0.3c0.1,0.1,0.1,0.2,0.2,0.3c0.1-0.5,0.2-1.1,0.3-1.6c0-0.1,0-0.2-0.1-0.3
		c-0.1-0.2-0.2-0.3-0.2-0.5c-0.1-0.2-0.1-0.4-0.2-0.5c0-0.2-0.1-0.4-0.1-0.5c0,0,0,0,0,0c0,0.2,0.1,0.4,0.2,0.5
		c0.1,0.1,0.2,0.3,0.3,0.4c0,0.1,0.1,0.1,0.1,0.2c0.1-0.5,0.2-1.1,0.4-1.5c0.1-0.3,0.3-0.5,0.5-0.7c0.1-0.1,0.3-0.2,0.4-0.3
		c0.2-0.1,0.3-0.2,0.5-0.2c0,0,0,0,0,0c-0.1,0.1-0.3,0.2-0.4,0.3c-0.1,0.1-0.3,0.2-0.4,0.3c-0.2,0.2-0.4,0.4-0.5,0.7
		c-0.2,0.5-0.3,1.1-0.3,1.6c0.2-0.1,0.5-0.1,0.8-0.2c0.3,0,0.6-0.1,0.8-0.3c0,0,0.1,0.1,0,0.1c-0.2,0.2-0.5,0.3-0.8,0.3
		C352.4,405.5,352.3,405.6,352.1,405.6z"/>
	<path class="st2" d="M341.8,386.4c-0.2-1-0.6-1.9-0.7-2.9c-1.6,2-1.5,5.1,0.9,6.4C341.9,388.7,342.1,387.5,341.8,386.4z"/>
	<path class="st2" d="M343,389.7c0.1-1.2,0.9-2.3,1.3-3.4c0.5,1.9,0.5,3.4-1.1,4.8C343,390.6,343,390.1,343,389.7z"/>
	<path class="st2" d="M339.3,389.4c-0.5-0.1-1-0.2-1.5-0.3c0.3,0.3,0.5,0.6,0.8,1c0.9,1.2,2.3,1.5,3.7,1.5
		C341.4,390.5,340.8,389.9,339.3,389.4z"/>
	<path class="st2" d="M344.7,392.2c0.2-1,1-1.8,1-2.8c0.7,1.2,1,2.8,0,3.8c-0.3,0.3-0.5,0.6-0.8,0.8
		C344.6,393.5,344.6,392.7,344.7,392.2z"/>
	<path class="st2" d="M346.2,395.5c0.2-0.7,1-1.2,1.2-1.9c0.7,1.3,0.2,2.6-1,3.4C345.8,397.8,346,395.8,346.2,395.5z"/>
	<path class="st2" d="M343.5,396.5c-1-0.4-2.2-0.2-3.1-0.9c0.4,1,1.2,2,2.3,2.4c0.8,0.3,1.7,0,2.5,0
		C344.7,397.4,344.1,396.8,343.5,396.5z"/>
	<path class="st2" d="M348,398.1c0.4,1.6-0.4,1.9-1.2,3c-0.3-1.8,0.5-2.1,1-3.5C347.8,397.7,347.9,397.9,348,398.1z"/>
	<path class="st2" d="M345.3,400.2c-0.6-0.9-1.9-1-2.7-1.7c0.3,1,0.7,2,1.6,2.6c0.5,0.3,1.1,0.5,1.6,0.6
		C346.1,401.6,345.5,400.4,345.3,400.2z"/>
	<path class="st2" d="M340.9,390.9c0.5,0.2,1.1,0.5,1.6,0.8c0.1,0.1,0.2,0.1,0.3,0.2l0,0c-0.5-0.8-0.9-1.6-1.2-2.4
		c-0.2-0.4-0.3-0.9-0.4-1.3c-0.1-0.5-0.2-0.9-0.3-1.4c0-0.1,0.1-0.1,0.1,0c0.1,0.4,0.3,0.8,0.4,1.3c0.1,0.4,0.3,0.8,0.4,1.2
		c0.3,0.8,0.7,1.5,1.1,2.2l0.2,0.3c0-0.1,0-0.1,0-0.2c0-0.3,0-0.5,0.1-0.8c0-0.2,0.1-0.5,0.2-0.7c0.1-0.2,0.2-0.5,0.3-0.7
		c0,0,0,0,0,0c0,0.2-0.2,0.4-0.2,0.7c-0.1,0.2-0.1,0.5-0.2,0.7c0,0.2,0,0.5,0,0.7c0,0.2,0.1,0.4,0,0.6c0.3,0.5,0.6,1,0.9,1.5
		c0.1,0.2,0.2,0.5,0.4,0.7l0,0c0.1-0.3,0.2-0.5,0.3-0.8c0.3-0.6,0.6-1.2,0.7-1.8c0,0,0,0,0,0c0,0.6-0.2,1.1-0.4,1.6
		c-0.1,0.3-0.2,0.6-0.3,0.9c0,0.1-0.1,0.3-0.1,0.4c0,0.1,0,0.1,0,0.2l0,0.1c0.1,0.1,0.1,0.2,0.1,0.3c0.1,0.2,0.2,0.4,0.2,0.6
		c0.3,0.7,0.5,1.4,0.7,2.1c0-0.3,0.1-0.5,0.2-0.8c0.1-0.3,0.2-0.5,0.3-0.7c0.1-0.2,0.3-0.5,0.5-0.7c0,0,0,0,0,0.1
		c-0.1,0.2-0.3,0.5-0.4,0.7c-0.1,0.2-0.2,0.5-0.3,0.7c-0.1,0.4-0.2,0.8-0.3,1.3c0.2,0.9,0.4,1.9,0.6,2.9c0.2-0.4,0.3-0.7,0.5-1.1
		c0,0,0.1,0,0,0.1c-0.2,0.4-0.3,0.9-0.4,1.4c0,0.1,0,0.2-0.1,0.3c0.1,1,0.2,2.1,0.2,3.1c0,0.3,0,0.6,0,0.9c0,0.4,0.1,0.8,0.1,1.2
		c0,0,0,0.1,0,0.1c0,0.1-0.1,0.1-0.1,0.1c-0.1,0.1-0.3,0.1-0.5,0c-0.1,0-0.1,0-0.1-0.1c0-0.1,0-0.2,0.1-0.3c0.1-0.5,0.1-1,0.1-1.6
		c0-0.8-0.1-1.6-0.1-2.4c-0.1-0.2-0.2-0.4-0.3-0.6c-0.4-0.5-0.9-0.9-1.3-1.4c0,0,0-0.1,0-0.1c0.3,0.2,0.6,0.4,0.9,0.7
		c0.2,0.2,0.5,0.4,0.6,0.7c-0.1-0.5-0.1-0.9-0.2-1.4c-0.1-0.5-0.2-1-0.3-1.6c-0.1-0.1-0.1-0.2-0.2-0.2c-0.1-0.1-0.2-0.2-0.3-0.3
		c-0.2-0.2-0.4-0.4-0.6-0.5c-0.2-0.1-0.4-0.2-0.7-0.3c-0.1,0-0.2-0.1-0.3-0.1c-0.1,0-0.2,0-0.4-0.1c0,0,0,0,0-0.1
		c0.2-0.1,0.6-0.1,0.8,0c0.5,0.1,1,0.4,1.4,0.8c-0.2-0.7-0.4-1.4-0.7-2.1c-0.2-0.4-0.3-0.8-0.5-1.2c-0.1-0.1-0.3-0.2-0.5-0.3
		c-0.2-0.1-0.5-0.2-0.7-0.2c-0.2-0.1-0.4-0.2-0.7-0.3c0,0,0-0.1,0-0.1c0.3,0.1,0.6,0.1,0.9,0.2c0.3,0,0.5,0.1,0.8,0.2
		c-0.3-0.6-0.6-1.1-0.9-1.7c-0.1-0.1-0.2-0.3-0.3-0.4c-0.2-0.2-0.4-0.3-0.6-0.4C341.8,391.6,341.3,391.3,340.9,390.9
		C340.9,391,340.9,390.9,340.9,390.9z"/>
	<path class="st5" d="M340.9,390.9c0.5,0.2,1.1,0.5,1.6,0.8c0.1,0.1,0.2,0.1,0.3,0.2l0,0c-0.5-0.8-0.9-1.6-1.2-2.4
		c-0.2-0.4-0.3-0.9-0.4-1.3c-0.1-0.5-0.2-0.9-0.3-1.4c0-0.1,0.1-0.1,0.1,0c0.1,0.4,0.3,0.8,0.4,1.3c0.1,0.4,0.3,0.8,0.4,1.2
		c0.3,0.8,0.7,1.5,1.1,2.2l0.2,0.3c0-0.1,0-0.1,0-0.2c0-0.3,0-0.5,0.1-0.8c0-0.2,0.1-0.5,0.2-0.7c0.1-0.2,0.2-0.5,0.3-0.7
		c0,0,0,0,0,0c0,0.2-0.2,0.4-0.2,0.7c-0.1,0.2-0.1,0.5-0.2,0.7c0,0.2,0,0.5,0,0.7c0,0.2,0.1,0.4,0,0.6c0.3,0.5,0.6,1,0.9,1.5
		c0.1,0.2,0.2,0.5,0.4,0.7l0,0c0.1-0.3,0.2-0.5,0.3-0.8c0.3-0.6,0.6-1.2,0.7-1.8c0,0,0,0,0,0c0,0.6-0.2,1.1-0.4,1.6
		c-0.1,0.3-0.2,0.6-0.3,0.9c0,0.1-0.1,0.3-0.1,0.4c0,0.1,0,0.1,0,0.2l0,0.1c0.1,0.1,0.1,0.2,0.1,0.3c0.1,0.2,0.2,0.4,0.2,0.6
		c0.3,0.7,0.5,1.4,0.7,2.1c0-0.3,0.1-0.5,0.2-0.8c0.1-0.3,0.2-0.5,0.3-0.7c0.1-0.2,0.3-0.5,0.5-0.7c0,0,0,0,0,0.1
		c-0.1,0.2-0.3,0.5-0.4,0.7c-0.1,0.2-0.2,0.5-0.3,0.7c-0.1,0.4-0.2,0.8-0.3,1.3c0.2,0.9,0.4,1.9,0.6,2.9c0.2-0.4,0.3-0.7,0.5-1.1
		c0,0,0.1,0,0,0.1c-0.2,0.4-0.3,0.9-0.4,1.4c0,0.1,0,0.2-0.1,0.3c0.1,1,0.2,2.1,0.2,3.1c0,0.3,0,0.6,0,0.9c0,0.4,0.1,0.8,0.1,1.2
		c0,0,0,0.1,0,0.1c0,0.1-0.1,0.1-0.1,0.1c-0.1,0.1-0.3,0.1-0.5,0c-0.1,0-0.1,0-0.1-0.1c0-0.1,0-0.2,0.1-0.3c0.1-0.5,0.1-1,0.1-1.6
		c0-0.8-0.1-1.6-0.1-2.4c-0.1-0.2-0.2-0.4-0.3-0.6c-0.4-0.5-0.9-0.9-1.3-1.4c0,0,0-0.1,0-0.1c0.3,0.2,0.6,0.4,0.9,0.7
		c0.2,0.2,0.5,0.4,0.6,0.7c-0.1-0.5-0.1-0.9-0.2-1.4c-0.1-0.5-0.2-1-0.3-1.6c-0.1-0.1-0.1-0.2-0.2-0.2c-0.1-0.1-0.2-0.2-0.3-0.3
		c-0.2-0.2-0.4-0.4-0.6-0.5c-0.2-0.1-0.4-0.2-0.7-0.3c-0.1,0-0.2-0.1-0.3-0.1c-0.1,0-0.2,0-0.4-0.1c0,0,0,0,0-0.1
		c0.2-0.1,0.6-0.1,0.8,0c0.5,0.1,1,0.4,1.4,0.8c-0.2-0.7-0.4-1.4-0.7-2.1c-0.2-0.4-0.3-0.8-0.5-1.2c-0.1-0.1-0.3-0.2-0.5-0.3
		c-0.2-0.1-0.5-0.2-0.7-0.2c-0.2-0.1-0.4-0.2-0.7-0.3c0,0,0-0.1,0-0.1c0.3,0.1,0.6,0.1,0.9,0.2c0.3,0,0.5,0.1,0.8,0.2
		c-0.3-0.6-0.6-1.1-0.9-1.7c-0.1-0.1-0.2-0.3-0.3-0.4c-0.2-0.2-0.4-0.3-0.6-0.4C341.8,391.6,341.3,391.3,340.9,390.9
		C340.9,391,340.9,390.9,340.9,390.9z"/>
</g>
<g>
	
		<ellipse id="freepik--shadow--inject-24_00000068667392812484470550000010944806597517356967_" class="st6" cx="303.8" cy="274.2" rx="22" ry="12.7"/>
	<g id="freepik--tree--inject-24_00000046315825149576525380000007085381551989170315_">
		
			<rect x="297.7" y="228.6" transform="matrix(0.4524 -0.8918 0.8918 0.4524 -35.5225 401.2733)" class="st7" width="22.7" height="1.9"/>
		
			<rect x="297.6" y="216.5" transform="matrix(0.8503 -0.5264 0.5264 0.8503 -74.2555 190.9531)" class="st7" width="1.9" height="19"/>
		<path class="st7" d="M305.4,215.5v60.2c0,0.3-0.2,0.5-0.5,0.6c-0.7,0.4-1.5,0.4-2.2,0c-0.3-0.1-0.4-0.4-0.5-0.6v-60.2H305.4z"/>
		<path class="st8" d="M342.3,200.3c0,12.5-10.1,22.7-22.7,22.7c-12.5,0-22.7-10.1-22.7-22.7s10.1-22.7,22.7-22.7c0,0,0,0,0,0
			C332.2,177.7,342.3,187.8,342.3,200.3z"/>
		<path class="st9" d="M342.3,200.3c0,12.5-10.1,22.7-22.7,22.7c-12.5,0-22.7-10.1-22.7-22.7s10.1-22.7,22.7-22.7c0,0,0,0,0,0
			C332.2,177.7,342.3,187.8,342.3,200.3z"/>
		<path class="st10" d="M326.7,194.5c2.9-9.2,6-12.8,4.1-13.9c-10.9-6.2-24.7-2.3-30.9,8.5c-6.2,10.9-2.3,24.7,8.5,30.9
			c9.6,5.4,21.7,3.2,28.7-5.3C330.4,216.7,323,206.4,326.7,194.5z"/>
		<path class="st8" d="M299.9,206.7c0,8.8-7.1,15.9-15.9,15.9s-15.9-7.1-15.9-15.9c0-8.8,7.1-15.9,15.9-15.9
			C292.8,190.8,299.9,197.9,299.9,206.7L299.9,206.7z"/>
		<path class="st11" d="M299.9,206.7c0,8.8-7.1,15.9-15.9,15.9s-15.9-7.1-15.9-15.9c0-8.8,7.1-15.9,15.9-15.9
			C292.8,190.8,299.9,197.9,299.9,206.7L299.9,206.7z"/>
		<path class="st10" d="M284,190.8c-3.3,0-6.6,1-9.3,3c-0.4,9.7,7.8,19.2,5.5,22.4c-2.3,3.2-8,1.3-10-1.5
			c4.4,7.6,14.2,10.2,21.8,5.8c7.6-4.4,10.2-14.2,5.8-21.8C294.9,193.8,289.6,190.8,284,190.8z"/>
		
			<ellipse transform="matrix(0.3827 -0.9239 0.9239 0.3827 12.4442 397.7605)" class="st8" cx="303.9" cy="189.6" rx="29.2" ry="29.2"/>
		<g class="st12">
			<ellipse transform="matrix(0.3827 -0.9239 0.9239 0.3827 12.4442 397.7605)" cx="303.9" cy="189.6" rx="29.2" ry="29.2"/>
		</g>
		<path class="st10" d="M332.3,196.2c-3.7,15.7-19.4,25.5-35.1,21.8c-15.7-3.7-25.5-19.4-21.8-35.1c1.2-5,3.6-9.6,7.1-13.3
			c2-2.2,2.2-2.3,0.2-0.2c-3.7,15.7,6,31.4,21.7,35.1C314.5,207,325.1,203.8,332.3,196.2L332.3,196.2z"/>
	</g>
</g>
<polygon class="st2" points="137.1,371.3 137.1,280 248.7,344.4 248.7,435.7 "/>
<polygon class="st3" points="137.1,371.3 137.1,280 248.7,344.4 248.7,435.7 "/>
<polygon class="st13" points="137.1,280 248.7,344.4 248.7,380.8 137.1,316.4 "/>
<g id="freepik--Window--inject-4">
	<g id="freepik--window--inject-4">
		<g id="freepik--Frame--inject-4">
			<polygon class="st14" points="160.2,319.1 159.6,319.5 159.6,346 160.2,345.6 			"/>
			<polygon class="st15" points="160.2,345.6 160.2,319.8 179.3,330.9 179.3,356.7 			"/>
			<path class="st16" d="M180.5,359.4v-29.1l-22-12.7v29.1L180.5,359.4z M159.6,346v-26.5l19.8,11.4v26.5L159.6,346z"/>
			<polygon class="st17" points="159.6,346 160.2,345.6 179.3,356.7 179.3,357.4 			"/>
			<polygon class="st14" points="170.6,325.9 170,325.5 170,352 170.6,351.7 			"/>
			<polygon class="st14" points="180.5,359.4 181.1,359 181.1,329.9 180.5,330.3 			"/>
			<polygon class="st17" points="181.1,329.9 180.5,330.3 158.4,317.5 159.1,317.2 			"/>
			<polygon class="st17" points="179.3,343 179.3,343.7 159.6,332.2 160.2,331.9 			"/>
		</g>
		<polygon class="st16" points="179.3,345 179.3,343.7 159.6,332.2 159.6,333.5 		"/>
		<polygon class="st16" points="170,353.3 168.9,352.6 168.9,323.6 170,324.2 		"/>
		<polygon class="st14" points="170,338.3 170.6,337.9 170.6,325.9 170,325.5 		"/>
	</g>
</g>
<g id="freepik--window--inject-4_00000123433965572270921490000003430152986003061429_">
	<g id="freepik--window--inject-4_00000137091696386853909270000013723770201078515874_">
		<g id="freepik--frame--inject-4">
			<polygon class="st14" points="206.5,345.9 205.9,346.2 205.9,372.7 206.5,372.4 			"/>
			<polygon class="st15" points="206.5,372.4 206.5,346.6 225.7,357.6 225.7,383.5 			"/>
			<path class="st16" d="M226.8,386.1V357l-22-12.7v29.1L226.8,386.1z M205.9,372.7v-26.5l19.8,11.4v26.5L205.9,372.7z"/>
			<polygon class="st17" points="205.9,372.7 206.5,372.4 225.7,383.5 225.7,384.1 			"/>
			<polygon class="st14" points="216.9,352.6 216.4,352.2 216.4,378.8 216.9,378.4 			"/>
			<polygon class="st14" points="226.8,386.1 227.4,385.8 227.4,356.7 226.8,357 			"/>
			<polygon class="st17" points="227.4,356.7 226.8,357 204.8,344.3 205.4,343.9 			"/>
			<polygon class="st17" points="225.7,369.7 225.7,370.4 205.9,359 206.5,358.6 			"/>
		</g>
		<polygon class="st16" points="225.7,371.7 225.7,370.4 205.9,359 205.9,360.3 		"/>
		<polygon class="st16" points="216.3,380 215.2,379.4 215.2,350.3 216.3,351 		"/>
		<polygon class="st14" points="216.4,365 216.9,364.7 216.9,352.6 216.4,352.2 		"/>
	</g>
</g>
<polygon class="st2" points="354.3,374.8 354.3,283.5 301.5,265.7 248.7,344.4 248.7,435.7 "/>
<polygon class="st18" points="354.3,374.8 354.3,283.5 301.5,265.7 248.7,344.4 248.7,435.7 "/>
<polygon class="st7" points="240,359.6 301.5,265.7 301.5,255.6 231.2,364.7 "/>
<polygon class="st15" points="192.9,192.8 301.5,255.6 231.2,364.7 122.7,302 "/>
<polygon class="st19" points="301.5,255.6 371.9,283.5 263.5,220.8 193.1,192.8 "/>
<polygon class="st7" points="301.5,265.7 363.1,288.6 371.9,283.5 301.5,255.6 "/>
<path class="st17" d="M316.6,396.6L286.3,414l87.9,51.4c12.1-4.1,23.8-9,35.2-14.7L316.6,396.6z"/>
<g id="freepik--Door--inject-4">
	<polygon class="st2" points="315.1,328.2 315.1,396.3 287.9,412.1 287.9,343.9 	"/>
	<polygon class="st2" points="313,395.1 313,329.4 287.9,343.9 287.9,409.6 	"/>
	<polygon class="st3" points="313,395.1 313,329.4 287.9,343.9 287.9,409.6 	"/>
	<polygon class="st19" points="313,395.1 316.1,396.9 287.9,413.1 287.9,409.6 	"/>
	<polygon class="st15" points="308.3,337.7 291.5,347.5 291.5,375.6 308.3,365.9 	"/>
	<polygon class="st2" points="298.9,371.4 300,372 291.5,376.9 291.5,375.6 	"/>
	<polygon class="st20" points="298.9,371.4 300,372 291.5,376.9 291.5,375.6 	"/>
	<polygon class="st2" points="308.3,365.9 308.3,337.7 309.4,337.1 309.4,366.5 	"/>
	<polygon class="st2" points="308.3,365.9 309.4,366.5 301,371.4 301,370.1 	"/>
	<polygon class="st20" points="308.3,365.9 309.4,366.5 301,371.4 301,370.1 	"/>
	<polygon class="st2" points="300,372 301,371.4 301,342 300,342.6 	"/>
	<polygon class="st3" points="300,372 301,371.4 301,342 300,342.6 	"/>
	<polygon class="st2" points="300,372 298.9,371.4 298.9,343.2 300,342.6 	"/>
	<polygon class="st2" points="299.9,356.7 298.9,356.1 291.5,360.4 291.5,361.6 	"/>
	<polygon class="st20" points="299.9,356.7 298.9,356.1 291.5,360.4 291.5,361.6 	"/>
	<polygon class="st2" points="299.9,356.7 299.9,357.9 291.5,362.8 291.5,361.6 	"/>
	<polygon class="st3" points="299.9,356.7 299.9,357.9 291.5,362.8 291.5,361.6 	"/>
	<polygon class="st2" points="309.4,351.3 308.3,350.7 301,354.9 301,356.1 	"/>
	<polygon class="st20" points="309.4,351.3 308.3,350.7 301,354.9 301,356.1 	"/>
	<polygon class="st2" points="309.4,351.3 309.4,352.5 301,357.3 301,356.1 	"/>
	<polygon class="st3" points="309.4,351.3 309.4,352.5 301,357.3 301,356.1 	"/>
	<polygon class="st21" points="313,329.4 313,331.6 287.9,346.1 287.9,343.9 	"/>
	<polygon class="st14" points="315.1,396.3 316.1,396.9 316.1,327.6 315.1,328.2 	"/>
	<polygon class="st16" points="316.1,396.9 319.7,394.8 319.7,321.3 284.2,341.8 284.2,415.2 287.9,413.1 287.9,343.9 316.1,327.6 	
		"/>
	<polygon class="st17" points="319.7,321.3 284.2,341.8 283.3,341.3 318.8,320.8 	"/>
	<polygon class="st14" points="284.2,415.2 284.2,341.8 283.3,341.3 283.3,414.7 	"/>
</g>
<g id="freepik--window--inject-4_00000142859914710287603850000017262756489055021712_">
	<g id="freepik--window--inject-4_00000021080263389842763900000017974019553249022638_">
		<g id="freepik--frame--inject-4_00000040543122499428672050000003530347690994083987_">
			<polygon class="st14" points="275.9,354.6 276.5,354.9 276.5,381.4 275.9,381.1 			"/>
			<polygon class="st15" points="275.9,381.1 275.9,355.3 256.8,366.3 256.8,392.1 			"/>
			<path class="st16" d="M277.7,382.1V353l-22,12.7v29.1L277.7,382.1z M256.8,392.8v-26.5l19.8-11.4v26.5L256.8,392.8z"/>
			<polygon class="st17" points="276.5,381.4 275.9,381.1 256.8,392.1 256.8,392.8 			"/>
			<polygon class="st14" points="265.5,361.3 266.1,360.9 266.1,387.4 265.5,387.1 			"/>
			<polygon class="st14" points="255.6,394.8 255,394.4 255,365.3 255.6,365.7 			"/>
			<polygon class="st17" points="255,365.3 255.6,365.7 277.7,353 277.1,352.6 			"/>
			<polygon class="st17" points="256.8,378.4 256.8,379.1 276.5,367.7 275.9,367.3 			"/>
		</g>
		<polygon class="st16" points="256.8,380.4 256.8,379.1 276.5,367.7 276.5,369 		"/>
		<polygon class="st16" points="266.1,388.7 267.2,388.1 267.2,359 266.1,359.6 		"/>
		<polygon class="st14" points="266.1,373.7 265.5,373.4 265.5,361.3 266.1,360.9 		"/>
	</g>
</g>
<path class="st17" d="M309.7,285.7c2,1.1,3.2,3.6,3.2,7c0,6.9-4.8,15.3-10.8,18.8c-3,1.7-5.7,1.9-7.7,0.8l-1.1-0.7
	c-2-1.1-3.2-3.6-3.2-7c0-6.9,4.9-15.3,10.8-18.8c3-1.7,5.7-1.9,7.6-0.8L309.7,285.7z"/>
<path class="st16" d="M302.1,311.4c-3,1.7-5.7,1.9-7.7,0.8s-3.2-3.6-3.2-7c0-6.9,4.9-15.3,10.8-18.8c3-1.7,5.7-1.9,7.6-0.8
	s3.2,3.6,3.2,7C312.9,299.6,308.1,308,302.1,311.4z"/>
<path class="st17" d="M297.2,311.7c-0.8,0-1.5-0.2-2.2-0.5c-1.6-1-2.6-3.1-2.6-6c0-6.5,4.6-14.4,10.2-17.7c1.3-0.8,2.7-1.2,4.2-1.3
	c0.8,0,1.5,0.2,2.2,0.6c1.7,1,2.6,3.1,2.6,6c0,6.5-4.6,14.4-10.2,17.7C300.2,311.2,298.8,311.6,297.2,311.7z"/>
<path class="st15" d="M300.6,309.8c5.6-3.2,10.2-11.2,10.2-17.7c0-2.6-0.7-4.5-2-5.6c-0.6-0.3-1.2-0.4-1.8-0.4
	c-1.5,0.1-3,0.5-4.2,1.3c-5.6,3.2-10.2,11.2-10.2,17.7c0,2.6,0.7,4.5,2,5.6c0.6,0.3,1.2,0.4,1.8,0.4
	C297.9,311.1,299.3,310.6,300.6,309.8z"/>
<polygon class="st14" points="300.8,288.8 301.5,288.2 301.5,310.4 300.8,309.9 "/>
<path class="st17" d="M292.6,303.2c0,0.3-0.1,0.6-0.1,0.9l19-11l-0.8-0.5L292.6,303.2z"/>
<path class="st16" d="M292.5,305.9c0-0.6,0-1.2,0-1.7l19.2-11c0,0.6-0.1,1.2-0.1,1.8L292.5,305.9z"/>
<polygon class="st16" points="301.5,311.5 303,310.7 303,286.9 301.5,287.8 "/>
<path class="st14" d="M301.5,299l-0.8-0.4v-9.7c0.3-0.2,0.5-0.4,0.8-0.6V299z"/>
<g id="freepik--Fence--inject-4">
	<polygon id="freepik--Shadow--inject-4" class="st17" points="122.5,394.1 207.8,443.3 211.9,440.9 126.6,391.6 	"/>
	<g id="freepik--fence--inject-4">
		<polygon class="st19" points="205.4,439 205.4,407.7 203.1,402.9 200.7,405 200.7,436.3 		"/>
		<polygon class="st7" points="205.4,407.7 206.6,407 206.6,438.3 205.4,439 		"/>
		<polygon class="st15" points="203.1,402.9 204.2,402.2 206.6,407 205.4,407.7 		"/>
		<polygon class="st19" points="188.1,429 188.1,397.7 185.8,393 183.4,395 183.4,426.3 		"/>
		<polygon class="st7" points="188.1,397.7 189.2,397.1 189.2,428.4 188.1,429 		"/>
		<polygon class="st15" points="185.8,393 186.9,392.2 189.2,397.1 188.1,397.7 		"/>
		<polygon class="st19" points="170.8,419.1 170.8,387.8 168.4,383 166.1,385.1 166.1,416.4 		"/>
		<polygon class="st7" points="170.8,387.8 171.9,387.1 171.9,418.4 170.8,419.1 		"/>
		<polygon class="st15" points="168.4,383 169.6,382.3 171.9,387.1 170.8,387.8 		"/>
		<polygon class="st19" points="153.4,409.1 153.4,377.8 151.1,373 148.7,375.1 148.7,406.4 		"/>
		<polygon class="st7" points="153.4,377.8 154.6,377.1 154.6,408.4 153.4,409.1 		"/>
		<polygon class="st15" points="151.1,373 152.3,372.3 154.6,377.1 153.4,377.8 		"/>
		<polygon class="st19" points="136.1,399.1 136.1,367.9 133.8,363.1 131.4,365.2 131.4,396.5 		"/>
		<polygon class="st7" points="136.1,367.9 137.3,367.2 137.3,398.5 136.1,399.1 		"/>
		<polygon class="st15" points="133.8,363.1 135,362.4 137.3,367.2 136.1,367.9 		"/>
		<polygon class="st7" points="131.4,377.7 136.1,380.4 136.1,378.6 131.4,375.9 		"/>
		<polygon class="st7" points="153.4,388.5 148.7,385.8 148.7,387.7 153.4,390.4 		"/>
		<polygon class="st7" points="188.1,408.4 183.4,405.8 183.4,407.6 188.1,410.3 		"/>
		<polygon class="st7" points="170.8,398.5 166.1,395.8 166.1,397.6 170.8,400.3 		"/>
		<polygon class="st7" points="205.4,418.4 200.7,415.7 200.7,417.5 205.4,420.2 		"/>
		<polygon class="st7" points="131.4,389.6 136.1,392.3 136.1,390.5 131.4,387.8 		"/>
		<polygon class="st7" points="153.4,400.4 148.7,397.7 148.7,399.6 153.4,402.3 		"/>
		<polygon class="st7" points="188.1,420.3 183.4,417.6 183.4,419.5 188.1,422.2 		"/>
		<polygon class="st7" points="170.8,410.4 166.1,407.7 166.1,409.5 170.8,412.2 		"/>
		<polygon class="st7" points="205.4,430.3 200.7,427.6 200.7,429.4 205.4,432.1 		"/>
		<polygon class="st19" points="210.7,432 126.4,383.6 126.4,385.5 210.7,433.9 		"/>
		<polygon class="st7" points="210.7,432 211.9,431.4 211.9,433.2 210.7,433.9 		"/>
		<polygon class="st15" points="126.4,383.6 210.7,432 211.9,431.4 127.7,382.9 		"/>
		<polygon class="st19" points="210.7,420.2 126.4,371.8 126.4,373.7 210.7,422.1 		"/>
		<polygon class="st7" points="210.7,420.2 211.9,419.5 211.9,421.4 210.7,422.1 		"/>
		<polygon class="st15" points="126.4,371.8 210.7,420.2 211.9,419.5 127.7,371.1 		"/>
	</g>
</g>
<g>
	
		<ellipse id="freepik--shadow--inject-24_00000072962792473682704430000010927710893616218004_" class="st6" cx="111.7" cy="414.2" rx="22" ry="12.7"/>
	<g id="freepik--tree--inject-24">
		
			<rect x="105.6" y="368.6" transform="matrix(0.4524 -0.8918 0.8918 0.4524 -265.4889 306.6048)" class="st7" width="22.7" height="1.9"/>
		
			<rect x="105.5" y="356.4" transform="matrix(0.8503 -0.5264 0.5264 0.8503 -176.6728 110.806)" class="st7" width="1.9" height="19"/>
		<path class="st7" d="M113.3,355.4v60.2c0,0.3-0.2,0.5-0.5,0.6c-0.7,0.4-1.5,0.4-2.2,0c-0.3-0.1-0.4-0.4-0.5-0.6v-60.2H113.3z"/>
		<path class="st8" d="M150.2,340.3c0,12.5-10.1,22.7-22.7,22.7c-12.5,0-22.7-10.1-22.7-22.7c0-12.5,10.1-22.7,22.7-22.7
			c0,0,0,0,0,0C140.1,317.6,150.2,327.7,150.2,340.3z"/>
		<path class="st9" d="M150.2,340.3c0,12.5-10.1,22.7-22.7,22.7c-12.5,0-22.7-10.1-22.7-22.7c0-12.5,10.1-22.7,22.7-22.7
			c0,0,0,0,0,0C140.1,317.6,150.2,327.7,150.2,340.3z"/>
		<path class="st10" d="M134.7,334.5c2.9-9.2,6-12.8,4.1-13.9c-10.9-6.2-24.7-2.3-30.9,8.5c-6.2,10.9-2.3,24.7,8.5,30.9
			c9.6,5.4,21.7,3.2,28.7-5.3C138.3,356.6,130.9,346.4,134.7,334.5z"/>
		<path class="st8" d="M107.8,346.7c0,8.8-7.1,15.9-15.9,15.9S76,355.5,76,346.7c0-8.8,7.1-15.9,15.9-15.9S107.8,337.9,107.8,346.7
			L107.8,346.7z"/>
		<path class="st11" d="M107.8,346.7c0,8.8-7.1,15.9-15.9,15.9S76,355.5,76,346.7c0-8.8,7.1-15.9,15.9-15.9S107.8,337.9,107.8,346.7
			L107.8,346.7z"/>
		<path class="st10" d="M91.9,330.7c-3.3,0-6.6,1-9.3,3c-0.4,9.7,7.8,19.2,5.5,22.4s-8,1.3-10-1.5c4.4,7.6,14.2,10.2,21.8,5.8
			c7.6-4.4,10.2-14.2,5.8-21.8C102.8,333.8,97.6,330.7,91.9,330.7z"/>
		
			<ellipse transform="matrix(0.3827 -0.9239 0.9239 0.3827 -235.409 306.6905)" class="st8" cx="111.8" cy="329.5" rx="29.2" ry="29.2"/>
		<g class="st12">
			<ellipse transform="matrix(0.3827 -0.9239 0.9239 0.3827 -235.409 306.6905)" cx="111.8" cy="329.5" rx="29.2" ry="29.2"/>
		</g>
		<path class="st10" d="M140.2,336.2c-3.7,15.7-19.4,25.5-35.1,21.8s-25.5-19.4-21.8-35.1c1.2-5,3.6-9.6,7.1-13.3
			c2-2.2,2.2-2.3,0.2-0.2c-3.7,15.7,6,31.4,21.7,35.1C122.4,347,133.1,343.8,140.2,336.2L140.2,336.2z"/>
	</g>
</g>
<g id="freepik--Clouds--inject-24">
	<path id="freepik--Cloud--inject-24" class="st14" d="M413.2,76.3c0-4.3-4.8-7.4-10.2-7.9c-6.4-0.6-10.9,2.2-11,7.2
		c-4.2-1.7-8.6-0.6-8.2,4c-1.1-1.2-5.1-1.2-6.6-0.9c-1.6,0.4-2.9,1.6-3.7,3.1c-0.3,0.7-0.5,1.5-0.4,2.3c-2.4-0.8-8-1.3-9.3,1
		c-2.5,4,7.4,4.1,9.3,2.9c0.4,3.1,11,3.6,13.5,0.7c2,2,4.9,2.5,8,2.6c5.2,0.3,8.4-1.5,12.5-3.5c4.4,3.8,12.1,3.8,16.1-0.5
		c1,1,3.8,1.3,6.1,0.7c1.5-0.3,1.8-1,1.8-1c0.9,0.4,1.8,0.6,2.7,0.8c2.9,0.6,8.3,0,6-2.6c-0.8-0.9-3.6-1.5-4.8-1.2
		c-1.3-2.5-6.3-4.8-9.2-2.7c-0.1-3-2.9-5.4-6.7-5.9C417.7,75.2,414.6,75,413.2,76.3z"/>
	<path id="freepik--cloud--inject-24" class="st0" d="M84.2,147.3c0-5-5.4-8.4-11.6-9c-7.3-0.7-12.4,2.6-12.6,8.3
		c-4.8-1.9-9.8-0.7-9.4,4.5c-1.2-1.4-5.9-1.4-7.5-1c-1.8,0.5-3.3,1.8-4.1,3.5c-0.4,0.8-0.5,1.8-0.4,2.7c-2.8-0.9-9.1-1.5-10.6,1.1
		c-2.8,4.5,8.4,4.7,10.7,3.3c0.5,3.5,12.5,4.1,15.4,0.9c2.3,2.3,5.5,2.8,9.1,3c6,0.4,9.6-1.7,14.3-4c5,4.3,13.8,4.4,18.3-0.5
		c1.2,1.1,4.4,1.4,6.9,0.8c1.7-0.4,2.1-1.1,2.1-1.1c1,0.4,2,0.7,3.1,0.9c3.3,0.7,9.4,0,6.9-3c-0.9-1-4.1-1.7-5.4-1.4
		c-1.4-2.8-7.2-5.5-10.6-3.1c-0.1-3.4-3.3-6.1-7.7-6.8C89.5,146.1,85.9,145.9,84.2,147.3z"/>
	<path id="freepik--cloud--inject-24_00000044879428017390118320000015991517676238057869_" class="st0" d="M315.3,100.7
		c0-5.1-5.6-8.6-11.9-9.2c-7.4-0.7-12.7,2.6-12.9,8.5c-4.9-2-10-0.7-9.6,4.6c-1.3-1.5-6-1.4-7.7-1c-1.9,0.5-3.4,1.8-4.3,3.6
		c-0.4,0.8-0.6,1.8-0.4,2.7c-2.8-0.9-9.3-1.5-10.9,1.1c-2.9,4.6,8.6,4.8,10.9,3.4c0.5,3.6,12.8,4.2,15.8,0.9
		c2.3,2.3,5.7,2.9,9.3,3.1c6.1,0.4,9.8-1.7,14.6-4.1c5.2,4.4,14.1,4.5,18.8-0.6c1.2,1.1,4.5,1.5,7.1,0.8c1.7-0.4,2.1-1.2,2.1-1.2
		c1,0.5,2.1,0.8,3.2,1c3.4,0.7,9.7,0,7-3.1c-0.9-1-4.2-1.7-5.6-1.4c-1.5-2.9-7.4-5.6-10.8-3.2c-0.1-3.5-3.3-6.3-7.9-7
		C320.7,99.5,317,99.3,315.3,100.7z"/>
</g>
<polygon class="st7" points="263.9,427 259.6,420.8 261.7,412.2 255.3,403.3 266.7,411 263.9,419.9 269.9,423.5 "/>
<polygon class="st7" points="340,383.1 334.7,386.1 334.7,372.7 321.8,334.7 326,316.1 314.1,292 318.6,275.3 316.8,291.9 
	333.6,314.7 325.8,334.9 343.2,368 "/>
<g id="freepik--window--inject-4_00000113350243031649991400000000330601924928737938_">
	<g id="freepik--window--inject-4_00000140700593943103465870000003932469817316983961_">
		<g id="freepik--frame--inject-4_00000081647011063802993030000000618794525063747985_">
			<polygon class="st14" points="346.3,314 346.9,314.3 346.9,340.8 346.3,340.5 			"/>
			<polygon class="st15" points="346.3,340.5 346.3,314.7 327.1,325.7 327.1,351.6 			"/>
			<path class="st16" d="M348,341.5v-29.1l-22,12.7v29.1L348,341.5z M327.1,352.2v-26.5l19.8-11.4v26.5L327.1,352.2z"/>
			<polygon class="st17" points="346.9,340.8 346.3,340.5 327.1,351.6 327.1,352.2 			"/>
			<polygon class="st14" points="335.8,320.7 336.4,320.3 336.4,346.8 335.8,346.5 			"/>
			<polygon class="st14" points="326,354.2 325.4,353.8 325.4,324.8 326,325.1 			"/>
			<polygon class="st17" points="325.4,324.8 326,325.1 348,312.4 347.4,312 			"/>
			<polygon class="st17" points="327.1,337.8 327.1,338.5 346.9,327.1 346.3,326.7 			"/>
		</g>
		<polygon class="st16" points="327.1,339.8 327.1,338.5 346.9,327.1 346.9,328.4 		"/>
		<polygon class="st16" points="336.4,348.1 337.5,347.5 337.5,318.4 336.4,319 		"/>
		<polygon class="st14" points="336.4,333.1 335.8,332.8 335.8,320.7 336.4,320.3 		"/>
	</g>
</g>
<polygon class="st7" points="225.1,422.1 215.8,416.7 226.8,394.4 223.5,384.1 226.8,386.1 227.4,385.8 227.4,376.1 229.5,373.7 
	227.4,387 234.7,395.1 "/>
<polygon class="st7" points="255.3,431.9 251.6,418 252.3,410.6 248.7,413.1 244.8,409.6 246.3,424.8 243.3,432.6 248.7,435.7 "/>
<polygon class="st7" points="276.5,303.8 267.2,318.1 275.9,321.9 268.7,339.1 283.3,320 "/>
<polygon class="st7" points="203.4,348.6 217.5,336.3 228.1,303.8 265.5,261.5 234.4,290.5 218.5,299.5 219.4,317.5 204.8,334.8 
	199.9,346.6 "/>
<polygon class="st7" points="151.1,318.4 166.1,316.4 162.7,306.3 159.6,313.8 146.9,314.7 147.4,316.2 "/>
</svg>
