<?xml version="1.0" encoding="utf-8"?>
<!-- Generator: Adobe Illustrator 27.2.0, SVG Export Plug-In . SVG Version: 6.00 Build 0)  -->
<svg version="1.1" id="Layer_1" xmlns="http://www.w3.org/2000/svg" xmlns:xlink="http://www.w3.org/1999/xlink" x="0px" y="0px"
	 viewBox="0 0 500 500" style="enable-background:new 0 0 500 500;" xml:space="preserve">
<style type="text/css">
	.st0{fill:#F5F5F5;}
	.st1{fill:#FFFFFF;}
	.st2{fill:#8A9688;}
	.st3{opacity:0.6;fill:#FFFFFF;enable-background:new    ;}
	.st4{fill:#FFBDA7;}
	.st5{opacity:0.5;enable-background:new    ;}
	.st6{opacity:0.4;fill:#CFDECE;enable-background:new    ;}
	.st7{fill:#263238;}
	.st8{fill:#CFDECE;}
	.st9{opacity:0.35;enable-background:new    ;}
	.st10{opacity:0.1;enable-background:new    ;}
	.st11{opacity:0.3;enable-background:new    ;}
	.st12{opacity:0.2;}
	.st13{opacity:0.3;fill:#8A9688;enable-background:new    ;}
	.st14{fill:#EBEBEB;}
	.st15{fill:#455A64;}
	.st16{fill:#FAFAFA;}
	.st17{fill:#E0E0E0;}
	.st18{opacity:0.8;fill:#FFFFFF;enable-background:new    ;}
	.st19{fill:#37474F;}
	.st20{opacity:0.3;fill:#FFFFFF;enable-background:new    ;}
	.st21{opacity:0.2;fill:#8A9688;enable-background:new    ;}
	.st22{fill:#CBD7CA;}
	.st23{opacity:0.25;enable-background:new    ;}
	.st24{opacity:0.2;enable-background:new    ;}
	.st25{opacity:0.4;enable-background:new    ;}
	.st26{opacity:0.6;enable-background:new    ;}
	.st27{fill:#FFA8A7;}
	.st28{fill:#F0F0F0;}
	.st29{fill:#F28F8F;}
	.st30{fill:#9A4A4D;}
	.st31{opacity:0.7;fill:#FFFFFF;enable-background:new    ;}
	.st32{opacity:0.5;fill:#FFFFFF;enable-background:new    ;}
	.st33{clip-path:url(#SVGID_00000075875736937738171330000018234714069059933089_);}
	.st34{opacity:0.35;fill:#FFFFFF;enable-background:new    ;}
</style>
<g id="freepik--Floor--inject-4">
	<path id="freepik--floor--inject-4" class="st0" d="M77.7,244.9c-95.2,54.9-95.2,144.1,0,199s249.5,55,344.7,0s95.2-144,0-199
		S172.8,189.9,77.7,244.9z"/>
	<g id="freepik--Flowers--inject-4">
		<g id="freepik--flowers--inject-4">
			<path class="st1" d="M451.8,334.3c0,0-0.1-1.6-1.4-1.8c0,0-1-0.2-1.6,1.4c-1-0.4-2.1-0.2-3,0.4c-0.1,0.9,0.5,1.8,1.4,2.1
				c-0.7,0.7-0.9,1.7-0.5,2.5c0,0,2.6,0.9,3.2-0.8c0,0,0.2,1.4,2.8,1.4c0.6-0.9,0.6-2,0-2.9c0,0,1.8-0.1,2.1-1.4
				C454.7,335.4,453.5,333.3,451.8,334.3z"/>
			<path class="st2" d="M450.2,334.6c-0.8-0.1-1.6,0.4-1.9,1.2c0,0,0,0.9,1.6,1.1s1.9-0.8,1.9-0.8
				C451.7,335.2,451.1,334.6,450.2,334.6z"/>
			<path class="st3" d="M450.2,334.6c-0.8-0.1-1.6,0.4-1.9,1.2c0,0,0,0.9,1.6,1.1s1.9-0.8,1.9-0.8
				C451.7,335.2,451.1,334.6,450.2,334.6z"/>
			<path class="st1" d="M459.8,331c0,0-0.6-1.1-1.5-1.3c-0.5,0.4-0.8,1-0.9,1.6c-0.7-0.1-1.4,0-2,0.5c0.2,0.7,0.6,1.2,1.3,1.5
				c-0.2,0.7-0.2,1.4,0.1,2.1c1,0.1,2-0.5,2.4-1.4c0.6,0.7,1.6,0.9,2.5,0.6c0.3-0.8,0-1.7-0.7-2.2c0.6-0.4,1-1,1-1.7
				C461.3,330.6,460.5,330.7,459.8,331z"/>
			<path class="st2" d="M458.8,331.7c-0.6,0-1.2,0.5-1.3,1.1c0,0,0.1,0.7,1.3,0.6s1.3-0.8,1.3-0.8
				C459.9,332,459.4,331.6,458.8,331.7z"/>
			<path class="st3" d="M458.8,331.7c-0.6,0-1.2,0.5-1.3,1.1c0,0,0.1,0.7,1.3,0.6s1.3-0.8,1.3-0.8
				C459.9,332,459.4,331.6,458.8,331.7z"/>
			<path class="st1" d="M451.2,329.2c0,0-0.4-1-1-0.7s-0.4,1,0.1,1.1c0,0-1.2,0.4-0.9,1.1s1.4,0,1.7-0.4c0,0,0.2,1,1.1,0.7
				s0-1.2,0-1.2s1.3-0.5,0.6-1.1S451.2,329.2,451.2,329.2z"/>
			<path class="st1" d="M457.6,344c0,0,0.1-1.1-0.7-1s-0.8,0.7-0.3,1.1c0,0-1.3-0.1-1.3,0.6s1.3,0.6,1.7,0.3c0,0-0.2,1,0.7,1.1
				s0.5-1.1,0.5-1.1s1.4,0.1,1-0.8S457.6,344,457.6,344z"/>
			<path class="st1" d="M438.6,339.8c0,0-0.9-1.1-0.2-1.4s0.9,0.7,0.9,0.7s0.7-0.8,1-0.2s-0.5,1.1-0.5,1.1s0.9,0.5,0.4,1
				s-1.1-0.3-1.1-0.3s-0.4,0.9-0.9,0.6S437.9,340.1,438.6,339.8z"/>
		</g>
		<g id="freepik--flowers--inject-4_00000067211691999848814950000016899336388248110723_">
			<path class="st1" d="M392.9,399.9c0,0-0.6-1.7-2-1.5c0,0-1.2,0.1-1.3,2c-1.2-0.1-2.4,0.4-3.1,1.3c0.1,1.1,1,1.9,2.1,1.8
				c-0.5,0.9-0.4,2.1,0.2,2.9c0,0,3.1,0.2,3.3-1.8c0,0,0.7,1.5,3.4,0.7c0.4-1.1,0.1-2.4-0.9-3.1c0,0,1.9-0.6,1.8-2.1
				C396.4,400.2,394.5,398.4,392.9,399.9z"/>
			<path class="st2" d="M391.3,400.7c-0.9,0.1-1.7,0.9-1.7,1.9c0,0,0.3,1,2.1,0.7s1.8-1.4,1.8-1.4
				C393.1,400.9,392.2,400.4,391.3,400.7z"/>
			<path class="st3" d="M391.3,400.7c-0.9,0.1-1.7,0.9-1.7,1.9c0,0,0.3,1,2.1,0.7s1.8-1.4,1.8-1.4
				C393.1,400.9,392.2,400.4,391.3,400.7z"/>
			<path class="st1" d="M407.5,389.3c0,0-0.6-1.3-1.7-1.4c-0.6,0.5-0.9,1.1-1,1.9c-0.8-0.2-1.7,0-2.3,0.6c0.2,0.8,0.7,1.4,1.5,1.7
				c-0.3,0.8-0.2,1.6,0.1,2.4c1.1,0.1,2.2-0.5,2.7-1.5c0,0,0.8,1.1,2.8,0.7c0.3-0.9,0-1.9-0.7-2.4c0.7-0.4,1.1-1.1,1.1-2
				C409.1,388.9,408.2,389,407.5,389.3z"/>
			<path class="st2" d="M406.3,390.1c-0.7,0-1.3,0.5-1.4,1.2c0,0,0.1,0.8,1.5,0.7s1.4-0.9,1.4-0.9C407.6,390.4,407,390,406.3,390.1z
				"/>
			<path class="st3" d="M406.3,390.1c-0.7,0-1.3,0.5-1.4,1.2c0,0,0.1,0.8,1.5,0.7s1.4-0.9,1.4-0.9C407.6,390.4,407,390,406.3,390.1z
				"/>
			<path class="st1" d="M393.8,390.4c0,0-0.4-1.1-1.1-0.8s-0.5,1.1,0.2,1.3c0,0-1.4,0.5-1,1.2s1.6,0,1.9-0.4c0,0,0.3,1.2,1.2,0.7
				s0-1.4,0-1.4s1.5-0.6,0.7-1.3S393.8,390.4,393.8,390.4z"/>
			<path class="st1" d="M414.7,398.3c0,0,0.1-1.2-0.7-1.2s-0.9,0.8-0.4,1.2c0,0-1.5-0.2-1.4,0.7s1.5,0.6,1.9,0.4
				c0,0-0.2,1.2,0.8,1.2s0.6-1.3,0.6-1.3s1.6,0.1,1.2-0.9S414.7,398.3,414.7,398.3z"/>
			<path class="st1" d="M377.6,399.2c0,0,1.3-0.9,1.6-0.1s-0.9,1-0.9,1s0.8,0.8,0.2,1.1s-1.3-0.6-1.3-0.6s-0.6,1-1.1,0.4
				s0.4-1.3,0.4-1.3s-1-0.5-0.6-1.1S377.4,398.4,377.6,399.2z"/>
		</g>
		<g id="freepik--flowers--inject-4_00000105420713914000670260000011125913057947006623_">
			<path class="st1" d="M290.9,455.1c0,0-0.1-1.7-1.5-1.9c0,0-1.1-0.2-1.7,1.5c-1.1-0.4-2.2-0.3-3.2,0.4c-0.1,1,0.5,1.9,1.5,2.2
				c-0.7,0.7-0.9,1.8-0.5,2.7c0,0,2.7,0.9,3.4-0.8c0,0,0.2,1.5,2.9,1.5c0.7-0.9,0.7-2.1,0-3c0,0,1.9-0.1,2.2-1.5
				C294,456.2,292.7,454.1,290.9,455.1z"/>
			<path class="st2" d="M289.2,455.4c-0.9-0.1-1.7,0.4-2,1.3c0,0,0,1,1.7,1.1s2-0.9,2-0.9C290.9,456.1,290.1,455.4,289.2,455.4z"/>
			<path class="st3" d="M289.2,455.4c-0.9-0.1-1.7,0.4-2,1.3c0,0,0,1,1.7,1.1s2-0.9,2-0.9C290.9,456.1,290.1,455.4,289.2,455.4z"/>
			<path class="st1" d="M307,450.9c0,0-0.6-1.2-1.6-1.4c-0.5,0.4-0.9,1.1-1,1.7c-0.8-0.2-1.6,0-2.1,0.5c0.2,0.7,0.7,1.3,1.4,1.6
				c-0.3,0.7-0.2,1.5,0.1,2.2c1.1,0.1,2.1-0.5,2.6-1.4c0,0,0.7,1,2.6,0.7c0.3-0.8,0-1.8-0.7-2.3c0.7-0.4,1.1-1.1,1-1.8
				C308.5,450.5,307.7,450.6,307,450.9z"/>
			<path class="st2" d="M306,451.6c-0.7,0-1.2,0.5-1.4,1.1c0,0,0.1,0.7,1.4,0.6s1.4-0.9,1.4-0.9C307.2,452,306.6,451.6,306,451.6z"
				/>
			<path class="st3" d="M306,451.6c-0.7,0-1.2,0.5-1.4,1.1c0,0,0.1,0.7,1.4,0.6s1.4-0.9,1.4-0.9C307.2,452,306.6,451.6,306,451.6z"
				/>
			<path class="st1" d="M292.6,447.1c0,0-0.4-1.1-1.1-0.7s-0.5,1,0.1,1.2c0,0-1.3,0.4-1,1.1s1.5,0,1.8-0.4c0,0,0.2,1.1,1.2,0.7
				s0-1.3,0-1.3s1.4-0.5,0.6-1.2S292.6,447.1,292.6,447.1z"/>
			<path class="st1" d="M270.6,464.8c0,0,0.1-1.1-0.7-1.1s-0.9,0.8-0.4,1.2c0,0-1.4-0.2-1.4,0.6s1.4,0.6,1.8,0.4
				c0,0-0.2,1.1,0.8,1.1s0.5-1.2,0.5-1.2s1.5,0.1,1.1-0.8S270.6,464.8,270.6,464.8z"/>
			<path class="st1" d="M276.5,451c0,0-0.9-1.2-0.2-1.5s1,0.8,1,0.8s0.7-0.8,1-0.2s-0.5,1.2-0.5,1.2s1,0.5,0.4,1s-1.2-0.3-1.2-0.3
				s-0.4,0.9-1,0.7S275.8,451.2,276.5,451z"/>
		</g>
		<g id="freepik--flowers--inject-4_00000057123391923441504160000018408108327545178767_">
			<path class="st1" d="M119.1,426.7c0,0-0.1-1.6-1.4-1.8c0,0-1-0.2-1.6,1.4c-1-0.4-2.1-0.2-3,0.4c-0.1,0.9,0.5,1.8,1.4,2.1
				c-0.7,0.7-0.9,1.7-0.5,2.5c0,0,2.6,0.9,3.2-0.8c0,0,0.2,1.4,2.8,1.4c0.6-0.9,0.6-2,0-2.9c0,0,1.8,0,2.1-1.4
				C122.1,427.8,120.8,425.8,119.1,426.7z"/>
			<path class="st2" d="M117.6,427c-0.8-0.1-1.6,0.4-1.9,1.2c0,0,0,0.9,1.6,1.1s1.9-0.8,1.9-0.8C119,427.6,118.4,427,117.6,427z"/>
			<path class="st3" d="M117.6,427c-0.8-0.1-1.6,0.4-1.9,1.2c0,0,0,0.9,1.6,1.1s1.9-0.8,1.9-0.8C119,427.6,118.4,427,117.6,427z"/>
			<path class="st1" d="M131.9,424.8c0,0-0.6-1.1-1.5-1.3c-0.5,0.4-0.8,1-0.9,1.6c-0.7-0.2-1.4,0-2,0.5c0.2,0.7,0.7,1.2,1.3,1.5
				c-0.3,0.7-0.2,1.4,0.1,2.1c1,0.1,2-0.5,2.4-1.4c0.6,0.7,1.6,0.9,2.5,0.6c0.3-0.8,0-1.7-0.7-2.2c0.6-0.4,1-1,1-1.7
				C133.4,424.4,132.6,424.4,131.9,424.8z"/>
			<path class="st2" d="M130.9,425.5c-0.6,0-1.2,0.5-1.3,1.1c0,0,0.1,0.7,1.3,0.6s1.3-0.8,1.3-0.8
				C132,425.8,131.5,425.4,130.9,425.5z"/>
			<path class="st3" d="M130.9,425.5c-0.6,0-1.2,0.5-1.3,1.1c0,0,0.1,0.7,1.3,0.6s1.3-0.8,1.3-0.8
				C132,425.8,131.5,425.4,130.9,425.5z"/>
			<path class="st1" d="M120.4,420.6c0,0-0.3-1-1-0.7s-0.4,1,0.2,1.1c0,0-1.3,0.4-0.9,1.1s1.4,0,1.7-0.4c0,0,0.2,1,1.1,0.7
				s0-1.2,0-1.2s1.3-0.5,0.6-1.1S120.4,420.6,120.4,420.6z"/>
			<path class="st1" d="M129,433.3c0,0,0.1-1.1-0.6-1s-0.8,0.7-0.3,1.1c0,0-1.3-0.1-1.3,0.6s1.3,0.6,1.7,0.4c0,0-0.2,1,0.7,1.1
				s0.5-1.1,0.5-1.1s1.4,0.1,1-0.8S129,433.3,129,433.3z"/>
			<path class="st1" d="M105.2,424.3c0,0-0.9-1.1-0.2-1.4s0.9,0.7,0.9,0.7s0.7-0.8,1-0.2s-0.5,1.1-0.5,1.1s0.9,0.5,0.4,1
				s-1.2-0.3-1.2-0.3s-0.4,0.9-0.9,0.6S104.6,424.6,105.2,424.3z"/>
		</g>
		<g id="freepik--flowers--inject-4_00000138550624565320716610000004685540666500677813_">
			<path class="st1" d="M53.2,338.7c0,0,0.1-1.7,1.5-1.9c0,0,1.1-0.2,1.8,1.6c1.1-0.4,2.3-0.3,3.2,0.4c0.2,1-0.5,2-1.5,2.3
				c0.7,0.7,0.9,1.8,0.6,2.7c0,0-2.8,0.9-3.5-0.8c0,0-0.2,1.6-3,1.6c-0.7-0.9-0.7-2.2,0-3.1c0,0-1.9-0.1-2.2-1.5
				C50,339.8,51.3,337.7,53.2,338.7z"/>
			<path class="st2" d="M54.9,339c0.9-0.1,1.8,0.4,2.1,1.3c0,0,0,1-1.7,1.2s-2-0.9-2-0.9C53.3,339.7,54,339,54.9,339z"/>
			<path class="st3" d="M54.9,339c0.9-0.1,1.8,0.4,2.1,1.3c0,0,0,1-1.7,1.2s-2-0.9-2-0.9C53.3,339.7,54,339,54.9,339z"/>
			<path class="st1" d="M39.4,336.6c0,0,0.6-1.2,1.6-1.4c0.5,0.4,0.9,1.1,1,1.8c0.8-0.2,1.6,0,2.2,0.5c-0.2,0.7-0.7,1.3-1.4,1.6
				c0.3,0.7,0.2,1.6-0.1,2.3c-1.1,0.1-2.1-0.5-2.6-1.4c0,0-0.7,1.1-2.7,0.7c-0.3-0.9,0-1.8,0.7-2.3c-0.7-0.4-1.1-1.1-1.1-1.9
				C37.8,336.2,38.7,336.3,39.4,336.6z"/>
			<path class="st2" d="M40.5,337.3c0.7,0,1.3,0.5,1.4,1.2c0,0-0.1,0.7-1.4,0.7s-1.4-0.9-1.4-0.9C39.2,337.7,39.8,337.2,40.5,337.3z
				"/>
			<path class="st3" d="M40.5,337.3c0.7,0,1.3,0.5,1.4,1.2c0,0-0.1,0.7-1.4,0.7s-1.4-0.9-1.4-0.9C39.2,337.7,39.8,337.2,40.5,337.3z
				"/>
			<path class="st1" d="M51.8,332.1c0,0,0.4-1.1,1.1-0.7s0.5,1.1-0.2,1.2c0,0,1.4,0.4,1,1.2s-1.5,0-1.8-0.4c0,0-0.2,1.1-1.2,0.7
				s0-1.4,0-1.4s-1.5-0.6-0.7-1.2S51.8,332.1,51.8,332.1z"/>
			<path class="st1" d="M42.5,345.8c0,0-0.1-1.2,0.7-1.1s0.9,0.8,0.4,1.2c0,0,1.4-0.2,1.4,0.7s-1.4,0.6-1.8,0.4c0,0,0.2,1.1-0.8,1.1
				s-0.6-1.2-0.6-1.2s-1.6,0.1-1.1-0.8S42.5,345.8,42.5,345.8z"/>
			<path class="st1" d="M68.2,336.1c0,0,0.9-1.2,0.2-1.5s-1,0.8-1,0.8s-0.7-0.8-1.1-0.2s0.5,1.2,0.5,1.2s-1,0.5-0.4,1
				s1.2-0.3,1.2-0.3s0.4,0.9,1,0.7S68.9,336.4,68.2,336.1z"/>
			<path class="st1" d="M62.1,376.2c0,0-1.3-0.8-1.5,0s0.9,0.9,0.9,0.9s-0.8,0.8-0.1,1.1s1.2-0.7,1.2-0.7s0.7,0.9,1.1,0.3
				s-0.5-1.2-0.5-1.2s0.9-0.5,0.5-1.1S62.3,375.4,62.1,376.2z"/>
			<path class="st1" d="M95.5,364.5c0,0-1.3-0.8-1.6,0s0.9,0.9,0.9,0.9s-0.8,0.8-0.1,1.1s1.2-0.7,1.2-0.7s0.7,0.9,1.1,0.3
				s-0.4-1.2-0.4-1.2s0.9-0.5,0.5-1.1S95.7,363.7,95.5,364.5z"/>
			<path class="st1" d="M79.7,403.6c0,0-1.3-0.8-1.6,0s0.9,0.9,0.9,0.9s-0.8,0.8-0.1,1.1s1.2-0.7,1.2-0.7s0.6,0.9,1.1,0.3
				s-0.5-1.2-0.5-1.2s0.9-0.5,0.6-1.1S80,402.8,79.7,403.6z"/>
			<path class="st1" d="M188,458.7c0,0-1.4-0.8-1.6,0s0.9,0.9,0.9,0.9s-0.8,0.8-0.1,1.1s1.2-0.7,1.2-0.7s0.6,0.9,1.1,0.3
				s-0.4-1.2-0.4-1.2s0.9-0.5,0.5-1.1S188.2,458,188,458.7z"/>
			<path class="st1" d="M449.3,377.7c0,0-1.4-0.8-1.6,0s0.9,0.9,0.9,0.9s-0.7,0.8-0.1,1.1s1.2-0.7,1.2-0.7s0.6,0.9,1.1,0.3
				s-0.5-1.2-0.5-1.2s0.9-0.5,0.5-1.1S449.5,377,449.3,377.7z"/>
		</g>
	</g>
</g>
<g id="freepik--Sun--inject-4">
	<circle id="freepik--sun--inject-4" class="st4" cx="185.8" cy="102.8" r="13.5"/>
</g>
<g id="freepik--plants-2--inject-4">
	<path class="st2" d="M353.2,401.8c0.2-0.1,0.4-0.2,0.6-0.3c0.4-0.2,0.8-0.3,1.2-0.5c0.4-0.2,0.7-0.3,1.1-0.6
		c-0.2,0.5-0.4,1-0.7,1.5c-0.2,0.4-0.6,0.7-0.9,0.9c-0.4,0.3-0.9,0.4-1.3,0.5c-0.4,0.1-0.7,0.2-1,0.4c0-0.1,0-0.2,0-0.2
		c0-0.1,0-0.2,0.1-0.3c0.1-0.2,0.1-0.4,0.2-0.5c0.2-0.3,0.4-0.6,0.7-0.8C353.1,401.8,353.1,401.8,353.2,401.8z"/>
	<path class="st2" d="M352.8,404.7c0.1,0,0.1-0.1,0.2-0.1c0.3-0.2,0.5-0.3,0.9-0.4c0.3-0.1,0.6-0.1,0.9-0.3c0.2-0.1,0.4-0.2,0.6-0.4
		c0,0.1,0,0.2-0.1,0.3c-0.1,0.4-0.4,0.8-0.7,1.2c-0.2,0.3-0.5,0.5-0.9,0.6c-0.4,0.1-0.8,0.1-1.2,0c-0.2,0-0.3-0.1-0.5,0
		C352.2,405.3,352.5,404.9,352.8,404.7z"/>
	<path class="st2" d="M351.1,402.6c0-0.3,0-0.5,0.1-0.8c-1,0.9-1.3,2.7,0,3.4C351.5,404.4,351.2,403.5,351.1,402.6z"/>
	<path class="st2" d="M352.1,407.1c0.6-0.4,1.4-0.2,2-0.5c-0.7,1.2-1.4,1.2-2.6,1.2C351.7,407.6,351.8,407.2,352.1,407.1z"/>
	<path class="st2" d="M352.1,405.6c-0.1,0-0.3,0.1-0.4,0.1c-0.1,0.6-0.2,1.3-0.3,1.9c0,0.1,0,0.1,0,0.2c0,0,0.1-0.1,0.1-0.1
		c0.1-0.1,0.2-0.1,0.3-0.2c0.1,0,0.1,0,0.2,0c0.1,0,0.1,0,0.2,0c0,0,0,0.1,0,0.1c-0.1,0-0.2,0.1-0.3,0.1c-0.1,0-0.2,0.1-0.3,0.1
		c-0.1,0-0.1,0.1-0.2,0.2c-0.1,0.4-0.1,0.8-0.2,1.2c-0.1,0.4-0.2,0.8-0.2,1.3c0,0,0,0.1-0.1,0.1c-0.2,0.1-0.4,0.1-0.5,0c0,0,0,0,0,0
		c0,0,0,0,0,0c0.2-0.3,0.3-0.7,0.4-1.1c0.1-0.5,0.2-0.9,0.3-1.4c0-0.1,0-0.2-0.1-0.3c0-0.1-0.1-0.2-0.1-0.3c0-0.1-0.1-0.1-0.1-0.2
		c0-0.1-0.1-0.2-0.1-0.2c0,0,0,0,0,0c0.1,0,0.2,0.2,0.3,0.3c0.1,0.1,0.1,0.2,0.2,0.3c0.1-0.5,0.2-1.1,0.3-1.6c0-0.1,0-0.2-0.1-0.3
		c-0.1-0.2-0.2-0.3-0.2-0.5c-0.1-0.2-0.1-0.4-0.2-0.5c0-0.2-0.1-0.4-0.1-0.5c0,0,0,0,0,0c0,0.2,0.1,0.4,0.2,0.5
		c0.1,0.1,0.2,0.3,0.3,0.4c0,0.1,0.1,0.1,0.1,0.2c0.1-0.5,0.2-1.1,0.4-1.5c0.1-0.3,0.3-0.5,0.5-0.7c0.1-0.1,0.3-0.2,0.4-0.3
		c0.2-0.1,0.3-0.2,0.5-0.2c0,0,0,0,0,0c-0.1,0.1-0.3,0.2-0.4,0.3c-0.1,0.1-0.3,0.2-0.4,0.3c-0.2,0.2-0.4,0.4-0.5,0.7
		c-0.2,0.5-0.3,1.1-0.3,1.6c0.2-0.1,0.5-0.1,0.8-0.2c0.3,0,0.6-0.1,0.8-0.3c0,0,0.1,0.1,0,0.1c-0.2,0.2-0.5,0.3-0.8,0.3
		C352.4,405.5,352.3,405.6,352.1,405.6z"/>
	<path class="st5" d="M352.1,405.6c-0.1,0-0.3,0.1-0.4,0.1c-0.1,0.6-0.2,1.3-0.3,1.9c0,0.1,0,0.1,0,0.2c0,0,0.1-0.1,0.1-0.1
		c0.1-0.1,0.2-0.1,0.3-0.2c0.1,0,0.1,0,0.2,0c0.1,0,0.1,0,0.2,0c0,0,0,0.1,0,0.1c-0.1,0-0.2,0.1-0.3,0.1c-0.1,0-0.2,0.1-0.3,0.1
		c-0.1,0-0.1,0.1-0.2,0.2c-0.1,0.4-0.1,0.8-0.2,1.2c-0.1,0.4-0.2,0.8-0.2,1.3c0,0,0,0.1-0.1,0.1c-0.2,0.1-0.4,0.1-0.5,0c0,0,0,0,0,0
		c0,0,0,0,0,0c0.2-0.3,0.3-0.7,0.4-1.1c0.1-0.5,0.2-0.9,0.3-1.4c0-0.1,0-0.2-0.1-0.3c0-0.1-0.1-0.2-0.1-0.3c0-0.1-0.1-0.1-0.1-0.2
		c0-0.1-0.1-0.2-0.1-0.2c0,0,0,0,0,0c0.1,0,0.2,0.2,0.3,0.3c0.1,0.1,0.1,0.2,0.2,0.3c0.1-0.5,0.2-1.1,0.3-1.6c0-0.1,0-0.2-0.1-0.3
		c-0.1-0.2-0.2-0.3-0.2-0.5c-0.1-0.2-0.1-0.4-0.2-0.5c0-0.2-0.1-0.4-0.1-0.5c0,0,0,0,0,0c0,0.2,0.1,0.4,0.2,0.5
		c0.1,0.1,0.2,0.3,0.3,0.4c0,0.1,0.1,0.1,0.1,0.2c0.1-0.5,0.2-1.1,0.4-1.5c0.1-0.3,0.3-0.5,0.5-0.7c0.1-0.1,0.3-0.2,0.4-0.3
		c0.2-0.1,0.3-0.2,0.5-0.2c0,0,0,0,0,0c-0.1,0.1-0.3,0.2-0.4,0.3c-0.1,0.1-0.3,0.2-0.4,0.3c-0.2,0.2-0.4,0.4-0.5,0.7
		c-0.2,0.5-0.3,1.1-0.3,1.6c0.2-0.1,0.5-0.1,0.8-0.2c0.3,0,0.6-0.1,0.8-0.3c0,0,0.1,0.1,0,0.1c-0.2,0.2-0.5,0.3-0.8,0.3
		C352.4,405.5,352.3,405.6,352.1,405.6z"/>
	<path class="st2" d="M341.8,386.4c-0.2-1-0.6-1.9-0.7-2.9c-1.6,2-1.5,5.1,0.9,6.4C341.9,388.7,342.1,387.5,341.8,386.4z"/>
	<path class="st2" d="M343,389.7c0.1-1.2,0.9-2.3,1.3-3.4c0.5,1.9,0.5,3.4-1.1,4.8C343,390.6,343,390.1,343,389.7z"/>
	<path class="st2" d="M339.3,389.4c-0.5-0.1-1-0.2-1.5-0.3c0.3,0.3,0.5,0.6,0.8,1c0.9,1.2,2.3,1.5,3.7,1.5
		C341.4,390.5,340.8,389.9,339.3,389.4z"/>
	<path class="st2" d="M344.7,392.2c0.2-1,1-1.8,1-2.8c0.7,1.2,1,2.8,0,3.8c-0.3,0.3-0.5,0.6-0.8,0.8
		C344.6,393.5,344.6,392.7,344.7,392.2z"/>
	<path class="st2" d="M346.2,395.5c0.2-0.7,1-1.2,1.2-1.9c0.7,1.3,0.2,2.6-1,3.4C345.8,397.8,346,395.8,346.2,395.5z"/>
	<path class="st2" d="M343.5,396.5c-1-0.4-2.2-0.2-3.1-0.9c0.4,1,1.2,2,2.3,2.4c0.8,0.3,1.7,0,2.5,0
		C344.7,397.4,344.1,396.8,343.5,396.5z"/>
	<path class="st2" d="M348,398.1c0.4,1.6-0.4,1.9-1.2,3c-0.3-1.8,0.5-2.1,1-3.5C347.8,397.7,347.9,397.9,348,398.1z"/>
	<path class="st2" d="M345.3,400.2c-0.6-0.9-1.9-1-2.7-1.7c0.3,1,0.7,2,1.6,2.6c0.5,0.3,1.1,0.5,1.6,0.6
		C346.1,401.6,345.5,400.4,345.3,400.2z"/>
	<path class="st2" d="M340.9,390.9c0.5,0.2,1.1,0.5,1.6,0.8c0.1,0.1,0.2,0.1,0.3,0.2l0,0c-0.5-0.8-0.9-1.6-1.2-2.4
		c-0.2-0.4-0.3-0.9-0.4-1.3c-0.1-0.5-0.2-0.9-0.3-1.4c0-0.1,0.1-0.1,0.1,0c0.1,0.4,0.3,0.8,0.4,1.3c0.1,0.4,0.3,0.8,0.4,1.2
		c0.3,0.8,0.7,1.5,1.1,2.2l0.2,0.3c0-0.1,0-0.1,0-0.2c0-0.3,0-0.5,0.1-0.8c0-0.2,0.1-0.5,0.2-0.7c0.1-0.2,0.2-0.5,0.3-0.7
		c0,0,0,0,0,0c0,0.2-0.2,0.4-0.2,0.7c-0.1,0.2-0.1,0.5-0.2,0.7c0,0.2,0,0.5,0,0.7c0,0.2,0.1,0.4,0,0.6c0.3,0.5,0.6,1,0.9,1.5
		c0.1,0.2,0.2,0.5,0.4,0.7l0,0c0.1-0.3,0.2-0.5,0.3-0.8c0.3-0.6,0.6-1.2,0.7-1.8c0,0,0,0,0,0c0,0.6-0.2,1.1-0.4,1.6
		c-0.1,0.3-0.2,0.6-0.3,0.9c0,0.1-0.1,0.3-0.1,0.4c0,0.1,0,0.1,0,0.2l0,0.1c0.1,0.1,0.1,0.2,0.1,0.3c0.1,0.2,0.2,0.4,0.2,0.6
		c0.3,0.7,0.5,1.4,0.7,2.1c0-0.3,0.1-0.5,0.2-0.8c0.1-0.3,0.2-0.5,0.3-0.7c0.1-0.2,0.3-0.5,0.5-0.7c0,0,0,0,0,0.1
		c-0.1,0.2-0.3,0.5-0.4,0.7c-0.1,0.2-0.2,0.5-0.3,0.7c-0.1,0.4-0.2,0.8-0.3,1.3c0.2,0.9,0.4,1.9,0.6,2.9c0.2-0.4,0.3-0.7,0.5-1.1
		c0,0,0.1,0,0,0.1c-0.2,0.4-0.3,0.9-0.4,1.4c0,0.1,0,0.2-0.1,0.3c0.1,1,0.2,2.1,0.2,3.1c0,0.3,0,0.6,0,0.9c0,0.4,0.1,0.8,0.1,1.2
		c0,0,0,0.1,0,0.1c0,0.1-0.1,0.1-0.1,0.1c-0.1,0.1-0.3,0.1-0.5,0c-0.1,0-0.1,0-0.1-0.1c0-0.1,0-0.2,0.1-0.3c0.1-0.5,0.1-1,0.1-1.6
		c0-0.8-0.1-1.6-0.1-2.4c-0.1-0.2-0.2-0.4-0.3-0.6c-0.4-0.5-0.9-0.9-1.3-1.4c0,0,0-0.1,0-0.1c0.3,0.2,0.6,0.4,0.9,0.7
		c0.2,0.2,0.5,0.4,0.6,0.7c-0.1-0.5-0.1-0.9-0.2-1.4c-0.1-0.5-0.2-1-0.3-1.6c-0.1-0.1-0.1-0.2-0.2-0.2c-0.1-0.1-0.2-0.2-0.3-0.3
		c-0.2-0.2-0.4-0.4-0.6-0.5c-0.2-0.1-0.4-0.2-0.7-0.3c-0.1,0-0.2-0.1-0.3-0.1c-0.1,0-0.2,0-0.4-0.1c0,0,0,0,0-0.1
		c0.2-0.1,0.6-0.1,0.8,0c0.5,0.1,1,0.4,1.4,0.8c-0.2-0.7-0.4-1.4-0.7-2.1c-0.2-0.4-0.3-0.8-0.5-1.2c-0.1-0.1-0.3-0.2-0.5-0.3
		c-0.2-0.1-0.5-0.2-0.7-0.2c-0.2-0.1-0.4-0.2-0.7-0.3c0,0,0-0.1,0-0.1c0.3,0.1,0.6,0.1,0.9,0.2c0.3,0,0.5,0.1,0.8,0.2
		c-0.3-0.6-0.6-1.1-0.9-1.7c-0.1-0.1-0.2-0.3-0.3-0.4c-0.2-0.2-0.4-0.3-0.6-0.4C341.8,391.6,341.3,391.3,340.9,390.9
		C340.9,391,340.9,390.9,340.9,390.9z"/>
	<path class="st5" d="M340.9,390.9c0.5,0.2,1.1,0.5,1.6,0.8c0.1,0.1,0.2,0.1,0.3,0.2l0,0c-0.5-0.8-0.9-1.6-1.2-2.4
		c-0.2-0.4-0.3-0.9-0.4-1.3c-0.1-0.5-0.2-0.9-0.3-1.4c0-0.1,0.1-0.1,0.1,0c0.1,0.4,0.3,0.8,0.4,1.3c0.1,0.4,0.3,0.8,0.4,1.2
		c0.3,0.8,0.7,1.5,1.1,2.2l0.2,0.3c0-0.1,0-0.1,0-0.2c0-0.3,0-0.5,0.1-0.8c0-0.2,0.1-0.5,0.2-0.7c0.1-0.2,0.2-0.5,0.3-0.7
		c0,0,0,0,0,0c0,0.2-0.2,0.4-0.2,0.7c-0.1,0.2-0.1,0.5-0.2,0.7c0,0.2,0,0.5,0,0.7c0,0.2,0.1,0.4,0,0.6c0.3,0.5,0.6,1,0.9,1.5
		c0.1,0.2,0.2,0.5,0.4,0.7l0,0c0.1-0.3,0.2-0.5,0.3-0.8c0.3-0.6,0.6-1.2,0.7-1.8c0,0,0,0,0,0c0,0.6-0.2,1.1-0.4,1.6
		c-0.1,0.3-0.2,0.6-0.3,0.9c0,0.1-0.1,0.3-0.1,0.4c0,0.1,0,0.1,0,0.2l0,0.1c0.1,0.1,0.1,0.2,0.1,0.3c0.1,0.2,0.2,0.4,0.2,0.6
		c0.3,0.7,0.5,1.4,0.7,2.1c0-0.3,0.1-0.5,0.2-0.8c0.1-0.3,0.2-0.5,0.3-0.7c0.1-0.2,0.3-0.5,0.5-0.7c0,0,0,0,0,0.1
		c-0.1,0.2-0.3,0.5-0.4,0.7c-0.1,0.2-0.2,0.5-0.3,0.7c-0.1,0.4-0.2,0.8-0.3,1.3c0.2,0.9,0.4,1.9,0.6,2.9c0.2-0.4,0.3-0.7,0.5-1.1
		c0,0,0.1,0,0,0.1c-0.2,0.4-0.3,0.9-0.4,1.4c0,0.1,0,0.2-0.1,0.3c0.1,1,0.2,2.1,0.2,3.1c0,0.3,0,0.6,0,0.9c0,0.4,0.1,0.8,0.1,1.2
		c0,0,0,0.1,0,0.1c0,0.1-0.1,0.1-0.1,0.1c-0.1,0.1-0.3,0.1-0.5,0c-0.1,0-0.1,0-0.1-0.1c0-0.1,0-0.2,0.1-0.3c0.1-0.5,0.1-1,0.1-1.6
		c0-0.8-0.1-1.6-0.1-2.4c-0.1-0.2-0.2-0.4-0.3-0.6c-0.4-0.5-0.9-0.9-1.3-1.4c0,0,0-0.1,0-0.1c0.3,0.2,0.6,0.4,0.9,0.7
		c0.2,0.2,0.5,0.4,0.6,0.7c-0.1-0.5-0.1-0.9-0.2-1.4c-0.1-0.5-0.2-1-0.3-1.6c-0.1-0.1-0.1-0.2-0.2-0.2c-0.1-0.1-0.2-0.2-0.3-0.3
		c-0.2-0.2-0.4-0.4-0.6-0.5c-0.2-0.1-0.4-0.2-0.7-0.3c-0.1,0-0.2-0.1-0.3-0.1c-0.1,0-0.2,0-0.4-0.1c0,0,0,0,0-0.1
		c0.2-0.1,0.6-0.1,0.8,0c0.5,0.1,1,0.4,1.4,0.8c-0.2-0.7-0.4-1.4-0.7-2.1c-0.2-0.4-0.3-0.8-0.5-1.2c-0.1-0.1-0.3-0.2-0.5-0.3
		c-0.2-0.1-0.5-0.2-0.7-0.2c-0.2-0.1-0.4-0.2-0.7-0.3c0,0,0-0.1,0-0.1c0.3,0.1,0.6,0.1,0.9,0.2c0.3,0,0.5,0.1,0.8,0.2
		c-0.3-0.6-0.6-1.1-0.9-1.7c-0.1-0.1-0.2-0.3-0.3-0.4c-0.2-0.2-0.4-0.3-0.6-0.4C341.8,391.6,341.3,391.3,340.9,390.9
		C340.9,391,340.9,390.9,340.9,390.9z"/>
</g>
<g>
	
		<ellipse id="freepik--shadow--inject-24_00000068667392812484470550000010944806597517356967_" class="st6" cx="303.8" cy="274.2" rx="22" ry="12.7"/>
	<g id="freepik--tree--inject-24_00000046315825149576525380000007085381551989170315_">
		
			<rect x="297.7" y="228.6" transform="matrix(0.4524 -0.8918 0.8918 0.4524 -35.5225 401.2733)" class="st7" width="22.7" height="1.9"/>
		
			<rect x="297.6" y="216.5" transform="matrix(0.8503 -0.5264 0.5264 0.8503 -74.2555 190.9531)" class="st7" width="1.9" height="19"/>
		<path class="st7" d="M305.4,215.5v60.2c0,0.3-0.2,0.5-0.5,0.6c-0.7,0.4-1.5,0.4-2.2,0c-0.3-0.1-0.4-0.4-0.5-0.6v-60.2H305.4z"/>
		<path class="st8" d="M342.3,200.3c0,12.5-10.1,22.7-22.7,22.7c-12.5,0-22.7-10.1-22.7-22.7s10.1-22.7,22.7-22.7c0,0,0,0,0,0
			C332.2,177.7,342.3,187.8,342.3,200.3z"/>
		<path class="st9" d="M342.3,200.3c0,12.5-10.1,22.7-22.7,22.7c-12.5,0-22.7-10.1-22.7-22.7s10.1-22.7,22.7-22.7c0,0,0,0,0,0
			C332.2,177.7,342.3,187.8,342.3,200.3z"/>
		<path class="st10" d="M326.7,194.5c2.9-9.2,6-12.8,4.1-13.9c-10.9-6.2-24.7-2.3-30.9,8.5c-6.2,10.9-2.3,24.7,8.5,30.9
			c9.6,5.4,21.7,3.2,28.7-5.3C330.4,216.7,323,206.4,326.7,194.5z"/>
		<path class="st8" d="M299.9,206.7c0,8.8-7.1,15.9-15.9,15.9s-15.9-7.1-15.9-15.9c0-8.8,7.1-15.9,15.9-15.9
			C292.8,190.8,299.9,197.9,299.9,206.7L299.9,206.7z"/>
		<path class="st11" d="M299.9,206.7c0,8.8-7.1,15.9-15.9,15.9s-15.9-7.1-15.9-15.9c0-8.8,7.1-15.9,15.9-15.9
			C292.8,190.8,299.9,197.9,299.9,206.7L299.9,206.7z"/>
		<path class="st10" d="M284,190.8c-3.3,0-6.6,1-9.3,3c-0.4,9.7,7.8,19.2,5.5,22.4c-2.3,3.2-8,1.3-10-1.5
			c4.4,7.6,14.2,10.2,21.8,5.8c7.6-4.4,10.2-14.2,5.8-21.8C294.9,193.8,289.6,190.8,284,190.8z"/>
		
			<ellipse transform="matrix(0.3827 -0.9239 0.9239 0.3827 12.4442 397.7605)" class="st8" cx="303.9" cy="189.6" rx="29.2" ry="29.2"/>
		<g class="st12">
			<ellipse transform="matrix(0.3827 -0.9239 0.9239 0.3827 12.4442 397.7605)" cx="303.9" cy="189.6" rx="29.2" ry="29.2"/>
		</g>
		<path class="st10" d="M332.3,196.2c-3.7,15.7-19.4,25.5-35.1,21.8c-15.7-3.7-25.5-19.4-21.8-35.1c1.2-5,3.6-9.6,7.1-13.3
			c2-2.2,2.2-2.3,0.2-0.2c-3.7,15.7,6,31.4,21.7,35.1C314.5,207,325.1,203.8,332.3,196.2L332.3,196.2z"/>
	</g>
</g>
<polygon class="st2" points="137.1,371.3 137.1,280 248.7,344.4 248.7,435.7 "/>
<polygon class="st3" points="137.1,371.3 137.1,280 248.7,344.4 248.7,435.7 "/>
<polygon class="st13" points="137.1,280 248.7,344.4 248.7,380.8 137.1,316.4 "/>
<g id="freepik--Window--inject-4">
	<g id="freepik--window--inject-4">
		<g id="freepik--Frame--inject-4">
			<polygon class="st14" points="160.2,319.1 159.6,319.5 159.6,346 160.2,345.6 			"/>
			<polygon class="st15" points="160.2,345.6 160.2,319.8 179.3,330.9 179.3,356.7 			"/>
			<path class="st16" d="M180.5,359.4v-29.1l-22-12.7v29.1L180.5,359.4z M159.6,346v-26.5l19.8,11.4v26.5L159.6,346z"/>
			<polygon class="st17" points="159.6,346 160.2,345.6 179.3,356.7 179.3,357.4 			"/>
			<polygon class="st14" points="170.6,325.9 170,325.5 170,352 170.6,351.7 			"/>
			<polygon class="st14" points="180.5,359.4 181.1,359 181.1,329.9 180.5,330.3 			"/>
			<polygon class="st17" points="181.1,329.9 180.5,330.3 158.4,317.5 159.1,317.2 			"/>
			<polygon class="st17" points="179.3,343 179.3,343.7 159.6,332.2 160.2,331.9 			"/>
		</g>
		<polygon class="st16" points="179.3,345 179.3,343.7 159.6,332.2 159.6,333.5 		"/>
		<polygon class="st16" points="170,353.3 168.9,352.6 168.9,323.6 170,324.2 		"/>
		<polygon class="st14" points="170,338.3 170.6,337.9 170.6,325.9 170,325.5 		"/>
	</g>
</g>
<g id="freepik--window--inject-4_00000123433965572270921490000003430152986003061429_">
	<g id="freepik--window--inject-4_00000137091696386853909270000013723770201078515874_">
		<g id="freepik--frame--inject-4">
			<polygon class="st14" points="206.5,345.9 205.9,346.2 205.9,372.7 206.5,372.4 			"/>
			<polygon class="st15" points="206.5,372.4 206.5,346.6 225.7,357.6 225.7,383.5 			"/>
			<path class="st16" d="M226.8,386.1V357l-22-12.7v29.1L226.8,386.1z M205.9,372.7v-26.5l19.8,11.4v26.5L205.9,372.7z"/>
			<polygon class="st17" points="205.9,372.7 206.5,372.4 225.7,383.5 225.7,384.1 			"/>
			<polygon class="st14" points="216.9,352.6 216.4,352.2 216.4,378.8 216.9,378.4 			"/>
			<polygon class="st14" points="226.8,386.1 227.4,385.8 227.4,356.7 226.8,357 			"/>
			<polygon class="st17" points="227.4,356.7 226.8,357 204.8,344.3 205.4,343.9 			"/>
			<polygon class="st17" points="225.7,369.7 225.7,370.4 205.9,359 206.5,358.6 			"/>
		</g>
		<polygon class="st16" points="225.7,371.7 225.7,370.4 205.9,359 205.9,360.3 		"/>
		<polygon class="st16" points="216.3,380 215.2,379.4 215.2,350.3 216.3,351 		"/>
		<polygon class="st14" points="216.4,365 216.9,364.7 216.9,352.6 216.4,352.2 		"/>
	</g>
</g>
<polygon class="st2" points="354.3,374.8 354.3,283.5 301.5,265.7 248.7,344.4 248.7,435.7 "/>
<polygon class="st18" points="354.3,374.8 354.3,283.5 301.5,265.7 248.7,344.4 248.7,435.7 "/>
<polygon class="st7" points="240,359.6 301.5,265.7 301.5,255.6 231.2,364.7 "/>
<polygon class="st15" points="192.9,192.8 301.5,255.6 231.2,364.7 122.7,302 "/>
<polygon class="st19" points="301.5,255.6 371.9,283.5 263.5,220.8 193.1,192.8 "/>
<polygon class="st7" points="301.5,265.7 363.1,288.6 371.9,283.5 301.5,255.6 "/>
<path class="st17" d="M316.6,396.6L286.3,414l87.9,51.4c12.1-4.1,23.8-9,35.2-14.7L316.6,396.6z"/>
<g id="freepik--Door--inject-4">
	<polygon class="st2" points="315.1,328.2 315.1,396.3 287.9,412.1 287.9,343.9 	"/>
	<polygon class="st2" points="313,395.1 313,329.4 287.9,343.9 287.9,409.6 	"/>
	<polygon class="st3" points="313,395.1 313,329.4 287.9,343.9 287.9,409.6 	"/>
	<polygon class="st19" points="313,395.1 316.1,396.9 287.9,413.1 287.9,409.6 	"/>
	<polygon class="st15" points="308.3,337.7 291.5,347.5 291.5,375.6 308.3,365.9 	"/>
	<polygon class="st2" points="298.9,371.4 300,372 291.5,376.9 291.5,375.6 	"/>
	<polygon class="st20" points="298.9,371.4 300,372 291.5,376.9 291.5,375.6 	"/>
	<polygon class="st2" points="308.3,365.9 308.3,337.7 309.4,337.1 309.4,366.5 	"/>
	<polygon class="st2" points="308.3,365.9 309.4,366.5 301,371.4 301,370.1 	"/>
	<polygon class="st20" points="308.3,365.9 309.4,366.5 301,371.4 301,370.1 	"/>
	<polygon class="st2" points="300,372 301,371.4 301,342 300,342.6 	"/>
	<polygon class="st3" points="300,372 301,371.4 301,342 300,342.6 	"/>
	<polygon class="st2" points="300,372 298.9,371.4 298.9,343.2 300,342.6 	"/>
	<polygon class="st2" points="299.9,356.7 298.9,356.1 291.5,360.4 291.5,361.6 	"/>
	<polygon class="st20" points="299.9,356.7 298.9,356.1 291.5,360.4 291.5,361.6 	"/>
	<polygon class="st2" points="299.9,356.7 299.9,357.9 291.5,362.8 291.5,361.6 	"/>
	<polygon class="st3" points="299.9,356.7 299.9,357.9 291.5,362.8 291.5,361.6 	"/>
	<polygon class="st2" points="309.4,351.3 308.3,350.7 301,354.9 301,356.1 	"/>
	<polygon class="st20" points="309.4,351.3 308.3,350.7 301,354.9 301,356.1 	"/>
	<polygon class="st2" points="309.4,351.3 309.4,352.5 301,357.3 301,356.1 	"/>
	<polygon class="st3" points="309.4,351.3 309.4,352.5 301,357.3 301,356.1 	"/>
	<polygon class="st21" points="313,329.4 313,331.6 287.9,346.1 287.9,343.9 	"/>
	<polygon class="st14" points="315.1,396.3 316.1,396.9 316.1,327.6 315.1,328.2 	"/>
	<polygon class="st16" points="316.1,396.9 319.7,394.8 319.7,321.3 284.2,341.8 284.2,415.2 287.9,413.1 287.9,343.9 316.1,327.6 	
		"/>
	<polygon class="st17" points="319.7,321.3 284.2,341.8 283.3,341.3 318.8,320.8 	"/>
	<polygon class="st14" points="284.2,415.2 284.2,341.8 283.3,341.3 283.3,414.7 	"/>
</g>
<g id="freepik--window--inject-4_00000142859914710287603850000017262756489055021712_">
	<g id="freepik--window--inject-4_00000021080263389842763900000017974019553249022638_">
		<g id="freepik--frame--inject-4_00000040543122499428672050000003530347690994083987_">
			<polygon class="st14" points="275.9,354.6 276.5,354.9 276.5,381.4 275.9,381.1 			"/>
			<polygon class="st15" points="275.9,381.1 275.9,355.3 256.8,366.3 256.8,392.1 			"/>
			<path class="st16" d="M277.7,382.1V353l-22,12.7v29.1L277.7,382.1z M256.8,392.8v-26.5l19.8-11.4v26.5L256.8,392.8z"/>
			<polygon class="st17" points="276.5,381.4 275.9,381.1 256.8,392.1 256.8,392.8 			"/>
			<polygon class="st14" points="265.5,361.3 266.1,360.9 266.1,387.4 265.5,387.1 			"/>
			<polygon class="st14" points="255.6,394.8 255,394.4 255,365.3 255.6,365.7 			"/>
			<polygon class="st17" points="255,365.3 255.6,365.7 277.7,353 277.1,352.6 			"/>
			<polygon class="st17" points="256.8,378.4 256.8,379.1 276.5,367.7 275.9,367.3 			"/>
		</g>
		<polygon class="st16" points="256.8,380.4 256.8,379.1 276.5,367.7 276.5,369 		"/>
		<polygon class="st16" points="266.1,388.7 267.2,388.1 267.2,359 266.1,359.6 		"/>
		<polygon class="st14" points="266.1,373.7 265.5,373.4 265.5,361.3 266.1,360.9 		"/>
	</g>
</g>
<path class="st17" d="M309.7,285.7c2,1.1,3.2,3.6,3.2,7c0,6.9-4.8,15.3-10.8,18.8c-3,1.7-5.7,1.9-7.7,0.8l-1.1-0.7
	c-2-1.1-3.2-3.6-3.2-7c0-6.9,4.9-15.3,10.8-18.8c3-1.7,5.7-1.9,7.6-0.8L309.7,285.7z"/>
<path class="st16" d="M302.1,311.4c-3,1.7-5.7,1.9-7.7,0.8s-3.2-3.6-3.2-7c0-6.9,4.9-15.3,10.8-18.8c3-1.7,5.7-1.9,7.6-0.8
	s3.2,3.6,3.2,7C312.9,299.6,308.1,308,302.1,311.4z"/>
<path class="st17" d="M297.2,311.7c-0.8,0-1.5-0.2-2.2-0.5c-1.6-1-2.6-3.1-2.6-6c0-6.5,4.6-14.4,10.2-17.7c1.3-0.8,2.7-1.2,4.2-1.3
	c0.8,0,1.5,0.2,2.2,0.6c1.7,1,2.6,3.1,2.6,6c0,6.5-4.6,14.4-10.2,17.7C300.2,311.2,298.8,311.6,297.2,311.7z"/>
<path class="st15" d="M300.6,309.8c5.6-3.2,10.2-11.2,10.2-17.7c0-2.6-0.7-4.5-2-5.6c-0.6-0.3-1.2-0.4-1.8-0.4
	c-1.5,0.1-3,0.5-4.2,1.3c-5.6,3.2-10.2,11.2-10.2,17.7c0,2.6,0.7,4.5,2,5.6c0.6,0.3,1.2,0.4,1.8,0.4
	C297.9,311.1,299.3,310.6,300.6,309.8z"/>
<polygon class="st14" points="300.8,288.8 301.5,288.2 301.5,310.4 300.8,309.9 "/>
<path class="st17" d="M292.6,303.2c0,0.3-0.1,0.6-0.1,0.9l19-11l-0.8-0.5L292.6,303.2z"/>
<path class="st16" d="M292.5,305.9c0-0.6,0-1.2,0-1.7l19.2-11c0,0.6-0.1,1.2-0.1,1.8L292.5,305.9z"/>
<polygon class="st16" points="301.5,311.5 303,310.7 303,286.9 301.5,287.8 "/>
<path class="st14" d="M301.5,299l-0.8-0.4v-9.7c0.3-0.2,0.5-0.4,0.8-0.6V299z"/>
<g id="freepik--Fence--inject-4">
	<polygon id="freepik--Shadow--inject-4" class="st17" points="122.5,394.1 207.8,443.3 211.9,440.9 126.6,391.6 	"/>
	<g id="freepik--fence--inject-4">
		<polygon class="st19" points="205.4,439 205.4,407.7 203.1,402.9 200.7,405 200.7,436.3 		"/>
		<polygon class="st7" points="205.4,407.7 206.6,407 206.6,438.3 205.4,439 		"/>
		<polygon class="st15" points="203.1,402.9 204.2,402.2 206.6,407 205.4,407.7 		"/>
		<polygon class="st19" points="188.1,429 188.1,397.7 185.8,393 183.4,395 183.4,426.3 		"/>
		<polygon class="st7" points="188.1,397.7 189.2,397.1 189.2,428.4 188.1,429 		"/>
		<polygon class="st15" points="185.8,393 186.9,392.2 189.2,397.1 188.1,397.7 		"/>
		<polygon class="st19" points="170.8,419.1 170.8,387.8 168.4,383 166.1,385.1 166.1,416.4 		"/>
		<polygon class="st7" points="170.8,387.8 171.9,387.1 171.9,418.4 170.8,419.1 		"/>
		<polygon class="st15" points="168.4,383 169.6,382.3 171.9,387.1 170.8,387.8 		"/>
		<polygon class="st19" points="153.4,409.1 153.4,377.8 151.1,373 148.7,375.1 148.7,406.4 		"/>
		<polygon class="st7" points="153.4,377.8 154.6,377.1 154.6,408.4 153.4,409.1 		"/>
		<polygon class="st15" points="151.1,373 152.3,372.3 154.6,377.1 153.4,377.8 		"/>
		<polygon class="st19" points="136.1,399.1 136.1,367.9 133.8,363.1 131.4,365.2 131.4,396.5 		"/>
		<polygon class="st7" points="136.1,367.9 137.3,367.2 137.3,398.5 136.1,399.1 		"/>
		<polygon class="st15" points="133.8,363.1 135,362.4 137.3,367.2 136.1,367.9 		"/>
		<polygon class="st7" points="131.4,377.7 136.1,380.4 136.1,378.6 131.4,375.9 		"/>
		<polygon class="st7" points="153.4,388.5 148.7,385.8 148.7,387.7 153.4,390.4 		"/>
		<polygon class="st7" points="188.1,408.4 183.4,405.8 183.4,407.6 188.1,410.3 		"/>
		<polygon class="st7" points="170.8,398.5 166.1,395.8 166.1,397.6 170.8,400.3 		"/>
		<polygon class="st7" points="205.4,418.4 200.7,415.7 200.7,417.5 205.4,420.2 		"/>
		<polygon class="st7" points="131.4,389.6 136.1,392.3 136.1,390.5 131.4,387.8 		"/>
		<polygon class="st7" points="153.4,400.4 148.7,397.7 148.7,399.6 153.4,402.3 		"/>
		<polygon class="st7" points="188.1,420.3 183.4,417.6 183.4,419.5 188.1,422.2 		"/>
		<polygon class="st7" points="170.8,410.4 166.1,407.7 166.1,409.5 170.8,412.2 		"/>
		<polygon class="st7" points="205.4,430.3 200.7,427.6 200.7,429.4 205.4,432.1 		"/>
		<polygon class="st19" points="210.7,432 126.4,383.6 126.4,385.5 210.7,433.9 		"/>
		<polygon class="st7" points="210.7,432 211.9,431.4 211.9,433.2 210.7,433.9 		"/>
		<polygon class="st15" points="126.4,383.6 210.7,432 211.9,431.4 127.7,382.9 		"/>
		<polygon class="st19" points="210.7,420.2 126.4,371.8 126.4,373.7 210.7,422.1 		"/>
		<polygon class="st7" points="210.7,420.2 211.9,419.5 211.9,421.4 210.7,422.1 		"/>
		<polygon class="st15" points="126.4,371.8 210.7,420.2 211.9,419.5 127.7,371.1 		"/>
	</g>
</g>
<g>
	
		<ellipse id="freepik--shadow--inject-24_00000072962792473682704430000010927710893616218004_" class="st6" cx="111.7" cy="414.2" rx="22" ry="12.7"/>
	<g id="freepik--tree--inject-24">
		
			<rect x="105.6" y="368.6" transform="matrix(0.4524 -0.8918 0.8918 0.4524 -265.4889 306.6048)" class="st7" width="22.7" height="1.9"/>
		
			<rect x="105.5" y="356.4" transform="matrix(0.8503 -0.5264 0.5264 0.8503 -176.6728 110.806)" class="st7" width="1.9" height="19"/>
		<path class="st7" d="M113.3,355.4v60.2c0,0.3-0.2,0.5-0.5,0.6c-0.7,0.4-1.5,0.4-2.2,0c-0.3-0.1-0.4-0.4-0.5-0.6v-60.2H113.3z"/>
		<path class="st8" d="M150.2,340.3c0,12.5-10.1,22.7-22.7,22.7c-12.5,0-22.7-10.1-22.7-22.7c0-12.5,10.1-22.7,22.7-22.7
			c0,0,0,0,0,0C140.1,317.6,150.2,327.7,150.2,340.3z"/>
		<path class="st9" d="M150.2,340.3c0,12.5-10.1,22.7-22.7,22.7c-12.5,0-22.7-10.1-22.7-22.7c0-12.5,10.1-22.7,22.7-22.7
			c0,0,0,0,0,0C140.1,317.6,150.2,327.7,150.2,340.3z"/>
		<path class="st10" d="M134.7,334.5c2.9-9.2,6-12.8,4.1-13.9c-10.9-6.2-24.7-2.3-30.9,8.5c-6.2,10.9-2.3,24.7,8.5,30.9
			c9.6,5.4,21.7,3.2,28.7-5.3C138.3,356.6,130.9,346.4,134.7,334.5z"/>
		<path class="st8" d="M107.8,346.7c0,8.8-7.1,15.9-15.9,15.9S76,355.5,76,346.7c0-8.8,7.1-15.9,15.9-15.9S107.8,337.9,107.8,346.7
			L107.8,346.7z"/>
		<path class="st11" d="M107.8,346.7c0,8.8-7.1,15.9-15.9,15.9S76,355.5,76,346.7c0-8.8,7.1-15.9,15.9-15.9S107.8,337.9,107.8,346.7
			L107.8,346.7z"/>
		<path class="st10" d="M91.9,330.7c-3.3,0-6.6,1-9.3,3c-0.4,9.7,7.8,19.2,5.5,22.4s-8,1.3-10-1.5c4.4,7.6,14.2,10.2,21.8,5.8
			c7.6-4.4,10.2-14.2,5.8-21.8C102.8,333.8,97.6,330.7,91.9,330.7z"/>
		
			<ellipse transform="matrix(0.3827 -0.9239 0.9239 0.3827 -235.409 306.6905)" class="st8" cx="111.8" cy="329.5" rx="29.2" ry="29.2"/>
		<g class="st12">
			<ellipse transform="matrix(0.3827 -0.9239 0.9239 0.3827 -235.409 306.6905)" cx="111.8" cy="329.5" rx="29.2" ry="29.2"/>
		</g>
		<path class="st10" d="M140.2,336.2c-3.7,15.7-19.4,25.5-35.1,21.8s-25.5-19.4-21.8-35.1c1.2-5,3.6-9.6,7.1-13.3
			c2-2.2,2.2-2.3,0.2-0.2c-3.7,15.7,6,31.4,21.7,35.1C122.4,347,133.1,343.8,140.2,336.2L140.2,336.2z"/>
	</g>
</g>
<g id="freepik--Clouds--inject-24">
	<path id="freepik--Cloud--inject-24" class="st14" d="M413.2,76.3c0-4.3-4.8-7.4-10.2-7.9c-6.4-0.6-10.9,2.2-11,7.2
		c-4.2-1.7-8.6-0.6-8.2,4c-1.1-1.2-5.1-1.2-6.6-0.9c-1.6,0.4-2.9,1.6-3.7,3.1c-0.3,0.7-0.5,1.5-0.4,2.3c-2.4-0.8-8-1.3-9.3,1
		c-2.5,4,7.4,4.1,9.3,2.9c0.4,3.1,11,3.6,13.5,0.7c2,2,4.9,2.5,8,2.6c5.2,0.3,8.4-1.5,12.5-3.5c4.4,3.8,12.1,3.8,16.1-0.5
		c1,1,3.8,1.3,6.1,0.7c1.5-0.3,1.8-1,1.8-1c0.9,0.4,1.8,0.6,2.7,0.8c2.9,0.6,8.3,0,6-2.6c-0.8-0.9-3.6-1.5-4.8-1.2
		c-1.3-2.5-6.3-4.8-9.2-2.7c-0.1-3-2.9-5.4-6.7-5.9C417.7,75.2,414.6,75,413.2,76.3z"/>
	<path id="freepik--cloud--inject-24" class="st0" d="M84.2,147.3c0-5-5.4-8.4-11.6-9c-7.3-0.7-12.4,2.6-12.6,8.3
		c-4.8-1.9-9.8-0.7-9.4,4.5c-1.2-1.4-5.9-1.4-7.5-1c-1.8,0.5-3.3,1.8-4.1,3.5c-0.4,0.8-0.5,1.8-0.4,2.7c-2.8-0.9-9.1-1.5-10.6,1.1
		c-2.8,4.5,8.4,4.7,10.7,3.3c0.5,3.5,12.5,4.1,15.4,0.9c2.3,2.3,5.5,2.8,9.1,3c6,0.4,9.6-1.7,14.3-4c5,4.3,13.8,4.4,18.3-0.5
		c1.2,1.1,4.4,1.4,6.9,0.8c1.7-0.4,2.1-1.1,2.1-1.1c1,0.4,2,0.7,3.1,0.9c3.3,0.7,9.4,0,6.9-3c-0.9-1-4.1-1.7-5.4-1.4
		c-1.4-2.8-7.2-5.5-10.6-3.1c-0.1-3.4-3.3-6.1-7.7-6.8C89.5,146.1,85.9,145.9,84.2,147.3z"/>
	<path id="freepik--cloud--inject-24_00000044879428017390118320000015991517676238057869_" class="st0" d="M315.3,100.7
		c0-5.1-5.6-8.6-11.9-9.2c-7.4-0.7-12.7,2.6-12.9,8.5c-4.9-2-10-0.7-9.6,4.6c-1.3-1.5-6-1.4-7.7-1c-1.9,0.5-3.4,1.8-4.3,3.6
		c-0.4,0.8-0.6,1.8-0.4,2.7c-2.8-0.9-9.3-1.5-10.9,1.1c-2.9,4.6,8.6,4.8,10.9,3.4c0.5,3.6,12.8,4.2,15.8,0.9
		c2.3,2.3,5.7,2.9,9.3,3.1c6.1,0.4,9.8-1.7,14.6-4.1c5.2,4.4,14.1,4.5,18.8-0.6c1.2,1.1,4.5,1.5,7.1,0.8c1.7-0.4,2.1-1.2,2.1-1.2
		c1,0.5,2.1,0.8,3.2,1c3.4,0.7,9.7,0,7-3.1c-0.9-1-4.2-1.7-5.6-1.4c-1.5-2.9-7.4-5.6-10.8-3.2c-0.1-3.5-3.3-6.3-7.9-7
		C320.7,99.5,317,99.3,315.3,100.7z"/>
</g>
<g id="freepik--window--inject-4_00000113350243031649991400000000330601924928737938_">
	<g id="freepik--window--inject-4_00000140700593943103465870000003932469817316983961_">
		<g id="freepik--frame--inject-4_00000081647011063802993030000000618794525063747985_">
			<polygon class="st14" points="346.3,314 346.9,314.3 346.9,340.8 346.3,340.5 			"/>
			<polygon class="st15" points="346.3,340.5 346.3,314.7 327.1,325.7 327.1,351.6 			"/>
			<path class="st16" d="M348,341.5v-29.1l-22,12.7v29.1L348,341.5z M327.1,352.2v-26.5l19.8-11.4v26.5L327.1,352.2z"/>
			<polygon class="st17" points="346.9,340.8 346.3,340.5 327.1,351.6 327.1,352.2 			"/>
			<polygon class="st14" points="335.8,320.7 336.4,320.3 336.4,346.8 335.8,346.5 			"/>
			<polygon class="st14" points="326,354.2 325.4,353.8 325.4,324.8 326,325.1 			"/>
			<polygon class="st17" points="325.4,324.8 326,325.1 348,312.4 347.4,312 			"/>
			<polygon class="st17" points="327.1,337.8 327.1,338.5 346.9,327.1 346.3,326.7 			"/>
		</g>
		<polygon class="st16" points="327.1,339.8 327.1,338.5 346.9,327.1 346.9,328.4 		"/>
		<polygon class="st16" points="336.4,348.1 337.5,347.5 337.5,318.4 336.4,319 		"/>
		<polygon class="st14" points="336.4,333.1 335.8,332.8 335.8,320.7 336.4,320.3 		"/>
	</g>
</g>
<polygon class="st13" points="227.4,376.1 227.4,377.2 229.3,374.9 229.5,373.7 "/>
<g id="freepik--speech-bubble--inject-4_00000129173657777217380090000002908333726915048344_">
	<g id="freepik--speech-bubble--inject-4_00000083060551909074363150000011263748498095992230_">
		<g id="freepik--speech-bubble--inject-4">
			<path class="st7" d="M343.6,404.8l1.2-2.2l-0.9-2.7v-1.7l2.9,1.7v1.7l-1.2,2.2c0,0,0,0.1-0.1,0.1l0,0L343.6,404.8z"/>
			<path class="st19" d="M335.7,384.4c0-0.6,0.4-1.2,0.9-1.5l0.7-0.4c0.5-0.3,1.2-0.3,1.7,0l13.7,7.9c0.5,0.3,0.8,0.9,0.9,1.5v11.9
				c0,0.6-0.4,1.2-0.9,1.5l-0.7,0.4c-0.5,0.3-1.2,0.3-1.7,0l-5.3-3.1l-1.2,2.2c-0.1,0.1-0.2,0.1-0.3,0.1c0,0-0.1-0.1-0.1-0.1
				l-1.3-3.8l-5.4-3.1c-0.5-0.3-0.8-0.9-0.9-1.5V384.4z"/>
			<path class="st7" d="M353.5,403.8c0,0.6-0.4,1.2-0.9,1.5l-0.7,0.4c-0.5,0.2-1.1,0.3-1.6,0.1c0.4,0.2,0.7-0.1,0.7-0.6v-11.9
				c0-0.3-0.1-0.6-0.3-0.9l2.4-1.4c0.2,0.3,0.2,0.6,0.3,0.9V403.8z"/>
			<path class="st15" d="M335.7,384.2c0.1-0.4,0.4-0.5,0.8-0.3l13.7,7.9c0.3,0.2,0.5,0.4,0.6,0.6l2.4-1.4c-0.1-0.3-0.4-0.5-0.6-0.6
				l-13.7-7.9c-0.5-0.3-1.2-0.3-1.7,0l-0.7,0.4C336.1,383.2,335.8,383.6,335.7,384.2z"/>
		</g>
		<path class="st22" d="M348.7,393.8l-10-5.8c-0.2-0.1-0.4,0-0.4,0.2v6.9c0,0.3,0.1,0.5,0.4,0.6l10,5.8c0.2,0.1,0.4,0,0.4-0.2v-6.9
			C349,394.2,348.9,393.9,348.7,393.8z"/>
		<path class="st15" d="M347.6,400.3C347.6,400.3,347.6,400.3,347.6,400.3l-8.2-4.7c-0.1,0-0.1-0.1-0.1-0.1c0-0.3-0.2-0.6-0.4-0.7
			c-0.1,0-0.1-0.1-0.1-0.1v-4.8c0-0.1,0-0.1,0.1-0.1c0.1,0,0.1,0,0.2,0c0.2,0.1,0.4,0,0.5-0.1c0,0,0-0.1,0-0.2c0-0.1,0-0.1,0.1-0.1
			c0.1,0,0.1,0,0.2,0l8.2,4.7c0.1,0,0.1,0.1,0.1,0.1c0,0.3,0.2,0.6,0.4,0.7c0,0,0.1,0.1,0.1,0.1v4.8c0,0.1-0.1,0.2-0.2,0.2
			c0,0-0.1,0-0.1,0c-0.2-0.1-0.4,0-0.4,0.1c0,0.1,0,0.1,0,0.2C347.8,400.2,347.8,400.3,347.6,400.3
			C347.7,400.3,347.7,400.3,347.6,400.3z M339.6,395.3l7.9,4.6c0.1-0.1,0.2-0.2,0.3-0.3c0.1-0.1,0.3-0.1,0.4-0.1V395
			c-0.3-0.2-0.5-0.5-0.5-0.8l-7.9-4.5c-0.1,0.3-0.4,0.4-0.7,0.4v4.5C339.4,394.7,339.6,395,339.6,395.3z"/>
		<path class="st15" d="M344.4,396.8c-0.3,0-0.5-0.1-0.7-0.2c-0.9-0.6-1.5-1.6-1.6-2.7c0-0.5,0.2-0.9,0.5-1.1
			c0.3-0.2,0.8-0.2,1.2,0.1c0.9,0.6,1.5,1.6,1.6,2.7c0,0.5-0.2,0.9-0.5,1.1C344.7,396.8,344.5,396.8,344.4,396.8z M343,393
			c-0.1,0-0.2,0-0.3,0.1c-0.2,0.1-0.3,0.4-0.3,0.8c0.1,1,0.6,1.9,1.4,2.4c0.3,0.2,0.7,0.2,0.9,0.1c0.2-0.1,0.3-0.4,0.3-0.8
			c-0.1-1-0.6-1.9-1.4-2.4C343.4,393.1,343.2,393,343,393L343,393z"/>
	</g>
</g>
<g id="freepik--Coin--inject-4">
	<g id="freepik--coin--inject-4">
		<path class="st22" d="M286.6,379.2c-0.8-0.4-1.8-0.4-3,0.1c-2.7,1.3-5.1,5.2-5.4,8.7c-0.1,2,0.4,3.4,1.5,4
			c0.3,0.2,1.3,0.7,1.5,0.9c0.8,0.5,1.8,0.5,3-0.1c2.7-1.3,5.2-5.2,5.4-8.7c0.2-2-0.4-3.4-1.5-4
			C287.8,379.9,286.8,379.3,286.6,379.2z"/>
		<path class="st23" d="M286.6,379.2c-0.8-0.4-1.8-0.4-3,0.1c-2.7,1.3-5.1,5.2-5.4,8.7c-0.1,2,0.4,3.4,1.5,4
			c0.3,0.2,1.3,0.7,1.5,0.9c0.8,0.5,1.8,0.5,3-0.1c2.7-1.3,5.2-5.2,5.4-8.7c0.2-2-0.4-3.4-1.5-4
			C287.8,379.9,286.8,379.3,286.6,379.2z"/>
		<path class="st10" d="M289.2,386.2l-8.2-4.7c-1.5,1.8-2.6,4.2-2.8,6.5c-0.1,2,0.4,3.4,1.5,4c0.3,0.2,1.3,0.7,1.5,0.9
			c0.8,0.5,1.8,0.5,3-0.1C286.4,391.7,288.3,389.1,289.2,386.2z"/>
		<path class="st10" d="M278.7,385.7c-0.2,0.7-0.4,1.5-0.4,2.3c-0.1,2,0.4,3.4,1.5,4c0.3,0.2,1.3,0.7,1.5,0.9c0.8,0.5,1.8,0.5,3-0.1
			c1.1-0.6,2-1.3,2.8-2.3L278.7,385.7z"/>
		<path class="st22" d="M285.1,380.2c-2.7,1.3-5.2,5.2-5.4,8.7c-0.3,3.5,1.7,5.3,4.5,3.9c2.7-1.3,5.2-5.2,5.4-8.7
			S287.9,378.8,285.1,380.2z"/>
		<path class="st24" d="M285.1,380.2c-2.7,1.3-5.2,5.2-5.4,8.7c-0.3,3.5,1.7,5.3,4.5,3.9c2.7-1.3,5.2-5.2,5.4-8.7
			S287.9,378.8,285.1,380.2z"/>
		<path class="st22" d="M287.8,384.9c-0.2,1.2-0.6,2.3-1.2,3.3c-0.7,1.1-1.5,1.9-2.3,2.4c-0.9,0.5-1.7,0.5-2.2,0s-0.8-1.4-0.6-2.5
			c0.2-1.2,0.6-2.3,1.2-3.3c0.7-1.1,1.5-1.9,2.3-2.4c0.9-0.5,1.6-0.5,2.2,0C287.7,382.9,288,383.8,287.8,384.9z"/>
		<path class="st25" d="M287.8,384.9c-0.2,1.2-0.6,2.3-1.2,3.3c-0.7,1.1-1.5,1.9-2.3,2.4c-0.9,0.5-1.7,0.5-2.2,0s-0.8-1.4-0.6-2.5
			c0.2-1.2,0.6-2.3,1.2-3.3c0.7-1.1,1.5-1.9,2.3-2.4c0.9-0.5,1.6-0.5,2.2,0C287.7,382.9,288,383.8,287.8,384.9z"/>
		<path class="st22" d="M288.3,380.6c-0.8-0.7-1.8-0.7-3.1-0.1c-1.3,0.6-2.5,1.8-3.5,3.4c-1,1.5-1.6,3.2-1.7,5
			c-0.1,1.6,0.2,2.8,1,3.5s1.8,0.7,3.1,0.1c1.3-0.6,2.5-1.8,3.5-3.4c1-1.5,1.6-3.2,1.7-5C289.4,382.5,289.1,381.3,288.3,380.6z
			 M287.2,382.4c0.5,0.5,0.8,1.4,0.6,2.5c-0.2,1.2-0.6,2.3-1.2,3.3c-0.7,1.1-1.5,1.9-2.3,2.4c-0.9,0.5-1.7,0.5-2.2,0
			s-0.8-1.4-0.6-2.5c0.2-1.2,0.6-2.3,1.2-3.3c0.7-1.1,1.5-1.9,2.3-2.4C285.9,381.9,286.6,381.9,287.2,382.4z"/>
		<path class="st24" d="M285.1,382.6c1.6-0.9,2.8,0.1,2.5,2.2c-0.3,2.1-1.8,4.6-3.4,5.5c-1.6,0.9-2.8-0.1-2.5-2.2
			C282,386,283.5,383.5,285.1,382.6z"/>
		<path class="st22" d="M285.1,382.6c1.6-0.9,2.8,0.1,2.5,2.2c-0.3,2.1-1.8,4.6-3.4,5.5c-1.6,0.9-2.8-0.1-2.5-2.2
			C282,386,283.5,383.5,285.1,382.6z"/>
		<path class="st26" d="M285.1,382.6c1.6-0.9,2.8,0.1,2.5,2.2c-0.3,2.1-1.8,4.6-3.4,5.5c-1.6,0.9-2.8-0.1-2.5-2.2
			C282,386,283.5,383.5,285.1,382.6z"/>
		<path class="st22" d="M287.1,384.4c-0.3,2.1-1.8,4.6-3.4,5.5c-0.7,0.4-1.3,0.4-1.7,0.2c-0.3-0.4-0.4-1.1-0.3-2
			c0.3-2.1,1.8-4.6,3.4-5.5c0.7-0.4,1.3-0.4,1.7-0.2C287.1,382.9,287.2,383.6,287.1,384.4z"/>
		<path class="st5" d="M287.1,384.4c-0.3,2.1-1.8,4.6-3.4,5.5c-0.7,0.4-1.3,0.4-1.7,0.2c-0.3-0.4-0.4-1.1-0.3-2
			c0.3-2.1,1.8-4.6,3.4-5.5c0.7-0.4,1.3-0.4,1.7-0.2C287.1,382.9,287.2,383.6,287.1,384.4z"/>
		<path class="st0" d="M284,392.4c1.9-0.9,3.6-3.3,3.6-3.3c-1,1.6-2.3,2.8-3.5,3.4c-1.2,0.6-2.3,0.5-3.1-0.1
			C281,392.4,282.1,393.2,284,392.4z"/>
		<path class="st0" d="M281.2,384.2c1-1.8,2.4-3.3,3.9-4c1.6-0.8,2.9-0.5,3.7,0.5c0,0-1.3-1.6-3.7-0.4S281.2,384.2,281.2,384.2z"/>
	</g>
</g>
<g>
	<path class="st27" d="M309.1,392.8c1.9-0.1,2.9,0.5,3.7,1.5s4.8,8.1,4.8,8.1s8.2,0.2,9.7,0.7s2.4,1.4,2.7,1.9
		c0.3,0.5,0.4,1.2,0.2,2.1c-0.2,0.9-1.4,0.7-2,0c-0.6-0.6-1.3-1.2-2-1.6c-0.7-0.4-7.2,0.1-9,0.1c-1.8,0-2.1-0.7-3.2-2.2
		c-1.1-1.5-3.5-5-3.5-5L309.1,392.8z"/>
	<g>
		<g>
			
				<ellipse id="freepik--shadow--inject-34_00000042709508083889307050000005885709006009019265_" class="st17" cx="306.3" cy="456.5" rx="16.1" ry="9.3"/>
			<g id="freepik--character-3--inject-34_00000104705152519887311650000015399768418424297904_">
				<g id="freepik--character--inject-34_00000170236905456030815800000012076139125584750744_">
					<g id="freepik--bottom--inject-34_00000081622344073842340530000000240556010898640800_">
						<path class="st27" d="M295.7,452.3c0,0.6-0.2,5-0.1,6.3c0.2,1.9,2.7,1.8,2.9,0.7c0.2-1.1,1-6.4,0.9-6.7c0.5-2.6,1.2-5,2.3-9.2
							l-6.3,0.1C295.5,447.2,295.6,450.2,295.7,452.3z"/>
						<path class="st27" d="M307.6,440.6c0.7,3.8,1.6,8.5,1.6,9c0,0,0.2,0.6,0.2,0.8c0,1.2,1.7,1.3,2.8,2.1c0.9,0.7,1.9,1.4,2.9,1.9
							c0.8,0.4,2.4,0.5,2.6,0c-1.3-1-2.8-1.9-3.8-3.1c-0.5-0.5-0.6-1.1-0.5-2.4c0.1-2,0.5-5.2,0.7-8.4L307.6,440.6z"/>
						<path class="st7" d="M308.8,452.7c0,0,0,0.9,0.2,1.1c0.2,0.2,1.1,0.6,1.8,0.7c0.7,0.2,1.6,0.9,2.3,1.5
							c0.6,0.5,1.5,1.1,3.2,1.3c1.6,0.2,2.9-0.3,3.3-0.7c0.4-0.3,0.3-1,0.2-1L308.8,452.7z"/>
						<path class="st19" d="M309.3,449.6c0.2,0.1,0.4,0.2,0.6,0.3c0.5,0.3,0.5,0.9,0.8,1.3c0.2-0.3,0-0.7,0.2-1.1
							c0.1-0.1,0.2-0.2,0.3-0.3c0.6-0.4,1.4-0.5,2.1-0.5c0.1,0,0.3,0,0.4,0.1c0.2,0.1,0.3,0.2,0.3,0.4c0.1,0.2,0.1,0.4,0.1,0.6
							c0.2,0.7,0.7,1.2,1.3,1.6c0.9,0.7,1.8,1.3,2.7,1.9c0.4,0.2,0.8,0.5,1.1,0.8c0.3,0.3,0.4,0.7,0.4,1c0,0.4-0.4,0.6-0.7,0.8
							c-0.7,0.4-1.6,0.4-2.4,0.4c-1.1,0-2.7-0.7-3.4-1.3c-0.7-0.6-1.5-1.1-2.3-1.5c-0.7-0.3-1.9-0.7-2.1-1.1
							c-0.1-0.6,0.1-1.5,0.2-2.1c0.1-0.5-0.1-1.2,0-1.5c0-0.1,0.1-0.1,0.1-0.1C309.2,449.4,309.2,449.6,309.3,449.6z"/>
						<path class="st16" d="M319.8,456.1c-0.3,0.6-1.5,1-3.1,0.9c-0.6,0-1.1-0.2-1.7-0.4c0.1-0.9,0.9-2.5,3.3-2.6
							C319.5,454.5,320.1,455.4,319.8,456.1z"/>
						<path class="st28" d="M315.2,454c0.5-0.5,1.2-0.7,1.9-0.7c0,0,0,0,0,0c0.1,0,0.1,0,0.1-0.1c0,0,0,0,0,0c0-0.1,0-0.1-0.1-0.1
							c-0.8-0.1-1.6,0.2-2.2,0.8c0,0,0,0,0,0c0,0,0,0.1,0,0.2C315,454,315.1,454,315.2,454C315.1,454,315.1,454,315.2,454z"/>
						<path class="st28" d="M314.2,453.3c0.5-0.5,1.2-0.7,1.9-0.7c0,0,0,0,0,0c0.1,0,0.1,0,0.1-0.1c0-0.1,0-0.1-0.1-0.1
							c-0.8-0.1-1.6,0.2-2.2,0.8c0,0,0,0,0,0c0,0,0,0.1,0,0.2C314,453.3,314,453.3,314.2,453.3C314.1,453.3,314.1,453.3,314.2,453.3
							z"/>
						<path class="st28" d="M313.3,452.6c0.5-0.5,1.2-0.7,1.9-0.7l0,0c0.1,0,0.1,0,0.1-0.1c0-0.1,0-0.1-0.1-0.1
							c-0.8-0.1-1.6,0.2-2.2,0.8c0,0,0,0,0,0c0,0,0,0.1,0,0.2C313.2,452.7,313.2,452.7,313.3,452.6
							C313.3,452.7,313.3,452.7,313.3,452.6z"/>
						<path class="st28" d="M312.4,452c0.4-0.5,1.4-0.8,2.1-0.7c0,0,0,0,0,0c0.1,0,0.1,0,0.1-0.1c0-0.1,0-0.1-0.1-0.1
							c-0.9-0.1-1.9,0.2-2.4,0.8c0,0,0,0,0,0c0,0,0,0.1,0,0.2C312.3,452,312.3,452,312.4,452C312.4,452,312.4,452,312.4,452z"/>
						<path class="st7" d="M294.5,459.1c-0.2,1,0,1.6,0.2,2.6s1.3,1.4,2,1.6c0.8,0.2,1.6,0,2-0.7c0.4-0.6,0.6-1.4,0.6-2.4
							L294.5,459.1z"/>
						<path class="st19" d="M295.7,453c0,0.2,0,0.5,0,0.7c0.1,0.1,0.1-0.1,0.1-0.2c0-0.1,0.1-0.3,0.1-0.4c0-0.1,0-0.2,0.1-0.2
							c0.1-0.1,0.3-0.2,0.5-0.2c0.6,0,1.2,0,1.8,0.1c0.2,0,0.4,0.1,0.6,0.3c0.1,0.2,0.1,0.4,0.1,0.6c0,0.1,0.1,0.2,0.1,0.2
							c0,0,0.1-0.1,0.1-0.1c0.1-0.4,0.2-0.9,0.3-1.3c0.3,0.1-0.1,1.3-0.2,2.4c-0.1,1.2-0.1,2.4,0,3.7c0.1,1.4,0.1,2.6-0.7,3.6
							c-0.9,1.3-2.9,0.4-3.4-0.4s-0.8-1.5-0.7-3c0.2-1.3,0.6-1.9,0.8-3.5c0.2-1.4,0-3,0.4-3C295.7,452.4,295.7,452.9,295.7,453z"/>
						<path class="st16" d="M299.3,460.1c-0.1,0.8-0.2,1.5-0.6,2.1c-0.9,1.3-3,0.5-3.6-0.4c-0.5-0.6-0.7-1.4-0.6-2.2
							C295.3,458.8,298.7,459.2,299.3,460.1z"/>
						<path class="st28" d="M298.7,458.5C298.7,458.5,298.7,458.5,298.7,458.5c0-0.1,0-0.1-0.1-0.1c-1-0.3-2.1-0.4-3.1-0.2
							c0,0,0,0,0,0c-0.1,0-0.1,0.1-0.1,0.1c0,0.1,0.1,0.1,0.1,0.1c1.4-0.3,2.9,0.2,3,0.2c0,0,0,0,0,0
							C298.6,458.6,298.7,458.5,298.7,458.5z"/>
						<path class="st28" d="M295.7,457.3c1.3-0.5,2.9,0.2,2.9,0.2c0.1,0,0.1,0,0.2-0.1c0,0,0,0,0,0c0-0.1,0-0.1-0.1-0.1
							c-0.1,0-1.7-0.7-3.1-0.2c0,0,0,0,0,0c-0.1,0-0.1,0.1-0.1,0.1C295.5,457.2,295.6,457.3,295.7,457.3
							C295.6,457.3,295.6,457.3,295.7,457.3z"/>
						<path class="st28" d="M295.7,456.2c1.5-0.5,3,0.2,3,0.2c0.1,0,0.1,0,0.2,0c0,0,0,0,0,0c0-0.1,0-0.1,0-0.1
							c-0.1,0-1.6-0.7-3.2-0.2c0,0,0,0,0,0c-0.1,0-0.1,0.1-0.1,0.1C295.6,456.2,295.6,456.2,295.7,456.2
							C295.7,456.2,295.7,456.2,295.7,456.2z"/>
						<path class="st14" d="M295.8,455.2c1.4-0.5,3,0.2,3,0.2c0.1,0,0.1,0,0.2,0c0,0,0,0,0,0c0-0.1,0-0.1-0.1-0.1
							c-0.1,0-1.7-0.8-3.2-0.2c0,0,0,0,0,0c-0.1,0-0.1,0.1-0.1,0.1C295.6,455.2,295.7,455.2,295.8,455.2
							C295.7,455.2,295.7,455.2,295.8,455.2z"/>
						<path class="st15" d="M313.9,407.6c2,5.5,1.3,17.3,1.2,21.6c-0.1,4.3-1.3,15.6-1.3,15.6s-1.7,0.6-3,0.6
							c-1.7,0-2.5-0.3-2.5-0.3s-0.9-3.8-1.4-7.6s0.1-6.4,0.1-6.4l-0.8-7c0,0-2.3,9.9-2.7,12.6c-0.5,2.9-2.5,10.6-2.5,10.6
							c-0.8,0.6-1.8,0.8-2.8,0.8c-1,0-1.9-0.3-2.7-0.9c0,0-0.4-5.1,0.2-9.4c0.6-4.3,1.1-5.6,1.2-6.5c0.1-0.9,0.1-4.4,0.4-11.7
							s1.6-9.2,2.6-11.8L313.9,407.6z"/>
						<path class="st27" d="M303.7,432.2c0,0-0.7-1-2.3-1.2s-2.6,0.6-2.6,0.6S301.9,431.4,303.7,432.2z M298.6,432.2
							c2.1,0.5,3.1,0.4,4.1,0.3C302.7,432.5,299.6,432,298.6,432.2z"/>
						<path class="st27" d="M310.7,430.3c1.4-0.1,2.8-0.1,4.3,0c0-0.2,0-0.3,0-0.5C313.6,429.6,311.3,430,310.7,430.3z"/>
						<path class="st27" d="M311.7,430.9c0.9,0.3,2.9,0.4,3.2,0.5c0-0.1,0-0.3,0-0.4C314.6,430.9,313.2,430.8,311.7,430.9z"/>
						<path class="st19" d="M297.3,434.2c-0.7,2.6-1.7,6.4-1.5,13.2c0.1,0.1,0.2,0.1,0.2,0.1c-0.2-6.8,0.8-10.7,1.5-13.3
							c0.1-0.2,0.1-0.5,0.2-0.7c0.5-2,0.8-6.1,0.9-9.5c0-1,0.1-2.1,0.1-3.2c0.1-1.3,0.1-2.6,0.3-4c2.5-0.2,3.1-2.5,3.9-5.5
							c0.1-0.4,0.2-0.8,0.3-1.2l-0.2-0.1c-0.1,0.4-0.2,0.8-0.3,1.2c-0.8,2.9-1.3,5.1-3.6,5.3c0.4-3,1.1-5.9,2.7-8l-0.2-0.1
							c-2.4,3.1-2.9,7.9-3.1,12.3c0,1.1-0.1,2.2-0.1,3.2c-0.1,3.3-0.4,7.4-0.9,9.4C297.5,433.7,297.4,433.9,297.3,434.2z"/>
						<path class="st19" d="M306.9,431.1l0.1-6.8l1.1-5.1c0,0.5,0,1,0.1,1.6c0.2,4.4,0.3,9.4,0.1,10.5c-0.5,2.2-0.4,4.1-0.1,6.9
							c0.4,2.8,0.7,5.5,1,7.1l0.2,0c-0.3-1.6-0.7-4.6-1-7.1c-0.3-2.7-0.4-4.8,0-6.9c0.2-1.1,0.1-5.9-0.1-10.5c0-0.8-0.1-1.7-0.1-2.4
							l0.3-1.5c1.1-0.2,3.5-1.3,3.9-2.8c-1.7,1.6-4.7,1.7-4.7,1.7l-1.7,8.2L306.9,431.1z"/>
					</g>
					<g id="freepik--top--inject-34_00000052102627986051427280000010922150828011532683_">
						<g id="freepik--hair--inject-34_00000181049352252438784550000011696334146926017669_">
							<path class="st19" d="M307.2,389.3c-0.2,0.1-0.5,0.1-0.7,0.3c-0.4,0.4-0.7,1-1.1,1.4c-0.4,0.4-0.9,0.7-1.5,0.9
								c-0.6,0.1-1.2,0.1-1.7,0c-0.7-0.1-1.3-0.5-1.6-1.1c-0.1-0.4-0.2-0.8-0.1-1.2c-0.3,0.4-0.3,0.9-0.1,1.4c0,0-0.8-0.1-1.3-1.2
								c-0.3-0.6-0.2-1.3,0-1.9c0.2-0.5,0.6-1,0.8-1.6c0.1-0.4,0.2-0.8,0.2-1.1c0-1.6,0-2,0.4-2.6c0.4-0.7,0.9-1.1,1.8-1.2
								c0.2-1.5,1.6-2.3,4.4-2.4c1.5,0,3.9,0.7,5,2.9c0.5,1,0.7,2.3-0.8,3.8c-0.3,0.4-1,0.7-1.3,0.9c-0.4,0.3-0.8,0.4-1.1,0.8
								s-0.5,0.8-0.7,1.2C307.6,388.9,307.4,389.1,307.2,389.3z"/>
							<path class="st7" d="M307.4,383.1c-0.2,1.6-0.5,3.2-0.6,4.8c-0.1,0.5-0.1,1-0.2,1.5c0,0.4-0.2,1-0.1,1.4c0.2,1.4,2,1.3,3,1
								c0.3-0.1,0.6-0.3,0.7-0.6c0,0.1,0,0.3,0,0.4c0.6-0.2,1.1-0.7,1.3-1.4c0.2-0.6,0.1-1.3-0.2-1.9c-0.2-0.4-0.4-0.8-0.5-1.2
								c-0.1-0.6-0.2-1,0.2-1.4c0.4-0.4,0.9-1.5,1-2.1c0-0.4-0.1-0.8-0.3-1.2c-0.3-0.6-0.8-1-1.4-1.3c-0.7-0.2-1.4-0.1-2,0.2
								c-0.4,0.3-0.7,0.7-0.7,1.2C307.5,382.8,307.4,383,307.4,383.1z"/>
						</g>
						<path class="st8" d="M314.7,410.6c-0.3-2.1-1-3.6-1.1-4.8c0-0.8,0-2.7,0-2.7c2.3-2,1.3-5-0.2-7c-1-1.2-2.1-2.3-3.3-3.3l-1.7,0
							c0,0-5.2,0.2-5.7,0.3l-1.9,0.4c-0.8,0.4-2.1,1.2-1.8,5.9c0.1,1.3,1,3.8,1.3,5.7c0.2,1.3-0.8,2.5-1.5,5.3
							C302.6,413.4,311.5,413.7,314.7,410.6z"/>
						<path class="st10" d="M302.8,402.1c1.2,2.3,4.1,2.9,6.4,1.3C307.2,406.1,303,405.3,302.8,402.1z"/>
						<g id="freepik--head--inject-34_00000078743228906364819820000009783330746216510874_">
							<path class="st27" d="M302.6,393c0.2,0.4,2.6,3.4,6,2.7c2.4-0.5-0.1-2.7-0.2-3c-0.3,0-0.4-0.1-0.4-0.5s0-0.8,0-0.8
								c0.9,0,1.2-0.1,1.7-0.4c0.8-0.4,1.6-1.5,1.4-4.1c0-0.6-0.3-1.2-0.2-1.6c0.1-1.2,0-1.2-0.4-2.2c-0.5-1-2.1-1.3-3-0.5
								c-1-0.6-2.2,0-2.3,0.8c0.1,1.7-0.6,1.7-0.8,1.8c0.4,1,0.2,1.8-0.5,1.4c-0.2-1.2-1.4-1.9-2.3-1.1c-0.6,0.5-0.6,1.9,0.1,2.8
								c0.8,0.9,1.6,0.4,1.7,0.2c0,0,0,2.7,0,3.2C303.4,392.7,303.3,392.8,302.6,393z"/>
							<path class="st7" d="M310.1,384.2C310.1,384.2,310.1,384.2,310.1,384.2c-0.3-0.1-0.6,0.1-0.6,0.4l1,0.3
								C310.6,384.6,310.4,384.3,310.1,384.2z"/>
							<path class="st7" d="M306.3,384.2C306.3,384.2,306.3,384.2,306.3,384.2c0.3-0.1,0.6,0.1,0.7,0.4l-1,0.3
								C305.9,384.6,306,384.3,306.3,384.2z"/>
							<path class="st7" d="M309.4,385.7c0-0.2,0.2-0.4,0.5-0.4c0.2,0,0.4,0.2,0.4,0.5c0,0,0,0,0,0c0,0.2-0.2,0.4-0.5,0.4
								C309.6,386.2,309.4,386,309.4,385.7C309.4,385.7,309.4,385.7,309.4,385.7z"/>
							<path class="st7" d="M306.3,385.8c0.1-0.2,0.3-0.4,0.5-0.3c0.2,0.1,0.4,0.3,0.3,0.5c0,0,0,0,0,0c-0.1,0.2-0.3,0.4-0.5,0.3
								C306.4,386.3,306.3,386.1,306.3,385.8C306.3,385.8,306.3,385.8,306.3,385.8z"/>
							<path class="st29" d="M307.9,385.4l0.4,2.5l1.4-0.5C309,386.4,308.4,385.4,307.9,385.4z"/>
							<path class="st29" d="M307.9,392c0,0-1.7,0.1-2.9-0.9c-1-0.8-0.9-1.7-0.9-1.7c0.2,0.5,0.6,0.9,1,1.2c0.8,0.5,1.8,0.8,2.7,0.8
								L307.9,392z"/>
						</g>
					</g>
				</g>
			</g>
		</g>
	</g>
	<path class="st27" d="M297.9,404.3c1.1-1.7,2.6-4.8,2.6-4.8c0.9-2.1,0.8-4.4,0.4-5.7c-0.3,0-0.6,0.1-0.9,0.2
		c-1.5,0.4-1.9,0.6-2.6,1.9c-0.6,1-2.4,5.8-3.2,7.3l-3.5-3.2c-0.8-0.8-0.9-1.9-1.4-2.6c-0.5-0.7-1.1-0.9-1.7-1.6
		c-0.6-0.6-0.8-1.1-1-0.6c-0.3,0.4,0.3,1.3,0.4,1.5c0.1,0.2,0.8,0.8-0.2,0.6c-1-0.2-2.7-1.5-3.1-1.7c-0.4-0.3-0.5,0.3-0.3,0.7
		s0,1.4,0.3,2c0.3,0.7,0.5,1,1.3,1.5c0.8,0.5,2.5,1,3.3,1.7c0.8,0.7,2.6,3.1,3.8,4.5c1.4,1.8,2.7,2.6,3.9,1.3
		C296.8,406.2,297.5,404.9,297.9,404.3z"/>
	<g>
		<path class="st30" d="M307.7,388.9l1.4,0.6c-0.2,0.4-0.6,0.6-1,0.4c0,0,0,0,0,0C307.7,389.8,307.5,389.3,307.7,388.9
			C307.7,388.9,307.7,388.9,307.7,388.9z"/>
		<path class="st29" d="M308.1,389.9c0.1,0,0.2,0.1,0.4,0.1c0-0.3-0.3-0.6-0.7-0.6c0,0-0.1,0-0.1,0
			C307.7,389.7,307.9,389.9,308.1,389.9z"/>
	</g>
</g>
<g id="freepik--Wallet--inject-4">
	<g id="freepik--wallet--inject-4">
		<path class="st7" d="M358.1,453.2c0.2-0.1,0.3-0.4,0.3-0.6v-27.1c0-0.3-0.1-0.7-0.3-1l1.7-1c0.2,0.3,0.3,0.6,0.3,1v27.1
			c0,0.2-0.1,0.5-0.3,0.6L358.1,453.2z"/>
		<path class="st19" d="M358.1,424.5c-0.2-0.3-0.4-0.5-0.7-0.7L326.7,406c-1.1-0.6-2.8-0.6-3.9,0l-0.7,0.4c-0.6,0.3-0.9,0.9-0.9,1.5
			v29.4c0-0.6,0.4-1.2,0.9-1.5l0.7-0.4c1.1-0.6,2.8-0.6,3.9,0l30.7,17.7c0.2,0.2,0.6,0.2,0.8-0.1c0.1-0.1,0.2-0.3,0.1-0.5v-27.1
			C358.4,425.1,358.3,424.8,358.1,424.5z"/>
		<path class="st15" d="M321.3,408.4c-0.2-0.7,0.1-1.5,0.8-2l0.7-0.4c1.1-0.6,2.8-0.6,3.9,0l30.7,17.7c0.3,0.2,0.5,0.4,0.7,0.7
			l1.7-1c-0.2-0.3-0.4-0.5-0.7-0.7l-31.5-18.2c-1.6-0.9-4-0.9-5.5,0l-0.7,0.4c-0.9,0.5-1.6,1.4-1.7,2.5c0,0.1,0,0.3,0,0.4
			c0,0.9,0.4,1.8,1,2.4l1.2-1.2C321.6,408.9,321.4,408.7,321.3,408.4"/>
		<path class="st22" d="M356.1,428.9v-3.7l-30.8-17.8c-0.6-0.3-1.3-0.3-1.9,0l-0.3,0.2c-0.3,0.1-0.5,0.4-0.5,0.7v6.4L356.1,428.9z"
			/>
		<path class="st24" d="M356.1,428.9v-3.7l-30.8-17.8c-0.6-0.3-1.3-0.3-1.9,0l-0.3,0.2c-0.3,0.1-0.5,0.4-0.5,0.7v6.4L356.1,428.9z"
			/>
		<path class="st22" d="M325.7,406.7c-0.9-0.5-1.9-0.5-2.8,0l-0.3,0.2c-0.5,0.3-0.8,0.7-0.9,1.2c0,0.1,0,0.1,0,0.2v1l0.8,0.9v-1.9
			c0-0.3,0.2-0.6,0.5-0.7l0.3-0.2c0.6-0.3,1.3-0.3,1.9,0l30.8,17.8l0.8-0.5L325.7,406.7z"/>
		<path class="st11" d="M325.7,406.7c-0.9-0.5-1.9-0.5-2.8,0l-0.3,0.2c-0.5,0.3-0.8,0.7-0.9,1.2c0,0.1,0,0.1,0,0.2v1l0.8,0.9v-1.9
			c0-0.3,0.2-0.6,0.5-0.7l0.3-0.2c0.6-0.3,1.3-0.3,1.9,0l30.8,17.8l0.8-0.5L325.7,406.7z"/>
		<polygon class="st22" points="356.1,425.2 357,424.7 357,429.3 356.1,428.8 		"/>
		<polygon class="st25" points="356.1,425.2 357,424.7 357,429.3 356.1,428.8 		"/>
		<path class="st7" d="M357.2,449.8v-20.9l-30.8-17.8c-0.6-0.4-1.4-0.4-2.1,0l-0.8,0.4v19.9l32.6,18.8c0.3,0.2,0.7,0.1,0.9-0.2
			C357.2,450,357.2,449.9,357.2,449.8z"/>
		<g id="freepik--Card--inject-4">
			<g id="freepik--card--inject-4">
				<path class="st22" d="M354.2,449l0.5-0.3c0.2-0.1,0.3-0.3,0.3-0.5v-21.5c0-0.2-0.1-0.4-0.3-0.5l-27.8-16.1
					c-0.2-0.1-0.4-0.1-0.6,0l-0.5,0.3c-0.2,0.1-0.3,0.3-0.3,0.5v21.5c0,0.2,0.1,0.4,0.3,0.5l27.8,16.1
					C353.8,449.1,354,449.1,354.2,449z"/>
				<path class="st31" d="M354.2,449l0.5-0.3c0.2-0.1,0.3-0.3,0.3-0.5v-21.5c0-0.2-0.1-0.4-0.3-0.5l-27.8-16.1
					c-0.2-0.1-0.4-0.1-0.6,0l-0.5,0.3c-0.2,0.1-0.3,0.3-0.3,0.5v21.5c0,0.2,0.1,0.4,0.3,0.5l27.8,16.1
					C353.8,449.1,354,449.1,354.2,449z"/>
				<path class="st22" d="M353.6,426.8l-27.8-16.1c-0.2-0.1-0.3,0-0.3,0.2v21.5c0,0.2,0.1,0.4,0.3,0.5l27.8,16.1
					c0.2,0.1,0.3,0,0.3-0.2v-21.5C353.9,427.2,353.8,427,353.6,426.8z"/>
				<path class="st22" d="M353.6,426.8l-27.8-16.1c-0.2-0.1-0.3,0-0.3,0.2v21.5c0,0.2,0.1,0.4,0.3,0.5l27.8,16.1
					c0.2,0.1,0.3,0,0.3-0.2v-21.5C353.9,427.2,353.8,427,353.6,426.8z"/>
				<path class="st32" d="M353.6,426.8l-27.8-16.1c-0.2-0.1-0.3,0-0.3,0.2v21.5c0,0.2,0.1,0.4,0.3,0.5l27.8,16.1
					c0.2,0.1,0.3,0,0.3-0.2v-21.5C353.9,427.2,353.8,427,353.6,426.8z"/>
				<path class="st1" d="M325.8,410.8c2.3,1.4,4.6,2.8,6.9,4.1l6.9,4.1l7,4l3.5,2l3.5,1.9l-3.4-2.1l-3.5-2.1l-6.9-4.1l-7-4
					C330.5,413.4,328.2,412,325.8,410.8z"/>
				<path class="st22" d="M353.8,427.1l1.1-0.7c0.1,0.1,0.1,0.2,0.1,0.3v21.5c0,0.2-0.1,0.4-0.3,0.5l-0.5,0.3
					c-0.2,0.1-0.4,0.1-0.5,0c0.1,0,0.2,0,0.2-0.2v-21.5C353.9,427.3,353.9,427.2,353.8,427.1z"/>
				<polygon class="st22" points="353.9,429.8 355.1,429.2 355.1,434.8 353.9,435.4 				"/>
				<polygon class="st24" points="353.9,429.8 355.1,429.2 355.1,434.8 353.9,435.4 				"/>
			</g>
			<polygon class="st24" points="325.5,413.4 353.9,429.8 353.9,435.4 325.5,419 			"/>
			<g id="freepik--Cards--inject-4">
				<path class="st15" d="M352.2,442.1v3.7c0,0.3-0.2,0.4-0.4,0.3l-3.9-2.2c-0.3-0.2-0.4-0.4-0.4-0.7v-3.7c0-0.3,0.2-0.4,0.4-0.2
					c1.1,0.6,2.8,1.6,3.9,2.2C352,441.5,352.2,441.8,352.2,442.1z"/>
				<g>
					<defs>
						<path id="SVGID_1_" d="M352.2,442.1v3.7c0,0.3-0.2,0.4-0.4,0.3l-3.9-2.2c-0.3-0.2-0.4-0.4-0.4-0.7v-3.7c0-0.3,0.2-0.4,0.4-0.2
							c1.1,0.6,2.8,1.6,3.9,2.2C352,441.5,352.2,441.8,352.2,442.1z"/>
					</defs>
					<clipPath id="SVGID_00000180332191831697001540000009517804264276907676_">
						<use xlink:href="#SVGID_1_"  style="overflow:visible;"/>
					</clipPath>
					<g style="clip-path:url(#SVGID_00000180332191831697001540000009517804264276907676_);">
						<polygon class="st1" points="352.9,443.5 353,443.4 346.7,439.7 346.6,439.9 						"/>
						<rect x="350.5" y="442.1" class="st1" width="0.2" height="1.9"/>
						<rect x="349" y="441.2" class="st1" width="0.2" height="1.9"/>
						<polygon class="st1" points="352.9,445.4 353,445.2 346.7,441.6 346.6,441.8 						"/>
					</g>
				</g>
				<path class="st22" d="M329.6,428.1l1.1,0.6c0.2,0.1,0.3,0.3,0.3,0.4v0.3c0,0.2-0.1,0.2-0.3,0.1l-1.1-0.6
					c-0.2-0.1-0.2-0.3-0.3-0.4v-0.3C329.4,428,329.5,428,329.6,428.1z"/>
				<path class="st22" d="M327.2,426.7l1.1,0.6c0.2,0.1,0.2,0.3,0.3,0.4v0.3c0,0.2-0.1,0.2-0.3,0.1l-1.1-0.6
					c-0.2-0.1-0.2-0.3-0.3-0.4v-0.3C327,426.6,327.1,426.6,327.2,426.7z"/>
				<path class="st22" d="M341.1,437l-13.7-7.9c-0.2-0.1-0.4,0-0.4,0.2v0.4c0,0.3,0.2,0.6,0.4,0.7l13.7,7.9c0.2,0.1,0.4,0,0.4-0.2
					v-0.4C341.5,437.5,341.3,437.2,341.1,437z"/>
				<path class="st15" d="M329.6,428.1l1.1,0.6c0.2,0.1,0.3,0.3,0.3,0.4v0.3c0,0.2-0.1,0.2-0.3,0.1l-1.1-0.6
					c-0.2-0.1-0.2-0.3-0.3-0.4v-0.3C329.4,428,329.5,428,329.6,428.1z"/>
				<path class="st15" d="M327.2,426.7l1.1,0.6c0.2,0.1,0.2,0.3,0.3,0.4v0.3c0,0.2-0.1,0.2-0.3,0.1l-1.1-0.6
					c-0.2-0.1-0.2-0.3-0.3-0.4v-0.3C327,426.6,327.1,426.6,327.2,426.7z"/>
				<path class="st15" d="M341.1,437l-13.7-7.9c-0.2-0.1-0.4,0-0.4,0.2v0.4c0,0.3,0.2,0.6,0.4,0.7l13.7,7.9c0.2,0.1,0.4,0,0.4-0.2
					v-0.4C341.5,437.5,341.3,437.2,341.1,437z"/>
				<path class="st16" d="M327.2,422.9L327.2,422.9c0.2,0.2,0.3,0.4,0.3,0.6v1.1c0,0.2-0.1,0.3-0.3,0.2l0,0
					c-0.2-0.1-0.3-0.3-0.3-0.5v-1.1C327,422.9,327.1,422.8,327.2,422.9z"/>
				<path class="st16" d="M328.7,423.7L328.7,423.7c0.2,0.2,0.3,0.4,0.3,0.6v1.1c0,0.2-0.1,0.3-0.3,0.2l0,0
					c-0.2-0.1-0.3-0.3-0.3-0.5v-1.1C328.4,423.7,328.5,423.6,328.7,423.7z"/>
				<path class="st16" d="M330.1,424.5L330.1,424.5c0.2,0.2,0.3,0.4,0.3,0.6v1.1c0,0.2-0.1,0.3-0.3,0.2l0,0
					c-0.2-0.1-0.3-0.3-0.3-0.5v-1.1C329.8,424.5,330,424.4,330.1,424.5z"/>
				<path class="st16" d="M331.6,425.4L331.6,425.4c0.2,0.2,0.3,0.4,0.3,0.6v1.1c0,0.2-0.1,0.3-0.3,0.2l0,0
					c-0.2-0.1-0.3-0.3-0.3-0.5v-1.1C331.3,425.4,331.4,425.3,331.6,425.4z"/>
				<path class="st16" d="M334,426.8L334,426.8c0.2,0.2,0.3,0.4,0.3,0.6v1.1c0,0.2-0.1,0.3-0.3,0.2l0,0c-0.2-0.1-0.3-0.3-0.3-0.5
					V427C333.7,426.8,333.8,426.7,334,426.8z"/>
				<path class="st16" d="M335.4,427.6L335.4,427.6c0.2,0.2,0.3,0.4,0.3,0.6v1.1c0,0.2-0.1,0.3-0.3,0.2l0,0
					c-0.2-0.1-0.3-0.3-0.3-0.5v-1.1C335.2,427.6,335.3,427.5,335.4,427.6z"/>
				<path class="st16" d="M336.9,428.4L336.9,428.4c0.2,0.2,0.3,0.4,0.3,0.6v1.1c0,0.2-0.1,0.3-0.3,0.2l0,0
					c-0.2-0.1-0.3-0.3-0.3-0.5v-1.1C336.6,428.4,336.7,428.3,336.9,428.4z"/>
				<path class="st16" d="M338.3,429.3L338.3,429.3c0.2,0.2,0.3,0.4,0.3,0.6v1.1c0,0.2-0.1,0.3-0.3,0.2l0,0
					c-0.2-0.1-0.3-0.3-0.3-0.5v-1.1C338,429.3,338.2,429.2,338.3,429.3z"/>
				<path class="st16" d="M340.8,430.7L340.8,430.7c0.2,0.2,0.3,0.4,0.3,0.6v1.1c0,0.2-0.1,0.3-0.3,0.2l0,0
					c-0.2-0.1-0.3-0.3-0.3-0.5v-1.1C340.5,430.7,340.6,430.6,340.8,430.7z"/>
				<path class="st16" d="M342.2,431.5L342.2,431.5c0.2,0.2,0.3,0.4,0.3,0.6v1.1c0,0.2-0.1,0.3-0.3,0.2l0,0
					c-0.2-0.1-0.3-0.3-0.3-0.5v-1.1C341.9,431.5,342,431.4,342.2,431.5z"/>
				<path class="st16" d="M343.6,432.3L343.6,432.3c0.2,0.2,0.3,0.4,0.3,0.6v1.1c0,0.2-0.1,0.3-0.3,0.2l0,0
					c-0.2-0.1-0.3-0.3-0.3-0.5v-1.1C343.4,432.3,343.5,432.2,343.6,432.3z"/>
				<path class="st16" d="M345.1,433.2L345.1,433.2c0.2,0.2,0.3,0.4,0.3,0.6v1.1c0,0.2-0.1,0.3-0.3,0.2l0,0
					c-0.2-0.1-0.3-0.3-0.3-0.5v-1.1C344.8,433.2,344.9,433.1,345.1,433.2z"/>
				<path class="st16" d="M347.5,434.6L347.5,434.6c0.2,0.2,0.3,0.4,0.3,0.6v1.1c0,0.2-0.1,0.3-0.3,0.2l0,0
					c-0.2-0.1-0.3-0.3-0.3-0.5v-1.1C347.2,434.6,347.3,434.5,347.5,434.6z"/>
				<path class="st16" d="M349,435.4L349,435.4c0.2,0.2,0.3,0.4,0.3,0.6v1.1c0,0.2-0.1,0.3-0.3,0.2l0,0c-0.2-0.1-0.3-0.3-0.3-0.5
					v-1.1C348.7,435.4,348.8,435.3,349,435.4z"/>
				<path class="st16" d="M350.4,436.2L350.4,436.2c0.2,0.2,0.3,0.4,0.3,0.6v1.1c0,0.2-0.1,0.3-0.3,0.2l0,0
					c-0.2-0.1-0.3-0.3-0.3-0.5v-1.1C350.1,436.2,350.3,436.2,350.4,436.2z"/>
				<path class="st16" d="M351.8,437.1L351.8,437.1c0.2,0.2,0.3,0.4,0.3,0.6v1.1c0,0.2-0.1,0.3-0.3,0.2l0,0
					c-0.2-0.1-0.3-0.3-0.3-0.5v-1.1C351.6,437.1,351.7,437,351.8,437.1z"/>
			</g>
		</g>
		<path class="st34" d="M355.7,450c0,0.6-0.4,0.9-1,0.6l-26.2-15.1c-0.6-0.4-0.9-1-1-1.7v-14.6l28.2,16.3V450z"/>
		<path class="st19" d="M320.6,439.7l21.9,23c0.2,0.2,0.4,0.3,0.6,0.2c0.1-0.1,0.2-0.3,0.2-0.5v-27.1c0-0.3-0.1-0.7-0.2-1
			c-0.1-0.3-0.3-0.7-0.6-0.9l-21.9-23c-0.6-0.6-1-1.5-1-2.4v29.4C319.6,438.2,319.9,439,320.6,439.7z"/>
		<path class="st15" d="M321.1,413.6c-0.1,0-0.1-0.1-0.1-0.1v-0.3c0,0,0-0.1,0.1-0.1c0,0,0.1,0,0.1,0l0.2,0.2c0,0,0,0.1,0,0.2
			c0,0,0,0,0,0c0,0-0.1,0-0.2,0c0,0,0,0,0,0l0,0v0C321.2,413.5,321.2,413.6,321.1,413.6C321.1,413.6,321.1,413.6,321.1,413.6z"/>
		<path class="st15" d="M341.7,458.2c-0.1,0-0.1-0.1-0.1-0.1v-0.7c0-0.1,0.1-0.1,0.1-0.1c0.1,0,0.1,0.1,0.1,0.1v0.7
			C341.8,458.2,341.8,458.2,341.7,458.2z M341.7,456.4c-0.1,0-0.1-0.1-0.1-0.1v-0.7c0-0.1,0.1-0.1,0.1-0.1c0.1,0,0.1,0.1,0.1,0.1
			v0.7C341.8,456.4,341.8,456.5,341.7,456.4L341.7,456.4z M341.7,454.7c-0.1,0-0.1-0.1-0.1-0.1v-0.7c0-0.1,0.1-0.1,0.1-0.1
			c0.1,0,0.1,0.1,0.1,0.1v0.7C341.8,454.6,341.8,454.7,341.7,454.7C341.7,454.7,341.7,454.7,341.7,454.7L341.7,454.7z M341.7,452.9
			c-0.1,0-0.1-0.1-0.1-0.1v-0.7c0-0.1,0.1-0.1,0.1-0.1c0.1,0,0.1,0.1,0.1,0.1v0.7C341.8,452.9,341.8,452.9,341.7,452.9
			C341.7,452.9,341.7,452.9,341.7,452.9L341.7,452.9z M341.7,451.2c-0.1,0-0.1-0.1-0.1-0.1v-0.7c0-0.1,0.1-0.1,0.1-0.1
			c0.1,0,0.1,0.1,0.1,0.1v0.7C341.8,451.1,341.8,451.2,341.7,451.2C341.7,451.2,341.7,451.2,341.7,451.2L341.7,451.2z M341.7,449.4
			c-0.1,0-0.1-0.1-0.1-0.1v-0.7c0-0.1,0.1-0.1,0.1-0.1c0.1,0,0.1,0.1,0.1,0.1v0.7C341.8,449.4,341.8,449.4,341.7,449.4
			C341.7,449.4,341.7,449.4,341.7,449.4L341.7,449.4z M341.7,447.7c-0.1,0-0.1-0.1-0.1-0.1v-0.7c0-0.1,0.1-0.1,0.1-0.1
			c0.1,0,0.1,0.1,0.1,0.1v0.7C341.8,447.6,341.8,447.7,341.7,447.7C341.7,447.7,341.7,447.7,341.7,447.7L341.7,447.7z M341.7,445.9
			c-0.1,0-0.1-0.1-0.1-0.1v-0.7c0-0.1,0.1-0.1,0.1-0.1c0.1,0,0.1,0.1,0.1,0.1v0.7C341.8,445.8,341.8,445.9,341.7,445.9
			C341.7,445.9,341.7,445.9,341.7,445.9L341.7,445.9z M341.7,444.1c-0.1,0-0.1-0.1-0.1-0.1v-0.7c0-0.1,0.1-0.1,0.1-0.1
			c0.1,0,0.1,0.1,0.1,0.1v0.7C341.8,444.1,341.8,444.1,341.7,444.1C341.7,444.1,341.7,444.1,341.7,444.1L341.7,444.1z M341.7,442.4
			c-0.1,0-0.1-0.1-0.1-0.1v-0.7c0-0.1,0.1-0.1,0.1-0.1c0.1,0,0.1,0.1,0.1,0.1v0.7C341.8,442.3,341.8,442.4,341.7,442.4
			C341.7,442.4,341.7,442.4,341.7,442.4L341.7,442.4z M341.7,440.6c-0.1,0-0.1-0.1-0.1-0.1v-0.7c0-0.1,0.1-0.1,0.1-0.1
			c0.1,0,0.1,0.1,0.1,0.1v0.7C341.8,440.6,341.8,440.6,341.7,440.6C341.7,440.6,341.7,440.6,341.7,440.6L341.7,440.6z M341.7,438.9
			c-0.1,0-0.1-0.1-0.1-0.1v-0.7c0-0.1,0.1-0.1,0.1-0.1c0.1,0,0.1,0.1,0.1,0.1v0.7C341.8,438.8,341.8,438.9,341.7,438.9L341.7,438.9z
			 M341.7,437.1c-0.1,0-0.1-0.1-0.1-0.1v-0.7c0-0.1,0.1-0.1,0.1-0.1c0.1,0,0.1,0.1,0.1,0.1v0.7C341.8,437,341.8,437.1,341.7,437.1
			C341.7,437.1,341.7,437.1,341.7,437.1L341.7,437.1z M341.7,435.3c-0.1,0-0.1,0-0.1-0.1c0,0,0,0,0,0c0-0.1,0-0.3-0.1-0.4
			c0-0.1-0.1-0.1-0.1-0.2c0-0.1,0-0.1,0-0.1c0,0,0,0,0,0c0.1,0,0.1,0,0.1,0c0,0,0,0,0,0c0,0.1,0.1,0.1,0.1,0.2
			c0.1,0.1,0.1,0.3,0.1,0.5C341.8,435.3,341.8,435.3,341.7,435.3L341.7,435.3z M340.8,433.9C340.8,433.9,340.7,433.9,340.8,433.9
			l-0.5-0.5c0,0,0-0.1,0-0.2s0.1,0,0.2,0l0.4,0.5C340.9,433.7,340.9,433.8,340.8,433.9C340.9,433.8,340.9,433.8,340.8,433.9
			C340.9,433.9,340.8,433.9,340.8,433.9L340.8,433.9z M339.6,432.6C339.6,432.6,339.5,432.6,339.6,432.6l-0.5-0.5c0,0,0-0.1,0-0.2
			c0,0,0.1,0,0.1,0l0.4,0.5C339.7,432.5,339.7,432.5,339.6,432.6C339.6,432.6,339.6,432.6,339.6,432.6L339.6,432.6z M338.4,431.3
			C338.3,431.3,338.3,431.3,338.4,431.3l-0.5-0.5c0,0,0-0.1,0-0.2c0,0,0,0,0,0c0,0,0.1,0,0.2,0c0,0,0,0,0,0l0.4,0.5
			C338.5,431.2,338.5,431.3,338.4,431.3C338.4,431.3,338.4,431.3,338.4,431.3L338.4,431.3z M337.2,430.1
			C337.1,430.1,337.1,430.1,337.2,430.1l-0.5-0.5c0,0,0-0.1,0-0.2c0,0,0,0,0,0c0,0,0.1,0,0.2,0c0,0,0,0,0,0l0.4,0.5
			C337.3,429.9,337.3,430,337.2,430.1C337.2,430,337.2,430,337.2,430.1C337.2,430.1,337.2,430.1,337.2,430.1L337.2,430.1z
			 M335.9,428.8C335.9,428.8,335.9,428.8,335.9,428.8l-0.5-0.5c0,0,0-0.1,0-0.2s0.1,0,0.2,0l0.4,0.5
			C336.1,428.6,336.1,428.7,335.9,428.8C336,428.8,336,428.8,335.9,428.8C336,428.8,336,428.8,335.9,428.8z M334.7,427.5
			C334.7,427.5,334.7,427.5,334.7,427.5l-0.5-0.5c0,0,0-0.1,0-0.2c0,0,0.1,0,0.1,0l0.4,0.5C334.9,427.4,334.9,427.4,334.7,427.5
			C334.8,427.5,334.8,427.5,334.7,427.5C334.8,427.5,334.8,427.5,334.7,427.5L334.7,427.5z M333.5,426.2
			C333.5,426.2,333.5,426.2,333.5,426.2l-0.5-0.5c0,0,0-0.1,0-0.2c0,0,0.1,0,0.2,0c0,0,0,0,0,0l0.4,0.5
			C333.6,426.1,333.6,426.2,333.5,426.2C333.6,426.2,333.6,426.2,333.5,426.2C333.6,426.2,333.5,426.2,333.5,426.2L333.5,426.2z
			 M332.3,425C332.3,425,332.2,425,332.3,425l-0.5-0.5c0,0,0-0.1,0-0.2s0.1,0,0.2,0l0.4,0.5C332.4,424.8,332.4,424.9,332.3,425
			C332.4,424.9,332.4,424.9,332.3,425C332.4,425,332.3,425,332.3,425L332.3,425z M331.1,423.7C331.1,423.7,331,423.7,331.1,423.7
			l-0.5-0.5c0,0,0-0.1,0-0.2c0,0,0,0,0,0c0,0,0.1,0,0.2,0c0,0,0,0,0,0l0.4,0.5C331.2,423.5,331.2,423.6,331.1,423.7
			C331.2,423.7,331.2,423.7,331.1,423.7C331.1,423.7,331.1,423.7,331.1,423.7L331.1,423.7z M329.9,422.4
			C329.8,422.4,329.8,422.4,329.9,422.4l-0.5-0.5c0,0,0-0.1,0-0.2c0,0,0,0,0,0c0,0,0.1,0,0.2,0c0,0,0,0,0,0l0.4,0.5
			C330,422.3,330,422.4,329.9,422.4C329.9,422.4,329.9,422.4,329.9,422.4C329.9,422.4,329.9,422.4,329.9,422.4z M328.6,421.2
			C328.6,421.2,328.6,421.1,328.6,421.2l-0.5-0.5c0,0,0-0.1,0-0.2c0,0,0,0,0,0c0,0,0.1,0,0.2,0c0,0,0,0,0,0l0.4,0.5
			C328.8,421,328.8,421.1,328.6,421.2C328.7,421.1,328.7,421.1,328.6,421.2C328.7,421.1,328.7,421.2,328.6,421.2L328.6,421.2z
			 M327.4,419.9C327.4,419.9,327.4,419.9,327.4,419.9l-0.5-0.5c0,0,0-0.1,0-0.2c0,0,0.1,0,0.2,0l0,0l0.4,0.5
			C327.6,419.7,327.6,419.8,327.4,419.9C327.5,419.9,327.5,419.9,327.4,419.9C327.5,419.9,327.5,419.9,327.4,419.9L327.4,419.9z
			 M326.2,418.6C326.2,418.6,326.2,418.6,326.2,418.6l-0.5-0.5c0,0,0-0.1,0-0.2c0,0,0.1,0,0.2,0l0,0l0.4,0.5
			C326.3,418.5,326.3,418.5,326.2,418.6C326.3,418.6,326.3,418.6,326.2,418.6C326.3,418.6,326.2,418.6,326.2,418.6L326.2,418.6z
			 M325,417.3C325,417.3,324.9,417.3,325,417.3l-0.5-0.5c0,0,0-0.1,0-0.2c0,0,0,0,0,0c0,0,0.1,0,0.2,0c0,0,0,0,0,0l0.4,0.5
			C325.1,417.2,325.1,417.3,325,417.3C325.1,417.3,325.1,417.3,325,417.3C325.1,417.3,325,417.3,325,417.3L325,417.3z M323.8,416.1
			C323.8,416.1,323.7,416.1,323.8,416.1l-0.5-0.5c0,0,0-0.1,0-0.2c0,0,0.1,0,0.2,0l0,0l0.4,0.5C323.9,415.9,323.9,416,323.8,416.1
			C323.9,416,323.9,416,323.8,416.1C323.8,416.1,323.8,416.1,323.8,416.1L323.8,416.1z M322.6,414.8
			C322.5,414.8,322.5,414.8,322.6,414.8l-0.5-0.5c0,0,0-0.1,0-0.2c0,0,0,0,0,0c0,0,0.1,0,0.2,0c0,0,0,0,0,0l0.4,0.5
			C322.7,414.6,322.7,414.7,322.6,414.8C322.7,414.8,322.7,414.8,322.6,414.8C322.6,414.8,322.6,414.8,322.6,414.8L322.6,414.8z"/>
		<path class="st15" d="M341.7,459.6C341.7,459.6,341.6,459.6,341.7,459.6l-0.3-0.3c0,0,0-0.1,0-0.2s0.1,0,0.2,0l0,0v-0.1
			c0-0.1,0.1-0.1,0.1-0.1c0.1,0,0.1,0.1,0.1,0.1v0.3C341.8,459.6,341.8,459.6,341.7,459.6C341.7,459.6,341.7,459.7,341.7,459.6z"/>
		<path class="st15" d="M340.7,458.6C340.7,458.6,340.6,458.6,340.7,458.6l-0.6-0.5c0,0,0-0.1,0-0.2c0,0,0.1,0,0.2,0c0,0,0,0,0,0
			l0.5,0.5C340.8,458.4,340.8,458.5,340.7,458.6C340.8,458.5,340.8,458.5,340.7,458.6C340.7,458.6,340.7,458.6,340.7,458.6z
			 M339.4,457.3C339.4,457.3,339.4,457.3,339.4,457.3l-0.6-0.5c0,0,0-0.1,0-0.2s0.1,0,0.2,0l0,0l0.5,0.5
			C339.6,457.1,339.6,457.2,339.4,457.3C339.5,457.2,339.5,457.2,339.4,457.3C339.5,457.3,339.5,457.3,339.4,457.3z M338.2,456
			C338.2,456,338.1,455.9,338.2,456l-0.6-0.5c0,0,0-0.1,0-0.2c0,0,0,0,0,0c0,0,0.1,0,0.2,0c0,0,0,0,0,0l0.5,0.5
			C338.3,455.8,338.3,455.9,338.2,456C338.3,455.9,338.3,455.9,338.2,456C338.2,455.9,338.2,456,338.2,456z M336.9,454.6
			C336.9,454.6,336.9,454.6,336.9,454.6l-0.6-0.5c0,0,0-0.1,0-0.2c0,0,0.1,0,0.1,0l0.5,0.5C337,454.5,337,454.6,336.9,454.6
			C337,454.6,337,454.6,336.9,454.6C337,454.6,336.9,454.6,336.9,454.6z M335.7,453.3C335.6,453.3,335.6,453.3,335.7,453.3l-0.6-0.5
			c0,0,0-0.1,0-0.2c0,0,0,0,0,0c0,0,0.1,0,0.2,0c0,0,0,0,0,0l0.5,0.5C335.8,453.2,335.8,453.2,335.7,453.3
			C335.7,453.3,335.7,453.3,335.7,453.3C335.7,453.3,335.7,453.3,335.7,453.3L335.7,453.3z M334.4,452
			C334.4,452,334.3,452,334.4,452l-0.6-0.5c0,0,0-0.1,0-0.2c0,0,0.1,0,0.2,0c0,0,0,0,0,0l0.5,0.5C334.5,451.9,334.5,451.9,334.4,452
			C334.5,452,334.5,452,334.4,452C334.5,452,334.4,452,334.4,452L334.4,452z M333.1,450.7C333.1,450.7,333.1,450.7,333.1,450.7
			l-0.6-0.5c0,0,0-0.1,0-0.2c0,0,0,0,0,0c0,0,0.1,0,0.2,0c0,0,0,0,0,0l0.5,0.5C333.3,450.5,333.3,450.6,333.1,450.7
			C333.2,450.7,333.2,450.7,333.1,450.7C333.2,450.7,333.2,450.7,333.1,450.7L333.1,450.7z M331.9,449.4
			C331.9,449.4,331.8,449.4,331.9,449.4l-0.6-0.5c0,0,0-0.1,0-0.2c0,0,0.1,0,0.2,0l0.5,0.5C332,449.2,332,449.3,331.9,449.4
			C332,449.3,332,449.3,331.9,449.4C332,449.4,331.9,449.4,331.9,449.4L331.9,449.4z M330.6,448.1
			C330.6,448.1,330.6,448,330.6,448.1l-0.6-0.5c0,0,0-0.1,0-0.2s0.1,0,0.2,0c0,0,0,0,0,0l0.5,0.5C330.8,447.9,330.8,448,330.6,448.1
			C330.7,448,330.7,448,330.6,448.1C330.7,448,330.7,448.1,330.6,448.1L330.6,448.1z M329.4,446.7
			C329.4,446.7,329.3,446.7,329.4,446.7l-0.6-0.5c0,0,0-0.1,0-0.2c0,0,0.1,0,0.1,0l0.5,0.5C329.5,446.6,329.5,446.7,329.4,446.7
			C329.5,446.7,329.5,446.7,329.4,446.7C329.4,446.7,329.4,446.8,329.4,446.7L329.4,446.7z M328.1,445.4
			C328.1,445.4,328.1,445.4,328.1,445.4l-0.6-0.5c0,0,0-0.1,0-0.2c0,0,0,0,0,0c0,0,0.1,0,0.2,0c0,0,0,0,0,0l0.5,0.5
			C328.2,445.3,328.2,445.4,328.1,445.4C328.2,445.4,328.1,445.4,328.1,445.4L328.1,445.4z M326.9,444.1
			C326.8,444.1,326.8,444.1,326.9,444.1l-0.6-0.5c0,0,0-0.1,0-0.2c0,0,0.1,0,0.2,0c0,0,0,0,0,0l0.5,0.5C327,444,327,444,326.9,444.1
			C327,444.1,327,444.1,326.9,444.1C326.9,444.1,326.9,444.1,326.9,444.1z M325.6,442.8C325.6,442.8,325.6,442.8,325.6,442.8
			l-0.6-0.5c0,0,0-0.1,0-0.2c0,0,0,0,0,0c0,0,0.1,0,0.2,0c0,0,0,0,0,0l0.5,0.5C325.7,442.7,325.7,442.7,325.6,442.8
			C325.7,442.8,325.7,442.8,325.6,442.8C325.7,442.8,325.6,442.8,325.6,442.8L325.6,442.8z M324.4,441.5
			C324.3,441.5,324.3,441.5,324.4,441.5l-0.6-0.5c0,0,0-0.1,0-0.2s0.1,0,0.2,0l0.5,0.5C324.5,441.3,324.5,441.4,324.4,441.5
			C324.4,441.5,324.4,441.5,324.4,441.5C324.4,441.5,324.4,441.5,324.4,441.5L324.4,441.5z M323.1,440.2
			C323.1,440.2,323,440.2,323.1,440.2l-0.6-0.5c0,0,0-0.1,0-0.2c0,0,0.1,0,0.2,0c0,0,0,0,0,0l0.5,0.5
			C323.2,440,323.2,440.1,323.1,440.2C323.2,440.1,323.2,440.1,323.1,440.2C323.2,440.2,323.1,440.2,323.1,440.2L323.1,440.2z
			 M321.8,438.9C321.8,438.9,321.8,438.8,321.8,438.9l-0.2-0.2c-0.1-0.1-0.2-0.2-0.3-0.4c0,0,0-0.1,0-0.1c0,0,0,0,0,0
			c0.1,0,0.1,0,0.2,0c0,0,0,0,0,0c0.1,0.1,0.2,0.2,0.3,0.4l0.1,0.2C322,438.7,322,438.8,321.8,438.9
			C321.9,438.8,321.9,438.8,321.8,438.9C321.9,438.9,321.9,438.9,321.8,438.9L321.8,438.9z M321.1,437.3c-0.1,0-0.1-0.1-0.1-0.1
			v-0.7c0-0.1,0.1-0.1,0.1-0.1c0.1,0,0.1,0.1,0.1,0.1v0.7C321.2,437.2,321.2,437.3,321.1,437.3L321.1,437.3z M321.1,435.4
			c-0.1,0-0.1-0.1-0.1-0.1v-0.7c0-0.1,0.1-0.1,0.1-0.1c0.1,0,0.1,0.1,0.1,0.1v0.7C321.2,435.4,321.2,435.4,321.1,435.4L321.1,435.4z
			 M321.1,433.6c-0.1,0-0.1-0.1-0.1-0.1v-0.7c0-0.1,0.1-0.1,0.1-0.1c0.1,0,0.1,0.1,0.1,0.1v0.7C321.2,433.6,321.2,433.6,321.1,433.6
			L321.1,433.6z M321.1,431.8c-0.1,0-0.1-0.1-0.1-0.1V431c0-0.1,0.1-0.1,0.1-0.1c0.1,0,0.1,0.1,0.1,0.1v0.7
			C321.2,431.7,321.2,431.8,321.1,431.8L321.1,431.8z M321.1,430c-0.1,0-0.1-0.1-0.1-0.1v-0.7c0-0.1,0.1-0.1,0.1-0.1
			c0.1,0,0.1,0.1,0.1,0.1v0.7C321.2,429.9,321.2,430,321.1,430L321.1,430z M321.1,428.2c-0.1,0-0.1-0.1-0.1-0.1v-0.7
			c0-0.1,0.1-0.1,0.1-0.1c0.1,0,0.1,0.1,0.1,0.1v0.7C321.2,428.1,321.2,428.2,321.1,428.2L321.1,428.2z M321.1,426.3
			c-0.1,0-0.1-0.1-0.1-0.1v-0.7c0-0.1,0.1-0.1,0.1-0.1c0.1,0,0.1,0.1,0.1,0.1v0.7C321.2,426.3,321.2,426.3,321.1,426.3L321.1,426.3z
			 M321.1,424.5c-0.1,0-0.1-0.1-0.1-0.1v-0.7c0-0.1,0.1-0.1,0.1-0.1c0.1,0,0.1,0.1,0.1,0.1v0.7C321.2,424.5,321.2,424.5,321.1,424.5
			L321.1,424.5z M321.1,422.7c-0.1,0-0.1-0.1-0.1-0.1v-0.7c0-0.1,0.1-0.1,0.1-0.1c0.1,0,0.1,0.1,0.1,0.1v0.7
			C321.2,422.7,321.2,422.7,321.1,422.7L321.1,422.7z M321.1,420.9c-0.1,0-0.1-0.1-0.1-0.1v-0.7c0-0.1,0.1-0.1,0.1-0.1
			c0.1,0,0.1,0.1,0.1,0.1v0.7C321.2,420.8,321.2,420.9,321.1,420.9L321.1,420.9z M321.1,419.1c-0.1,0-0.1-0.1-0.1-0.1v-0.7
			c0-0.1,0.1-0.1,0.1-0.1c0.1,0,0.1,0.1,0.1,0.1v0.7C321.2,419,321.2,419.1,321.1,419.1L321.1,419.1z M321.1,417.3
			c-0.1,0-0.1-0.1-0.1-0.1v-0.7c0-0.1,0.1-0.1,0.1-0.1c0.1,0,0.1,0.1,0.1,0.1v0.7C321.2,417.2,321.2,417.2,321.1,417.3L321.1,417.3z
			 M321.1,415.4c-0.1,0-0.1-0.1-0.1-0.1v-0.7c0-0.1,0.1-0.1,0.1-0.1c0.1,0,0.1,0.1,0.1,0.1v0.7C321.2,415.4,321.2,415.4,321.1,415.4
			L321.1,415.4z"/>
		<path class="st7" d="M344.6,433.3l-1.5,0.9c0.1,0.3,0.2,0.7,0.2,1v27.1c0,0.3-0.1,0.5-0.2,0.5l1.5-0.9c0.1-0.1,0.2-0.3,0.2-0.5
			v-27.1C344.8,434,344.7,433.7,344.6,433.3z"/>
		<path class="st16" d="M339.3,444.6c0-0.8-0.3-1.6-0.8-2.2c-0.4-0.5-0.8-0.3-0.8,0.5c0,0.8,0.3,1.6,0.8,2.2
			C338.9,445.5,339.3,445.3,339.3,444.6z"/>
		<polygon class="st19" points="360.1,434.7 363.8,436.9 360.1,439.1 		"/>
		<path class="st15" d="M362.9,437.4l0.8-0.5c0.3-0.1,0.5-0.4,0.4-0.7c-0.1-0.2-0.2-0.3-0.4-0.4l-3.7-2.1v1.1l2.6,1.5
			c0.1,0.1,0.1,0.2,0.1,0.3c0,0,0,0-0.1,0.1l-0.6,0.4L362.9,437.4z"/>
		<path class="st15" d="M357.6,439.4c-1.1,0.6-1.9,2.1-1.9,3.2c0,0.6,0.2,1,0.5,1.1c0.3,0.2,0.9,0.5,0.9,0.5l5.8-3.7
			c0.2-0.1,0.4-0.3,0.4-0.6v-4.2c0,0.2-0.2,0.5-0.4,0.6L357.6,439.4z"/>
		<path class="st19" d="M358.5,440c-1.1,0.6-1.9,2.1-1.9,3.2c0,1.2,0.9,1.6,1.9,1l5.3-3c0.2-0.1,0.4-0.3,0.4-0.6v-4.2
			c0,0.2-0.2,0.5-0.4,0.6L358.5,440z"/>
		<path class="st16" d="M358.8,440.6c0.6-0.4,1.1-0.1,1.1,0.6c0,0.8-0.5,1.5-1.1,1.9c-0.6,0.4-1.1,0.1-1.1-0.6
			C357.8,441.7,358.2,441,358.8,440.6z"/>
		<path class="st15" d="M344,432.4l-22.2-23.3c-0.2-0.2-0.4-0.5-0.5-0.7l-0.8,1.9l21.9,23c0.2,0.3,0.4,0.6,0.6,0.9l1.5-0.9
			C344.4,433,344.2,432.7,344,432.4z"/>
	</g>
</g>
</svg>
